<svg width="1019" height="1000" viewBox="0 0 1019 1000" fill="none" xmlns="http://www.w3.org/2000/svg">
<path d="M883.736 230.764C884.598 230.758 884.598 230.758 885.477 230.752C887.37 230.741 889.262 230.748 891.154 230.756C892.474 230.754 893.793 230.752 895.112 230.749C897.874 230.746 900.636 230.751 903.399 230.762C906.935 230.775 910.472 230.767 914.008 230.753C916.732 230.745 919.455 230.748 922.179 230.754C923.483 230.755 924.787 230.753 926.091 230.748C927.915 230.742 929.738 230.751 931.562 230.764C932.098 230.759 932.634 230.755 933.187 230.75C936.526 230.793 938.596 231.367 941.265 233.382C943.715 236.423 943.996 238.808 943.584 242.656C941.903 246.044 939.454 248.546 936.795 251.178C936.347 251.627 935.899 252.076 935.438 252.539C933.964 254.016 932.484 255.487 931.005 256.959C929.975 257.987 928.947 259.015 927.918 260.044C925.764 262.197 923.608 264.347 921.45 266.495C918.685 269.246 915.926 272.002 913.168 274.761C911.045 276.884 908.919 279.005 906.794 281.125C905.775 282.141 904.758 283.157 903.74 284.174C902.318 285.594 900.893 287.012 899.468 288.429C899.049 288.849 898.63 289.268 898.199 289.7C892.558 295.293 892.558 295.293 888.715 295.979C889.499 295.983 890.282 295.988 891.09 295.993C898.48 296.037 905.871 296.093 913.262 296.161C917.061 296.196 920.861 296.226 924.66 296.247C928.328 296.267 931.996 296.298 935.664 296.337C937.062 296.35 938.46 296.359 939.858 296.363C941.819 296.371 943.78 296.393 945.741 296.418C946.605 296.416 946.605 296.416 947.486 296.414C951.126 296.48 953.682 297.041 956.721 299.07C959.125 302.016 959.332 304.384 959.34 308.123C959.344 308.629 959.348 309.134 959.352 309.655C959.362 311.318 959.355 312.981 959.347 314.644C959.349 315.805 959.351 316.967 959.354 318.128C959.358 320.56 959.353 322.991 959.342 325.423C959.329 328.532 959.336 331.64 959.35 334.749C959.359 337.147 959.356 339.545 959.35 341.943C959.348 343.088 959.35 344.234 959.356 345.38C959.362 346.985 959.352 348.59 959.34 350.195C959.337 351.563 959.337 351.563 959.334 352.958C959 355.824 958.236 357.675 956.721 360.121C952.329 362.813 948.225 362.748 943.176 362.666C942.03 362.661 942.03 362.661 940.86 362.656C938.435 362.643 936.011 362.614 933.586 362.584C931.935 362.573 930.284 362.562 928.633 362.553C924.601 362.527 920.568 362.487 916.536 362.44C916.536 366.01 916.536 369.58 916.536 373.259C896.899 373.259 877.262 373.259 857.03 373.259C857.03 378.104 857.03 382.95 857.03 387.942C858.122 387.937 859.214 387.932 860.338 387.926C870.629 387.879 880.92 387.844 891.21 387.822C896.501 387.81 901.791 387.794 907.081 387.767C912.187 387.741 917.293 387.728 922.399 387.722C924.347 387.718 926.294 387.709 928.242 387.697C930.971 387.68 933.699 387.678 936.428 387.679C937.232 387.67 938.037 387.662 938.865 387.653C943.362 387.673 946.575 388.078 950.539 390.26C953.421 393.334 953.729 396.16 953.755 400.258C953.762 401.202 953.769 402.146 953.777 403.119C953.781 404.151 953.784 405.182 953.787 406.214C953.791 407.274 953.796 408.334 953.8 409.394C953.808 411.616 953.813 413.838 953.816 416.061C953.82 418.901 953.838 421.741 953.86 424.581C953.875 426.771 953.879 428.961 953.88 431.151C953.884 432.705 953.898 434.258 953.912 435.812C953.91 436.764 953.908 437.715 953.905 438.695C953.908 439.529 953.911 440.363 953.914 441.222C953.503 444.637 952.336 447.262 949.814 449.621C947.148 451.156 944.699 451.408 941.657 451.399C940.636 451.399 940.636 451.399 939.595 451.399C938.867 451.395 938.139 451.391 937.389 451.387C936.264 451.385 936.264 451.385 935.115 451.383C932.722 451.379 930.328 451.369 927.935 451.36C926.31 451.356 924.686 451.352 923.062 451.349C919.084 451.34 915.105 451.327 911.126 451.311C911.135 452.028 911.144 452.744 911.153 453.482C911.164 454.87 911.164 454.87 911.174 456.286C911.183 457.21 911.192 458.133 911.202 459.085C911.126 461.358 911.126 461.358 910.353 462.13C908.694 462.203 907.032 462.221 905.371 462.218C904.59 462.218 904.59 462.218 903.794 462.218C902.067 462.218 900.34 462.212 898.613 462.206C897.419 462.204 896.225 462.203 895.03 462.203C891.881 462.2 888.731 462.192 885.582 462.183C882.37 462.176 879.159 462.172 875.947 462.168C869.642 462.16 863.336 462.146 857.03 462.13C857.03 468.506 857.03 474.882 857.03 481.45C860.022 481.438 863.014 481.426 866.096 481.414C875.979 481.375 885.861 481.349 895.744 481.33C901.736 481.318 907.728 481.302 913.721 481.275C918.944 481.252 924.168 481.237 929.392 481.232C932.157 481.229 934.922 481.222 937.687 481.205C940.777 481.186 943.866 481.186 946.956 481.187C948.325 481.175 948.325 481.175 949.722 481.162C954.457 481.18 957.977 481.413 962.131 483.769C965.092 486.928 965.321 489.844 965.346 494.05C965.354 495.056 965.361 496.062 965.369 497.099C965.373 498.199 965.376 499.299 965.379 500.399C965.383 501.528 965.388 502.657 965.392 503.786C965.4 506.154 965.405 508.522 965.408 510.89C965.412 513.917 965.43 516.944 965.452 519.972C965.467 522.305 965.471 524.638 965.472 526.971C965.474 528.086 965.481 529.202 965.491 530.318C965.504 531.882 965.501 533.447 965.497 535.011C965.5 535.9 965.503 536.789 965.506 537.705C965.181 540.539 964.375 542.388 962.904 544.82C959.598 547.278 956.606 548.011 952.547 547.999C951.549 547.999 951.549 547.999 950.532 547.998C949.821 547.994 949.11 547.991 948.377 547.986C947.278 547.985 947.278 547.985 946.156 547.983C943.817 547.979 941.479 547.969 939.14 547.959C937.553 547.955 935.966 547.952 934.38 547.949C930.492 547.94 926.605 547.927 922.718 547.911C922.718 551.226 922.718 554.542 922.718 557.957C868.398 557.957 814.078 557.957 758.112 557.957C757.857 540.871 757.602 523.784 757.339 506.18C753.897 511.918 753.897 511.918 750.384 517.772C748.862 519.717 747.502 521.41 745.796 523.133C745.404 523.541 745.013 523.949 744.609 524.37C729.663 539.667 710.235 547.767 689.575 551.727C684.104 552.776 679.291 554.446 674.202 556.684C670.128 558.444 666.044 559.773 661.754 560.904C660.916 561.129 660.916 561.129 660.06 561.359C650.83 563.692 641.594 564.422 632.098 564.381C631.579 564.38 631.06 564.378 630.525 564.377C600.938 564.243 571.782 555.269 548.926 536.126C548.452 535.734 547.978 535.341 547.49 534.937C543.55 531.545 543.55 531.545 543.274 528.591C544.644 526.949 545.959 525.581 547.525 524.147C550.088 521.737 552.57 519.337 554.845 516.649C559.424 511.332 564.527 506.486 569.501 501.543C570.557 500.492 571.612 499.44 572.666 498.389C575.232 495.832 577.8 493.277 580.369 490.724C581.899 491.234 583.429 491.744 585.006 492.27C585.313 491.955 585.621 491.641 585.937 491.317C589.15 488.036 592.374 484.765 595.604 481.501C596.807 480.283 598.007 479.062 599.204 477.838C600.929 476.075 602.664 474.323 604.401 472.572C604.931 472.026 605.461 471.48 606.007 470.918C609.389 467.535 612.586 464.583 617.618 464.381C621.999 465.55 624.267 467.768 627.22 471.114C636.65 481.14 648.953 486.271 662.285 489.178C659.549 480.885 656.068 476.113 648.182 472.128C639.902 468.15 631.222 465.216 622.547 462.236C602.809 455.446 585.34 448.344 569.55 434.31C569.446 435.06 569.446 435.06 569.339 435.826C565.346 464.026 556.782 489.595 537.056 510.735C535.824 512.063 534.685 513.405 533.566 514.826C531.102 517.668 528.403 520.023 525.5 522.409C524.811 522.981 524.121 523.554 523.411 524.144C505.885 538.188 485.984 546.789 464.063 551.292C459.61 552.256 455.531 553.864 451.312 555.542C443.224 558.739 435.103 560.898 426.582 562.594C425.237 562.866 425.237 562.866 423.865 563.143C390.063 568.888 351.091 563.322 322.686 543.217C297.059 523.928 278.298 498.976 272.795 466.767C272.589 465.605 272.589 465.605 272.378 464.419C270.969 455.43 271.075 446.525 271.153 437.449C271.161 435.864 271.168 434.279 271.174 432.693C271.191 428.853 271.218 425.012 271.25 421.172C270.886 421.588 270.523 422.004 270.148 422.433C269.667 422.983 269.186 423.533 268.69 424.1C267.977 424.916 267.977 424.916 267.25 425.747C263.416 430.118 259.513 433.535 254.683 436.773C254.203 437.095 253.724 437.416 253.229 437.748C249.822 439.975 246.323 441.817 242.656 443.583C250.413 457.483 258.9 470.959 267.251 484.506C269.944 488.878 272.628 493.256 275.292 497.646C275.564 498.094 275.836 498.543 276.116 499.005C277.487 501.265 278.855 503.526 280.221 505.789C283.005 510.397 285.825 514.977 288.71 519.523C289.569 520.885 290.428 522.248 291.286 523.611C292.092 524.884 292.91 526.149 293.729 527.414C296.459 531.753 298.315 534.997 298.298 540.183C297.143 543.405 295.899 545.455 292.888 547.138C290.256 547.783 287.814 548.006 285.109 547.999C284.352 547.999 283.594 547.999 282.813 547.998C282.005 547.994 281.196 547.991 280.363 547.986C279.528 547.985 278.693 547.984 277.833 547.983C275.172 547.979 272.51 547.969 269.849 547.959C268.042 547.955 266.236 547.952 264.429 547.949C260.005 547.94 255.581 547.927 251.157 547.911C251.492 548.442 251.826 548.973 252.171 549.52C252.602 550.216 253.032 550.913 253.475 551.63C253.906 552.32 254.336 553.011 254.779 553.722C255.794 555.639 255.794 555.639 255.794 557.957C233.352 557.957 210.91 557.957 187.788 557.957C182.854 549.078 177.96 540.195 173.184 531.232C170.19 525.64 167.064 520.139 163.831 514.681C163.82 515.429 163.808 516.177 163.797 516.948C163.752 519.74 163.692 522.531 163.628 525.322C163.602 526.527 163.581 527.732 163.563 528.937C163.537 530.676 163.497 532.413 163.454 534.152C163.449 534.685 163.444 535.219 163.439 535.769C163.313 539.969 162.356 543.257 159.291 546.22C155.254 548.476 150.626 548.012 146.138 547.986C145.406 547.985 144.674 547.984 143.919 547.983C141.589 547.979 139.258 547.969 136.928 547.959C135.345 547.955 133.761 547.952 132.178 547.949C128.303 547.94 124.429 547.927 120.554 547.911C120.554 551.226 120.554 554.542 120.554 557.957C101.682 557.957 82.8108 557.957 63.3672 557.957C63.3672 480.43 63.3672 402.903 63.3672 323.027C72.293 323.027 81.2188 323.027 90.4151 323.027C90.2933 316.623 90.2933 316.623 90.1366 310.219C90.0656 302.823 90.0656 302.823 91.7313 300.066C94.6904 297.117 97.5314 296.559 101.623 296.55C102.468 296.545 103.314 296.539 104.185 296.534C105.105 296.536 106.026 296.537 106.974 296.539C107.95 296.536 108.926 296.532 109.931 296.527C112.606 296.517 115.282 296.517 117.957 296.519C120.203 296.519 122.448 296.516 124.694 296.512C130.01 296.503 135.325 296.503 140.641 296.508C146.082 296.512 151.523 296.503 156.964 296.486C161.662 296.473 166.36 296.468 171.058 296.471C173.851 296.472 176.645 296.47 179.438 296.459C195.268 296.403 210.873 296.946 226.234 301.147C226.964 301.343 227.695 301.54 228.447 301.742C248.569 307.404 265.892 318.487 276.747 336.641C283.418 348.603 285.522 361.353 286.706 374.804C287.016 374.289 287.325 373.774 287.645 373.244C297.39 357.444 310.765 344.464 326.553 334.764C329.843 332.636 332.394 329.932 335.102 327.132C352.078 309.664 374.587 299.338 398.037 293.854C398.683 293.7 399.33 293.547 399.996 293.388C411.003 290.941 422.056 290.273 433.296 290.328C433.9 290.329 434.503 290.331 435.126 290.332C445.051 290.371 454.695 290.927 464.449 292.888C465.122 293.02 465.795 293.153 466.488 293.29C498.212 299.734 528.536 316.843 547.138 343.892C551.391 350.388 555.337 357.001 558.73 363.985C559.152 363.191 559.573 362.397 560.007 361.579C567.873 347.017 578.147 335.123 593.748 328.533C597.146 326.922 598.926 324.147 601.156 321.207C615.863 302.699 642.899 294.363 665.377 291.342C666.455 291.191 666.455 291.191 667.556 291.037C700.908 287.212 734.544 297.803 760.757 318.309C761.98 319.314 763.148 320.389 764.295 321.481C764.295 321.991 764.295 322.501 764.295 323.027C771.18 323.027 778.066 323.027 785.16 323.027C785.038 316.623 785.038 316.623 784.882 310.219C784.811 302.823 784.811 302.823 786.476 300.066C789.049 297.502 791.035 296.768 794.677 296.714C796.112 296.803 796.112 296.803 797.576 296.894C808.509 297.735 808.509 297.735 818.747 294.884C821.731 292.004 823.437 288.45 825.168 284.726C826.802 281.486 829.01 278.678 831.19 275.79C833.68 272.432 836.103 269.092 838.254 265.505C842.178 259.17 842.178 259.17 844.666 257.339C847.395 256.92 849.678 256.934 852.404 257.096C854.702 257.116 856.511 256.965 858.364 255.541C861.058 252.617 863.162 249.28 865.244 245.905C866.895 243.251 868.699 240.713 870.506 238.164C870.807 237.716 871.107 237.268 871.417 236.807C874.782 231.927 877.948 230.713 883.736 230.764ZM874.02 245.457C873.13 247.011 872.363 248.531 871.698 250.193C870.617 252.673 869.192 254.99 867.849 257.339C878.815 257.339 889.781 257.339 901.08 257.339C899.403 260.134 898.353 261.802 896.157 263.97C895.647 264.478 895.136 264.986 894.611 265.509C894.065 266.045 893.519 266.58 892.956 267.132C892.394 267.691 891.831 268.249 891.251 268.825C889.459 270.603 887.663 272.375 885.865 274.147C884.06 275.931 882.256 277.716 880.455 279.503C879.335 280.614 878.212 281.722 877.088 282.829C876.585 283.327 876.082 283.825 875.563 284.338C874.894 284.997 874.894 284.997 874.212 285.67C873.172 286.566 873.172 286.566 873.259 287.478C882.48 288.725 882.48 288.725 890.979 285.749C893.948 283.332 896.515 280.542 899.099 277.728C900.075 276.723 901.053 275.722 902.035 274.724C904.588 272.11 907.095 269.456 909.593 266.79C912.151 264.076 914.749 261.402 917.345 258.725C920.258 255.717 923.166 252.706 926.045 249.665C926.48 249.205 926.916 248.745 927.365 248.271C928.177 247.414 928.987 246.554 929.795 245.693C931.486 243.906 933.023 242.483 935.083 241.11C935.083 240.6 935.083 240.09 935.083 239.565C928.09 239.277 921.099 239.058 914.101 238.924C910.851 238.86 907.604 238.773 904.356 238.632C887.292 236.981 887.292 236.981 874.02 245.457ZM355.485 321.481C358.16 322.373 359.261 322.097 361.984 321.511C362.813 321.338 363.643 321.165 364.497 320.986C365.798 320.705 365.798 320.705 367.125 320.419C377.581 318.179 387.512 317.433 398.182 317.424C398.798 317.423 399.414 317.423 400.05 317.422C410.085 317.43 419.804 317.992 429.673 319.936C430.246 320.043 430.819 320.151 431.409 320.262C460.16 325.797 488.388 342.226 505.236 366.521C524.845 395.607 530.91 431.95 524.362 466.369C519.974 488.082 511.396 507.571 496.14 523.812C494.542 525.506 494.542 525.506 493.046 527.468C491.564 529.282 490.055 530.716 488.261 532.214C486.064 533.998 486.064 533.998 484.542 536.319C489.214 534.892 493.521 533.172 497.824 530.861C498.39 530.558 498.956 530.255 499.538 529.943C525.773 515.563 547.071 490.998 555.639 462.13C562.272 438.3 562.272 438.3 558.8 414.673C555.496 406.821 555.591 399.04 555.784 390.695C555.929 381.947 554.993 375.583 551.002 367.849C550.407 366.622 549.813 365.394 549.218 364.166C543.63 352.887 536.463 343.701 527.819 334.619C527.36 334.12 526.902 333.621 526.43 333.106C519.576 325.863 510.94 320.184 502.316 315.299C501.872 315.046 501.428 314.793 500.97 314.533C486.567 306.474 470.672 302.11 454.403 299.843C453.887 299.764 453.372 299.686 452.841 299.605C446.659 298.772 440.392 298.882 434.165 298.877C433.546 298.876 432.927 298.876 432.29 298.875C405.189 298.912 377.593 305.01 355.485 321.481ZM623.066 314.285C622.55 314.569 622.033 314.854 621.502 315.147C618.744 316.721 616.491 318.338 614.372 320.708C614.927 320.615 615.482 320.521 616.053 320.425C649.146 315.067 683.842 317.322 712.173 337.272C714.388 338.921 716.556 340.606 718.7 342.347C719.781 343.212 719.781 343.212 720.885 344.095C721.439 344.538 721.993 344.981 722.564 345.438C722.285 349.339 720.211 351.251 717.492 353.794C717.09 354.182 716.688 354.57 716.274 354.97C715.286 355.921 714.289 356.863 713.29 357.803C716.23 360.832 719.33 363.592 722.564 366.304C730.228 358.791 730.228 358.791 737.425 350.839C739.562 348.437 741.871 346.207 744.159 343.95C746.714 341.416 749.103 338.791 751.438 336.056C753.547 333.659 755.825 331.434 758.112 329.209C754.998 320.754 741.109 314.31 733.383 310.662C697.323 294.632 657.793 295.088 623.066 314.285ZM98.9159 305.252C98.9159 311.118 98.9159 316.984 98.9159 323.027C101.802 323.044 101.802 323.044 104.747 323.061C111.175 323.1 117.603 323.152 124.031 323.209C127.92 323.243 131.81 323.274 135.699 323.295C168.013 323.474 202.834 323.954 227.2 348.529C240.534 362.658 243.266 381.901 242.758 400.521C241.949 417.235 234.597 431.638 222.57 443.146C214.812 449.764 205.942 454.276 196.288 457.494C196.797 460.15 197.841 462.1 199.238 464.407C199.923 465.543 199.923 465.543 200.621 466.703C201.12 467.521 201.619 468.339 202.133 469.182C202.651 470.04 203.17 470.897 203.704 471.78C207.86 478.644 212.067 485.477 216.281 492.306C221.114 500.138 225.89 508.003 230.66 515.873C231.481 517.158 231.481 517.158 232.319 518.469C233.851 520.964 235.005 523.536 236.17 526.22C240.029 534.878 240.029 534.878 247.343 540.332C254.102 541.626 260.86 541.033 267.676 540.521C269.748 540.422 271.821 540.349 273.894 540.278C278.946 540.083 283.983 539.787 289.024 539.41C289.279 538.9 289.534 538.39 289.797 537.865C289.228 536.511 289.228 536.511 288.278 535.039C287.922 534.451 287.565 533.863 287.197 533.256C286.796 532.609 286.395 531.962 285.981 531.296C285.564 530.613 285.148 529.93 284.718 529.226C283.327 526.95 281.925 524.679 280.523 522.409C279.553 520.831 278.583 519.253 277.613 517.675C276.081 515.184 274.548 512.694 273.013 510.204C269.148 503.936 265.312 497.649 261.493 491.352C261.218 490.898 260.942 490.443 260.658 489.976C259.295 487.728 257.932 485.479 256.569 483.231C249.715 471.926 242.824 460.643 235.887 449.389C235.392 448.587 234.897 447.785 234.388 446.958C233.951 446.25 233.514 445.541 233.064 444.812C231.87 442.864 230.691 440.908 229.519 438.946C229.942 438.851 230.365 438.755 230.802 438.657C240.12 436.232 248.505 431.244 255.794 425.036C256.965 424.152 256.965 424.152 258.16 423.249C269.526 412.851 276.722 397.667 277.527 382.261C277.943 368.896 276.829 357.008 271.25 344.665C270.926 343.944 270.602 343.223 270.269 342.48C267.224 336.337 262.91 331.696 258.112 326.891C257.434 326.199 257.434 326.199 256.742 325.493C236.252 306.304 204.226 304.855 177.986 305.017C175.194 305.032 172.402 305.033 169.61 305.036C164.353 305.043 159.096 305.062 153.839 305.086C147.841 305.112 141.844 305.124 135.846 305.136C123.536 305.16 111.226 305.201 98.9159 305.252ZM793.661 305.252C793.661 311.118 793.661 316.984 793.661 323.027C834.21 323.027 874.758 323.027 916.536 323.027C916.536 333.228 916.536 343.429 916.536 353.939C927.757 353.939 938.978 353.939 950.539 353.939C950.539 337.872 950.539 321.806 950.539 305.252C932.714 305.229 932.714 305.229 914.889 305.214C908.516 305.209 902.143 305.204 895.77 305.194C890.726 305.187 885.682 305.182 880.638 305.18C877.966 305.179 875.294 305.176 872.622 305.171C869.643 305.165 866.663 305.164 863.684 305.165C862.793 305.162 861.903 305.159 860.986 305.156C860.177 305.157 859.369 305.158 858.536 305.16C857.83 305.159 857.125 305.158 856.399 305.157C854.676 305.143 854.676 305.143 853.166 306.025C851.837 306.099 850.504 306.124 849.172 306.125C847.923 306.129 847.923 306.129 846.648 306.133C845.295 306.13 845.295 306.13 843.914 306.128C842.992 306.129 842.069 306.129 841.119 306.13C839.167 306.131 837.215 306.129 835.263 306.126C832.262 306.122 829.262 306.126 826.262 306.131C824.37 306.13 822.477 306.129 820.585 306.128C819.681 306.129 818.777 306.131 817.846 306.133C817.015 306.13 816.185 306.128 815.329 306.125C814.594 306.125 813.859 306.124 813.102 306.123C811.435 306.025 811.435 306.025 810.662 305.252C809.399 305.185 808.133 305.17 806.868 305.177C806.179 305.179 805.491 305.181 804.782 305.183C803.901 305.19 803.021 305.197 802.113 305.204C797.929 305.228 797.929 305.228 793.661 305.252ZM755.933 342.878C753.128 345.692 750.359 348.502 747.776 351.524C745.205 354.525 742.423 357.289 739.61 360.059C737.485 362.164 735.466 364.316 733.528 366.593C730.612 369.966 728.194 372.745 723.771 374.031C718.202 374.031 715.609 371.883 711.793 368.091C710.738 366.987 709.689 365.879 708.653 364.758C705.305 366.045 703.139 368.525 700.684 371.037C700.015 371.713 700.015 371.713 699.333 372.402C696.504 375.282 693.765 378.219 691.163 381.307C690.64 381.913 690.64 381.913 690.106 382.532C689.741 382.985 689.377 383.437 689.001 383.903C687.788 384.851 687.788 384.851 686.287 384.805C684.228 383.864 683.162 382.626 681.654 380.938C675.828 374.921 668.085 370.122 659.967 367.849C658.947 367.849 657.927 367.849 656.876 367.849C656.568 370.366 656.352 372.4 657.713 374.63C660.593 378.008 663.31 379.998 667.366 381.762C667.932 382.019 668.499 382.275 669.083 382.539C676.769 385.914 684.8 388.34 692.796 390.862C710.449 396.46 727.143 403.579 741.883 414.99C742.373 415.341 742.862 415.693 743.366 416.055C749.481 420.743 753.752 428.376 757.339 435.082C757.594 435.082 757.849 435.082 758.112 435.082C758.112 404.225 758.112 373.367 758.112 341.574C757.114 341.486 757.114 341.486 755.933 342.878ZM619.057 373.693C618.531 374.315 618.005 374.937 617.463 375.577C617.033 376.055 616.602 376.533 616.159 377.026C613.093 381.99 612.932 387.84 613.877 393.457C615.319 398.416 618.747 401.296 622.873 404.171C624.804 405.214 626.712 406.191 628.696 407.12C629.549 407.52 629.549 407.52 630.419 407.928C638.09 411.419 646.131 413.834 654.156 416.365C678.223 423.995 702.831 433.784 715.077 457.252C723.77 475.079 723.122 496.261 716.879 514.823C713.38 524.483 707.981 532.035 700.925 539.41C702.405 540.366 702.405 540.366 703.835 539.801C704.378 539.578 704.921 539.354 705.48 539.123C706.39 538.749 706.39 538.749 707.318 538.367C708.289 537.951 708.289 537.951 709.281 537.526C709.943 537.244 710.606 536.962 711.288 536.671C720.009 532.86 727.758 527.917 734.928 521.636C735.515 521.123 736.102 520.61 736.706 520.081C749.827 507.822 756.006 490.361 756.862 472.735C757.39 453.872 752.417 437.359 739.465 423.243C733.827 417.767 727.117 414.05 720.245 410.353C719.723 410.066 719.202 409.78 718.664 409.484C708.382 403.921 697.324 400.486 686.239 396.916C666.74 390.625 666.74 390.626 659.436 386.396C658.588 385.918 657.74 385.44 656.867 384.947C652.518 381.855 650.21 378.57 649.148 373.259C648.824 370.687 648.573 368.115 648.375 365.531C638.155 364.983 626.952 366.806 619.057 373.693ZM385.672 383.643C378.7 395.58 375.905 407.325 376.06 421.124C376.069 422.143 376.077 423.162 376.086 424.212C376.393 442.964 382.455 457.88 395.79 471.183C407.536 482.284 422.102 484.931 437.745 484.686C446.939 484.761 446.939 484.761 454.578 480.412C456.11 477.986 457.209 475.616 458.267 472.95C458.628 472.05 458.99 471.15 459.363 470.224C466.981 449.289 466.767 426.065 457.494 405.716C450.129 390.543 437.808 379.016 421.945 373.259C417.876 371.906 413.786 370.986 409.581 370.167C408.646 369.933 407.712 369.699 406.749 369.458C396.315 367.549 391.013 375.808 385.672 383.643ZM120.554 370.94C120.554 388.027 120.554 405.113 120.554 422.718C125.766 422.766 130.978 422.813 136.348 422.863C137.964 422.884 139.579 422.905 141.243 422.927C154.324 423.027 167.912 422.636 178.466 413.879C182.198 409.805 182.198 409.805 183.924 404.943C174.233 404.943 164.542 404.943 154.557 404.943C154.557 393.722 154.557 382.501 154.557 370.94C143.336 370.94 132.115 370.94 120.554 370.94ZM163.058 371.713C163.058 379.874 163.058 388.035 163.058 396.443C170.454 396.443 177.849 396.443 185.469 396.443C185.469 390.133 184.479 384.988 180.546 379.927C175.512 374.894 169.915 373.583 163.058 371.713ZM379.48 372.01C378.973 372.183 378.466 372.356 377.944 372.534C377.423 372.711 376.903 372.888 376.366 373.07C359.963 378.847 348.117 390.808 340.219 406.006C331.456 424.981 330.546 448.664 337.71 468.313C344.963 485.743 356.667 498.984 373.935 506.808C389.534 512.82 408.058 512.85 423.636 506.759C431.461 503.236 438.194 499.034 444.356 493.042C442.107 492.293 440.826 492.206 438.5 492.276C419.417 492.678 403.206 488.874 388.923 475.446C388.055 474.593 388.055 474.593 387.169 473.722C386.457 473.025 386.457 473.025 385.729 472.313C372.709 458.514 368.277 439.957 368.332 421.51C368.333 420.964 368.334 420.418 368.334 419.856C368.37 411.241 368.852 403.088 371.713 394.897C371.896 394.373 372.078 393.848 372.266 393.308C375.209 385.21 379.589 378.489 384.851 371.713C382.768 370.672 381.611 371.324 379.48 372.01ZM814.526 373.259C814.526 386.775 814.526 400.291 814.526 414.217C846.149 414.472 877.772 414.727 910.353 414.99C910.608 424.171 910.863 433.351 911.126 442.81C915.845 442.828 920.563 442.844 925.281 442.853C926.888 442.857 928.494 442.862 930.101 442.869C932.404 442.878 934.708 442.883 937.012 442.886C937.735 442.89 938.458 442.894 939.202 442.898C939.868 442.898 940.533 442.898 941.218 442.898C942.101 442.901 942.101 442.901 943.002 442.903C944.378 442.958 944.378 442.958 945.129 442.038C945.206 440.643 945.228 439.245 945.229 437.848C945.233 436.505 945.233 436.505 945.237 435.136C945.235 434.162 945.233 433.188 945.232 432.185C945.233 431.193 945.233 430.201 945.234 429.179C945.235 427.076 945.234 424.974 945.23 422.872C945.226 420.171 945.228 417.471 945.233 414.771C945.236 412.204 945.234 409.636 945.232 407.069C945.234 405.608 945.234 405.608 945.237 404.117C945.234 403.222 945.232 402.327 945.229 401.405C945.229 400.613 945.228 399.821 945.227 399.005C945.33 397.245 945.33 397.245 944.356 396.443C943.115 396.368 941.87 396.348 940.626 396.35C939.818 396.349 939.011 396.348 938.179 396.346C936.839 396.351 936.839 396.351 935.472 396.355C934.07 396.355 934.07 396.355 932.639 396.355C930.069 396.355 927.498 396.359 924.928 396.364C922.244 396.369 919.56 396.37 916.877 396.37C911.792 396.373 906.706 396.379 901.621 396.387C895.833 396.396 890.045 396.4 884.257 396.404C872.348 396.412 860.439 396.426 848.53 396.443C848.53 388.792 848.53 381.141 848.53 373.259C837.309 373.259 826.087 373.259 814.526 373.259ZM814.526 462.13C814.526 477.177 814.526 492.223 814.526 507.725C867.699 508.108 867.699 508.108 921.945 508.498C922.2 518.699 922.455 528.9 922.718 539.41C927.436 539.428 932.155 539.443 936.873 539.453C938.48 539.457 940.086 539.462 941.693 539.468C943.996 539.478 946.3 539.482 948.604 539.486C949.327 539.49 950.05 539.494 950.794 539.498C951.46 539.498 952.125 539.498 952.81 539.498C953.693 539.5 953.693 539.5 954.594 539.503C955.97 539.558 955.97 539.558 956.721 538.637C956.798 537.148 956.82 535.655 956.821 534.164C956.825 532.729 956.825 532.729 956.829 531.264C956.827 530.212 956.826 529.16 956.824 528.108C956.824 527.037 956.825 525.965 956.826 524.894C956.827 522.646 956.826 520.399 956.822 518.151C956.818 515.263 956.82 512.376 956.825 509.489C956.827 507.276 956.827 505.063 956.825 502.85C956.824 501.785 956.825 500.72 956.826 499.655C956.828 498.169 956.825 496.684 956.821 495.198C956.821 494.351 956.82 493.503 956.819 492.631C956.937 490.767 956.937 490.767 955.948 489.951C954.56 489.877 953.168 489.857 951.777 489.858C950.873 489.857 949.968 489.856 949.035 489.855C947.533 489.859 947.533 489.859 946 489.863C944.942 489.864 943.883 489.864 942.825 489.863C939.943 489.863 937.061 489.867 934.179 489.873C931.17 489.878 928.162 489.878 925.153 489.879C919.452 489.881 913.751 489.888 908.05 489.895C901.561 489.904 895.073 489.908 888.584 489.912C875.232 489.92 861.881 489.934 848.53 489.951C848.53 480.77 848.53 471.589 848.53 462.13C837.309 462.13 826.087 462.13 814.526 462.13ZM120.554 465.994C120.554 490.222 120.554 514.449 120.554 539.41C131.52 539.41 142.486 539.41 153.785 539.41C157.764 535.431 155.456 518.483 155.512 513.025C155.45 497.384 152.108 486.215 142.977 473.614C141.263 471.182 139.805 468.577 138.329 465.994C132.463 465.994 126.597 465.994 120.554 465.994ZM614.763 474.691C614.314 475.144 613.864 475.597 613.401 476.063C612.89 476.574 612.38 477.085 611.854 477.611C611.304 478.168 610.754 478.726 610.188 479.301C609.624 479.867 609.06 480.433 608.479 481.016C606.672 482.832 604.871 484.653 603.07 486.474C601.848 487.703 600.627 488.931 599.405 490.159C596.404 493.177 593.408 496.199 590.415 499.225C600.198 509.29 615.695 515.316 629.61 515.727C639.11 515.814 649.294 514.49 656.758 508.036C659.645 504.923 660.9 501.644 662.285 497.679C660.827 497.368 660.827 497.368 659.339 497.051C650.296 495.021 642.497 492.244 634.465 487.633C633.688 487.203 632.911 486.774 632.11 486.332C627.025 483.337 623.182 479.664 619.175 475.392C617.061 473.285 617.061 473.285 614.763 474.691Z" fill="black"/>
<path d="M101.623 296.548C102.468 296.542 103.314 296.537 104.185 296.531C105.105 296.533 106.026 296.535 106.974 296.537C107.95 296.533 108.926 296.529 109.931 296.525C112.606 296.515 115.282 296.514 117.957 296.516C120.203 296.517 122.448 296.513 124.694 296.51C130.01 296.501 135.325 296.501 140.641 296.505C146.082 296.51 151.523 296.501 156.964 296.484C161.662 296.47 166.36 296.466 171.058 296.468C173.851 296.47 176.645 296.468 179.438 296.457C195.268 296.4 210.873 296.944 226.234 301.145C226.964 301.341 227.695 301.537 228.447 301.74C248.569 307.402 265.892 318.485 276.747 336.639C283.418 348.601 285.522 361.351 286.706 374.802C287.015 374.287 287.325 373.772 287.645 373.241C297.038 358.011 310.819 342.981 326.891 334.616C327.401 334.871 327.911 335.126 328.437 335.389C327.651 336.332 327.651 336.332 326.849 337.294C315.366 351.322 307.2 367.184 302.934 384.848C302.722 385.718 302.51 386.587 302.291 387.483C301.669 390.203 301.124 392.924 300.616 395.667C300.456 396.521 300.295 397.375 300.13 398.254C294.839 432.255 301.481 470.707 321.85 498.809C325.797 504.111 330.09 509.092 334.619 513.905C335.063 514.399 335.508 514.894 335.965 515.403C352.461 532.998 375.947 544.067 399.148 549.212C400.206 549.447 400.206 549.447 401.285 549.687C411.8 551.912 421.963 552.791 432.668 552.69C433.827 552.685 434.987 552.68 436.147 552.675C443.794 552.63 451.417 552.433 459.04 551.772C451.954 558.858 436.245 560.847 426.582 562.592C425.315 562.838 425.315 562.838 424.022 563.09C390.146 568.86 351.169 563.374 322.686 543.214C297.059 523.926 278.298 498.973 272.795 466.765C272.658 465.99 272.52 465.215 272.378 464.417C270.969 455.428 271.075 446.522 271.153 437.447C271.161 435.861 271.168 434.276 271.174 432.691C271.191 428.85 271.218 425.01 271.25 421.17C270.886 421.586 270.523 422.002 270.148 422.43C269.667 422.981 269.186 423.531 268.69 424.098C267.977 424.913 267.977 424.913 267.25 425.745C263.416 430.115 259.513 433.533 254.683 436.77C254.203 437.092 253.724 437.414 253.229 437.745C249.822 439.972 246.323 441.814 242.656 443.581C250.413 457.481 258.9 470.956 267.251 484.504C269.944 488.876 272.628 493.253 275.292 497.643C275.564 498.092 275.836 498.54 276.116 499.002C277.487 501.262 278.855 503.523 280.221 505.786C283.005 510.394 285.825 514.975 288.71 519.52C289.569 520.882 290.428 522.245 291.286 523.608C292.092 524.881 292.91 526.146 293.729 527.411C296.459 531.75 298.315 534.994 298.298 540.18C297.143 543.403 295.899 545.453 292.888 547.136C290.256 547.78 287.814 548.003 285.109 547.996C284.351 547.996 283.594 547.996 282.813 547.996C282.005 547.992 281.196 547.988 280.363 547.984C279.528 547.983 278.693 547.982 277.833 547.981C275.172 547.976 272.51 547.967 269.849 547.957C268.042 547.953 266.236 547.949 264.429 547.946C260.005 547.938 255.581 547.925 251.157 547.908C251.492 548.439 251.826 548.97 252.171 549.517C252.602 550.214 253.032 550.91 253.475 551.627C253.906 552.318 254.336 553.008 254.779 553.719C255.794 555.636 255.794 555.636 255.794 557.955C233.352 557.955 210.91 557.955 187.788 557.955C182.854 549.075 177.96 540.192 173.184 531.23C170.19 525.637 167.064 520.137 163.831 514.678C163.82 515.426 163.808 516.175 163.797 516.946C163.752 519.737 163.692 522.528 163.628 525.319C163.602 526.524 163.581 527.73 163.563 528.935C163.537 530.673 163.497 532.411 163.454 534.149C163.449 534.683 163.444 535.217 163.439 535.767C163.313 539.967 162.356 543.255 159.291 546.218C155.254 548.474 150.626 548.009 146.138 547.984C145.406 547.983 144.674 547.982 143.92 547.981C141.589 547.976 139.258 547.967 136.928 547.957C135.345 547.953 133.761 547.949 132.178 547.946C128.303 547.938 124.429 547.924 120.554 547.908C120.554 551.224 120.554 554.539 120.554 557.955C101.682 557.955 82.8108 557.955 63.3672 557.955C63.3672 480.428 63.3672 402.901 63.3672 323.024C72.293 323.024 81.2188 323.024 90.4151 323.024C90.2932 316.62 90.2932 316.62 90.1366 310.217C90.0656 302.82 90.0656 302.82 91.7313 300.064C94.6903 297.115 97.5314 296.557 101.623 296.548ZM98.9159 305.25C98.9159 311.116 98.9159 316.981 98.9159 323.024C101.802 323.041 101.802 323.041 104.747 323.058C111.175 323.098 117.603 323.149 124.031 323.206C127.92 323.241 131.81 323.271 135.699 323.292C168.013 323.471 202.834 323.951 227.2 348.527C240.534 362.656 243.266 381.899 242.758 400.519C241.949 417.233 234.597 431.635 222.57 443.143C214.812 449.762 205.942 454.273 196.288 457.491C196.797 460.148 197.841 462.098 199.238 464.404C199.923 465.541 199.923 465.541 200.621 466.701C201.12 467.519 201.619 468.337 202.133 469.18C202.651 470.037 203.17 470.894 203.704 471.778C207.86 478.642 212.067 485.475 216.281 492.303C221.114 500.135 225.89 508 230.66 515.871C231.481 517.155 231.481 517.155 232.319 518.466C233.851 520.961 235.005 523.533 236.17 526.218C240.029 534.875 240.029 534.875 247.343 540.329C254.102 541.623 260.86 541.03 267.676 540.519C269.748 540.419 271.821 540.347 273.894 540.276C278.946 540.081 283.983 539.785 289.024 539.408C289.279 538.898 289.534 538.388 289.797 537.862C289.228 536.508 289.228 536.508 288.278 535.036C287.922 534.448 287.565 533.86 287.197 533.254C286.796 532.607 286.395 531.96 285.981 531.293C285.564 530.61 285.148 529.928 284.718 529.224C283.327 526.947 281.925 524.676 280.523 522.406C279.553 520.828 278.583 519.251 277.613 517.673C276.081 515.182 274.548 512.691 273.013 510.202C269.148 503.933 265.312 497.647 261.493 491.349C261.218 490.895 260.942 490.441 260.658 489.973C259.295 487.725 257.932 485.477 256.569 483.229C249.715 471.923 242.824 460.641 235.886 449.387C235.392 448.585 234.897 447.782 234.388 446.956C233.951 446.247 233.514 445.539 233.064 444.809C231.87 442.861 230.691 440.905 229.519 438.944C229.942 438.848 230.365 438.753 230.802 438.654C240.12 436.23 248.505 431.241 255.794 425.034C256.965 424.149 256.965 424.149 258.16 423.247C269.526 412.848 276.722 397.665 277.527 382.259C277.943 368.894 276.829 357.005 271.25 344.663C270.926 343.941 270.602 343.22 270.269 342.477C267.224 336.334 262.91 331.693 258.112 326.888C257.434 326.196 257.434 326.196 256.742 325.491C236.252 306.301 204.226 304.852 177.986 305.015C175.194 305.03 172.402 305.031 169.61 305.034C164.353 305.041 159.096 305.06 153.839 305.083C147.841 305.109 141.844 305.122 135.846 305.133C123.536 305.157 111.226 305.198 98.9159 305.25ZM120.554 370.938C120.554 388.024 120.554 405.111 120.554 422.715C125.766 422.763 130.978 422.811 136.348 422.86C137.964 422.881 139.579 422.902 141.243 422.924C154.324 423.024 167.912 422.634 178.466 413.876C182.198 409.802 182.198 409.802 183.924 404.941C174.233 404.941 164.542 404.941 154.557 404.941C154.557 393.72 154.557 382.499 154.557 370.938C143.336 370.938 132.115 370.938 120.554 370.938ZM163.058 371.711C163.058 379.871 163.058 388.032 163.058 396.44C170.454 396.44 177.849 396.44 185.469 396.44C185.469 390.131 184.479 384.985 180.546 379.925C175.512 374.891 169.915 373.581 163.058 371.711ZM120.554 465.992C120.554 490.219 120.554 514.446 120.554 539.408C131.52 539.408 142.486 539.408 153.784 539.408C157.764 535.429 155.456 518.481 155.512 513.022C155.45 497.381 152.108 486.213 142.977 473.611C141.263 471.179 139.805 468.575 138.329 465.992C132.463 465.992 126.597 465.992 120.554 465.992Z" fill="black"/>
<path d="M398.18 316.651C399.104 316.65 399.104 316.65 400.047 316.648C410.083 316.657 419.802 317.219 429.671 319.162C430.244 319.27 430.817 319.378 431.407 319.488C460.578 325.104 488.977 341.961 506.061 366.575C525.625 395.652 531.674 431.984 525.133 466.368C520.729 488.156 512.108 507.54 496.868 523.872C495.637 525.2 494.497 526.542 493.379 527.963C487.6 534.63 480.959 539.339 472.368 541.438C471.554 541.659 471.554 541.659 470.723 541.885C458.427 545.027 445.988 546.022 433.342 545.93C432.656 545.928 431.97 545.926 431.263 545.924C420.197 545.873 409.542 545.158 398.759 542.501C398.155 542.356 397.552 542.211 396.93 542.062C388.66 540.02 380.92 536.918 373.257 533.227C372.773 532.997 372.289 532.768 371.79 532.531C360.484 527.087 350.612 519.481 341.572 510.816C340.553 509.87 340.553 509.87 339.513 508.905C323.102 493.211 313.241 472.518 308.342 450.538C308.111 449.565 307.88 448.591 307.641 447.589C303.945 430.028 304.16 408.47 308.342 391.033C308.495 390.382 308.649 389.731 308.807 389.061C313.186 371.117 320.838 354.723 333.071 340.801C333.609 340.16 334.147 339.52 334.701 338.86C337.899 335.143 341.318 331.76 345.001 328.533C345.582 328.008 345.582 328.008 346.175 327.473C352.25 322.311 359.813 320.845 367.461 319.404C368.283 319.24 369.105 319.076 369.951 318.907C379.385 317.073 388.593 316.659 398.18 316.651ZM385.67 383.643C378.698 395.579 375.903 407.324 376.058 421.123C376.067 422.143 376.075 423.162 376.084 424.212C376.391 442.964 382.453 457.88 395.788 471.182C407.533 482.284 422.1 484.93 437.743 484.686C446.937 484.76 446.937 484.76 454.576 480.411C456.108 477.986 457.207 475.616 458.265 472.949C458.626 472.05 458.988 471.15 459.36 470.223C466.979 449.289 466.765 426.064 457.492 405.716C450.127 390.543 437.806 379.015 421.943 373.258C417.874 371.906 413.784 370.986 409.578 370.167C408.644 369.933 407.709 369.699 406.747 369.458C396.313 367.549 391.011 375.807 385.67 383.643ZM379.477 372.01C378.971 372.183 378.464 372.356 377.942 372.534C377.421 372.711 376.901 372.888 376.364 373.07C359.961 378.847 348.115 390.807 340.217 406.006C331.454 424.981 330.544 448.664 337.708 468.312C344.961 485.743 356.665 498.983 373.933 506.807C389.532 512.819 408.055 512.85 423.634 506.759C431.458 503.236 438.192 499.033 444.354 493.042C442.105 492.292 440.823 492.205 438.498 492.275C419.415 492.677 403.203 488.873 388.921 475.446C388.053 474.592 388.053 474.592 387.167 473.722C386.454 473.024 386.454 473.024 385.727 472.312C372.707 458.514 368.274 439.957 368.33 421.51C368.331 420.964 368.332 420.418 368.332 419.855C368.367 411.241 368.85 403.087 371.711 394.897C371.894 394.372 372.076 393.848 372.264 393.307C375.207 385.21 379.587 378.489 384.849 371.713C382.766 370.671 381.609 371.323 379.477 372.01Z" fill="#FE1299"/>
<path d="M98.1445 323.027C202.027 323.027 202.027 323.027 227.202 347.757C227.843 348.383 227.843 348.383 228.497 349.022C240.948 362.345 243.955 380.898 243.621 398.417C242.996 416.27 235.754 431.553 222.743 443.747C216.261 449.517 205.234 457.494 196.29 457.494C199.505 463.545 202.958 469.404 206.578 475.22C207.678 476.998 208.778 478.776 209.877 480.554C210.299 481.236 210.299 481.236 210.729 481.932C213.803 486.905 216.832 491.906 219.86 496.907C225.185 505.696 230.554 514.456 235.947 523.203C236.405 523.948 236.864 524.693 237.336 525.461C238.393 527.171 239.456 528.876 240.526 530.578C240.956 531.266 240.956 531.266 241.395 531.968C242.203 533.262 243.014 534.553 243.826 535.844C244.976 537.865 244.976 537.865 244.976 539.411C241.451 539.59 237.927 539.7 234.398 539.797C233.399 539.849 232.399 539.901 231.369 539.954C224.222 540.102 224.222 540.102 221.961 538.335C220.906 536.686 220.206 535.043 219.474 533.228C218.689 531.764 217.891 530.306 217.083 528.854C216.204 527.206 215.327 525.556 214.451 523.906C210.992 517.433 207.473 511.004 203.825 504.635C199.284 496.692 195.013 488.617 190.757 480.519C185.857 471.201 180.796 461.995 175.528 452.877C174.673 451.351 173.888 449.786 173.106 448.221C164.308 447.838 164.308 447.838 155.332 447.448C155.332 463.769 155.332 480.091 155.332 496.907C153.017 494.592 151.877 492.693 150.36 489.819C149.99 489.123 149.99 489.123 149.612 488.412C148.826 486.931 148.046 485.447 147.265 483.962C146.487 482.49 145.707 481.018 144.927 479.546C144.216 478.203 143.508 476.858 142.799 475.514C141.8 473.654 140.772 471.837 139.703 470.018C138.33 467.54 138.33 467.54 138.33 465.995C132.464 465.995 126.599 465.995 120.556 465.995C120.556 490.222 120.556 514.449 120.556 539.411C113.16 539.411 105.764 539.411 98.1445 539.411C98.1445 468.004 98.1445 396.598 98.1445 323.027ZM120.556 370.941C120.556 388.027 120.556 405.114 120.556 422.718C125.768 422.766 130.98 422.814 136.35 422.863C137.965 422.884 139.58 422.905 141.244 422.927C154.325 423.027 167.914 422.637 178.467 413.879C182.199 409.805 182.199 409.805 183.925 404.944C174.234 404.944 164.543 404.944 154.559 404.944C154.559 393.723 154.559 382.502 154.559 370.941C143.338 370.941 132.117 370.941 120.556 370.941ZM163.06 371.714C163.06 379.874 163.06 388.035 163.06 396.443C170.455 396.443 177.851 396.443 185.471 396.443C185.471 390.134 184.481 384.988 180.547 379.928C175.514 374.894 169.916 373.584 163.06 371.714Z" fill="#FE1299"/>
<path d="M792.887 323.027C833.69 323.027 874.494 323.027 916.534 323.027C916.534 333.228 916.534 343.429 916.534 353.939C894.092 353.939 871.65 353.939 848.528 353.939C848.528 360.315 848.528 366.69 848.528 373.259C837.307 373.259 826.086 373.259 814.525 373.259C814.525 386.775 814.525 400.292 814.525 414.217C817.424 414.213 820.323 414.209 823.309 414.205C832.862 414.192 842.415 414.184 851.968 414.177C857.763 414.173 863.557 414.168 869.352 414.159C874.401 414.151 879.45 414.146 884.499 414.145C887.174 414.144 889.849 414.141 892.523 414.136C895.505 414.13 898.486 414.129 901.468 414.13C902.808 414.126 902.808 414.126 904.174 414.121C904.982 414.122 905.789 414.123 906.621 414.125C907.68 414.123 907.68 414.123 908.76 414.122C910.352 414.217 910.352 414.217 911.125 414.99C911.125 424.171 911.125 433.352 911.125 442.811C890.468 442.811 869.811 442.811 848.528 442.811C848.528 449.187 848.528 455.562 848.528 462.131C837.307 462.131 826.086 462.131 814.525 462.131C814.525 477.177 814.525 492.224 814.525 507.726C817.775 507.722 821.025 507.718 824.374 507.714C835.083 507.701 845.793 507.692 856.502 507.686C862.998 507.682 869.495 507.676 875.991 507.668C881.652 507.66 887.312 507.655 892.972 507.653C895.971 507.652 898.97 507.65 901.969 507.644C904.788 507.639 907.608 507.637 910.427 507.639C911.962 507.638 913.496 507.634 915.031 507.63C915.936 507.631 916.841 507.632 917.773 507.633C918.564 507.632 919.356 507.632 920.171 507.631C921.944 507.726 921.944 507.726 922.717 508.499C922.717 518.7 922.717 528.901 922.717 539.411C879.873 539.411 837.029 539.411 792.887 539.411C792.887 468.004 792.887 396.598 792.887 323.027Z" fill="#FE1299"/>
<path d="M883.735 230.764C884.31 230.76 884.885 230.756 885.477 230.752C887.369 230.741 889.261 230.748 891.154 230.756C892.473 230.754 893.793 230.752 895.112 230.749C897.874 230.746 900.636 230.751 903.398 230.762C906.935 230.775 910.471 230.767 914.008 230.753C916.732 230.745 919.455 230.748 922.179 230.754C923.483 230.755 924.786 230.753 926.09 230.748C927.914 230.742 929.737 230.751 931.561 230.764C932.098 230.759 932.634 230.755 933.187 230.75C936.526 230.793 938.596 231.367 941.265 233.382C943.714 236.423 943.996 238.808 943.583 242.656C941.903 246.044 939.454 248.546 936.794 251.178C936.347 251.627 935.899 252.076 935.438 252.539C933.964 254.016 932.484 255.487 931.004 256.959C929.975 257.987 928.946 259.015 927.918 260.044C925.764 262.197 923.608 264.347 921.449 266.495C918.685 269.246 915.925 272.002 913.168 274.761C911.044 276.884 908.919 279.005 906.793 281.125C905.775 282.141 904.757 283.157 903.74 284.174C902.318 285.594 900.893 287.012 899.468 288.429C899.049 288.849 898.63 289.268 898.199 289.7C892.558 295.293 892.558 295.293 888.715 295.979C889.498 295.983 890.282 295.988 891.089 295.993C898.48 296.037 905.871 296.093 913.261 296.161C917.061 296.196 920.86 296.226 924.66 296.247C928.328 296.267 931.996 296.298 935.664 296.337C937.062 296.35 938.46 296.359 939.858 296.363C941.819 296.371 943.78 296.393 945.741 296.418C946.604 296.416 946.604 296.416 947.486 296.414C951.126 296.48 953.681 297.041 956.721 299.07C959.125 302.016 959.332 304.384 959.339 308.123C959.345 308.882 959.345 308.882 959.352 309.655C959.362 311.318 959.355 312.981 959.347 314.644C959.349 315.805 959.351 316.967 959.354 318.128C959.357 320.56 959.352 322.991 959.342 325.423C959.328 328.532 959.336 331.64 959.35 334.749C959.358 337.147 959.356 339.545 959.35 341.943C959.348 343.088 959.35 344.234 959.355 345.38C959.361 346.985 959.352 348.59 959.339 350.195C959.337 351.107 959.336 352.019 959.334 352.958C959 355.824 958.236 357.675 956.721 360.121C952.328 362.813 948.225 362.748 943.176 362.666C942.412 362.663 941.647 362.659 940.86 362.656C938.435 362.643 936.01 362.614 933.585 362.584C931.935 362.573 930.284 362.562 928.633 362.553C924.6 362.527 920.568 362.487 916.535 362.44C916.535 366.01 916.535 369.58 916.535 373.259C896.899 373.259 877.262 373.259 857.03 373.259C857.03 378.104 857.03 382.95 857.03 387.942C858.122 387.937 859.213 387.932 860.338 387.926C870.629 387.879 880.919 387.844 891.21 387.822C896.5 387.81 901.791 387.793 907.081 387.767C912.187 387.741 917.293 387.728 922.399 387.722C924.346 387.718 926.294 387.709 928.241 387.697C930.97 387.68 933.699 387.678 936.428 387.679C937.232 387.67 938.036 387.662 938.865 387.653C943.362 387.673 946.575 388.078 950.539 390.26C953.42 393.334 953.728 396.16 953.754 400.258C953.762 401.202 953.769 402.146 953.777 403.119C953.78 404.151 953.784 405.182 953.787 406.214C953.791 407.274 953.796 408.334 953.8 409.394C953.808 411.616 953.813 413.838 953.815 416.061C953.82 418.901 953.838 421.741 953.86 424.581C953.875 426.771 953.879 428.961 953.88 431.151C953.883 432.705 953.898 434.258 953.912 435.812C953.91 436.764 953.908 437.715 953.905 438.695C953.909 439.946 953.909 439.946 953.914 441.222C953.503 444.637 952.335 447.262 949.814 449.621C947.147 451.156 944.699 451.408 941.657 451.399C940.636 451.399 940.636 451.399 939.594 451.399C938.867 451.395 938.139 451.391 937.389 451.387C936.263 451.385 936.263 451.385 935.115 451.383C932.721 451.379 930.328 451.369 927.934 451.36C926.31 451.356 924.686 451.352 923.062 451.349C919.083 451.34 915.105 451.327 911.126 451.311C911.139 452.386 911.139 452.386 911.153 453.482C911.16 454.407 911.167 455.333 911.174 456.286C911.183 457.21 911.192 458.133 911.201 459.084C911.126 461.358 911.126 461.358 910.353 462.13C908.694 462.203 907.032 462.221 905.37 462.218C904.59 462.218 904.59 462.218 903.794 462.218C902.067 462.218 900.34 462.212 898.613 462.206C897.419 462.204 896.224 462.203 895.03 462.203C891.88 462.2 888.731 462.192 885.581 462.183C882.37 462.176 879.158 462.172 875.947 462.168C869.641 462.16 863.336 462.146 857.03 462.13C857.03 468.506 857.03 474.882 857.03 481.45C860.022 481.438 863.013 481.426 866.095 481.414C875.978 481.375 885.861 481.349 895.744 481.33C901.736 481.318 907.728 481.302 913.72 481.275C918.944 481.252 924.168 481.237 929.392 481.232C932.157 481.229 934.922 481.222 937.687 481.205C940.776 481.186 943.866 481.186 946.955 481.187C948.325 481.175 948.325 481.175 949.721 481.162C954.456 481.18 957.977 481.413 962.13 483.769C965.092 486.928 965.321 489.844 965.346 494.05C965.354 495.056 965.361 496.062 965.369 497.098C965.372 498.199 965.376 499.299 965.379 500.399C965.383 501.528 965.388 502.657 965.392 503.786C965.4 506.154 965.405 508.522 965.407 510.89C965.412 513.917 965.43 516.944 965.452 519.972C965.467 522.305 965.471 524.638 965.472 526.971C965.474 528.086 965.48 529.202 965.49 530.318C965.504 531.882 965.501 533.447 965.497 535.011C965.501 536.344 965.501 536.344 965.506 537.705C965.181 540.539 964.374 542.387 962.903 544.82C958.642 547.988 954.636 548.021 949.483 547.989C948.836 547.989 948.189 547.988 947.522 547.987C945.383 547.983 943.244 547.974 941.106 547.965C939.599 547.961 938.093 547.958 936.587 547.954C933.479 547.947 930.372 547.938 927.265 547.927C923.095 547.912 918.926 547.902 914.757 547.894C899.666 547.863 884.576 547.8 869.486 547.729C861.97 547.694 854.455 547.663 846.94 547.643C840.284 547.625 833.629 547.6 826.974 547.564C823.479 547.546 819.983 547.531 816.488 547.526C813.227 547.522 809.967 547.506 806.706 547.483C805.514 547.476 804.323 547.473 803.131 547.474C801.502 547.476 799.873 547.463 798.244 547.446C797.334 547.443 796.425 547.439 795.488 547.435C792.373 547.079 790.208 546.371 787.478 544.82C784.231 540.718 784.835 535.636 784.86 530.65C784.854 529.195 784.854 529.195 784.848 527.712C784.836 525.026 784.84 522.341 784.845 519.655C784.849 516.757 784.839 513.858 784.831 510.96C784.818 505.284 784.818 499.608 784.822 493.932C784.825 489.319 784.824 484.707 784.819 480.094C784.819 479.437 784.818 478.781 784.818 478.104C784.817 476.771 784.815 475.437 784.814 474.103C784.804 461.598 784.808 449.092 784.817 436.586C784.824 425.143 784.814 413.7 784.796 402.257C784.777 390.508 784.77 378.759 784.775 367.01C784.777 360.413 784.776 353.817 784.762 347.22C784.751 341.605 784.75 335.991 784.764 330.376C784.77 327.511 784.772 324.646 784.76 321.782C784.747 318.677 784.759 315.572 784.772 312.467C784.765 311.561 784.758 310.654 784.75 309.721C784.794 304.925 784.957 301.907 788.251 298.297C791.345 296.439 794.04 296.674 797.576 296.894C808.509 297.735 808.509 297.735 818.747 294.884C821.731 292.004 823.437 288.45 825.168 284.726C826.801 281.486 829.01 278.678 831.19 275.79C833.679 272.432 836.103 269.092 838.253 265.505C842.177 259.17 842.177 259.17 844.665 257.339C847.395 256.92 849.677 256.934 852.404 257.096C854.702 257.116 856.511 256.965 858.364 255.541C861.058 252.617 863.162 249.28 865.244 245.905C866.895 243.251 868.699 240.713 870.506 238.164C870.806 237.716 871.107 237.268 871.417 236.807C874.781 231.927 877.947 230.713 883.735 230.764ZM874.019 245.457C873.13 247.011 872.363 248.531 871.698 250.193C870.616 252.673 869.192 254.99 867.849 257.339C878.815 257.339 889.781 257.339 901.079 257.339C899.402 260.134 898.353 261.802 896.157 263.97C895.646 264.478 895.136 264.986 894.61 265.509C894.064 266.045 893.518 266.58 892.956 267.132C892.393 267.691 891.83 268.249 891.251 268.825C889.459 270.603 887.662 272.375 885.865 274.147C884.06 275.931 882.256 277.716 880.455 279.503C879.334 280.614 878.212 281.722 877.088 282.829C876.584 283.327 876.081 283.825 875.563 284.338C874.894 284.997 874.894 284.997 874.211 285.67C873.172 286.566 873.172 286.566 873.259 287.478C882.48 288.725 882.48 288.725 890.978 285.749C893.948 283.332 896.515 280.542 899.099 277.728C900.074 276.723 901.053 275.722 902.034 274.724C904.588 272.11 907.095 269.456 909.593 266.79C912.15 264.076 914.748 261.402 917.344 258.725C920.258 255.717 923.166 252.706 926.044 249.665C926.48 249.205 926.916 248.745 927.365 248.271C928.177 247.414 928.987 246.554 929.794 245.693C931.486 243.906 933.023 242.483 935.083 241.11C935.083 240.6 935.083 240.09 935.083 239.565C928.09 239.277 921.099 239.058 914.101 238.924C910.851 238.86 907.604 238.773 904.356 238.632C887.291 236.981 887.291 236.981 874.019 245.457ZM793.661 305.252C792.944 318.477 792.781 331.666 792.8 344.908C792.801 347.042 792.8 349.177 792.8 351.311C792.799 355.867 792.802 360.423 792.806 364.979C792.812 371.566 792.814 378.153 792.815 384.74C792.817 395.432 792.822 406.124 792.829 416.817C792.837 427.19 792.842 437.564 792.845 447.938C792.846 448.579 792.846 449.221 792.846 449.882C792.847 453.102 792.848 456.321 792.849 459.541C792.857 486.164 792.87 512.787 792.888 539.41C814.135 539.428 835.382 539.442 856.629 539.45C866.494 539.454 876.358 539.46 886.223 539.468C894.818 539.476 903.412 539.481 912.007 539.483C916.561 539.484 921.114 539.486 925.668 539.492C929.949 539.497 934.23 539.499 938.511 539.498C940.087 539.498 941.663 539.499 943.239 539.502C945.381 539.506 947.523 539.505 949.665 539.503C950.297 539.505 950.929 539.508 951.581 539.51C954.381 539.767 954.381 539.767 956.721 538.637C956.798 537.148 956.82 535.655 956.821 534.164C956.825 532.729 956.825 532.729 956.828 531.264C956.827 530.212 956.825 529.16 956.824 528.108C956.824 527.037 956.825 525.965 956.826 524.894C956.827 522.646 956.825 520.399 956.822 518.151C956.817 515.263 956.82 512.376 956.824 509.489C956.827 507.276 956.826 505.063 956.824 502.85C956.824 501.785 956.824 500.72 956.826 499.655C956.828 498.169 956.825 496.684 956.821 495.198C956.82 494.351 956.82 493.503 956.819 492.631C956.937 490.767 956.937 490.767 955.948 489.951C954.559 489.877 953.168 489.857 951.777 489.858C950.872 489.857 949.967 489.856 949.035 489.855C947.533 489.859 947.533 489.859 946 489.863C944.941 489.864 943.883 489.863 942.824 489.863C939.943 489.863 937.061 489.867 934.179 489.873C931.17 489.878 928.162 489.878 925.153 489.879C919.452 489.881 913.751 489.888 908.05 489.895C900.349 489.906 892.648 489.91 884.947 489.914C872.808 489.922 860.668 489.937 848.529 489.951C848.529 474.395 848.529 458.838 848.529 442.81C855.438 442.819 862.346 442.828 869.464 442.838C874.382 442.842 879.3 442.846 884.218 442.849C890.598 442.854 896.977 442.859 903.356 442.869C908.405 442.876 913.454 442.881 918.503 442.883C921.178 442.884 923.853 442.887 926.528 442.892C929.509 442.898 932.49 442.899 935.472 442.898C936.365 442.901 937.258 442.904 938.179 442.907C938.986 442.906 939.793 442.904 940.625 442.903C941.331 442.904 942.037 442.905 942.764 442.906C944.35 442.988 944.35 442.988 945.129 442.038C945.205 440.643 945.228 439.245 945.229 437.848C945.233 436.505 945.233 436.505 945.236 435.136C945.235 434.162 945.233 433.188 945.232 432.184C945.232 431.193 945.233 430.201 945.234 429.179C945.235 427.076 945.233 424.974 945.23 422.872C945.225 420.171 945.228 417.471 945.232 414.771C945.236 412.204 945.233 409.636 945.232 407.069C945.234 405.608 945.234 405.608 945.236 404.117C945.234 403.222 945.231 402.327 945.229 401.405C945.228 400.613 945.228 399.821 945.227 399.005C945.33 397.245 945.33 397.245 944.356 396.443C943.114 396.368 941.869 396.348 940.625 396.35C939.818 396.349 939.011 396.348 938.179 396.346C936.839 396.351 936.839 396.351 935.472 396.355C934.07 396.355 934.07 396.355 932.639 396.355C930.069 396.355 927.498 396.359 924.928 396.364C922.244 396.369 919.56 396.37 916.876 396.37C911.791 396.373 906.706 396.379 901.621 396.387C895.266 396.396 888.91 396.401 882.555 396.405C871.213 396.412 859.871 396.428 848.529 396.443C848.529 382.416 848.529 368.39 848.529 353.939C882.192 353.939 915.855 353.939 950.539 353.939C950.539 337.872 950.539 321.806 950.539 305.252C932.713 305.229 932.713 305.229 914.888 305.214C908.515 305.209 902.143 305.204 895.77 305.194C890.726 305.186 885.682 305.182 880.638 305.18C877.966 305.179 875.294 305.176 872.622 305.171C869.642 305.165 866.663 305.164 863.684 305.165C862.793 305.162 861.903 305.159 860.985 305.156C860.177 305.157 859.368 305.158 858.535 305.16C857.83 305.159 857.125 305.158 856.398 305.157C854.676 305.143 854.676 305.143 853.166 306.025C851.836 306.099 850.504 306.124 849.172 306.125C847.923 306.129 847.923 306.129 846.648 306.133C845.295 306.13 845.295 306.13 843.914 306.128C842.991 306.129 842.069 306.129 841.119 306.13C839.167 306.131 837.215 306.129 835.262 306.126C832.262 306.122 829.262 306.126 826.261 306.131C824.369 306.13 822.477 306.129 820.585 306.128C819.681 306.129 818.777 306.131 817.845 306.133C817.015 306.13 816.185 306.128 815.329 306.125C814.594 306.125 813.859 306.124 813.102 306.123C811.435 306.025 811.435 306.025 810.662 305.252C809.399 305.185 808.133 305.17 806.868 305.177C806.179 305.179 805.491 305.181 804.781 305.183C803.901 305.19 803.02 305.197 802.113 305.204C800.649 305.213 799.184 305.221 797.72 305.23C796.579 305.236 796.579 305.236 795.416 305.243C794.547 305.248 794.547 305.248 793.661 305.252Z" fill="black"/>
<path d="M718.704 341.574C719.231 342.001 719.758 342.428 720.301 342.869C721.325 343.712 722.336 344.572 723.341 345.437C723.034 349.25 721.122 351.265 718.511 353.842C717.957 354.433 717.957 354.433 717.391 355.037C716.277 356.154 716.277 356.154 714.068 357.802C711.179 357.755 710.101 356.962 707.644 355.339C704.522 353.295 701.266 351.965 697.791 350.654C697.271 350.454 696.751 350.255 696.215 350.05C684.542 345.761 670.913 346.757 659.682 351.813C653.633 355.066 651.348 359.248 649.153 365.53C648.265 365.606 647.378 365.682 646.463 365.76C631.774 367.122 631.774 367.122 619.014 374.031C615.093 378.777 614.019 383.852 614.193 389.885C614.619 394.329 615.918 397.522 619.11 400.693C629.087 408.48 642.289 411.847 654.161 415.591C676.589 422.702 702.575 432.32 714.272 454.26C723.667 472.709 724.329 493.568 718.19 513.237C714.673 523.694 708.716 533.827 700.157 540.955C676.789 551.797 643.22 546.088 619.931 537.623C604.457 531.774 590.471 523.481 578.828 511.589C580.081 508.502 582.223 506.337 584.528 504.006C585.086 503.409 585.086 503.409 585.657 502.8C588.406 500.009 588.406 500.009 590.414 499.958C592.499 501.049 594.443 502.278 596.409 503.571C610.063 512.224 624.808 516.647 641.011 514.291C648.232 512.664 654.653 510.267 659.003 504.06C660.29 501.742 661.278 499.356 662.29 496.906C663.622 496.876 663.622 496.876 664.98 496.845C674.867 496.526 685.742 495.741 693.202 488.405C697.407 482.016 698.53 475.877 697.839 468.312C697.147 465.969 696.122 464.139 694.748 462.13C694.35 461.456 694.35 461.456 693.945 460.768C687.129 450.985 669.554 447.357 658.873 443.688C642.265 437.975 625.894 432.334 612.058 421.172C611.346 420.6 610.634 420.028 609.9 419.439C602.654 413.278 597.741 406.043 594.284 397.215C594.055 396.636 593.826 396.057 593.59 395.461C587.411 378.486 589.301 358.587 596.602 342.346C599.476 336.28 603.061 331.202 607.422 326.118C607.912 325.423 607.912 325.423 608.412 324.714C612.963 318.894 622.979 318.491 629.828 317.629C661.179 314.131 693.957 321.361 718.704 341.574Z" fill="#FD1299"/>
<path d="M765.073 323.027C771.703 323.027 778.334 323.027 785.165 323.027C785.172 325.738 785.178 328.448 785.184 331.24C785.242 356.088 785.308 380.936 785.382 405.784C785.392 409.04 785.401 412.296 785.411 415.552C785.413 416.2 785.415 416.848 785.417 417.516C785.447 428.015 785.473 438.513 785.496 449.012C785.52 459.783 785.55 470.554 785.585 481.325C785.606 487.972 785.624 494.62 785.635 501.267C785.643 505.824 785.657 510.381 785.675 514.938C785.685 517.568 785.693 520.198 785.694 522.828C785.697 525.679 785.709 528.531 785.723 531.382C785.722 532.213 785.72 533.045 785.719 533.901C785.632 539.584 785.632 539.584 787.484 544.82C791.123 546.377 794.549 546.563 798.473 546.581C799.008 546.585 799.542 546.59 800.093 546.595C801.871 546.608 803.648 546.61 805.426 546.612C806.705 546.619 807.985 546.627 809.265 546.636C812.73 546.657 816.194 546.669 819.658 546.679C823.283 546.691 826.907 546.711 830.531 546.731C837.39 546.767 844.248 546.796 851.107 546.821C858.917 546.851 866.727 546.889 874.538 546.928C890.6 547.008 906.661 547.076 922.723 547.139C922.723 550.709 922.723 554.279 922.723 557.958C868.403 557.958 814.084 557.958 758.118 557.958C758.118 501.544 758.118 501.544 761.982 489.179C762.528 486.873 763.023 484.692 763.382 482.369C763.471 481.798 763.561 481.228 763.653 480.64C765.458 467.954 765.073 454.236 759.629 442.435C757.738 437.738 757.666 433.387 757.681 428.373C757.672 427.424 757.663 426.474 757.653 425.495C757.632 422.913 757.625 420.332 757.626 417.75C757.625 415.588 757.616 413.425 757.607 411.263C757.586 406.16 757.581 401.058 757.587 395.956C757.593 390.704 757.567 385.452 757.526 380.2C757.492 375.676 757.479 371.152 757.483 366.628C757.485 363.932 757.478 361.237 757.451 358.541C757.422 355.537 757.436 352.534 757.454 349.53C757.44 348.644 757.425 347.758 757.41 346.845C757.472 342.567 757.653 339.972 760.767 336.875C761.245 336.486 761.724 336.096 762.216 335.695C763.729 334.56 763.729 334.56 765.073 332.301C765.073 329.241 765.073 326.18 765.073 323.027Z" fill="#FE1399"/>
<path d="M326.899 334.619C327.664 335.002 327.664 335.002 328.445 335.392C327.921 336.021 327.397 336.649 326.857 337.297C315.374 351.324 307.208 367.187 302.942 384.851C302.73 385.721 302.518 386.59 302.299 387.486C301.677 390.206 301.132 392.927 300.624 395.67C300.464 396.524 300.303 397.378 300.138 398.257C294.847 432.258 301.489 470.71 321.858 498.811C325.805 504.114 330.098 509.095 334.627 513.908C335.071 514.402 335.516 514.896 335.973 515.405C352.469 533 375.955 544.07 399.156 549.215C399.861 549.372 400.567 549.529 401.293 549.69C411.808 551.915 421.971 552.794 432.676 552.693C433.835 552.688 434.995 552.683 436.155 552.678C443.802 552.633 451.425 552.436 459.048 551.775C451.962 558.86 436.253 560.85 426.59 562.594C425.323 562.841 425.323 562.841 424.03 563.093C390.154 568.863 351.177 563.377 322.694 543.217C297.084 523.941 278.276 498.97 272.803 466.768C272.667 465.97 272.53 465.172 272.39 464.35C271.222 456.702 271.019 449.2 271.056 441.476C271.065 439.416 271.056 437.357 271.046 435.297C271.047 433.964 271.049 432.631 271.052 431.297C271.049 430.693 271.046 430.09 271.043 429.467C271.09 423.826 271.735 418.337 274.977 413.589C280.174 405.4 283.286 396.329 284.093 386.684C284.674 379.929 285.757 375.017 289.805 369.395C290.377 368.584 290.948 367.773 291.538 366.938C300.763 354.352 312.934 341.899 326.899 334.619Z" fill="#FD1299"/>
<path d="M462.907 357.028C463.628 357.352 464.349 357.676 465.092 358.009C471.215 361.044 475.897 365.389 480.681 370.166C481.256 370.732 481.831 371.298 482.423 371.881C494.51 384.559 499.692 402.378 499.531 419.551C499.518 421.119 499.531 422.686 499.545 424.254C499.563 434.094 498.102 443.515 494.109 452.565C493.839 453.184 493.57 453.803 493.293 454.44C486.037 470.541 473.582 482.31 457.271 488.902C440.336 495.094 422.53 494.864 405.765 487.969C398.626 484.614 392.775 480.002 387.173 474.494C386.641 473.972 386.109 473.45 385.561 472.912C372.195 458.859 367.506 440.437 367.563 421.509C367.564 420.963 367.564 420.417 367.565 419.854C367.6 411.24 368.083 403.086 370.944 394.895C371.126 394.371 371.309 393.846 371.497 393.306C377.854 375.812 390.327 363.603 406.976 355.579C424.665 348.024 445.583 349.197 462.907 357.028ZM385.675 383.642C378.704 395.578 375.909 407.323 376.064 421.122C376.072 422.142 376.081 423.161 376.089 424.211C376.397 442.963 382.459 457.878 395.793 471.181C407.539 482.283 422.105 484.929 437.749 484.685C446.943 484.759 446.943 484.759 454.581 480.41C456.114 477.985 457.212 475.615 458.27 472.948C458.632 472.048 458.993 471.149 459.366 470.222C466.985 449.288 466.77 426.063 457.497 405.715C450.132 390.542 437.812 379.014 421.949 373.257C417.88 371.905 413.79 370.984 409.584 370.166C408.649 369.932 407.715 369.698 406.752 369.457C396.318 367.548 391.016 375.806 385.675 383.642Z" fill="#FD1299"/>
<path d="M433.3 290.325C434.206 290.327 434.206 290.327 435.13 290.33C445.056 290.368 454.7 290.925 464.454 292.885C465.127 293.018 465.8 293.15 466.493 293.287C498.257 299.74 528.484 316.853 547.143 343.89C557.28 359.208 563.75 375.307 567.236 393.349C567.373 394.009 567.51 394.668 567.651 395.348C569.229 403.956 569.122 412.639 569.12 421.363C569.12 422.604 569.12 422.604 569.121 423.87C569.099 436.28 568.53 447.856 564.918 459.81C564.715 460.518 564.512 461.226 564.303 461.955C559.232 479.447 550.692 495.565 538.642 509.269C538.061 509.944 537.479 510.619 536.879 511.315C533.335 515.357 529.679 519.022 525.505 522.406C524.819 522.975 524.134 523.544 523.428 524.13C503.387 540.209 479.869 549.586 454.407 552.545C453.787 552.618 453.166 552.69 452.526 552.764C414.212 556.736 375.533 548.575 345.177 524.214C318.102 502.052 302.175 471.702 298.637 436.767C295.593 398.904 304.136 363.448 328.576 333.951C346.603 312.83 371.296 300.107 398.042 293.851C398.688 293.698 399.335 293.544 400.001 293.386C411.008 290.938 422.061 290.27 433.3 290.325ZM334.479 338.673C314.286 361.752 305.659 390.419 305.741 420.735C305.741 421.378 305.742 422.02 305.743 422.682C305.878 457.054 317.957 487.557 342.352 511.872C351.091 520.346 360.912 526.914 371.718 532.452C372.55 532.88 373.382 533.307 374.239 533.748C389.666 541.239 407.133 545.655 424.305 545.747C424.962 545.751 425.62 545.756 426.298 545.76C427.688 545.768 429.078 545.773 430.468 545.776C432.538 545.783 434.608 545.807 436.678 545.832C471.446 546.045 503.42 532.497 528.176 508.161C550.348 485.659 561.465 454.557 561.277 423.174C561.016 419.924 560.141 417.604 558.805 414.67C555.5 406.818 555.595 399.038 555.789 390.692C555.933 381.944 554.998 375.58 551.007 367.847C550.412 366.619 549.817 365.392 549.223 364.164C543.635 352.885 536.468 343.699 527.823 334.616C527.365 334.117 526.907 333.618 526.435 333.104C519.581 325.86 510.944 320.182 502.321 315.296C501.877 315.044 501.432 314.791 500.975 314.53C486.572 306.472 470.677 302.107 454.407 299.84C453.892 299.762 453.377 299.683 452.845 299.602C446.663 298.77 440.396 298.879 434.17 298.874C433.551 298.874 432.932 298.873 432.295 298.873C395.519 298.922 360.164 311.652 334.479 338.673Z" fill="black"/>
<path d="M63.3672 323.027C72.293 323.027 81.2188 323.027 90.4151 323.027C90.4214 325.738 90.4276 328.448 90.434 331.24C90.492 356.088 90.5576 380.936 90.6315 405.784C90.6412 409.04 90.6508 412.296 90.6604 415.552C90.6623 416.2 90.6642 416.848 90.6661 417.516C90.6969 428.015 90.7222 438.513 90.7455 449.012C90.7695 459.783 90.7993 470.554 90.8346 481.325C90.8561 487.972 90.8731 494.62 90.8844 501.267C90.8925 505.824 90.9063 510.381 90.9245 514.938C90.9348 517.568 90.9427 520.198 90.9439 522.828C90.9464 525.679 90.9584 528.531 90.9727 531.382C90.9712 532.213 90.9697 533.045 90.9682 533.901C90.9833 539.525 90.9833 539.525 92.7335 544.82C96.3043 546.332 99.7269 546.583 103.574 546.686C104.567 546.716 105.561 546.746 106.585 546.776C107.619 546.801 108.653 546.825 109.687 546.849C110.742 546.878 111.797 546.909 112.852 546.939C115.419 547.012 117.987 547.076 120.554 547.139C120.554 550.709 120.554 554.279 120.554 557.958C101.682 557.958 82.8108 557.958 63.3672 557.958C63.3672 480.431 63.3672 402.904 63.3672 323.027Z" fill="#FE1399"/>
<path d="M595.051 327.662C595.561 327.917 596.071 328.172 596.596 328.435C596.139 329.193 595.682 329.951 595.211 330.732C583.629 350.335 580.631 371.421 586.191 393.445C590.906 411.078 601.208 423.117 616.448 432.859C616.891 433.146 617.334 433.433 617.791 433.729C629.005 440.647 641.359 444.847 653.783 448.991C671.108 454.77 671.108 454.77 679.02 458.44C679.549 458.683 680.078 458.925 680.623 459.175C685.31 461.436 688.556 464.441 690.878 469.084C691.425 474.163 691.576 478.932 688.469 483.185C681.196 489.959 672.388 490.088 663.057 489.95C662.579 488.872 662.579 488.872 662.091 487.773C656.864 476.399 649.572 472.004 637.993 467.596C633.156 465.842 628.28 464.202 623.403 462.564C606.079 456.742 589.321 450.558 574.958 438.945C574.418 438.641 573.878 438.337 573.322 438.024C571.258 436.679 570.108 435.626 568.776 433.535C568.063 429.409 568.07 425.395 568.157 421.218C568.223 417.807 568.181 414.397 568.145 410.985C568.139 410.319 568.134 409.652 568.129 408.965C567.983 396.933 564.969 385.65 561.331 374.25C561.155 373.685 560.979 373.119 560.797 372.537C560.316 371.064 559.761 369.615 559.2 368.171C558.555 364.553 559.599 362.67 561.337 359.54C561.623 359.001 561.909 358.462 562.204 357.907C569.326 344.797 580.682 332.877 595.051 327.662Z" fill="#FD1298"/>
<path d="M462.907 357.028C463.628 357.352 464.349 357.676 465.092 358.009C471.215 361.044 475.897 365.389 480.681 370.166C481.256 370.732 481.831 371.298 482.423 371.881C494.51 384.559 499.692 402.378 499.531 419.551C499.518 421.119 499.531 422.686 499.545 424.254C499.563 434.094 498.102 443.515 494.109 452.565C493.839 453.184 493.57 453.803 493.293 454.44C486.037 470.541 473.582 482.31 457.271 488.902C440.336 495.094 422.53 494.864 405.765 487.969C398.626 484.614 392.775 480.002 387.173 474.494C386.641 473.972 386.109 473.45 385.561 472.912C372.195 458.859 367.506 440.437 367.563 421.509C367.564 420.963 367.564 420.417 367.565 419.854C367.6 411.24 368.083 403.086 370.944 394.895C371.126 394.371 371.309 393.846 371.497 393.306C377.854 375.812 390.327 363.603 406.976 355.579C424.665 348.024 445.583 349.197 462.907 357.028ZM412.723 361.375C412.187 361.583 411.65 361.791 411.097 362.005C396.022 368.082 386.114 381.183 379.723 395.635C376.68 403.938 375.965 412.35 376.064 421.122C376.072 422.142 376.081 423.161 376.089 424.211C376.397 442.963 382.459 457.878 395.793 471.181C408.157 482.867 423.547 485.085 439.922 484.638C453.925 483.988 465.535 478.206 475.272 468.311C487.421 454.812 491.636 439.561 491.645 421.798C491.655 420.842 491.664 419.885 491.674 418.899C491.69 408.818 490.49 400.15 486.091 391.031C485.766 390.324 485.441 389.617 485.107 388.888C482.06 382.741 477.746 378.063 472.953 373.257C472.387 372.673 471.822 372.09 471.239 371.488C461.297 361.881 447.918 358.423 434.458 358.477C433.727 358.474 432.995 358.471 432.241 358.468C425.37 358.478 419.168 358.879 412.723 361.375Z" fill="black"/>
<path d="M163.056 454.402C164.841 454.402 166.626 454.402 168.465 454.402C174.498 464.876 180.289 475.455 185.926 486.145C189.871 493.622 193.929 501.017 198.131 508.353C201.07 513.508 203.85 518.731 206.574 524.002C211.867 536.746 211.867 536.746 220.702 546.04C223.389 546.51 226.044 546.376 228.759 546.311C229.992 546.302 231.225 546.297 232.458 546.293C234.393 546.287 236.323 546.269 238.257 546.209C249.001 545.899 249.001 545.899 252.466 549.007C254.416 551.987 255.791 554.355 255.791 557.957C233.349 557.957 210.907 557.957 187.785 557.957C182.877 549.122 178.006 540.284 173.25 531.368C172.817 530.559 172.383 529.75 171.937 528.917C171.328 527.763 171.328 527.763 170.707 526.585C169.288 523.956 169.288 523.956 167.643 521.592C162.729 514.078 162.218 508.056 162.452 499.231C162.464 497.929 162.472 496.628 162.478 495.327C162.502 491.939 162.562 488.553 162.631 485.166C162.695 481.695 162.723 478.223 162.754 474.752C162.82 467.968 162.925 461.185 163.056 454.402Z" fill="#FE1299"/>
<path d="M883.654 230.851C884.229 230.847 884.804 230.843 885.396 230.839C887.292 230.828 889.189 230.829 891.085 230.831C892.406 230.828 893.726 230.825 895.046 230.821C897.813 230.815 900.58 230.815 903.347 230.819C906.89 230.824 910.432 230.811 913.975 230.793C916.702 230.782 919.428 230.781 922.155 230.783C923.461 230.783 924.767 230.779 926.073 230.771C927.901 230.762 929.728 230.767 931.556 230.776C932.093 230.77 932.631 230.764 933.185 230.758C936.53 230.794 938.599 231.362 941.272 233.382C943.721 236.422 944.002 238.807 943.59 242.655C941.909 246.043 939.461 248.545 936.801 251.178C936.353 251.627 935.906 252.076 935.445 252.539C933.971 254.016 932.491 255.487 931.011 256.958C929.982 257.986 928.953 259.015 927.924 260.044C925.771 262.196 923.614 264.346 921.456 266.494C918.692 269.245 915.932 272.002 913.174 274.76C911.051 276.883 908.926 279.004 906.8 281.125C905.782 282.14 904.764 283.156 903.747 284.173C902.325 285.594 900.9 287.012 899.474 288.429C899.056 288.848 898.637 289.267 898.205 289.699C893.638 294.228 890.995 296.057 884.555 296.103C883.721 296.11 882.888 296.118 882.03 296.125C881.133 296.129 880.236 296.132 879.312 296.135C878.386 296.14 877.46 296.144 876.505 296.149C874.545 296.156 872.586 296.161 870.626 296.164C867.634 296.172 864.643 296.196 861.651 296.22C859.746 296.225 857.84 296.229 855.935 296.232C855.043 296.242 854.151 296.251 853.232 296.261C848.502 296.248 844.941 296.053 840.808 293.66C838.33 290.407 838.279 287.828 838.776 283.95C839.662 280.522 841.746 278.008 843.899 275.258C844.352 274.656 844.805 274.054 845.271 273.434C846.604 271.665 847.954 269.91 849.309 268.158C850.618 266.439 851.92 264.715 853.221 262.99C853.74 262.317 854.259 261.645 854.794 260.952C856.168 259.019 857.315 257.031 858.47 254.963C860.202 252.051 862.235 249.348 864.233 246.616C864.68 246.004 865.126 245.392 865.586 244.761C866.854 243.026 868.127 241.295 869.401 239.564C869.979 238.773 870.557 237.982 871.152 237.167C871.611 236.556 872.069 235.944 872.541 235.314C873.104 234.561 873.104 234.561 873.679 233.792C876.544 230.798 879.718 230.837 883.654 230.851ZM874.026 245.457C873.137 247.01 872.37 248.531 871.705 250.192C870.623 252.672 869.198 254.989 867.856 257.339C878.822 257.339 889.788 257.339 901.086 257.339C899.409 260.134 898.36 261.802 896.164 263.97C895.653 264.478 895.143 264.986 894.617 265.509C894.071 266.044 893.525 266.58 892.963 267.131C892.4 267.69 891.837 268.249 891.257 268.825C889.466 270.602 887.669 272.375 885.872 274.147C884.067 275.931 882.263 277.715 880.461 279.502C879.341 280.613 878.219 281.722 877.094 282.828C876.591 283.326 876.088 283.824 875.57 284.337C874.901 284.997 874.901 284.997 874.218 285.67C873.178 286.565 873.178 286.565 873.265 287.478C882.487 288.725 882.487 288.725 890.985 285.748C893.954 283.332 896.521 280.541 899.106 277.727C900.081 276.723 901.059 275.721 902.041 274.723C904.595 272.11 907.101 269.456 909.6 266.79C912.157 264.076 914.755 261.401 917.351 258.724C920.264 255.717 923.173 252.706 926.051 249.664C926.487 249.205 926.923 248.745 927.372 248.271C928.184 247.413 928.993 246.554 929.801 245.692C931.493 243.906 933.03 242.483 935.089 241.11C935.089 240.6 935.089 240.09 935.089 239.564C928.096 239.276 921.105 239.057 914.108 238.924C910.857 238.859 907.611 238.772 904.363 238.631C887.298 236.981 887.298 236.981 874.026 245.457Z" fill="black"/>
<path d="M580.376 490.721C582.288 491.868 582.288 491.868 584.24 493.039C582.742 496.867 579.594 499.531 576.777 502.417C573.898 505.441 571.923 507.865 571.826 512.214C575.623 523.605 592.383 532.222 602.328 537.306C627.968 550.055 654.137 552.927 682.385 552.545C679.338 554.963 676.301 556.19 672.677 557.519C672.034 557.756 671.392 557.992 670.73 558.235C658.243 562.663 645.591 564.318 632.394 564.33C631.864 564.33 631.333 564.331 630.787 564.331C601.101 564.285 571.87 555.334 548.932 536.123C548.222 535.534 548.222 535.534 547.497 534.934C543.556 531.542 543.556 531.542 543.281 528.588C544.651 526.946 545.966 525.577 547.532 524.144C550.095 521.734 552.577 519.334 554.852 516.646C559.431 511.328 564.534 506.482 569.508 501.54C570.563 500.489 571.618 499.437 572.673 498.385C575.239 495.828 577.806 493.274 580.376 490.721Z" fill="#FD1299"/>
<path d="M154.555 351.619C160.054 351.587 165.553 351.555 171.218 351.522C173.783 351.501 173.783 351.501 176.4 351.479C204.98 351.34 204.98 351.34 215.126 361.022C220.739 367.366 220.736 374.474 220.378 382.534C220.088 385.836 219.002 388.324 217.151 391.031C216.794 391.567 216.436 392.103 216.068 392.655C209.276 401.523 198.436 403.074 188.059 404.577C184.531 405.012 181.048 405.04 177.497 405.017C176.911 405.016 176.325 405.016 175.721 405.015C173.56 405.011 171.399 405 169.238 404.99C164.392 404.974 159.547 404.958 154.555 404.942C154.555 387.345 154.555 369.748 154.555 351.619ZM163.055 371.711C163.055 379.872 163.055 388.033 163.055 396.441C170.451 396.441 177.847 396.441 185.467 396.441C185.467 390.132 184.477 384.986 180.543 379.925C175.51 374.892 169.912 373.581 163.055 371.711Z" fill="black"/>
<path d="M162.281 359.349C166.348 359.278 170.412 359.216 174.479 359.179C175.856 359.164 177.234 359.143 178.611 359.116C189.29 358.912 200.5 358.831 209.422 365.532C212.616 369.23 212.978 372.064 212.851 376.737C212.857 377.304 212.862 377.871 212.868 378.455C212.818 382.761 211.905 385.949 209.029 389.301C201.673 395.521 194.783 396.215 185.465 396.444C185.407 395.864 185.35 395.284 185.29 394.687C184.443 388.093 182.884 382.416 177.586 378.041C172.824 374.978 167.674 373.345 162.281 371.714C162.281 367.634 162.281 363.553 162.281 359.349Z" fill="#FC1298"/>
<path d="M884.275 256.517C885.908 256.583 887.541 256.643 889.175 256.697C893.151 256.84 897.114 257.066 901.083 257.338C900.633 260.051 899.7 261.327 897.765 263.251C896.96 264.059 896.96 264.059 896.139 264.884C895.265 265.743 895.265 265.743 894.373 266.621C893.777 267.215 893.182 267.809 892.568 268.421C891.308 269.676 890.046 270.927 888.781 272.176C886.84 274.093 884.907 276.019 882.976 277.946C881.752 279.162 880.528 280.378 879.303 281.594C878.431 282.461 878.431 282.461 877.542 283.345C876.734 284.142 876.734 284.142 875.909 284.956C875.434 285.425 874.959 285.895 874.47 286.378C871.89 288.726 869.289 288.349 865.988 288.325C865.424 288.324 864.86 288.323 864.279 288.322C862.476 288.318 860.673 288.308 858.869 288.298C857.648 288.294 856.426 288.291 855.205 288.288C852.208 288.279 849.211 288.266 846.215 288.25C846.635 285.474 847.256 283.674 848.935 281.428C849.344 280.872 849.753 280.316 850.174 279.743C850.605 279.171 851.036 278.6 851.48 278.01C852.307 276.896 853.133 275.781 853.958 274.666C854.437 274.049 854.916 273.433 855.41 272.798C856.728 270.914 857.762 269.132 858.818 267.104C865.159 255.648 871.936 255.647 884.275 256.517Z" fill="#FC1298"/>
<path d="M706.342 362.436C707.107 363.584 707.107 363.584 707.887 364.754C707.565 365.073 707.242 365.392 706.909 365.72C698.638 373.881 698.638 373.881 690.886 382.529C689.195 384.509 689.195 384.509 687.795 385.62C684.807 385.37 683.594 383.871 681.661 381.708C674.668 374.52 666.287 370.778 656.883 367.846C657.343 362.863 657.343 362.863 658.724 360.975C672.233 350.435 692.795 353.028 706.342 362.436Z" fill="#FD1298"/>
<path d="M856.266 361.664C876.157 361.664 896.049 361.664 916.544 361.664C916.544 365.489 916.544 369.315 916.544 373.256C908.799 373.273 901.053 373.288 893.308 373.296C889.712 373.3 886.116 373.306 882.52 373.314C879.053 373.323 875.585 373.327 872.118 373.329C870.792 373.331 869.466 373.334 868.14 373.338C866.29 373.343 864.439 373.344 862.589 373.344C861.758 373.348 861.758 373.348 860.911 373.352C857.127 373.344 857.127 373.344 856.266 372.483C856.266 368.913 856.266 365.343 856.266 361.664Z" fill="#FB1397"/>
<path d="M856.266 450.539C874.372 450.539 892.479 450.539 911.134 450.539C911.134 454.109 911.134 457.68 911.134 461.358C909.698 462.795 907.309 462.23 905.391 462.231C904.613 462.233 904.613 462.233 903.818 462.235C902.095 462.239 900.372 462.236 898.649 462.234C897.456 462.234 896.264 462.235 895.071 462.236C892.569 462.237 890.066 462.235 887.564 462.232C884.349 462.227 881.134 462.23 877.919 462.235C875.456 462.237 872.992 462.236 870.529 462.234C869.343 462.234 868.157 462.235 866.972 462.236C865.317 462.238 863.663 462.235 862.009 462.231C860.594 462.23 860.594 462.23 859.151 462.229C857.038 462.131 857.038 462.131 856.266 461.358C856.266 457.788 856.266 454.218 856.266 450.539Z" fill="#FB1397"/>
<path d="M849.475 256.792C850.301 256.869 850.301 256.869 851.144 256.949C851.713 256.977 852.282 257.004 852.868 257.033C854.26 257.105 855.649 257.216 857.037 257.335C856.022 259.467 854.896 261.379 853.529 263.303C853.147 263.842 852.765 264.382 852.371 264.938C851.966 265.505 851.561 266.072 851.144 266.657C850.731 267.243 850.318 267.829 849.892 268.433C848.063 271.02 846.226 273.588 844.259 276.072C840.953 280.302 838.813 283.518 839.263 289.02C839.478 291.669 839.478 291.669 840.808 293.656C845.562 295.528 850.385 295.534 855.443 295.685C856.266 295.715 857.09 295.745 857.938 295.776C859.956 295.848 861.974 295.914 863.992 295.975C863.992 296.23 863.992 296.485 863.992 296.748C848.436 296.748 832.879 296.748 816.852 296.748C820.326 290.668 820.326 290.668 822.285 288.06C822.716 287.482 823.147 286.904 823.591 286.308C824.045 285.705 824.498 285.101 824.966 284.48C829.02 279.038 832.996 273.552 836.879 267.987C837.574 266.994 838.275 266.005 838.983 265.021C839.723 263.964 840.427 262.881 841.103 261.781C843.498 258.102 844.986 256.627 849.475 256.792Z" fill="#FC1298"/>
<path d="M555.636 380.984C557.021 383.062 557.475 384.05 557.982 386.382C558.113 386.978 558.244 387.573 558.379 388.187C558.575 389.117 558.575 389.117 558.776 390.065C558.91 390.672 559.044 391.28 559.182 391.906C560.639 398.628 561.15 404.975 561.094 411.848C561.091 412.671 561.087 413.495 561.084 414.343C561.075 416.361 561.062 418.379 561.046 420.397C558.902 417.698 558.005 415.382 557.085 412.041C556.828 411.128 556.571 410.214 556.306 409.273C554.843 403.19 554.746 397.353 554.767 391.127C554.764 390.237 554.761 389.346 554.758 388.429C554.759 387.584 554.76 386.739 554.761 385.869C554.762 385.098 554.763 384.327 554.763 383.533C554.863 381.757 554.863 381.757 555.636 380.984Z" fill="#F71193"/>
<path d="M810.664 304.477C825.2 304.477 839.737 304.477 854.714 304.477C854.714 304.987 854.714 305.497 854.714 306.022C852.743 307.007 851.367 306.888 849.162 306.883C848.326 306.883 847.491 306.883 846.63 306.883C845.273 306.877 845.273 306.877 843.888 306.87C842.964 306.869 842.04 306.868 841.088 306.867C838.127 306.863 835.167 306.853 832.206 306.843C830.202 306.839 828.199 306.836 826.195 306.833C821.276 306.824 816.356 306.811 811.437 306.795C811.182 306.03 810.927 305.265 810.664 304.477Z" fill="#ED108B"/>
</svg>
