<svg width="291" height="97" viewBox="0 0 291 97" fill="none" xmlns="http://www.w3.org/2000/svg">
<path d="M75.9014 18.2237C69.1331 16.7734 51.487 14.598 42.7849 31.518C42.3014 32.4849 42.7849 33.9351 43.9935 34.4186C62.123 40.9449 73.4842 26.9254 77.3518 21.366C81.2195 15.8065 77.3518 18.7071 76.1432 18.4654L75.9014 18.2237Z" fill="#BA9645"/>
<path d="M53.9046 1.30347C51.0038 3.47891 43.5104 9.76349 47.378 19.1904C47.378 19.6738 48.3449 20.1573 48.8284 19.6738C57.7723 14.8395 56.5636 5.17087 55.5967 1.78686C54.6298 -1.59716 54.6297 0.820025 53.9046 1.06174V1.30347Z" fill="#BA9645"/>
<path d="M70.5843 40.4614L64.5411 36.1105C61.1569 37.5608 57.531 38.7694 53.1799 38.7694C48.8288 38.7694 46.4116 38.0442 43.0274 36.8357C41.8188 36.3522 40.6101 35.3854 40.1267 34.1768C39.6432 32.9683 39.6432 31.518 40.1267 30.3094C41.577 27.1671 43.5108 24.7499 45.4446 22.8162L40.8518 19.6739C39.6432 18.7071 38.1928 18.2236 36.7425 18.2236C35.2921 18.2236 33.8418 18.7071 32.6331 19.6739L3.14246 40.4614C1.20864 41.9117 0 44.0871 0 46.5043V88.8044C0 92.9136 3.14245 96.0559 7.25181 96.0559H65.9914C70.1008 96.0559 73.2432 92.9136 73.2432 88.8044V46.5043C73.2432 44.0871 72.0346 41.9117 70.1008 40.4614H70.5843Z" fill="#959F53"/>
<path d="M117.238 40.7031C116.755 41.67 116.029 42.8785 114.337 44.3288C111.92 46.2626 108.294 48.438 101.284 48.438C94.2741 48.438 94.0324 48.438 89.6813 45.054C84.605 41.1866 84.3633 35.3854 84.3633 33.2099C84.3633 31.0345 85.0884 27.4088 86.5388 24.9916C87.0223 24.0248 87.5057 23.5414 88.2309 22.8162C89.1978 21.8493 89.6813 21.6076 90.1647 21.1242C92.0985 19.9156 95.7245 18.2236 101.526 18.2236C107.327 18.2236 108.536 18.2236 112.887 21.3659C115.304 23.0579 116.513 24.9916 117.238 25.9585C117.238 26.4419 117.722 26.6836 117.722 27.167L109.986 28.134C109.503 27.4088 108.778 26.2002 107.086 25.2334C106.119 24.7499 104.185 23.7831 101.526 23.7831C98.8669 23.7831 99.1087 23.783 97.1748 24.7499C93.5489 26.2002 91.6151 29.8259 91.6151 33.6934C91.6151 37.5608 92.0986 37.8025 93.3072 39.4945C93.5489 39.7363 94.0323 40.4614 94.9992 41.1866C95.9662 42.1534 98.1417 43.362 101.768 43.362C105.394 43.362 108.053 41.67 109.261 40.2197C109.745 39.7363 109.986 39.2528 110.711 38.0442H118.205C117.722 39.4945 117.48 39.978 117.238 40.7031Z" fill="#BA9645"/>
<path d="M158.815 36.8356C158.574 38.7693 157.365 42.8785 153.014 45.7791C151.08 46.9877 147.454 48.6797 141.895 48.6797C133.434 48.6797 129.083 45.2957 126.908 42.1534C125.941 40.7031 124.49 37.8025 124.49 33.4516C124.49 26.9253 127.633 23.5413 129.808 21.8493C132.951 19.4322 137.06 18.4653 140.928 18.4653C144.554 18.4653 148.663 18.9487 151.805 20.399C152.289 20.6407 153.014 21.1242 153.981 21.8493C154.706 22.5745 155.673 23.0579 156.156 24.0248C157.365 25.475 159.057 28.6173 159.057 33.2099C159.057 37.8025 159.057 35.1436 158.815 36.8356ZM149.388 26.6836C147.454 24.5082 144.312 23.5413 141.411 23.5413C140.686 23.5413 138.994 23.5414 137.302 24.5082C131.984 26.9254 131.742 31.7596 131.742 33.6934C131.742 35.6271 131.742 36.1105 132.467 37.8025C132.467 38.286 132.951 38.7694 133.434 39.7362C133.434 39.978 134.159 40.7031 134.884 41.4283C136.093 42.3951 138.269 43.6037 141.653 43.6037C145.037 43.6037 144.07 43.6037 145.762 42.8785C151.322 40.9448 151.805 35.3854 151.805 33.6934C151.805 32.0014 151.805 29.3425 149.388 26.6836Z" fill="#BA9645"/>
<path d="M168.242 47.7128V19.1904H175.252V42.3951H190.964V47.7128H168H168.242Z" fill="#BA9645"/>
<path d="M199.184 47.7128V19.1904H206.194V47.7128H199.184Z" fill="#BA9645"/>
<path d="M240.76 47.7128L223.114 27.8922V47.7128H216.346V19.1904H223.356L240.76 39.0111V19.1904H247.528V47.7128H240.518H240.76Z" fill="#BA9645"/>
<path d="M282.337 47.7128L279.92 42.3951H265.416L262.999 47.7128H255.264L269.042 19.1904H276.777L290.556 47.7128H282.579H282.337ZM272.668 26.2002L267.592 37.3191H277.503L272.668 26.2002Z" fill="#BA9645"/>
<path d="M103.943 96.0561H96.9327L84.1211 67.5337H91.8564L100.317 88.5629L108.777 67.5337H116.513L103.701 96.0561H103.943Z" fill="#BA9645"/>
<path d="M124.006 96.0561V67.5337H150.596V72.6097H131.258V78.8943H149.871V83.9703H131.258V90.7384H151.321V95.8144H124.006V96.0561Z" fill="#BA9645"/>
<path d="M182.746 96.0561L175.252 84.6955H167.034V96.0561H160.023V67.5337H179.603C182.021 67.5337 183.229 67.5337 184.196 68.0172C187.822 68.984 189.756 72.1263 189.756 75.9937C189.756 79.8612 189.756 78.1692 189.031 79.6194C187.822 82.52 185.405 83.4869 182.504 83.9703L191.206 95.8144H182.746V96.0561ZM182.021 74.06C181.054 72.6097 179.603 72.6097 178.153 72.6097H167.034V79.6194H178.395C178.395 79.6194 179.603 79.6194 180.087 79.6194C180.812 79.6194 182.504 78.6526 182.504 76.4772C182.504 74.3017 182.504 75.2685 182.021 74.3017V74.06Z" fill="#BA9645"/>
<path d="M225.29 92.1887C224.565 92.9138 222.873 94.3641 219.972 95.0892C218.28 95.5727 216.83 95.8144 212.962 95.8144H198.217V67.292H213.687C217.313 67.292 220.214 67.5337 223.356 69.4674C223.84 69.7091 224.807 70.1926 225.532 71.1594C227.949 73.8183 229.158 77.6858 229.158 81.0698C229.158 86.8709 226.741 90.0132 225.048 91.7052L225.29 92.1887ZM219.73 74.3017C219.489 74.3017 218.764 73.5766 217.797 73.3349C216.83 73.0932 215.863 72.8515 213.687 72.8515H205.469V91.2218H213.446C213.929 91.2218 216.105 91.2218 217.797 90.7384C220.214 89.7715 222.389 87.3543 222.389 81.7949C222.389 76.2355 222.389 76.7189 219.73 74.5434V74.3017Z" fill="#BA9645"/>
<path d="M238.344 96.0561V67.5337H264.934V72.6097H245.596V78.8943H264.208V83.9703H245.596V90.7384H265.659V95.8144H238.344V96.0561Z" fill="#BA9645"/>
</svg>
