<svg xmlns="http://www.w3.org/2000/svg" width="65" height="73" fill="none" viewBox="0 0 65 73"><path fill="#5e5e5e" d="M.675 56.686C.584 50.302.35 37.726.277 31.344c7.278-6.17 21.69-18.412 28.987-24.556l.65-.55.681.55c7.62 6.203 22.414 18.106 30.074 24.25.043 3.314.072 7.142.06 10.458-.01 6.33-.12 13.108-.273 19.442-.102 2.827-.15 6.925-.278 9.721l-.032 1.057-.992-.032c-6.16-.208-12.319-.465-18.47-.872v-.303a427 427 0 0 1 9.235-.51 678 678 0 0 1 9.235-.363L58.13 70.66a1048 1048 0 0 1-.468-19.442 695 695 0 0 1-.033-19.443l.553 1.175-14.437-12.302L29.264 8.4h1.331c-7.309 5.912-22.087 17.736-29.42 23.615l.199-.421c-.068 6.255-.298 18.84-.395 25.093H.676z"/><path fill="#5e5e5e" d="M14.595 30.106a8.96 8.96 0 0 0-5.54 1.906v14.203a8.98 8.98 0 0 0 5.54 1.906 8.97 8.97 0 0 0 6.368-2.639 9.1 9.1 0 0 0 1.817-2.598h.761a9.6 9.6 0 0 1-2.084 3.092 9.68 9.68 0 0 1-6.862 2.845 9.65 9.65 0 0 1-6.862-2.845 9.68 9.68 0 0 1-2.846-6.862 9.65 9.65 0 0 1 2.846-6.862 9.68 9.68 0 0 1 6.862-2.846 9.65 9.65 0 0 1 6.862 2.846 9.8 9.8 0 0 1 2.084 3.092h-.76a9.1 9.1 0 0 0-1.818-2.605 8.97 8.97 0 0 0-6.368-2.64zM29.2 48.094v-17.96h5.817a8.95 8.95 0 0 1 6.34 2.637 8.95 8.95 0 0 1 2.637 6.34 8.95 8.95 0 0 1-2.638 6.34 8.95 8.95 0 0 1-6.34 2.637H29.2zm-3.88.72h9.698c5.333 0 9.697-4.364 9.697-9.697s-4.364-9.697-9.697-9.697H25.32v19.4zm25.3-19.4h-.8v19.4h.8zM16.805 60.035h-.859v-3.34h-3.788v3.34H11.3v-7.322h.858v3.212h3.788v-3.212h.859zm6.314.123q-1.558 0-2.494-1.026t-.937-2.67q0-1.766.954-2.82.954-1.05 2.6-1.05 1.515 0 2.444 1.02.926 1.021.926 2.67 0 1.794-.95 2.834-.949 1.042-2.542 1.042zm.061-6.792q-1.154 0-1.874.833-.72.832-.72 2.186-.001 1.353.703 2.177.702.825 1.83.825 1.205 0 1.9-.787t.694-2.2c0-.944-.224-1.714-.674-2.243q-.675-.791-1.859-.792zm13.78 6.669h-.853v-4.912q0-.582.071-1.425h-.02a4.6 4.6 0 0 1-.22.71l-2.501 5.627h-.42l-2.496-5.586a4.4 4.4 0 0 1-.22-.75h-.02q.041.438.04 1.434v4.902h-.827v-7.322h1.134l2.247 5.107q.26.587.337.877h.03q.22-.601.353-.898l2.294-5.086h1.072zm7.25 0h-3.882v-7.322h3.717v.776h-2.86v2.436h2.646v.771h-2.645v2.564h3.022v.776zm-32.995 5.528q.084.066.18.118.098.051.201.089a1.3 1.3 0 0 0 .407.074q.653 0 .653-.49a.4.4 0 0 0-.046-.194.5.5 0 0 0-.132-.15 1 1 0 0 0-.206-.124 6 6 0 0 0-.272-.12 3 3 0 0 1-.35-.169 1 1 0 0 1-.24-.187.7.7 0 0 1-.187-.5q0-.195.084-.346a.8.8 0 0 1 .228-.258q.143-.106.33-.162.189-.056.395-.056.38 0 .665.144v.387a1.3 1.3 0 0 0-.71-.212.8.8 0 0 0-.251.035.6.6 0 0 0-.194.097.42.42 0 0 0-.169.344q0 .107.034.19a.4.4 0 0 0 .108.148q.072.066.19.126.115.06.28.13.213.085.368.17.155.084.255.182.1.1.148.22a.8.8 0 0 1 .05.282.75.75 0 0 1-.083.353.76.76 0 0 1-.226.26 1.1 1.1 0 0 1-.339.16 1.6 1.6 0 0 1-.424.055q-.444 0-.748-.187zm3.808.492a.9.9 0 0 1-.412.095q-.71 0-.71-.82v-1.852h-.515v-.321h.515v-.739l.367-.12v.86h.755v.32h-.755v1.796q0 .298.097.43.097.131.33.131a.6.6 0 0 0 .33-.103v.323zm2.524.035v-.498h-.011q-.298.568-.925.567-1.045 0-1.046-1.277v-1.724h.367v1.655q0 .526.187.778.188.253.575.253a.8.8 0 0 0 .615-.28 1 1 0 0 0 .176-.32q.063-.185.063-.411v-1.676h.367v2.932h-.367zm3.368 0v-.515h-.012a1.04 1.04 0 0 1-.416.431q-.27.154-.615.154-.275 0-.5-.101a1.1 1.1 0 0 1-.385-.294 1.4 1.4 0 0 1-.248-.464 2 2 0 0 1-.087-.616c0-.23.032-.453.096-.648q.096-.294.273-.504a1.23 1.23 0 0 1 .975-.443q.633 0 .907.507h.012v-1.846h.366v4.341h-.366zm0-1.77a1 1 0 0 0-.066-.358.86.86 0 0 0-.465-.485.9.9 0 0 0-.362-.071.88.88 0 0 0-.715.334q-.13.162-.204.394t-.073.526q0 .279.066.498.066.222.187.373a.83.83 0 0 0 .666.312 1 1 0 0 0 .402-.08.9.9 0 0 0 .304-.22 1 1 0 0 0 .191-.33 1.2 1.2 0 0 0 .068-.403zm1.493-1.905a.25.25 0 0 1-.183-.075.25.25 0 0 1-.077-.188.24.24 0 0 1 .077-.184.26.26 0 0 1 .183-.073q.053 0 .104.018.048.019.085.054a.262.262 0 0 1-.189.45zm-.181 3.675v-2.932h.367v2.932zm2.511.07a1.5 1.5 0 0 1-.586-.11 1.24 1.24 0 0 1-.442-.308 1.4 1.4 0 0 1-.28-.477 1.9 1.9 0 0 1-.098-.616q0-.366.103-.655t.294-.49q.19-.203.46-.309t.601-.105c.221 0 .403.034.573.104q.255.105.432.302.178.197.273.482.094.282.094.644c0 .24-.033.437-.099.626q-.099.282-.281.485-.184.202-.447.316a1.5 1.5 0 0 1-.596.111m.029-2.753q-.24 0-.435.083a.9.9 0 0 0-.334.242 1.1 1.1 0 0 0-.213.389q-.075.231-.075.522 0 .276.075.496.075.221.21.378.136.157.331.242t.436.085c.16 0 .309-.028.435-.082a.86.86 0 0 0 .32-.238q.133-.156.2-.382.067-.225.067-.515 0-.593-.263-.906-.264-.314-.753-.314zm5.796 2.683v-.515h-.012a1.05 1.05 0 0 1-.416.431q-.27.154-.615.154-.275 0-.5-.101a1.1 1.1 0 0 1-.385-.294 1.4 1.4 0 0 1-.248-.464 2 2 0 0 1-.087-.616c0-.23.032-.453.096-.648q.096-.294.273-.504a1.23 1.23 0 0 1 .975-.443q.633 0 .907.507h.012v-1.846h.366v4.341h-.366zm0-1.77a1 1 0 0 0-.066-.358.86.86 0 0 0-.465-.485.9.9 0 0 0-.362-.071.88.88 0 0 0-.715.334q-.13.162-.204.394t-.073.526q0 .279.066.498.066.222.187.373a.83.83 0 0 0 .666.312 1 1 0 0 0 .402-.08.9.9 0 0 0 .303-.22 1 1 0 0 0 .192-.33q.068-.188.068-.403zm1.487.37q.003.267.071.484.069.215.198.363.129.15.313.228.185.079.417.079.495 0 .936-.347v.36q-.42.302-1.019.302-.294 0-.536-.104a1.1 1.1 0 0 1-.41-.299 1.4 1.4 0 0 1-.26-.482 2.1 2.1 0 0 1-.09-.653q0-.33.1-.61.1-.281.278-.486t.42-.32.533-.117c.193 0 .356.033.5.099a1 1 0 0 1 .367.281q.147.184.225.447.077.263.078.59v.183h-2.12zm1.74-.321q-.009-.458-.218-.71-.208-.252-.581-.252a.84.84 0 0 0-.625.256 1 1 0 0 0-.199.304q-.078.178-.11.403zm.931 1.194q.084.066.181.118.098.051.2.089a1.3 1.3 0 0 0 .407.074q.654 0 .654-.49a.4.4 0 0 0-.046-.194.5.5 0 0 0-.132-.15 1 1 0 0 0-.206-.124 6 6 0 0 0-.273-.12 3 3 0 0 1-.349-.169 1 1 0 0 1-.24-.187.7.7 0 0 1-.187-.5q0-.195.084-.346a.8.8 0 0 1 .227-.258q.144-.106.331-.162t.395-.056q.38 0 .664.144v.387a1.3 1.3 0 0 0-.71-.212.8.8 0 0 0-.25.035.6.6 0 0 0-.194.097.42.42 0 0 0-.169.344q0 .107.034.19a.4.4 0 0 0 .107.148q.074.066.19.126t.281.13q.213.085.367.17.156.084.255.182.1.1.149.22.048.123.049.282a.75.75 0 0 1-.082.353.75.75 0 0 1-.227.26 1.1 1.1 0 0 1-.338.16 1.6 1.6 0 0 1-.425.055q-.442 0-.747-.187zm2.73-3.148a.25.25 0 0 1-.184-.075.25.25 0 0 1-.077-.188.24.24 0 0 1 .077-.184.26.26 0 0 1 .183-.073q.054 0 .104.018a.25.25 0 0 1 .142.136.27.27 0 0 1 .001.208.26.26 0 0 1-.142.14.3.3 0 0 1-.105.02zm-.18 3.675v-2.932h.366v2.932zm3.734-.226q0 .816-.37 1.21-.372.393-1.145.393-.481 0-.91-.214v-.373q.477.266.91.267 1.148 0 1.148-1.214v-.353h-.011q-.339.58-1.031.58a1.2 1.2 0 0 1-.497-.101 1.1 1.1 0 0 1-.385-.29 1.4 1.4 0 0 1-.25-.459q-.088-.27-.088-.611 0-.361.094-.658.095-.297.27-.508.174-.211.421-.328.247-.114.558-.115.62 0 .907.503h.011v-.435h.367zm-.367-1.556a.9.9 0 0 0-.249-.633.88.88 0 0 0-.636-.268.9.9 0 0 0-.73.341q-.129.163-.2.396a1.8 1.8 0 0 0-.07.526q0 .27.066.486.066.219.187.37a.83.83 0 0 0 .67.318 1 1 0 0 0 .395-.08.9.9 0 0 0 .303-.217 1 1 0 0 0 .195-.327q.069-.187.068-.406zm3.291 1.782V64.4q0-.993-.722-.993a.84.84 0 0 0-.637.286q-.118.134-.186.32a1.2 1.2 0 0 0-.068.399v1.678h-.366v-2.932h.366v.51h.012q.326-.579.982-.578.48 0 .733.312.252.312.252.902v1.787z"/></svg>