<svg width="1159" height="530" viewBox="0 0 1159 530" fill="none" xmlns="http://www.w3.org/2000/svg">
<mask id="mask0_115_61" style="mask-type:luminance" maskUnits="userSpaceOnUse" x="0" y="0" width="1158" height="527">
<path d="M1157.75 0H0V526.63H1157.75V0Z" fill="white"/>
</mask>
<g mask="url(#mask0_115_61)">
<path d="M715.062 281.066H722.971V380.124H715.062V281.066Z" fill="#212121"/>
<path d="M845.155 281.066V380.124H837.445V296.884L800.471 380.124H794.046L757.367 297.28V380.124H749.459V281.066H757.764L797.406 370.732L837.149 281.066H845.256H845.155Z" fill="#212121"/>
<path d="M867.207 330.587C867.207 302.511 889.946 279.773 918.02 279.773C946.098 279.773 968.837 302.511 968.837 330.587C968.837 358.665 946.098 381.401 918.02 381.401C889.946 381.401 867.207 358.665 867.207 330.587ZM960.925 330.587C960.925 306.861 941.748 287.682 918.02 287.682C894.295 287.682 875.115 306.861 875.115 330.587C875.115 354.315 894.295 373.492 918.02 373.492C941.748 373.492 960.925 354.315 960.925 330.587Z" fill="#212121"/>
<path d="M1055.23 354.223C1055.23 369.053 1043.47 380.124 1028.84 380.124H990.873V281.066H1025.57C1040.3 281.066 1052.17 292.139 1052.17 307.166C1052.17 317.742 1046.04 325.95 1037.34 329.903C1047.72 333.165 1055.33 342.261 1055.33 354.125L1055.23 354.223ZM1024.69 288.975H998.784V326.74H1024.69C1035.56 326.74 1044.16 318.338 1044.16 307.561C1044.16 296.785 1035.46 288.876 1024.69 288.876V288.975ZM1047.32 353.334C1047.32 342.755 1038.72 334.353 1027.85 334.353H998.784V372.118H1027.85C1038.72 372.118 1047.32 364.011 1047.32 353.334Z" fill="#212121"/>
<path d="M1077.68 281.066H1085.59V380.124H1077.68V281.066Z" fill="#212121"/>
<path d="M1157.75 372.215V380.124H1111.98V281.066H1119.89V372.215H1157.65H1157.75Z" fill="#212121"/>
<path d="M0 330.294C0 301.92 23.0344 278.984 51.3084 278.984C71.1793 278.984 88.2821 290.156 96.7841 306.467L77.8029 316.254C72.9587 306.764 63.1718 300.437 51.3084 300.437C34.5023 300.437 21.6504 313.388 21.6504 330.294C21.6504 347.197 34.5023 360.148 51.3084 360.148C63.1718 360.148 72.9587 353.821 77.8029 344.331L96.7841 354.12C88.2821 370.431 71.0804 381.602 51.3084 381.602C22.9356 381.602 0 358.567 0 330.294Z" fill="#212121"/>
<path d="M107.357 330.294C107.357 301.92 130.392 278.984 158.666 278.984C186.94 278.984 209.974 302.019 209.974 330.294C209.974 358.567 187.138 381.602 158.666 381.602C130.194 381.602 107.357 358.567 107.357 330.294ZM188.522 330.294C188.522 313.487 175.67 300.437 158.666 300.437C141.662 300.437 129.008 313.388 129.008 330.294C129.008 347.197 141.86 360.148 158.666 360.148C175.472 360.148 188.522 347.197 188.522 330.294Z" fill="#212121"/>
<path d="M434.592 299.641V320.601H467.217V339.976H434.592V360.936H472.754V380.311H412.646V280.363H472.754V299.74H434.592V299.641Z" fill="#212121"/>
<path d="M485.797 330.294C485.797 301.92 508.832 278.984 537.105 278.984C556.978 278.984 574.079 290.156 582.58 306.467L563.601 316.254C558.757 306.764 548.969 300.437 537.105 300.437C520.299 300.437 507.446 313.388 507.446 330.294C507.446 347.197 520.299 360.148 537.105 360.148C548.969 360.148 558.757 353.821 563.601 344.331L582.58 354.12C574.079 370.431 556.877 381.602 537.105 381.602C508.731 381.602 485.797 358.567 485.797 330.294Z" fill="#212121"/>
<path d="M658.41 299.839H633.299V380.311H611.452V299.839H586.143V280.363H658.41V299.839Z" fill="#212121"/>
<path d="M248.234 313.976V280.363H248.927L298.06 346.502V380.311H297.17L248.234 313.976Z" fill="#212121"/>
<path d="M320.211 313.976V280.363H320.803L370.035 346.502V380.311H369.144L320.211 313.976Z" fill="#212121"/>
<path d="M337.806 504.487H319.416L316.055 513.979H312.596L326.833 474.633H330.291L344.526 513.979H341.068L337.705 504.487H337.806ZM336.719 501.523L328.612 478.387L320.506 501.523H336.817H336.719Z" fill="#212121"/>
<path d="M387.925 493.418V494.307C387.925 505.478 378.829 514.476 367.759 514.476C356.685 514.476 347.59 505.38 347.59 494.307C347.59 483.233 356.588 474.141 367.759 474.141C375.27 474.141 381.796 478.194 385.257 484.323L382.489 485.806C379.623 480.663 374.086 477.303 367.759 477.303C358.266 477.303 350.654 484.915 350.654 494.307C350.654 503.698 358.266 511.311 367.759 511.311C376.458 511.311 383.673 504.785 384.662 496.382H367.658V493.318H387.925V493.418Z" fill="#212121"/>
<path d="M400.187 477.697V492.821H415.805V495.885H400.187V511.012H417.981V514.077H397.021V474.73H417.981V477.795H400.187V477.697Z" fill="#212121"/>
<path d="M458.71 474.633V513.979H455.942L430.535 480.166V513.979H427.373V474.633H430.141L455.548 508.442V474.633H458.71Z" fill="#212121"/>
<path d="M490.051 474.633V477.795H478.978V513.979H475.816V477.795H464.742V474.633H490.051ZM475.419 517.141H479.176L473.639 526.633H471.365L475.419 517.141Z" fill="#212121"/>
<path d="M496.477 474.633H499.642V513.979H496.477V474.633Z" fill="#212121"/>
<path d="M513.576 477.697V492.821H529.197V495.885H513.576V511.012H531.371V514.077H510.414V474.73H531.371V477.795H513.576V477.697Z" fill="#212121"/>
<path d="M557.078 474.633H560.24V513.979H557.078V474.633Z" fill="#212121"/>
<path d="M608.784 474.633V513.979H605.719V480.96L590.989 513.979H588.419L573.885 481.058V513.979H570.723V474.633H573.985L589.704 510.222L605.521 474.633H608.784Z" fill="#212121"/>
<path d="M617.484 494.307C617.484 483.135 626.577 474.141 637.65 474.141C648.724 474.141 657.819 483.233 657.819 494.307C657.819 505.38 648.724 514.476 637.65 514.476C626.577 514.476 617.484 505.38 617.484 494.307ZM654.752 494.307C654.752 484.817 647.14 477.303 637.748 477.303C628.356 477.303 620.744 484.915 620.744 494.307C620.744 503.698 628.356 511.311 637.748 511.311C647.14 511.311 654.752 503.698 654.752 494.307Z" fill="#212121"/>
<path d="M692.217 503.696C692.217 509.63 687.572 513.979 681.739 513.979H666.615V474.633H680.356C686.189 474.633 690.932 478.982 690.932 485.013C690.932 489.164 688.463 492.525 685.002 494.106C689.153 495.391 692.12 499.051 692.12 503.797L692.217 503.696ZM680.06 477.795H669.777V492.821H680.06C684.41 492.821 687.77 489.46 687.77 485.209C687.77 480.96 684.309 477.795 680.06 477.795ZM689.055 503.4C689.055 499.249 685.594 495.885 681.345 495.885H669.777V510.915H681.345C685.695 510.915 689.055 507.652 689.055 503.4Z" fill="#212121"/>
<path d="M701.117 474.633H704.279V513.979H701.117V474.633Z" fill="#212121"/>
<path d="M732.945 510.915V514.077H714.754V474.73H717.919V510.915H732.945Z" fill="#212121"/>
<path d="M739.076 474.633H742.241V513.979H739.076V474.633Z" fill="#212121"/>
<path d="M773.185 504.487H754.795L751.435 513.979H747.977L762.212 474.633H765.67L779.906 513.979H776.448L773.087 504.487H773.185ZM772.098 501.523L763.992 478.387L755.885 501.523H772.196H772.098Z" fill="#212121"/>
<path d="M812.039 513.979H808.48L797.111 495.986H788.61V513.979H785.445V474.633H798.89C804.821 474.633 809.668 479.376 809.668 485.407C809.668 490.846 805.614 495.196 800.374 495.788L812.137 513.979H812.039ZM798.594 492.922C802.944 492.922 806.405 489.659 806.405 485.407C806.405 481.155 802.944 477.795 798.594 477.795H788.51V492.922H798.594Z" fill="#212121"/>
<path d="M838.433 504.489H820.046L816.686 513.981H813.225L827.46 474.635H830.921L845.157 513.981H841.696L838.335 504.489H838.433ZM820.837 463.266H822.912C822.912 466.33 825.681 468.9 829.24 468.9C832.799 468.9 835.567 466.33 835.567 463.266H837.642C837.642 467.813 834.084 470.975 829.24 470.975C824.396 470.975 820.837 467.911 820.837 463.266ZM837.346 501.525L829.24 478.389L821.133 501.525H837.447H837.346Z" fill="#212121"/>
<path d="M248.136 280.363H226.189V380.311H248.136V280.363Z" fill="#212121"/>
<path d="M320.206 280.363H298.061V380.311H320.206V280.363Z" fill="#212121"/>
<path d="M391.986 380.32H370.037V258.226L391.787 237.07L391.986 380.32Z" fill="#212121"/>
<path d="M664.043 74.5407V74.7385L589.502 0H589.405L578.825 10.578L568.246 0L485.699 82.5482V186.055H671.851V82.5482L663.943 74.6396L664.043 74.5407ZM528.406 178.047V126.739L506.854 147.499V93.9171L589.502 11.5667L663.943 86.0085V178.047H528.308H528.406Z" fill="#212121"/>
</g>
</svg>
