<svg width="2031" height="727" viewBox="0 0 2031 727" fill="none" xmlns="http://www.w3.org/2000/svg">
<path d="M1312.29 114.78C1312.88 114.934 1313.35 115.01 1313.7 115.01C1366.2 114.984 1397.05 114.99 1406.25 115.03C1406.68 115.037 1407.59 115.22 1408.98 115.58C1409.3 115.658 1409.63 115.619 1409.93 115.47C1410.63 115.117 1411.58 114.944 1412.77 114.95C1431.58 115.084 1454.79 115.077 1482.38 114.93C1483.15 114.93 1483.84 115.28 1484.25 115.26C1484.41 115.253 1484.56 115.184 1484.67 115.069C1484.78 114.953 1484.84 114.8 1484.84 114.64C1484.89 100.9 1484.99 64.8538 1485.14 6.50047C1485.14 5.22047 1485.15 3.93714 1485.16 2.65047C1485.18 0.210469 1486.51 0.130469 1488.5 0.150469C1502.59 0.323803 1517.53 0.363803 1533.33 0.270469C1533.41 0.269141 1533.5 0.284973 1533.58 0.317043C1533.66 0.349114 1533.73 0.396782 1533.79 0.457273C1533.85 0.517763 1533.9 0.589868 1533.93 0.66939C1533.96 0.748912 1533.98 0.834261 1533.98 0.920469V114.57C1533.98 114.687 1534.03 114.799 1534.11 114.882C1534.19 114.964 1534.3 115.01 1534.41 115.01H1632.87C1632.93 115.01 1632.98 115.033 1633.02 115.072C1633.06 115.111 1633.08 115.165 1633.08 115.22V152.88C1633.08 152.995 1633.04 153.104 1632.96 153.185C1632.88 153.265 1632.77 153.31 1632.66 153.31L1534 153.3C1533.94 153.301 1533.88 153.316 1533.82 153.345C1533.76 153.373 1533.71 153.414 1533.68 153.464C1533.64 153.515 1533.61 153.573 1533.6 153.635C1533.59 153.696 1533.59 153.76 1533.61 153.82C1534.46 156.88 1533.88 159.58 1533.87 162.87C1533.8 260.277 1533.85 337.07 1534.01 393.25C1534.02 396.42 1534.91 399.55 1534.9 402.94C1534.89 405.607 1535.48 409.234 1536.65 413.82C1537.96 418.887 1540.07 423.32 1542.99 427.12C1548.05 433.69 1555.81 436.81 1564.1 438.67C1566.19 439.144 1568.12 439.39 1569.88 439.41C1572.54 439.44 1575.54 440.26 1577.62 440.21C1579.79 440.157 1581.66 440.26 1583.21 440.52C1583.71 440.607 1585.57 440.534 1588.78 440.3C1591.95 440.074 1595.29 440.104 1598.79 440.39C1598.84 440.397 1598.9 440.388 1598.95 440.365C1599 440.342 1599.05 440.306 1599.08 440.26C1599.13 440.187 1599.19 440.127 1599.26 440.08C1599.34 440.027 1599.39 440 1599.41 440C1605.27 439.54 1610.76 439.51 1615.82 438.82C1619.48 438.327 1622.15 438.18 1623.83 438.38C1623.95 438.394 1624.07 438.383 1624.19 438.35L1632.52 436.06C1632.6 436.039 1632.68 436.035 1632.76 436.05C1632.84 436.065 1632.91 436.098 1632.97 436.147C1633.04 436.195 1633.09 436.258 1633.13 436.329C1633.16 436.401 1633.18 436.48 1633.18 436.56V477.99C1633.18 478.221 1633.1 478.444 1632.95 478.623C1632.81 478.802 1632.61 478.924 1632.38 478.97C1630.7 479.297 1624.72 480.054 1614.44 481.24C1611.02 481.64 1608.38 481.854 1606.51 481.88C1603.36 481.927 1600.71 482.1 1598.56 482.4C1593.57 483.09 1589.42 482.83 1584.23 482.82C1582.43 482.82 1580.85 482.39 1579.2 482.79C1579.05 482.824 1578.91 482.84 1578.76 482.84C1572.03 482.827 1568.62 482.824 1568.51 482.83C1566.36 482.977 1564.03 482.807 1561.52 482.32C1561.18 482.254 1558.85 482.047 1554.54 481.7C1544.67 480.92 1535.41 478.944 1526.75 475.77C1512.21 470.437 1501.59 461.164 1494.88 447.95C1491.31 440.91 1488.82 432.447 1487.41 422.56C1485.8 411.187 1484.99 398.667 1484.98 385C1484.94 304.14 1484.92 241.564 1484.91 197.27C1484.91 184.36 1485.2 169.32 1484.86 154.2C1484.86 154.03 1484.79 153.867 1484.67 153.747C1484.54 153.628 1484.38 153.56 1484.21 153.56L1411.33 153.84C1411.32 153.84 1411.3 153.837 1411.29 153.83L1408.09 152.85C1407.98 152.818 1407.87 152.82 1407.76 152.856C1407.66 152.892 1407.56 152.96 1407.5 153.05C1407.47 153.104 1407.42 153.184 1407.35 153.29C1407.3 153.378 1407.22 153.451 1407.14 153.502C1407.05 153.553 1406.95 153.58 1406.85 153.58H1312.06C1311.99 153.58 1311.92 153.609 1311.87 153.66C1311.82 153.71 1311.79 153.779 1311.79 153.85C1311.75 215.55 1311.74 297.607 1311.77 400.02C1311.77 402.207 1312.67 407.23 1314.48 415.09C1315.47 419.404 1318.06 424.164 1322.23 429.37C1322.63 429.868 1323.1 430.302 1323.62 430.66C1330.29 435.214 1336.92 437.947 1343.52 438.86C1352.59 440.12 1358.92 440.64 1362.53 440.42C1367.02 440.154 1371.26 440.114 1375.25 440.3C1375.58 440.314 1375.9 440.3 1376.22 440.26C1380.01 439.72 1383.52 439.397 1386.74 439.29C1391 439.137 1394.49 438.854 1397.22 438.44C1402.33 437.667 1406.41 436.96 1409.48 436.32C1409.6 436.295 1409.72 436.297 1409.83 436.324C1409.95 436.352 1410.06 436.406 1410.15 436.482C1410.24 436.558 1410.32 436.653 1410.37 436.762C1410.42 436.871 1410.45 436.99 1410.45 437.11V477.74C1410.45 478.052 1410.34 478.354 1410.14 478.593C1409.94 478.832 1409.67 478.994 1409.36 479.05C1407.38 479.424 1403.41 479.954 1397.46 480.64C1394.81 480.94 1392.43 480.76 1389.61 481.47C1389.24 481.563 1388.87 481.61 1388.5 481.61C1382.03 481.67 1374.88 483.08 1368.57 482.84C1363.91 482.66 1356.03 482.65 1348.6 482.86C1343.24 483.02 1336.6 482.18 1330.02 481.65C1322.69 481.057 1314.96 479.377 1306.84 476.61C1296.09 472.95 1287.42 467.567 1280.82 460.46C1275.27 454.48 1271.14 447.127 1268.44 438.4C1264.85 426.82 1263.06 414.27 1263.06 400.75C1263.06 365.43 1263.06 283.207 1263.05 154.08C1263.05 153.871 1263 153.665 1262.9 153.479C1262.81 153.292 1262.67 153.131 1262.5 153.008C1262.33 152.886 1262.13 152.805 1261.93 152.772C1261.72 152.739 1261.51 152.756 1261.31 152.82C1260.51 153.074 1259.82 153.2 1259.25 153.2C1233.9 153.24 1210.07 153.24 1187.76 153.2C1187.56 153.2 1187.37 153.119 1187.22 152.975C1187.08 152.831 1187 152.635 1187 152.43V115.42C1187 115.368 1187.01 115.316 1187.03 115.267C1187.05 115.219 1187.08 115.175 1187.11 115.138C1187.15 115.1 1187.19 115.071 1187.24 115.051C1187.29 115.031 1187.34 115.02 1187.39 115.02H1262.78C1262.86 115.02 1262.95 114.986 1263.01 114.924C1263.07 114.862 1263.1 114.778 1263.1 114.69V0.830469C1263.1 0.70847 1263.15 0.591467 1263.24 0.5052C1263.33 0.418934 1263.45 0.370469 1263.57 0.370469H1310.87C1311.13 0.370469 1311.38 0.473719 1311.57 0.657505C1311.76 0.84129 1311.86 1.09056 1311.86 1.35047V114.22C1311.86 114.349 1311.9 114.474 1311.98 114.576C1312.06 114.677 1312.17 114.749 1312.29 114.78Z" fill="#242021"/>
<path d="M5.7108 332.25C5.71747 332.237 5.57413 331.727 5.2808 330.72C5.14747 330.26 5.1008 329.767 5.1408 329.24C5.58747 323.507 5.61747 318.06 5.2308 312.9C5.16425 312.016 5.17764 311.125 5.2708 310.24C5.7908 305.174 6.06413 301.217 6.0908 298.37C6.1408 293.63 6.8308 290.61 7.5008 284.95C10.5808 258.9 18.5508 232.8 32.2708 210.62C36.3041 204.1 41.7208 197.304 48.5208 190.23C63.9875 174.144 83.0908 163.427 105.831 158.08C108.024 157.567 110.214 157.17 112.401 156.89C115.221 156.53 118.251 155.68 121.201 155.43C123.647 155.224 128.027 154.864 134.341 154.35C137.781 154.077 140.554 154.034 142.661 154.22C144.754 154.407 146.604 154.467 148.211 154.4C149.111 154.36 150.961 154.487 153.761 154.78C191.047 158.754 220.217 176.144 241.271 206.95C243.217 209.804 246.514 216.567 251.161 227.24C251.911 228.98 252.211 230.81 253.181 232.53C253.231 232.619 253.309 232.688 253.403 232.728C253.497 232.767 253.601 232.774 253.7 232.748C253.798 232.721 253.885 232.663 253.947 232.582C254.008 232.501 254.041 232.402 254.041 232.3V39.8205C254.041 39.3325 254.235 38.8645 254.58 38.5194C254.925 38.1743 255.393 37.9805 255.881 37.9805H275.141C275.385 37.9805 275.619 38.0774 275.791 38.2499C275.964 38.4225 276.061 38.6565 276.061 38.9005V476.82C276.061 476.978 276.03 477.133 275.969 477.278C275.909 477.423 275.82 477.555 275.709 477.665C275.597 477.776 275.465 477.864 275.319 477.923C275.174 477.982 275.018 478.012 274.861 478.01C268.814 477.95 262.694 477.97 256.501 478.07C253.931 478.11 254.181 476.04 254.141 473.81C254.007 467.084 253.981 446.4 254.061 411.76C254.061 411.274 254.024 410.894 253.951 410.62C253.905 410.455 253.809 410.308 253.677 410.199C253.545 410.089 253.382 410.023 253.211 410.009C253.04 409.995 252.869 410.034 252.72 410.12C252.572 410.206 252.453 410.335 252.381 410.49C247.381 420.804 241.421 430.4 234.501 439.28C230.141 444.89 225.371 449.29 220.061 454.79C218.501 456.41 216.371 458.277 213.671 460.39C208.064 464.777 203.764 467.737 200.771 469.27C192.611 473.444 187.191 476.024 184.511 477.01C181.237 478.224 176.737 479.584 171.011 481.09C168.131 481.85 166.074 482.194 164.841 482.12C164.484 482.101 164.129 482.199 163.831 482.4C163.637 482.527 163.347 482.647 162.961 482.76C162.574 482.874 162.264 482.924 162.031 482.91C159.864 482.737 158.034 483 156.541 483.7C156.219 483.851 155.868 483.917 155.521 483.89C154.661 483.81 152.654 483.987 149.501 484.42C144.301 485.13 138.961 484.36 134.261 484.64C130.854 484.847 128.354 484.894 126.761 484.78C114.214 483.914 102.367 481.654 91.2208 478C90.3008 477.694 87.4908 476.52 82.7908 474.48C79.8108 473.187 77.0941 471.834 74.6408 470.42C60.9741 462.567 49.3908 452.39 39.8908 439.89C34.0175 432.164 30.1341 426.457 28.2408 422.77C26.2908 418.98 22.7808 412.37 20.6908 407.11C15.7908 394.757 12.0975 382.28 9.6108 369.68C9.21747 367.694 8.3808 362.29 7.1008 353.47C6.5408 349.637 6.2108 346.227 6.1108 343.24C6.0308 340.78 5.2508 332.74 5.3408 332.62C5.41413 332.527 5.46747 332.47 5.5008 332.45C5.5921 332.405 5.66552 332.335 5.7108 332.25ZM253.391 338.55C253.397 338.524 253.357 336.507 253.271 332.5C253.171 327.79 254.321 322.46 253.951 317.98C253.497 312.44 253.287 307.327 253.321 302.64C253.327 301.654 253.144 300.257 252.771 298.45C252.551 297.384 252.344 295.987 252.151 294.26C249.731 273.027 243.877 252.77 234.591 233.49C232.451 229.04 229.681 225.36 227.301 221.13C225.851 218.54 223.311 215.52 221.481 213.06C220.061 211.154 218.431 209.254 216.591 207.36C213.611 204.29 210.171 200.44 206.341 197.27C191.554 185.03 174.561 177.71 155.361 175.31C150.841 174.75 148.564 174.467 148.531 174.46C144.904 173.934 140.457 173.834 135.191 174.16C130.811 174.427 126.847 174.72 123.301 175.04C122.968 175.074 122.64 175.131 122.321 175.21C120.707 175.604 119.594 175.81 118.981 175.83C117.861 175.864 116.567 176.047 115.101 176.38C96.4475 180.66 80.4141 189.327 67.0008 202.38C62.0008 207.247 57.5308 212.627 53.5908 218.52C44.8908 231.51 39.0208 245.79 34.8908 260.68C31.1641 274.154 28.8675 287.347 28.0008 300.26C27.7275 304.407 27.4941 307.407 27.3008 309.26C26.7308 314.96 27.1008 324.5 27.7308 332.96C27.9441 335.807 28.1408 338.74 28.3208 341.76C28.6408 347.14 29.8575 354.967 31.9708 365.24C36.1308 385.527 44.0308 404.364 55.6708 421.75C70.1308 443.35 92.4608 457.12 117.321 462.82C119.401 463.3 124.417 463.964 132.371 464.81C135.131 465.11 137.564 465.227 139.671 465.16C142.157 465.087 144.557 465.184 146.871 465.45C147.196 465.489 147.524 465.426 147.811 465.27C148.237 465.037 148.747 464.897 149.341 464.85C173.201 463.024 193.681 454.024 210.781 437.85C213.201 435.56 214.561 433.61 216.291 432.05C219.371 429.29 221.141 426.55 224.111 422.71C225.244 421.237 226.384 419.52 227.531 417.56C229.751 413.75 232.471 410.25 234.171 406.61C239.604 394.97 243.077 386.63 244.591 381.59C246.897 373.93 248.577 367.14 249.631 361.22C250.697 355.247 251.461 351.47 251.921 349.89C252.126 349.176 252.211 348.429 252.171 347.68C251.997 344.707 252.304 341.994 253.091 339.54C253.191 339.214 253.291 338.883 253.391 338.55Z" fill="#242021"/>
<path d="M374.379 100.93H355.479C355.095 100.93 354.726 100.777 354.454 100.505C354.182 100.233 354.029 99.8646 354.029 99.48V39.49C354.029 39.1055 354.182 38.7367 354.454 38.4647C354.726 38.1928 355.095 38.04 355.479 38.04H374.379C374.764 38.04 375.133 38.1928 375.405 38.4647C375.677 38.7367 375.829 39.1055 375.829 39.49V99.48C375.829 99.8646 375.677 100.233 375.405 100.505C375.133 100.777 374.764 100.93 374.379 100.93Z" fill="#242021"/>
<path d="M565.21 121.41C565.256 121.237 565.31 121.134 565.37 121.1C574.803 116.754 580.73 114.187 583.15 113.4C594.33 109.794 606.116 107.12 618.51 105.38C624.556 104.54 630.576 104.07 636.57 103.97C641.75 103.884 647.79 103.947 654.69 104.16C657.963 104.267 660.4 104.254 662 104.12C662.352 104.087 662.707 104.09 663.06 104.13C668.173 104.69 671.746 105.05 673.78 105.21C676.926 105.464 680.386 105.927 684.16 106.6C690.826 107.787 695.36 108.65 697.76 109.19C712.906 112.59 726.653 118.077 739 125.65C742.3 127.67 744.643 129.18 746.03 130.18C747.376 131.147 749.19 132.51 751.47 134.27C755.28 137.23 757.29 139.79 760.93 143.33C762.203 144.564 763.603 146.147 765.13 148.08C779.77 166.58 788.46 188.53 791.82 211.8C793.1 220.61 793.89 224.41 793.93 231.78C793.96 237.87 794.86 243.62 794.87 249.75C794.89 327.364 794.883 402.904 794.85 476.37C794.85 476.706 794.718 477.029 794.482 477.268C794.246 477.508 793.926 477.645 793.59 477.65L746.96 478.23C746.842 478.232 746.725 478.21 746.616 478.166C746.507 478.122 746.408 478.058 746.324 477.976C746.24 477.894 746.174 477.797 746.128 477.689C746.083 477.582 746.06 477.467 746.06 477.35C746.133 416.824 746.103 337.877 745.97 240.51C745.963 237.637 745.536 233.07 744.69 226.81C743.896 220.93 743.15 216.41 742.45 213.25C740.15 202.844 736.35 193.357 731.05 184.79C729.643 182.517 728.116 180.484 726.47 178.69C724.26 176.29 722.27 173.59 719.57 171.11C714.056 166.044 708.19 161.957 701.97 158.85C692.376 154.07 682.146 150.774 671.28 148.96C667.4 148.314 665.06 147.98 664.26 147.96C661.626 147.907 659.283 147.667 657.23 147.24C655.636 146.914 651.976 146.774 646.25 146.82C636.463 146.907 628.963 146.88 623.75 146.74C620.32 146.64 617.32 148.15 613.95 147.8C613.638 147.767 613.325 147.774 613.02 147.82C609.38 148.394 605.463 149.05 601.27 149.79C585.456 152.597 570.426 157.747 556.18 165.24C553.47 166.66 551.66 167.98 548.25 170.25C533.563 180.037 522.116 192.92 513.91 208.9C508.803 218.833 505.026 229.124 502.58 239.77C500.493 248.87 498.913 260.08 497.84 273.4C497.706 275.04 497.64 278.093 497.64 282.56C497.66 405.953 497.693 468.934 497.74 471.5C497.786 473.907 497.74 475.79 497.6 477.15C497.59 477.257 497.54 477.357 497.461 477.429C497.381 477.501 497.277 477.541 497.17 477.54L449.85 478.14C449.74 478.142 449.631 478.121 449.529 478.08C449.427 478.039 449.335 477.978 449.256 477.901C449.178 477.823 449.116 477.731 449.074 477.63C449.032 477.529 449.01 477.42 449.01 477.31V116C449.01 115.864 449.037 115.728 449.089 115.602C449.141 115.476 449.218 115.361 449.314 115.265C449.411 115.168 449.526 115.092 449.652 115.039C449.778 114.987 449.913 114.96 450.05 114.96H496.81C497.08 114.96 497.34 115.068 497.531 115.259C497.722 115.45 497.83 115.71 497.83 115.98C497.876 141.46 497.81 164.15 497.63 184.05C497.623 184.784 497.73 185.304 497.95 185.61C498.085 185.794 498.267 185.935 498.479 186.02C498.691 186.104 498.924 186.128 499.155 186.089C499.386 186.05 499.607 185.95 499.794 185.8C499.981 185.649 500.128 185.452 500.22 185.23C501.88 181.19 503.39 177.17 505.67 173.75C508.79 169.07 510.89 165.34 513.8 161.72C517.7 156.86 522.06 152.08 526.88 147.38C528.58 145.734 530.23 144.264 531.83 142.97C532.47 142.45 534.173 141.044 536.94 138.75C542.466 134.164 546.683 131.114 549.59 129.6C554.38 127.09 558.78 124.35 564.11 121.86C564.476 121.687 564.723 121.614 564.85 121.64C564.928 121.655 565.009 121.64 565.076 121.597C565.143 121.554 565.191 121.487 565.21 121.41Z" fill="#242021"/>
<path d="M1008.11 103.96C1008.49 103.96 1008.87 103.957 1009.25 103.95C1035.66 103.59 1061.08 107.5 1085.53 115.68C1095.17 118.913 1105.43 123.5 1116.31 129.44C1131.34 137.647 1144.93 148.363 1157.06 161.59C1177.24 183.603 1191.18 209.73 1198.87 239.97C1201.66 250.97 1203.67 263.063 1204.89 276.25C1205.74 285.43 1206.06 293.51 1205.86 300.49C1205.39 317.03 1203.39 333.017 1199.87 348.45C1194.12 373.697 1183.59 396.55 1168.28 417.01C1150.62 440.603 1128.52 458.347 1101.99 470.24C1088.28 476.387 1073.28 481.06 1057.01 484.26C1053.44 484.96 1050.1 485.507 1046.99 485.9C1042.8 486.427 1040.68 486.693 1040.65 486.7C1034.24 487.587 1027.86 488.063 1021.5 488.13C1018.54 488.15 1015.26 489 1012.2 488.85C1011.86 488.837 1010.43 488.83 1007.92 488.83C1005.4 488.823 1003.97 488.83 1003.64 488.85C1000.58 488.99 997.3 488.14 994.34 488.12C987.98 488.047 981.596 487.563 975.19 486.67C975.156 486.663 973.043 486.393 968.85 485.86C965.736 485.467 962.396 484.917 958.83 484.21C942.563 480.997 927.576 476.31 913.87 470.15C887.343 458.23 865.263 440.463 847.63 416.85C832.343 396.377 821.836 373.513 816.11 348.26C812.603 332.82 810.62 316.83 810.16 300.29C809.973 293.31 810.306 285.23 811.16 276.05C812.393 262.87 814.413 250.78 817.22 239.78C824.94 209.547 838.9 183.433 859.1 161.44C871.246 148.227 884.843 137.523 899.89 129.33C910.77 123.403 921.033 118.827 930.68 115.6C955.133 107.447 980.563 103.563 1006.97 103.95C1007.35 103.957 1007.73 103.96 1008.11 103.96ZM1148.35 352.11C1148.25 351.577 1148.36 350.793 1148.69 349.76C1149.91 345.947 1151.26 340.95 1152.75 334.77C1153.4 332.057 1154.04 328.017 1154.67 322.65C1155.07 319.203 1155.64 315.147 1156.37 310.48C1156.6 309.05 1155.99 306.86 1156.18 304.85C1156.63 300.23 1156.68 294.213 1156.33 286.8C1156.21 284.2 1156.13 282.54 1156.1 281.82C1155.87 276.64 1154.78 268.91 1152.83 258.63C1150.62 246.997 1146.76 235.43 1141.26 223.93C1140.48 222.297 1138.97 219.27 1136.74 214.85C1135.22 211.83 1133.48 208.94 1131.52 206.18C1127.53 200.567 1123.11 195.053 1118.25 189.64C1116.96 188.2 1115.94 187.167 1115.19 186.54C1113.14 184.827 1111.97 183.803 1111.68 183.47C1110.09 181.677 1108.4 180.073 1106.59 178.66C1095.06 169.633 1083.02 162.687 1070.46 157.82C1059.34 153.507 1047.49 150.333 1034.9 148.3C1031.5 147.75 1027.76 147.75 1024.15 147.05C1022.57 146.75 1019.02 146.61 1017.51 146.79C1016.38 146.93 1014.74 146.897 1012.58 146.69C1009.15 146.35 1005.03 146.423 1000.22 146.91C999.648 146.97 999.075 146.97 998.51 146.91C994.483 146.483 990.483 146.777 986.51 147.79C985.97 147.93 984.82 147.973 983.06 147.92C982.514 147.907 981.972 147.95 981.44 148.05C974.26 149.463 968.623 150.637 964.53 151.57C959.19 152.79 952.53 154.957 944.55 158.07C930.63 163.497 917.9 171.187 906.36 181.14C893.81 191.96 883.73 205.76 876.39 220.1C868.503 235.48 863.246 253.517 860.62 274.21C860.44 275.66 859.83 278.63 859.91 280.61C859.983 282.443 859.836 285.49 859.47 289.75C859.223 292.53 859.32 297.957 859.76 306.03C859.92 308.95 859.94 311.017 859.82 312.23C859.78 312.594 859.8 312.962 859.88 313.32C860.42 315.907 860.996 319.747 861.61 324.84C861.97 327.807 862.526 330.9 863.28 334.12C864.526 339.487 865.25 342.55 865.45 343.31C867.243 349.983 870.06 357.843 873.9 366.89C876.726 373.55 881.46 381.72 888.1 391.4C890.46 394.85 893.84 398.11 895.79 400.72C897.363 402.847 899.27 404.913 901.51 406.92C908.98 413.61 914.79 418.59 922.72 423.3C927.88 426.37 931.01 428.58 935.81 430.66C943.776 434.107 949.14 436.303 951.9 437.25C956.366 438.783 962.376 440.393 969.93 442.08C971.823 442.5 974.563 442.93 978.15 443.37C980.603 443.67 983.343 444.083 986.37 444.61C988.21 444.93 993.473 445.363 1002.16 445.91C1007.38 446.237 1012.63 446.143 1017.92 445.63C1029.11 444.537 1037.2 443.537 1042.17 442.63C1053.6 440.55 1065.54 436.81 1077.99 431.41C1081.45 429.91 1084.58 428.36 1087.38 426.76C1091.95 424.14 1094.94 422.33 1096.35 421.33C1106.1 414.39 1115.86 406.27 1123.15 397.13C1129.62 389.03 1135.05 380.8 1139.44 372.44C1141.17 369.167 1143.78 363.273 1147.27 354.76C1147.36 354.561 1147.41 354.349 1147.43 354.13C1147.51 353.357 1147.73 352.863 1148.1 352.65C1148.19 352.597 1148.26 352.517 1148.31 352.421C1148.35 352.324 1148.37 352.216 1148.35 352.11Z" fill="#242021"/>
<path d="M1640.76 285.29C1640.69 285.423 1640.64 285.503 1640.61 285.53C1640.57 285.562 1640.51 285.579 1640.46 285.579C1640.4 285.579 1640.35 285.562 1640.31 285.53C1640.26 285.498 1640.23 285.452 1640.21 285.4C1640.19 285.348 1640.19 285.292 1640.21 285.24C1641.12 282.5 1641.49 279.417 1641.31 275.99C1641.12 272.383 1641.24 269.987 1641.67 268.8C1642.38 266.84 1642.15 265 1642.52 262.63C1642.57 262.316 1642.69 262.019 1642.89 261.77C1643.7 260.723 1643.88 259.363 1643.43 257.69C1643.37 257.466 1643.36 257.234 1643.39 257.01C1645.42 243.263 1648.96 229.583 1654.01 215.97C1659.42 201.37 1666.58 187.797 1675.48 175.25C1685.32 161.37 1697.14 149.213 1710.94 138.78C1721.08 131.113 1732.39 124.703 1744.87 119.55C1757.98 114.13 1770.43 110.33 1782.2 108.15C1793.05 106.143 1801.9 104.95 1808.76 104.57C1813.12 104.33 1815.62 104.19 1816.25 104.15C1824.53 103.59 1832.25 103.98 1842.11 104.08C1848.6 104.14 1854.69 104.5 1860.36 105.16C1875.42 106.9 1889.78 109.787 1903.45 113.82C1906.35 114.673 1911.35 116.493 1918.45 119.28C1944.74 129.6 1967.3 145.77 1985.03 167.72C2004.17 191.41 2016.04 221.07 2021.29 251.24C2022.07 255.693 2022.87 259.967 2023.69 264.06C2023.92 265.193 2023.9 266.54 2023.64 268.1C2023.57 268.533 2023.61 268.977 2023.75 269.39C2024.24 270.777 2024.54 272.407 2024.66 274.28C2025.09 280.64 2025.89 285.64 2025.96 292.17C2026.02 298.483 2026 303.56 2025.9 307.4C2025.9 307.542 2025.84 307.677 2025.73 307.776C2025.63 307.875 2025.49 307.93 2025.35 307.93H1690.32C1689.99 307.929 1689.68 308.055 1689.44 308.28C1689.2 308.505 1689.06 308.813 1689.04 309.14C1688.85 312.31 1689.8 315.07 1689.86 318.27C1689.93 321.77 1689.78 324.03 1690.42 326.54C1691.15 329.43 1691 332.3 1691.76 335.76C1693.46 343.387 1694.45 347.703 1694.73 348.71C1702.25 375.597 1716.12 397.583 1736.34 414.67C1741.29 418.85 1747.82 423.31 1755.95 428.05C1760.8 430.88 1764.4 432.17 1770.48 435.05C1772.13 435.83 1773.88 436.487 1775.73 437.02C1777.78 437.613 1779.56 438.18 1781.06 438.72C1783.45 439.593 1785.98 440.27 1788.64 440.75C1792.07 441.36 1795.21 442.62 1798.85 443.12C1812.14 444.92 1821.45 445.937 1826.76 446.17C1834.2 446.497 1842.11 446.143 1850.5 445.11C1850.89 445.063 1851.35 445.11 1851.88 445.25C1852.04 445.296 1852.2 445.313 1852.36 445.3C1866.71 444.153 1880.65 441.65 1894.16 437.79C1903.69 435.08 1911.96 430.8 1919.92 426.86C1920.01 426.813 1921.54 425.923 1924.53 424.19C1928.05 422.13 1930.88 419.25 1934.31 416.72C1936.18 415.34 1937.94 413.8 1939.59 412.1C1943.98 407.58 1947.92 402.68 1951.4 397.4C1954.09 393.313 1955.95 390.597 1956.96 389.25C1957.14 389.005 1957.28 388.735 1957.38 388.45C1958.47 385.283 1960.11 381.91 1962.32 378.33C1962.41 378.197 1962.48 378.056 1962.53 377.91L1968.27 362.9C1968.35 362.697 1968.48 362.522 1968.66 362.399C1968.84 362.276 1969.05 362.21 1969.27 362.21H2016.07C2016.23 362.209 2016.38 362.266 2016.5 362.371C2016.62 362.477 2016.69 362.622 2016.71 362.78C2016.88 364.333 2016.7 365.8 2016.16 367.18C2015.68 368.413 2013.98 372.697 2011.05 380.03C2009.07 384.963 2007.2 389.163 2005.43 392.63C1984.16 434.383 1951.25 462.65 1906.71 477.43C1896.52 480.81 1884.89 483.53 1871.81 485.59C1869.3 485.983 1864.11 486.593 1856.24 487.42C1853.59 487.7 1851.09 487.86 1848.74 487.9C1843.21 487.98 1837.27 489.02 1832.25 488.81C1827.93 488.63 1824.75 488.99 1820.28 488.51C1816.83 488.143 1813.12 487.93 1809.17 487.87C1807.18 487.843 1805.4 487.71 1803.84 487.47C1801.36 487.1 1799.28 487.27 1796.76 486.62C1795.33 486.253 1793.21 486.013 1790.42 485.9C1789.95 485.88 1789.48 485.816 1789.01 485.71C1788.67 485.637 1787.36 485.39 1785.08 484.97C1767.99 481.81 1753.31 477.377 1741.06 471.67C1734.9 468.8 1726.7 464.78 1720.27 460.61C1714.13 456.63 1707.8 451.957 1701.28 446.59C1701.03 446.383 1697.1 442.53 1689.51 435.03C1688.3 433.83 1686.96 432.273 1685.5 430.36C1684.65 429.246 1683.32 427.703 1681.53 425.73C1676.08 419.743 1670.84 412.16 1665.83 402.98C1658.71 389.947 1653.06 376.087 1648.89 361.4C1646.48 352.927 1644.93 345.963 1644.24 340.51C1643.8 337.043 1643.37 334.673 1642.95 333.4C1642.88 333.174 1642.83 332.943 1642.8 332.71C1642.45 329.31 1642.05 326.14 1641.6 323.2C1640.9 318.69 1641.35 313.39 1640.75 309.28C1640.32 306.28 1640.14 303.857 1640.22 302.01C1640.43 297.39 1640.4 292.32 1640.14 286.8C1640.14 286.736 1640.16 286.673 1640.19 286.62C1640.23 286.568 1640.28 286.528 1640.34 286.507C1640.4 286.485 1640.47 286.484 1640.53 286.503C1640.59 286.521 1640.64 286.559 1640.68 286.61C1640.69 286.616 1640.72 286.697 1640.77 286.85C1640.78 286.869 1640.79 286.887 1640.81 286.899C1640.82 286.911 1640.85 286.916 1640.87 286.914C1640.89 286.911 1640.9 286.901 1640.91 286.885C1640.92 286.869 1640.93 286.849 1640.92 286.83V285.33C1640.92 285.313 1640.91 285.298 1640.9 285.286C1640.88 285.273 1640.87 285.264 1640.85 285.26C1640.83 285.256 1640.81 285.256 1640.8 285.262C1640.78 285.267 1640.77 285.277 1640.76 285.29ZM1975.84 270.06C1975.98 270.06 1976.12 270.03 1976.25 269.971C1976.38 269.913 1976.49 269.828 1976.58 269.721C1976.67 269.615 1976.74 269.49 1976.78 269.356C1976.82 269.221 1976.83 269.079 1976.81 268.94C1975.56 259.96 1972.96 251.14 1970.56 242.44C1970.07 240.653 1969.62 239.347 1969.23 238.52C1967.77 235.45 1966.99 232.01 1965.67 228.81C1958.9 212.417 1949.29 197.863 1936.83 185.15C1930.93 179.137 1922.94 173.033 1912.87 166.84C1907.21 163.353 1901.3 160.447 1895.13 158.12C1886.92 155.013 1880.67 152.927 1876.37 151.86C1872.08 150.793 1866.58 149.557 1859.88 148.15C1859.09 147.983 1856.67 147.813 1852.63 147.64C1852.3 147.627 1851.97 147.586 1851.64 147.52C1848.04 146.827 1845.3 146.58 1843.43 146.78C1839.88 147.16 1836.87 146.54 1833.51 146.68C1828.34 146.88 1823.64 146.923 1819.4 146.81C1818.77 146.79 1818.14 146.85 1817.52 146.99C1814.77 147.603 1812.11 147.907 1809.52 147.9C1809.21 147.9 1808.9 147.93 1808.59 147.99C1799.79 149.803 1794.27 150.987 1792.04 151.54C1778.35 154.96 1765.24 160.267 1752.71 167.46C1750.85 168.527 1745.96 171.893 1738.03 177.56C1737.47 177.965 1736.96 178.442 1736.51 178.98C1735.68 179.987 1734.56 180.843 1733.16 181.55C1732.84 181.709 1732.55 181.918 1732.3 182.17L1722.53 191.94C1722.45 192.019 1722.38 192.11 1722.33 192.21C1722.06 192.777 1720.98 194.24 1719.1 196.6C1708.84 209.513 1701.2 223.947 1696.19 239.9C1693.2 249.387 1691 259.067 1689.59 268.94C1689.57 269.079 1689.58 269.22 1689.62 269.355C1689.66 269.49 1689.73 269.615 1689.82 269.721C1689.92 269.827 1690.03 269.912 1690.16 269.971C1690.29 270.029 1690.43 270.06 1690.57 270.06H1975.84Z" fill="#242021"/>
<path d="M374.43 162.06H355.39C354.617 162.06 353.99 162.686 353.99 163.46V476.16C353.99 476.933 354.617 477.56 355.39 477.56H374.43C375.203 477.56 375.83 476.933 375.83 476.16V163.46C375.83 162.686 375.203 162.06 374.43 162.06Z" fill="#242021"/>
<path d="M580.811 595.1C578.171 591.66 576.751 589.6 572.211 587.61C566.137 584.943 559.354 584.236 551.861 585.49C542.467 587.056 535.444 592.023 530.791 600.39C528.871 603.84 528.171 606.74 526.521 612C526.494 612.093 526.474 612.186 526.461 612.28L525.521 619.77C525.494 619.989 525.498 620.211 525.531 620.43C525.651 621.136 525.711 622.16 525.711 623.5C525.751 636.193 525.737 654.603 525.671 678.73C525.668 678.972 525.571 679.203 525.401 679.374C525.23 679.544 525 679.64 524.761 679.64L515.541 679.65C515.478 679.651 515.416 679.631 515.368 679.591C515.319 679.552 515.286 679.496 515.274 679.434C515.263 679.371 515.273 679.306 515.303 679.248C515.333 679.191 515.382 679.146 515.441 679.12C515.474 679.106 515.557 679.083 515.691 679.05C515.78 679.029 515.862 678.985 515.928 678.922C515.995 678.86 516.044 678.781 516.069 678.694C516.095 678.607 516.096 678.515 516.074 678.428C516.051 678.341 516.005 678.262 515.941 678.2L515.431 677.69C515.31 677.569 515.215 677.425 515.149 677.265C515.084 677.106 515.051 676.934 515.051 676.76V538.04C515.051 537.801 515.146 537.572 515.314 537.403C515.483 537.234 515.712 537.14 515.951 537.14H525.131C525.298 537.14 525.458 537.206 525.576 537.324C525.694 537.442 525.761 537.603 525.761 537.77V591.05C525.762 591.159 525.796 591.266 525.859 591.356C525.921 591.446 526.009 591.515 526.111 591.555C526.213 591.594 526.325 591.603 526.432 591.579C526.538 591.555 526.636 591.499 526.711 591.42C532.001 585.77 538.411 580.29 545.351 577.02C547.271 576.11 549.351 576.13 551.101 575.32C551.491 575.141 551.912 575.039 552.341 575.02C559.901 574.68 565.361 574.756 568.721 575.25C574.361 576.07 583.701 579.86 587.441 585.4C588.134 586.433 589.191 587.756 590.611 589.37C591.137 589.963 592.364 592.53 594.291 597.07C594.423 597.381 594.511 597.711 594.551 598.05C595.424 605.163 595.861 609.563 595.861 611.25C595.907 634.623 595.884 656.98 595.791 678.32C595.791 678.688 595.644 679.042 595.384 679.302C595.123 679.563 594.769 679.71 594.401 679.71H585.911C585.508 679.71 585.121 679.55 584.836 679.264C584.551 678.979 584.391 678.593 584.391 678.19L584.221 606.83C584.221 606.671 584.19 606.512 584.131 606.36C583.484 604.706 583.067 602.816 582.881 600.69C582.741 599 581.281 597.2 581.141 595.94C581.108 595.632 580.994 595.341 580.811 595.1Z" fill="#242021"/>
<path d="M1147.05 679.81H1137.7C1137.52 679.81 1137.36 679.741 1137.23 679.617C1137.11 679.493 1137.04 679.325 1137.04 679.15V610.34C1137.04 609.942 1137 609.543 1136.91 609.15C1135.32 601.67 1134.43 595.84 1129.19 590.8C1126.5 588.214 1122.77 586.467 1118.02 585.56C1106.69 583.407 1096.7 586.024 1088.04 593.41C1087.63 593.756 1087.27 594.152 1086.96 594.59C1084.41 598.157 1082.93 600.357 1082.51 601.19C1080.6 604.937 1079.41 609.817 1078.95 615.83C1078.72 618.77 1078.01 621.91 1077.98 624.75C1077.94 628.777 1077.94 643.194 1077.98 668C1077.99 671.707 1077.87 675.4 1077.62 679.08C1077.61 679.23 1077.54 679.37 1077.44 679.472C1077.33 679.574 1077.19 679.631 1077.04 679.63H1068.29C1068.01 679.63 1067.75 679.521 1067.55 679.326C1067.36 679.131 1067.25 678.866 1067.25 678.59V537.92C1067.25 537.716 1067.33 537.52 1067.48 537.376C1067.62 537.232 1067.82 537.15 1068.02 537.15H1077.25C1077.44 537.15 1077.62 537.225 1077.75 537.358C1077.89 537.491 1077.96 537.672 1077.96 537.86V591.04C1077.96 591.169 1078 591.294 1078.07 591.399C1078.15 591.505 1078.25 591.586 1078.37 591.633C1078.49 591.679 1078.62 591.688 1078.74 591.659C1078.87 591.631 1078.98 591.565 1079.07 591.47C1081.57 588.717 1084.08 586.48 1086.59 584.76C1086.82 584.607 1087.03 584.437 1087.22 584.25C1092.53 579.07 1098.18 576.057 1104.15 575.21C1124.6 572.33 1143.02 579.29 1147.96 601.2C1147.98 601.267 1147.99 601.334 1147.99 601.4L1147.97 678.89C1147.97 679.134 1147.87 679.368 1147.7 679.541C1147.53 679.713 1147.29 679.81 1147.05 679.81Z" fill="#242021"/>
<path d="M1598.1 537.19H1589.66C1588.87 537.19 1588.22 537.835 1588.22 538.63V678.25C1588.22 679.046 1588.87 679.69 1589.66 679.69H1598.1C1598.9 679.69 1599.54 679.046 1599.54 678.25V538.63C1599.54 537.835 1598.9 537.19 1598.1 537.19Z" fill="#242021"/>
<path d="M909.001 537.21C911.588 537.21 913.321 537.223 914.201 537.25C914.402 537.258 914.593 537.342 914.733 537.486C914.873 537.629 914.951 537.821 914.951 538.02V553.44C914.951 553.499 914.939 553.557 914.917 553.611C914.895 553.665 914.862 553.714 914.821 553.755C914.78 553.796 914.732 553.828 914.678 553.849C914.625 553.871 914.568 553.881 914.511 553.88C911.484 553.84 909.651 553.82 909.011 553.82C908.371 553.82 906.538 553.843 903.511 553.89C903.454 553.891 903.397 553.881 903.343 553.859C903.29 553.838 903.241 553.806 903.2 553.765C903.159 553.724 903.127 553.675 903.105 553.621C903.082 553.567 903.071 553.509 903.071 553.45L903.051 538.03C903.048 537.829 903.125 537.635 903.265 537.489C903.405 537.344 903.598 537.258 903.801 537.25C904.688 537.23 906.421 537.217 909.001 537.21Z" fill="#242021"/>
<path d="M1546.6 679.13C1549.19 679.124 1551.78 679.124 1554.39 679.13C1554.46 679.13 1554.52 679.157 1554.57 679.204C1554.61 679.251 1554.64 679.314 1554.64 679.38V679.651C1554.64 679.669 1554.63 679.687 1554.62 679.7C1554.61 679.713 1554.59 679.72 1554.57 679.72H1545.22C1545.1 679.72 1544.98 679.697 1544.87 679.65C1544.76 679.604 1544.66 679.536 1544.57 679.451C1544.48 679.366 1544.42 679.264 1544.37 679.153C1544.32 679.041 1544.3 678.921 1544.3 678.8V537.771C1544.3 537.627 1544.36 537.49 1544.46 537.389C1544.56 537.287 1544.7 537.23 1544.84 537.23H1554.57C1554.63 537.23 1554.7 537.256 1554.74 537.301C1554.79 537.346 1554.81 537.407 1554.81 537.47V537.771C1554.81 537.832 1554.79 537.89 1554.74 537.933C1554.7 537.976 1554.64 538 1554.58 538H1552.81C1552.77 538.001 1552.72 538.014 1552.69 538.038C1552.65 538.061 1552.62 538.094 1552.6 538.133C1552.58 538.172 1552.57 538.216 1552.58 538.26C1552.58 538.303 1552.6 538.345 1552.62 538.38L1552.96 538.85C1552.97 538.857 1552.98 538.862 1552.98 538.865C1552.99 538.869 1553 538.871 1553.01 538.87C1554.32 538.73 1554.98 539.44 1554.98 541C1554.95 585.167 1554.96 627 1554.99 666.5C1554.99 669.487 1554.93 672.75 1554.81 676.29C1554.78 677.25 1554.14 677.92 1554.18 678.57C1554.18 678.637 1554.18 678.704 1554.15 678.766C1554.13 678.829 1554.1 678.887 1554.05 678.936C1554.01 678.986 1553.95 679.026 1553.89 679.054C1553.83 679.082 1553.77 679.098 1553.7 679.1C1552.33 679.167 1549.96 679.177 1546.6 679.13Z" fill="#242021"/>
<path d="M493.46 585.78C493.466 585.787 493.52 585.817 493.62 585.87C493.715 585.922 493.79 586.004 493.834 586.104C493.877 586.203 493.887 586.314 493.86 586.419C493.834 586.524 493.773 586.618 493.688 586.685C493.603 586.752 493.498 586.789 493.39 586.79L475.7 586.85C475.562 586.852 475.426 586.88 475.299 586.933C475.172 586.987 475.057 587.065 474.96 587.162C474.864 587.26 474.787 587.375 474.736 587.502C474.684 587.628 474.658 587.764 474.66 587.9C474.84 608.747 474.906 631.01 474.86 654.69C474.85 660.46 473.21 667.98 478.99 671.72C479.37 671.963 479.804 672.101 480.25 672.12C483.896 672.234 487.063 672.237 489.75 672.13C491.303 672.064 492.556 671.797 493.51 671.33C493.657 671.26 493.82 671.227 493.984 671.236C494.147 671.245 494.306 671.296 494.444 671.383C494.583 671.469 494.698 671.59 494.777 671.733C494.857 671.876 494.899 672.037 494.9 672.2V678.39C494.899 678.842 494.756 679.282 494.49 679.648C494.225 680.014 493.85 680.288 493.42 680.43C488.706 681.97 483.113 682.394 476.64 681.7C473.853 681.4 471.816 680.704 470.53 679.61C469.023 678.33 467.696 677.07 466.55 675.83C466.325 675.592 466.142 675.322 466.01 675.03C464.71 672.25 464.05 669.99 464.03 668.25C463.863 654.15 463.8 627.234 463.84 587.5C463.841 587.413 463.825 587.326 463.792 587.245C463.76 587.164 463.711 587.09 463.65 587.027C463.589 586.965 463.515 586.915 463.435 586.882C463.354 586.848 463.267 586.83 463.18 586.83H449.36C449.337 586.83 449.314 586.826 449.292 586.817C449.271 586.808 449.252 586.796 449.236 586.78C449.22 586.764 449.208 586.745 449.2 586.725C449.192 586.704 449.188 586.682 449.19 586.66L449.6 577.53C449.6 577.509 449.608 577.489 449.623 577.474C449.638 577.459 449.659 577.45 449.68 577.45L463.44 577.28C463.546 577.28 463.648 577.238 463.723 577.163C463.798 577.088 463.84 576.986 463.84 576.88V549.63C463.84 549.503 463.89 549.381 463.98 549.291C464.07 549.201 464.192 549.15 464.32 549.15H474.27C474.429 549.15 474.581 549.214 474.694 549.326C474.807 549.439 474.87 549.591 474.87 549.75V576.78C474.87 576.853 474.884 576.926 474.913 576.993C474.941 577.061 474.982 577.122 475.034 577.173C475.086 577.224 475.148 577.264 475.216 577.291C475.284 577.318 475.357 577.332 475.43 577.33L493.28 577.11C493.361 577.109 493.441 577.124 493.516 577.154C493.591 577.184 493.66 577.229 493.718 577.285C493.775 577.342 493.821 577.41 493.852 577.485C493.884 577.559 493.9 577.639 493.9 577.72V584.06C493.9 584.325 493.807 584.577 493.64 584.77L493.33 585.15C493.292 585.198 493.265 585.254 493.251 585.314C493.236 585.374 493.236 585.436 493.248 585.496C493.26 585.556 493.286 585.612 493.322 585.661C493.359 585.711 493.406 585.751 493.46 585.78Z" fill="#242021"/>
<path d="M1168.01 578.61C1168.02 578.564 1168.01 578.43 1167.99 578.21C1167.98 578.108 1168 578.006 1168.03 577.91C1168.06 577.814 1168.12 577.726 1168.19 577.651C1168.26 577.576 1168.34 577.516 1168.43 577.475C1168.53 577.433 1168.63 577.411 1168.73 577.41L1181.24 577.26C1181.48 577.255 1181.7 577.158 1181.87 576.99C1182.04 576.821 1182.13 576.595 1182.13 576.36V550.04C1182.13 549.806 1182.22 549.581 1182.39 549.414C1182.55 549.248 1182.78 549.153 1183.01 549.15L1192.45 549.03C1192.59 549.03 1192.73 549.087 1192.83 549.188C1192.93 549.29 1192.99 549.427 1192.99 549.57V575.46C1192.99 575.882 1193.15 576.288 1193.45 576.592C1193.74 576.896 1194.15 577.075 1194.57 577.09C1199.87 577.264 1205.33 577.267 1210.96 577.1C1211.41 577.087 1211.7 577.304 1211.84 577.75C1211.92 578.017 1211.82 578.21 1211.54 578.33C1211.41 578.384 1211.31 578.486 1211.25 578.613C1211.2 578.741 1211.2 578.883 1211.25 579.01C1211.74 580.23 1211.83 581.987 1211.52 584.28C1211.48 584.57 1211.34 584.837 1211.11 585.03C1211.01 585.117 1210.92 585.19 1210.85 585.25C1210.81 585.284 1210.78 585.327 1210.77 585.375C1210.75 585.424 1210.75 585.476 1210.76 585.527C1210.77 585.578 1210.79 585.625 1210.83 585.664C1210.86 585.704 1210.91 585.733 1210.96 585.75C1211.48 585.924 1211.66 586.194 1211.51 586.56C1211.49 586.622 1211.44 586.675 1211.39 586.712C1211.33 586.75 1211.26 586.77 1211.19 586.77H1193.48C1193.35 586.77 1193.23 586.796 1193.12 586.845C1193 586.895 1192.9 586.968 1192.81 587.06C1192.72 587.152 1192.66 587.26 1192.61 587.379C1192.57 587.498 1192.55 587.624 1192.56 587.75C1192.62 589.09 1193.04 590.43 1193.04 591.75C1192.95 620.964 1193.03 644.96 1193.27 663.74C1193.32 667.4 1194.78 670.17 1197.64 672.05C1197.93 672.239 1198.26 672.337 1198.61 672.33L1210.45 672.18C1210.75 672.18 1211.05 672.09 1211.3 671.92L1212.28 671.27C1212.33 671.238 1212.39 671.22 1212.44 671.218C1212.5 671.217 1212.56 671.233 1212.61 671.263C1212.66 671.293 1212.7 671.338 1212.73 671.39C1212.75 671.443 1212.77 671.502 1212.76 671.56C1212.7 672.08 1212.71 674.004 1212.8 677.33C1212.87 680.224 1211.36 681.444 1208.25 680.99C1207.92 680.946 1207.58 681.028 1207.3 681.22C1207.29 681.227 1207.25 681.274 1207.17 681.36C1206.94 681.587 1206.65 681.731 1206.34 681.77C1198.54 682.67 1188.82 683.17 1184.69 676.02C1182.95 673.007 1182.07 669.577 1182.04 665.73C1181.93 649.39 1181.96 624.99 1182.13 592.53C1182.14 591.35 1182.09 589.58 1181.99 587.22C1181.98 587.107 1181.94 587 1181.85 586.922C1181.77 586.844 1181.66 586.8 1181.55 586.8H1168.44C1168.26 586.8 1168.09 586.765 1167.93 586.697C1167.77 586.629 1167.62 586.529 1167.5 586.403C1167.37 586.277 1167.28 586.128 1167.21 585.965C1167.15 585.801 1167.12 585.626 1167.12 585.45L1167.26 578.3C1167.26 578.234 1167.29 578.17 1167.34 578.122C1167.38 578.073 1167.44 578.042 1167.51 578.035C1167.58 578.028 1167.64 578.044 1167.7 578.082C1167.75 578.12 1167.79 578.176 1167.81 578.24C1167.82 578.254 1167.83 578.334 1167.85 578.48C1167.85 578.507 1167.86 578.539 1167.87 578.57C1167.89 578.601 1167.91 578.628 1167.93 578.646C1167.95 578.663 1167.97 578.669 1167.99 578.662C1168 578.656 1168.01 578.637 1168.01 578.61Z" fill="#242021"/>
<path d="M683.69 679.86C683.623 679.96 683.516 680.033 683.37 680.08C678.89 681.49 674.75 682.36 669.8 682.36C664.466 682.36 660.626 682.253 658.28 682.04C657.64 681.986 655.313 681.466 651.3 680.48C642.82 678.39 635.34 673.3 630.32 666.26C625.393 659.373 622.303 651.903 621.05 643.85C620.99 643.471 620.973 643.089 621 642.71C621.12 641.27 620.893 639.886 620.32 638.56C620.188 638.256 620.12 637.926 620.12 637.59L620.01 621.5C620.01 621.321 620.033 621.142 620.08 620.97C620.48 619.416 620.736 617.99 620.85 616.69C621.66 607.88 625.74 600.83 630.18 593.59C631.973 590.67 633.883 588.29 635.91 586.45C640.53 582.263 645.723 579.053 651.49 576.82C654.803 575.54 658.85 574.89 663.63 574.87C670.563 574.836 674.7 574.953 676.04 575.22C688.413 577.693 697.783 584.34 704.15 595.16C710.23 605.49 711.27 616.78 711.91 630.2C711.915 630.292 711.902 630.385 711.87 630.472C711.838 630.56 711.789 630.639 711.725 630.707C711.662 630.774 711.585 630.828 711.5 630.865C711.414 630.901 711.323 630.92 711.23 630.92H633.24C632.955 630.919 632.682 631.028 632.475 631.223C632.269 631.419 632.145 631.686 632.13 631.97L631.96 635.3C631.94 635.766 631.946 636.23 631.98 636.69C632.033 637.31 632.516 639.706 633.43 643.88C634.676 649.58 636.88 654.65 640.04 659.09C640.426 659.637 641.763 661.09 644.05 663.45C648.43 667.97 654.66 671.28 660.49 671.87C665.31 672.36 672.08 672.15 676.73 670.93C687.59 668.096 694.666 661.01 697.96 649.67C698.02 649.46 698.147 649.275 698.32 649.144C698.493 649.012 698.703 648.94 698.92 648.94H710.55C710.592 648.939 710.634 648.949 710.672 648.968C710.71 648.987 710.743 649.015 710.769 649.049C710.794 649.083 710.811 649.122 710.818 649.164C710.825 649.206 710.822 649.249 710.81 649.29C708.903 655.496 705.98 661.25 702.04 666.55C697.393 672.803 691.47 677.056 684.27 679.31C684.185 679.335 684.089 679.398 683.988 679.494C683.888 679.589 683.786 679.714 683.69 679.86ZM700.17 621.12C699.603 618.58 699.12 615.6 698.72 612.18C698.393 609.393 697.52 606.447 696.1 603.34C691.48 593.22 683.386 587.106 671.82 585C671.461 584.933 671.095 584.907 670.73 584.92C667.85 585 666.343 585.033 666.21 585.02C660.5 584.51 653.42 586.93 648.96 590.21C646.546 591.983 645.05 593.036 644.47 593.37C644.139 593.548 643.844 593.789 643.6 594.08C640.126 598.16 637.353 602.77 635.28 607.91C633.83 611.53 633.11 616.38 632 619.7C631.908 619.971 631.882 620.26 631.924 620.543C631.967 620.827 632.077 621.096 632.245 621.329C632.413 621.561 632.635 621.751 632.891 621.882C633.148 622.012 633.432 622.08 633.72 622.08H699.39C699.509 622.079 699.627 622.052 699.734 622.001C699.842 621.95 699.937 621.875 700.011 621.783C700.086 621.691 700.139 621.584 700.167 621.469C700.194 621.354 700.195 621.235 700.17 621.12Z" fill="#242021"/>
<path d="M1024.31 663.16C1024.18 663.294 1024.13 663.584 1024.16 664.03C1024.17 664.137 1024.03 664.407 1023.74 664.84C1019.83 670.827 1014.55 675.257 1007.88 678.13C1003.03 680.217 998.376 681.534 993.929 682.08C990.756 682.467 986.159 682.377 980.139 681.81C972.299 681.06 964.309 677.49 958.799 671.64C955.809 668.45 953.539 666.61 951.429 663.29C947.209 656.67 944.552 649.34 943.459 641.3C943.339 640.407 943.022 637.62 942.509 632.94C942.176 629.92 942.146 627.127 942.419 624.56C943.112 617.927 944.012 611.887 945.119 606.44C945.899 602.627 947.599 598.647 950.219 594.5C957.419 583.094 967.596 576.58 980.749 574.96C981.996 574.807 986.956 574.847 995.629 575.08C995.974 575.094 996.314 575.147 996.639 575.24C1004.49 577.5 1012.13 580.39 1017.52 586.21C1019.92 588.797 1022.15 591.65 1024.22 594.77C1024.28 594.862 1024.37 594.932 1024.48 594.968C1024.58 595.005 1024.69 595.008 1024.8 594.975C1024.91 594.943 1025 594.877 1025.07 594.788C1025.13 594.699 1025.17 594.591 1025.17 594.48V578.86C1025.17 578.354 1025.37 577.868 1025.73 577.51C1026.09 577.152 1026.57 576.95 1027.08 576.95H1035.12C1035.58 576.95 1036.02 577.134 1036.35 577.46C1036.68 577.786 1036.86 578.229 1036.86 578.69C1036.72 614.69 1036.98 639.33 1036.72 666.62C1036.68 670.98 1036.18 674.25 1036.1 678.08C1036.07 679.547 1035.84 681.484 1035.43 683.89C1034.85 687.29 1034.51 689.207 1034.42 689.64C1032.43 698.834 1027.98 706.394 1021.09 712.32C1020 713.26 1017.5 714.757 1013.61 716.81C1011.33 718.01 1008.61 719.024 1005.44 719.85C998.386 721.69 991.239 722.29 983.999 721.65C980.072 721.304 977.102 720.967 975.089 720.64C969.199 719.67 961.089 716.63 956.159 711.93C951.069 707.07 946.979 702.83 945.849 696.01C945.669 694.98 945.179 694.37 945.099 693.73C945.088 693.649 945.094 693.566 945.117 693.488C945.141 693.409 945.181 693.336 945.235 693.274C945.289 693.213 945.356 693.163 945.431 693.13C945.506 693.096 945.587 693.08 945.669 693.08H955.399C956.021 693.08 956.627 693.27 957.136 693.624C957.646 693.978 958.034 694.479 958.249 695.06C962.016 705.154 969.652 710.434 981.159 710.9C981.625 710.92 982.09 710.974 982.549 711.06C986.649 711.82 989.226 712.094 990.279 711.88C992.266 711.474 993.886 711.207 995.139 711.08C997.899 710.794 999.536 710.577 1000.05 710.43C1006.56 708.597 1011.5 705.914 1014.87 702.38C1018.72 698.334 1021.53 692.614 1023.32 685.22C1025.18 677.56 1025.7 670.27 1024.87 663.35C1024.86 663.289 1024.84 663.232 1024.8 663.184C1024.76 663.137 1024.71 663.101 1024.65 663.082C1024.59 663.062 1024.53 663.059 1024.47 663.073C1024.41 663.087 1024.35 663.117 1024.31 663.16ZM1024.41 639.43C1025.5 632.384 1025.55 625.62 1024.57 619.14C1023.39 611.294 1020.51 604.1 1015.94 597.56C1013.53 594.11 1010.35 591.54 1007.09 589.43C996.749 582.73 982.709 583.8 971.989 589.02C970.622 589.687 969.172 590.92 967.639 592.72C966.819 593.69 965.709 594.29 964.729 595.46C959.862 601.247 956.766 607.824 955.439 615.19C954.919 618.05 954.432 621.307 953.979 624.96C953.893 625.691 953.893 626.43 953.979 627.16C954.892 634.84 955.526 639.564 955.879 641.33C958.249 653.15 963.779 663.1 974.719 668.99C978.486 671.024 982.166 672.067 985.759 672.12C990.079 672.194 993.146 672.13 994.959 671.93C997.892 671.617 1001.35 670.49 1005.32 668.55C1006.59 667.937 1008.9 666.15 1012.25 663.19C1016.91 659.08 1020.17 652.52 1022.47 647.09C1022.59 646.818 1022.68 646.536 1022.74 646.25C1023.12 644.43 1023.38 643.364 1023.52 643.05C1023.87 642.277 1024.16 641.07 1024.41 639.43Z" fill="#242021"/>
<path d="M1518.06 630.7C1518.06 630.735 1518.06 630.77 1518.04 630.802C1518.03 630.835 1518.01 630.865 1517.99 630.89C1517.96 630.915 1517.93 630.935 1517.9 630.949C1517.87 630.963 1517.84 630.97 1517.8 630.97H1438.78C1438.62 630.969 1438.46 631.007 1438.32 631.083C1438.18 631.158 1438.06 631.267 1437.97 631.4C1437.88 631.534 1437.83 631.688 1437.81 631.848C1437.8 632.008 1437.82 632.171 1437.88 632.32C1438.47 633.713 1438.79 634.937 1438.85 635.99C1439.24 642.77 1440.96 649.367 1444.01 655.78C1444.08 655.947 1444.39 656.387 1444.94 657.1C1445.14 657.352 1445.31 657.631 1445.45 657.93C1447.22 661.76 1449.07 662.64 1451.44 665.17C1451.67 665.402 1451.92 665.604 1452.2 665.77C1456.71 668.45 1460.25 670.153 1462.83 670.88C1466.4 671.893 1470.89 672.247 1476.28 671.94C1490.05 671.153 1499.17 664.33 1503.66 651.47C1504.12 650.143 1504.87 649.4 1505.91 649.24C1509.18 648.74 1512.62 648.65 1516.25 648.97C1516.42 648.985 1516.59 649.039 1516.74 649.128C1516.89 649.217 1517.01 649.338 1517.11 649.483C1517.2 649.629 1517.26 649.793 1517.29 649.966C1517.31 650.138 1517.29 650.314 1517.24 650.48C1516.25 653.487 1514.61 657.023 1512.34 661.09C1509.37 666.41 1505.96 670.42 1502.1 673.12C1500.15 674.48 1498.86 675.403 1498.23 675.89C1497.2 676.69 1495.83 677.493 1494.1 678.3C1489.41 680.5 1485.45 681.71 1482.22 681.93C1472.58 682.61 1461.26 682.81 1453.03 678.62C1452.57 678.387 1451.08 677.57 1448.56 676.17C1444.21 673.76 1441.46 671.13 1438.14 667.37C1436.93 665.99 1435.9 664.54 1435.05 663.02C1434.17 661.427 1433.31 659.863 1432.47 658.33C1429.67 653.217 1427.96 647.83 1427.34 642.17C1426.95 638.65 1426.71 636.61 1426.62 636.05C1425.33 628.26 1426.37 619.95 1428.15 612.44C1430.6 602.08 1435.48 593.357 1442.77 586.27C1449.09 580.13 1456.53 576.423 1465.09 575.15C1467.1 574.857 1471.65 574.82 1478.74 575.04C1486.32 575.273 1493.33 577.863 1499.78 582.81C1507.38 588.643 1512.46 596.113 1515.03 605.22C1516.86 611.72 1517.79 616.42 1517.82 619.32C1517.85 623.887 1517.93 627.68 1518.06 630.7ZM1506.04 621.49C1506.16 619.68 1506.39 618.16 1506.15 616.15C1505.26 608.37 1502.6 601.6 1498.18 595.84C1494.43 590.967 1488.85 587.52 1481.43 585.5C1477.35 584.4 1469.16 584.64 1465.54 585.53C1457.11 587.61 1450.53 592.45 1445.8 600.05C1441.92 606.277 1439.61 612.837 1438.88 619.73C1438.85 620.023 1438.76 620.237 1438.63 620.37C1438.24 620.757 1438.3 621.21 1438.79 621.73C1438.88 621.828 1439 621.906 1439.12 621.959C1439.24 622.012 1439.38 622.04 1439.51 622.04H1505.46C1505.61 622.04 1505.75 621.983 1505.86 621.881C1505.96 621.779 1506.03 621.639 1506.04 621.49Z" fill="#242021"/>
<path d="M1641.93 592.36C1642.04 592.313 1642.67 591.49 1643.84 589.89C1644.34 589.203 1645.04 588.673 1645.95 588.3C1646.29 588.162 1646.58 587.946 1646.82 587.67C1649.13 584.976 1652.29 582.36 1656.3 579.82C1661.37 576.62 1666.45 574.98 1671.55 574.9C1671.68 574.9 1674.1 574.89 1678.83 574.87C1693.51 574.8 1707.69 584.26 1710.66 599.13C1710.84 600.036 1711.09 602.18 1711.41 605.56C1711.56 607.24 1711.64 609.39 1711.64 612.01C1711.63 646.61 1711.74 666.21 1711.4 678.46C1711.39 678.768 1711.26 679.061 1711.04 679.275C1710.82 679.49 1710.52 679.61 1710.21 679.61H1701.4C1701.1 679.61 1700.81 679.489 1700.59 679.276C1700.38 679.062 1700.26 678.772 1700.26 678.47C1700.21 634.923 1700.2 612.97 1700.22 612.61C1700.42 608.93 1700.1 605.73 1699.27 603.01C1697.77 598.08 1695.71 592.59 1691.65 589.76C1686.22 585.973 1679.33 584.373 1670.98 584.96C1664.87 585.393 1659.59 587.286 1655.15 590.64C1648.94 595.333 1644.94 601.4 1643.16 608.84C1643.14 608.906 1642.6 611.373 1641.53 616.24C1641.46 616.562 1641.46 616.897 1641.53 617.22C1641.7 617.96 1641.79 618.553 1641.8 619C1641.87 637.613 1641.87 657.383 1641.78 678.31C1641.78 678.657 1641.64 678.99 1641.4 679.236C1641.15 679.482 1640.82 679.62 1640.47 679.62H1632.32C1631.74 679.62 1631.19 679.39 1630.78 678.981C1630.37 678.572 1630.14 678.018 1630.14 677.44V579.46C1630.14 578.793 1630.4 578.152 1630.87 577.674C1631.33 577.196 1631.96 576.918 1632.63 576.9C1633.47 576.873 1635.52 576.87 1638.77 576.89C1642.32 576.9 1641.81 579.04 1641.84 582.09C1641.89 588.516 1641.84 591.856 1641.69 592.11C1641.67 592.142 1641.67 592.179 1641.67 592.215C1641.68 592.252 1641.69 592.286 1641.72 592.313C1641.75 592.34 1641.78 592.359 1641.82 592.368C1641.86 592.376 1641.89 592.373 1641.93 592.36Z" fill="#242021"/>
<path d="M1764.71 667.64C1764.87 667.64 1765.83 668.133 1767.58 669.12C1772.92 672.12 1780.26 672.65 1787.8 671.75C1798.62 670.456 1806.42 665.22 1811.21 656.04C1812.33 653.9 1812.65 651.46 1814.12 649.52C1814.25 649.34 1814.43 649.194 1814.63 649.093C1814.82 648.992 1815.05 648.94 1815.27 648.94H1825.93C1826.04 648.94 1826.14 648.965 1826.24 649.013C1826.33 649.06 1826.41 649.129 1826.48 649.214C1826.54 649.298 1826.58 649.396 1826.6 649.5C1826.62 649.603 1826.61 649.709 1826.58 649.81C1824.93 655.183 1822.42 660.343 1819.04 665.29C1818.19 666.543 1815.96 668.873 1812.35 672.28C1805.87 678.41 1797.49 681.65 1789.23 682.15C1787.52 682.256 1783.34 682.25 1776.7 682.13C1775.03 682.103 1773.41 681.91 1771.85 681.55C1767.29 680.52 1763.3 679.68 1759.62 677.49C1756.38 675.56 1751.17 672.16 1748.58 668.92C1746.73 666.6 1745.03 664.22 1743.48 661.78C1739.16 654.95 1737.47 647.47 1736.2 639.03C1736.03 637.936 1735.97 633.436 1736.02 625.53C1736.05 620.156 1736.54 615.693 1737.48 612.14C1741.86 595.55 1751.47 582.87 1767.8 576.66C1770.89 575.48 1774.79 574.876 1779.5 574.85C1786.41 574.81 1790.42 574.893 1791.55 575.1C1800.9 576.82 1808.59 581.063 1814.6 587.83C1817.33 590.91 1819.7 594.24 1821.7 597.82C1822.21 598.74 1823.33 601.876 1825.05 607.23C1826.01 610.25 1826.04 613.09 1826.92 616.25C1827.01 616.574 1827.06 616.912 1827.05 617.25C1826.93 621.556 1827.32 625.746 1828.22 629.82C1828.25 629.953 1828.25 630.091 1828.22 630.225C1828.19 630.358 1828.13 630.482 1828.04 630.589C1827.96 630.695 1827.85 630.781 1827.72 630.84C1827.6 630.899 1827.47 630.93 1827.33 630.93H1749.39C1749.18 630.93 1748.98 630.97 1748.79 631.049C1748.61 631.127 1748.43 631.242 1748.29 631.387C1748.15 631.532 1748.03 631.704 1747.95 631.893C1747.88 632.083 1747.84 632.285 1747.84 632.49C1747.87 642.576 1750.53 651.58 1755.83 659.5C1756.05 659.817 1756.21 660.169 1756.32 660.54C1756.77 662.06 1757.49 663.056 1758.49 663.53C1761.06 664.736 1762.84 665.96 1763.84 667.2C1763.94 667.331 1764.07 667.439 1764.22 667.515C1764.37 667.591 1764.54 667.633 1764.71 667.64ZM1749.37 622.09H1813.94C1814.18 622.089 1814.41 622.034 1814.63 621.93C1814.84 621.825 1815.03 621.674 1815.17 621.487C1815.32 621.3 1815.42 621.082 1815.47 620.851C1815.52 620.619 1815.52 620.379 1815.46 620.15C1815.02 618.35 1815.23 615.95 1814.99 614.35C1813.56 604.69 1809.13 594.7 1800.66 589.68C1797.33 587.706 1793.27 586.213 1788.48 585.2C1785.34 584.54 1781.31 585.05 1777.52 585.15C1774.53 585.236 1771.17 586.35 1767.44 588.49C1765.41 589.656 1763.63 590.713 1762.09 591.66C1761.6 591.951 1761.17 592.308 1760.79 592.72C1755.54 598.333 1752 604.233 1750.15 610.42C1750.04 610.78 1749.37 613.6 1748.13 618.88C1747.74 620.553 1748.02 621.596 1748.99 622.01C1749.11 622.062 1749.24 622.09 1749.37 622.09Z" fill="#242021"/>
<path d="M1847.59 648.09H1857.05C1857.22 648.09 1857.39 648.145 1857.53 648.245C1857.66 648.346 1857.77 648.488 1857.82 648.65C1858.38 650.35 1859.97 654.42 1862.6 660.86C1862.82 661.394 1863.54 662.4 1864.77 663.88C1868.8 668.75 1877.06 671.55 1883.04 672.09C1885.61 672.324 1889.85 672.207 1895.75 671.74C1901.03 671.327 1905.68 669.024 1909.69 664.83C1917.61 656.55 1916.64 643.88 1905.48 639.01C1899.61 636.444 1893.79 634.61 1888.01 633.51C1882.65 632.484 1877.77 631.437 1873.36 630.37C1863.7 628.04 1852.37 622.04 1849.77 611.62C1849.26 609.554 1849.03 607.377 1849.1 605.09C1849.2 601.977 1849.17 599.987 1849.02 599.12C1848.93 598.615 1848.98 598.099 1849.14 597.62C1851.94 589.45 1857.05 581.48 1865.1 578.17C1869.17 576.49 1873.11 575.12 1877.44 574.99C1885.73 574.73 1891.1 574.77 1893.53 575.11C1900.7 576.09 1908.95 578.94 1914.09 584.38C1919.62 590.24 1922.99 597.064 1924.18 604.85C1924.2 605.007 1924.19 605.167 1924.15 605.318C1924.1 605.47 1924.03 605.611 1923.93 605.731C1923.82 605.85 1923.7 605.946 1923.55 606.012C1923.41 606.077 1923.26 606.111 1923.1 606.11H1912.8C1912.63 606.111 1912.46 606.047 1912.33 605.931C1912.2 605.814 1912.12 605.654 1912.1 605.48C1911.59 600.467 1909.62 595.87 1906.19 591.69C1904.51 589.64 1899.53 587.19 1896.12 586.37C1892.46 585.484 1890.42 585.03 1890 585.01C1881.11 584.63 1871.8 585.14 1864.85 591.4C1864.6 591.626 1864.37 591.878 1864.18 592.15C1860.78 596.977 1860.06 602.327 1862.03 608.2C1862.26 608.9 1862.63 609.546 1863.12 610.1C1864.86 612.08 1865.95 613.237 1866.39 613.57C1870.36 616.53 1875.22 618.764 1880.97 620.27C1886.44 621.704 1893.01 623.3 1900.69 625.06C1906.13 626.314 1911.71 628.987 1917.44 633.08C1923.75 637.587 1926.89 643.964 1926.88 652.21C1926.86 662.037 1922.93 669.597 1915.1 674.89C1912.03 676.97 1907.33 678.954 1901.02 680.84C1900.45 681.014 1899.62 681.107 1898.53 681.12C1898.19 681.127 1897.86 681.205 1897.56 681.35C1896.37 681.917 1894.6 682.2 1892.25 682.2C1884.76 682.2 1880.26 682.147 1878.75 682.04C1873.27 681.66 1867.84 679.887 1862.47 676.72C1859.46 674.947 1856.94 672.714 1854.91 670.02C1852.46 666.76 1850.67 663.797 1849.53 661.13C1849.42 660.877 1849.36 660.654 1849.33 660.46C1849.26 660.029 1849.18 659.68 1849.09 659.47C1847.61 656.264 1846.82 652.774 1846.71 649C1846.71 648.882 1846.73 648.765 1846.77 648.654C1846.81 648.544 1846.87 648.443 1846.96 648.359C1847.04 648.274 1847.14 648.206 1847.25 648.16C1847.35 648.114 1847.47 648.09 1847.59 648.09Z" fill="#242021"/>
<path d="M2008.43 666.31L2012.16 661.49C2012.52 661.022 2012.78 660.481 2012.93 659.9C2014.09 655.187 2014.33 651.32 2013.66 648.3C2012.11 641.33 2002.73 637.47 1996.12 635.62C1988.43 633.46 1979.81 632.13 1971.15 629.85C1963.96 627.95 1958 624.43 1953.27 619.29C1951.17 617.004 1949.97 614.87 1949.68 612.89C1949.42 611.15 1949.02 609.477 1948.48 607.87C1948.37 607.545 1948.3 607.202 1948.28 606.85C1947.75 599.13 1949.47 592.557 1953.43 587.13C1954 586.357 1956.41 584.044 1960.68 580.19C1961.14 579.779 1961.65 579.432 1962.21 579.16C1967.28 576.694 1972.04 575.307 1976.49 575C1980.72 574.714 1986.31 574.754 1993.27 575.12C1993.89 575.153 1994.51 575.251 1995.11 575.41C2000.77 576.88 2005.17 578.01 2010.36 581.5C2017.65 586.41 2022.01 596.09 2022.99 604.52C2023.01 604.706 2022.99 604.894 2022.94 605.072C2022.88 605.25 2022.79 605.415 2022.66 605.555C2022.54 605.695 2022.39 605.808 2022.22 605.887C2022.05 605.965 2021.87 606.007 2021.68 606.01L2014.22 606.11C2013.56 606.116 2012.93 605.891 2012.42 605.474C2011.92 605.056 2011.58 604.474 2011.46 603.83C2010.47 598.244 2007.84 593.757 2003.58 590.37C1999.85 587.41 1995.08 585.667 1989.26 585.14C1982 584.48 1975.56 585.25 1969.93 587.45C1967.28 588.49 1964.92 590.567 1962.84 593.68C1961.55 595.6 1961.09 598.48 1960.29 600.51C1960.12 600.919 1960.04 601.358 1960.05 601.8C1960.14 606.74 1961.84 610.524 1965.17 613.15C1970.91 617.68 1977.2 619.41 1984.5 621.28C1984.66 621.32 1987.31 621.967 1992.44 623.22C1999.55 624.947 2005.09 626.694 2009.06 628.46C2016.63 631.83 2024.76 638.44 2025.8 647.02C2025.97 648.427 2026.09 651.107 2026.14 655.06C2026.25 663.92 2021.94 668.46 2015.73 673.84C2009.5 679.22 1999.15 681.97 1992.01 682.06C1985.92 682.14 1981.26 682.14 1978.03 682.06C1974.15 681.954 1969.52 680.55 1964.15 677.85C1962.38 676.95 1959.79 674.937 1956.39 671.81C1953.8 669.43 1951.81 666.85 1950.41 664.07C1948.76 660.777 1947.52 657.594 1946.71 654.52C1946.19 652.58 1946.11 650.667 1946.48 648.78C1946.51 648.619 1946.6 648.474 1946.73 648.37C1946.85 648.266 1947.01 648.21 1947.17 648.21L1955.62 648.1C1956.15 648.094 1956.66 648.276 1957.07 648.613C1957.47 648.95 1957.75 649.42 1957.84 649.94C1958.19 651.92 1958.92 654.224 1960.05 656.85C1964.4 666.95 1971.99 671.08 1982.76 671.87C1989.41 672.357 1995.91 671.84 2002.28 670.32C2002.38 670.295 2002.47 670.249 2002.55 670.185C2002.63 670.121 2002.7 670.041 2002.74 669.95C2002.88 669.65 2003.18 669.424 2003.64 669.27C2005.35 668.69 2006.62 668.04 2007.45 667.32C2007.81 667.021 2008.14 666.682 2008.43 666.31Z" fill="#242021"/>
<path d="M858.801 599.72C858.721 599.7 858.541 599.297 858.261 598.51C855.841 591.79 851.114 587.59 844.081 585.91C838.494 584.577 832.924 584.42 827.371 585.44C823.401 586.17 819.181 588.34 815.821 590.37C811.421 593.02 807.001 598.98 805.561 603.04C805.181 604.1 804.401 606.507 803.221 610.26C803.208 610.327 803.198 610.39 803.191 610.45L802.081 621.48C802.048 621.8 802.031 622.12 802.031 622.44L801.851 679.03C801.851 679.218 801.776 679.399 801.643 679.532C801.51 679.665 801.329 679.74 801.141 679.74H791.901C791.718 679.74 791.542 679.668 791.413 679.541C791.284 679.413 791.211 679.24 791.211 679.06V577.7C791.211 577.514 791.284 577.334 791.415 577.202C791.546 577.069 791.724 576.993 791.911 576.99L801.251 576.87C801.423 576.87 801.589 576.939 801.711 577.06C801.832 577.182 801.901 577.348 801.901 577.52V591.6C801.899 591.662 801.916 591.723 801.95 591.774C801.984 591.826 802.033 591.866 802.091 591.889C802.149 591.913 802.213 591.919 802.276 591.907C802.338 591.894 802.395 591.864 802.441 591.82C807.428 586.68 812.681 582.32 818.201 578.74C820.521 577.233 823.714 576.11 827.781 575.37C829.061 575.137 832.558 575.017 838.271 575.01C842.898 574.997 846.348 575.383 848.621 576.17C853.641 577.91 857.241 579.1 861.161 582.58C866.428 587.267 869.778 592.917 871.211 599.53C871.738 601.93 872.001 608.59 872.001 619.51C872.014 646.363 871.968 666.197 871.861 679.01C871.858 679.226 871.772 679.432 871.62 679.583C871.469 679.735 871.264 679.82 871.051 679.82H861.821C861.728 679.82 861.635 679.802 861.549 679.766C861.463 679.73 861.385 679.678 861.319 679.612C861.253 679.546 861.201 679.468 861.165 679.382C861.129 679.296 861.111 679.203 861.111 679.11V610.45C861.111 610.324 861.098 610.2 861.071 610.08L858.941 599.87C858.932 599.833 858.914 599.8 858.89 599.774C858.865 599.747 858.834 599.729 858.801 599.72Z" fill="#242021"/>
<path d="M1315.36 664.36L1330.88 608.33C1330.89 608.283 1330.9 608.236 1330.9 608.19C1330.94 607.196 1330.98 606.646 1331.01 606.54C1332.42 601.96 1333.68 597.556 1334.79 593.33C1335.48 590.69 1336.05 588.75 1336.5 587.51C1336.63 587.157 1336.73 586.792 1336.8 586.42C1337.34 583.453 1338.13 580.636 1339.16 577.97C1339.25 577.738 1339.4 577.534 1339.59 577.378C1339.78 577.222 1340.01 577.119 1340.26 577.08C1343.81 576.54 1347.27 576.48 1350.64 576.9C1351.07 576.952 1351.46 577.132 1351.79 577.415C1352.11 577.699 1352.34 578.073 1352.45 578.49L1374.5 663.08C1374.54 663.237 1374.64 663.375 1374.77 663.471C1374.91 663.567 1375.07 663.614 1375.23 663.604C1375.39 663.595 1375.55 663.53 1375.66 663.419C1375.78 663.309 1375.86 663.161 1375.88 663C1376.15 661.013 1376.79 658.603 1377.81 655.77C1378.98 652.53 1379.72 650.253 1380.03 648.94C1380.82 645.62 1381.48 643.31 1382.01 642.01C1383.46 638.43 1384.21 634.11 1385.6 629.87C1391.55 611.703 1396.63 595.453 1400.86 581.12C1401.21 579.913 1401.66 578.746 1402.21 577.62C1402.31 577.412 1402.46 577.237 1402.66 577.113C1402.85 576.99 1403.08 576.923 1403.31 576.92L1411.92 576.81C1412.16 576.806 1412.4 576.859 1412.61 576.966C1412.83 577.073 1413.02 577.23 1413.16 577.423C1413.3 577.617 1413.4 577.842 1413.44 578.08C1413.47 578.318 1413.45 578.561 1413.38 578.79L1381.03 678.28C1380.88 678.727 1380.6 679.116 1380.22 679.393C1379.84 679.67 1379.39 679.819 1378.92 679.82H1368.71C1368.55 679.82 1368.39 679.767 1368.26 679.667C1368.14 679.568 1368.04 679.428 1368 679.27L1345.92 594.53C1345.88 594.396 1345.8 594.279 1345.69 594.195C1345.58 594.112 1345.44 594.067 1345.3 594.067C1345.17 594.067 1345.03 594.112 1344.92 594.195C1344.81 594.279 1344.73 594.396 1344.69 594.53L1322.36 678.6C1322.26 678.959 1322.05 679.276 1321.76 679.502C1321.47 679.728 1321.11 679.85 1320.74 679.85H1308.97C1308.71 679.85 1308.45 679.763 1308.24 679.602C1308.03 679.441 1307.88 679.215 1307.81 678.96L1305.94 672C1305.93 671.973 1305.92 671.946 1305.91 671.92C1304.64 669.11 1304.02 665.85 1303.28 663.44C1303 662.553 1302.25 660.253 1301.03 656.54C1300.51 654.96 1300.05 653.25 1299.66 651.41C1299.18 649.16 1297.79 646.8 1297.18 644.47C1295.54 638.28 1293.36 632.71 1291.96 626.52C1291.26 623.45 1289.76 619.74 1288.32 614.83C1285.43 604.996 1282.54 595.686 1279.65 586.9C1279.38 586.073 1278.98 584.616 1278.47 582.53C1278.08 580.943 1277.58 579.516 1276.98 578.25C1276.91 578.105 1276.88 577.944 1276.89 577.784C1276.9 577.623 1276.95 577.468 1277.03 577.332C1277.12 577.196 1277.24 577.084 1277.38 577.007C1277.52 576.929 1277.68 576.889 1277.84 576.89H1287.06C1287.37 576.889 1287.67 576.988 1287.92 577.172C1288.17 577.355 1288.35 577.614 1288.44 577.91L1314.25 663.56C1314.27 663.626 1314.3 663.687 1314.34 663.74C1314.63 664.06 1314.95 664.276 1315.3 664.39C1315.31 664.393 1315.31 664.395 1315.32 664.395C1315.33 664.395 1315.33 664.394 1315.34 664.391C1315.34 664.388 1315.35 664.384 1315.35 664.378C1315.36 664.373 1315.36 664.366 1315.36 664.36Z" fill="#242021"/>
<path d="M913.179 577.17H904.759C903.892 577.17 903.189 577.873 903.189 578.74V678.04C903.189 678.907 903.892 679.61 904.759 679.61H913.179C914.047 679.61 914.749 678.907 914.749 678.04V578.74C914.749 577.873 914.047 577.17 913.179 577.17Z" fill="#242021"/>
</svg>
