<svg width="590" height="128" viewBox="0 0 590 128" fill="none" xmlns="http://www.w3.org/2000/svg">
<g clip-path="url(#clip0_115_100)">
<mask id="mask0_115_100" style="mask-type:luminance" maskUnits="userSpaceOnUse" x="0" y="0" width="590" height="128">
<path d="M590 0H0V127.855H590V0Z" fill="white"/>
</mask>
<g mask="url(#mask0_115_100)">
<path d="M47.9983 0.99504C48.0323 0.99504 48.0677 0.99504 48.1045 0.99504C76.5893 0.897344 98.983 26.0817 93.2742 54.5241C91.3202 64.264 86.5204 73.9316 80.9772 82.3547C71.7598 96.3593 60.1467 109.17 47.735 120.155C47.6755 120.206 47.6146 120.231 47.5523 120.231C47.49 120.231 47.4292 120.204 47.3697 120.15C35.0387 109.077 23.5233 96.1809 14.4121 82.1041C8.92837 73.6428 4.20072 63.9369 2.32326 54.1843C-3.17322 25.6995 19.4073 0.684961 47.8879 0.99504C47.9247 0.99504 47.9615 0.99504 47.9983 0.99504ZM63.5065 55.1952C60.1169 62.0594 52.0421 64.0898 45.0377 63.27C37.3622 62.378 32.0526 56.5672 31.0672 49.0403C29.6654 38.332 35.4465 28.7918 46.809 28.1928C53.6987 27.8275 60.393 30.699 63.4853 36.943C63.5284 37.032 63.5958 37.107 63.68 37.1596C63.7641 37.2122 63.8615 37.2402 63.9611 37.2403H82.9778C83.0141 37.2402 83.0498 37.2318 83.0822 37.2157C83.1147 37.1997 83.1431 37.1765 83.1652 37.1478C83.1873 37.1191 83.2026 37.0857 83.2099 37.0503C83.2172 37.0148 83.2163 36.9781 83.2072 36.943C82.89 35.7338 82.4922 34.4539 82.0136 33.1031C80.476 28.7535 78.0364 24.9589 74.6949 21.7194C65.5582 12.863 52.6156 9.83442 40.1742 12.0602C30.2261 13.8357 21.3655 19.5573 16.366 28.2396C8.682 41.5815 10.6147 59.9526 22.1343 70.5845C28.0443 76.0385 35.1152 79.1803 43.3472 80.01C57.2328 81.4118 70.1414 76.6969 77.9401 64.8501C81.9414 58.7717 83.8189 51.041 83.7891 43.752C83.7891 43.7103 83.7721 43.6704 83.7419 43.6409C83.7116 43.6114 83.6705 43.5948 83.6277 43.5948H46.7071C46.6688 43.5948 46.632 43.6101 46.6049 43.6371C46.5779 43.6642 46.5626 43.701 46.5626 43.7393V54.6897C46.5626 54.7528 46.5881 54.8133 46.6335 54.8579C46.679 54.9025 46.7405 54.9276 46.8048 54.9276H63.3409C63.3722 54.9281 63.4029 54.9364 63.4302 54.9519C63.4575 54.9674 63.4804 54.9895 63.4969 55.0161C63.5134 55.0428 63.5229 55.0731 63.5246 55.1044C63.5263 55.1357 63.5201 55.1669 63.5065 55.1952Z" fill="#212121"/>
<path d="M157.428 41.1508V37.6464C157.428 37.4529 157.504 37.2657 157.64 37.124L180.871 13.3371C180.906 13.302 180.947 13.2742 180.993 13.2552C181.039 13.2363 181.089 13.2266 181.138 13.2266H184.592C184.668 13.2266 184.742 13.2571 184.796 13.3112C184.85 13.3654 184.88 13.4389 184.88 13.5155V27.52C184.88 27.6203 184.92 27.7164 184.99 27.7873C185.06 27.8582 185.155 27.8981 185.254 27.8981H197.759C197.816 27.8981 197.87 27.9204 197.909 27.9603C197.949 28.0001 197.972 28.0541 197.972 28.1104V41.2017C197.972 41.2704 197.945 41.3364 197.897 41.3849C197.849 41.4335 197.784 41.4608 197.717 41.4608H185.467C185.401 41.4608 185.339 41.4872 185.292 41.5342C185.246 41.5812 185.22 41.645 185.22 41.7114C185.229 44.9765 185.229 49.9108 185.22 56.5145C185.212 59.4199 185.721 61.2847 188.168 62.6227C189.029 63.0956 190.63 63.3108 192.972 63.2683C192.981 63.2683 194.623 63.2471 197.899 63.2046C197.94 63.204 197.98 63.2116 198.018 63.227C198.055 63.2423 198.09 63.2651 198.118 63.2939C198.147 63.3228 198.17 63.3571 198.186 63.395C198.201 63.4329 198.21 63.4736 198.21 63.5147L198.214 78.3688C198.214 78.4469 198.183 78.5219 198.127 78.5775C198.071 78.6331 197.996 78.665 197.916 78.6661C193.02 78.6944 188.712 78.6774 184.991 78.6151C180.828 78.5443 177.144 77.4498 173.938 75.3317C169.954 72.7024 167.813 68.1064 167.236 63.3108C167.142 62.5406 167.104 60.5442 167.121 57.3216C167.121 56.8572 167.124 51.6963 167.129 41.8389C167.129 41.7386 167.09 41.6425 167.019 41.5716C166.948 41.5007 166.852 41.4608 166.751 41.4608H157.738C157.697 41.4608 157.657 41.4528 157.619 41.4372C157.582 41.4216 157.547 41.3988 157.519 41.37C157.49 41.3412 157.467 41.307 157.451 41.2694C157.436 41.2318 157.428 41.1915 157.428 41.1508Z" fill="#212121"/>
<path d="M154.147 61.4631C154.177 61.463 154.206 61.4699 154.233 61.4833C154.26 61.4967 154.282 61.5163 154.3 61.5404C154.317 61.5645 154.329 61.5924 154.333 61.6218C154.338 61.6512 154.335 61.6813 154.326 61.7095C150.974 71.7 142.64 78.3009 132.314 79.8725C124.987 80.9896 116.972 79.9192 110.698 75.8797C101.281 69.8183 97.2754 59.9722 98.7153 49.0515C99.8877 40.1866 105.605 32.8424 113.739 29.0875C118.097 27.0769 123.087 26.1793 128.708 26.3945C145.457 27.0359 157.686 40.2164 155.086 57.2707C155.077 57.3309 155.046 57.3858 154.999 57.4255C154.953 57.4652 154.893 57.4872 154.831 57.4873H116.653C116.604 57.4877 116.556 57.4993 116.512 57.5211C116.468 57.543 116.43 57.5746 116.4 57.6135C116.37 57.6524 116.349 57.6976 116.339 57.7456C116.33 57.7937 116.331 57.8434 116.343 57.8909C117.816 63.5799 121.513 66.3338 127.434 66.1526C129.15 66.1016 130.794 65.7108 132.365 64.9802C133.729 64.3473 134.727 63.3109 136.124 62.0578C136.329 61.878 136.583 61.7654 136.851 61.735C138.714 61.5396 140.6 61.4433 142.509 61.4462C148.54 61.4575 152.42 61.4631 154.147 61.4631ZM127.018 47.8027C132.429 47.8055 135.819 47.8154 137.186 47.8324C137.228 47.8334 137.269 47.8243 137.306 47.806C137.343 47.7877 137.375 47.7606 137.399 47.7272C137.423 47.6938 137.439 47.655 137.445 47.6141C137.451 47.5732 137.447 47.5315 137.433 47.4926C135.814 42.7607 132.14 40.0762 127.022 40.0719C121.908 40.0677 118.229 42.7522 116.606 47.4798C116.593 47.5184 116.589 47.5597 116.594 47.6003C116.6 47.6408 116.615 47.6794 116.639 47.7127C116.663 47.746 116.694 47.7732 116.731 47.7918C116.767 47.8104 116.808 47.82 116.849 47.8197C118.219 47.8027 121.609 47.797 127.018 47.8027Z" fill="#212121"/>
<path d="M287.014 78.4411C287.014 78.503 286.989 78.5624 286.944 78.6063C286.899 78.6501 286.839 78.6747 286.776 78.6747H269.084C269.023 78.6747 268.965 78.6505 268.922 78.6075C268.879 78.5645 268.855 78.5061 268.855 78.4453C268.863 62.409 268.856 52.1636 268.834 47.7092C268.821 45.0757 267.517 41.8135 264.391 41.393C257.471 40.4712 255.598 45.5557 255.598 51.29C255.609 65.565 255.605 74.5757 255.585 78.3221C255.585 78.369 255.576 78.4154 255.558 78.4587C255.54 78.502 255.514 78.5413 255.481 78.5744C255.448 78.6075 255.408 78.6338 255.365 78.6518C255.322 78.6697 255.275 78.6789 255.228 78.6789H238.136C238.083 78.6789 238.032 78.6583 237.995 78.6217C237.957 78.5851 237.936 78.5354 237.936 78.4835C237.95 60.7566 237.946 50.4093 237.923 47.4416C237.921 46.9093 237.683 45.9663 237.21 44.6127C236.492 42.5611 234.725 41.2995 232.542 41.2528C227.207 41.1381 224.815 45.0842 224.794 49.9095C224.766 57.3571 224.763 66.8563 224.785 78.4071C224.785 78.4803 224.756 78.5505 224.703 78.6023C224.651 78.6541 224.579 78.6832 224.505 78.6832H206.856C206.796 78.6832 206.739 78.6595 206.697 78.6172C206.655 78.575 206.631 78.5178 206.631 78.458V28.1488C206.631 28.0767 206.66 28.0075 206.71 27.9565C206.761 27.9056 206.831 27.8769 206.903 27.8769H218.992C219.1 27.877 219.205 27.9083 219.296 27.967C219.388 28.0257 219.46 28.1094 219.506 28.2082L221.685 32.9741C221.697 33.0019 221.716 33.0262 221.74 33.0451C221.764 33.064 221.792 33.0769 221.822 33.0827C221.852 33.0886 221.883 33.0871 221.912 33.0786C221.942 33.07 221.968 33.0546 221.99 33.0336C222.806 32.2407 223.58 31.5554 224.314 30.9777C229.439 26.9254 235.271 25.6002 241.81 27.0019C246.049 27.9109 249.413 30.097 251.902 33.5603C251.926 33.5939 251.958 33.6217 251.994 33.6415C252.03 33.6613 252.071 33.6726 252.112 33.6746C252.154 33.6767 252.196 33.6694 252.234 33.6533C252.273 33.6371 252.308 33.6126 252.336 33.5815C255.96 29.5774 260.33 27.2596 265.444 26.6281C275.702 25.358 284.134 30.9182 286.487 41.1678C286.849 42.7536 287.028 45.0474 287.022 48.049C287.002 60.6674 286.999 70.7981 287.014 78.4411Z" fill="#212121"/>
<path d="M353.499 78.4988C353.499 78.5405 353.482 78.5805 353.452 78.61C353.421 78.6394 353.38 78.656 353.337 78.656L339.707 78.6602C339.647 78.6602 339.589 78.6433 339.539 78.6117C339.489 78.58 339.45 78.535 339.426 78.4818L337.944 75.2409C337.935 75.2196 337.921 75.2007 337.903 75.1857C337.885 75.1707 337.864 75.1599 337.842 75.1541C337.819 75.1484 337.796 75.1479 337.773 75.1526C337.75 75.1573 337.729 75.1672 337.71 75.1814C333.893 78.0953 329.592 79.7519 324.806 80.1512C307.505 81.5826 293.798 69.5957 294.724 51.7386C295.527 36.2813 307.365 26.1464 322.661 26.448C328.094 26.5584 333.548 28.2065 337.842 31.6047C337.874 31.6308 337.912 31.6491 337.952 31.6581C337.993 31.6672 338.035 31.6668 338.076 31.657C338.116 31.6471 338.154 31.6281 338.186 31.6014C338.219 31.5747 338.245 31.5409 338.263 31.5027L339.809 28.2235C339.854 28.1266 339.926 28.0444 340.016 27.9866C340.107 27.9287 340.211 27.8975 340.318 27.8965L353.308 27.8922C353.355 27.8922 353.4 27.911 353.434 27.9445C353.467 27.9779 353.486 28.0233 353.486 28.0706L353.499 78.4988ZM312.787 52.8952C312.737 54.4105 312.991 55.921 313.535 57.3405C314.078 58.7601 314.901 60.0608 315.956 61.1684C317.011 62.2761 318.277 63.169 319.682 63.7961C321.088 64.4233 322.605 64.7724 324.147 64.8235C325.689 64.8747 327.226 64.6269 328.67 64.0943C330.114 63.5617 331.436 62.7547 332.562 61.7194C333.688 60.684 334.596 59.4407 335.232 58.0603C335.869 56.68 336.222 55.1896 336.272 53.6743C336.323 52.159 336.069 50.6484 335.525 49.2289C334.981 47.8094 334.159 46.5087 333.104 45.401C332.049 44.2934 330.783 43.4005 329.377 42.7733C327.972 42.1462 326.455 41.7971 324.913 41.7459C323.371 41.6948 321.834 41.9426 320.39 42.4752C318.946 43.0078 317.623 43.8148 316.497 44.8501C315.371 45.8854 314.464 47.1287 313.828 48.5091C313.191 49.8895 312.838 51.3799 312.787 52.8952Z" fill="#212121"/>
<path d="M380.331 32.9018C384.715 27.9023 392.216 25.9908 398.711 26.5515C407.164 27.2779 413.332 32.2561 415.753 40.3522C416.521 42.939 416.734 45.8699 416.725 48.7413C416.717 53.51 416.715 63.4056 416.721 78.4282C416.721 78.4711 416.713 78.5137 416.697 78.5533C416.68 78.593 416.657 78.6291 416.627 78.6595C416.597 78.6898 416.561 78.7139 416.522 78.7304C416.483 78.7468 416.441 78.7552 416.398 78.7552H398.804C398.778 78.7552 398.751 78.7499 398.726 78.7394C398.702 78.7289 398.679 78.7136 398.66 78.6943C398.641 78.675 398.626 78.652 398.616 78.6268C398.606 78.6015 398.601 78.5744 398.601 78.5471C398.618 60.8712 398.606 51.1851 398.567 49.4889C398.482 45.8444 397.131 41.8771 392.921 41.5075C388.071 41.0828 384.929 43.1075 383.496 47.5817C383.063 48.9324 382.952 51.532 382.952 53.2056C382.955 67.0501 382.949 75.4378 382.935 78.3687C382.934 78.4513 382.9 78.5302 382.842 78.5882C382.783 78.6463 382.704 78.6788 382.621 78.6788H365.031C364.98 78.6788 364.93 78.6582 364.893 78.6216C364.857 78.5849 364.836 78.5352 364.836 78.4834V28.1274C364.836 28.062 364.861 27.9994 364.907 27.9532C364.952 27.907 365.014 27.881 365.078 27.881H377.124C377.274 27.8809 377.42 27.9237 377.545 28.0043C377.67 28.085 377.769 28.2 377.83 28.3355L379.89 32.838C379.908 32.8783 379.935 32.9134 379.971 32.9399C380.006 32.9665 380.047 32.9837 380.091 32.9901C380.135 32.9964 380.18 32.9917 380.222 32.9762C380.264 32.9608 380.302 32.9352 380.331 32.9018Z" fill="#212121"/>
<path d="M481.2 48.6615C481.203 48.6827 481.201 48.7044 481.195 48.7249C481.189 48.7455 481.179 48.7645 481.165 48.7807C481.15 48.7968 481.133 48.8097 481.113 48.8185C481.094 48.8272 481.073 48.8316 481.051 48.8314H463.772C463.683 48.8315 463.596 48.803 463.525 48.7502C463.453 48.6973 463.402 48.623 463.377 48.5383C462.956 47.1536 461.648 45.4036 460.522 44.554C457.017 41.9007 453.184 41.3654 449.024 42.9484C441.076 45.9727 440.584 58.0616 447.151 62.6321C453.008 66.7056 460.998 64.2292 463.508 57.5306C463.538 57.4494 463.592 57.3794 463.664 57.33C463.735 57.2806 463.82 57.2542 463.908 57.2545H481.157C481.205 57.2546 481.251 57.2648 481.294 57.2844C481.337 57.3041 481.374 57.3327 481.405 57.3684C481.435 57.404 481.457 57.4457 481.47 57.4906C481.482 57.5355 481.484 57.5825 481.476 57.6283C479.186 70.5922 469.12 79.2234 456.054 80.1707C450.302 80.5869 445.052 79.7756 440.303 77.7367C428.92 72.8477 422.905 61.43 424.621 49.1245C426.448 36.0502 436.952 27.7121 449.763 26.5439C453.373 26.2126 456.726 26.3471 459.821 26.9475C471.163 29.1478 479.412 37.1631 481.2 48.6615Z" fill="#212121"/>
<path d="M545.013 78.5209C545.013 78.5625 544.996 78.6025 544.965 78.632C544.935 78.6615 544.894 78.678 544.851 78.678H531.212C531.152 78.678 531.094 78.6611 531.044 78.6295C530.995 78.5978 530.955 78.5527 530.932 78.4996L529.449 75.2587C529.44 75.2374 529.426 75.2185 529.408 75.2035C529.39 75.1884 529.369 75.1777 529.347 75.1719C529.324 75.1662 529.301 75.1657 529.278 75.1704C529.255 75.1751 529.234 75.185 529.216 75.1992C525.398 78.1131 521.096 79.7683 516.307 80.1647C498.998 81.5962 485.286 69.6008 486.217 51.7351C487.024 36.2694 498.87 26.1345 514.175 26.4403C519.607 26.5507 525.066 28.1988 529.36 31.6012C529.392 31.6273 529.43 31.6456 529.47 31.6547C529.511 31.6638 529.553 31.6634 529.594 31.6535C529.634 31.6437 529.672 31.6247 529.705 31.5979C529.737 31.5712 529.763 31.5375 529.781 31.4993L531.327 28.2201C531.373 28.1225 531.445 28.0399 531.536 27.982C531.627 27.9241 531.733 27.8932 531.841 27.893H544.834C544.882 27.893 544.927 27.9118 544.96 27.9452C544.994 27.9787 545.013 28.0241 545.013 28.0714V78.5209ZM504.173 53.0846C504.147 54.6005 504.425 56.1069 504.991 57.5177C505.557 58.9285 506.4 60.2162 507.473 61.3071C508.545 62.3981 509.826 63.271 511.241 63.876C512.657 64.481 514.18 64.8062 515.723 64.8332C517.266 64.8601 518.8 64.5882 520.236 64.033C521.672 63.4778 522.982 62.6501 524.092 61.5972C525.202 60.5444 526.09 59.2869 526.705 57.8967C527.32 56.5065 527.65 55.0108 527.676 53.4949C527.703 51.979 527.425 50.4726 526.859 49.0618C526.293 47.651 525.449 46.3633 524.377 45.2724C523.304 44.1814 522.024 43.3085 520.608 42.7035C519.192 42.0986 517.669 41.7733 516.126 41.7464C514.583 41.7194 513.05 41.9913 511.614 42.5465C510.178 43.1018 508.868 43.9294 507.758 44.9823C506.648 46.0352 505.76 47.2926 505.145 48.6828C504.53 50.073 504.2 51.5687 504.173 53.0846Z" fill="#212121"/>
<path d="M589.999 27.7786V43.7711C587.805 43.7966 585.612 43.7867 583.42 43.7414C581.52 43.7017 579.787 44.067 578.221 44.8373C575.188 46.3324 574.517 49.6201 574.474 52.6699C574.446 54.706 574.44 63.3217 574.457 78.5169C574.457 78.58 574.432 78.6405 574.388 78.6851C574.343 78.7298 574.282 78.7548 574.219 78.7548H556.46C556.418 78.7548 556.378 78.7378 556.349 78.7075C556.319 78.6773 556.303 78.6362 556.303 78.5934V28.1227C556.303 28.0585 556.328 27.9969 556.372 27.9515C556.417 27.9061 556.477 27.8806 556.541 27.8806H568.154C568.257 27.8805 568.358 27.9091 568.446 27.9632C568.534 28.0172 568.605 28.0945 568.651 28.1864L571.195 33.1944C571.21 33.2249 571.232 33.2513 571.259 33.2711C571.287 33.291 571.319 33.3037 571.353 33.3084C571.387 33.313 571.421 33.3092 571.454 33.2975C571.486 33.2858 571.516 33.2665 571.539 33.2411C574.224 30.3272 577.552 28.5659 581.525 27.957C583.692 27.6286 586.516 27.5691 589.999 27.7786Z" fill="#212121"/>
<path d="M508.768 91.4648C508.789 91.4648 508.811 91.4692 508.831 91.4778C508.851 91.4863 508.869 91.4988 508.885 91.5146C508.9 91.5304 508.912 91.5491 508.921 91.5697C508.929 91.5903 508.933 91.6124 508.933 91.6347V101.753C508.933 101.788 508.943 101.822 508.962 101.852C508.981 101.881 509.008 101.905 509.04 101.919C509.072 101.933 509.108 101.937 509.143 101.931C509.177 101.925 509.209 101.909 509.235 101.884C511.466 99.8285 514.141 99.1234 517.259 99.769C520.699 100.483 521.804 103.163 521.991 106.404C522.03 107.081 522.037 111.541 522.012 119.784C522.012 119.831 522.003 119.877 521.985 119.921C521.967 119.964 521.94 120.003 521.907 120.036C521.874 120.069 521.835 120.096 521.792 120.114C521.748 120.132 521.702 120.141 521.655 120.141H518.656C518.558 120.141 518.463 120.102 518.393 120.033C518.323 119.964 518.283 119.87 518.282 119.771C518.268 117.359 518.277 113.952 518.308 109.551C518.325 106.79 518.132 105.077 517.73 104.412C516.807 102.894 515.271 102.312 513.121 102.666C511.289 102.969 509.933 103.98 509.052 105.699C508.974 105.852 508.933 106.023 508.933 106.196V119.805C508.933 119.895 508.897 119.982 508.832 120.046C508.768 120.109 508.68 120.145 508.589 120.145H505.552C505.457 120.145 505.367 120.107 505.3 120.041C505.233 119.974 505.195 119.883 505.195 119.788V91.6432C505.195 91.5959 505.214 91.5506 505.246 91.5171C505.279 91.4836 505.323 91.4648 505.369 91.4648H508.768Z" fill="#212121"/>
<path d="M187.925 106.541C187.925 106.71 187.925 106.807 187.925 106.829C187.67 110.504 188.613 115.193 192.24 116.735C194.409 117.652 196.532 117.682 198.607 116.824C200.598 116 201.754 114.234 202.074 111.527C202.077 111.489 202.094 111.453 202.123 111.427C202.151 111.401 202.188 111.387 202.226 111.387H206.003C206.013 111.387 206.024 111.389 206.034 111.394C206.043 111.398 206.052 111.405 206.059 111.414C206.066 111.422 206.071 111.432 206.073 111.443C206.076 111.454 206.077 111.465 206.075 111.476C205.35 116.367 202.728 119.289 198.208 120.243C197.543 120.385 196.462 120.449 194.967 120.435C189.772 120.392 185.843 117.206 184.543 112.245C184.13 110.668 183.926 108.763 183.932 106.532C183.937 104.303 184.15 102.402 184.569 100.827C185.89 95.8704 189.832 92.7017 195.027 92.6804C196.522 92.6719 197.602 92.7399 198.268 92.8843C202.781 93.8584 205.391 96.7922 206.096 101.685C206.098 101.697 206.097 101.708 206.095 101.719C206.092 101.73 206.087 101.74 206.08 101.748C206.073 101.757 206.064 101.764 206.055 101.768C206.045 101.773 206.034 101.775 206.024 101.775L202.248 101.758C202.209 101.758 202.172 101.743 202.144 101.717C202.115 101.691 202.098 101.656 202.095 101.617C201.786 98.9103 200.638 97.1405 198.65 96.3079C196.58 95.4386 194.457 95.4584 192.283 96.3674C188.651 97.8923 187.687 102.577 187.925 106.256C187.925 106.279 187.925 106.373 187.925 106.541Z" fill="#212121"/>
<path d="M256.754 92.6722L255.989 92.6855C254.988 92.703 254.19 93.5291 254.207 94.5306L254.213 94.8704C254.231 95.872 255.057 96.6697 256.058 96.6522L256.823 96.6389C257.825 96.6214 258.622 95.7953 258.605 94.7938L258.599 94.454C258.581 93.4524 257.755 92.6547 256.754 92.6722Z" fill="#212121"/>
<path d="M468.185 99.8792H471.226C471.361 99.8792 471.489 99.8255 471.584 99.7299C471.679 99.6343 471.732 99.5046 471.732 99.3694V95.3172C471.732 95.2904 471.737 95.2639 471.747 95.2391C471.758 95.2144 471.773 95.1919 471.792 95.173C471.811 95.1541 471.833 95.1391 471.858 95.1288C471.883 95.1186 471.909 95.1133 471.936 95.1133H475.296C475.344 95.1133 475.391 95.1325 475.425 95.1668C475.459 95.201 475.478 95.2475 475.478 95.2959V99.5818C475.478 99.6607 475.51 99.7363 475.565 99.7921C475.621 99.8478 475.697 99.8792 475.776 99.8792H478.983C479.082 99.8792 479.177 99.919 479.247 99.9899C479.317 100.061 479.357 100.157 479.357 100.257V102.271C479.357 102.378 479.314 102.48 479.238 102.556C479.163 102.632 479.06 102.674 478.953 102.674H475.805C475.761 102.674 475.718 102.683 475.677 102.7C475.636 102.717 475.599 102.741 475.568 102.772C475.537 102.804 475.512 102.841 475.495 102.881C475.479 102.922 475.47 102.966 475.47 103.01C475.478 110.316 475.478 114.235 475.47 114.767C475.419 117.129 476.974 117.664 479.034 117.167C479.089 117.154 479.146 117.154 479.201 117.166C479.256 117.178 479.308 117.203 479.352 117.237C479.396 117.272 479.432 117.316 479.456 117.367C479.48 117.417 479.493 117.472 479.492 117.528V119.631C479.492 119.761 479.448 119.888 479.367 119.99C479.286 120.093 479.173 120.165 479.046 120.196C476.485 120.786 473.473 120.633 472.182 117.94C471.871 117.295 471.716 116.179 471.719 114.593C471.731 109.858 471.738 105.99 471.74 102.988C471.74 102.948 471.733 102.907 471.717 102.87C471.702 102.832 471.679 102.798 471.651 102.769C471.622 102.74 471.589 102.718 471.552 102.702C471.515 102.686 471.475 102.678 471.435 102.678H468.228C468.127 102.678 468.031 102.639 467.96 102.568C467.889 102.497 467.85 102.401 467.85 102.3V100.21C467.85 100.123 467.885 100.038 467.948 99.9762C468.011 99.9141 468.096 99.8792 468.185 99.8792Z" fill="#212121"/>
<path d="M222.314 107.835C222.379 107.837 222.442 107.816 222.492 107.775C222.542 107.735 222.575 107.677 222.585 107.614C222.656 107.184 222.632 106.521 222.513 105.626C222.165 103.018 219.769 102.271 217.386 102.517C215.376 102.727 214.101 103.728 213.563 105.52C213.552 105.556 213.531 105.587 213.502 105.609C213.473 105.632 213.438 105.644 213.402 105.643H209.961C209.946 105.643 209.931 105.64 209.918 105.634C209.904 105.628 209.891 105.619 209.881 105.608C209.871 105.597 209.864 105.583 209.859 105.569C209.855 105.555 209.853 105.539 209.855 105.524C210.051 103.95 210.733 102.676 211.903 101.701C215.641 98.5965 223.889 98.4054 225.962 103.808C226.223 104.485 226.346 105.745 226.332 107.589C226.306 111.494 226.312 114.418 226.349 116.36C226.366 117.249 226.608 118.368 227.075 119.716C227.092 119.765 227.097 119.817 227.09 119.868C227.083 119.919 227.064 119.968 227.035 120.01C227.005 120.052 226.966 120.086 226.921 120.11C226.875 120.133 226.825 120.145 226.774 120.145H223.494C223.341 120.145 223.194 120.084 223.086 119.976C222.978 119.867 222.917 119.72 222.917 119.567V118.616C222.917 118.554 222.9 118.494 222.867 118.442C222.834 118.39 222.786 118.349 222.73 118.323C222.674 118.297 222.611 118.288 222.549 118.296C222.488 118.304 222.429 118.33 222.382 118.369C220.054 120.312 217.366 120.912 214.32 120.17C210.717 119.291 208.568 115.965 209.838 112.329C211.537 107.466 218.27 107.72 222.314 107.835ZM222.263 110.345C220.229 110.198 218.229 110.336 216.261 110.757C211.801 111.709 212.544 117.159 216.864 117.316C218.721 117.384 220.354 116.769 221.761 115.472C222.28 114.994 222.547 114.461 222.564 113.875C222.61 112.428 222.608 111.351 222.56 110.643C222.555 110.566 222.522 110.493 222.467 110.438C222.413 110.383 222.34 110.35 222.263 110.345Z" fill="#212121"/>
<path d="M235.491 101.73C235.72 101.458 236.073 100.953 236.404 100.723C237.911 99.6531 239.598 99.3203 241.467 99.7253C241.563 99.7474 241.648 99.8006 241.709 99.8762C241.77 99.9518 241.803 100.045 241.803 100.142V102.788C241.803 102.835 241.793 102.881 241.773 102.923C241.753 102.966 241.725 103.004 241.689 103.035C241.653 103.065 241.611 103.088 241.565 103.101C241.52 103.114 241.472 103.117 241.425 103.111C238.762 102.711 235.202 103.582 235.215 106.674C235.226 110.922 235.225 115.287 235.211 119.77C235.211 119.869 235.171 119.964 235.101 120.034C235.031 120.104 234.936 120.144 234.837 120.144H231.834C231.738 120.144 231.646 120.106 231.578 120.038C231.511 119.97 231.473 119.878 231.473 119.783V100.256C231.473 100.15 231.515 100.049 231.591 99.9739C231.667 99.899 231.769 99.857 231.876 99.857H234.786C234.877 99.857 234.965 99.8928 235.029 99.9565C235.094 100.02 235.13 100.107 235.13 100.197V101.599C235.13 101.641 235.142 101.682 235.166 101.716C235.19 101.751 235.224 101.777 235.264 101.792C235.303 101.806 235.347 101.808 235.387 101.797C235.428 101.786 235.464 101.763 235.491 101.73Z" fill="#212121"/>
<path d="M267.126 101.946C267.126 101.978 267.135 102.01 267.153 102.036C267.171 102.063 267.196 102.084 267.226 102.096C267.255 102.109 267.288 102.112 267.32 102.105C267.351 102.099 267.38 102.084 267.402 102.061C269.274 100.18 271.581 99.355 274.322 99.5843C279.691 100.035 280.417 103.79 280.277 108.657C280.257 109.382 280.249 113.086 280.252 119.769C280.252 119.819 280.242 119.868 280.223 119.914C280.204 119.96 280.176 120.001 280.141 120.037C280.106 120.072 280.064 120.099 280.018 120.118C279.972 120.137 279.923 120.147 279.874 120.147H276.871C276.775 120.147 276.683 120.109 276.615 120.042C276.547 119.974 276.509 119.882 276.509 119.786C276.501 114.123 276.507 110.168 276.526 107.922C276.552 104.851 276.055 102.711 272.708 102.579C270.529 102.49 267.271 103.998 267.279 106.584C267.288 108.997 267.289 113.393 267.284 119.773C267.284 119.869 267.246 119.961 267.178 120.029C267.11 120.096 267.018 120.135 266.923 120.135H263.898C263.802 120.135 263.711 120.096 263.643 120.029C263.575 119.961 263.537 119.869 263.537 119.773V100.251C263.537 100.15 263.577 100.053 263.649 99.9809C263.721 99.9092 263.818 99.8689 263.919 99.8689H266.68C266.799 99.8689 266.912 99.9155 266.996 99.9983C267.079 100.081 267.126 100.194 267.126 100.311V101.946Z" fill="#212121"/>
<path d="M331.306 111.638C331.306 112.783 331.08 113.917 330.642 114.975C330.204 116.033 329.561 116.994 328.751 117.804C327.942 118.614 326.98 119.256 325.922 119.694C324.864 120.132 323.73 120.358 322.585 120.358H320.988C319.843 120.358 318.709 120.132 317.651 119.694C316.593 119.256 315.631 118.614 314.822 117.804C314.012 116.994 313.37 116.033 312.931 114.975C312.493 113.917 312.268 112.783 312.268 111.638V108.392C312.268 106.08 313.186 103.861 314.822 102.226C316.457 100.591 318.675 99.6719 320.988 99.6719H322.585C324.898 99.6719 327.116 100.591 328.751 102.226C330.387 103.861 331.306 106.08 331.306 108.392V111.638ZM321.73 102.395C320.937 102.399 320.153 102.6 319.423 102.987C318.693 103.373 318.03 103.938 317.473 104.648C316.917 105.358 316.476 106.2 316.178 107.125C315.879 108.051 315.728 109.042 315.734 110.042C315.739 111.042 315.9 112.032 316.208 112.954C316.517 113.877 316.966 114.714 317.53 115.418C318.094 116.123 318.762 116.68 319.497 117.059C320.231 117.438 321.017 117.631 321.809 117.627C322.602 117.623 323.386 117.421 324.116 117.035C324.847 116.648 325.509 116.084 326.066 115.374C326.623 114.664 327.063 113.822 327.361 112.896C327.66 111.97 327.811 110.979 327.805 109.979C327.8 108.979 327.639 107.989 327.331 107.067C327.023 106.145 326.574 105.307 326.009 104.603C325.445 103.899 324.777 103.341 324.043 102.962C323.308 102.583 322.522 102.391 321.73 102.395Z" fill="#212121"/>
<path d="M360.843 101.601C360.842 101.643 360.855 101.684 360.879 101.719C360.903 101.753 360.937 101.78 360.977 101.794C361.016 101.809 361.059 101.81 361.1 101.799C361.141 101.788 361.177 101.765 361.204 101.732C361.433 101.461 361.786 100.955 362.117 100.726C363.624 99.6554 365.311 99.3212 367.18 99.7233C367.276 99.7454 367.361 99.7986 367.422 99.8742C367.483 99.9499 367.516 100.043 367.516 100.14V102.786C367.516 102.833 367.506 102.879 367.486 102.922C367.466 102.964 367.437 103.002 367.402 103.033C367.366 103.063 367.324 103.086 367.278 103.099C367.233 103.112 367.185 103.115 367.138 103.109C364.475 102.709 360.919 103.584 360.932 106.673C360.946 110.92 360.946 115.284 360.932 119.764C360.932 119.863 360.893 119.958 360.823 120.028C360.752 120.098 360.657 120.138 360.558 120.138L357.559 120.142C357.512 120.142 357.465 120.132 357.421 120.114C357.377 120.096 357.338 120.07 357.304 120.036C357.271 120.003 357.244 119.963 357.226 119.919C357.208 119.875 357.198 119.828 357.198 119.781L357.186 100.259C357.186 100.153 357.228 100.051 357.304 99.9762C357.379 99.9013 357.482 99.8593 357.589 99.8593H360.499C360.59 99.8593 360.677 99.8951 360.742 99.9588C360.807 100.023 360.843 100.109 360.843 100.199V101.601Z" fill="#212121"/>
<path d="M382.795 114.155C383.016 115.896 384.219 116.971 386.405 117.379C388.334 117.74 391.277 117.387 392.072 115.437C392.448 114.514 392.199 113.632 391.324 112.791C390.792 112.281 389.822 111.871 388.415 111.559C385.857 110.99 382.425 110.442 380.798 108.442C378.152 105.196 380.395 101.56 383.861 100.227C388.347 98.4975 394.591 99.7591 395.767 105.226C395.787 105.318 395.786 105.414 395.764 105.506C395.741 105.597 395.699 105.683 395.64 105.756C395.58 105.83 395.505 105.889 395.42 105.929C395.335 105.97 395.241 105.991 395.147 105.991H392.611C392.44 105.991 392.274 105.934 392.139 105.828C392.004 105.723 391.909 105.575 391.868 105.409C391.415 103.591 390.027 102.624 387.705 102.508C386.032 102.423 383.904 103.102 383.542 104.869C383.232 106.381 384.379 107.307 385.743 107.732C388.478 108.582 395.075 109.176 395.844 113.301C396.209 115.26 395.706 116.904 394.336 118.232C392.361 120.144 389.659 120.547 386.873 120.441C383.05 120.301 379.482 118.224 378.942 114.184C378.936 114.138 378.94 114.09 378.953 114.045C378.967 114 378.99 113.959 379.02 113.923C379.051 113.888 379.088 113.86 379.131 113.84C379.173 113.821 379.219 113.811 379.265 113.811H382.408C382.504 113.811 382.596 113.846 382.667 113.909C382.738 113.973 382.783 114.06 382.795 114.155Z" fill="#212121"/>
<path d="M400.405 120.16C400.325 120.16 400.247 120.128 400.191 120.071C400.134 120.014 400.104 119.936 400.104 119.855V100.218C400.104 100.123 400.141 100.032 400.208 99.9653C400.275 99.8984 400.366 99.8608 400.46 99.8608H403.4C403.492 99.8608 403.581 99.8971 403.646 99.9616C403.711 100.026 403.747 100.114 403.747 100.205V101.513C403.747 101.556 403.76 101.598 403.783 101.635C403.806 101.671 403.839 101.7 403.879 101.717C403.918 101.735 403.961 101.74 404.004 101.734C404.046 101.727 404.086 101.708 404.118 101.679C405.924 100.082 408.137 99.3738 410.757 99.555C412.929 99.7051 414.673 100.645 415.99 102.376C416.01 102.401 416.035 102.423 416.064 102.437C416.093 102.452 416.125 102.46 416.158 102.461C416.191 102.462 416.224 102.455 416.254 102.442C416.285 102.429 416.312 102.409 416.334 102.384C418.155 100.294 420.588 99.3539 423.635 99.5635C426.35 99.7504 428.236 100.903 429.289 103.021C429.799 104.046 430.018 105.86 429.948 108.462C429.931 109.148 429.928 112.921 429.939 119.782C429.939 119.879 429.901 119.972 429.832 120.041C429.764 120.109 429.671 120.148 429.574 120.148H426.571C426.472 120.148 426.376 120.108 426.306 120.038C426.236 119.968 426.197 119.873 426.197 119.774C426.197 112.989 426.199 108.884 426.204 107.46C426.213 105.408 425.917 103.416 423.614 102.809C420.981 102.116 418.47 102.856 417.251 105.328C417.013 105.809 416.906 106.619 416.928 107.757C416.951 108.811 416.955 112.822 416.941 119.791C416.941 119.89 416.901 119.985 416.831 120.055C416.76 120.125 416.663 120.165 416.562 120.165H413.573C413.475 120.165 413.381 120.126 413.312 120.057C413.242 119.987 413.203 119.893 413.203 119.795C413.2 118.818 413.198 114.603 413.195 107.15C413.195 105.455 412.702 103.701 410.982 103.013C408.501 102.014 405.086 102.656 403.922 105.323C403.88 105.424 403.858 105.531 403.858 105.638V119.804C403.858 119.898 403.821 119.989 403.755 120.056C403.689 120.123 403.599 120.16 403.506 120.16H400.405Z" fill="#212121"/>
<path d="M447.075 107.837C447.14 107.839 447.203 107.817 447.253 107.777C447.303 107.736 447.336 107.679 447.347 107.616C447.417 107.185 447.393 106.523 447.274 105.628C446.926 103.024 444.53 102.276 442.152 102.523C440.141 102.732 438.867 103.733 438.329 105.526C438.318 105.562 438.296 105.593 438.267 105.615C438.238 105.637 438.203 105.649 438.167 105.649H434.731C434.716 105.649 434.701 105.646 434.687 105.64C434.673 105.634 434.661 105.625 434.651 105.614C434.641 105.602 434.633 105.589 434.629 105.575C434.624 105.56 434.623 105.545 434.625 105.53C434.817 103.958 435.498 102.686 436.668 101.711C440.402 98.6064 448.651 98.411 450.723 103.81C450.984 104.487 451.107 105.747 451.093 107.59C451.067 111.492 451.075 114.415 451.114 116.357C451.131 117.247 451.373 118.365 451.841 119.713C451.858 119.762 451.863 119.814 451.856 119.865C451.849 119.917 451.83 119.965 451.8 120.007C451.77 120.049 451.731 120.084 451.686 120.107C451.64 120.13 451.59 120.142 451.539 120.142H448.26C448.107 120.142 447.96 120.081 447.851 119.973C447.743 119.864 447.682 119.718 447.682 119.564V118.613C447.682 118.551 447.665 118.491 447.632 118.439C447.599 118.387 447.551 118.346 447.495 118.32C447.439 118.294 447.376 118.285 447.315 118.293C447.253 118.301 447.195 118.327 447.147 118.367C444.822 120.309 442.136 120.911 439.089 120.172C435.487 119.293 433.338 115.967 434.608 112.335C436.303 107.471 443.035 107.726 447.075 107.837ZM447.019 110.33C444.989 110.194 442.993 110.343 441.03 110.776C436.583 111.753 437.356 117.19 441.672 117.322C443.526 117.378 445.152 116.755 446.548 115.453C447.063 114.971 447.328 114.437 447.342 113.851C447.379 112.407 447.371 111.331 447.317 110.623C447.311 110.547 447.277 110.475 447.223 110.421C447.168 110.367 447.096 110.335 447.019 110.33Z" fill="#212121"/>
<path d="M459.95 101.605C459.95 101.647 459.963 101.688 459.987 101.723C460.011 101.758 460.045 101.784 460.084 101.798C460.124 101.813 460.167 101.815 460.208 101.804C460.248 101.793 460.284 101.769 460.311 101.737C460.541 101.465 460.893 100.955 461.224 100.726C462.728 99.6554 464.415 99.3212 466.283 99.7233C466.379 99.7454 466.464 99.7986 466.525 99.8742C466.586 99.9498 466.619 100.043 466.619 100.14L466.623 102.786C466.623 102.833 466.613 102.879 466.593 102.922C466.574 102.964 466.545 103.002 466.509 103.033C466.473 103.063 466.431 103.086 466.386 103.099C466.34 103.112 466.292 103.115 466.245 103.109C463.582 102.714 460.022 103.589 460.039 106.681C460.056 110.926 460.061 115.29 460.052 119.772C460.052 119.871 460.013 119.966 459.943 120.037C459.873 120.107 459.777 120.146 459.678 120.146L456.675 120.15C456.58 120.15 456.488 120.112 456.42 120.045C456.352 119.977 456.314 119.885 456.314 119.789L456.293 100.267C456.293 100.161 456.336 100.06 456.411 99.9847C456.487 99.9098 456.59 99.8678 456.697 99.8677L459.602 99.8635C459.647 99.8629 459.693 99.8713 459.735 99.8882C459.777 99.905 459.816 99.9299 459.848 99.9615C459.88 99.9931 459.906 100.031 459.924 100.072C459.941 100.114 459.95 100.158 459.95 100.203V101.605Z" fill="#212121"/>
<path d="M486.974 118.428C486.955 118.42 486.934 118.417 486.914 118.418C486.894 118.42 486.874 118.427 486.857 118.438C486.84 118.449 486.827 118.464 486.817 118.481C486.808 118.499 486.803 118.518 486.804 118.538V127.36C486.804 127.452 486.768 127.539 486.703 127.604C486.638 127.668 486.551 127.705 486.46 127.705H483.435C483.333 127.705 483.235 127.664 483.162 127.591C483.09 127.519 483.049 127.421 483.049 127.318V100.256C483.049 100.153 483.09 100.053 483.163 99.9797C483.237 99.9064 483.336 99.8653 483.44 99.8653H486.213C486.309 99.8653 486.401 99.9029 486.469 99.9698C486.536 100.037 486.574 100.128 486.574 100.222V101.577C486.574 101.625 486.588 101.672 486.614 101.712C486.641 101.752 486.678 101.783 486.722 101.802C486.766 101.821 486.815 101.826 486.862 101.817C486.909 101.808 486.952 101.785 486.986 101.751C488.402 100.372 490.121 99.6515 492.143 99.5892C496.64 99.4448 499.442 101.481 500.549 105.697C501.998 111.224 500.881 119.999 493.46 120.454C491.88 120.55 490.345 120.287 488.855 119.664C488.104 119.349 487.513 118.653 486.974 118.428ZM486.808 110.043C486.808 112.94 486.812 114.414 486.821 114.465C486.838 114.569 486.868 114.672 486.91 114.77C487.159 115.348 487.529 115.829 488.019 116.215C490.678 118.304 494.619 117.943 496.293 114.813C496.99 113.507 497.338 111.916 497.338 110.039C497.338 108.164 496.99 106.572 496.293 105.264C494.619 102.138 490.678 101.777 488.019 103.867C487.529 104.252 487.159 104.733 486.91 105.311C486.868 105.41 486.838 105.512 486.821 105.617C486.812 105.668 486.808 107.143 486.808 110.043Z" fill="#212121"/>
<path d="M535.545 99.547C540.905 99.5215 544.303 102.915 545.17 107.996C545.218 108.279 545.245 108.937 545.251 109.971C545.253 111.004 545.232 111.663 545.187 111.946C544.363 117.035 540.99 120.458 535.634 120.48C530.278 120.501 526.875 117.111 526.009 112.027C525.961 111.744 525.934 111.085 525.928 110.052C525.925 109.021 525.946 108.362 525.992 108.076C526.816 102.988 530.188 99.5682 535.545 99.547ZM535.552 102.406C534.758 102.409 533.972 102.608 533.239 102.993C532.507 103.378 531.842 103.941 531.283 104.649C530.724 105.357 530.281 106.198 529.98 107.122C529.68 108.046 529.527 109.035 529.53 110.034C529.537 112.052 530.181 113.985 531.32 115.408C532.46 116.83 534.001 117.626 535.605 117.621C536.4 117.618 537.185 117.419 537.918 117.034C538.65 116.649 539.315 116.086 539.874 115.378C540.434 114.669 540.876 113.829 541.177 112.905C541.478 111.981 541.631 110.991 541.627 109.992C541.62 107.975 540.976 106.042 539.837 104.619C538.698 103.196 537.156 102.4 535.552 102.406Z" fill="#212121"/>
<path d="M552.888 101.949C552.888 101.981 552.898 102.013 552.915 102.04C552.933 102.066 552.958 102.087 552.988 102.1C553.018 102.112 553.05 102.115 553.082 102.109C553.113 102.102 553.142 102.087 553.165 102.064C555.036 100.184 557.344 99.3569 560.088 99.5834C565.461 100.034 566.188 103.793 566.048 108.661C566.028 109.388 566.021 113.095 566.026 119.781C566.026 119.881 565.987 119.977 565.916 120.048C565.845 120.119 565.749 120.159 565.648 120.159L562.641 120.163C562.545 120.163 562.453 120.125 562.386 120.058C562.318 119.99 562.28 119.898 562.28 119.802C562.272 114.133 562.277 110.176 562.297 107.93C562.318 104.855 561.821 102.714 558.474 102.582C556.291 102.493 553.033 104.005 553.041 106.592C553.05 109.008 553.053 113.407 553.05 119.79C553.05 119.885 553.012 119.977 552.944 120.045C552.876 120.113 552.785 120.151 552.689 120.151H549.66C549.564 120.151 549.473 120.113 549.405 120.045C549.337 119.977 549.299 119.885 549.299 119.79L549.295 100.255C549.295 100.153 549.335 100.056 549.407 99.9842C549.479 99.9126 549.576 99.8723 549.677 99.8723H552.438C552.556 99.8723 552.67 99.9188 552.754 100.002C552.837 100.085 552.884 100.197 552.884 100.314L552.888 101.949Z" fill="#212121"/>
<path d="M573.855 111.389C574.25 114.69 576.161 117.268 579.631 117.502C581.905 117.652 583.81 116.848 585.345 115.089C585.421 115.001 585.528 114.944 585.644 114.932C585.761 114.919 585.878 114.951 585.973 115.021L587.643 116.253C587.686 116.286 587.723 116.327 587.75 116.374C587.778 116.421 587.796 116.472 587.804 116.526C587.811 116.58 587.808 116.634 587.794 116.687C587.78 116.739 587.756 116.788 587.723 116.831C585.775 119.32 583.1 120.532 579.699 120.467C575.082 120.377 571.145 117.667 570.338 113.11C570.148 112.034 570.091 110.629 570.168 108.896C570.414 103.302 574.704 99.1559 580.375 99.5807C586.649 100.052 588.292 105.196 588.152 110.637C588.15 110.735 588.109 110.828 588.039 110.896C587.968 110.965 587.873 111.003 587.774 111.003H574.194C574.146 111.003 574.098 111.013 574.054 111.034C574.009 111.054 573.97 111.083 573.938 111.12C573.906 111.156 573.882 111.199 573.867 111.246C573.853 111.292 573.849 111.341 573.855 111.389ZM574.377 108.136L584.257 108.051C584.279 108.05 584.3 108.045 584.32 108.036C584.34 108.028 584.358 108.015 584.373 107.999C584.388 107.983 584.4 107.965 584.408 107.944C584.415 107.924 584.419 107.902 584.419 107.881V107.605C584.412 106.929 584.274 106.26 584.012 105.638C583.75 105.016 583.369 104.452 582.89 103.978C582.412 103.504 581.845 103.13 581.224 102.877C580.602 102.624 579.937 102.497 579.266 102.503C577.913 102.515 576.62 103.069 575.671 104.042C574.722 105.016 574.196 106.329 574.207 107.694V107.97C574.207 107.992 574.212 108.014 574.22 108.034C574.229 108.055 574.241 108.073 574.257 108.089C574.273 108.104 574.292 108.116 574.312 108.124C574.333 108.132 574.355 108.136 574.377 108.136Z" fill="#212121"/>
<path d="M258.004 99.8594H254.775C254.628 99.8594 254.508 99.9792 254.508 100.127V119.862C254.508 120.009 254.628 120.129 254.775 120.129H258.004C258.151 120.129 258.271 120.009 258.271 119.862V100.127C258.271 99.9792 258.151 99.8594 258.004 99.8594Z" fill="#212121"/>
<path d="M297.783 127.858H294.177L293.862 127.748C293.799 127.725 293.744 127.684 293.706 127.628C293.667 127.573 293.646 127.506 293.646 127.437V125.288C293.646 125.255 293.652 125.223 293.665 125.193C293.678 125.163 293.696 125.135 293.72 125.112C293.743 125.089 293.771 125.071 293.801 125.059C293.831 125.047 293.864 125.041 293.896 125.042C295.481 125.05 296.271 125.055 297.783 124.158C297.906 124.088 298.013 123.994 298.097 123.882C298.681 123.126 299.22 122.02 299.716 120.565C299.917 119.967 299.896 119.367 299.652 118.764C298.5 115.912 296.098 109.653 292.448 99.9847C292.444 99.9738 292.442 99.962 292.444 99.9503C292.445 99.9387 292.45 99.9276 292.456 99.918C292.463 99.9084 292.472 99.9005 292.482 99.8951C292.493 99.8898 292.504 99.887 292.516 99.887H296.407C296.446 99.8871 296.483 99.8989 296.515 99.9209C296.547 99.9429 296.571 99.974 296.585 100.01L301.58 114.185C301.593 114.224 301.618 114.258 301.651 114.281C301.684 114.305 301.724 114.318 301.765 114.317C301.806 114.317 301.845 114.303 301.878 114.279C301.91 114.254 301.934 114.22 301.946 114.181L306.588 100.023C306.602 99.9824 306.628 99.947 306.663 99.9219C306.698 99.8967 306.74 99.883 306.784 99.8828H310.598C310.606 99.8832 310.614 99.8853 310.621 99.889C310.628 99.8927 310.634 99.8979 310.639 99.9041C310.644 99.9103 310.646 99.9174 310.648 99.9248C310.649 99.9321 310.648 99.9396 310.645 99.9465C305.709 113.448 302.808 121.343 301.942 123.632C301.157 125.693 299.771 127.102 297.783 127.858Z" fill="#212121"/>
<path d="M348.606 118.582C348.6 118.55 348.587 118.52 348.567 118.495C348.547 118.47 348.52 118.45 348.491 118.438C348.461 118.426 348.428 118.422 348.396 118.427C348.364 118.431 348.334 118.443 348.308 118.463C347.361 119.21 346.422 119.869 345.331 120.119C339.804 121.394 335.502 119.363 335.408 113.2C335.397 112.39 335.395 108.036 335.404 100.138C335.404 100.069 335.432 100.002 335.481 99.9521C335.53 99.9027 335.597 99.875 335.667 99.875H338.87C338.904 99.875 338.938 99.8818 338.97 99.8951C339.002 99.9084 339.031 99.9279 339.055 99.9524C339.079 99.9769 339.098 100.006 339.111 100.038C339.123 100.07 339.13 100.104 339.129 100.138C339.112 103.936 339.115 108.295 339.138 113.217C339.155 117.426 342.782 118.093 345.989 116.853C347.082 116.431 347.871 115.676 348.355 114.589C348.431 114.418 348.47 114.233 348.47 114.045V100.075C348.47 100.048 348.475 100.022 348.485 99.9982C348.495 99.974 348.51 99.952 348.528 99.9335C348.547 99.9149 348.569 99.9002 348.593 99.8902C348.617 99.8802 348.643 99.875 348.669 99.875H352.004C352.054 99.875 352.103 99.8947 352.139 99.9297C352.175 99.9648 352.195 100.012 352.195 100.062V119.788C352.195 119.882 352.158 119.971 352.092 120.037C352.026 120.103 351.936 120.141 351.842 120.141H348.928C348.877 120.141 348.825 120.129 348.778 120.108C348.731 120.086 348.689 120.054 348.655 120.014C348.622 119.975 348.597 119.928 348.584 119.878C348.57 119.828 348.567 119.776 348.576 119.724C348.65 119.288 348.659 118.907 348.606 118.582Z" fill="#212121"/>
</g>
</g>
<defs>
<clipPath id="clip0_115_100">
<rect width="590" height="128" fill="white"/>
</clipPath>
</defs>
</svg>
