<svg xmlns="http://www.w3.org/2000/svg" width="160" height="68" fill="none" viewBox="0 0 160 68"><g fill="#5e5e5e" clip-path="url(#a)"><path d="M79.22 20.943h9.39c.066.523.11 1.068.11 1.547 0 2.573-.83 4.709-2.49 6.387-1.66 1.657-3.778 2.485-6.333 2.485-2.577 0-4.761-.872-6.552-2.572-1.747-1.7-2.643-3.814-2.643-6.321 0-2.485.874-4.6 2.621-6.3 1.747-1.722 3.931-2.594 6.486-2.594 1.966 0 3.691.458 5.198 1.352 1.507.893 2.555 2.136 3.123 3.77l-4.04 1.178c-.83-1.635-2.272-2.442-4.28-2.442-1.398 0-2.556.48-3.495 1.44-.94.958-1.398 2.157-1.398 3.617 0 1.44.48 2.638 1.42 3.64.96.96 2.162 1.44 3.581 1.44 2.206 0 3.866-1.134 4.5-3.052H79.22zm23.083-1.177c1.354 1.242 2.031 2.877 2.031 4.839 0 1.983-.677 3.618-2.031 4.86s-3.014 1.875-4.958 1.875c-1.987 0-3.669-.632-5.045-1.874-1.353-1.243-2.03-2.878-2.03-4.861q0-2.943 2.03-4.84c1.376-1.242 3.058-1.874 5.045-1.874 1.944 0 3.604.632 4.958 1.875m-2.796 7.215c.612-.632.918-1.417.918-2.398 0-.96-.306-1.744-.94-2.354-.61-.632-1.332-.937-2.14-.937-.83 0-1.572.305-2.205.937-.634.61-.94 1.395-.94 2.354 0 1.94 1.42 3.313 3.167 3.313.808 0 1.529-.305 2.14-.915m11.03 3.989h-4.084V12.66h4.084zm15.398-11.225c1.223 1.264 1.835 2.899 1.835 4.86 0 1.984-.612 3.619-1.835 4.883-1.202 1.243-2.665 1.875-4.412 1.875-1.594 0-2.927-.458-3.975-1.395v1.024h-4.083v-18.31h4.083v6.561c1.048-.937 2.359-1.395 3.975-1.395 1.747-.022 3.21.61 4.412 1.896m-2.162 4.86c0-1.94-1.268-3.313-3.08-3.313-.83 0-1.572.305-2.206.938q-.916.948-.916 2.354c0 .959.305 1.744.916 2.398.634.61 1.376.915 2.206.915 1.812 0 3.08-1.351 3.08-3.292m19.568-6.386V30.97h-4.084v-1.024c-1.049.937-2.359 1.394-3.975 1.394-1.725 0-3.21-.631-4.433-1.874-1.201-1.264-1.813-2.9-1.813-4.883 0-1.962.612-3.575 1.813-4.86 1.223-1.265 2.708-1.897 4.433-1.897 1.594 0 2.926.458 3.975 1.395v-1.003zm-5.023 8.763c.633-.632.939-1.417.939-2.398 0-.937-.306-1.722-.939-2.354-.612-.632-1.354-.937-2.184-.937-1.812 0-3.08 1.373-3.08 3.313 0 1.962 1.268 3.313 3.08 3.313a3.12 3.12 0 0 0 2.184-.937m19.547-7.673c.916.96 1.375 2.245 1.375 3.837v7.825h-4.04v-6.975c0-1.504-.896-2.507-2.184-2.507-1.66 0-2.643 1.134-2.643 3.553v5.93h-4.083V18.217h4.083v1.221c1.026-1.068 2.315-1.591 3.931-1.591 1.485-.022 2.687.48 3.561 1.46m-72.31 19.924h-5.526v13.362h-4.171V39.231h-5.526V35.57h15.223zm10.221.523L95.6 43.83h-.743c-2.926 0-4.411 1.591-4.411 4.774v3.989h-4.084V39.84h4.084v2.441c1.048-1.743 2.511-2.615 4.411-2.615.35-.022.655.022.917.087m14.481.089v12.752h-4.084v-1.025c-1.048.937-2.359 1.395-3.975 1.395-1.725 0-3.21-.632-4.433-1.875-1.201-1.264-1.813-2.899-1.813-4.882 0-1.962.612-3.575 1.813-4.861 1.223-1.264 2.708-1.896 4.433-1.896 1.594 0 2.927.457 3.975 1.394V39.82h4.084zm-5.023 8.763c.633-.633.939-1.417.939-2.398 0-.938-.306-1.722-.939-2.354-.612-.633-1.354-.938-2.184-.938-1.813 0-3.08 1.374-3.08 3.313 0 1.962 1.267 3.314 3.08 3.314a3.12 3.12 0 0 0 2.184-.937m20.79-14.322v18.31h-4.084V51.57c-1.048.937-2.358 1.395-3.974 1.395-1.726 0-3.211-.632-4.434-1.874-1.202-1.265-1.812-2.9-1.812-4.883 0-1.962.61-3.575 1.812-4.861 1.223-1.264 2.708-1.896 4.434-1.896 1.594 0 2.926.457 3.974 1.394v-6.56zm-5.023 14.322c.634-.633.939-1.417.939-2.398 0-.938-.305-1.722-.939-2.354-.611-.633-1.354-.938-2.184-.938-1.813 0-3.079 1.374-3.079 3.314 0 1.961 1.266 3.313 3.079 3.313a3.12 3.12 0 0 0 2.184-.937m19.854-1.352h-9.37c.329 1.526 1.398 2.463 2.753 2.463 1.266 0 2.183-.48 2.73-1.482l3.625.741c-1.092 2.638-3.363 3.99-6.334 3.99-1.878 0-3.493-.633-4.782-1.876-1.289-1.264-1.966-2.899-1.966-4.882 0-1.962.655-3.575 1.966-4.861 1.289-1.264 2.904-1.896 4.804-1.896 1.857 0 3.408.61 4.652 1.852 1.245 1.243 1.9 2.878 1.944 4.905v1.046zm-9.282-2.485h5.264c-.371-1.33-1.355-2.005-2.578-2.005a2.81 2.81 0 0 0-2.686 2.005M58.8 16.78l-7.053-4.077a1.09 1.09 0 0 0-1.093 0L29.47 24.91c-.35.196-.546.567-.546.96V34c0 .392.219.763.546.959l7.054 4.076c.175.109.372.153.546.153a1 1 0 0 0 .546-.153l5.416-3.117v5.602l-13.016 7.498-13.038-7.52V26.501l20.616-11.88c.35-.196.546-.566.546-.959v-8.13c0-.393-.218-.763-.546-.96L30.54.498a1.09 1.09 0 0 0-1.092 0L1.21 16.757c-.35.197-.546.567-.546.96V50.26c0 .392.218.763.546.959L29.448 67.48c.175.11.372.153.546.153s.372-.044.546-.153l28.24-16.26c.35-.196.546-.567.546-.96V17.74a1.07 1.07 0 0 0-.524-.96m-7.621-1.853 4.848 2.79L37.07 28.659l-4.848-2.79zM35.956 36.179l-4.848-2.79v-5.602l3.647 2.093 1.223.697v5.602zm14.13-4.337V44.31l-1.244-.72-3.604-2.07v-6.866zM30.563 51.22l13.562-7.825 4.849 2.79-12.645 7.28-6.334 3.64-6.333-3.64-12.645-7.28 4.848-2.79 13.563 7.825c.37.196.786.196 1.135 0m5.394-38.19L15.34 24.91c-.35.196-.546.567-.546.96v15.628l-4.848 2.79V22.447l19.35-11.139 6.682-3.858v5.58zm-5.94-10.288 4.849 2.79L8.831 20.529l-4.848-2.79zM2.87 19.635l4.848 2.79v23.781c0 .393.218.763.546.96l20.617 11.88v5.601L2.848 49.65V19.636zm28.238 45.012v-5.602l20.617-11.88c.35-.196.546-.566.546-.959v-16.26c0-.393-.219-.764-.546-.96a1.09 1.09 0 0 0-1.092 0l-12.47 7.193v-5.602L57.14 19.635v29.994z"/></g><defs><clipPath id="a"><path fill="#fff" d="M0 0h159.746v68H0z"/></clipPath></defs></svg>