<?xml version="1.0" encoding="UTF-8"?> <svg xmlns="http://www.w3.org/2000/svg" width="99" height="41" viewBox="0 0 99 41" fill="none"><path d="M49.0003 34.7383L48.7988 38.3655C48.7988 38.5334 48.7988 38.6677 48.7988 38.8021C48.7988 38.9364 48.8324 39.1043 48.866 39.2387C48.8996 39.373 48.9668 39.5074 49.0339 39.6417C49.1011 39.7425 49.2019 39.8768 49.3698 39.944H46.7166C46.8509 39.8432 46.9852 39.7425 47.0524 39.6417C47.1532 39.5409 47.2203 39.4066 47.2539 39.2723C47.3211 39.1379 47.3547 39.0036 47.3547 38.8357C47.3883 38.6677 47.3883 38.5334 47.4218 38.3655L47.6905 33.865C47.6905 33.5964 47.6569 33.3277 47.5898 33.0926C47.5226 32.8575 47.3883 32.656 47.1532 32.4545H49.1347L51.1498 36.0817L53.0977 32.4545H55.1128C54.9449 32.5888 54.8106 32.7231 54.7098 32.8911C54.6091 33.059 54.5419 33.2269 54.5419 33.462C54.5419 33.5292 54.5419 33.6299 54.5419 33.7307C54.5419 33.8315 54.5419 33.8986 54.5419 33.9994L54.8106 38.399C54.8442 38.567 54.8442 38.7013 54.8777 38.8692C54.9113 39.0036 54.9113 39.1715 54.9785 39.3058C55.0121 39.4402 55.0793 39.5745 55.18 39.6753C55.2472 39.8096 55.3815 39.9104 55.5159 39.9775H52.9298C53.1313 39.8432 53.2657 39.7089 53.3664 39.5409C53.4672 39.373 53.5008 39.2051 53.5008 38.9364C53.5008 38.8357 53.5008 38.7349 53.5008 38.6677C53.5008 38.567 53.5008 38.4662 53.4672 38.3655L53.2657 34.7383L51.1162 38.6341L49.0003 34.7383Z" fill="#004587"></path><path d="M62.6357 36.2157C62.6357 36.7195 62.5685 37.2233 62.4342 37.6935C62.2999 38.1636 62.1319 38.5667 61.8633 38.9361C61.5946 39.3055 61.2587 39.5742 60.8557 39.7757C60.4527 39.9772 59.9825 40.1116 59.4115 40.1116C58.8406 40.1116 58.3704 40.0108 57.9674 39.7757C57.5644 39.5742 57.2285 39.272 56.9598 38.9361C56.6911 38.5667 56.5232 38.1636 56.3889 37.6935C56.2545 37.2233 56.2209 36.7195 56.2209 36.2157C56.2209 35.7119 56.2881 35.2081 56.3889 34.738C56.5232 34.2678 56.6911 33.8647 56.9598 33.4953C57.2285 33.1259 57.5644 32.8572 57.9674 32.6221C58.3704 32.4206 58.8406 32.3198 59.4115 32.3198C59.9825 32.3198 60.4527 32.4206 60.8557 32.6221C61.2587 32.8236 61.5946 33.1259 61.8633 33.4953C62.1319 33.8647 62.3335 34.2678 62.4342 34.738C62.5685 35.2081 62.6357 35.7119 62.6357 36.2157ZM61.0236 36.2157C61.0236 35.9806 60.99 35.6783 60.9565 35.3761C60.9229 35.0738 60.8221 34.7715 60.7214 34.5029C60.6206 34.2342 60.4527 33.9991 60.2512 33.8312C60.0497 33.6632 59.781 33.5625 59.4451 33.5625C59.1093 33.5625 58.8406 33.6632 58.6055 33.8312C58.404 34.0327 58.2361 34.2342 58.1017 34.5029C58.001 34.7715 57.9002 35.0738 57.8666 35.3761C57.833 35.6783 57.7995 35.9806 57.7995 36.2157C57.7995 36.4844 57.833 36.7531 57.8666 37.0889C57.9002 37.3912 58.001 37.6935 58.1017 37.9621C58.2361 38.2308 58.3704 38.4659 58.6055 38.6338C58.807 38.8018 59.1093 38.9025 59.4451 38.9025C59.781 38.9025 60.0497 38.8018 60.2512 38.6338C60.4527 38.4659 60.6206 38.2308 60.7214 37.9621C60.8221 37.6935 60.9229 37.3912 60.9565 37.0889C60.99 36.7531 61.0236 36.4844 61.0236 36.2157Z" fill="#004587"></path><path d="M68.0096 39.944H63.3749C63.6436 39.7425 63.8115 39.5409 63.8451 39.3394C63.9122 39.1379 63.9122 38.8692 63.9122 38.6006V34.1001C63.9122 33.9322 63.9122 33.7979 63.9122 33.6299C63.9122 33.462 63.8787 33.3277 63.8451 33.1933C63.8115 33.059 63.7443 32.9247 63.6771 32.7903C63.61 32.656 63.5092 32.5552 63.3749 32.4545H65.9609C65.8266 32.5552 65.7258 32.6896 65.6251 32.7903C65.5579 32.9247 65.4907 33.059 65.4572 33.1933C65.4236 33.3277 65.39 33.4956 65.39 33.6299C65.39 33.7979 65.39 33.9322 65.39 34.1001V38.8357H66.0281C66.2296 38.8357 66.4311 38.8357 66.6326 38.8021C66.8342 38.7685 67.0357 38.7349 67.2036 38.7013C67.4051 38.6341 67.573 38.567 67.741 38.4662C67.9089 38.3655 68.0768 38.2311 68.2111 38.0296L68.0096 39.944Z" fill="#004587"></path><path d="M71.2674 32.4545C72.5436 32.4545 73.4504 32.7567 74.0214 33.3949C74.5923 34.033 74.8946 34.9398 74.8946 36.216C74.8946 37.4587 74.5923 38.399 74.0214 39.0372C73.4504 39.6753 72.51 39.9775 71.2338 39.9775H68.5806C68.8492 39.776 69.0172 39.5745 69.0508 39.373C69.1179 39.1379 69.1515 38.9028 69.1515 38.6341V34.1337C69.1515 33.9658 69.1515 33.8315 69.1515 33.6635C69.1515 33.4956 69.1179 33.3613 69.0843 33.2269C69.0508 33.0926 68.9836 32.9582 68.9164 32.8239C68.8492 32.6896 68.7149 32.5888 68.5806 32.4881H71.2674V32.4545ZM71.2338 38.9028C71.6704 38.9028 72.0063 38.8357 72.3085 38.7013C72.5772 38.567 72.7787 38.3655 72.9466 38.1304C73.081 37.8953 73.1817 37.593 73.2489 37.2571C73.3161 36.9213 73.3161 36.5854 73.3161 36.216C73.3161 36.0481 73.3161 35.8466 73.3161 35.6451C73.3161 35.4435 73.2825 35.2756 73.2489 35.0741C73.2153 34.8726 73.1482 34.7047 73.081 34.5367C73.0138 34.3688 72.9131 34.2009 72.8123 34.0666C72.7115 33.9322 72.5772 33.8315 72.4764 33.7643C72.3421 33.6971 72.2078 33.6299 72.0734 33.5964C71.9391 33.5628 71.7712 33.5292 71.6032 33.5292C71.4353 33.5292 71.301 33.5292 71.133 33.5292H70.6964V38.9028H71.2338Z" fill="#004587"></path><path d="M82.2161 36.2157C82.2161 36.7195 82.1489 37.2233 82.0145 37.6935C81.8802 38.1636 81.7123 38.5667 81.4436 38.9361C81.1749 39.3055 80.8391 39.5742 80.436 39.7757C80.033 39.9772 79.5628 40.1116 78.9919 40.1116C78.4209 40.1116 77.9507 40.0108 77.5477 39.7757C77.1447 39.5742 76.8088 39.272 76.5402 38.9361C76.2715 38.5667 76.07 38.1636 75.9692 37.6935C75.8349 37.2233 75.7677 36.7195 75.7677 36.2157C75.7677 35.7119 75.8349 35.2081 75.9692 34.738C76.1035 34.2678 76.2715 33.8647 76.5402 33.4953C76.8088 33.1259 77.1447 32.8572 77.5477 32.6221C77.9507 32.4206 78.4209 32.3198 78.9919 32.3198C79.5628 32.3198 80.033 32.4206 80.436 32.6221C80.8391 32.8236 81.1749 33.1259 81.4436 33.4953C81.7123 33.8647 81.9138 34.2678 82.0145 34.738C82.1825 35.2081 82.2161 35.7119 82.2161 36.2157ZM80.604 36.2157C80.604 35.9806 80.5704 35.6783 80.5368 35.3761C80.5032 35.0738 80.436 34.7715 80.3017 34.5029C80.2009 34.2342 80.033 33.9991 79.7979 33.8312C79.5964 33.6632 79.3277 33.5625 78.9919 33.5625C78.656 33.5625 78.3873 33.6632 78.1522 33.8312C77.9507 34.0327 77.7828 34.2342 77.6485 34.5029C77.5477 34.7715 77.447 35.0738 77.4134 35.3761C77.3798 35.6783 77.3462 35.9806 77.3462 36.2157C77.3462 36.4844 77.3798 36.7531 77.4134 37.0889C77.447 37.3912 77.5477 37.6935 77.6485 37.9621C77.7492 38.2308 77.9171 38.4659 78.1522 38.6338C78.3538 38.8018 78.656 38.9025 78.9919 38.9025C79.3277 38.9025 79.5964 38.8018 79.7979 38.6338C79.9994 38.4659 80.1674 38.2308 80.3017 37.9621C80.4025 37.6935 80.5032 37.3912 80.5368 37.0889C80.604 36.7531 80.604 36.4844 80.604 36.2157Z" fill="#004587"></path><path d="M85.5072 39.944L83.3913 33.6299C83.3242 33.3949 83.2234 33.1933 83.1226 32.9918C83.0219 32.7903 82.8875 32.6224 82.686 32.4545H85.0034C84.8691 32.5888 84.8019 32.7567 84.8019 32.9582C84.8019 33.0926 84.8355 33.2605 84.8691 33.3949C84.9027 33.5292 84.9698 33.6635 85.0034 33.8315L86.414 38.6341L87.8917 33.6299C87.9253 33.5292 87.9589 33.3949 87.9925 33.2941C88.0261 33.1933 88.0597 33.059 88.0597 32.9247C88.0597 32.7903 87.9925 32.6224 87.8917 32.4545H90.1084C89.7725 32.7903 89.5038 33.2269 89.3695 33.6971L87.2536 39.944H85.5072Z" fill="#004587"></path><path d="M92.8294 37.7609C92.7286 38.0296 92.6615 38.3319 92.5607 38.6006C92.4599 38.8692 92.3928 39.1715 92.3592 39.4738C92.3592 39.5745 92.3928 39.6753 92.4599 39.7425C92.5271 39.8096 92.6279 39.8768 92.7286 39.9104H90.1761C90.4448 39.7425 90.6128 39.5409 90.7471 39.373C90.8479 39.1715 90.9486 38.9364 91.083 38.6677L92.8965 33.7643C92.9637 33.6299 92.9973 33.462 93.0309 33.3277C93.0645 33.1598 93.0981 33.0254 93.0981 32.8911C93.0981 32.7903 93.0645 32.7231 93.0309 32.656C92.9973 32.5888 92.9301 32.5216 92.8965 32.4545H95.4826C95.4154 32.5216 95.3818 32.5888 95.3147 32.656C95.2811 32.7231 95.2475 32.7903 95.2475 32.8911C95.2475 33.0254 95.2811 33.1933 95.3147 33.3277C95.3818 33.462 95.4154 33.6299 95.4826 33.7643L97.1283 38.4998C97.229 38.7685 97.3298 39.0372 97.4641 39.2723C97.5649 39.5074 97.7664 39.7089 98.0015 39.9104H95.3819C95.4826 39.8432 95.5498 39.7425 95.617 39.6753C95.6841 39.6081 95.7177 39.5074 95.7177 39.373C95.7177 39.1043 95.6505 38.8357 95.5498 38.5334C95.449 38.2311 95.3483 37.9624 95.2475 37.7273H92.8294V37.7609ZM94.0384 33.7979L93.1316 36.6862H94.8781L94.0384 33.7979Z" fill="#004587"></path><path d="M46.2468 6.44868V22.0658C46.2468 27.1707 44.3997 28.7156 44.3997 28.7156H64.2149L64.2821 22.0994C64.2821 22.0994 63.7111 24.4839 59.3787 24.4839H55.0462C53.1318 24.4503 52.4265 23.6779 52.4265 21.4948V15.0129H57.5986C61.0243 15.0129 62.1662 16.5578 62.1662 16.5578V9.50493C62.1662 9.50493 61.1587 11.0163 57.5986 11.0163H52.4265V4.23205H58.5054C62.6364 4.23205 64.3493 6.24716 64.3493 6.24716V0.0339052H44.4332C44.3997 0.000319995 46.2468 0.974291 46.2468 6.44868Z" fill="#004587"></path><path d="M14.9118 24.45H10.6129C8.73215 24.4164 8.02686 23.6439 8.02686 21.4609V16.1209H13.1654C16.5911 16.1209 17.733 17.6658 17.733 17.6658V10.6129C17.733 10.6129 16.7254 12.1242 13.1654 12.1242H8.02686V4.26529H14.0722C18.1696 4.26529 19.6473 6.2804 19.6473 6.2804L19.6137 0.0671387H0C0 0.0671387 1.84719 1.00752 1.84719 6.44832V22.0318C1.84719 27.1368 0 28.6481 0 28.6481H20.2519L20.2183 22.0318C20.2183 22.0654 19.2443 24.45 14.9118 24.45Z" fill="#004587"></path><path d="M24.6516 6.41477V22.0319C24.6516 27.1368 22.8044 28.6817 22.8044 28.6817L32.6785 28.7153C32.6785 28.7153 30.8313 27.204 30.8313 22.0655V15.0126H36.0034C39.4291 15.0126 40.6046 16.5575 40.6046 16.5575V9.50461C40.6046 9.50461 39.597 11.0159 36.0034 11.0159H30.8313V4.19815H36.9102C41.0412 4.19815 42.6869 6.21326 42.6869 6.21326L42.8212 0H22.8044C22.8044 0 24.6516 0.940385 24.6516 6.41477Z" fill="#004587"></path><path d="M73.1822 7.48948C73.1487 5.4072 75.063 3.92945 77.5147 3.92945C81.0412 3.92945 84.702 7.08646 84.702 7.08646L84.6348 0.16791C84.6348 0.16791 83.3586 1.1083 80.6382 0.470177C79.7649 0.302251 77.6827 0.0335693 76.6415 0.0335693C70.9656 0.0335693 67.1369 3.3585 67.2377 7.82533C67.4392 16.3896 80.2015 15.785 80.3359 21.0579C80.4031 23.644 78.1528 25.0545 75.1302 25.0545C71.5366 25.0545 67.5735 21.9647 67.5735 21.9647L67.5063 27.7413C69.4879 28.3459 72.4434 29.3199 75.3989 29.3199C82.0487 29.3199 86.2469 25.9949 86.2805 20.8564C86.4148 11.2846 73.3166 12.0235 73.1822 7.48948Z" fill="#004587"></path></svg> 