<?xml version="1.0" encoding="UTF-8"?>
<!DOCTYPE svg PUBLIC "-//W3C//DTD SVG 1.1//EN" "http://www.w3.org/Graphics/SVG/1.1/DTD/svg11.dtd">
<!-- Creator: CorelDRAW -->
<svg xmlns="http://www.w3.org/2000/svg" xml:space="preserve" width="170mm" height="170mm" version="1.1" style="shape-rendering:geometricPrecision; text-rendering:geometricPrecision; image-rendering:optimizeQuality; fill-rule:evenodd; clip-rule:evenodd"
viewBox="0 0 17000 17000"
 xmlns:xlink="http://www.w3.org/1999/xlink"
 xmlns:xodm="http://www.corel.com/coreldraw/odm/2003">
 <defs>
  <style type="text/css">
   <![CDATA[
    .fil0 {fill:#373435}
    .fil1 {fill:#373435;fill-rule:nonzero}
    .fil2 {fill:url(#id0)}
    .fil3 {fill:url(#id1)}
    .fil4 {fill:url(#id2)}
   ]]>
  </style>
  <linearGradient id="id0" gradientUnits="userSpaceOnUse" x1="1183.36" y1="10253.88" x2="15815.61" y2="10253.88">
   <stop offset="0" style="stop-opacity:1; stop-color:#9C6A39"/>
   <stop offset="0.0392157" style="stop-opacity:1; stop-color:#9C6A39"/>
   <stop offset="0.560784" style="stop-opacity:1; stop-color:#F4E779"/>
   <stop offset="1" style="stop-opacity:1; stop-color:#C09744"/>
  </linearGradient>
  <linearGradient id="id1" gradientUnits="userSpaceOnUse" xlink:href="#id0" x1="4600.39" y1="5329.61" x2="12378" y2="4736.21">
  </linearGradient>
  <linearGradient id="id2" gradientUnits="userSpaceOnUse" xlink:href="#id0" x1="749.61" y1="13723.92" x2="17450.45" y2="13723.92">
  </linearGradient>
 </defs>
 <g id="Слой_x0020_1">
  <metadata id="CorelCorpID_0Corel-Layer"/>
  <g id="_2054140149120">
   <path class="fil0" d="M2085.57 11230.59l1511.14 0 0.05 808.55 -1781.27 0 -632.11 0.06 0 -3570.78 902.19 -0.05 0 2762.22zm11275.21 -1381.46l1340.03 -1380.75 1114.75 0 -1523.54 1569.85 1517.31 2000.91 -1039.93 0 -1061.19 -1399.37 -347.4 357.98 -0.05 1041.4 -902.17 0.03 0 -3570.76 902.19 -0.05 0 1380.76zm-7605.34 -1489.01c1045.61,0 1893.68,848.02 1893.68,1893.64 0,1045.64 -848.04,1893.67 -1893.68,1893.67 -1045.63,0 -1893.65,-848.05 -1893.65,-1893.67 0,-1045.6 848.05,-1893.64 1893.65,-1893.64zm4264.44 0c1045.62,0 1893.68,848.02 1893.68,1893.64 0,1045.64 -848.04,1893.67 -1893.68,1893.67 -1045.62,0 -1893.64,-848.05 -1893.64,-1893.67 0,-1045.6 848.04,-1893.64 1893.64,-1893.64zm-4264.44 813.68c-596.42,0 -1079.96,483.54 -1079.96,1079.96 0,596.43 483.53,1080 1079.96,1080 596.46,0 1080,-483.55 1080,-1080 0,-596.44 -483.56,-1079.96 -1080,-1079.96zm4264.44 0c-596.42,0 -1079.96,483.54 -1079.96,1079.96 0,596.43 483.52,1080 1079.96,1080 596.46,0 1080,-483.55 1080,-1080 0,-596.44 -483.56,-1079.96 -1080,-1079.96z"/>
   <path class="fil0" d="M12001.3 5137.05c-933.26,-1199.65 -2096.13,-1957.95 -3675.79,-1893.77 -1498.83,60.9 -2616.91,1058.8 -3738.09,1955.82 432.34,-764.3 1178.07,-1440.39 2035.91,-1861.02 531.35,-260.54 1098.12,-397.82 1688.9,-421.81 1732.43,-70.39 3014.11,778.61 4025.61,2122.02l73.66 97.83 -73.09 98.27c-853.16,1147.04 -1963.86,1813.36 -3409.66,1913.18 -1191.33,82.26 -3018.55,-470.32 -3450.82,-1694.98 252.08,254.46 1295.67,1027.26 2150.73,1210.45 -426.54,-333.75 -717.85,-837.7 -765.26,-1419.94 -49.55,-608.55 393.79,-1476.31 1036.74,-1798.3 26.24,-13.15 -242.7,247.36 -433.16,616.06 -190.44,368.7 -302.37,845.58 -277.37,1155.67 74.66,926.1 887.56,1615.89 1813.61,1540.48 926.05,-75.4 1615.89,-887.55 1540.48,-1813.61 -44.46,-546.04 -347.68,-875.28 -663.98,-1287.93 474.84,262.55 943.45,687.52 990.18,1261.37 49.77,611.03 -179.48,1180.46 -581.05,1583.07 666.36,-283.15 1230.22,-742.53 1712.45,-1362.86zm-3136.09 -862.66c477.15,-38.85 895.62,316.59 934.47,793.75 38.86,477.16 -316.59,895.62 -793.74,934.48 -477.17,38.85 -895.63,-316.59 -934.48,-793.75 -38.86,-477.16 316.58,-895.62 793.75,-934.48zm26.56 326.22c297.03,-24.19 557.52,197.07 581.71,494.09 24.18,297.03 -197.08,557.53 -494.11,581.71 -297.02,24.19 -557.52,-197.07 -581.7,-494.1 -24.2,-297.03 197.08,-557.52 494.1,-581.7z"/>
   <path class="fil1" d="M1921.09 14070.43l0 -696.02 289.82 0c72.74,0 125.72,6.3 158.68,18.79 33.1,12.48 59.52,34.66 79.28,66.55 19.88,32.12 29.82,68.6 29.82,109.7 0,52.36 -14.79,95.39 -44.85,129.46 -30.07,34.06 -74.79,55.39 -134.31,64.36 29.7,17.58 54.06,37.1 73.22,58.31 19.27,21.21 45.45,58.91 78.06,113.09l83.03 135.76 -164.49 0 -98.54 -152c-35.4,-53.95 -59.64,-88 -72.86,-102.07 -12.97,-13.93 -26.79,-23.63 -41.33,-28.85 -14.8,-5.2 -37.95,-7.75 -69.58,-7.75l-28 0 0 290.67 -137.95 0zm137.95 -401.47l101.94 0c65.95,0 107.03,-2.9 123.52,-8.6 16.24,-5.7 29.22,-15.52 38.54,-29.46 9.22,-13.94 13.83,-31.51 13.83,-52.37 0,-23.51 -6.19,-42.3 -18.31,-56.84 -12.24,-14.42 -29.45,-23.52 -51.76,-27.28 -11.27,-1.57 -44.72,-2.43 -100.37,-2.43l-107.39 0 0 176.98zm691.42 401.47l0 -696.02 504.38 0 0 117.57 -366.44 0 0 154.56 340.74 0 0 117.7 -340.74 0 0 188.61 379.65 0 0 117.58 -517.59 0zm740.76 -225.58l134.18 -13.57c8.11,45.82 24.24,79.39 48.85,100.97 24.48,21.58 57.69,32.24 99.39,32.24 44.13,0 77.46,-9.58 99.77,-28.73 22.42,-19.03 33.57,-41.45 33.57,-67.04 0,-16.48 -4.72,-30.42 -14.18,-42.17 -9.22,-11.52 -25.7,-21.46 -49.21,-29.94 -16.01,-5.83 -52.49,-15.89 -109.58,-30.43 -73.45,-18.79 -124.98,-41.83 -154.55,-69.21 -41.83,-38.43 -62.56,-85.22 -62.56,-140.5 0,-35.51 9.83,-68.85 29.47,-99.76 19.52,-31.02 47.76,-54.42 84.73,-70.67 36.96,-16.24 81.32,-24.36 133.58,-24.36 85.21,0 149.58,19.27 192.49,58.06 43.04,38.67 65.57,90.19 67.88,154.92l-138.07 4.85c-5.82,-36.01 -18.3,-61.7 -37.57,-77.47 -19.16,-15.75 -48.01,-23.63 -86.31,-23.63 -39.64,0 -70.79,8.36 -93.22,25.22 -14.42,10.91 -21.7,25.33 -21.7,43.52 0,16.48 6.8,30.54 20.49,42.18 17.21,15.15 59.28,30.66 126.07,46.91 66.79,16 116.13,32.84 147.89,50.05 32.11,17.34 57.08,40.86 75.26,70.8 18.07,29.94 27.04,66.91 27.04,110.8 0,39.88 -10.79,77.32 -32.49,112.12 -21.69,34.91 -52.37,60.73 -92,77.58 -39.52,17.09 -89.1,25.45 -148.25,25.45 -86.19,0 -152.25,-20.24 -198.31,-60.85 -46.18,-40.49 -73.57,-99.64 -82.66,-177.34zm966.21 225.58l0 -578.45 -201.83 0 0 -117.57 540.63 0 0 117.57 -200.86 0 0 578.45 -137.94 0zm524.63 -343.77c0,-71.03 10.41,-130.67 31.27,-178.91 15.39,-35.52 36.61,-67.4 63.4,-95.64 26.78,-28.12 56.12,-49.09 88,-62.79 42.54,-18.3 91.52,-27.64 147.04,-27.64 100.48,0 180.85,32 241.22,95.64 60.24,63.88 90.42,152.49 90.42,266.07 0,112.61 -30.06,200.74 -89.82,264.26 -59.88,63.63 -139.88,95.39 -239.88,95.39 -101.34,0 -182.19,-31.51 -241.95,-94.92 -59.77,-63.15 -89.7,-150.3 -89.7,-261.46zm141.82 -4.72c0,78.9 17.94,138.67 53.58,179.52 35.63,40.61 81.1,61.09 135.88,61.09 55.03,0 100.12,-20.24 135.52,-60.61 35.03,-40.48 52.73,-101.1 52.73,-181.94 0,-79.88 -17.22,-139.52 -51.64,-178.8 -34.18,-39.27 -79.63,-58.91 -136.61,-58.91 -56.73,0 -102.67,19.88 -137.34,59.64 -34.66,39.88 -52.12,99.76 -52.12,180.01zm769 -347.53l272.49 0c54.07,0 94.19,2.18 120.61,6.78 26.79,4.73 50.31,14.19 71.27,28.61 20.98,14.67 38.43,33.94 52.25,58.07 14.07,24.11 21.1,51.39 21.1,81.33 0,32.37 -8.61,62.43 -25.83,89.46 -17.09,27.15 -40.49,47.4 -69.7,61.1 41.34,12.48 73.1,33.45 95.53,63.27 22.18,29.82 33.21,64.85 33.21,105.22 0,31.76 -7.15,62.54 -21.58,92.48 -14.42,29.94 -34.06,53.94 -59.15,72.01 -24.86,17.81 -55.64,28.73 -92.25,32.97 -22.79,2.42 -78.19,4.12 -165.95,4.72l-232 0 0 -696.02zm137.94 115.64l0 160.37 90.19 0c53.33,0 86.79,-0.73 99.64,-2.42 23.52,-2.67 42.18,-11.04 55.52,-24.74 13.57,-13.81 20.24,-31.75 20.24,-54.18 0,-21.45 -5.94,-38.79 -17.46,-52.24 -11.63,-13.46 -28.85,-21.58 -51.76,-24.37 -13.7,-1.57 -52.85,-2.42 -117.33,-2.42l-79.04 0zm0 276.13l0 186.67 127.52 0c49.46,0 81.09,-1.45 94.31,-4.24 20.6,-3.88 37.22,-13.09 50.06,-27.88 12.84,-14.91 19.27,-34.54 19.27,-59.27 0,-21.09 -4.85,-38.79 -14.78,-53.34 -9.94,-14.54 -24.36,-25.33 -43.04,-31.88 -18.67,-6.67 -59.51,-10.06 -122.19,-10.06l-111.15 0zm1305.14 304.25l-148.49 0 -58.91 -158.43 -273.22 0 -56.49 158.43 -145.94 0 264.49 -696.02 145.71 0 272.85 696.02zm-252.13 -276.13l-94.67 -257.58 -91.89 257.58 186.56 0zm467.9 276.13l0 -696.02 289.83 0c72.73,0 125.7,6.3 158.67,18.79 33.09,12.48 59.52,34.66 79.28,66.55 19.76,32.12 29.82,68.6 29.82,109.7 0,52.36 -14.91,95.39 -44.86,129.46 -30.05,34.06 -74.79,55.39 -134.3,64.36 29.58,17.58 54.06,37.1 73.21,58.31 19.27,21.21 45.45,58.91 78.06,113.09l83.04 135.76 -164.49 0 -98.56 -152c-35.39,-53.95 -59.63,-88 -72.84,-102.07 -12.97,-13.93 -26.79,-23.63 -41.46,-28.85 -14.66,-5.2 -37.82,-7.75 -69.45,-7.75l-28.01 0 0 290.67 -137.94 0zm137.94 -401.47l101.95 0c65.93,0 106.91,-2.9 123.51,-8.6 16.25,-5.7 29.21,-15.52 38.55,-29.46 9.21,-13.94 13.82,-31.51 13.82,-52.37 0,-23.51 -6.18,-42.3 -18.42,-56.84 -12.12,-14.42 -29.34,-23.52 -51.64,-27.28 -11.28,-1.57 -44.74,-2.43 -100.37,-2.43l-107.4 0 0 176.98zm1558.13 317.11l-79.16 102.79c-38.67,-19.27 -76.01,-45.82 -111.65,-79.64 -27.39,25.22 -56.73,43.88 -87.63,55.88 -31.03,12.01 -67.77,17.94 -110.68,17.94 -84.61,0 -148.37,-24.48 -191.15,-73.21 -33.09,-37.58 -49.58,-80.97 -49.58,-130.07 0,-44.73 12.85,-84.97 39.15,-120.61 25.95,-35.63 64.98,-66.55 116.86,-92.85 -23.27,-28.12 -40.98,-55.03 -52.73,-80.61 -11.88,-25.7 -17.7,-49.83 -17.7,-72.61 0,-42.18 16.49,-77.94 49.45,-107.28 32.74,-29.33 79.89,-44.12 140.86,-44.12 58.67,0 104.6,15.39 137.71,46.07 33.21,30.78 49.7,68.24 49.7,112.6 0,28.25 -8.13,54.91 -24.37,80.25 -16.37,25.21 -49.22,53.94 -98.68,85.82l93.71 128.85c11.14,-20.12 20.6,-46.54 28.72,-78.91l118.19 27.04c-11.52,42.78 -21.94,74.18 -30.67,93.93 -8.6,19.77 -17.94,36.49 -27.88,49.83 14.55,13.93 33.46,29.09 56.61,45.82 23.16,16.73 40.12,27.63 50.92,33.09zm-355.41 -379.17l35.03 -27.75c25.82,-20.62 38.67,-40.98 38.67,-61.22 0,-17.21 -6.19,-31.76 -18.67,-43.76 -12.37,-12.12 -29.09,-18.18 -50.43,-18.18 -20.61,0 -36.85,5.33 -48.61,15.88 -11.51,10.78 -17.46,23.03 -17.46,36.97 0,16.48 9.95,36.48 29.58,60l31.89 38.06zm-51.04 145.1c-29.82,15.63 -52.24,34.42 -67.04,56.24 -14.77,21.94 -22.17,44.25 -22.17,66.92 0,28.84 9.09,52.48 27.52,70.66 18.17,18.31 42.78,27.4 73.7,27.4 20.36,0 39.99,-4 58.66,-12.37 18.79,-8.24 39.4,-21.82 61.58,-40.97l-132.25 -167.88zm1051.07 318.43l0 -578.45 -201.82 0 0 -117.57 540.5 0 0 117.57 -200.74 0 0 578.45 -137.94 0zm570.21 0l0 -696.02 504.38 0 0 117.57 -366.44 0 0 154.56 340.74 0 0 117.7 -340.74 0 0 188.61 379.65 0 0 117.58 -517.59 0zm776.87 0l0 -696.02 289.83 0c72.74,0 125.71,6.3 158.67,18.79 33.1,12.48 59.52,34.66 79.28,66.55 19.88,32.12 29.81,68.6 29.81,109.7 0,52.36 -14.91,95.39 -44.84,129.46 -30.07,34.06 -74.79,55.39 -134.3,64.36 29.69,17.58 54.06,37.1 73.21,58.31 19.27,21.21 45.45,58.91 78.06,113.09l83.03 135.76 -164.49 0 -98.55 -152c-35.39,-53.95 -59.63,-88 -72.85,-102.07 -12.97,-13.93 -26.79,-23.63 -41.46,-28.85 -14.66,-5.2 -37.81,-7.75 -69.46,-7.75l-28 0 0 290.67 -137.94 0zm137.94 -401.47l101.95 0c65.94,0 107.04,-2.9 123.52,-8.6 16.25,-5.7 29.21,-15.52 38.54,-29.46 9.22,-13.94 13.83,-31.51 13.83,-52.37 0,-23.51 -6.19,-42.3 -18.42,-56.84 -12.13,-14.42 -29.34,-23.52 -51.65,-27.28 -11.27,-1.57 -44.73,-2.43 -100.37,-2.43l-107.4 0 0 176.98zm691.43 401.47l0 -696.02 289.82 0c72.74,0 125.83,6.3 158.8,18.79 33.09,12.48 59.4,34.66 79.16,66.55 19.88,32.12 29.81,68.6 29.81,109.7 0,52.36 -14.78,95.39 -44.85,129.46 -29.93,34.06 -74.66,55.39 -134.3,64.36 29.69,17.58 54.18,37.1 73.21,58.31 19.4,21.21 45.46,58.91 78.07,113.09l83.03 135.76 -164.37 0 -98.67 -152c-35.27,-53.95 -59.64,-88 -72.85,-102.07 -12.85,-13.93 -26.79,-23.63 -41.33,-28.85 -14.8,-5.2 -37.83,-7.75 -69.59,-7.75l-28 0 0 290.67 -137.94 0zm137.94 -401.47l101.95 0c65.94,0 107.03,-2.9 123.52,-8.6 16.24,-5.7 29.33,-15.52 38.54,-29.46 9.21,-13.94 13.94,-31.51 13.94,-52.37 0,-23.51 -6.18,-42.3 -18.42,-56.84 -12.25,-14.42 -29.46,-23.52 -51.76,-27.28 -11.28,-1.57 -44.73,-2.43 -100.37,-2.43l-107.4 0 0 176.98zm1305.14 401.47l-148.49 0 -58.79 -158.43 -273.22 0 -56.61 158.43 -145.94 0 264.49 -696.02 145.71 0 272.85 696.02zm-252.01 -276.13l-94.67 -257.58 -92 257.58 186.67 0zm903.67 19.52l133.1 41.82c-20.49,76.61 -54.42,133.46 -102.07,170.67 -47.52,37.22 -107.88,55.76 -181.09,55.76 -90.43,0 -164.86,-31.52 -223.16,-94.79 -58.18,-63.15 -87.4,-149.46 -87.4,-259.16 0,-115.88 29.33,-205.94 87.76,-270.2 58.67,-64.12 135.64,-96.24 231.16,-96.24 83.4,0 151.16,25.33 203.15,75.76 31.04,29.82 54.19,72.49 69.71,128.49l-136.01 32.97c-8.11,-35.88 -24.84,-64.49 -50.42,-85.34 -25.7,-20.97 -56.73,-31.27 -93.21,-31.27 -50.68,0 -91.64,18.43 -123.16,55.52 -31.52,36.97 -47.16,96.97 -47.16,179.88 0,87.88 15.52,150.56 46.43,187.77 31.15,37.45 71.4,56.12 120.97,56.12 36.61,0 68.25,-11.88 94.56,-35.63 26.29,-23.88 45.33,-61.1 56.84,-112.13zm393.47 256.61l0 -696.02 504.38 0 0 117.57 -366.44 0 0 154.56 340.75 0 0 117.7 -340.75 0 0 188.61 379.66 0 0 117.58 -517.6 0z"/>
   <path class="fil2" d="M1183.38 8468.42l0 3570.78 632.11 -0.06 1781.27 0 -0.05 -808.55 -1511.14 0 0 -2762.22 -902.19 0.05zm12177.4 1380.71l1340.03 -1380.75 1114.75 0 -1523.54 1569.85 1517.31 2000.91 -1039.93 0 -1061.19 -1399.37 -347.4 357.98 -0.05 1041.4 -902.17 0.03 0 -3570.76 902.19 -0.05 0 1380.76zm-7605.34 -1489.01c1045.61,0 1893.68,848.02 1893.68,1893.64 0,1045.64 -848.04,1893.67 -1893.68,1893.67 -1045.63,0 -1893.65,-848.05 -1893.65,-1893.67 0,-1045.6 848.05,-1893.64 1893.65,-1893.64zm4264.44 0c1045.62,0 1893.68,848.02 1893.68,1893.64 0,1045.64 -848.04,1893.67 -1893.68,1893.67 -1045.62,0 -1893.64,-848.05 -1893.64,-1893.67 0,-1045.6 848.04,-1893.64 1893.64,-1893.64zm-4264.44 813.68c-596.42,0 -1079.96,483.54 -1079.96,1079.96 0,596.43 483.53,1080 1079.96,1080 596.46,0 1080,-483.55 1080,-1080 0,-596.44 -483.56,-1079.96 -1080,-1079.96zm4264.44 0c-596.42,0 -1079.96,483.54 -1079.96,1079.96 0,596.43 483.52,1080 1079.96,1080 596.46,0 1080,-483.55 1080,-1080 0,-596.44 -483.56,-1079.96 -1080,-1079.96z"/>
   <path class="fil3" d="M12001.3 5137.05c-933.26,-1199.65 -2096.13,-1957.95 -3675.79,-1893.77 -1498.83,60.9 -2616.91,1058.8 -3738.09,1955.82 432.34,-764.3 1178.07,-1440.39 2035.91,-1861.02 531.35,-260.54 1098.12,-397.82 1688.9,-421.81 1732.43,-70.39 3014.11,778.61 4025.61,2122.02l73.66 97.83 -73.09 98.27c-853.16,1147.04 -1963.86,1813.36 -3409.66,1913.18 -1191.33,82.26 -3018.55,-470.32 -3450.82,-1694.98 252.08,254.46 1295.67,1027.26 2150.73,1210.45 -426.54,-333.75 -717.85,-837.7 -765.26,-1419.94 -49.55,-608.55 393.79,-1476.31 1036.74,-1798.3 26.24,-13.15 -242.7,247.36 -433.16,616.06 -190.44,368.7 -302.37,845.58 -277.37,1155.67 74.66,926.1 887.56,1615.89 1813.61,1540.48 926.05,-75.4 1615.89,-887.55 1540.48,-1813.61 -44.46,-546.04 -347.68,-875.28 -663.98,-1287.93 474.84,262.55 943.45,687.52 990.18,1261.37 49.77,611.03 -179.48,1180.46 -581.05,1583.07 666.36,-283.15 1230.22,-742.53 1712.45,-1362.86zm-3136.09 -862.66c477.15,-38.85 895.62,316.59 934.47,793.75 38.86,477.16 -316.59,895.62 -793.74,934.48 -477.17,38.85 -895.63,-316.59 -934.48,-793.75 -38.86,-477.16 316.58,-895.62 793.75,-934.48zm26.56 326.22c297.03,-24.19 557.52,197.07 581.71,494.09 24.18,297.03 -197.08,557.53 -494.11,581.71 -297.02,24.19 -557.52,-197.07 -581.7,-494.1 -24.2,-297.03 197.08,-557.52 494.1,-581.7z"/>
   <path class="fil4" d="M1921.09 14070.43l0 -696.02 289.82 0c72.74,0 125.72,6.3 158.68,18.79 33.1,12.48 59.52,34.66 79.28,66.55 19.88,32.12 29.82,68.6 29.82,109.7 0,52.36 -14.79,95.39 -44.85,129.46 -30.07,34.06 -74.79,55.39 -134.31,64.36 29.7,17.58 54.06,37.1 73.22,58.31 19.27,21.21 45.45,58.91 78.06,113.09l83.03 135.76 -164.49 0 -98.54 -152c-35.4,-53.95 -59.64,-88 -72.86,-102.07 -12.97,-13.93 -26.79,-23.63 -41.33,-28.85 -14.8,-5.2 -37.95,-7.75 -69.58,-7.75l-28 0 0 290.67 -137.95 0zm137.95 -401.47l101.94 0c65.95,0 107.03,-2.9 123.52,-8.6 16.24,-5.7 29.22,-15.52 38.54,-29.46 9.22,-13.94 13.83,-31.51 13.83,-52.37 0,-23.51 -6.19,-42.3 -18.31,-56.84 -12.24,-14.42 -29.45,-23.52 -51.76,-27.28 -11.27,-1.57 -44.72,-2.43 -100.37,-2.43l-107.39 0 0 176.98zm691.42 401.47l0 -696.02 504.38 0 0 117.57 -366.44 0 0 154.56 340.74 0 0 117.7 -340.74 0 0 188.61 379.65 0 0 117.58 -517.59 0zm740.76 -225.58l134.18 -13.57c8.11,45.82 24.24,79.39 48.85,100.97 24.48,21.58 57.69,32.24 99.39,32.24 44.13,0 77.46,-9.58 99.77,-28.73 22.42,-19.03 33.57,-41.45 33.57,-67.04 0,-16.48 -4.72,-30.42 -14.18,-42.17 -9.22,-11.52 -25.7,-21.46 -49.21,-29.94 -16.01,-5.83 -52.49,-15.89 -109.58,-30.43 -73.45,-18.79 -124.98,-41.83 -154.55,-69.21 -41.83,-38.43 -62.56,-85.22 -62.56,-140.5 0,-35.51 9.83,-68.85 29.47,-99.76 19.52,-31.02 47.76,-54.42 84.73,-70.67 36.96,-16.24 81.32,-24.36 133.58,-24.36 85.21,0 149.58,19.27 192.49,58.06 43.04,38.67 65.57,90.19 67.88,154.92l-138.07 4.85c-5.82,-36.01 -18.3,-61.7 -37.57,-77.47 -19.16,-15.75 -48.01,-23.63 -86.31,-23.63 -39.64,0 -70.79,8.36 -93.22,25.22 -14.42,10.91 -21.7,25.33 -21.7,43.52 0,16.48 6.8,30.54 20.49,42.18 17.21,15.15 59.28,30.66 126.07,46.91 66.79,16 116.13,32.84 147.89,50.05 32.11,17.34 57.08,40.86 75.26,70.8 18.07,29.94 27.04,66.91 27.04,110.8 0,39.88 -10.79,77.32 -32.49,112.12 -21.69,34.91 -52.37,60.73 -92,77.58 -39.52,17.09 -89.1,25.45 -148.25,25.45 -86.19,0 -152.25,-20.24 -198.31,-60.85 -46.18,-40.49 -73.57,-99.64 -82.66,-177.34zm966.21 225.58l0 -578.45 -201.83 0 0 -117.57 540.63 0 0 117.57 -200.86 0 0 578.45 -137.94 0zm524.63 -343.77c0,-71.03 10.41,-130.67 31.27,-178.91 15.39,-35.52 36.61,-67.4 63.4,-95.64 26.78,-28.12 56.12,-49.09 88,-62.79 42.54,-18.3 91.52,-27.64 147.04,-27.64 100.48,0 180.85,32 241.22,95.64 60.24,63.88 90.42,152.49 90.42,266.07 0,112.61 -30.06,200.74 -89.82,264.26 -59.88,63.63 -139.88,95.39 -239.88,95.39 -101.34,0 -182.19,-31.51 -241.95,-94.92 -59.77,-63.15 -89.7,-150.3 -89.7,-261.46zm141.82 -4.72c0,78.9 17.94,138.67 53.58,179.52 35.63,40.61 81.1,61.09 135.88,61.09 55.03,0 100.12,-20.24 135.52,-60.61 35.03,-40.48 52.73,-101.1 52.73,-181.94 0,-79.88 -17.22,-139.52 -51.64,-178.8 -34.18,-39.27 -79.63,-58.91 -136.61,-58.91 -56.73,0 -102.67,19.88 -137.34,59.64 -34.66,39.88 -52.12,99.76 -52.12,180.01zm769 -347.53l272.49 0c54.07,0 94.19,2.18 120.61,6.78 26.79,4.73 50.31,14.19 71.27,28.61 20.98,14.67 38.43,33.94 52.25,58.07 14.07,24.11 21.1,51.39 21.1,81.33 0,32.37 -8.61,62.43 -25.83,89.46 -17.09,27.15 -40.49,47.4 -69.7,61.1 41.34,12.48 73.1,33.45 95.53,63.27 22.18,29.82 33.21,64.85 33.21,105.22 0,31.76 -7.15,62.54 -21.58,92.48 -14.42,29.94 -34.06,53.94 -59.15,72.01 -24.86,17.81 -55.64,28.73 -92.25,32.97 -22.79,2.42 -78.19,4.12 -165.95,4.72l-232 0 0 -696.02zm137.94 115.64l0 160.37 90.19 0c53.33,0 86.79,-0.73 99.64,-2.42 23.52,-2.67 42.18,-11.04 55.52,-24.74 13.57,-13.81 20.24,-31.75 20.24,-54.18 0,-21.45 -5.94,-38.79 -17.46,-52.24 -11.63,-13.46 -28.85,-21.58 -51.76,-24.37 -13.7,-1.57 -52.85,-2.42 -117.33,-2.42l-79.04 0zm0 276.13l0 186.67 127.52 0c49.46,0 81.09,-1.45 94.31,-4.24 20.6,-3.88 37.22,-13.09 50.06,-27.88 12.84,-14.91 19.27,-34.54 19.27,-59.27 0,-21.09 -4.85,-38.79 -14.78,-53.34 -9.94,-14.54 -24.36,-25.33 -43.04,-31.88 -18.67,-6.67 -59.51,-10.06 -122.19,-10.06l-111.15 0zm1305.14 304.25l-148.49 0 -58.91 -158.43 -273.22 0 -56.49 158.43 -145.94 0 264.49 -696.02 145.71 0 272.85 696.02zm-252.13 -276.13l-94.67 -257.58 -91.89 257.58 186.56 0zm467.9 276.13l0 -696.02 289.83 0c72.73,0 125.7,6.3 158.67,18.79 33.09,12.48 59.52,34.66 79.28,66.55 19.76,32.12 29.82,68.6 29.82,109.7 0,52.36 -14.91,95.39 -44.86,129.46 -30.05,34.06 -74.79,55.39 -134.3,64.36 29.58,17.58 54.06,37.1 73.21,58.31 19.27,21.21 45.45,58.91 78.06,113.09l83.04 135.76 -164.49 0 -98.56 -152c-35.39,-53.95 -59.63,-88 -72.84,-102.07 -12.97,-13.93 -26.79,-23.63 -41.46,-28.85 -14.66,-5.2 -37.82,-7.75 -69.45,-7.75l-28.01 0 0 290.67 -137.94 0zm137.94 -401.47l101.95 0c65.93,0 106.91,-2.9 123.51,-8.6 16.25,-5.7 29.21,-15.52 38.55,-29.46 9.21,-13.94 13.82,-31.51 13.82,-52.37 0,-23.51 -6.18,-42.3 -18.42,-56.84 -12.12,-14.42 -29.34,-23.52 -51.64,-27.28 -11.28,-1.57 -44.74,-2.43 -100.37,-2.43l-107.4 0 0 176.98zm1558.13 317.11l-79.16 102.79c-38.67,-19.27 -76.01,-45.82 -111.65,-79.64 -27.39,25.22 -56.73,43.88 -87.63,55.88 -31.03,12.01 -67.77,17.94 -110.68,17.94 -84.61,0 -148.37,-24.48 -191.15,-73.21 -33.09,-37.58 -49.58,-80.97 -49.58,-130.07 0,-44.73 12.85,-84.97 39.15,-120.61 25.95,-35.63 64.98,-66.55 116.86,-92.85 -23.27,-28.12 -40.98,-55.03 -52.73,-80.61 -11.88,-25.7 -17.7,-49.83 -17.7,-72.61 0,-42.18 16.49,-77.94 49.45,-107.28 32.74,-29.33 79.89,-44.12 140.86,-44.12 58.67,0 104.6,15.39 137.71,46.07 33.21,30.78 49.7,68.24 49.7,112.6 0,28.25 -8.13,54.91 -24.37,80.25 -16.37,25.21 -49.22,53.94 -98.68,85.82l93.71 128.85c11.14,-20.12 20.6,-46.54 28.72,-78.91l118.19 27.04c-11.52,42.78 -21.94,74.18 -30.67,93.93 -8.6,19.77 -17.94,36.49 -27.88,49.83 14.55,13.93 33.46,29.09 56.61,45.82 23.16,16.73 40.12,27.63 50.92,33.09zm-355.41 -379.17l35.03 -27.75c25.82,-20.62 38.67,-40.98 38.67,-61.22 0,-17.21 -6.19,-31.76 -18.67,-43.76 -12.37,-12.12 -29.09,-18.18 -50.43,-18.18 -20.61,0 -36.85,5.33 -48.61,15.88 -11.51,10.78 -17.46,23.03 -17.46,36.97 0,16.48 9.95,36.48 29.58,60l31.89 38.06zm-51.04 145.1c-29.82,15.63 -52.24,34.42 -67.04,56.24 -14.77,21.94 -22.17,44.25 -22.17,66.92 0,28.84 9.09,52.48 27.52,70.66 18.17,18.31 42.78,27.4 73.7,27.4 20.36,0 39.99,-4 58.66,-12.37 18.79,-8.24 39.4,-21.82 61.58,-40.97l-132.25 -167.88zm1051.07 318.43l0 -578.45 -201.82 0 0 -117.57 540.5 0 0 117.57 -200.74 0 0 578.45 -137.94 0zm570.21 0l0 -696.02 504.38 0 0 117.57 -366.44 0 0 154.56 340.74 0 0 117.7 -340.74 0 0 188.61 379.65 0 0 117.58 -517.59 0zm776.87 0l0 -696.02 289.83 0c72.74,0 125.71,6.3 158.67,18.79 33.1,12.48 59.52,34.66 79.28,66.55 19.88,32.12 29.81,68.6 29.81,109.7 0,52.36 -14.91,95.39 -44.84,129.46 -30.07,34.06 -74.79,55.39 -134.3,64.36 29.69,17.58 54.06,37.1 73.21,58.31 19.27,21.21 45.45,58.91 78.06,113.09l83.03 135.76 -164.49 0 -98.55 -152c-35.39,-53.95 -59.63,-88 -72.85,-102.07 -12.97,-13.93 -26.79,-23.63 -41.46,-28.85 -14.66,-5.2 -37.81,-7.75 -69.46,-7.75l-28 0 0 290.67 -137.94 0zm137.94 -401.47l101.95 0c65.94,0 107.04,-2.9 123.52,-8.6 16.25,-5.7 29.21,-15.52 38.54,-29.46 9.22,-13.94 13.83,-31.51 13.83,-52.37 0,-23.51 -6.19,-42.3 -18.42,-56.84 -12.13,-14.42 -29.34,-23.52 -51.65,-27.28 -11.27,-1.57 -44.73,-2.43 -100.37,-2.43l-107.4 0 0 176.98zm691.43 401.47l0 -696.02 289.82 0c72.74,0 125.83,6.3 158.8,18.79 33.09,12.48 59.4,34.66 79.16,66.55 19.88,32.12 29.81,68.6 29.81,109.7 0,52.36 -14.78,95.39 -44.85,129.46 -29.93,34.06 -74.66,55.39 -134.3,64.36 29.69,17.58 54.18,37.1 73.21,58.31 19.4,21.21 45.46,58.91 78.07,113.09l83.03 135.76 -164.37 0 -98.67 -152c-35.27,-53.95 -59.64,-88 -72.85,-102.07 -12.85,-13.93 -26.79,-23.63 -41.33,-28.85 -14.8,-5.2 -37.83,-7.75 -69.59,-7.75l-28 0 0 290.67 -137.94 0zm137.94 -401.47l101.95 0c65.94,0 107.03,-2.9 123.52,-8.6 16.24,-5.7 29.33,-15.52 38.54,-29.46 9.21,-13.94 13.94,-31.51 13.94,-52.37 0,-23.51 -6.18,-42.3 -18.42,-56.84 -12.25,-14.42 -29.46,-23.52 -51.76,-27.28 -11.28,-1.57 -44.73,-2.43 -100.37,-2.43l-107.4 0 0 176.98zm1305.14 401.47l-148.49 0 -58.79 -158.43 -273.22 0 -56.61 158.43 -145.94 0 264.49 -696.02 145.71 0 272.85 696.02zm-252.01 -276.13l-94.67 -257.58 -92 257.58 186.67 0zm903.67 19.52l133.1 41.82c-20.49,76.61 -54.42,133.46 -102.07,170.67 -47.52,37.22 -107.88,55.76 -181.09,55.76 -90.43,0 -164.86,-31.52 -223.16,-94.79 -58.18,-63.15 -87.4,-149.46 -87.4,-259.16 0,-115.88 29.33,-205.94 87.76,-270.2 58.67,-64.12 135.64,-96.24 231.16,-96.24 83.4,0 151.16,25.33 203.15,75.76 31.04,29.82 54.19,72.49 69.71,128.49l-136.01 32.97c-8.11,-35.88 -24.84,-64.49 -50.42,-85.34 -25.7,-20.97 -56.73,-31.27 -93.21,-31.27 -50.68,0 -91.64,18.43 -123.16,55.52 -31.52,36.97 -47.16,96.97 -47.16,179.88 0,87.88 15.52,150.56 46.43,187.77 31.15,37.45 71.4,56.12 120.97,56.12 36.61,0 68.25,-11.88 94.56,-35.63 26.29,-23.88 45.33,-61.1 56.84,-112.13zm393.47 256.61l0 -696.02 504.38 0 0 117.57 -366.44 0 0 154.56 340.75 0 0 117.7 -340.75 0 0 188.61 379.66 0 0 117.58 -517.6 0z"/>
  </g>
 </g>
</svg>
