<svg width="125" height="47" viewBox="0 0 125 47" fill="none" xmlns="http://www.w3.org/2000/svg">
<path d="M25.271 0C27.8243 1.61333 29.411 3.92 30.031 6.92C31.551 14.3067 32.0277 21.9133 31.461 29.74C31.061 35.3333 29.011 40.1833 25.311 44.29C25.1386 44.489 24.9399 44.6608 24.721 44.8C20.621 47.43 17.601 44.47 15.331 41.35C12.0643 36.8567 9.441 32.1933 7.461 27.36C7.4261 27.2791 7.36606 27.2116 7.28979 27.1675C7.21352 27.1234 7.12508 27.105 7.03755 27.1151C6.95003 27.1252 6.86809 27.1633 6.80387 27.2236C6.73965 27.2839 6.69657 27.3633 6.681 27.45C6.03433 31.1433 5.161 35.81 4.061 41.45C3.841 42.5967 3.261 43.88 2.321 45.3C2.19127 45.4953 2.01294 45.6534 1.80354 45.7588C1.59415 45.8642 1.36092 45.9133 1.1268 45.9011C0.892688 45.889 0.665762 45.8162 0.46836 45.6897C0.270959 45.5633 0.109887 45.3876 0.000999996 45.18C-0.00566667 45.1733 0.0210002 44.78 0.0810002 44C0.261 41.5533 0.777667 37.7667 1.631 32.64C2.37767 28.1933 3.741 24.1033 5.721 20.37C5.78968 20.2412 5.889 20.1312 6.01021 20.0498C6.13141 19.9684 6.27078 19.9181 6.41603 19.9033C6.56127 19.8884 6.70793 19.9096 6.84308 19.9648C6.97823 20.0201 7.09771 20.1077 7.191 20.22L7.571 20.66C7.76258 20.8912 7.90848 21.1558 8.001 21.44C10.051 27.6 11.481 33 14.411 37.99C18.021 44.12 25.511 43.06 26.861 35.71C27.611 31.63 27.301 26.22 26.551 21.5C26.0777 18.5533 25.311 12.55 24.251 3.49C24.0643 1.87667 24.2677 0.713333 24.861 0H25.271Z" fill="black"/>
<path d="M117.6 17.0695L119.26 16.2995C119.402 16.2348 119.559 16.2143 119.712 16.2406C119.865 16.267 120.006 16.3389 120.118 16.447C120.229 16.5552 120.305 16.6944 120.336 16.8465C120.367 16.9987 120.351 17.1566 120.29 17.2995C118.224 22.2395 118.557 24.4395 121.29 23.8995C121.384 23.8796 121.474 23.8528 121.56 23.8195L123.92 22.7995C123.984 22.7714 124.055 22.7661 124.122 22.7845C124.189 22.8028 124.247 22.8438 124.287 22.9003C124.327 22.9569 124.346 23.0255 124.341 23.0947C124.337 23.1638 124.308 23.2291 124.26 23.2795C122.59 25.1695 119.42 27.1195 117.19 24.8195C115.97 23.5595 115.667 21.5229 116.28 18.7095C116.358 18.3524 116.517 18.0181 116.747 17.7334C116.976 17.4488 117.268 17.2214 117.6 17.0695Z" fill="black"/>
<path d="M40.4595 40.7696C40.5875 41.1295 40.7957 41.4555 41.0683 41.7231C41.3409 41.9907 41.6708 42.1929 42.033 42.3142C42.3951 42.4356 42.7802 42.4731 43.159 42.4237C43.5378 42.3744 43.9004 42.2396 44.2195 42.0296C46.3528 40.6362 50.4261 37.8896 56.4395 33.7896C59.3995 31.7796 63.9995 29.0496 67.6495 30.5596C69.8761 31.4862 71.5461 32.9329 72.6595 34.8996C73.0179 35.5356 73.1108 36.2874 72.9179 36.9915C72.725 37.6956 72.262 38.295 71.6295 38.6596L71.0695 38.9896C70.656 39.2255 70.1707 39.3018 69.706 39.2041C69.2413 39.1064 68.8297 38.8414 68.5495 38.4596L66.0395 35.0096C65.6312 34.4548 65.0399 34.0621 64.3702 33.9011C63.7004 33.7401 62.9953 33.821 62.3795 34.1296C61.5128 34.5696 55.5895 38.1562 44.6095 44.8896C43.3561 45.6562 41.7961 46.0296 39.9295 46.0096C39.571 46.0095 39.2257 45.8656 38.9695 45.6096C36.7228 43.3496 36.2328 40.8196 37.4995 38.0196C40.0661 32.3396 44.5461 28.4562 50.9395 26.3696C51.2017 26.2845 51.4804 26.2626 51.7527 26.3056C52.025 26.3487 52.2833 26.4555 52.5066 26.6173C52.7298 26.7791 52.9116 26.9914 53.0373 27.2368C53.1629 27.4822 53.2287 27.7539 53.2295 28.0296V28.4496C53.2292 28.9814 53.0774 29.5015 52.792 29.9482C52.5067 30.3949 52.0997 30.7493 51.6195 30.9696L42.6295 35.1196C41.6884 35.5531 40.9355 36.3118 40.5092 37.2562C40.0829 38.2005 40.012 39.2671 40.3095 40.2596L40.4595 40.7696Z" fill="black"/>
<path d="M114.02 45.6495C113.965 45.6924 113.901 45.7212 113.832 45.7331C113.764 45.7451 113.694 45.7398 113.629 45.7178C113.564 45.6958 113.506 45.6578 113.461 45.6074C113.416 45.557 113.384 45.4958 113.37 45.4295C112.696 42.4629 111.58 39.7929 110.02 37.4195C106.83 32.5695 101.91 33.1995 97.3996 35.9895C91.4396 39.6695 87.3096 42.4562 85.0096 44.3495C84.5963 44.6895 83.823 45.0462 82.6896 45.4195C82.5168 45.4772 82.3284 45.4683 82.1605 45.3945C81.9926 45.3207 81.857 45.1872 81.7796 45.0195L76.1296 32.7695C76.032 32.5604 75.9892 32.33 76.0052 32.0997C76.0212 31.8694 76.0955 31.6467 76.2212 31.4522C76.3469 31.2577 76.5199 31.0977 76.7241 30.9871C76.9284 30.8765 77.1573 30.8189 77.3896 30.8195H78.0496C78.5573 30.82 79.054 30.9653 79.481 31.2381C79.9081 31.511 80.2477 31.9002 80.4596 32.3595L83.4196 38.7795C83.4352 38.8149 83.4583 38.8466 83.4872 38.8723C83.5161 38.898 83.5502 38.9172 83.5872 38.9286C83.6242 38.9399 83.6632 38.9432 83.7016 38.9382C83.74 38.9332 83.7768 38.92 83.8096 38.8995C91.3096 34.3595 98.4396 29.2595 106.15 30.2495C113.15 31.1495 114.46 38.8595 114.27 44.8795C114.256 45.2795 114.173 45.5362 114.02 45.6495Z" fill="black"/>
<path d="M118.67 32.2102C118.674 32.0792 118.724 31.9537 118.81 31.8548C118.896 31.756 119.013 31.6898 119.143 31.6675C119.272 31.6452 119.405 31.6681 119.519 31.7323C119.633 31.7966 119.722 31.8983 119.77 32.0202C121.037 35.6869 122.163 39.1636 123.15 42.4502C123.47 43.5236 123.097 44.6369 122.03 45.7902C121.916 45.9119 121.77 45.9977 121.608 46.0368C121.446 46.0759 121.276 46.0667 121.12 46.0102C120.28 45.7102 119.733 44.9135 119.48 43.6202C118.947 40.8802 118.677 37.0769 118.67 32.2102Z" fill="black"/>
</svg>
