<svg width="2634" height="848" viewBox="0 0 2634 848" fill="none" xmlns="http://www.w3.org/2000/svg">
<path d="M384 2.35242C379.2 4.35242 205.2 138.352 176 162.352C172.8 165.152 139.6 190.752 102 218.752C33.2 270.752 7.2 297.552 2.4 320.752C1.2 327.152 0 431.952 0 553.152C0 794.752 0.8 803.152 22.8 824.752C44.8 845.552 58.8 847.552 181.6 847.552C322.8 847.552 322 847.952 277.2 796.352C235.2 748.352 244 751.952 165.2 751.552H96V546.352V341.552L119.2 323.552C157.6 293.552 196.8 263.152 224 241.952C238.4 230.752 278 199.952 312 173.552C346 147.152 379.6 121.152 386.8 116.352L399.2 107.552L432.8 132.352C451.2 146.352 468.8 159.552 472 162.352C475.2 164.752 528.4 205.552 590 251.952C651.6 298.752 703.2 339.152 704.8 341.152C706.4 343.552 707.6 436.352 706.8 547.552L706 749.552L556 751.552C473.6 752.752 405.6 754.352 405.6 754.752C405.2 755.152 391.2 771.152 374.4 790.352C344 824.752 337.2 839.952 350.4 845.152C354 846.352 442.8 847.552 548.4 847.552C760 847.552 756.4 847.952 778.8 822.352C799.6 798.352 800.4 787.552 799.2 539.152C798 288.752 799.2 301.152 770.4 274.752C760.8 265.552 619.2 155.952 528 86.7524C520.4 81.1524 501.6 66.3524 486 53.9524C422.8 3.95239 404.4 -5.24762 384 2.35242Z" fill="black"/>
<path d="M1890.4 3.95239C1856 11.1524 1822 29.1524 1797.2 54.3524C1767.6 83.9524 1763.6 89.1524 1753.2 113.552C1708.4 217.552 1760.4 334.752 1867.2 371.952C1895.6 381.952 1954.4 385.952 1986 379.952C2020.8 373.552 2072 346.752 2093.2 323.952C2102.8 313.952 2117.6 291.152 2126.4 273.552L2142 241.952V191.552C2142 141.152 2142 141.152 2126.8 109.952C2118.4 93.1524 2105.6 72.7524 2098.8 65.1524C2081.6 45.5524 2044 20.3524 2016.8 10.7524C1990 1.5524 1921.2 -2.4476 1890.4 3.95239ZM1991.6 83.9524C2040.8 105.152 2066.4 164.752 2052 225.152C2032 308.352 1924.4 337.952 1860.8 277.952C1845.2 263.552 1837.6 250.352 1829.6 223.952C1822.4 199.952 1822.4 181.952 1830.4 155.152C1850.8 86.7524 1923.6 54.3524 1991.6 83.9524Z" fill="black"/>
<path d="M986 8.35223C984.8 11.1523 984.4 95.5522 984.8 195.552L986 377.552H1028H1070L1072 327.552L1074 277.552L1132 274.752C1164 273.552 1196.8 270.352 1204.8 268.352C1246.4 257.552 1281.6 229.952 1297.2 196.352C1304 181.552 1305.6 169.552 1306 139.552C1306 105.952 1304.8 99.1523 1295.2 81.5522C1277.2 47.1523 1252.8 27.5522 1208.4 12.7522C1182.8 3.95224 989.2 -0.04776 986 8.35223ZM1189.2 85.5522C1209.6 95.9522 1222 121.152 1218.8 147.552C1216 171.552 1210 181.552 1192 192.752C1179.6 200.752 1172.8 201.552 1126 201.552H1074L1072.8 143.552C1072.4 111.952 1072.8 83.5522 1074 80.3522C1077.2 71.5522 1168.8 75.5522 1189.2 85.5522Z" fill="black"/>
<path d="M1371.2 5.95224C1369.2 7.55225 1368 91.1523 1368 191.952C1368 354.752 1368.8 375.152 1374.4 377.152C1378 378.352 1394.8 379.552 1412 379.552C1429.2 379.552 1446 378.352 1449.6 377.152C1454.8 375.152 1456 366.752 1456 325.152V275.552H1495.6H1535.2L1570.8 326.352L1606 377.552L1647.6 378.752C1670.4 379.152 1691.2 377.952 1693.2 375.952C1696.8 372.352 1686 355.152 1639.2 291.152C1628.8 276.352 1620 262.752 1620 260.352C1620 258.352 1628 251.552 1638 245.952C1673.6 224.752 1694 181.552 1691.2 131.952C1687.6 71.9522 1656.4 33.1523 1596 13.5522C1578 7.95224 1555.2 6.35223 1474 4.75223C1419.2 3.55225 1372.8 4.35223 1371.2 5.95224ZM1571.6 85.1523C1590.8 95.1523 1599.2 106.752 1602.4 126.752C1606.4 154.352 1598 178.352 1578.8 190.752C1563.6 200.752 1559.2 201.552 1509.2 202.752L1456 204.352V142.752C1456 108.752 1457.2 79.5522 1459.2 77.9522C1460.8 75.9522 1483.6 75.5522 1510 76.3522C1546 77.5522 1561.2 79.9522 1571.6 85.1523Z" fill="black"/>
<path d="M2212.8 8.35223C2205.2 15.9522 2206 368.752 2213.6 375.152C2217.2 378.352 2232.4 379.552 2256.4 378.752L2294 377.552L2296 311.552L2298 245.552L2382 243.552L2466 241.552V207.552V173.552L2382 171.552L2298 169.552V123.552V77.5522L2394 75.5522L2490 73.5522V39.5522V5.55222L2354 4.35223C2251.2 3.55222 2216.4 4.75223 2212.8 8.35223Z" fill="black"/>
<path d="M2552.8 8.35223C2545.2 15.9522 2546 368.752 2553.6 375.152C2557.2 378.352 2572.4 379.552 2596.4 378.752L2634 377.552V191.552V5.55222L2596 4.35223C2569.6 3.55222 2556.4 4.75223 2552.8 8.35223Z" fill="black"/>
<path d="M453.2 468.352C386.8 535.152 330.4 589.952 328.4 590.752C326.4 591.552 300 567.552 269.6 537.952C239.6 507.952 212 483.552 208.4 483.552C198.8 483.552 148 535.952 148 545.552C148.4 550.352 183.2 589.552 235.6 643.152C305.2 714.752 324 731.952 330.4 729.952C334.4 728.752 407.6 657.952 492.8 572.352C621.6 443.552 647.2 415.952 645.6 408.752C642.4 397.152 590.8 347.552 581.6 347.552C577.6 347.552 522.4 399.552 453.2 468.352Z" fill="black"/>
<path d="M984 661.552V847.952L1025.2 846.752L1066 845.552L1068 741.552C1070 644.352 1070.4 638.352 1076.4 647.552C1089.6 668.352 1123.2 723.152 1148 764.352L1174 807.552H1194.4H1214.8L1265.6 721.552C1294 674.352 1318.4 635.552 1320.4 635.552C1322.4 635.552 1324 682.752 1324 741.552V847.552H1364H1404V661.552V475.152L1367.6 476.352L1330.8 477.552L1280.4 561.952C1252.8 608.752 1223.2 658.752 1214.8 673.152C1206.4 687.552 1198.4 699.552 1196.4 699.552C1192.8 699.552 1176.4 675.552 1160.8 647.552C1148.8 625.952 1063.6 486.352 1059.2 480.352C1056.4 477.152 1043.2 475.552 1019.6 475.552H984V661.552Z" fill="black"/>
<path d="M1586 528.352C1573.2 557.552 1555.6 596.752 1547.2 614.752C1538.8 633.152 1532 649.152 1532 649.952C1532 650.752 1525.6 665.552 1517.6 682.352C1501.2 718.352 1499.6 721.552 1470.4 787.152C1458 814.352 1448 839.152 1448 842.352C1448 846.752 1456.4 847.552 1490.8 846.752L1533.6 845.552L1550 807.552L1566 769.552L1650.4 768.352C1743.6 767.152 1737.6 765.552 1750 795.552C1754 805.552 1760.8 821.152 1764.8 830.352L1772 847.552H1854.4C1914.8 847.552 1938 846.352 1941.2 842.352C1944 839.952 1957.6 820.352 1972 799.552C2013.2 738.352 2022 726.352 2026.8 724.752C2029.2 723.952 2040 736.352 2050.4 752.352C2061.2 768.352 2080.8 796.352 2093.6 814.352L2116.8 847.552H2164.4C2203.2 847.552 2212 846.352 2212 841.952C2212 838.752 2210 834.752 2208 833.552C2205.6 831.952 2198.8 823.552 2193.2 814.352C2187.6 805.152 2181.6 796.752 2180.4 795.552C2175.2 791.552 2080 656.752 2080 653.552C2080 651.952 2089.6 637.952 2101.2 621.952C2112.8 606.352 2134 577.152 2148 557.552C2162.4 537.552 2180.4 512.352 2188.8 501.552C2197.2 490.352 2204 480.352 2204 478.352C2204 476.752 2183.6 475.552 2158.4 475.552H2113.2L2074 531.952C2052.4 562.752 2033.2 588.752 2031.6 589.952C2028 591.952 2025.6 588.752 1976 518.352L1946 475.552H1899.2C1870 475.552 1852 477.152 1852 479.552C1852 481.952 1879.2 521.552 1912.8 568.352C1946 615.152 1973.2 655.152 1973.2 657.952C1973.2 660.352 1946.8 699.152 1914 743.552C1860.4 816.752 1854 823.952 1849.2 817.152C1846.4 813.152 1844 807.152 1844 803.552C1844 799.952 1842.4 795.552 1840.4 793.152C1838.4 791.152 1823.2 758.752 1806.8 721.552C1790 683.952 1758.8 613.952 1736.8 565.552L1697.2 477.552L1653.6 476.352L1609.6 475.152L1586 528.352ZM1680.8 627.552C1694 659.552 1705.2 689.152 1705.6 693.552C1706 701.152 1704 701.552 1652 700.352C1622.4 699.552 1597.6 698.352 1597.2 697.952C1596.4 697.152 1626.4 622.352 1637.6 597.552C1640.8 590.752 1644.4 581.552 1646 576.352C1647.6 571.152 1650.4 567.552 1652.8 568.352C1654.8 569.152 1667.6 595.952 1680.8 627.552Z" fill="black"/>
</svg>
