<svg width="707" height="378" viewBox="0 0 707 378" fill="none" xmlns="http://www.w3.org/2000/svg">
<path d="M66.2501 28.5799C63.9968 28.4266 61.9968 28.3966 60.2501 28.4899C51.6435 28.9566 42.5535 30.1866 32.9801 32.1799C30.4801 32.7099 29.4701 33.6799 28.8501 35.9099C26.4201 44.6899 27.6501 53.4499 28.6401 64.9499C28.9801 68.9099 29.2035 73.8099 29.3101 79.6499C29.8701 110.34 29.6401 141.74 29.9301 172.84C30.1168 192.307 30.2135 202.357 30.2201 202.99C30.3301 213.14 29.4301 225.22 29.8101 236C30.3235 250.34 30.8968 273.627 31.5301 305.86C31.7801 318.79 28.6301 331.62 30.5701 344.11C30.9101 346.283 31.6768 348.053 32.8701 349.42C33.1758 349.778 33.5889 350.03 34.0501 350.14C47.0368 353.133 59.8468 354.51 72.4801 354.27C74.2401 354.24 76.0801 353.72 77.5001 353.75C102.973 354.29 126.723 354.59 148.75 354.65C149.61 354.65 150.527 354.653 151.5 354.66C167.153 354.74 177.177 354.78 181.57 354.78C193.77 354.77 205.09 353.02 217.7 353.76C222.36 354.04 226.75 353.4 230.62 352.85C235.2 352.2 241.99 352.43 246.2 352.58C273.467 353.547 303.067 354.763 335 356.23C338.513 356.39 346.097 356.29 357.75 355.93C358.154 355.917 358.556 355.839 358.94 355.7C360.987 354.947 363.057 354.507 365.15 354.38C368.797 354.16 373.237 353.813 378.47 353.34C380.43 353.16 383.733 353.273 388.38 353.68C392.253 354.013 395.53 354.193 398.21 354.22C428.517 354.52 455.747 354.707 479.9 354.78C484.08 354.793 488.307 354.65 492.58 354.35C502.02 353.68 506.52 353.25 513.92 353.69C517.707 353.917 520.587 353.89 522.56 353.61C525.65 353.17 530.77 352.45 535.51 352.47C539.59 352.497 542.467 352.537 544.14 352.59C568.273 353.423 594.02 354.473 621.38 355.74C621.89 355.76 622.4 355.696 622.89 355.55L627.4 354.19C627.427 354.183 627.454 354.18 627.48 354.18C634.32 354.3 641.57 354.293 649.23 354.16C654.803 354.067 664.033 352.79 676.92 350.33C677.296 350.257 677.653 350.108 677.97 349.89C681.48 347.45 681.6 338.45 681.49 334.24C681.27 326.05 680.02 317.62 679.96 309.99C679.927 305.49 679.983 299.473 680.13 291.94C680.583 268.933 680.99 253.007 681.35 244.16C681.743 234.46 681.78 225.357 681.46 216.85C681.1 207.46 681.39 195.94 681.38 183.5C681.353 150.473 681.603 114.823 682.13 76.5499C682.29 64.7399 684.37 53.2799 683.64 41.7799C683.473 39.1266 682.89 36.6732 681.89 34.4199C681.65 33.8797 681.281 33.4056 680.816 33.0381C680.351 32.6707 679.804 32.4208 679.22 32.3099C672.32 30.9999 665.23 29.3499 658.15 29.8199C649.81 30.3699 643.08 31.1099 635.6 31.0499C610.807 30.8366 585.527 30.3232 559.76 29.5099C556.873 29.4232 552.1 29.5199 545.44 29.7999C541.133 29.9866 536.347 30.0499 531.08 29.9899C506.833 29.7232 480.113 29.6532 450.92 29.7799C450.1 29.7799 449.01 29.4799 448.25 29.4799C432.017 29.5399 414.937 29.4032 397.01 29.0699C392.23 28.9766 385.41 29.4399 376.55 30.4599C375.999 30.5263 375.444 30.5196 374.9 30.4399C361.87 28.6599 349.08 31.1499 335.9 31.0299C312.533 30.8232 287.733 30.3132 261.5 29.4999C259.133 29.4266 254.413 29.5332 247.34 29.8199C243.053 29.9866 238.327 30.0432 233.16 29.9899C209.04 29.7232 182.3 29.6532 152.94 29.7799C152.654 29.7799 152.366 29.7498 152.08 29.6899C151.46 29.5566 151.02 29.4899 150.76 29.4899C131.42 29.5299 115.857 29.4066 104.07 29.1199C98.9568 28.9932 94.2635 28.6966 89.9901 28.2299C87.3968 27.9432 84.5735 27.9699 81.5201 28.3099C78.6268 28.6299 74.9801 28.6032 70.5801 28.2299C69.2101 28.1099 67.4601 28.6599 66.2501 28.5799Z" stroke="#757828" stroke-width="2"/>
<path d="M395.949 299.5C398.043 303.653 400.916 305.95 404.569 306.39C411.423 307.217 416.756 304.547 420.569 298.38C420.88 297.891 421.093 297.348 421.199 296.78C424.253 280.88 425.933 265.63 426.239 251.03C426.379 244.31 427.059 239.18 428.749 233.25C430.159 228.27 431.979 224.76 436.699 223.18C443.669 220.84 451.499 221.83 459.249 222.99C465.189 223.88 473.389 225.28 474.629 232.15C475.449 236.67 474.339 243.95 475.769 249.73C477.716 257.583 479.333 266.05 480.619 275.13C481.299 279.95 482.669 283.59 484.199 288.3C484.546 289.38 484.829 290.97 485.049 293.07C485.089 293.448 485.183 293.818 485.329 294.17C488.319 301.46 488.009 306.67 488.839 316.66C489.669 326.63 496.949 338 508.169 338.48C512.129 338.65 516.179 336.87 516.439 332.74C516.653 329.327 516.423 326.583 515.749 324.51C514.043 319.263 512.666 312.923 511.619 305.49C511.329 303.41 510.619 300.84 509.699 298.2C507.353 291.467 506.013 286.413 505.679 283.04C504.779 274.013 502.703 265.707 499.449 258.12C498.789 256.58 498.516 255.037 498.629 253.49C498.869 250.137 498.506 246.573 497.539 242.8C496.466 238.62 495.179 233.41 493.679 227.17C493.274 225.468 493.049 223.728 493.009 221.98C492.883 216.56 492.506 212.607 491.879 210.12C488.519 196.81 486.189 189.71 486.179 178.26C486.179 175.48 485.413 170.833 483.879 164.32C479.973 147.713 476.259 131.107 472.739 114.5C469.613 99.7199 467.639 84.1133 466.819 67.6799C466.573 62.7199 465.879 58.6866 464.739 55.5799C463.499 52.1999 456.679 42.7799 451.679 46.4499C445.339 51.0999 443.889 58.2599 442.249 65.9899C438.759 82.3999 436.539 92.1299 435.239 104.86C435.146 105.777 434.945 106.68 434.639 107.55C433.493 110.843 432.699 113.76 432.259 116.3C431.019 123.55 429.659 127.31 428.309 134.26C424.416 154.213 420.309 174.06 415.989 193.8C413.349 205.85 411.369 217.28 408.379 228.89C407.799 231.15 407.509 233.187 407.509 235C407.516 239.4 406.999 243.393 405.959 246.98C403.419 255.73 402.309 258.67 401.499 266.82C400.419 277.64 397.499 290.57 395.799 298.25C395.708 298.671 395.761 299.111 395.949 299.5Z" stroke="#757828" stroke-width="2"/>
<path d="M494.961 63.5704C496.081 63.537 496.774 63.5904 497.041 63.7304C500.654 65.617 504.514 66.337 508.621 65.8904C508.734 65.877 509.987 65.8304 512.381 65.7504C525.834 65.317 539.167 66.477 552.381 69.2304C553.767 69.517 554.644 69.8304 555.011 70.1704C559.481 74.2904 558.031 91.3504 557.441 97.9904C556.914 103.89 556.631 109.407 556.591 114.54C556.331 149.9 556.861 181.42 556.721 216.16C556.711 219.64 557.181 224.38 556.961 228.52C556.651 234.35 556.651 240.37 556.851 245.47C557.324 258.19 557.561 264.56 557.561 264.58C558.031 272.45 556.951 281.7 556.801 289.24C556.761 291.44 557.167 294.624 558.021 298.79C558.801 302.63 559.081 304.94 559.001 308.75C558.831 318.13 557.021 329.64 564.101 337.25C569.931 343.53 577.711 340.72 581.261 333.95C583.961 328.79 584.131 321.34 583.421 315.52C582.167 305.28 581.451 296.69 581.271 289.75C580.931 276.344 580.701 262.877 580.581 249.35C580.521 243.14 579.661 238.41 578.731 232.01C577.951 226.73 579.201 219.06 578.771 215C577.211 200.194 576.544 185.024 576.771 169.49C577.101 147.41 576.671 122.78 577.251 83.3604C577.304 79.707 577.614 77.187 578.181 75.8004C581.451 67.8004 595.611 66.0404 603.271 66.2404C614.124 66.5137 619.871 66.6537 620.511 66.6604C626.321 66.7504 650.511 65.8304 646.691 55.1904C644.511 49.1004 630.861 47.1004 625.271 46.7604C611.231 45.9137 595.727 45.7404 578.761 46.2404C548.741 47.1204 532.041 47.2004 507.531 49.5904C500.981 50.2304 494.261 52.8904 493.741 60.5204C493.714 60.8737 493.904 61.7337 494.311 63.1004C494.351 63.2401 494.437 63.3624 494.555 63.4476C494.672 63.5328 494.815 63.576 494.961 63.5704Z" stroke="#757828" stroke-width="2"/>
<path d="M257.151 47.3003C251.111 53.5803 248.501 62.1503 248.251 71.0803C248.238 71.526 248.184 71.9711 248.091 72.4103C247.751 73.9903 246.894 77.0403 245.521 81.5603C244.191 85.9803 244.131 90.5103 243.711 94.5003C243.371 97.6869 242.998 99.7169 242.591 100.59C239.221 107.9 238.861 114.53 237.951 122.96C237.731 125.014 236.918 128.45 235.511 133.27C233.341 140.74 232.241 143.72 231.411 149.14C231.404 149.154 231.148 151.13 230.641 155.07C229.191 166.31 225.571 177.36 223.511 188.75C221.944 197.384 219.771 207.944 216.991 220.43C216.238 223.804 215.514 228.027 214.821 233.1C213.311 244.05 210.121 257.08 208.171 265.66C206.931 271.08 204.411 277.35 204.281 282.51C204.101 289.837 203.871 294.01 203.591 295.03C202.338 299.617 200.904 305.28 199.291 312.02C197.771 318.39 194.601 334.73 202.821 338C204.741 338.77 207.661 338.48 209.781 338.46C210.381 338.457 210.974 338.325 211.521 338.073C212.068 337.821 212.555 337.456 212.951 337C218.301 330.81 221.161 322.14 223.751 313.58C225.941 306.36 226.991 297.57 228.931 291.1C229.831 288.07 229.871 284.41 230.241 281.26C230.374 280.149 230.602 279.048 230.921 277.97C232.221 273.577 232.891 270.41 232.931 268.47C233.024 263.45 233.041 257.58 232.981 250.86C232.921 242.77 235.461 236.42 237.281 228.59C238.391 223.78 241.351 222.64 246.241 222.11C253.471 221.31 276.391 220.94 279.671 229.6C281.011 233.127 281.831 236.694 282.131 240.3C283.091 251.56 283.071 258.16 285.671 267.36C289.821 282.03 292.031 289.15 292.871 301.7C293.621 312.88 296.281 324.22 302.631 333.52C302.889 333.904 303.214 334.242 303.591 334.52C307.751 337.61 311.381 338.01 316.461 338.5C317.854 338.634 319.004 338.29 319.911 337.47C323.251 334.424 324.228 330.644 322.841 326.13C320.741 319.33 319.311 313.69 318.551 309.21C317.998 305.964 317.041 302.194 315.681 297.9C313.608 291.394 312.064 283.9 311.051 275.42C310.931 274.429 310.717 273.448 310.411 272.49C308.411 266.28 306.801 261.4 306.111 254.77C305.551 249.33 304.041 243.84 302.541 237.87C300.961 231.6 300.231 223.89 299.271 217.39C298.321 211.05 295.981 204.36 294.751 198.52C293.731 193.727 292.418 184.63 290.811 171.23C289.798 162.777 288.734 156.484 287.621 152.35C281.371 129.07 278.541 110.47 274.771 84.0403C274.258 80.4469 273.928 77.3303 273.781 74.6903C273.251 65.1403 273.521 44.3903 258.401 46.6503C257.928 46.7214 257.489 46.9499 257.151 47.3003Z" stroke="#757828" stroke-width="2"/>
<path d="M176.63 83.6997C179.6 77.4297 178.56 69.7997 174.08 64.2897C170.95 60.4497 166.88 55.7997 162.07 54.6397C161.732 54.5552 161.431 54.366 161.21 54.0997C160.337 53.053 159.34 52.3564 158.22 52.0097C150.68 49.6964 142.867 48.4097 134.78 48.1497C132.487 48.0764 129.567 48.273 126.02 48.7397C99.2001 52.2697 78.6602 71.9997 76.7902 99.4497C76.2402 107.38 78.3702 117.6 78.5802 125.62C78.5934 126.105 78.6639 126.588 78.7902 127.06C80.2968 132.706 82.9335 138.45 86.7001 144.29C88.5268 147.13 91.7468 150.556 96.3601 154.57C99.9401 157.69 106.39 163.766 115.71 172.8C118.17 175.186 122.7 179.036 129.3 184.35C138.96 192.12 144.84 201.47 150.91 212.37C152.19 214.663 152.947 216.413 153.18 217.62C154.32 223.546 155.643 228.396 157.15 232.17C157.223 232.356 157.28 232.553 157.32 232.76L160.9 251.27C160.953 251.569 160.984 251.877 160.99 252.19C161.03 268.44 161.52 276.3 159.51 288.27C157.02 303.07 145.55 321.32 128.5 319.43C121.51 318.66 115.55 315.38 109.77 313.8C105.73 312.693 103.087 311.636 101.84 310.63C98.3501 307.81 96.4901 302.86 96.1401 298.54C95.5068 290.906 95.1335 286.396 95.0201 285.01C94.7868 282.103 94.1402 279.51 93.0802 277.23C91.2802 273.36 87.1202 269.91 82.6202 270.6C77.4002 271.4 73.3201 276.26 71.4601 280.94C68.6401 288.053 68.3468 295.21 70.5802 302.41C76.8402 322.61 94.0902 335.11 114.48 338.51C130.713 341.21 146.047 338.79 160.48 331.25C168.86 326.87 174.4 320.97 177.37 311.95C179.29 306.163 180.82 302.196 181.96 300.05C182.176 299.65 182.28 299.198 182.26 298.74C182.187 297.04 182.453 294.55 183.06 291.27C183.653 288.043 184.707 283.023 186.22 276.21C186.707 274.003 187.24 267.616 187.82 257.05C187.86 256.323 187.653 254.983 187.2 253.03C187.128 252.705 186.953 252.41 186.7 252.19C184.37 250.12 184.39 240.82 184 235.19C183.947 234.409 183.761 233.641 183.45 232.92C180.57 226.27 180.1 219.15 176.74 212.45C171.027 201.056 164.143 190.513 156.09 180.82C150.8 174.45 143.01 167.47 137.53 161.19C135.943 159.37 132.927 157.48 128.48 155.52C119.93 151.74 111.8 144.3 107.56 135.09C101.74 122.43 100.31 108.48 103.46 94.9897C105.1 87.9897 107.557 82.5097 110.83 78.5497C115.137 73.3497 121.073 69.2164 128.64 66.1497C133.53 64.1597 141.13 63.0297 145.05 66.6197C147.397 68.773 151.013 72.033 155.9 76.3997C156.305 76.7582 156.661 77.1648 156.96 77.6097C159.307 81.0697 162.47 83.473 166.45 84.8197C167.557 85.193 169.67 85.0564 172.79 84.4097C173.93 84.1697 174.78 84.3197 175.65 84.3197C175.855 84.3227 176.057 84.2657 176.231 84.1556C176.404 84.0456 176.543 83.8872 176.63 83.6997Z" stroke="#757828" stroke-width="2"/>
<path d="M354.679 48.4998C350.499 49.2064 348.163 49.6764 347.669 49.9098C338.859 54.1598 336.779 66.4698 336.649 75.3498C336.536 83.5898 336.403 91.8198 336.249 100.04C335.999 113.85 337.599 126.85 337.529 140.67C337.489 148.476 337.593 153.743 337.839 156.47C338.633 165.156 338.983 171.243 338.889 174.73C338.489 189.15 338.386 199.566 338.579 205.98C339.093 223.32 339.323 233.046 339.269 235.16C339.103 241.666 339.306 249.883 339.879 259.81C340.086 263.47 340.229 271.7 340.309 284.5C340.376 296.626 341.353 310.63 343.239 326.51C344.249 334.97 350.349 337.25 358.029 338.3C364.996 339.26 371.609 339.78 377.869 339.86C393.429 340.073 404.116 340.073 409.929 339.86C412.349 339.773 414.869 339.796 417.489 339.93C423.849 340.263 430.516 340.046 437.489 339.28C445.469 338.4 452.729 335.78 457.169 328.46C459.579 324.5 459.869 319.47 454.679 317.63C447.339 315.04 437.289 315.76 429.589 316.86C421.109 318.08 413.649 319.73 406.089 319.72C397.463 319.713 389.033 318.633 380.799 316.48C377.679 315.66 373.109 313.61 370.869 311.26C370.303 310.666 369.636 309.34 368.869 307.28C367.823 304.473 366.489 301.816 364.869 299.31C363.323 296.923 362.656 294.876 362.869 293.17C364.149 283.103 364.583 274.626 364.169 267.74C363.483 256.486 363.169 246.006 363.229 236.3C363.309 224.33 362.659 211.55 362.099 202.1C361.519 192.47 361.959 180.04 361.369 170.65C360.749 160.64 357.779 149.23 358.019 138.08C358.039 137.355 358.133 136.635 358.299 135.93C359.519 130.796 360.156 126.193 360.209 122.12C360.339 112.78 361.579 107.09 362.759 96.7498C363.173 93.1698 363.336 90.6698 363.249 89.2498C362.529 77.2964 361.753 68.9198 360.919 64.1198C360.153 59.6931 359.089 55.7098 357.729 52.1698C357.239 50.9298 355.719 49.7898 355.419 48.9398C355.365 48.791 355.262 48.6656 355.126 48.5853C354.991 48.505 354.833 48.4747 354.679 48.4998Z" stroke="#757828" stroke-width="2"/>
<path d="M455.67 109.17C455.613 109.026 455.512 108.904 455.38 108.823C455.249 108.742 455.094 108.706 454.94 108.721C454.786 108.736 454.642 108.8 454.528 108.905C454.414 109.009 454.337 109.148 454.309 109.3C454.039 110.68 453.529 113.34 452.649 115.13C450.819 118.85 448.769 122.62 448.379 126.57C447.899 131.457 447.523 136.173 447.249 140.72C446.989 144.94 444.949 148.81 444.509 153.17C444.189 156.44 443.889 163.81 442.349 168.82C440.663 174.307 439.116 179.773 437.709 185.22C436.599 189.55 435.159 203.11 441.929 203.55C442.909 203.617 447.323 204.027 455.17 204.78C456.716 204.933 458.433 204.93 460.319 204.77C465.799 204.3 469.889 202.92 469.779 196.43C469.766 195.457 469.149 191.733 467.929 185.26C467.858 184.888 467.676 184.547 467.409 184.28C464.939 181.9 465.329 177.14 465.679 174.09C465.785 173.185 465.717 172.269 465.479 171.39C463.039 162.25 462.319 152.77 460.009 135.01C458.683 124.83 457.406 116.88 456.179 111.16C455.959 110.12 455.79 109.457 455.67 109.17Z" stroke="#757828" stroke-width="2"/>
<path d="M261.791 108.79C261.777 108.741 261.746 108.698 261.704 108.67C261.661 108.641 261.61 108.628 261.56 108.633C261.509 108.638 261.461 108.66 261.425 108.696C261.389 108.732 261.366 108.779 261.361 108.83C261.321 111.8 259.201 111.25 258.381 113.14C255.081 120.82 253.861 129.66 252.751 137.76C251.218 148.927 249.914 160.677 248.841 173.01C248.641 175.31 248.078 178.067 247.151 181.28C247.007 181.786 246.743 182.252 246.381 182.64C244.448 184.693 243.421 187.32 243.301 190.52C243.228 192.427 243.151 194.417 243.071 196.49C242.781 203.95 249.891 205.02 256.021 205.23C263.671 205.5 274.471 205.74 276.141 196.91C276.461 195.217 276.031 192.207 274.851 187.88C273.378 182.513 272.414 178.14 271.961 174.76C269.401 155.687 266.571 136.603 263.471 117.51C263.038 114.85 262.478 111.943 261.791 108.79Z" stroke="#757828" stroke-width="2"/>
<path d="M258.54 110.76C258.86 110.907 259.156 110.924 259.43 110.81C259.49 110.786 259.543 110.745 259.58 110.691C259.617 110.638 259.638 110.574 259.639 110.509C259.64 110.443 259.621 110.379 259.586 110.324C259.551 110.269 259.5 110.226 259.44 110.2C259.213 110.1 258.966 110.084 258.7 110.15C258.629 110.171 258.563 110.21 258.51 110.262C258.457 110.315 258.419 110.378 258.401 110.445C258.384 110.511 258.388 110.577 258.413 110.633C258.437 110.69 258.482 110.734 258.54 110.76Z" stroke="#757828" stroke-width="2"/>
<path d="M10.9008 325.25C10.9808 325.216 11.0574 324.663 11.1308 323.59C11.6108 316.816 11.6308 309.37 11.1908 301.25C11.1508 300.476 11.0074 299.83 10.7608 299.31C10.6296 299.028 10.5712 298.715 10.5908 298.4C10.7974 294.666 10.5974 288.033 9.99078 278.5C9.95078 277.893 9.82411 277.343 9.61078 276.85C9.55802 276.731 9.53076 276.601 9.53078 276.47C9.54411 270.516 9.42078 265.64 9.16078 261.84C9.01411 259.673 9.00745 257.786 9.14078 256.18C9.40078 253.14 9.07078 251.42 9.59078 248.64C10.3508 244.586 10.2108 240.423 9.17078 236.15C8.88078 234.98 9.12078 233.29 8.96078 232.5C7.40078 225.1 7.29078 220.87 7.00078 211C6.86745 206.446 7.19745 203.233 7.99078 201.36C8.23454 200.8 8.35396 200.196 8.34078 199.59C8.26078 195.463 8.58745 190.103 9.32078 183.51C9.73078 179.82 9.36078 173.65 9.70078 169.04C9.86078 166.853 9.88745 164.693 9.78078 162.56C9.48078 156.29 9.70078 149.64 10.0108 144.26C10.1008 142.76 9.61078 139.81 9.74078 137.66C9.85411 135.666 9.84411 133.466 9.71078 131.06C9.16078 121.32 9.53078 111.23 9.68078 103C9.72078 100.84 9.31078 98.3897 9.30078 96.3197C9.17411 75.7397 8.86078 57.9964 8.36078 43.0897C8.28078 40.7497 7.55411 38.6131 6.18078 36.6797C5.98793 36.4032 5.90913 36.0629 5.96078 35.7297C7.07078 28.8597 4.42078 17.1697 9.77078 11.8997C10.0253 11.6452 10.3524 11.4712 10.7108 11.3997C13.8374 10.7464 15.6908 10.4264 16.2708 10.4397C22.8208 10.5497 28.0508 9.93972 34.2508 10.0897C42.8908 10.2964 47.9274 10.4364 49.3608 10.5097C49.8638 10.5362 50.3607 10.6477 50.8308 10.8397C54.1508 12.2197 56.7708 12.5397 60.4908 11.7197C63.0441 11.1597 64.5508 10.9031 65.0108 10.9497C71.2975 11.5631 77.0974 11.7797 82.4108 11.5997C85.7508 11.4897 89.4008 11.8097 93.7608 11.7297C95.6408 11.6897 98.0408 11.9797 100.961 12.5997C102.294 12.8797 104.674 12.8564 108.101 12.5297C109.066 12.4365 110.039 12.4131 111.011 12.4597C111.991 12.5097 113.211 12.6397 114.201 12.5197C122.131 11.5197 131.311 12.3297 138.321 12.2797C147.261 12.2131 153.594 12.2431 157.321 12.3697C159.227 12.4364 161.681 12.4464 164.681 12.3997C166.754 12.3664 169.197 12.3831 172.011 12.4497C181.204 12.6497 189.721 12.4231 197.561 11.7697C200.574 11.5231 202.274 11.4731 202.661 11.6197C202.926 11.7232 203.219 11.7338 203.491 11.6497C205.077 11.1431 208.511 11.1197 213.791 11.5797C218.031 11.9531 224.121 11.5331 232.061 10.3197C232.333 10.2732 232.608 10.2531 232.881 10.2597L281.391 11.4297C281.588 11.4298 281.783 11.4742 281.961 11.5597C284.374 12.6397 286.144 13.0397 287.271 12.7597C289.437 12.2197 291.101 11.9764 292.261 12.0297C302.381 12.4431 309.114 12.7431 312.461 12.9297C315.281 13.0797 317.121 15.0697 319.941 14.0897C320.894 13.7564 321.817 13.7397 322.711 14.0397C324.151 14.5264 325.687 14.4864 327.321 13.9197C327.935 13.7084 328.58 13.6167 329.221 13.6497C336.954 14.0164 342.464 14.1164 345.751 13.9497C349.931 13.7364 354.087 13.7364 358.221 13.9497C361.551 14.1197 366.721 11.7697 370.861 11.9597C373.001 12.0597 374.971 11.7964 376.771 11.1697C377.26 10.9978 377.778 10.9165 378.301 10.9297L388.651 11.1797C388.757 11.1864 388.861 11.2031 388.961 11.2297L391.841 12.1297C392.445 12.3155 393.074 12.4198 393.711 12.4397C393.731 12.4397 396.257 12.4197 401.291 12.3797C406.971 12.3297 414.011 13.4297 419.101 12.5397C421.601 12.0997 424.077 11.9731 426.531 12.1597C429.104 12.3531 430.671 12.4464 431.231 12.4397C440.551 12.3131 446.474 12.2431 449.001 12.2297C452.167 12.2097 454.454 12.3564 455.861 12.6697C456.126 12.7295 456.402 12.7564 456.681 12.7497C464.521 12.6597 473.171 12.0697 481.011 12.9897C481.382 13.0361 481.759 13.0294 482.131 12.9697C486.731 12.1897 491.161 11.9431 495.421 12.2297C499.931 12.5297 503.271 11.3297 507.481 11.5797C509.781 11.7131 512.181 11.7131 514.681 11.5797C518.791 11.3697 523.251 11.9497 526.021 11.8697C526.52 11.8564 527.021 11.813 527.521 11.7397C528.621 11.5864 530.551 11.1931 533.311 10.5597C535.201 10.1297 539.491 10.9497 541.931 10.8797C554.404 10.5131 567.167 10.8431 580.221 11.8697C586.891 12.3997 592.951 11.8097 599.381 12.5897C602.727 12.9897 606.824 13.1764 611.671 13.1497C615.657 13.1231 619.771 13.2764 624.011 13.6097C624.551 13.6564 625.507 13.4531 626.881 12.9997C627.317 12.8542 627.778 12.7898 628.241 12.8097C632.527 12.9831 636.607 12.6064 640.481 11.6797C640.846 11.5869 641.219 11.5432 641.591 11.5497C646.491 11.6497 650.401 11.0197 654.481 10.8397C666.174 10.3064 680.751 9.94972 698.211 9.76972C698.698 9.76336 699.175 9.91411 699.571 10.1997L702.271 12.1797C702.508 12.3574 702.702 12.5826 702.841 12.8397L705.171 17.2797C705.296 17.5163 705.364 17.7764 705.371 18.0397L705.471 35.2697C705.477 35.8383 705.321 36.3999 705.021 36.8897C702.287 41.4164 701.477 45.9697 702.591 50.5497C702.71 51.0255 702.737 51.521 702.671 52.0097C701.811 58.5397 702.891 65.1597 702.391 68.7097C701.864 72.4231 701.714 75.2764 701.941 77.2697C702.167 79.2831 702.257 81.1097 702.211 82.7497C702.031 89.0031 701.967 96.2964 702.021 104.63C702.021 104.98 702.089 105.326 702.221 105.65C702.421 106.136 702.501 106.506 702.461 106.76C702.074 108.973 702.107 111.27 702.561 113.65C702.614 113.93 702.594 114.156 702.501 114.33C702.447 114.436 702.377 114.546 702.291 114.66C702.179 114.824 702.114 115.01 702.101 115.2C701.411 125.45 701.821 134.29 701.461 146.07C701.427 147.163 701.514 148.94 701.721 151.4C701.901 153.59 701.671 156.09 701.811 158.54C702.111 163.593 702.574 169.746 703.201 177C703.427 179.58 703.271 183.746 702.731 189.5C702.591 190.926 702.824 193.396 703.431 196.91C704.017 200.33 704.324 202.793 704.351 204.3C704.411 207.713 704.384 211.196 704.271 214.75C703.764 230.063 702.974 247.69 701.901 267.63C701.881 267.922 701.834 268.217 701.761 268.51C701.234 270.483 701.011 272.33 701.091 274.05C701.384 280.463 701.121 285.89 700.301 290.33C700.194 290.908 700.158 291.499 700.191 292.09C700.551 297.956 700.294 302.933 699.421 307.02C699.407 307.08 699.401 307.14 699.401 307.2L699.451 319.09C699.451 319.116 699.454 319.147 699.461 319.18C700.434 322.093 700.481 325.246 699.601 328.64C699.467 329.16 699.687 330.57 700.261 332.87C700.38 333.341 700.444 333.828 700.451 334.32C700.471 338.7 700.291 342.89 703.121 346.25C703.379 346.566 703.517 346.959 703.511 347.36C703.391 352.393 703.214 356.77 702.981 360.49C702.801 363.463 702.134 366.106 700.981 368.42C699.267 371.873 696.614 373.4 693.021 373C689.574 372.62 686.481 372.453 683.741 372.5C680.947 372.553 679.121 372.533 678.261 372.44C676.447 372.26 674.611 372.17 672.751 372.17C672.564 372.17 671.631 372.04 669.951 371.78C669.651 371.733 669.35 371.713 669.051 371.72C663.121 371.87 660.931 372.17 656.471 372.06C653.631 371.986 651.134 372.486 648.981 373.56C648.639 373.731 648.259 373.82 647.871 373.82C636.231 373.833 628.897 373.793 625.871 373.7C625.617 373.693 625.254 373.576 624.781 373.35C624.485 373.212 624.16 373.147 623.831 373.16C621.844 373.253 618.281 373.246 613.141 373.14C596.694 372.806 581.604 372.47 567.871 372.13C560.857 371.956 554.734 371.926 549.501 372.04C524.641 372.6 499.691 371.88 472.671 372.02C468.857 372.04 465.741 371.97 463.321 371.81C459.621 371.57 455.261 371.25 450.911 371.72C447.951 372.033 444.831 372.123 441.551 371.99C430.361 371.53 422.111 372.04 412.041 371.48C408.674 371.293 403.511 371.313 396.551 371.54C396.252 371.553 395.95 371.533 395.651 371.48C391.924 370.806 387.374 370.413 382.001 370.3C381.207 370.286 380.674 370.563 380.401 371.13C380.087 371.77 379.601 372.046 378.941 371.96C371.621 371.006 364.017 370.84 356.131 371.46C344.181 372.4 332.211 372.22 323.251 372.05C322.417 372.03 320.957 372.3 318.871 372.86C318.28 373.012 317.675 373.086 317.071 373.08L305.141 372.96C304.504 372.953 303.879 372.788 303.321 372.48C302.554 372.06 302.001 371.786 301.661 371.66C300.994 371.413 300.377 371.33 299.811 371.41C296.771 371.84 294.401 370.98 291.401 371.28C287.681 371.66 283.561 371.87 278.951 371.22C273.804 370.486 268.837 370.483 264.051 371.21C259.551 371.896 256.047 372.173 253.541 372.04C230.791 370.87 205.051 372.3 184.171 371.91C176.357 371.756 168.911 371.763 161.831 371.93C154.677 372.103 147.234 372.1 139.501 371.92C129.321 371.69 121.121 372.14 112.081 371.55C108.041 371.28 104.071 371.76 99.6708 371.13C94.8374 370.436 88.7008 369.693 81.2608 368.9C80.0331 368.769 78.7946 368.991 77.6908 369.54C75.0308 370.86 72.0175 371.38 68.6508 371.1C65.1775 370.813 61.5908 371.053 57.8908 371.82C57.5392 371.893 57.1757 371.916 56.8108 371.89C55.2041 371.783 49.9674 371.59 41.1008 371.31C37.7808 371.203 34.7174 371.34 31.9108 371.72C28.3308 372.206 25.2574 372.346 22.6908 372.14C20.2108 371.94 18.0208 373.16 15.5108 372.99C15.1302 372.964 14.7625 372.843 14.4408 372.64C11.1141 370.52 9.22745 367.293 8.78078 362.96C8.64745 361.66 8.40745 358.493 8.06078 353.46C7.75078 348.94 8.81078 344.03 9.10078 339.36C9.12035 339.001 9.24543 338.654 9.46078 338.36L10.6408 336.79C10.8485 336.504 10.9605 336.161 10.9608 335.81L11.0708 325.86C11.0706 325.794 11.0533 325.732 11.0208 325.68L10.8508 325.43C10.8404 325.415 10.8333 325.398 10.8302 325.381C10.8271 325.363 10.8279 325.345 10.8327 325.328C10.8375 325.31 10.8461 325.295 10.8579 325.281C10.8697 325.268 10.8843 325.257 10.9008 325.25ZM66.2508 28.5797C63.9974 28.4264 61.9974 28.3964 60.2508 28.4897C51.6441 28.9564 42.5541 30.1864 32.9808 32.1797C30.4808 32.7097 29.4708 33.6797 28.8508 35.9097C26.4208 44.6897 27.6508 53.4497 28.6408 64.9497C28.9808 68.9097 29.2041 73.8097 29.3108 79.6497C29.8708 110.34 29.6408 141.74 29.9308 172.84C30.1174 192.306 30.2141 202.356 30.2208 202.99C30.3308 213.14 29.4308 225.22 29.8108 236C30.3241 250.34 30.8974 273.626 31.5308 305.86C31.7808 318.79 28.6308 331.62 30.5708 344.11C30.9108 346.283 31.6774 348.053 32.8708 349.42C33.1765 349.777 33.5896 350.029 34.0508 350.14C47.0374 353.133 59.8474 354.51 72.4808 354.27C74.2408 354.24 76.0808 353.72 77.5008 353.75C102.974 354.29 126.724 354.59 148.751 354.65C149.611 354.65 150.527 354.653 151.501 354.66C167.154 354.74 177.177 354.78 181.571 354.78C193.771 354.77 205.091 353.02 217.701 353.76C222.361 354.04 226.751 353.4 230.621 352.85C235.201 352.2 241.991 352.43 246.201 352.58C273.467 353.546 303.067 354.763 335.001 356.23C338.514 356.39 346.097 356.29 357.751 355.93C358.155 355.916 358.557 355.839 358.941 355.7C360.987 354.946 363.057 354.506 365.151 354.38C368.797 354.16 373.237 353.813 378.471 353.34C380.431 353.16 383.734 353.273 388.381 353.68C392.254 354.013 395.531 354.193 398.211 354.22C428.517 354.52 455.747 354.706 479.901 354.78C484.081 354.793 488.307 354.65 492.581 354.35C502.021 353.68 506.521 353.25 513.921 353.69C517.707 353.916 520.587 353.89 522.561 353.61C525.651 353.17 530.771 352.45 535.511 352.47C539.591 352.496 542.467 352.536 544.141 352.59C568.274 353.423 594.021 354.473 621.381 355.74C621.891 355.76 622.401 355.695 622.891 355.55L627.401 354.19C627.427 354.183 627.454 354.18 627.481 354.18C634.321 354.3 641.571 354.293 649.231 354.16C654.804 354.066 664.034 352.79 676.921 350.33C677.297 350.257 677.654 350.107 677.971 349.89C681.481 347.45 681.601 338.45 681.491 334.24C681.271 326.05 680.021 317.62 679.961 309.99C679.927 305.49 679.984 299.473 680.131 291.94C680.584 268.933 680.991 253.006 681.351 244.16C681.744 234.46 681.781 225.356 681.461 216.85C681.101 207.46 681.391 195.94 681.381 183.5C681.354 150.473 681.604 114.823 682.131 76.5497C682.291 64.7397 684.371 53.2797 683.641 41.7797C683.474 39.1264 682.891 36.6731 681.891 34.4197C681.65 33.8795 681.282 33.4054 680.817 33.038C680.352 32.6705 679.804 32.4207 679.221 32.3097C672.321 30.9997 665.231 29.3497 658.151 29.8197C649.811 30.3697 643.081 31.1097 635.601 31.0497C610.807 30.8364 585.527 30.3231 559.761 29.5097C556.874 29.4231 552.101 29.5197 545.441 29.7997C541.134 29.9864 536.347 30.0497 531.081 29.9897C506.834 29.7231 480.114 29.6531 450.921 29.7797C450.101 29.7797 449.011 29.4797 448.251 29.4797C432.017 29.5397 414.937 29.4031 397.011 29.0697C392.231 28.9764 385.411 29.4397 376.551 30.4597C376 30.5261 375.445 30.5194 374.901 30.4397C361.871 28.6597 349.081 31.1497 335.901 31.0297C312.534 30.8231 287.734 30.3131 261.501 29.4997C259.134 29.4264 254.414 29.5331 247.341 29.8197C243.054 29.9864 238.327 30.0431 233.161 29.9897C209.041 29.7231 182.301 29.6531 152.941 29.7797C152.655 29.7797 152.367 29.7496 152.081 29.6897C151.461 29.5564 151.021 29.4897 150.761 29.4897C131.421 29.5297 115.857 29.4064 104.071 29.1197C98.9574 28.9931 94.2641 28.6964 89.9908 28.2297C87.3974 27.9431 84.5741 27.9697 81.5208 28.3097C78.6274 28.6297 74.9808 28.6031 70.5808 28.2297C69.2108 28.1097 67.4608 28.6597 66.2508 28.5797Z" fill="#201600"/>
<path d="M66.2501 28.5799C67.4601 28.6599 69.2101 28.1099 70.5801 28.2299C74.9801 28.6032 78.6268 28.6299 81.5201 28.3099C84.5735 27.9699 87.3968 27.9432 89.9901 28.2299C94.2635 28.6966 98.9568 28.9932 104.07 29.1199C115.857 29.4066 131.42 29.5299 150.76 29.4899C151.02 29.4899 151.46 29.5566 152.08 29.6899C152.366 29.7498 152.654 29.7799 152.94 29.7799C182.3 29.6532 209.04 29.7232 233.16 29.9899C238.327 30.0432 243.053 29.9866 247.34 29.8199C254.413 29.5332 259.133 29.4266 261.5 29.4999C287.733 30.3132 312.533 30.8232 335.9 31.0299C349.08 31.1499 361.87 28.6599 374.9 30.4399C375.444 30.5196 375.999 30.5263 376.55 30.4599C385.41 29.4399 392.23 28.9766 397.01 29.0699C414.937 29.4032 432.017 29.5399 448.25 29.4799C449.01 29.4799 450.1 29.7799 450.92 29.7799C480.113 29.6532 506.833 29.7232 531.08 29.9899C536.347 30.0499 541.133 29.9866 545.44 29.7999C552.1 29.5199 556.873 29.4232 559.76 29.5099C585.527 30.3232 610.807 30.8366 635.6 31.0499C643.08 31.1099 649.81 30.3699 658.15 29.8199C665.23 29.3499 672.32 30.9999 679.22 32.3099C679.804 32.4208 680.351 32.6707 680.816 33.0381C681.281 33.4056 681.65 33.8797 681.89 34.4199C682.89 36.6732 683.473 39.1266 683.64 41.7799C684.37 53.2799 682.29 64.7399 682.13 76.5499C681.603 114.823 681.353 150.473 681.38 183.5C681.39 195.94 681.1 207.46 681.46 216.85C681.78 225.357 681.743 234.46 681.35 244.16C680.99 253.007 680.583 268.933 680.13 291.94C679.983 299.473 679.927 305.49 679.96 309.99C680.02 317.62 681.27 326.05 681.49 334.24C681.6 338.45 681.48 347.45 677.97 349.89C677.653 350.108 677.296 350.257 676.92 350.33C664.033 352.79 654.803 354.067 649.23 354.16C641.57 354.293 634.32 354.3 627.48 354.18C627.454 354.18 627.427 354.183 627.4 354.19L622.89 355.55C622.4 355.696 621.89 355.76 621.38 355.74C594.02 354.473 568.273 353.423 544.14 352.59C542.467 352.537 539.59 352.497 535.51 352.47C530.77 352.45 525.65 353.17 522.56 353.61C520.587 353.89 517.707 353.917 513.92 353.69C506.52 353.25 502.02 353.68 492.58 354.35C488.307 354.65 484.08 354.793 479.9 354.78C455.747 354.707 428.517 354.52 398.21 354.22C395.53 354.193 392.253 354.013 388.38 353.68C383.733 353.273 380.43 353.16 378.47 353.34C373.237 353.813 368.797 354.16 365.15 354.38C363.057 354.507 360.987 354.947 358.94 355.7C358.556 355.839 358.154 355.917 357.75 355.93C346.097 356.29 338.513 356.39 335 356.23C303.067 354.763 273.467 353.547 246.2 352.58C241.99 352.43 235.2 352.2 230.62 352.85C226.75 353.4 222.36 354.04 217.7 353.76C205.09 353.02 193.77 354.77 181.57 354.78C177.177 354.78 167.153 354.74 151.5 354.66C150.527 354.653 149.61 354.65 148.75 354.65C126.723 354.59 102.973 354.29 77.5001 353.75C76.0801 353.72 74.2401 354.24 72.4801 354.27C59.8468 354.51 47.0368 353.133 34.0501 350.14C33.5889 350.03 33.1758 349.778 32.8701 349.42C31.6768 348.053 30.9101 346.283 30.5701 344.11C28.6301 331.62 31.7801 318.79 31.5301 305.86C30.8968 273.627 30.3235 250.34 29.8101 236C29.4301 225.22 30.3301 213.14 30.2201 202.99C30.2135 202.357 30.1168 192.307 29.9301 172.84C29.6401 141.74 29.8701 110.34 29.3101 79.6499C29.2035 73.8099 28.9801 68.9099 28.6401 64.9499C27.6501 53.4499 26.4201 44.6899 28.8501 35.9099C29.4701 33.6799 30.4801 32.7099 32.9801 32.1799C42.5535 30.1866 51.6435 28.9566 60.2501 28.4899C61.9968 28.3966 63.9968 28.4266 66.2501 28.5799ZM395.95 299.5C398.043 303.653 400.917 305.95 404.57 306.39C411.423 307.217 416.757 304.547 420.57 298.38C420.881 297.891 421.094 297.348 421.2 296.78C424.253 280.88 425.933 265.63 426.24 251.03C426.38 244.31 427.06 239.18 428.75 233.25C430.16 228.27 431.98 224.76 436.7 223.18C443.67 220.84 451.5 221.83 459.25 222.99C465.19 223.88 473.39 225.28 474.63 232.15C475.45 236.67 474.34 243.95 475.77 249.73C477.717 257.583 479.333 266.05 480.62 275.13C481.3 279.95 482.67 283.59 484.2 288.3C484.547 289.38 484.83 290.97 485.05 293.07C485.09 293.448 485.184 293.818 485.33 294.17C488.32 301.46 488.01 306.67 488.84 316.66C489.67 326.63 496.95 338 508.17 338.48C512.13 338.65 516.18 336.87 516.44 332.74C516.653 329.327 516.423 326.583 515.75 324.51C514.043 319.263 512.667 312.923 511.62 305.49C511.33 303.41 510.62 300.84 509.7 298.2C507.353 291.467 506.013 286.413 505.68 283.04C504.78 274.013 502.703 265.707 499.45 258.12C498.79 256.58 498.517 255.037 498.63 253.49C498.87 250.137 498.507 246.573 497.54 242.8C496.467 238.62 495.18 233.41 493.68 227.17C493.275 225.468 493.05 223.728 493.01 221.98C492.883 216.56 492.507 212.607 491.88 210.12C488.52 196.81 486.19 189.71 486.18 178.26C486.18 175.48 485.413 170.833 483.88 164.32C479.973 147.713 476.26 131.107 472.74 114.5C469.613 99.7199 467.64 84.1132 466.82 67.6799C466.573 62.7199 465.88 58.6866 464.74 55.5799C463.5 52.1999 456.68 42.7799 451.68 46.4499C445.34 51.0999 443.89 58.2599 442.25 65.9899C438.76 82.3999 436.54 92.1299 435.24 104.86C435.147 105.777 434.946 106.68 434.64 107.55C433.493 110.843 432.7 113.76 432.26 116.3C431.02 123.55 429.66 127.31 428.31 134.26C424.417 154.213 420.31 174.06 415.99 193.8C413.35 205.85 411.37 217.28 408.38 228.89C407.8 231.15 407.51 233.187 407.51 235C407.517 239.4 407 243.393 405.96 246.98C403.42 255.73 402.31 258.67 401.5 266.82C400.42 277.64 397.5 290.57 395.8 298.25C395.709 298.671 395.762 299.111 395.95 299.5ZM494.96 63.5699C496.08 63.5366 496.773 63.5899 497.04 63.7299C500.653 65.6166 504.513 66.3366 508.62 65.8899C508.733 65.8766 509.987 65.8299 512.38 65.7499C525.833 65.3166 539.167 66.4766 552.38 69.2299C553.767 69.5166 554.643 69.8299 555.01 70.1699C559.48 74.2899 558.03 91.3499 557.44 97.9899C556.913 103.89 556.63 109.407 556.59 114.54C556.33 149.9 556.86 181.42 556.72 216.16C556.71 219.64 557.18 224.38 556.96 228.52C556.65 234.35 556.65 240.37 556.85 245.47C557.323 258.19 557.56 264.56 557.56 264.58C558.03 272.45 556.95 281.7 556.8 289.24C556.76 291.44 557.167 294.623 558.02 298.79C558.8 302.63 559.08 304.94 559 308.75C558.83 318.13 557.02 329.64 564.1 337.25C569.93 343.53 577.71 340.72 581.26 333.95C583.96 328.79 584.13 321.34 583.42 315.52C582.167 305.28 581.45 296.69 581.27 289.75C580.93 276.343 580.7 262.877 580.58 249.35C580.52 243.14 579.66 238.41 578.73 232.01C577.95 226.73 579.2 219.06 578.77 215C577.21 200.193 576.543 185.023 576.77 169.49C577.1 147.41 576.67 122.78 577.25 83.3599C577.303 79.7066 577.613 77.1866 578.18 75.7999C581.45 67.7999 595.61 66.0399 603.27 66.2399C614.123 66.5132 619.87 66.6532 620.51 66.6599C626.32 66.7499 650.51 65.8299 646.69 55.1899C644.51 49.0999 630.86 47.0999 625.27 46.7599C611.23 45.9132 595.727 45.7399 578.76 46.2399C548.74 47.1199 532.04 47.1999 507.53 49.5899C500.98 50.2299 494.26 52.8899 493.74 60.5199C493.713 60.8732 493.903 61.7332 494.31 63.0999C494.35 63.2397 494.436 63.3619 494.554 63.4471C494.672 63.5323 494.815 63.5756 494.96 63.5699ZM257.15 47.2999C251.11 53.5799 248.5 62.1499 248.25 71.0799C248.237 71.5256 248.183 71.9708 248.09 72.4099C247.75 73.9899 246.893 77.0399 245.52 81.5599C244.19 85.9799 244.13 90.5099 243.71 94.4999C243.37 97.6866 242.997 99.7166 242.59 100.59C239.22 107.9 238.86 114.53 237.95 122.96C237.73 125.013 236.917 128.45 235.51 133.27C233.34 140.74 232.24 143.72 231.41 149.14C231.403 149.153 231.147 151.13 230.64 155.07C229.19 166.31 225.57 177.36 223.51 188.75C221.943 197.383 219.77 207.943 216.99 220.43C216.237 223.803 215.513 228.027 214.82 233.1C213.31 244.05 210.12 257.08 208.17 265.66C206.93 271.08 204.41 277.35 204.28 282.51C204.1 289.837 203.87 294.01 203.59 295.03C202.337 299.617 200.903 305.28 199.29 312.02C197.77 318.39 194.6 334.73 202.82 338C204.74 338.77 207.66 338.48 209.78 338.46C210.38 338.456 210.973 338.324 211.52 338.073C212.067 337.821 212.554 337.455 212.95 337C218.3 330.81 221.16 322.14 223.75 313.58C225.94 306.36 226.99 297.57 228.93 291.1C229.83 288.07 229.87 284.41 230.24 281.26C230.373 280.149 230.601 279.048 230.92 277.97C232.22 273.577 232.89 270.41 232.93 268.47C233.023 263.45 233.04 257.58 232.98 250.86C232.92 242.77 235.46 236.42 237.28 228.59C238.39 223.78 241.35 222.64 246.24 222.11C253.47 221.31 276.39 220.94 279.67 229.6C281.01 233.127 281.83 236.693 282.13 240.3C283.09 251.56 283.07 258.16 285.67 267.36C289.82 282.03 292.03 289.15 292.87 301.7C293.62 312.88 296.28 324.22 302.63 333.52C302.888 333.904 303.213 334.242 303.59 334.52C307.75 337.61 311.38 338.01 316.46 338.5C317.853 338.633 319.003 338.29 319.91 337.47C323.25 334.423 324.227 330.643 322.84 326.13C320.74 319.33 319.31 313.69 318.55 309.21C317.997 305.963 317.04 302.193 315.68 297.9C313.607 291.393 312.063 283.9 311.05 275.42C310.93 274.429 310.716 273.448 310.41 272.49C308.41 266.28 306.8 261.4 306.11 254.77C305.55 249.33 304.04 243.84 302.54 237.87C300.96 231.6 300.23 223.89 299.27 217.39C298.32 211.05 295.98 204.36 294.75 198.52C293.73 193.727 292.417 184.63 290.81 171.23C289.797 162.777 288.733 156.483 287.62 152.35C281.37 129.07 278.54 110.47 274.77 84.0399C274.257 80.4466 273.927 77.3299 273.78 74.6899C273.25 65.1399 273.52 44.3899 258.4 46.6499C257.927 46.7211 257.488 46.9495 257.15 47.2999ZM176.63 83.6999C179.6 77.4299 178.56 69.7999 174.08 64.2899C170.95 60.4499 166.88 55.7999 162.07 54.6399C161.732 54.5554 161.431 54.3662 161.21 54.0999C160.337 53.0532 159.34 52.3566 158.22 52.0099C150.68 49.6966 142.867 48.4099 134.78 48.1499C132.487 48.0766 129.567 48.2732 126.02 48.7399C99.2001 52.2699 78.6601 71.9999 76.7901 99.4499C76.2401 107.38 78.3701 117.6 78.5801 125.62C78.5934 126.105 78.6639 126.588 78.7901 127.06C80.2968 132.707 82.9335 138.45 86.7001 144.29C88.5268 147.13 91.7468 150.557 96.3601 154.57C99.9401 157.69 106.39 163.767 115.71 172.8C118.17 175.187 122.7 179.037 129.3 184.35C138.96 192.12 144.84 201.47 150.91 212.37C152.19 214.663 152.947 216.413 153.18 217.62C154.32 223.547 155.643 228.397 157.15 232.17C157.223 232.356 157.28 232.554 157.32 232.76L160.9 251.27C160.953 251.569 160.983 251.877 160.99 252.19C161.03 268.44 161.52 276.3 159.51 288.27C157.02 303.07 145.55 321.32 128.5 319.43C121.51 318.66 115.55 315.38 109.77 313.8C105.73 312.693 103.087 311.637 101.84 310.63C98.3501 307.81 96.4901 302.86 96.1401 298.54C95.5068 290.907 95.1335 286.397 95.0201 285.01C94.7868 282.103 94.1401 279.51 93.0801 277.23C91.2801 273.36 87.1201 269.91 82.6201 270.6C77.4001 271.4 73.3201 276.26 71.4601 280.94C68.6401 288.053 68.3468 295.21 70.5801 302.41C76.8401 322.61 94.0901 335.11 114.48 338.51C130.713 341.21 146.047 338.79 160.48 331.25C168.86 326.87 174.4 320.97 177.37 311.95C179.29 306.163 180.82 302.197 181.96 300.05C182.176 299.651 182.28 299.198 182.26 298.74C182.187 297.04 182.453 294.55 183.06 291.27C183.653 288.043 184.707 283.023 186.22 276.21C186.707 274.003 187.24 267.617 187.82 257.05C187.86 256.323 187.653 254.983 187.2 253.03C187.128 252.705 186.953 252.41 186.7 252.19C184.37 250.12 184.39 240.82 184 235.19C183.947 234.409 183.761 233.641 183.45 232.92C180.57 226.27 180.1 219.15 176.74 212.45C171.027 201.057 164.143 190.513 156.09 180.82C150.8 174.45 143.01 167.47 137.53 161.19C135.943 159.37 132.927 157.48 128.48 155.52C119.93 151.74 111.8 144.3 107.56 135.09C101.74 122.43 100.31 108.48 103.46 94.9899C105.1 87.9899 107.557 82.5099 110.83 78.5499C115.137 73.3499 121.073 69.2166 128.64 66.1499C133.53 64.1599 141.13 63.0299 145.05 66.6199C147.397 68.7732 151.013 72.0332 155.9 76.3999C156.305 76.7584 156.661 77.165 156.96 77.6099C159.307 81.0699 162.47 83.4732 166.45 84.8199C167.557 85.1932 169.67 85.0566 172.79 84.4099C173.93 84.1699 174.78 84.3199 175.65 84.3199C175.855 84.3229 176.057 84.2659 176.231 84.1558C176.404 84.0458 176.543 83.8874 176.63 83.6999ZM354.68 48.4999C350.5 49.2066 348.163 49.6766 347.67 49.9099C338.86 54.1599 336.78 66.4699 336.65 75.3499C336.537 83.5899 336.403 91.8199 336.25 100.04C336 113.85 337.6 126.85 337.53 140.67C337.49 148.477 337.593 153.743 337.84 156.47C338.633 165.157 338.983 171.243 338.89 174.73C338.49 189.15 338.387 199.567 338.58 205.98C339.093 223.32 339.323 233.047 339.27 235.16C339.103 241.667 339.307 249.883 339.88 259.81C340.087 263.47 340.23 271.7 340.31 284.5C340.377 296.627 341.353 310.63 343.24 326.51C344.25 334.97 350.35 337.25 358.03 338.3C364.997 339.26 371.61 339.78 377.87 339.86C393.43 340.073 404.117 340.073 409.93 339.86C412.35 339.773 414.87 339.797 417.49 339.93C423.85 340.263 430.517 340.047 437.49 339.28C445.47 338.4 452.73 335.78 457.17 328.46C459.58 324.5 459.87 319.47 454.68 317.63C447.34 315.04 437.29 315.76 429.59 316.86C421.11 318.08 413.65 319.73 406.09 319.72C397.463 319.713 389.033 318.633 380.8 316.48C377.68 315.66 373.11 313.61 370.87 311.26C370.303 310.667 369.637 309.34 368.87 307.28C367.823 304.473 366.49 301.817 364.87 299.31C363.323 296.923 362.657 294.877 362.87 293.17C364.15 283.103 364.583 274.627 364.17 267.74C363.483 256.487 363.17 246.007 363.23 236.3C363.31 224.33 362.66 211.55 362.1 202.1C361.52 192.47 361.96 180.04 361.37 170.65C360.75 160.64 357.78 149.23 358.02 138.08C358.04 137.355 358.134 136.635 358.3 135.93C359.52 130.797 360.157 126.193 360.21 122.12C360.34 112.78 361.58 107.09 362.76 96.7499C363.173 93.1699 363.337 90.6699 363.25 89.2499C362.53 77.2966 361.753 68.9199 360.92 64.1199C360.153 59.6932 359.09 55.7099 357.73 52.1699C357.24 50.9299 355.72 49.7899 355.42 48.9399C355.366 48.7911 355.262 48.6658 355.127 48.5855C354.992 48.5051 354.834 48.4749 354.68 48.4999Z" fill="#CAD950"/>
<path d="M395.799 298.25C397.499 290.57 400.419 277.64 401.499 266.82C402.309 258.67 403.419 255.73 405.959 246.98C406.999 243.393 407.516 239.4 407.509 235C407.509 233.187 407.799 231.15 408.379 228.89C411.369 217.28 413.349 205.85 415.989 193.8C420.309 174.06 424.416 154.213 428.309 134.26C429.659 127.31 431.019 123.55 432.259 116.3C432.699 113.76 433.493 110.843 434.639 107.55C434.945 106.68 435.146 105.777 435.239 104.86C436.539 92.1299 438.759 82.3999 442.249 65.9899C443.889 58.2599 445.339 51.0999 451.679 46.4499C456.679 42.7799 463.499 52.1999 464.739 55.5799C465.879 58.6866 466.573 62.7199 466.819 67.6799C467.639 84.1133 469.613 99.7199 472.739 114.5C476.259 131.107 479.973 147.713 483.879 164.32C485.413 170.833 486.179 175.48 486.179 178.26C486.189 189.71 488.519 196.81 491.879 210.12C492.506 212.607 492.883 216.56 493.009 221.98C493.049 223.728 493.274 225.468 493.679 227.17C495.179 233.41 496.466 238.62 497.539 242.8C498.506 246.573 498.869 250.137 498.629 253.49C498.516 255.037 498.789 256.58 499.449 258.12C502.703 265.707 504.779 274.013 505.679 283.04C506.013 286.413 507.353 291.467 509.699 298.2C510.619 300.84 511.329 303.41 511.619 305.49C512.666 312.923 514.043 319.263 515.749 324.51C516.423 326.583 516.653 329.327 516.439 332.74C516.179 336.87 512.129 338.65 508.169 338.48C496.949 338 489.669 326.63 488.839 316.66C488.009 306.67 488.319 301.46 485.329 294.17C485.183 293.818 485.089 293.448 485.049 293.07C484.829 290.97 484.546 289.38 484.199 288.3C482.669 283.59 481.299 279.95 480.619 275.13C479.333 266.05 477.716 257.583 475.769 249.73C474.339 243.95 475.449 236.67 474.629 232.15C473.389 225.28 465.189 223.88 459.249 222.99C451.499 221.83 443.669 220.84 436.699 223.18C431.979 224.76 430.159 228.27 428.749 233.25C427.059 239.18 426.379 244.31 426.239 251.03C425.933 265.63 424.253 280.88 421.199 296.78C421.093 297.348 420.88 297.891 420.569 298.38C416.756 304.547 411.423 307.217 404.569 306.39C400.916 305.95 398.043 303.653 395.949 299.5C395.761 299.111 395.708 298.671 395.799 298.25ZM455.669 109.17C455.613 109.026 455.512 108.904 455.38 108.823C455.248 108.742 455.094 108.706 454.94 108.721C454.786 108.736 454.641 108.8 454.528 108.905C454.414 109.009 454.337 109.148 454.309 109.3C454.039 110.68 453.529 113.34 452.649 115.13C450.819 118.85 448.769 122.62 448.379 126.57C447.899 131.457 447.523 136.173 447.249 140.72C446.989 144.94 444.949 148.81 444.509 153.17C444.189 156.44 443.889 163.81 442.349 168.82C440.663 174.307 439.116 179.773 437.709 185.22C436.599 189.55 435.159 203.11 441.929 203.55C442.909 203.617 447.323 204.027 455.169 204.78C456.716 204.933 458.433 204.93 460.319 204.77C465.799 204.3 469.889 202.92 469.779 196.43C469.766 195.457 469.149 191.733 467.929 185.26C467.857 184.888 467.676 184.547 467.409 184.28C464.939 181.9 465.329 177.14 465.679 174.09C465.785 173.185 465.717 172.269 465.479 171.39C463.039 162.25 462.319 152.77 460.009 135.01C458.683 124.83 457.406 116.88 456.179 111.16C455.959 110.12 455.789 109.457 455.669 109.17Z" fill="#201600"/>
<path d="M494.311 63.1004C493.904 61.7337 493.714 60.8737 493.741 60.5204C494.261 52.8904 500.981 50.2304 507.531 49.5904C532.041 47.2004 548.741 47.1204 578.761 46.2404C595.727 45.7404 611.231 45.9137 625.271 46.7604C630.861 47.1004 644.511 49.1004 646.691 55.1904C650.511 65.8304 626.321 66.7504 620.511 66.6604C619.871 66.6537 614.124 66.5137 603.271 66.2404C595.611 66.0404 581.451 67.8004 578.181 75.8004C577.614 77.187 577.304 79.707 577.251 83.3604C576.671 122.78 577.101 147.41 576.771 169.49C576.544 185.024 577.211 200.194 578.771 215C579.201 219.06 577.951 226.73 578.731 232.01C579.661 238.41 580.521 243.14 580.581 249.35C580.701 262.877 580.931 276.344 581.271 289.75C581.451 296.69 582.167 305.28 583.421 315.52C584.131 321.34 583.961 328.79 581.261 333.95C577.711 340.72 569.931 343.53 564.101 337.25C557.021 329.64 558.831 318.13 559.001 308.75C559.081 304.94 558.801 302.63 558.021 298.79C557.167 294.624 556.761 291.44 556.801 289.24C556.951 281.7 558.031 272.45 557.561 264.58C557.561 264.56 557.324 258.19 556.851 245.47C556.651 240.37 556.651 234.35 556.961 228.52C557.181 224.38 556.711 219.64 556.721 216.16C556.861 181.42 556.331 149.9 556.591 114.54C556.631 109.407 556.914 103.89 557.441 97.9904C558.031 91.3504 559.481 74.2904 555.011 70.1704C554.644 69.8304 553.767 69.517 552.381 69.2304C539.167 66.477 525.834 65.317 512.381 65.7504C509.987 65.8304 508.734 65.877 508.621 65.8904C504.514 66.337 500.654 65.617 497.041 63.7304C496.774 63.5904 496.081 63.537 494.961 63.5704C494.815 63.576 494.672 63.5328 494.555 63.4476C494.437 63.3624 494.351 63.2401 494.311 63.1004Z" fill="#201600"/>
<path d="M258.399 46.6503C273.519 44.3903 273.249 65.1403 273.779 74.6903C273.926 77.3303 274.256 80.4469 274.769 84.0403C278.539 110.47 281.369 129.07 287.619 152.35C288.732 156.484 289.796 162.777 290.809 171.23C292.416 184.63 293.729 193.727 294.749 198.52C295.979 204.36 298.319 211.05 299.269 217.39C300.229 223.89 300.959 231.6 302.539 237.87C304.039 243.84 305.549 249.33 306.109 254.77C306.799 261.4 308.409 266.28 310.409 272.49C310.715 273.448 310.929 274.429 311.049 275.42C312.062 283.9 313.606 291.394 315.679 297.9C317.039 302.194 317.996 305.964 318.549 309.21C319.309 313.69 320.739 319.33 322.839 326.13C324.226 330.644 323.249 334.424 319.909 337.47C319.002 338.29 317.852 338.634 316.459 338.5C311.379 338.01 307.749 337.61 303.589 334.52C303.212 334.242 302.887 333.904 302.629 333.52C296.279 324.22 293.619 312.88 292.869 301.7C292.029 289.15 289.819 282.03 285.669 267.36C283.069 258.16 283.089 251.56 282.129 240.3C281.829 236.694 281.009 233.127 279.669 229.6C276.389 220.94 253.469 221.31 246.239 222.11C241.349 222.64 238.389 223.78 237.279 228.59C235.459 236.42 232.919 242.77 232.979 250.86C233.039 257.58 233.022 263.45 232.929 268.47C232.889 270.41 232.219 273.577 230.919 277.97C230.6 279.048 230.372 280.149 230.239 281.26C229.869 284.41 229.829 288.07 228.929 291.1C226.989 297.57 225.939 306.36 223.749 313.58C221.159 322.14 218.299 330.81 212.949 337C212.553 337.456 212.066 337.821 211.519 338.073C210.972 338.325 210.379 338.457 209.779 338.46C207.659 338.48 204.739 338.77 202.819 338C194.599 334.73 197.769 318.39 199.289 312.02C200.902 305.28 202.336 299.617 203.589 295.03C203.869 294.01 204.099 289.837 204.279 282.51C204.409 277.35 206.929 271.08 208.169 265.66C210.119 257.08 213.309 244.05 214.819 233.1C215.512 228.027 216.236 223.804 216.989 220.43C219.769 207.944 221.942 197.384 223.509 188.75C225.569 177.36 229.189 166.31 230.639 155.07C231.146 151.13 231.402 149.154 231.409 149.14C232.239 143.72 233.339 140.74 235.509 133.27C236.916 128.45 237.729 125.014 237.949 122.96C238.859 114.53 239.219 107.9 242.589 100.59C242.996 99.7169 243.369 97.6869 243.709 94.5003C244.129 90.5103 244.189 85.9803 245.519 81.5603C246.892 77.0403 247.749 73.9903 248.089 72.4103C248.182 71.9711 248.236 71.526 248.249 71.0803C248.499 62.1503 251.109 53.5803 257.149 47.3003C257.487 46.9499 257.926 46.7214 258.399 46.6503ZM261.789 108.79C261.775 108.741 261.744 108.699 261.702 108.67C261.659 108.642 261.608 108.628 261.558 108.633C261.507 108.638 261.459 108.66 261.423 108.696C261.387 108.732 261.364 108.779 261.359 108.83C261.319 111.8 259.199 111.25 258.379 113.14C255.079 120.82 253.859 129.66 252.749 137.76C251.216 148.927 249.912 160.677 248.839 173.01C248.639 175.31 248.076 178.067 247.149 181.28C247.005 181.786 246.741 182.252 246.379 182.64C244.446 184.694 243.419 187.32 243.299 190.52C243.226 192.427 243.149 194.417 243.069 196.49C242.779 203.95 249.889 205.02 256.019 205.23C263.669 205.5 274.469 205.74 276.139 196.91C276.459 195.217 276.029 192.207 274.849 187.88C273.376 182.514 272.412 178.14 271.959 174.76C269.399 155.687 266.569 136.604 263.469 117.51C263.036 114.85 262.476 111.944 261.789 108.79ZM258.539 110.76C258.859 110.907 259.156 110.924 259.429 110.81C259.49 110.786 259.542 110.745 259.58 110.691C259.617 110.637 259.637 110.574 259.638 110.509C259.639 110.443 259.621 110.379 259.586 110.324C259.55 110.269 259.499 110.226 259.439 110.2C259.212 110.1 258.966 110.084 258.699 110.15C258.629 110.17 258.563 110.209 258.509 110.262C258.456 110.315 258.418 110.378 258.401 110.445C258.383 110.511 258.387 110.577 258.412 110.633C258.437 110.69 258.481 110.734 258.539 110.76Z" fill="#201600"/>
<path d="M175.65 84.3197C174.78 84.3197 173.93 84.1697 172.79 84.4097C169.67 85.0564 167.557 85.193 166.45 84.8197C162.47 83.473 159.307 81.0697 156.96 77.6097C156.661 77.1648 156.305 76.7582 155.9 76.3997C151.013 72.033 147.397 68.773 145.05 66.6197C141.13 63.0297 133.53 64.1597 128.64 66.1497C121.073 69.2164 115.137 73.3497 110.83 78.5497C107.557 82.5097 105.1 87.9897 103.46 94.9897C100.31 108.48 101.74 122.43 107.56 135.09C111.8 144.3 119.93 151.74 128.48 155.52C132.927 157.48 135.943 159.37 137.53 161.19C143.01 167.47 150.8 174.45 156.09 180.82C164.143 190.513 171.027 201.056 176.74 212.45C180.1 219.15 180.57 226.27 183.45 232.92C183.761 233.641 183.947 234.409 184 235.19C184.39 240.82 184.37 250.12 186.7 252.19C186.953 252.41 187.128 252.705 187.2 253.03C187.653 254.983 187.86 256.323 187.82 257.05C187.24 267.616 186.707 274.003 186.22 276.21C184.707 283.023 183.653 288.043 183.06 291.27C182.453 294.55 182.187 297.04 182.26 298.74C182.28 299.198 182.176 299.65 181.96 300.05C180.82 302.196 179.29 306.163 177.37 311.95C174.4 320.97 168.86 326.87 160.48 331.25C146.047 338.79 130.713 341.21 114.48 338.51C94.0902 335.11 76.8402 322.61 70.5802 302.41C68.3468 295.21 68.6401 288.053 71.4601 280.94C73.3201 276.26 77.4002 271.4 82.6202 270.6C87.1202 269.91 91.2802 273.36 93.0802 277.23C94.1402 279.51 94.7868 282.103 95.0201 285.01C95.1335 286.396 95.5068 290.906 96.1401 298.54C96.4901 302.86 98.3501 307.81 101.84 310.63C103.087 311.636 105.73 312.693 109.77 313.8C115.55 315.38 121.51 318.66 128.5 319.43C145.55 321.32 157.02 303.07 159.51 288.27C161.52 276.3 161.03 268.44 160.99 252.19C160.984 251.877 160.953 251.569 160.9 251.27L157.32 232.76C157.28 232.553 157.223 232.356 157.15 232.17C155.643 228.396 154.32 223.546 153.18 217.62C152.947 216.413 152.19 214.663 150.91 212.37C144.84 201.47 138.96 192.12 129.3 184.35C122.7 179.036 118.17 175.186 115.71 172.8C106.39 163.766 99.9401 157.69 96.3601 154.57C91.7468 150.556 88.5268 147.13 86.7001 144.29C82.9335 138.45 80.2968 132.706 78.7902 127.06C78.6639 126.588 78.5934 126.105 78.5802 125.62C78.3702 117.6 76.2402 107.38 76.7902 99.4497C78.6602 71.9997 99.2001 52.2697 126.02 48.7397C129.567 48.273 132.487 48.0764 134.78 48.1497C142.867 48.4097 150.68 49.6964 158.22 52.0097C159.34 52.3564 160.337 53.053 161.21 54.0997C161.431 54.366 161.732 54.5552 162.07 54.6397C166.88 55.7997 170.95 60.4497 174.08 64.2897C178.56 69.7997 179.6 77.4297 176.63 83.6997C176.543 83.8872 176.404 84.0456 176.231 84.1556C176.057 84.2657 175.855 84.3227 175.65 84.3197Z" fill="#201600"/>
<path d="M355.419 48.9398C355.719 49.7898 357.239 50.9298 357.729 52.1698C359.089 55.7098 360.153 59.6931 360.919 64.1198C361.753 68.9198 362.529 77.2964 363.249 89.2498C363.336 90.6698 363.173 93.1698 362.759 96.7498C361.579 107.09 360.339 112.78 360.209 122.12C360.156 126.193 359.519 130.796 358.299 135.93C358.133 136.635 358.039 137.355 358.019 138.08C357.779 149.23 360.749 160.64 361.369 170.65C361.959 180.04 361.519 192.47 362.099 202.1C362.659 211.55 363.309 224.33 363.229 236.3C363.169 246.006 363.483 256.486 364.169 267.74C364.583 274.626 364.149 283.103 362.869 293.17C362.656 294.876 363.323 296.923 364.869 299.31C366.489 301.816 367.823 304.473 368.869 307.28C369.636 309.34 370.303 310.666 370.869 311.26C373.109 313.61 377.679 315.66 380.799 316.48C389.033 318.633 397.463 319.713 406.089 319.72C413.649 319.73 421.109 318.08 429.589 316.86C437.289 315.76 447.339 315.04 454.679 317.63C459.869 319.47 459.579 324.5 457.169 328.46C452.729 335.78 445.469 338.4 437.489 339.28C430.516 340.046 423.849 340.263 417.489 339.93C414.869 339.796 412.349 339.773 409.929 339.86C404.116 340.073 393.429 340.073 377.869 339.86C371.609 339.78 364.996 339.26 358.029 338.3C350.349 337.25 344.249 334.97 343.239 326.51C341.353 310.63 340.376 296.626 340.309 284.5C340.229 271.7 340.086 263.47 339.879 259.81C339.306 249.883 339.103 241.666 339.269 235.16C339.323 233.046 339.093 223.32 338.579 205.98C338.386 199.566 338.489 189.15 338.889 174.73C338.983 171.243 338.633 165.156 337.839 156.47C337.593 153.743 337.489 148.476 337.529 140.67C337.599 126.85 335.999 113.85 336.249 100.04C336.403 91.8198 336.536 83.5898 336.649 75.3498C336.779 66.4698 338.859 54.1598 347.669 49.9098C348.163 49.6764 350.499 49.2064 354.679 48.4998C354.833 48.4747 354.991 48.505 355.126 48.5853C355.262 48.6656 355.365 48.791 355.419 48.9398Z" fill="#201600"/>
<path d="M261.789 108.79C262.476 111.943 263.036 114.85 263.469 117.51C266.569 136.603 269.399 155.687 271.959 174.76C272.412 178.14 273.376 182.513 274.849 187.88C276.029 192.207 276.459 195.217 276.139 196.91C274.469 205.74 263.669 205.5 256.019 205.23C249.889 205.02 242.779 203.95 243.069 196.49C243.149 194.417 243.226 192.427 243.299 190.52C243.419 187.32 244.446 184.693 246.379 182.64C246.741 182.252 247.005 181.786 247.149 181.28C248.076 178.067 248.639 175.31 248.839 173.01C249.912 160.677 251.216 148.927 252.749 137.76C253.859 129.66 255.079 120.82 258.379 113.14C259.199 111.25 261.319 111.8 261.359 108.83C261.364 108.779 261.387 108.732 261.423 108.696C261.459 108.66 261.507 108.638 261.558 108.633C261.608 108.628 261.659 108.641 261.702 108.67C261.744 108.698 261.775 108.741 261.789 108.79Z" fill="#CAD950"/>
<path d="M455.67 109.17C455.79 109.457 455.959 110.12 456.179 111.16C457.406 116.88 458.683 124.83 460.009 135.01C462.319 152.77 463.039 162.25 465.479 171.39C465.717 172.269 465.785 173.185 465.679 174.09C465.329 177.14 464.939 181.9 467.409 184.28C467.676 184.547 467.858 184.888 467.929 185.26C469.149 191.733 469.766 195.457 469.779 196.43C469.889 202.92 465.799 204.3 460.319 204.77C458.433 204.93 456.716 204.933 455.17 204.78C447.323 204.027 442.909 203.617 441.929 203.55C435.159 203.11 436.599 189.55 437.709 185.22C439.116 179.773 440.663 174.307 442.349 168.82C443.889 163.81 444.189 156.44 444.509 153.17C444.949 148.81 446.989 144.94 447.249 140.72C447.523 136.173 447.899 131.457 448.379 126.57C448.769 122.62 450.819 118.85 452.649 115.13C453.529 113.34 454.039 110.68 454.309 109.3C454.337 109.148 454.414 109.009 454.528 108.905C454.642 108.8 454.786 108.736 454.94 108.721C455.094 108.706 455.249 108.742 455.38 108.823C455.512 108.904 455.613 109.026 455.67 109.17Z" fill="#CAD950"/>
<path d="M258.54 110.76C258.482 110.734 258.437 110.69 258.413 110.633C258.388 110.577 258.384 110.511 258.401 110.445C258.419 110.378 258.457 110.315 258.51 110.262C258.563 110.21 258.629 110.171 258.7 110.15C258.966 110.084 259.213 110.1 259.44 110.2C259.5 110.226 259.551 110.269 259.586 110.324C259.621 110.379 259.64 110.443 259.639 110.509C259.638 110.574 259.617 110.638 259.58 110.691C259.543 110.745 259.49 110.786 259.43 110.81C259.156 110.924 258.86 110.907 258.54 110.76Z" fill="#CAD950"/>
</svg>
