<svg width="707" height="178" viewBox="0 0 707 178" fill="none" xmlns="http://www.w3.org/2000/svg">
<path d="M157.132 129.152C157.005 130.279 156.958 131.362 156.992 132.402C157.045 134.062 156.982 135.126 156.802 135.592C156.315 136.892 155.195 137.706 153.442 138.033C153.039 138.109 152.674 138.322 152.41 138.637C152.146 138.953 151.998 139.35 151.992 139.762L151.862 151.723C151.862 151.801 151.883 151.88 151.922 151.952C152.135 152.339 152.352 152.452 152.572 152.292L152.652 153.143C152.663 153.295 152.729 153.439 152.837 153.547C152.946 153.655 153.089 153.721 153.242 153.732L154.872 153.853C154.958 154.253 155.285 154.472 155.852 154.512C156.024 154.525 156.191 154.572 156.345 154.651C156.498 154.73 156.634 154.839 156.744 154.971C156.855 155.104 156.937 155.257 156.986 155.422C157.036 155.588 157.051 155.761 157.032 155.932C156.825 157.839 156.955 159.739 157.422 161.633C157.795 162.339 157.728 162.879 157.222 163.253C157.144 163.311 157.049 163.342 156.952 163.342L149.352 163.243C149.259 163.242 149.168 163.225 149.082 163.193C146.795 162.446 145.075 161.079 143.922 159.092C143.368 158.139 143.092 156.189 143.092 153.243C143.112 139.249 143.125 127.979 143.132 119.432C143.134 119.334 143.175 119.239 143.244 119.17C143.313 119.101 143.405 119.063 143.502 119.063H148.902C149.338 119.062 149.758 119.235 150.072 119.542C152.902 122.282 152.832 124.813 152.502 128.443C152.49 128.57 152.506 128.698 152.548 128.819C152.591 128.939 152.66 129.049 152.749 129.14C152.839 129.232 152.947 129.303 153.067 129.348C153.186 129.393 153.314 129.412 153.442 129.402L157.132 129.152Z" fill="#4E5659" stroke="#4E5659" stroke-linejoin="round"/>
<path d="M188.862 131.753C188.589 133.867 189.372 133.36 191.212 130.233C199.539 126.187 205.845 128.097 210.132 135.963C212.732 140.723 211.932 145.663 211.962 151.113C211.962 151.406 211.929 151.701 211.862 151.993C210.189 159.467 205.532 163.483 197.892 164.043C189.752 164.633 180.772 160.633 179.972 151.453L179.912 119.143C183.125 118.93 185.179 118.957 186.072 119.223C188.085 119.83 189.082 121.42 189.062 123.993C189.042 126.507 188.975 129.093 188.862 131.753ZM194.002 136.683C191.422 137.63 189.872 139.633 189.352 142.693C188.692 146.583 188.542 151.043 191.402 154.183C192.209 155.07 193.065 155.58 193.972 155.713C195.672 156.453 197.212 156.4 198.592 155.553C198.832 155.327 199.125 155.137 199.472 154.983C200.312 154.843 200.662 154.497 200.522 153.943C201.595 152.563 202.275 151.013 202.562 149.293C203.182 146.7 203.182 144.473 202.562 142.613C201.769 139.56 200.235 137.607 197.962 136.753C196.509 135.98 195.189 135.957 194.002 136.683Z" fill="#4E5659" stroke="#4E5659" stroke-linejoin="round"/>
<path d="M282.433 119.193L286.063 120.403C286.783 121.323 287.253 122.273 287.473 123.253L286.903 126.673L278.083 126.793L278.053 119.033L282.433 119.193Z" fill="#4E5659" stroke="#4E5659" stroke-linejoin="round"/>
<path d="M605.942 121.723C605.829 121.729 605.732 121.746 605.652 121.773C605.575 121.799 605.508 121.847 605.46 121.912C605.412 121.976 605.385 122.053 605.382 122.133C605.062 134.753 605.222 147.419 605.862 160.133C606.389 160.866 606.462 161.763 606.082 162.823C606.032 162.966 605.939 163.09 605.816 163.178C605.692 163.266 605.544 163.313 605.392 163.312H597.652C597.453 163.312 597.263 163.233 597.122 163.093C596.981 162.952 596.902 162.761 596.902 162.562V119.482C596.902 119.371 596.948 119.264 597.028 119.186C597.109 119.107 597.218 119.063 597.332 119.062H602.812C602.989 119.063 603.164 119.098 603.326 119.167C603.487 119.236 603.632 119.336 603.752 119.463L605.942 121.723Z" fill="#4E5659" stroke="#4E5659" stroke-linejoin="round"/>
<path d="M612.152 119.113C612.159 119.479 612.219 119.656 612.332 119.643C615.086 119.323 617.252 119.883 618.832 121.323L619.312 122.013C619.139 124.073 619.022 126.149 618.962 128.243C618.942 128.763 619.186 129.073 619.692 129.173C619.752 129.186 619.802 129.036 619.842 128.723C620.229 129.276 621.466 129.383 623.552 129.043C623.725 129.014 623.903 129.023 624.072 129.07C624.241 129.117 624.398 129.2 624.532 129.314C624.666 129.428 624.774 129.571 624.849 129.731C624.923 129.891 624.962 130.066 624.962 130.243V135.013C624.962 135.177 624.93 135.338 624.866 135.488C624.802 135.638 624.709 135.772 624.592 135.883L621.942 138.473C621.522 138.039 620.802 138.016 619.782 138.403C619.571 138.481 619.389 138.624 619.263 138.813C619.137 139.001 619.074 139.225 619.082 139.453L619.522 153.603L624.232 153.893C624.425 153.903 624.607 153.986 624.741 154.125C624.874 154.265 624.95 154.45 624.952 154.643L624.982 160.543L624.952 162.213L624.912 162.713C624.902 162.893 624.822 163.062 624.69 163.185C624.558 163.308 624.383 163.376 624.202 163.373L616.912 163.273C616.819 163.273 616.725 163.259 616.632 163.233C613.672 162.419 611.666 160.529 610.612 157.563C610.527 157.338 610.482 157.101 610.482 156.863V119.563C610.482 119.517 610.496 119.469 610.522 119.423C610.742 119.003 611.286 118.899 612.152 119.113Z" fill="#4E5659" stroke="#4E5659" stroke-linejoin="round"/>
<path d="M628.552 126.623C628.979 126.55 628.972 126.22 628.532 125.633C628.357 125.399 628.255 125.113 628.242 124.813L627.982 119.033L633.342 119.213C634.153 119.243 634.934 119.521 635.578 120.01C636.223 120.498 636.699 121.174 636.942 121.943L637.582 123.953C637.682 124.266 637.706 124.599 637.652 124.923C637.599 125.247 637.469 125.554 637.274 125.818C637.079 126.083 636.824 126.297 636.53 126.444C636.236 126.591 635.911 126.666 635.582 126.663L628.552 126.623Z" fill="#4E5659" stroke="#4E5659" stroke-linejoin="round"/>
<path d="M33.0123 140.263C30.9189 139.85 28.9589 139.783 27.1323 140.063C25.5989 139.443 24.1889 138.353 22.9023 136.793C22.594 136.415 22.1467 136.168 21.6523 136.103C19.9923 135.883 15.3023 135.283 14.7223 137.813C14.6247 138.23 14.6823 138.669 14.8846 139.047C15.0869 139.426 15.42 139.72 15.8223 139.873C21.3723 141.973 27.5323 142.303 32.6923 145.923C33.3856 146.41 34.2456 148.073 35.2723 150.913C35.3905 151.242 35.4283 151.592 35.3823 151.933C34.4923 158.463 32.0823 161.713 25.7823 163.333C20.4123 164.703 12.8023 164.553 8.14226 161.083C7.78226 160.01 7.15559 159.26 6.26226 158.833C4.82893 156.92 4.26226 154.62 4.56226 151.933L13.0323 152.223C13.1575 152.227 13.2813 152.198 13.3916 152.14C13.502 152.082 13.5952 151.997 13.6623 151.893C13.7089 151.82 13.7523 151.737 13.7923 151.643C13.9523 153.13 14.4489 154.297 15.2823 155.143C17.0723 156.983 23.0223 157.113 24.7323 155.113C24.9705 154.836 25.1382 154.504 25.2201 154.148C25.3019 153.792 25.2954 153.423 25.201 153.075C25.1067 152.726 24.9275 152.409 24.6798 152.152C24.432 151.895 24.1235 151.706 23.7823 151.603C21.7223 150.983 19.1423 150.193 15.7023 149.413C9.14226 147.943 4.03226 144.513 5.59226 136.843C6.20559 136.043 6.49226 135.137 6.45226 134.123C8.35226 131.083 11.0189 129.257 14.4523 128.643C18.0323 128.013 24.1523 127.963 27.6923 129.713C31.0223 131.373 34.2923 135.803 33.5423 139.883C33.5358 139.928 33.5209 139.97 33.4986 140.008C33.4763 140.045 33.4469 140.078 33.4123 140.103C33.2989 140.19 33.1656 140.243 33.0123 140.263Z" fill="#4E5659" stroke="#4E5659" stroke-linejoin="round"/>
<path d="M78.0221 159.033C78.4154 151.513 78.3754 145.046 77.9021 139.633C77.7621 138.013 77.1621 137.186 76.1021 137.153C72.9021 134.483 67.7021 136.193 66.7721 140.303C66.7124 140.522 66.6821 140.747 66.6821 140.973L66.6521 162.663C66.6521 162.827 66.5857 162.985 66.4676 163.101C66.3494 163.218 66.1892 163.283 66.0221 163.283H58.0621C57.8738 163.283 57.6932 163.208 57.5601 163.075C57.4269 162.942 57.3521 162.761 57.3521 162.573C57.3454 156.766 57.3688 150.936 57.4221 145.083C57.4721 139.773 57.0021 135.843 50.8921 136.013C48.9054 136.073 47.4388 137.153 46.4921 139.253C46.3537 139.556 46.282 139.89 46.2821 140.233V162.533C46.2821 162.732 46.2031 162.923 46.0624 163.063C45.9218 163.204 45.731 163.283 45.5321 163.283H37.7621C37.5367 163.283 37.3205 163.192 37.1611 163.031C37.0017 162.87 36.9121 162.651 36.9121 162.423V137.973C36.912 137.828 36.9426 137.682 37.0021 137.543C39.3821 131.863 41.7221 130.573 47.5521 128.643C47.9434 128.51 48.3477 128.436 48.7521 128.423C52.6121 128.31 55.2688 128.353 56.7221 128.553C57.2154 128.62 58.9388 129.316 61.8921 130.643C62.0377 130.709 62.1952 130.745 62.3551 130.748C62.5149 130.752 62.6738 130.723 62.8221 130.663C65.8021 129.443 66.8121 128.683 69.6921 128.403C73.9921 127.989 77.8554 128.693 81.2821 130.513C85.7521 132.893 87.2521 136.563 87.0821 141.923C86.9488 146.116 86.9588 152.936 87.1121 162.383C87.1134 162.493 87.0929 162.602 87.0518 162.704C87.0107 162.805 86.9498 162.898 86.8726 162.976C86.7954 163.054 86.7034 163.116 86.6021 163.159C86.5007 163.201 86.3919 163.223 86.2821 163.223H81.2021C80.9548 163.223 80.7137 163.146 80.5121 163.003C79.0654 162.003 78.2354 160.68 78.0221 159.033Z" fill="#4E5659" stroke="#4E5659" stroke-linejoin="round"/>
<path d="M95.5427 138.613L94.3727 138.603L91.0627 138.533C90.9138 138.53 90.7705 138.476 90.6573 138.379C90.5441 138.283 90.4682 138.15 90.4427 138.003C89.6327 133.233 96.1827 129.113 99.8527 128.503C101.466 128.23 104.123 128.23 107.823 128.503C113.523 128.923 118.613 131.953 118.563 138.663C118.493 150.793 120.413 160.203 107.893 163.423C102.743 164.743 92.4627 164.613 90.1227 158.223C89.8027 157.35 89.6293 155.966 89.6027 154.073C89.5427 149.243 89.4327 146.323 94.4827 143.853C98.7027 141.783 102.893 142.233 107.273 140.713C108.446 140.306 109.116 139.603 109.283 138.603C109.356 138.164 109.239 137.703 108.953 137.303C108.667 136.903 108.23 136.591 107.723 136.423C104.336 135.316 101.533 135.776 99.3127 137.803C99.1365 137.966 98.9139 138.074 98.6727 138.113L95.5427 138.613ZM108.653 147.093C106.039 147.533 103.556 148.143 101.203 148.923C96.5727 150.463 96.9827 156.783 102.723 156.433C105.949 156.24 108.156 154.466 109.343 151.113C110.476 150.026 110.736 148.863 110.123 147.623C109.529 146.436 109.039 146.26 108.653 147.093Z" fill="#4E5659" stroke="#4E5659" stroke-linejoin="round"/>
<path d="M274.102 139.903L266.262 139.443C266.115 139.256 266.065 139.24 266.112 139.393C265.412 137.746 264.279 136.663 262.712 136.143C261.182 135.993 256.652 135.283 255.462 137.223C254.889 138.156 255.065 138.963 255.992 139.643C255.879 140.45 256.189 140.683 256.922 140.343C257.269 140.376 257.545 140.53 257.752 140.803C258.205 141.583 259.012 141.836 260.172 141.563C262.699 142.07 265.229 142.74 267.762 143.573C270.269 144.4 272.115 145.196 273.302 145.963C273.549 146.126 273.739 146.368 273.842 146.653L275.582 151.453C274.729 152.84 274.662 153.72 275.382 154.093C274.662 158.486 272.125 161.43 267.772 162.923C265.805 163.596 263.962 163.933 262.242 163.933C259.789 163.42 257.415 163.3 255.122 163.573C249.729 163.013 246.395 160.323 245.122 155.503C244.989 154.996 245.005 153.793 245.172 151.893L254.512 152.113C254.299 154.84 255.965 156.316 259.512 156.543C260.832 157.67 261.145 157.653 260.452 156.493L262.792 156.533C262.785 156.853 262.965 156.92 263.332 156.733C263.592 156.593 263.662 156.406 263.542 156.173L265.612 155.063C266.459 153.99 266.425 153.076 265.512 152.323C263.105 151.196 259.642 150.16 255.122 149.213C253.149 148.806 250.999 147.776 248.672 146.123C246.265 144.416 245.392 141.643 246.052 137.803C245.939 137.556 245.912 137.213 245.972 136.773C246.282 132.363 251.842 129.073 255.602 128.513C256.615 128.36 259.515 128.33 264.302 128.423C264.646 128.43 264.981 128.497 265.292 128.623C267.819 129.636 269.295 130.286 269.722 130.573C272.749 132.62 274.209 135.73 274.102 139.903Z" fill="#4E5659" stroke="#4E5659" stroke-linejoin="round"/>
<path d="M354.293 143.183C353.706 145.123 353.673 146.983 354.193 148.763H333.543C333.256 148.616 332.983 148.57 332.723 148.623C332.443 148.683 332.253 148.87 332.153 149.183C332.026 149.59 332.143 149.876 332.503 150.043C332.756 152.643 333.939 154.493 336.053 155.593C338.073 156.533 339.943 156.533 341.663 155.593L345.723 152.393C345.872 152.277 346.058 152.213 346.253 152.213H353.453C353.527 152.214 353.6 152.231 353.666 152.264C353.733 152.297 353.791 152.345 353.836 152.404C353.881 152.463 353.912 152.531 353.928 152.603C353.943 152.676 353.941 152.751 353.923 152.823C352.269 159.003 348.349 162.596 342.163 163.603L334.143 163.563C329.269 162.47 325.88 159.37 323.973 154.263C324.186 153.043 324.003 152.126 323.423 151.513L322.943 149.273C323.509 147.113 323.489 144.96 322.883 142.813C323.273 141.153 323.353 139.213 323.903 137.793C325.923 132.553 329.426 129.503 334.413 128.643C340.323 127.633 346.683 128.313 350.613 133.233C352.799 135.966 354.026 139.283 354.293 143.183ZM332.333 141.443C331.713 141.65 331.903 142.036 332.903 142.603C332.962 142.642 333.035 142.663 333.113 142.663L344.093 142.773C344.171 142.773 344.247 142.756 344.313 142.723C345.333 142.203 345.473 141.833 344.733 141.613L343.723 139.143C343.676 137.67 342.879 136.926 341.333 136.913C339.946 135.98 338.696 135.69 337.583 136.043C334.756 136.936 333.006 138.736 332.333 141.443Z" fill="#4E5659" stroke="#4E5659" stroke-linejoin="round"/>
<path d="M373.962 163.803L365.402 163.563C363.288 163.337 361.412 162.67 359.772 161.563C356.478 159.337 355.085 156.17 355.592 152.063C355.616 151.865 355.713 151.683 355.864 151.55C356.015 151.418 356.209 151.344 356.412 151.343H362.802C363.255 151.344 363.696 151.498 364.05 151.782C364.404 152.065 364.652 152.461 364.752 152.903L365.042 154.173C365.079 154.379 365.164 154.574 365.291 154.743C365.417 154.913 365.582 155.053 365.772 155.153C368.672 156.653 371.665 156.907 374.752 155.913C376.882 155.233 376.382 152.183 374.852 151.593C370.482 149.923 361.372 149.633 356.992 143.753C356.787 143.477 356.644 143.16 356.572 142.823C355.278 136.43 357.308 132.017 362.662 129.583C364.308 128.837 366.235 128.423 368.442 128.343C373.692 128.163 376.522 128.483 380.732 131.323C383.238 133.01 384.488 135.737 384.482 139.503C384.482 139.684 384.419 139.859 384.303 139.996C384.188 140.134 384.028 140.225 383.852 140.253C379.945 140.92 376.905 140.107 374.732 137.813C372.652 135.623 369.522 135.513 367.132 136.213C366.825 136.303 366.541 136.462 366.305 136.675C366.068 136.889 365.887 137.15 365.776 137.438C365.666 137.725 365.629 138.029 365.67 138.323C365.711 138.617 365.829 138.892 366.012 139.123C367.462 140.933 373.242 141.953 378.522 143.363C383.002 144.55 385.542 147.417 386.142 151.963C386.188 152.294 386.171 152.63 386.092 152.953C385.182 156.613 384.682 159.653 380.852 161.763C378.598 163.003 376.302 163.683 373.962 163.803Z" fill="#4E5659" stroke="#4E5659" stroke-linejoin="round"/>
<path d="M412.752 131.653C412.785 132.586 413.242 133.196 414.122 133.483C415.575 135.33 416.135 137.366 415.802 139.593C415.782 139.734 415.718 139.865 415.62 139.969C415.521 140.072 415.393 140.144 415.252 140.173C411.045 141.006 407.728 139.933 405.302 136.953C405.034 136.621 404.668 136.376 404.252 136.253C402.492 135.713 397.222 135.103 397.112 138.323C397.105 138.48 397.132 138.636 397.191 138.781C397.25 138.925 397.338 139.056 397.452 139.163C398.318 140.01 399.325 140.583 400.472 140.883C406.492 142.443 416.012 143.163 417.192 150.733C417.205 154.533 415.878 157.99 413.212 161.103C406.778 164.843 399.945 165.25 392.712 162.323C388.278 160.53 386.425 157.11 387.152 152.063C387.183 151.86 387.284 151.675 387.438 151.541C387.592 151.407 387.789 151.333 387.992 151.333H394.182C394.655 151.333 395.115 151.49 395.49 151.78C395.864 152.069 396.132 152.475 396.252 152.933C396.632 154.393 396.582 155.003 397.902 155.593C400.428 156.72 403.065 156.846 405.812 155.973C408.202 155.213 408.102 152.013 405.652 151.393C398.132 149.503 392.642 148.843 388.572 143.993C387.412 142.613 388.072 141.413 387.392 140.063C387.223 139.739 387.167 139.37 387.232 139.013C388.145 133.526 391.168 130.113 396.302 128.773C398.922 128.093 402.472 128.343 405.592 128.363C407.238 128.37 409.625 129.466 412.752 131.653Z" fill="#4E5659" stroke="#4E5659" stroke-linejoin="round"/>
<path d="M465.702 139.363L457.352 139.473C457.201 139.476 457.051 139.448 456.911 139.391C456.772 139.334 456.646 139.25 456.542 139.143C456.009 138.596 455.502 138.073 455.022 137.573C454.596 137.139 454.186 137.013 453.792 137.193C452.039 135.839 450.219 135.626 448.332 136.553C445.392 137.459 443.999 139.539 444.152 142.793C443.812 145.026 443.849 147.319 444.262 149.673C443.949 151.319 444.472 152.623 445.832 153.583C446.492 154.463 447.216 155.139 448.002 155.613C450.636 156.659 452.886 156.519 454.752 155.193L457.542 152.713C457.877 152.416 458.311 152.253 458.762 152.253H465.902C466.078 152.252 466.252 152.209 466.407 152.126C466.562 152.043 466.695 151.923 466.794 151.777C466.892 151.631 466.954 151.464 466.973 151.289C466.992 151.113 466.967 150.936 466.902 150.773C466.522 149.833 466.356 149.246 466.402 149.013C467.142 146.779 467.182 144.533 466.522 142.273C467.209 135.113 470.962 130.506 477.782 128.453C477.882 128.42 477.99 128.403 478.102 128.403L485.982 128.373C486.081 128.373 486.176 128.39 486.262 128.423C493.262 130.633 495.082 133.463 497.432 140.233C497.551 140.576 497.599 140.94 497.572 141.303C497.452 142.816 497.616 144.253 498.062 145.613C498.166 145.911 498.166 146.239 498.062 146.543C497.362 148.583 497.512 150.893 497.002 153.203C496.442 155.723 495.029 158.049 492.762 160.183C490.762 162.063 488.366 163.253 485.572 163.753C477.802 165.133 469.282 162.003 467.202 153.663C467.161 153.499 467.067 153.354 466.935 153.251C466.802 153.148 466.639 153.092 466.47 153.092C466.301 153.092 466.135 153.148 466 153.251C465.865 153.354 465.767 153.499 465.722 153.663C464.396 158.743 461.086 161.933 455.792 163.233L445.342 163.313C440.962 162.033 438.019 159.273 436.512 155.033C436.372 153.879 436.062 152.849 435.582 151.943L434.992 149.273L435.102 142.063C435.916 135.029 439.579 130.526 446.092 128.553C446.384 128.46 446.687 128.413 446.992 128.413C450.102 128.413 453.432 127.993 456.362 128.953C461.096 130.513 464.209 133.983 465.702 139.363ZM479.062 136.993C477.536 137.326 476.756 138.179 476.722 139.553C475.062 143.619 474.946 147.759 476.372 151.973C476.159 153.213 476.662 154.036 477.882 154.443C477.996 155.483 478.539 155.853 479.512 155.553C481.586 156.593 483.486 156.446 485.212 155.113C488.452 152.603 489.122 147.473 488.482 143.543C489.009 142.523 488.832 141.683 487.952 141.023C487.092 138.316 485.246 136.633 482.412 135.973C482.132 135.908 481.839 135.929 481.572 136.033L479.062 136.993Z" fill="#4E5659" stroke="#4E5659" stroke-linejoin="round"/>
<path d="M529.432 139.683L529.522 163.213L522.922 163.043C522.375 162.069 521.572 161.363 520.512 160.923C520.419 155.996 520.389 151.006 520.422 145.953C520.449 141.799 519.985 139.096 519.032 137.843C517.519 135.843 514.932 135.459 511.272 136.693C509.545 137.433 508.715 139.093 508.782 141.673C508.822 143.066 508.842 143.786 508.842 143.833C508.729 150.186 508.869 156.636 509.262 163.183L500.322 163.213L499.672 140.793C499.885 137.793 500.289 135.886 500.882 135.073C505.792 128.333 514.852 126.633 522.362 129.693C526.449 131.353 528.805 134.683 529.432 139.683Z" fill="#4E5659" stroke="#4E5659" stroke-linejoin="round"/>
<path d="M559.892 140.113L553.592 139.973C552.032 139.18 550.642 138.07 549.422 136.643C549.292 136.493 549.118 136.382 548.922 136.323L547.272 135.863C546.739 134.956 545.662 134.966 544.042 135.893L542.602 136.203C541.982 136.09 541.522 136.33 541.222 136.923C540.309 138.736 540.849 139.81 542.842 140.143C544.636 140.736 548.282 141.703 553.782 143.043C556.869 143.796 559.306 145.643 561.092 148.583C561.27 148.873 561.386 149.196 561.432 149.533C562.619 157.62 559.196 162.306 551.162 163.593L541.282 163.553C537.662 163.066 534.812 161.506 532.732 158.873C532.766 157.606 532.369 156.51 531.542 155.583L531.402 151.923C535.369 151.663 538.472 152.013 540.712 152.973C540.759 154.186 541.132 154.963 541.832 155.303C544.492 156.596 547.246 156.87 550.092 156.123C551.852 155.663 552.416 154.546 551.782 152.773C551.673 152.47 551.455 152.22 551.172 152.073C545.542 149.123 538.152 150.093 532.982 143.913C532.692 143.557 532.481 143.145 532.362 142.703L531.632 140.023C532.226 139.49 532.239 138.96 531.672 138.433C533.112 132.023 537.922 128.373 544.332 128.323C548.622 128.293 550.652 128.313 554.932 130.253C558.532 131.883 560.452 135.653 560.552 139.393C560.552 139.605 560.47 139.809 560.322 139.963C560.149 140.143 560.006 140.193 559.892 140.113Z" fill="#4E5659" stroke="#4E5659" stroke-linejoin="round"/>
<path d="M670.222 140.593C670.228 143.173 670.132 145.563 669.932 147.763C669.698 150.369 669.875 155.546 670.462 163.293C669.348 163.326 668.308 163.319 667.342 163.273C663.782 163.113 661.312 163.533 661.392 158.633C661.518 151.106 661.518 146.396 661.392 144.503C661.225 141.976 660.805 139.893 660.132 138.253C658.752 134.913 653.372 135.573 651.252 137.543C650.988 137.787 650.78 138.08 650.642 138.403C650.015 139.856 649.688 142.389 649.662 146.003C649.608 152.589 649.608 158.069 649.662 162.443C649.663 162.555 649.642 162.667 649.6 162.771C649.558 162.875 649.495 162.97 649.416 163.05C649.337 163.13 649.243 163.194 649.139 163.237C649.036 163.28 648.924 163.303 648.812 163.303H641.142C640.914 163.303 640.695 163.212 640.534 163.051C640.372 162.89 640.282 162.671 640.282 162.443C640.228 152.789 640.232 146.146 640.292 142.513C640.462 132.463 647.572 127.593 657.282 128.343C659.302 128.496 661.062 128.863 662.562 129.443C667.662 131.396 670.215 135.113 670.222 140.593Z" fill="#4E5659" stroke="#4E5659" stroke-linejoin="round"/>
<path d="M703.411 168.983C700.591 172.943 697.221 175.503 693.301 176.663C690.481 177.493 686.971 177.113 683.771 177.313C677.111 175.713 674.581 172.223 672.581 166.623C672.548 166.529 672.537 166.428 672.55 166.329C672.564 166.23 672.601 166.136 672.659 166.054C672.717 165.973 672.794 165.906 672.883 165.861C672.973 165.815 673.071 165.792 673.171 165.793L681.911 165.803C682.258 166.757 682.975 167.38 684.061 167.673C686.748 169.987 689.385 170.137 691.971 168.123C693.911 166.617 694.845 164.21 694.771 160.903C694.772 160.853 694.758 160.804 694.732 160.762C694.705 160.719 694.667 160.685 694.621 160.664C694.576 160.643 694.525 160.636 694.475 160.643C694.426 160.649 694.379 160.671 694.341 160.703C688.555 165.543 682.821 165.293 677.141 159.953C673.641 156.663 672.861 153.493 672.021 148.313C672.681 146.767 672.655 145.21 671.941 143.643C672.401 142.737 672.631 141.677 672.631 140.463L674.761 134.573C676.548 131.893 678.975 129.98 682.041 128.833C682.835 129.56 683.541 129.447 684.161 128.493C690.481 128.033 696.081 128.403 700.491 132.833C702.931 135.273 704.178 138.327 704.231 141.993C704.385 151.627 704.111 160.623 703.411 168.983ZM684.871 155.353C685.891 156.119 687.023 156.526 688.174 156.54C689.324 156.554 690.458 156.175 691.481 155.433C691.967 155.081 692.423 154.648 692.841 154.143C693.253 153.652 693.623 153.091 693.941 152.473C694.832 150.779 695.329 148.729 695.361 146.609C695.393 144.488 694.96 142.403 694.121 140.643C693.431 139.193 692.492 138.017 691.395 137.227C690.297 136.438 689.077 136.061 687.851 136.133C686.678 136.204 685.537 136.682 684.527 137.528C683.518 138.374 682.671 139.56 682.061 140.983C681.231 142.927 680.883 145.215 681.073 147.481C681.264 149.746 681.981 151.86 683.111 153.483C683.628 154.232 684.222 154.863 684.871 155.353Z" fill="#4E5659" stroke="#4E5659" stroke-linejoin="round"/>
<path d="M312.802 129.743C315.135 130.33 316.835 131.39 317.902 132.923C318.882 134.316 319.755 136.533 320.522 139.573C320.035 140.48 319.842 141.48 319.942 142.573C320.115 144.446 320.202 145.413 320.202 145.473C320.115 150.94 320.135 156.41 320.262 161.883C320.269 162.35 319.942 162.783 319.282 163.183C317.469 163.35 315.655 163.306 313.842 163.053C313.409 162.993 313.082 162.826 312.862 162.553C312.709 161.766 312.249 161.08 311.482 160.493C311.389 155.026 311.369 149.52 311.422 143.973C311.472 139.503 310.812 136.593 306.102 135.983C304.069 135.716 302.225 136.556 300.572 138.503C300.059 139.17 299.785 140.26 299.752 141.773C299.652 147.453 299.609 153.136 299.622 158.823C299.632 160.423 300.462 161.603 299.012 163.243L291.372 163.263L291.232 142.063C291.232 141.927 291.205 141.793 291.152 141.667C291.098 141.542 291.02 141.428 290.922 141.333L290.662 141.063C290.902 136.223 292.902 132.66 296.662 130.373C302.069 128.573 307.449 128.363 312.802 129.743Z" fill="#4E5659" stroke="#4E5659" stroke-linejoin="round"/>
<path d="M130.411 162.373C130.411 162.607 130.32 162.83 130.157 162.995C129.994 163.16 129.772 163.253 129.541 163.253H121.921C121.685 163.253 121.457 163.16 121.289 162.993C121.12 162.826 121.024 162.6 121.021 162.363C121.021 162.003 121.025 158.04 121.031 150.473C121.031 144.973 121.481 141.073 122.381 138.773C124.988 132.086 130.651 128.893 139.371 129.193C139.71 129.206 140.031 129.35 140.266 129.594C140.501 129.838 140.632 130.164 140.631 130.503V137.493C140.632 137.646 140.601 137.798 140.54 137.939C140.479 138.079 140.391 138.206 140.279 138.311C140.168 138.416 140.036 138.497 139.892 138.549C139.748 138.601 139.594 138.623 139.441 138.613C131.911 138.153 130.821 141.403 130.471 147.683C130.378 149.456 130.358 154.353 130.411 162.373Z" fill="#4E5659" stroke="#4E5659" stroke-linejoin="round"/>
<path d="M223.402 129.183C222.749 137.11 222.636 144.64 223.062 151.773C223.129 152.927 223.639 153.853 224.592 154.553C224.599 154.4 224.649 154.447 224.742 154.693C225.242 155.973 225.902 156.337 226.722 155.783C228.336 156.737 230.079 156.687 231.952 155.633C233.439 155.447 234.242 154.54 234.362 152.913L234.712 151.483C234.858 150.892 234.932 150.284 234.932 149.673C234.886 141.887 234.889 136.053 234.942 132.173C234.949 131.247 235.516 130.397 236.642 129.623C236.838 129.486 237.071 129.41 237.312 129.403L243.152 129.113C243.343 129.104 243.531 129.157 243.69 129.263C243.848 129.369 243.968 129.524 244.032 129.703C244.459 130.863 244.426 131.83 243.932 132.603C243.219 139.19 243.186 145.78 243.832 152.373C243.359 156.627 241.422 159.817 238.022 161.943C236.629 161.817 235.792 162.19 235.512 163.063C227.682 165.873 216.222 163.383 214.502 153.703C214.336 152.73 214.162 151.807 213.982 150.933L213.902 129.393L223.402 129.183Z" fill="#4E5659" stroke="#4E5659" stroke-linejoin="round"/>
<path d="M287.522 133.623C287.235 133.509 287.085 133.573 287.072 133.813C286.792 143.613 286.772 153.433 287.012 163.273L277.842 163.323C278.615 151.936 278.618 140.543 277.852 129.143C280.225 129.243 282.275 129.316 284.002 129.363C285.788 129.416 286.962 130.836 287.522 133.623Z" fill="#4E5659" stroke="#4E5659" stroke-linejoin="round"/>
<path d="M572.602 129.143C571.902 140.176 571.778 147.693 572.232 151.693C572.565 154.699 574.182 156.263 577.082 156.383C578.135 156.543 579.188 156.489 580.242 156.223C582.522 155.963 583.792 154.643 584.052 152.263L584.182 132.073C584.187 131.391 584.457 130.739 584.935 130.254C585.413 129.768 586.061 129.488 586.742 129.473L593.202 129.333L592.692 152.983C592.685 153.307 592.628 153.628 592.522 153.933L590.852 158.813C586.292 163.979 580.082 165.396 572.222 163.063C568.255 161.889 565.575 159.463 564.182 155.783C563.512 154.033 563.472 152.013 563.072 150.093C562.985 149.707 562.942 149.315 562.942 148.923L562.852 129.843C562.85 129.78 562.861 129.717 562.884 129.658C562.907 129.599 562.942 129.546 562.985 129.5C563.029 129.455 563.081 129.418 563.139 129.393C563.196 129.368 563.259 129.354 563.322 129.353L572.602 129.143Z" fill="#4E5659" stroke="#4E5659" stroke-linejoin="round"/>
<path d="M637.352 134.413C636.632 143.28 636.492 152.143 636.932 161.003C636.945 161.299 637.027 161.587 637.172 161.843L637.492 162.443C637.592 162.89 637.369 163.127 636.822 163.153C633.922 163.3 630.952 163.36 627.912 163.333C628.599 151.973 628.599 140.657 627.912 129.383C631.032 129.11 633.309 129.183 634.742 129.603C636.595 130.143 637.465 131.747 637.352 134.413Z" fill="#4E5659" stroke="#4E5659" stroke-linejoin="round"/>
<path d="M30.703 2.00098L47.683 2.15098L49.503 2.46098C49.543 2.98098 50.0763 3.12431 51.103 2.89098C57.7497 4.27764 63.0563 7.56098 67.023 12.741C67.1897 13.701 67.7297 14.4676 68.643 15.041C70.9097 18.5343 72.1597 21.541 72.393 24.061C72.5797 26.0143 72.8963 27.991 73.343 29.991C73.3565 30.0496 73.3567 30.1106 73.3434 30.1693C73.3301 30.228 73.3037 30.283 73.2662 30.3301C73.2287 30.3772 73.1811 30.4152 73.1269 30.4413C73.0726 30.4675 73.0132 30.481 72.953 30.481L60.553 30.491C59.513 29.971 58.4963 29.701 57.503 29.681C57.3897 29.5943 57.3197 29.581 57.293 29.641L52.163 22.761C51.3163 22.3943 50.5697 21.8376 49.923 21.091C48.9563 19.971 47.6897 19.3843 46.123 19.331L42.663 18.481C38.9763 17.8543 35.2863 17.8576 31.593 18.491C31.2997 18.7376 30.883 18.881 30.343 18.921C29.3363 18.801 28.1597 19.1843 26.813 20.071C23.7997 22.0443 22.193 24.6176 21.993 27.791C21.953 28.4643 22.093 28.891 22.413 29.071L22.703 30.331C23.3963 32.491 24.843 33.8876 27.043 34.521C27.483 34.6143 27.7963 34.8043 27.983 35.091C27.7563 35.2443 27.953 35.4676 28.573 35.761C32.8863 37.781 37.4197 39.161 42.173 39.901C42.5663 39.7743 42.843 39.8676 43.003 40.181C44.0697 40.8143 45.273 41.1176 46.613 41.091C46.8063 41.091 47.033 41.131 47.293 41.211C47.2397 41.2843 47.1897 41.3576 47.143 41.431C47.1355 41.4456 47.1309 41.4615 47.1294 41.4776C47.1279 41.4938 47.1296 41.5098 47.1342 41.5248C47.1389 41.5398 47.1466 41.5534 47.1567 41.5648C47.1668 41.5762 47.1791 41.5851 47.193 41.591C47.833 41.8776 48.3997 41.911 48.893 41.691C49.3463 41.7376 49.7263 41.8976 50.033 42.171C51.4663 42.9843 52.9763 43.4476 54.563 43.561C59.8563 45.381 64.6163 47.9176 68.843 51.171C69.403 52.5976 70.183 53.3676 71.183 53.481C75.2763 58.4076 76.8397 63.9976 75.873 70.251C74.7797 71.7976 74.603 73.391 75.343 75.031C74.8497 77.8576 73.7797 80.521 72.133 83.021C69.1597 86.6276 66.153 89.321 63.113 91.101C59.6597 93.1143 55.4497 94.701 50.483 95.861C41.5097 97.5143 32.9563 97.2676 24.823 95.121C13.5163 92.1343 6.30633 84.911 3.19299 73.451C2.61299 71.321 3.02299 69.141 2.05299 67.011C2.01257 66.9239 1.99479 66.828 2.00132 66.7322C2.00785 66.6364 2.03847 66.5438 2.09034 66.463C2.14221 66.3822 2.21364 66.3159 2.29802 66.27C2.3824 66.2242 2.47698 66.2005 2.57299 66.201H21.793C21.999 66.2006 22.1997 66.2665 22.3653 66.389C22.531 66.5114 22.6529 66.6839 22.713 66.881C24.503 72.711 26.123 76.581 32.773 78.141C35.6797 78.821 38.363 79.1676 40.823 79.181C45.2497 79.2143 49.323 78.1576 53.043 76.011C56.6963 73.6776 57.8263 70.7343 56.433 67.181C54.2663 63.9876 51.023 61.6776 46.703 60.251C46.963 60.0376 46.843 59.8176 46.343 59.591C45.9763 59.4243 45.7263 59.471 45.593 59.731L42.423 58.561C41.6297 57.6943 40.663 57.4143 39.523 57.721C34.3363 56.401 29.1363 55.061 23.923 53.701C17.003 51.891 9.65299 47.341 6.37299 40.791C4.09299 36.231 3.26299 31.3943 3.88299 26.281L4.20299 22.871L4.86299 20.381C5.56299 19.5676 5.91966 18.6376 5.93299 17.591C6.37299 16.1776 7.01966 14.9676 7.87299 13.961L15.053 7.04098C18.053 5.18764 21.383 3.80431 25.043 2.89098C25.863 3.31764 26.5197 3.21764 27.013 2.59098L30.703 2.00098Z" fill="#1F3A4B" stroke="#1F3A4B" stroke-width="4"/>
<path d="M384.933 2.02148L401.633 2.17148L402.783 2.19148C402.956 2.54482 403.3 2.77482 403.813 2.88148C416.706 5.47482 424.383 13.6282 426.843 27.3415C427.09 28.2748 427.073 29.1415 426.793 29.9415C426.74 30.0858 426.644 30.2102 426.519 30.2979C426.393 30.3855 426.245 30.4322 426.093 30.4315L415.783 30.5015L412.783 30.1615C411.51 29.7748 410.533 29.0982 409.853 28.1315C409.846 27.5648 409.576 27.2248 409.043 27.1115C408.643 26.8315 408.42 26.5048 408.373 26.1315C408.226 24.9582 407.62 24.1015 406.553 23.5615L404.623 21.6215C404.19 20.6615 403.663 20.3148 403.043 20.5815L396.583 18.5215C392.963 17.7815 389.373 17.7915 385.813 18.5515C381.2 19.4848 378.193 21.7782 376.793 25.4315C375.74 27.2582 375.823 28.9915 377.043 30.6315L380.343 34.1915C384.003 36.6248 388.033 38.1715 392.433 38.8315L397.013 40.1115C397.94 40.8048 399.093 41.1248 400.473 41.0715C400.22 40.8448 400.32 40.8615 400.773 41.1215C401.746 41.8881 402.54 42.0748 403.153 41.6815C403.446 41.7282 403.72 41.8282 403.973 41.9815C404.653 42.7815 405.386 43.0082 406.173 42.6615L409.863 43.9415L417.133 47.3015C422.183 50.0515 428.363 55.3515 429.503 61.3715L429.913 72.8515C429.16 77.9715 427.186 82.4515 423.993 86.2915L415.603 92.5815C402.393 98.6815 381.793 98.7715 369.163 90.6715C369.07 89.7581 368.513 89.3481 367.493 89.4415C360.506 83.8015 356.833 76.2681 356.473 66.8415C356.47 66.7558 356.485 66.6704 356.516 66.5904C356.547 66.5105 356.593 66.4375 356.653 66.3759C356.713 66.3144 356.784 66.2654 356.863 66.232C356.942 66.1986 357.027 66.1814 357.113 66.1815H376.123C376.254 66.1808 376.382 66.2211 376.488 66.2966C376.594 66.372 376.673 66.4788 376.713 66.6015L378.963 73.1815C381.016 76.6615 384.416 78.5248 389.163 78.7715L391.943 79.1215C393.783 79.7615 395.726 79.8915 397.773 79.5115C397.827 79.503 397.877 79.4769 397.915 79.4371C397.953 79.3973 397.977 79.3461 397.983 79.2915C397.99 79.1582 397.943 79.0715 397.843 79.0315C398.556 78.8515 399.15 78.8082 399.623 78.9015C403.763 78.6348 406.96 77.1648 409.213 74.4915C410.8 72.1048 411.22 69.6882 410.473 67.2415C409.733 64.9948 408.183 63.4548 405.823 62.6215L400.873 60.1115C399.646 59.2848 398.27 58.8015 396.743 58.6615C396.336 58.7748 395.993 58.6548 395.713 58.3015C393.646 57.2348 391.46 56.5882 389.153 56.3615L382.643 54.9915C382.196 54.3715 381.51 54.1681 380.583 54.3815C374.616 53.1015 369.426 50.6248 365.013 46.9515C364.62 45.7648 363.873 44.9082 362.773 44.3815C362.653 44.4748 362.506 44.2848 362.333 43.8115C361.82 42.3515 361.073 41.0482 360.093 39.9015L358.473 35.1715C359.04 34.1248 358.953 33.5781 358.213 33.5315C358.073 29.8915 357.423 22.9215 359.203 19.6615C359.956 18.7548 360.41 17.6548 360.563 16.3615C360.51 16.1548 360.59 15.9415 360.803 15.7215C361.97 14.7548 362.79 13.6081 363.263 12.2815C366.163 8.64815 369.783 5.99815 374.123 4.33148C377.776 2.93148 381.38 2.16148 384.933 2.02148Z" fill="#1F3A4B" stroke="#1F3A4B" stroke-width="4"/>
<path d="M321.313 75.7516C323.406 77.0649 325.956 77.5616 328.963 77.2416C329.096 77.2275 329.23 77.2417 329.357 77.2831C329.484 77.3245 329.601 77.3922 329.7 77.4819C329.799 77.5715 329.878 77.6811 329.932 77.8034C329.986 77.9257 330.014 78.058 330.013 78.1916V93.0916C330.013 93.1844 329.994 93.2762 329.958 93.3614C329.921 93.4466 329.867 93.5235 329.8 93.5872C329.732 93.6508 329.653 93.7001 329.565 93.7318C329.478 93.7635 329.385 93.7771 329.293 93.7716C326.906 93.6116 324.503 93.8583 322.083 94.5116L313.343 94.0416C312.999 94.0283 312.654 93.9574 312.323 93.8316C308.723 92.4516 305.716 89.6883 303.303 85.5416C302.496 73.4216 302.176 61.0149 302.343 48.3216C302.529 34.1483 302.49 19.9749 302.223 5.8016C302.216 5.45493 302.396 4.91827 302.763 4.1916L312.363 4.1416C312.628 4.14164 312.888 4.18213 313.133 4.2616C316.406 5.26827 318.599 7.30827 319.713 10.3816C319.839 10.739 319.903 11.111 319.903 11.4816V23.7216C319.903 23.9179 319.981 24.1061 320.12 24.2449C320.258 24.3836 320.447 24.4616 320.643 24.4616H330.223C330.392 24.4615 330.554 24.5273 330.676 24.6449C330.797 24.7625 330.868 24.9227 330.873 25.0916C331.106 30.8783 331.049 34.8083 330.703 36.8816C329.893 41.7016 324.803 44.1816 320.373 44.1516C320.248 44.1516 320.129 44.2011 320.04 44.2893C319.952 44.3774 319.903 44.4969 319.903 44.6216C319.916 46.3416 319.916 55.6216 319.903 72.4616C319.903 73.2216 320.373 74.3183 321.313 75.7516Z" fill="#1F3A4B" stroke="#1F3A4B" stroke-width="4"/>
<path d="M522.983 93.7714L504.253 93.6814L504.213 4.67137C504.213 4.60308 504.227 4.53546 504.253 4.47237C504.28 4.40928 504.319 4.35196 504.368 4.30367C504.417 4.25538 504.476 4.21708 504.54 4.19095C504.604 4.16482 504.673 4.15137 504.743 4.15137H515.573C515.936 4.15126 516.296 4.22261 516.633 4.36137C518.88 5.28137 520.643 6.6647 521.923 8.51137C522.616 9.51803 522.963 11.558 522.963 14.6314C522.996 40.9914 523.003 67.3714 522.983 93.7714Z" fill="#1F3A4B" stroke="#1F3A4B" stroke-width="4"/>
<path d="M230.812 23.8714C231.892 24.6114 232.985 24.8647 234.092 24.6314C242.165 26.9314 247.158 31.9581 249.072 39.7114C248.692 42.5781 248.792 45.3547 249.372 48.0414C249.292 52.5347 249.405 59.2114 249.712 68.0714C250.232 83.1314 241.552 93.2714 226.572 95.2614C212.162 97.1714 193.902 96.1814 191.092 78.0514C190.682 75.4514 190.622 67.7614 191.592 64.7514C195.752 51.8114 215.162 51.4714 225.652 49.1714C228.405 48.5714 230.278 47.0547 231.272 44.6214C231.397 44.3186 231.451 43.987 231.432 43.6514C231.298 41.6181 230.045 40.1514 227.672 39.2514C221.862 37.0314 213.772 38.3714 209.282 43.1614C208.961 43.4948 208.528 43.6918 208.072 43.7114L193.242 44.4314C193.143 44.4354 193.044 44.4196 192.951 44.3848C192.859 44.3501 192.774 44.2971 192.702 44.229C192.631 44.161 192.573 44.0792 192.534 43.9886C192.494 43.898 192.473 43.8003 192.472 43.7014C192.362 23.8214 216.522 20.6514 230.812 23.8714ZM216.332 64.2914C213.092 64.5181 210.782 65.7414 209.402 67.9614L208.492 70.1314C207.658 72.0381 207.682 73.9347 208.562 75.8214C208.908 76.3147 209.118 76.8114 209.192 77.3114C209.332 78.6514 210.088 79.4847 211.462 79.8114C214.875 81.5314 218.622 81.7247 222.702 80.3914C232.032 77.3514 232.972 68.9514 232.342 60.5314C232.337 60.4637 232.317 60.3979 232.283 60.3388C232.25 60.2797 232.204 60.2287 232.148 60.1895C232.093 60.1503 232.029 60.1239 231.963 60.1121C231.896 60.1003 231.827 60.1035 231.762 60.1214L216.332 64.2914Z" fill="#1F3A4B" stroke="#1F3A4B" stroke-width="4"/>
<path d="M486.832 89.1216C485.439 89.3882 484.632 89.9916 484.412 90.9316C482.665 92.1449 480.665 93.1316 478.412 93.8916C463.892 98.7516 444.382 94.9116 437.562 79.6116C436.555 77.3582 435.649 74.4149 434.842 70.7816C435.095 69.9949 435.015 69.3549 434.602 68.8616L434.042 65.5616L433.912 53.1615C435.422 43.8515 437.482 36.8216 444.272 30.3416C447.625 27.1349 451.842 24.9482 456.922 23.7816C466.082 21.6816 478.392 22.4816 485.922 28.7716C493.162 34.8116 497.185 42.8416 497.992 52.8616C498.199 55.4416 498.259 58.9282 498.172 63.3216C498.042 70.7616 496.162 76.3215 492.812 82.4515C491.472 84.9015 488.962 87.0916 486.832 89.1216ZM469.252 80.1116C470.692 80.2382 471.889 79.7315 472.842 78.5915C474.115 78.2115 475.092 77.3049 475.772 75.8716C477.845 72.8049 479.125 69.2782 479.612 65.2916C480.539 61.1516 480.522 57.0049 479.562 52.8516C479.042 51.7582 478.785 50.5982 478.792 49.3716C478.625 47.8849 478.039 46.4349 477.032 45.0216C476.545 43.7616 475.969 43.0316 475.302 42.8316C474.602 41.2249 473.502 40.3549 472.002 40.2216C463.402 36.3416 455.482 40.8216 453.352 49.5516C451.879 55.5849 451.855 62.0982 453.282 69.0915C454.872 76.8115 461.152 81.8616 469.252 80.1116Z" fill="#1F3A4B" stroke="#1F3A4B" stroke-width="4"/>
<path d="M653.223 33.7708C653.429 34.9642 654.059 35.8675 655.113 36.4808C660.303 45.0608 660.603 53.9408 660.613 63.7308C660.613 63.9165 660.538 64.0945 660.405 64.2258C660.272 64.3571 660.091 64.4308 659.903 64.4308H615.783C614.616 64.6175 614.539 65.8141 615.553 68.0208C616.493 74.8408 620.223 78.8242 626.743 79.9708C628.469 80.5642 630.153 80.5675 631.793 79.9808C635.286 79.3342 638.043 77.6141 640.063 74.8208C642.093 72.0208 655.673 72.3308 659.083 72.5808C659.129 72.5842 659.174 72.5974 659.215 72.6194C659.256 72.6415 659.292 72.6719 659.32 72.7087C659.348 72.7455 659.368 72.7879 659.379 72.8331C659.39 72.8782 659.391 72.9252 659.383 72.9708C658.563 77.4308 656.636 81.4175 653.603 84.9308L649.193 89.3008C648.439 90.0608 647.579 90.6808 646.613 91.1608C644.773 91.5808 643.173 92.3875 641.813 93.5808C633.326 96.5942 624.746 96.8408 616.073 94.3208C616.093 93.9608 615.936 93.7108 615.603 93.5708C615.076 93.3441 614.803 93.4442 614.783 93.8708C606.656 89.9108 601.136 83.7741 598.223 75.4608C598.363 74.8275 598.219 74.2942 597.793 73.8608C596.873 70.8608 596.316 68.0141 596.123 65.3208C595.133 51.2608 597.553 33.4808 611.813 26.3808C613.813 26.1142 615.653 25.4141 617.333 24.2808C623.653 22.3308 629.653 22.4308 636.183 23.6808C643.113 25.0008 648.843 28.2508 653.223 33.7708ZM615.663 48.9508C614.576 51.3708 614.743 52.4242 616.163 52.1108L640.103 52.1308C640.258 52.1304 640.411 52.096 640.551 52.03C640.691 51.964 640.816 51.868 640.915 51.7488C641.014 51.6296 641.086 51.4901 641.125 51.3401C641.165 51.1901 641.17 51.0334 641.143 50.8808C640.609 48.0008 639.593 45.3175 638.093 42.8308C637.606 41.6241 636.699 40.7941 635.373 40.3408C627.303 36.7508 617.513 39.2908 615.663 48.9508Z" fill="#1F3A4B" stroke="#1F3A4B" stroke-width="4"/>
<path d="M106.743 23.3414L116.933 23.3614L119.893 23.7814L126.613 25.6714L131.333 28.3014C131.773 29.3014 132.743 29.6214 133.743 29.0614C134.403 28.6814 135.003 28.1714 135.543 27.5314L139.063 25.7214L146.173 23.7514L149.333 23.2214L158.773 23.1514L161.723 23.7814L170.403 26.8014C171.356 26.9414 172.173 27.358 172.853 28.0514C177.499 31.0314 180.776 35.1347 182.683 40.3614C183.789 43.1747 184.356 46.1714 184.383 49.3514C184.109 49.518 183.973 49.718 183.973 49.9514C183.899 64.298 183.889 78.5814 183.943 92.8014C183.943 93.1579 183.804 93.5004 183.556 93.7562C183.307 94.012 182.969 94.161 182.613 94.1714L173.133 94.4614C168.559 94.228 166.069 92.4714 165.663 89.1914C165.956 88.6514 166.109 88.2814 166.123 88.0814C166.516 79.828 166.356 71.5247 165.643 63.1714C165.716 60.0447 165.849 56.7614 166.043 53.3214C166.116 52.008 166.009 50.168 165.723 47.8014C165.209 42.388 162.249 39.248 156.843 38.3814C153.303 37.6347 149.879 38.258 146.573 40.2514C143.113 41.2614 142.203 45.3014 141.403 48.3814C141.383 48.4409 141.373 48.5051 141.373 48.5714L141.263 93.6514C141.263 93.7105 141.251 93.769 141.228 93.8236C141.206 93.8782 141.173 93.9278 141.131 93.9696C141.089 94.0114 141.04 94.0445 140.985 94.0671C140.93 94.0897 140.872 94.1014 140.813 94.1014H124.743C124.433 94.1014 124.136 93.9798 123.915 93.7629C123.695 93.5459 123.568 93.2508 123.563 92.9414L122.943 46.3914L122.103 44.1414C121.923 42.9214 121.319 41.9047 120.293 41.0914C118.586 39.7247 116.749 38.8647 114.783 38.5114C111.383 37.6247 108.039 38.0814 104.753 39.8814C102.493 40.4614 101.016 41.9414 100.323 44.3214C100.303 44.888 100.123 45.378 99.7827 45.7914C99.1627 47.278 98.8427 49.1214 98.8227 51.3214C98.6827 64.7747 98.6494 78.7347 98.7227 93.2014C98.7227 93.3897 98.6479 93.5703 98.5148 93.7034C98.3816 93.8366 98.201 93.9114 98.0127 93.9114H82.2327C82.1185 93.9114 82.0055 93.8887 81.9004 93.8446C81.7952 93.8005 81.7002 93.7359 81.6208 93.6547C81.5415 93.5735 81.4795 93.4773 81.4386 93.372C81.3977 93.2666 81.3787 93.1541 81.3827 93.0414C81.7827 78.3614 81.5894 63.6647 80.8027 48.9514C81.0027 43.2447 82.5694 38.1614 85.5027 33.7014L91.0727 28.8614C91.2594 28.568 91.4861 28.4347 91.7527 28.4614L105.073 23.6514C105.839 23.2714 106.396 23.168 106.743 23.3414Z" fill="#1F3A4B" stroke="#1F3A4B" stroke-width="4"/>
<path d="M552.333 37.2209C551.913 37.7876 552.07 38.5076 552.803 39.3809L552.943 39.7509C552.736 40.8243 553 41.6776 553.733 42.3109L560.153 63.0309L561.963 69.4109C561.982 69.4797 562.021 69.5409 562.075 69.5868C562.13 69.6326 562.197 69.6611 562.268 69.6685C562.34 69.676 562.413 69.6622 562.478 69.6288C562.543 69.5954 562.597 69.544 562.633 69.4809C562.8 69.1676 562.776 68.9043 562.563 68.6909C563.27 67.0576 563.693 65.4276 563.833 63.8009C564.306 63.4876 564.506 63.0043 564.433 62.3509C564.473 61.8976 564.59 61.4709 564.783 61.0709C564.85 61.1243 564.916 61.1776 564.983 61.2309C564.989 61.2331 564.994 61.2344 565 61.2345C565.006 61.2347 565.011 61.2338 565.016 61.2318C565.021 61.2299 565.025 61.227 565.028 61.2234C565.031 61.2198 565.033 61.2155 565.033 61.2109L566.973 54.1309C569.04 46.5376 571.256 38.9443 573.623 31.3509C574.59 28.2443 576.383 26.1043 579.003 24.9309H596.423L582.563 63.4009L578.933 73.8909L577.013 79.0509L573.583 88.9109L572.083 94.2909L552.783 94.5809C552.296 94.0743 551.943 93.1943 551.723 91.9409C551.623 90.2409 551.093 88.6643 550.133 87.2109C550.153 87.1843 550.173 87.1609 550.193 87.1409L548.183 81.5909C547.95 81.2909 547.926 81.1343 548.113 81.1209L542.673 65.7909C542.533 65.6376 542.473 65.5043 542.493 65.3909C542.36 62.7776 541.516 60.4943 539.963 58.5409L528.423 25.1309C528.398 25.0544 528.39 24.9729 528.402 24.8932C528.413 24.8135 528.443 24.7379 528.489 24.6725C528.535 24.6071 528.596 24.5538 528.666 24.517C528.736 24.4803 528.814 24.461 528.893 24.4609H547.633C547.801 24.4617 547.966 24.5162 548.102 24.6167C548.239 24.7173 548.34 24.8587 548.393 25.0209L552.333 37.2209Z" fill="#1F3A4B" stroke="#1F3A4B" stroke-width="4"/>
<path d="M294.171 44.1109C294.284 43.6975 293.998 43.4375 293.311 43.3309C290.258 42.8375 287.614 43.0875 285.381 44.0809C279.394 44.7075 275.811 48.3909 274.631 55.1309C273.791 66.4909 273.544 77.9642 273.891 89.5509C273.941 91.0809 274.641 92.5309 273.751 93.6509C273.686 93.7352 273.602 93.8034 273.507 93.8502C273.411 93.897 273.307 93.9212 273.201 93.9209H257.311C257.083 93.9209 256.864 93.8303 256.703 93.669C256.542 93.5077 256.451 93.289 256.451 93.0609C256.418 88.7275 256.168 83.2775 255.701 76.7109C255.671 79.3409 255.611 81.9109 255.371 84.5309C255.384 79.1575 255.401 73.7842 255.421 68.4109C255.431 65.1509 255.931 61.3209 255.781 57.9709C255.611 53.9709 256.291 50.1309 256.941 46.6509C258.494 38.3442 263.018 32.2009 270.511 28.2209C271.811 27.5342 274.134 26.6975 277.481 25.7109C278.208 26.6509 279.154 26.5542 280.321 25.4209L282.891 24.9509L293.361 24.7209C293.808 24.4075 294.251 24.3342 294.691 24.5009C294.849 24.5599 294.986 24.6652 295.083 24.8029C295.179 24.9405 295.231 25.1038 295.231 25.2709V43.7109C295.231 43.7307 295.228 43.751 295.221 43.7709C295.034 44.2309 294.684 44.3442 294.171 44.1109Z" fill="#1F3A4B" stroke="#1F3A4B" stroke-width="4"/>
<path d="M693.282 24.6912C693.215 24.9312 693.299 25.0578 693.532 25.0712C696.545 25.2178 699.545 25.0712 702.532 24.6312L704.342 24.4512L704.822 24.6212L704.812 42.1812C704.812 42.4305 704.717 42.6709 704.544 42.8544C704.372 43.0379 704.135 43.151 703.882 43.1712L695.182 43.7912C694.709 44.1845 693.962 44.3112 692.942 44.1712C687.349 45.7445 684.439 49.9978 684.212 56.9312C683.992 67.7712 683.842 78.6745 683.762 89.6412C683.755 90.5278 683.842 91.2245 684.022 91.7312C684.107 91.9761 684.134 92.2377 684.099 92.4946C684.065 92.7515 683.971 92.9966 683.825 93.2099C683.679 93.4233 683.485 93.5988 683.258 93.7224C683.032 93.846 682.78 93.9141 682.522 93.9212L665.722 94.5112C665.655 71.2978 665.845 55.9845 666.292 48.5712C666.459 45.7712 667.819 42.0978 670.372 37.5512C674.302 30.5612 679.952 27.8512 687.382 25.7712C689.282 25.2412 691.352 25.6812 693.282 24.6912Z" fill="#1F3A4B" stroke="#1F3A4B" stroke-width="4"/>
</svg>
