<svg width="532" height="186" viewBox="0 0 532 186" fill="none" xmlns="http://www.w3.org/2000/svg">
<path d="M401.088 65.9351C405.83 65.7695 409.553 62.1945 409.405 57.95C409.256 53.7055 405.293 50.3989 400.552 50.5645C395.81 50.73 392.087 54.3051 392.235 58.5496C392.383 62.7941 396.347 66.1007 401.088 65.9351Z" fill="#292929"/>
<path d="M457.69 65.5401C457.69 66.6566 457.246 67.7275 456.456 68.517C455.667 69.3065 454.596 69.7501 453.48 69.7501C452.363 69.7501 451.292 69.3065 450.503 68.517C449.713 67.7275 449.27 66.6566 449.27 65.5401C449.27 64.4235 449.713 63.3527 450.503 62.5632C451.292 61.7736 452.363 61.3301 453.48 61.3301C454.596 61.3301 455.667 61.7736 456.456 62.5632C457.246 63.3527 457.69 64.4235 457.69 65.5401ZM456.79 65.5001C456.79 64.6169 456.439 63.7699 455.814 63.1454C455.19 62.5209 454.343 62.1701 453.46 62.1701C452.576 62.1701 451.729 62.5209 451.105 63.1454C450.48 63.7699 450.13 64.6169 450.13 65.5001C450.13 66.3832 450.48 67.2302 451.105 67.8547C451.729 68.4792 452.576 68.8301 453.46 68.8301C454.343 68.8301 455.19 68.4792 455.814 67.8547C456.439 67.2302 456.79 66.3832 456.79 65.5001Z" fill="#292929"/>
<path d="M296.931 73.46C297.032 73.46 297.128 73.5 297.2 73.5713C297.271 73.6425 297.311 73.7392 297.311 73.84V83.62C297.311 83.7048 297.277 83.7862 297.217 83.8462C297.157 83.9063 297.076 83.94 296.991 83.94H286.061C285.95 83.94 285.843 83.9842 285.764 84.063C285.685 84.1418 285.641 84.2486 285.641 84.36C285.588 89.1866 285.604 95.47 285.691 103.21C285.761 109.76 291.861 110.33 296.451 107.78C296.517 107.743 296.59 107.721 296.665 107.715C296.74 107.709 296.816 107.719 296.887 107.745C296.958 107.771 297.023 107.811 297.077 107.864C297.131 107.916 297.173 107.98 297.201 108.05L300.591 116.71C300.636 116.824 300.639 116.95 300.598 117.066C300.558 117.182 300.477 117.279 300.371 117.34C296.864 119.427 292.748 120.327 288.021 120.04C277.574 119.407 272.214 113.9 271.941 103.52C271.928 103 271.954 96.7333 272.021 84.72C272.022 84.6154 272.003 84.5116 271.964 84.4146C271.925 84.3176 271.867 84.2293 271.793 84.1549C271.72 84.0805 271.632 84.0214 271.536 83.981C271.439 83.9407 271.336 83.92 271.231 83.92H265.311C265.152 83.92 264.999 83.8568 264.887 83.7442C264.774 83.6317 264.711 83.4791 264.711 83.32V74.08C264.711 73.9155 264.776 73.7578 264.893 73.6416C265.009 73.5253 265.166 73.46 265.331 73.46H271.301C271.403 73.46 271.504 73.4397 271.598 73.4004C271.692 73.3611 271.777 73.3035 271.849 73.2309C271.921 73.1584 271.977 73.0723 272.015 72.9777C272.053 72.8831 272.072 72.7819 272.071 72.68L271.891 62.57C271.889 62.4883 271.904 62.4072 271.936 62.3322C271.968 62.2572 272.016 62.1902 272.076 62.1359C272.136 62.0815 272.207 62.0412 272.284 62.0178C272.361 61.9943 272.442 61.9882 272.521 62C272.561 62.0066 274.021 62.0133 276.901 62.02C281.851 62.04 285.441 64.73 285.581 70.07C285.608 71.03 285.644 71.9766 285.691 72.91C285.699 73.0585 285.763 73.1985 285.871 73.3008C285.979 73.4032 286.122 73.4602 286.271 73.46H296.931Z" fill="#292929"/>
<path d="M455.052 66.1572C455.051 66.2872 455.024 66.4156 454.973 66.5352C454.922 66.6548 454.847 66.7632 454.755 66.8541C454.662 66.9451 454.552 67.0169 454.431 67.0654C454.311 67.1139 454.182 67.1381 454.052 67.1368L452.812 67.1238C452.682 67.1224 452.553 67.0954 452.434 67.0444C452.314 66.9934 452.206 66.9194 452.115 66.8265C452.024 66.7336 451.952 66.6237 451.903 66.5031C451.855 66.3825 451.831 66.2535 451.832 66.1235L451.849 64.4836C451.851 64.3536 451.878 64.2251 451.929 64.1055C451.98 63.9859 452.054 63.8776 452.147 63.7866C452.239 63.6956 452.349 63.6238 452.47 63.5754C452.591 63.5269 452.72 63.5026 452.85 63.504L454.089 63.517C454.219 63.5183 454.348 63.5453 454.468 63.5963C454.587 63.6473 454.695 63.7213 454.786 63.8142C454.877 63.9071 454.949 64.017 454.998 64.1376C455.046 64.2583 455.07 64.3873 455.069 64.5173L455.052 66.1572ZM453.436 64.0913C453.353 64.0946 453.273 64.1265 453.199 64.1853C453.124 64.2441 453.058 64.3286 453.004 64.434C452.95 64.5393 452.908 64.6634 452.882 64.7993C452.856 64.9351 452.845 65.08 452.851 65.2257C452.863 65.5198 452.941 65.7992 453.067 66.0025C453.193 66.2057 453.358 66.3161 453.525 66.3095C453.608 66.3061 453.688 66.2742 453.763 66.2154C453.837 66.1566 453.903 66.0721 453.957 65.9668C454.011 65.8614 454.053 65.7373 454.079 65.6014C454.105 65.4656 454.116 65.3207 454.11 65.1751C454.098 64.8809 454.021 64.6015 453.894 64.3982C453.768 64.195 453.603 64.0846 453.436 64.0913Z" fill="#292929"/>
<path d="M373.059 77.7398C373.279 77.6064 373.833 77.0598 374.719 76.0998C377.519 73.0698 383.849 71.6998 387.969 71.6798C388.054 71.6784 388.138 71.694 388.217 71.7256C388.296 71.7571 388.368 71.8041 388.428 71.8636C388.489 71.9232 388.537 71.9942 388.57 72.0725C388.602 72.1508 388.619 72.2349 388.619 72.3198V83.7098C388.619 83.792 388.601 83.8732 388.566 83.9477C388.531 84.0222 388.481 84.0884 388.418 84.1416C388.355 84.1947 388.282 84.2338 388.203 84.2559C388.123 84.278 388.04 84.2827 387.959 84.2698C379.629 83.0698 373.259 87.6598 373.189 96.0798C373.089 108.406 373.093 116.01 373.199 118.89C373.202 118.952 373.192 119.014 373.17 119.072C373.148 119.13 373.115 119.183 373.072 119.228C373.029 119.273 372.977 119.309 372.92 119.333C372.863 119.357 372.801 119.37 372.739 119.37H359.839C359.736 119.37 359.637 119.329 359.563 119.256C359.49 119.182 359.449 119.083 359.449 118.98V72.7898C359.449 72.7333 359.46 72.6774 359.481 72.6252C359.502 72.573 359.533 72.5256 359.572 72.4857C359.611 72.4458 359.658 72.4141 359.708 72.3925C359.759 72.3709 359.814 72.3598 359.869 72.3598C364.929 72.3498 370.819 71.1098 372.369 77.4598C372.387 77.5303 372.42 77.5957 372.468 77.6506C372.516 77.7055 372.576 77.7484 372.643 77.7757C372.71 77.803 372.783 77.814 372.855 77.8077C372.928 77.8015 372.998 77.7782 373.059 77.7398Z" fill="#292929"/>
<path d="M88.1709 114.4C88.1573 114.336 88.125 114.277 88.0781 114.232C88.0313 114.186 87.972 114.156 87.9077 114.144C87.8435 114.132 87.7772 114.14 87.7172 114.166C87.6573 114.192 87.6063 114.235 87.5709 114.29C83.5809 120.8 72.8309 120.87 66.4609 119C61.5709 117.55 57.2809 113.59 56.5009 108.3C54.8409 96.9398 63.0909 92.7998 72.7809 91.9098C76.3143 91.5831 80.3076 91.6031 84.7609 91.9698C85.1964 92.0068 85.6333 91.9207 86.0221 91.7212C86.4109 91.5218 86.736 91.217 86.9608 90.8413C87.1856 90.4657 87.301 90.0341 87.294 89.5955C87.2869 89.157 87.1577 88.7289 86.9209 88.3598L85.7309 86.5198C85.0821 85.5106 84.2211 84.6544 83.2075 84.0104C82.194 83.3664 81.0521 82.9499 79.8609 82.7898C76.2876 82.3098 73.0143 82.5431 70.0409 83.4898C64.5609 85.2198 60.2309 83.2598 58.2509 77.5998C58.2086 77.4761 58.2093 77.3421 58.253 77.2201C58.2967 77.0982 58.3807 76.9956 58.4909 76.9298C66.4643 72.3231 75.1009 70.7531 84.4009 72.2198C92.0409 73.4331 97.0676 77.1031 99.4809 83.2298C100.574 86.0098 101.071 91.4198 100.971 99.4598C100.831 110.513 100.808 116.99 100.901 118.89C100.904 118.953 100.893 119.016 100.871 119.076C100.849 119.135 100.814 119.189 100.771 119.235C100.727 119.281 100.674 119.317 100.616 119.342C100.557 119.367 100.494 119.38 100.431 119.38C95.7309 119.34 89.5009 120.67 88.1709 114.4ZM86.4909 99.6898C80.4709 99.5698 76.5709 99.6764 74.7909 100.01C70.8976 100.73 69.1943 102.813 69.6809 106.26C70.5109 112.08 79.6109 111.26 83.0909 109.41C86.4376 107.636 87.8009 104.6 87.1809 100.3C87.1551 100.132 87.0717 99.9789 86.9454 99.8673C86.8192 99.7557 86.6582 99.6928 86.4909 99.6898Z" fill="#292929"/>
<path d="M143.75 115.23C143.75 115.155 143.726 115.081 143.683 115.019C143.64 114.958 143.579 114.911 143.508 114.885C143.438 114.859 143.361 114.855 143.288 114.873C143.215 114.892 143.149 114.933 143.1 114.99C137.57 121.37 125.47 121.24 118.44 117.48C102.96 109.21 101.85 85.3698 116.3 75.5398C124.06 70.2498 137.28 69.8498 143.94 77.3298C143.966 77.362 144.002 77.3856 144.041 77.3978C144.081 77.41 144.123 77.4104 144.164 77.3989C144.205 77.3874 144.242 77.3645 144.271 77.3328C144.301 77.3011 144.321 77.262 144.33 77.2198C145.57 71.1498 151.24 72.2898 156.8 72.3598C156.963 72.3625 157.118 72.4279 157.232 72.542C157.346 72.6561 157.41 72.8098 157.41 72.9698V135.65C157.41 135.803 157.351 135.95 157.244 136.06C157.138 136.17 156.993 136.235 156.84 136.24C153.373 136.413 151.19 136.387 150.29 136.16C145.817 135.027 143.603 132.04 143.65 127.2C143.717 120.253 143.75 116.263 143.75 115.23ZM132.063 82.7698C130.473 82.767 128.897 83.1037 127.427 83.7604C125.957 84.4172 124.62 85.3813 123.493 86.5976C122.367 87.814 121.472 89.2588 120.861 90.8495C120.249 92.4403 119.933 94.1458 119.93 95.8687C119.927 97.5917 120.237 99.2983 120.843 100.891C121.449 102.484 122.338 103.932 123.461 105.152C124.583 106.372 125.917 107.341 127.385 108.003C128.853 108.665 130.427 109.007 132.017 109.01C133.608 109.013 135.183 108.676 136.653 108.019C138.124 107.362 139.46 106.398 140.587 105.182C141.714 103.966 142.608 102.521 143.22 100.93C143.831 99.3394 144.147 97.6339 144.15 95.9109C144.153 94.188 143.843 92.4814 143.237 90.8885C142.631 89.2957 141.742 87.8478 140.619 86.6275C139.497 85.4073 138.164 84.4385 136.696 83.7766C135.227 83.1147 133.653 82.7726 132.063 82.7698Z" fill="#292929"/>
<path d="M247.62 114.4C247.606 114.337 247.574 114.278 247.527 114.233C247.48 114.187 247.421 114.157 247.356 114.145C247.292 114.133 247.226 114.141 247.166 114.167C247.106 114.192 247.055 114.236 247.02 114.29C243.03 120.81 232.28 120.89 225.9 119.02C221.01 117.58 216.71 113.62 215.93 108.33C214.25 96.9705 222.5 92.8205 232.19 91.9205C235.73 91.5871 239.726 91.6005 244.18 91.9605C244.615 91.9975 245.052 91.9114 245.441 91.7119C245.829 91.5125 246.155 91.2077 246.379 90.832C246.604 90.4564 246.72 90.0248 246.713 89.5862C246.706 89.1477 246.576 88.7196 246.34 88.3505L245.14 86.5105C244.49 85.5032 243.628 84.6489 242.615 84.0067C241.601 83.3644 240.46 82.9494 239.27 82.7905C235.69 82.3105 232.413 82.5471 229.44 83.5005C223.96 85.2405 219.63 83.2805 217.64 77.6205C217.597 77.4968 217.598 77.3628 217.642 77.2408C217.685 77.1189 217.769 77.0163 217.88 76.9505C225.853 72.3305 234.493 70.7505 243.8 72.2105C251.44 73.4171 256.47 77.0805 258.89 83.2005C259.99 85.9805 260.493 91.3938 260.4 99.4405C260.273 110.494 260.256 116.97 260.35 118.87C260.354 118.934 260.345 118.997 260.324 119.057C260.302 119.117 260.269 119.172 260.226 119.219C260.183 119.265 260.131 119.303 260.074 119.329C260.016 119.355 259.953 119.369 259.89 119.37C255.18 119.33 248.95 120.67 247.62 114.4ZM245.91 99.7105C239.903 99.5771 236.01 99.6771 234.23 100.01C230.336 100.717 228.63 102.794 229.11 106.24C229.93 112.05 239.02 111.25 242.5 109.41C245.846 107.65 247.213 104.62 246.6 100.32C246.574 100.153 246.49 99.9996 246.364 99.888C246.238 99.7764 246.077 99.7135 245.91 99.7105Z" fill="#292929"/>
<path d="M354.36 95.88C354.36 99.0868 353.686 102.262 352.377 105.225C351.068 108.188 349.149 110.88 346.73 113.148C344.311 115.415 341.439 117.214 338.279 118.441C335.118 119.668 331.731 120.3 328.31 120.3C321.401 120.3 314.775 117.727 309.89 113.148C305.004 108.568 302.26 102.357 302.26 95.88C302.26 89.4034 305.004 83.192 309.89 78.6124C314.775 74.0328 321.401 71.46 328.31 71.46C335.219 71.46 341.845 74.0328 346.73 78.6124C351.615 83.192 354.36 89.4034 354.36 95.88ZM328.297 82.75C326.705 82.7527 325.13 83.0948 323.66 83.7568C322.191 84.4187 320.857 85.3874 319.733 86.6077C318.61 87.828 317.72 89.2759 317.114 90.8687C316.507 92.4616 316.197 94.1682 316.2 95.8912C316.206 99.3708 317.489 102.706 319.766 105.162C322.043 107.619 325.128 108.996 328.343 108.99C329.934 108.987 331.51 108.645 332.979 107.983C334.448 107.321 335.783 106.353 336.906 105.132C338.029 103.912 338.92 102.464 339.526 100.871C340.132 99.2783 340.443 97.5717 340.44 95.8488C340.434 92.3691 339.151 89.0342 336.874 86.5777C334.596 84.1212 331.511 82.7443 328.297 82.75Z" fill="#292929"/>
<path d="M444.891 114.4C444.877 114.337 444.845 114.278 444.798 114.233C444.751 114.187 444.692 114.157 444.627 114.145C444.563 114.133 444.497 114.141 444.437 114.167C444.377 114.192 444.326 114.236 444.291 114.29C440.301 120.81 429.551 120.89 423.171 119.02C418.281 117.57 413.991 113.62 413.201 108.33C411.531 96.9605 419.781 92.8205 429.471 91.9205C433.004 91.5871 437.001 91.6038 441.461 91.9705C441.895 92.0054 442.331 91.9178 442.718 91.7176C443.105 91.5173 443.429 91.2123 443.652 90.8371C443.876 90.4618 443.99 90.0311 443.983 89.5935C443.976 89.1559 443.847 88.7289 443.611 88.3605L442.421 86.5205C441.772 85.5113 440.911 84.6551 439.897 84.0111C438.884 83.3671 437.742 82.9506 436.551 82.7905C432.977 82.3105 429.704 82.5471 426.731 83.5005C421.251 85.2305 416.911 83.2805 414.931 77.6205C414.888 77.4968 414.889 77.3628 414.933 77.2408C414.976 77.1189 415.06 77.0163 415.171 76.9505C423.144 72.3305 431.781 70.7505 441.081 72.2105C448.727 73.4238 453.757 77.0938 456.171 83.2205C457.271 86.0005 457.774 91.4105 457.681 99.4505C457.547 110.504 457.527 116.98 457.621 118.88C457.623 118.944 457.613 119.007 457.591 119.066C457.568 119.126 457.534 119.18 457.49 119.226C457.446 119.272 457.394 119.308 457.335 119.333C457.277 119.358 457.214 119.371 457.151 119.37C452.451 119.34 446.221 120.67 444.891 114.4ZM443.171 99.7005C437.157 99.5738 433.264 99.6771 431.491 100.01C427.604 100.73 425.904 102.81 426.391 106.25C427.211 112.06 436.301 111.24 439.771 109.4C443.111 107.634 444.474 104.604 443.861 100.31C443.835 100.143 443.751 99.9896 443.625 99.878C443.499 99.7664 443.338 99.7035 443.171 99.7005Z" fill="#292929"/>
<path d="M196.721 114.64C191.114 119.527 184.664 121.15 177.371 119.51C171.397 118.164 167.164 114.897 164.671 109.71C163.291 106.844 162.637 101.697 162.711 94.2702C162.817 83.3102 162.827 76.2369 162.741 73.0502C162.738 72.9648 162.752 72.8798 162.782 72.7999C162.813 72.72 162.858 72.6469 162.917 72.5846C162.975 72.5224 163.045 72.4723 163.123 72.4372C163.201 72.4022 163.285 72.3828 163.371 72.3802C170.811 72.2102 176.641 70.8702 176.521 79.8302C176.394 89.1102 176.424 95.5735 176.611 99.2202C176.981 106.36 182.311 109.4 188.881 107.85C195.391 106.31 196.661 100.41 196.661 94.2602C196.661 86.3269 196.651 81.2969 196.631 79.1702C196.591 75.6102 197.881 72.4902 201.631 72.4102C204.504 72.3435 207.267 72.3202 209.921 72.3402C209.974 72.3402 210.028 72.3511 210.078 72.3722C210.127 72.3933 210.172 72.4242 210.211 72.4632C210.249 72.5022 210.279 72.5485 210.299 72.5995C210.32 72.6504 210.331 72.705 210.331 72.7602V119.02C210.331 119.124 210.291 119.223 210.219 119.296C210.148 119.369 210.051 119.41 209.951 119.41C205.011 119.32 199.141 120.8 197.471 114.87C197.451 114.794 197.412 114.724 197.358 114.667C197.303 114.61 197.235 114.568 197.16 114.545C197.085 114.522 197.005 114.519 196.928 114.535C196.851 114.552 196.78 114.588 196.721 114.64Z" fill="#292929"/>
<path d="M407.641 96.0001C407.634 110.76 407.627 118.39 407.621 118.89C407.618 119.015 407.567 119.134 407.478 119.223C407.389 119.313 407.268 119.365 407.141 119.37C405.387 119.377 402.567 119.39 398.681 119.41C396.251 119.42 394.081 118.16 394.001 115.75C393.947 114.05 393.924 107.38 393.931 95.7401C393.931 80.9868 393.934 73.3568 393.941 72.8501C393.943 72.7253 393.994 72.606 394.084 72.5168C394.173 72.4276 394.293 72.3751 394.421 72.3701C396.174 72.3635 398.994 72.3501 402.881 72.3301C405.311 72.3201 407.481 73.5801 407.561 75.9901C407.614 77.6901 407.641 84.3601 407.641 96.0001Z" fill="#292929"/>
</svg>
