<svg width="248" height="248" viewBox="0 0 248 248" fill="none" xmlns="http://www.w3.org/2000/svg">
<g clip-path="url(#clip0_2010_34)">
<mask id="mask0_2010_34" style="mask-type:luminance" maskUnits="userSpaceOnUse" x="0" y="0" width="248" height="248">
<path d="M0 0H248V248H0V0Z" fill="white"/>
</mask>
<g mask="url(#mask0_2010_34)">
<path d="M123.995 247.989C192.475 247.989 247.989 192.475 247.989 123.989C247.989 55.5197 192.47 0 123.989 0C55.5197 0 0 55.5143 0 123.995C0 192.47 55.5143 247.989 123.995 247.989Z" fill="#FF7F30"/>
<path d="M204.385 161.496C155.399 162.359 105.616 171.616 63.1216 195.974C58.1131 198.853 52.862 202.346 51.0127 207.819C49.5571 212.088 50.4628 216.763 51.4279 221.173C83.0047 196.572 121.623 182.571 160.591 173.471C175.493 169.988 191.122 166.667 206.406 167.125C208.223 167.179 211.393 162.871 211.075 162.208C210.741 161.486 205.889 161.475 204.385 161.496ZM109.929 40.0573C111.422 39.8955 112.732 39.0761 113.563 38.0409C114.404 37.0058 114.819 35.7712 115.067 34.5366C115.158 34.0837 115.218 33.6255 115.25 33.1618C115.369 31.9549 115.153 30.7385 114.625 29.6467C114.177 28.82 113.522 28.1249 112.722 27.6302C111.923 27.1355 111.008 26.8586 110.069 26.827C104.893 26.7462 103.281 32.4609 104.036 35.7928C104.575 38.1326 107.088 40.3484 109.929 40.0573ZM217.566 108.112C217.496 107.831 217.388 107.529 217.308 107.249C217.264 107.098 217.2 106.969 217.157 106.818C215.216 101.426 211.291 97.5717 205.236 97.1782C199.435 96.7684 194.756 100.451 192.475 105.61C191.644 107.531 190.982 109.521 190.497 111.557C189.65 115.017 189.386 118.593 189.715 122.14C189.823 123.132 189.758 124.124 189.607 125.078C189.284 126.717 188.68 128.313 187.946 129.779C187.447 130.888 186.77 131.908 185.941 132.799C185.256 133.505 183.763 134.47 182.728 134.092C182.043 133.834 181.666 133.052 181.585 132.34C181.283 129.666 181.477 126.776 181.434 124.016L181.784 112.651C181.957 106.575 182.135 100.429 182.108 100.17C182.065 100.149 182.005 100.149 181.935 100.149C181.396 100.273 180.771 100.402 180.037 100.58C179.283 100.731 178.528 101.011 177.708 101.356C176.894 101.68 176.113 102.171 175.358 102.801C174.794 103.265 174.312 103.821 173.934 104.446C173.762 104.721 173.557 105.028 173.46 105.351C173.433 105.432 173.228 106.015 173.309 106.063C172.145 105.222 171.153 104.122 169.859 103.502C166.112 101.669 160.92 102.893 157.96 105.599C155.372 107.95 153.69 111.244 152.596 114.538C152.466 114.862 152.358 115.169 152.272 115.509C151.21 119.078 151 122.771 150.137 126.394C149.684 128.291 149.323 130.545 148.714 132.728C146.989 138.292 146.061 141.867 141.166 145.182C140.007 145.964 137.958 146.757 135.953 146.266C132.589 145.457 130.357 142.217 129.321 138.653C128.152 134.599 128.561 130.674 128.561 126.469C128.912 122.981 129.596 117.789 131.774 114.398C132.314 113.562 132.939 112.829 133.672 112.268C136.023 110.435 138.762 111.514 139.193 114.447C139.193 114.49 139.214 114.527 139.193 114.576C139.344 115.87 138.53 117.309 137.678 117.336C135.268 117.417 134.184 118.22 133.602 120.372C133.149 122.14 134.163 125.132 135.608 125.973C138.896 127.914 143.301 126.173 144.665 122.631C145.22 121.186 145.204 119.487 145.269 117.929C145.31 116.822 145.149 115.717 144.794 114.668C143.048 109.578 136.837 107.077 131.904 108.392C128.108 109.379 125.267 111.325 123.148 114.015C121.598 116.024 120.407 118.286 119.628 120.7C117.779 126.194 117.709 131.86 117.881 137.537C117.908 138.012 117.881 138.503 117.838 138.955C117.345 141.036 116.65 143.064 115.762 145.01C115.229 146.131 114.684 147.107 113.784 148.029C113.099 148.762 111.627 149.727 110.592 149.344C109.907 149.107 109.514 148.331 109.428 147.598C109.104 144.94 109.277 142.055 109.196 139.295C109.244 135.543 109.697 115.897 109.649 115.449C109.605 115.401 109.546 115.401 109.476 115.422C108.937 115.53 108.312 115.681 107.578 115.854C106.824 116.032 106.069 116.307 105.249 116.668C104.41 117.051 103.626 117.546 102.92 118.14C102.37 118.608 101.898 119.161 101.524 119.779C101.351 120.08 101.141 120.382 101.044 120.711C101.022 120.792 100.812 121.374 100.893 121.423C99.7286 120.603 98.7204 119.498 97.4265 118.889C93.6741 117.126 88.4823 118.393 85.5494 121.116C82.746 123.725 81.0207 127.45 79.9479 131.073C79.0637 134.114 78.8049 137.219 78.2496 140.282C77.8183 142.357 76.0446 148.994 75.3167 150.892C73.8449 154.612 71.1924 159.194 70.3567 160.434C70.1235 160.741 69.8771 161.038 69.6181 161.324C66.5559 164.645 61.9032 166.737 57.4176 167.427C53.0183 168.09 49.2875 166.004 46.7644 162.488C43.8878 158.501 41.9892 153.893 41.2221 149.037C40.9841 147.701 40.7899 146.358 40.6399 145.01C40.459 141.792 40.6544 138.564 41.2221 135.392C42.3004 129.316 45.7023 121.396 50.4089 117.218C53.1207 114.845 56.9647 112.177 60.7117 113.444C63.1216 114.258 64.3562 116.377 65.0894 118.663C65.4776 119.87 65.8011 121.116 66.0814 122.35C66.254 123.132 66.4049 123.924 66.4858 124.722C66.5127 125.078 66.5343 125.439 66.5343 125.784C66.5343 126.022 66.4265 127.057 66.5127 127.229C65.3482 124.641 63.1216 120.744 59.4447 121.132C55.0401 121.606 50.7809 126.566 49.9776 134.297C49.6272 137.688 49.8967 141.306 51.2931 144.455C52.4361 147.037 54.6357 149.565 57.7195 149.091C62.507 148.331 66.254 143.7 67.9414 139.468C69.7745 135.009 70.0764 130.071 70.0764 125.235C70.0494 119.035 68.3512 110.408 61.8439 107.691C56.9054 105.643 50.8025 107.923 46.2145 111.055C38.6667 116.193 34.0841 124.124 31.4046 132.68C29.4637 138.977 28.6011 146.805 29.3074 154.558H29.3559C29.7387 159.043 30.6929 163.443 32.1378 167.621C36.1651 179.115 47.8373 187.623 59.8383 180.884C67.3861 176.635 71.0738 170.629 74.8261 163.011C75.6887 161.221 76.4651 158.574 77.1767 156.607C77.1767 156.585 77.1552 156.585 77.1552 156.563C77.8614 154.428 78.4491 151.797 78.902 150.509C79.0529 151.172 79.2254 151.997 79.2794 152.169C79.8886 155.232 80.4978 157.189 82.1745 159.868C83.6409 162.176 85.4901 163.464 87.7976 163.723C91.6955 164.106 95.2376 162.079 97.6475 159.135C98.5486 158.022 99.3142 156.806 99.928 155.512C100.408 154.499 101.244 152.649 101.502 151.415C101.998 153.614 102.537 158.073 104.818 159.087C108.7 160.833 112.668 157.518 114.495 154.536C115.59 152.763 116.393 150.843 117.148 148.935C117.407 148.331 118.49 144.083 119.046 142.142C119.153 142.902 120.69 146.153 121.148 147.005C122.89 150.32 125.391 153.205 129.144 154.164C132.529 155.07 136.26 154.396 139.317 152.698C140.099 152.288 140.832 151.808 141.522 151.253C148.051 146.115 150.126 137.02 150.126 137.02C150.17 136.977 150.66 135.295 150.903 134.437C151.059 135.041 151.334 136.378 151.383 136.637C151.965 139.699 152.569 141.656 154.186 144.336C155.631 146.687 157.486 147.98 159.793 148.261C163.669 148.692 167.255 146.665 169.686 143.754C170.619 142.638 171.33 141.473 171.994 140.152C172.49 139.166 173.331 137.316 173.584 136.103C174.085 138.281 174.576 142.74 176.857 143.797C180.679 145.571 184.706 142.309 186.582 139.317C187.677 137.548 188.502 135.651 189.294 133.753C189.548 133.122 190.308 130.885 190.739 129.44C191.575 132.658 192.508 135.624 194.637 138.131C196.616 140.433 199.446 142.028 202.487 142.357C209.517 143.112 214.838 136.966 216.865 130.863C219.238 123.703 219.626 115.39 217.556 108.123L217.566 108.112ZM100.57 145.15C100.55 146.307 100.442 147.46 100.246 148.6C99.858 150.854 99.1032 153.075 97.7392 154.897C96.6825 156.294 94.9573 157.528 93.259 157.054C91.8141 156.644 90.9515 155.199 90.4178 153.835C88.8004 149.83 88.5632 145.425 88.4715 141.123C88.423 138.06 88.423 134.998 88.9028 131.957C89.2263 129.957 89.7654 127.989 90.5687 126.113C91.3774 124.345 92.3587 122.49 94.3157 121.865C94.4235 121.838 94.5475 121.816 94.6392 121.784C95.1412 121.654 95.6661 121.639 96.1748 121.74C96.6835 121.841 97.1629 122.055 97.5774 122.366C98.2406 122.862 98.6557 123.633 98.9953 124.388C99.8849 126.545 100.138 128.917 100.289 131.246C100.521 134.739 100.591 138.233 100.613 141.748C100.613 142.891 100.613 144.034 100.57 145.139V145.15ZM172.748 129.828C172.709 130.976 172.592 132.119 172.398 133.251C171.994 135.51 171.212 137.732 169.81 139.527C168.753 140.945 167.007 142.136 165.308 141.656C163.885 141.225 163.028 139.78 162.505 138.422C160.931 134.389 160.731 130.011 160.71 125.704C160.661 122.641 160.71 119.557 161.222 116.538C161.343 115.755 161.511 114.979 161.723 114.215C162.025 113.002 162.429 111.842 162.963 110.694C163.75 108.953 164.764 107.098 166.737 106.489C167.281 106.302 167.862 106.249 168.43 106.337C168.998 106.424 169.537 106.648 169.999 106.99C170.662 107.529 171.061 108.284 171.401 109.066C171.956 110.489 172.263 111.977 172.436 113.525C172.517 114.306 172.56 115.12 172.608 115.897C172.808 119.417 172.867 122.911 172.84 126.437C172.84 127.558 172.84 128.701 172.759 129.828H172.748ZM209.717 124.415C209.463 126.588 209.312 128.917 208.854 131.073C208.32 133.505 207.927 135.834 206.875 138.136C206.013 139.991 203.84 140.702 202.417 138.955C199.937 135.845 199.505 127.634 199.354 123.865C199.204 119.185 199.074 114.808 199.737 110.171C199.764 110.15 199.764 110.09 199.764 110.063C200.142 107.26 201.312 99.1837 205.84 100.86C207.026 101.292 207.91 102.348 208.52 103.464C209.296 104.888 209.576 106.634 209.76 108.354C209.846 109.195 209.894 110.026 209.965 110.813C210.089 112.489 210.116 114.134 210.089 115.827C210.008 118.846 210.067 121.455 209.706 124.437L209.717 124.415Z" fill="white"/>
<path d="M188.912 48.5436L188.653 47.681C187.014 42.7426 183.741 39.0549 178.76 37.912H178.733C178.023 37.7551 177.302 37.6542 176.576 37.6101C174.071 37.4231 171.571 38.0428 169.444 39.3784C167.007 40.8718 165.066 43.2224 163.837 46.0421C161.51 51.2227 160.561 56.9166 161.082 62.5718C161.384 65.6125 160.37 68.7556 158.984 71.4136C158.455 72.513 157.756 73.5227 156.914 74.4057C156.224 75.0904 154.736 76.0231 153.701 75.6134C153.011 75.36 152.639 74.5782 152.58 73.845C152.326 71.1656 152.58 68.3028 152.58 65.5209C152.736 61.7685 153.722 42.1496 153.701 41.6967C153.652 41.6751 153.593 41.6751 153.523 41.6751L151.604 42.0579C150.87 42.2089 150.094 42.4676 149.275 42.8127C148.461 43.1362 147.679 43.5944 146.902 44.2144C146.344 44.6792 145.857 45.2243 145.458 45.8318C145.28 46.1122 145.069 46.4141 144.956 46.716C144.929 46.7969 144.724 47.3791 144.778 47.4276C143.641 46.5866 142.676 45.4436 141.393 44.8182C137.7 42.9421 132.486 44.0635 129.467 46.6944C126.61 49.2553 124.766 52.8944 123.601 56.485C122.458 60.0217 122.092 64.3563 121.337 68.0009C120.707 71.253 119.574 74.387 117.978 77.2901C117.137 78.805 116.431 80.4332 115.266 81.7756C114.377 82.7622 111.536 84.4875 110.932 82.18C110.859 81.8314 110.808 81.4784 110.781 81.1233C110.759 76.2064 110.781 71.2734 111.131 66.3942C111.514 60.4422 113.39 46.2362 113.18 46.1661C112.727 45.9127 109.487 47.0287 108.824 47.2497C105.249 48.4951 103.303 51.2555 102.748 54.5657C102.338 57.0188 102.165 57.2398 101.907 59.6982C101.432 64.0275 101.502 68.4322 99.7502 72.4379C99.7286 72.5188 98.7204 74.7184 98.6719 74.7885C98.4994 75.1713 98.2621 75.5433 98.0681 75.9045C96.5747 78.4708 94.3157 80.6704 92.3155 82.5682C89.0807 85.652 84.2663 87.4581 79.7592 87.8301C75.3275 88.2129 71.7639 85.8892 69.4618 82.18C66.8476 78.0181 65.25 73.2992 64.7983 68.4052C64.6666 67.0581 64.566 65.7081 64.4964 64.3563C64.5283 61.1373 64.9354 57.933 65.7094 54.8083C66.874 50.1017 69.5265 44.3276 73.0524 40.2302C74.0228 39.0873 75.0364 38.1007 76.0931 37.2704C78.9559 35.0708 82.9778 32.6878 86.6331 34.2082C88.9621 35.1786 90.0781 37.3782 90.6604 39.7073C90.8329 40.4405 91.0108 41.1953 91.1348 41.9662C91.2427 42.4676 91.3128 42.9529 91.3936 43.4543C91.523 44.236 91.6254 45.0501 91.6524 45.8264C91.6524 46.2146 91.6524 46.565 91.6255 46.9263C91.6255 47.1581 91.4529 48.1663 91.5176 48.3711C90.5095 45.7132 88.5632 41.6643 84.8594 41.8153C80.4277 41.9878 75.8721 46.6459 74.535 54.2962C73.9042 58.0216 73.9743 62.1675 75.6133 65.6179C79.8454 74.4489 89.415 66.2433 92.1268 60.6741C94.2564 56.3233 94.8872 51.4064 95.1891 46.6028C95.2835 45.1522 95.2835 43.6971 95.1891 42.2466C94.8656 36.8553 93.0919 30.9734 88.1265 28.5527C83.3336 26.1967 77.1067 28.0513 72.3192 30.8548C68.7232 33.0113 65.6879 35.7716 63.154 38.9417C60.1672 42.6617 57.8705 46.9586 56.1237 51.4657C53.7515 57.6118 52.3768 65.3699 52.587 73.1388H52.6086C52.738 77.6405 53.3634 82.1261 54.5494 86.3744C57.7896 98.1275 68.8903 107.368 81.2903 101.443C89.0861 97.7177 93.2105 91.976 97.4103 84.6061C98.4239 82.8809 99.6747 80.4224 100.521 78.5031C100.699 78.1527 100.845 77.7915 101.022 77.441C100.996 77.7717 101.005 78.1043 101.049 78.433C101.222 81.4737 101.114 84.5576 101.675 87.5713C102.489 92.0083 106.716 93.5718 110.452 92.0353C114.981 90.1807 117.266 86.3367 119.035 82.0776C119.946 79.921 120.933 77.2685 121.795 75.0689C121.903 75.1982 122.275 77.2901 122.334 77.5974C122.868 80.6812 123.413 82.6598 125.008 85.3716C126.372 87.7222 128.2 89.0647 130.529 89.3774C134.384 89.8788 137.991 87.9325 140.481 85.0697C141.473 83.9537 142.185 82.8108 142.859 81.533C143.36 80.5195 144.261 78.6918 144.525 77.4788C144.978 79.6784 145.388 84.137 147.636 85.2207C151.453 87.0753 155.507 83.8836 157.426 80.9454C158.519 79.1917 159.457 77.3463 160.23 75.4301C160.618 74.5189 162.084 70.4916 162.084 69.8878C162.92 73.1226 163.831 76.0878 165.982 78.5948C167.961 80.9022 170.791 82.4981 173.854 82.8216C180.889 83.6033 186.184 77.4302 188.211 71.3327C190.583 64.1676 190.971 55.8596 188.901 48.5922L188.912 48.5436ZM143.921 67.7906C143.894 68.9066 143.867 70.0496 143.792 71.1817C143.724 72.3294 143.58 73.4713 143.36 74.5998C142.908 76.8642 142.088 79.0638 140.681 80.8322C139.565 82.2339 137.818 83.393 136.131 82.8593C134.707 82.428 133.904 80.9616 133.392 79.5652C131.904 75.5325 131.774 71.1332 131.796 66.8256C131.823 63.7633 131.925 60.6795 132.486 57.6603C132.869 55.6602 133.451 53.7139 134.335 51.8647C135.176 50.1179 136.212 48.2849 138.19 47.7026C138.742 47.5294 139.328 47.4938 139.896 47.5991C140.465 47.7043 140.999 47.9472 141.452 48.3064C142.115 48.8456 142.487 49.6003 142.789 50.3821C143.63 52.5602 143.802 54.9108 143.905 57.2398C144.034 60.7549 144.013 64.2485 143.932 67.7798L143.921 67.7906ZM181.434 56.2424C181.391 59.2562 181.412 61.8656 181.051 64.8469C180.792 67.0196 180.641 69.3487 180.188 71.5052C179.676 73.9367 179.283 76.2657 178.21 78.5678C177.374 80.4224 175.169 81.1341 173.773 79.3873C171.271 76.2765 170.84 68.0656 170.71 64.297C170.538 59.5958 170.43 55.1588 171.093 50.4953C171.503 47.6918 172.646 39.6103 177.175 41.2869C178.382 41.7182 179.245 42.7803 179.886 43.8963C181.029 45.9936 181.1 48.8563 181.304 51.2447C181.434 52.9214 181.482 54.5873 181.434 56.2586V56.2424Z" fill="white"/>
</g>
</g>
<defs>
<clipPath id="clip0_2010_34">
<rect width="248" height="248" fill="white"/>
</clipPath>
</defs>
</svg>
