<svg width="291" height="273" viewBox="0 0 291 273" fill="none" xmlns="http://www.w3.org/2000/svg">
<path d="M291 0V272.965H0.385546L0.184374 271.259C-0.0657705 269.138 -0.0593365 5.96661 0.19121 2.50879L0.372851 0H291Z" fill="white"/>
<path d="M265.333 257.355H21.612V240.897H265.333V257.355ZM40.2282 163.594C43.4327 162.861 51.4805 163.11 54.5368 164.036C63.5253 166.759 70.4678 174.365 72.7585 183.996L73.0212 185.101H57.4411L56.3659 182.902C53.0533 176.133 44.2755 174.544 38.5632 179.679C34.7657 183.092 33.0211 188.154 33.3757 194.734C33.6258 199.377 34.6779 202.416 37.0358 205.308C40.2311 209.226 45.5889 210.891 50.1413 209.379C52.9968 208.431 55.9432 205.524 56.6218 202.987L57.112 201.157H73.4225L73.1794 202.261C71.8146 208.449 70.1296 211.667 66.1843 215.616C60.8032 221.004 54.7025 223.389 46.3053 223.389C37.7727 223.389 31.8203 221.016 26.2292 215.386C22.5021 211.632 20.7636 208.894 19.1745 204.272C16.708 197.1 16.7027 189.145 19.1598 182.018C20.7009 177.547 22.477 174.671 25.6618 171.486C29.5806 167.569 34.501 164.903 40.2282 163.594ZM207.682 167.277C213.886 163.643 223.264 162.159 230.719 163.634C232.649 164.016 235.361 165.003 237.924 166.256C241.26 167.888 242.63 168.849 245.204 171.364C250.259 176.304 252.705 180.7 253.925 187.042C256.831 202.14 248.333 216.687 233.705 221.656C230.036 222.902 229.457 222.984 224.177 223.002C217.724 223.024 215.267 222.504 210.125 220.031C202.838 216.528 196.615 208.754 194.372 200.354C193.417 196.779 193.442 188.702 194.419 185.101C196.407 177.767 201.531 170.881 207.682 167.277ZM121.791 163.273C123.901 162.858 132.477 163.089 135.029 163.629C141.305 164.958 146.395 168.529 148.685 173.208C150.667 177.257 150.871 179.904 150.886 201.658L150.9 221.629H136.446V219.02C136.446 217.585 136.339 216.411 136.209 216.411C136.078 216.411 135.226 217.048 134.316 217.827C129.691 221.785 121.287 223.658 114.408 222.265C107.909 220.948 104.48 218.66 102.481 214.309C101.409 211.974 101.328 211.451 101.344 206.978C101.364 201.441 102.113 198.865 104.518 196.056C107.574 192.486 111.641 190.783 122.144 188.675C129.964 187.106 131.589 186.708 132.925 186.038C135.254 184.87 135.979 181.086 134.338 178.671C133.114 176.871 130.901 175.814 127.844 175.568C122.635 175.15 118.816 177.026 116.98 180.905L115.945 183.093H109.118C103.779 183.093 102.247 182.976 102.085 182.555C101.697 181.544 103.077 176.262 104.354 173.865C105.056 172.55 106.604 170.553 107.795 169.427C110.24 167.115 115.284 164.562 118.779 163.869C119.994 163.629 121.349 163.36 121.791 163.273ZM262.121 202.732C264.089 202.329 266.839 202.7 268.838 203.636C273.826 205.973 275.751 212.985 272.74 217.854C268.766 224.279 258.679 223.844 255.237 217.1C252.253 211.252 255.706 204.046 262.121 202.732ZM94.1882 180.785L94.0856 221.83H78.4264L78.3239 180.785L78.2223 139.74H94.2897L94.1882 180.785ZM186.206 163.973C188.241 163.424 191.486 163.29 193.411 163.675L194.666 163.925V178.925L190.149 178.901C186.001 178.88 185.447 178.969 183.367 179.99C180.484 181.406 178.171 183.915 176.96 186.939C176.023 189.279 176.006 189.565 175.877 205.472L175.745 221.629H159.734V164.227H174.992L175.007 169.946L175.02 175.667L176.359 172.815C178.567 168.113 181.878 165.139 186.206 163.973ZM135.341 194.746C135.175 194.753 134.75 194.928 134.396 195.136C134.041 195.343 131.06 196.261 127.771 197.177C121.208 199.004 119.939 199.527 118.242 201.103C116.568 202.656 115.858 204.284 115.824 206.654C115.768 210.508 118.153 212.395 123.08 212.396C128.749 212.397 133.036 209.695 134.787 205.019C135.45 203.248 135.643 201.831 135.643 198.733C135.643 196.534 135.507 194.74 135.341 194.746ZM229.606 177.954C226.797 176.645 222.224 176.349 219.591 177.306C214.569 179.132 210.723 183.455 209.264 188.914C207.217 196.579 211.284 205.11 218.589 208.474C221.342 209.741 226.531 209.74 229.337 208.471C235.702 205.591 239.23 200.313 239.318 193.539C239.406 186.799 235.648 180.769 229.606 177.954Z" fill="black"/>
</svg>
