<svg width="2841" height="687" viewBox="0 0 2841 687" fill="none" xmlns="http://www.w3.org/2000/svg">
<path fill-rule="evenodd" clip-rule="evenodd" d="M539.97 134.426L396.419 61.287V173.362L539.97 229.383V134.426Z" fill="#121212"/>
<path fill-rule="evenodd" clip-rule="evenodd" d="M539.97 329.851L396.419 291.869V419.813L539.97 439.987V329.851Z" fill="#121212"/>
<path fill-rule="evenodd" clip-rule="evenodd" d="M653.468 359.889L549.378 332.355V441.308L653.468 455.928V359.889Z" fill="#121212"/>
<path fill-rule="evenodd" clip-rule="evenodd" d="M653.468 463.279L549.378 451.253V543.975L653.468 543.055V463.279Z" fill="#121212"/>
<path fill-rule="evenodd" clip-rule="evenodd" d="M653.468 549.976L549.378 551.554V642.896L653.468 629.754V549.976Z" fill="#121212"/>
<path fill-rule="evenodd" clip-rule="evenodd" d="M539.97 551.664L396.419 553.834V662.163L539.97 644.057V551.664Z" fill="#121212"/>
<path fill-rule="evenodd" clip-rule="evenodd" d="M653.533 192.267L549.378 139.237V233.043L653.468 273.653L653.533 192.267Z" fill="#121212"/>
<path fill-rule="evenodd" clip-rule="evenodd" d="M539.97 237.168L396.419 183.48V281.754L539.97 319.738V237.168Z" fill="#121212"/>
<path d="M2089.3 401.142V219.214H2033.25V190.858H2204.28V219.214H2148.22V401.142H2089.3Z" fill="#121212"/>
<path d="M1838.8 401.142V190.858H1903.54L1973.08 298.432V190.858H2004.66V401.142H1970.42L1870.05 247.503V401.142H1838.8Z" fill="#121212"/>
<path d="M1659.4 401.142V190.858H1791.1V219.214H1718.31V280.393H1787.25V308.715H1718.31V372.82H1794.97V401.142H1659.4Z" fill="#121212"/>
<path d="M1401.51 401.142V190.858H1456.62L1503.9 304.28L1550.91 190.858H1608.58V401.142H1549.96V262.881L1493.21 401.142H1487.59L1432.1 269.024V401.142H1401.51Z" fill="#121212"/>
<path d="M1222.09 401.142V190.858H1353.78V219.214H1281V280.393H1349.94V308.715H1281V372.82H1357.66V401.142H1222.09Z" fill="#121212"/>
<path d="M1053.67 401.142V190.858H1112.61V372.82H1188.91V401.142H1053.67Z" fill="#121212"/>
<path d="M874.218 401.142V190.858H1005.94V219.214H933.163V280.393H1002.06V308.715H933.163V372.82H1009.78V401.142H874.218Z" fill="#121212"/>
<path d="M2662.76 399.876V237.497H2708.26V377.993H2767.22V399.876H2662.76Z" fill="#BD081C"/>
<path d="M2622.94 399.876H2577.44V237.497H2622.94V399.876Z" fill="#BD081C"/>
<path d="M2466.31 399.876V259.38H2423.02V237.497H2555.08V259.38H2511.81V399.876H2466.31Z" fill="#BD081C"/>
<path d="M2318.31 358.595C2321.6 366.415 2325.77 372.428 2330.73 376.667C2335.69 380.839 2341.21 382.943 2347.19 382.943C2353.37 382.943 2358.43 381.136 2362.33 377.488C2366.34 373.875 2368.31 369.274 2368.31 363.82C2368.31 359.319 2366.83 355.309 2363.85 351.696C2360.85 348.147 2355.96 344.467 2349.16 340.755L2342.72 337.239C2327.94 329.353 2319.09 324.162 2316.11 321.566C2309.93 316.243 2305.55 310.888 2303 305.565C2300.46 300.274 2299.18 294.065 2299.18 286.967C2299.18 271.294 2304.44 258.546 2314.92 248.624C2325.43 238.733 2339.11 233.74 2355.93 233.74C2367.79 233.74 2378.14 236.435 2387.05 241.822C2395.95 247.212 2402.91 254.965 2407.94 265.118L2389.44 278.03C2386.22 270.211 2382.11 264.395 2377.15 260.485C2372.16 256.575 2366.25 254.636 2359.37 254.636C2353.66 254.636 2348.86 256.411 2345.11 259.992C2341.34 263.541 2339.47 268.042 2339.47 273.364C2339.47 277.899 2341.04 281.875 2344.17 285.259C2347.25 288.676 2353.23 292.652 2362.14 297.219L2365.16 298.797C2381.79 307.044 2391.77 312.53 2395.16 315.389C2401.17 320.317 2405.5 325.508 2408.14 330.995C2410.77 336.45 2412.08 342.791 2412.08 350.086C2412.08 366.054 2406.52 379.032 2395.38 389.054C2384.22 399.075 2369.76 404.102 2351.94 404.102C2339.23 404.102 2328 401.31 2318.24 395.724C2308.48 390.138 2301.05 382.253 2295.96 372.067L2318.31 358.595Z" fill="#BD081C"/>
<path d="M2583.24 614.452V533.396H2598.67V614.452H2583.24Z" fill="#121212"/>
<path d="M2549.36 614.454V533.396H2564.8V614.454H2549.36Z" fill="#121212"/>
<path d="M2497.25 645.054L2493.54 640.356C2496.11 638.516 2497.69 637.136 2498.27 636.282C2498.87 635.427 2499.13 634.475 2499.13 633.555C2499.13 632.568 2498.48 631.451 2497.13 630.17C2495.78 628.889 2495.12 627.509 2495.12 625.997C2495.12 621.628 2497.42 619.459 2502.05 619.459C2506.91 619.459 2509.35 622.021 2509.35 627.147C2509.35 634.408 2505.31 640.356 2497.25 645.054Z" fill="#121212"/>
<path d="M2509.97 546.209V614.452H2494.48V546.209H2466.75V533.396H2538.91V546.209H2509.97Z" fill="#121212"/>
<path d="M2459.87 537.69L2453.49 549.585C2450.04 546.431 2444.49 544.821 2436.84 544.821C2429.57 544.821 2423.62 547.68 2418.99 553.298C2414.35 558.949 2412.02 566.111 2412.02 574.753C2412.02 583.427 2414.2 590.294 2418.49 595.387C2422.77 600.447 2428.51 602.977 2435.72 602.977C2443.93 602.977 2450.33 600.25 2454.97 594.764L2462.17 606.394C2455.85 612.669 2446.62 615.792 2434.44 615.792C2422.28 615.792 2412.82 612.078 2406.11 604.62C2399.34 597.195 2395.99 587.009 2395.99 574.162C2395.99 562.169 2399.7 552.148 2407.2 544.097C2414.66 536.048 2424.22 532.007 2435.87 532.007C2445.87 532.007 2453.89 533.913 2459.87 537.69Z" fill="#121212"/>
<path d="M2317.63 533.396H2333.08V588.298C2333.08 592.636 2334.52 596.184 2337.37 598.912C2340.2 601.639 2344.12 602.985 2349.11 602.985C2354.7 602.985 2359.04 601.639 2362.12 598.978C2365.24 596.317 2366.79 592.668 2366.79 588.003V533.396H2382.23V589.153C2382.23 597.467 2379.23 604.004 2373.23 608.736C2367.25 613.435 2359.26 615.8 2349.24 615.8C2339.12 615.8 2331.34 613.5 2325.87 608.9C2320.35 604.268 2317.63 597.697 2317.63 589.087V533.396Z" fill="#121212"/>
<path d="M2259.4 545.843V568.414C2262.26 568.644 2264.43 568.743 2265.94 568.743C2272.42 568.743 2277.12 567.889 2280.1 566.213C2283.1 564.505 2284.57 561.186 2284.57 556.291C2284.57 552.281 2283 549.489 2279.78 547.879C2276.59 546.303 2271.53 545.514 2264.63 545.514C2262.98 545.514 2261.21 545.613 2259.4 545.843ZM2292.49 614.447L2269.23 580.999C2266.86 580.966 2263.61 580.835 2259.4 580.605V614.447H2243.34V533.323C2244.22 533.323 2247.58 533.192 2253.39 532.896C2259.2 532.601 2263.9 532.47 2267.48 532.47C2289.59 532.47 2300.63 540.453 2300.63 556.422C2300.63 561.22 2299.13 565.622 2296.07 569.598C2293.02 573.54 2289.17 576.334 2284.53 577.944L2310.27 614.447H2292.49Z" fill="#121212"/>
<path d="M2204.31 546.209V614.452H2188.88V546.209H2161.14V533.396H2233.26V546.209H2204.31Z" fill="#121212"/>
<path d="M2102.68 609.909L2108.42 596.965C2114.5 600.972 2120.52 602.977 2126.43 602.977C2135.51 602.977 2140.04 600.052 2140.04 594.139C2140.04 591.379 2138.98 588.75 2136.82 586.253C2134.69 583.756 2130.28 580.931 2123.58 577.808C2116.87 574.721 2112.37 572.157 2110.07 570.154C2107.74 568.116 2105.93 565.75 2104.72 562.99C2103.43 560.198 2102.81 557.142 2102.81 553.791C2102.81 547.547 2105.27 542.324 2110.21 538.216C2115.13 534.077 2121.47 532.007 2129.19 532.007C2139.25 532.007 2146.65 533.78 2151.37 537.296L2146.68 549.716C2141.25 546.07 2135.54 544.262 2129.49 544.262C2125.95 544.262 2123.19 545.15 2121.21 546.891C2119.24 548.632 2118.25 550.898 2118.25 553.726C2118.25 558.358 2123.8 563.188 2134.84 568.181C2140.7 570.844 2144.9 573.275 2147.47 575.51C2150.06 577.743 2152 580.338 2153.34 583.296C2154.69 586.287 2155.39 589.604 2155.39 593.251C2155.39 599.79 2152.59 605.212 2147.04 609.417C2141.45 613.688 2134.02 615.792 2124.66 615.792C2116.55 615.792 2109.22 613.819 2102.68 609.909Z" fill="#121212"/>
<path d="M2082.56 615.57L2040.34 564.216V614.454H2025.49V533.396H2032.91L2074.02 582.353V533.396H2088.86V615.57H2082.56Z" fill="#121212"/>
<path d="M1951.88 573.193C1951.88 582.689 1953.58 590.016 1957.04 595.207C1960.48 600.399 1965.49 602.994 1972.05 602.994C1979.78 602.994 1985.66 600.464 1989.73 595.372C1993.77 590.28 1995.81 582.886 1995.81 573.193C1995.81 554.235 1988.28 544.739 1973.24 544.739C1966.37 544.739 1961.08 547.303 1957.4 552.428C1953.72 557.586 1951.88 564.52 1951.88 573.193ZM1935.81 573.193C1935.81 561.661 1939.2 551.903 1946 543.918C1952.8 535.901 1961.86 531.925 1973.24 531.925C1985.76 531.925 1995.35 535.54 2001.95 542.768C2008.56 549.997 2011.88 560.15 2011.88 573.193C2011.88 586.27 2008.42 596.653 2001.49 604.309C1994.59 611.965 1984.77 615.809 1972.05 615.809C1960.38 615.809 1951.42 612.03 1945.18 604.408C1938.93 596.817 1935.81 586.401 1935.81 573.193Z" fill="#121212"/>
<path d="M1925.24 537.69L1918.87 549.585C1915.42 546.431 1909.86 544.821 1902.21 544.821C1894.95 544.821 1889.01 547.68 1884.37 553.298C1879.74 558.949 1877.41 566.111 1877.41 574.753C1877.41 583.427 1879.57 590.294 1883.88 595.387C1888.14 600.447 1893.9 602.977 1901.09 602.977C1909.3 602.977 1915.72 600.25 1920.34 594.764L1927.54 606.394C1921.24 612.669 1912.01 615.792 1899.81 615.792C1887.66 615.792 1878.19 612.078 1871.46 604.62C1864.72 597.195 1861.36 587.009 1861.36 574.162C1861.36 562.169 1865.09 552.148 1872.57 544.097C1880.03 536.048 1889.59 532.007 1901.26 532.007C1911.24 532.007 1919.26 533.913 1925.24 537.69Z" fill="#121212"/>
<path d="M1738.43 546.209V565.134H1766.65V577.39H1738.43V601.639H1777.95V614.452H1722.96V533.396H1777.95V546.209H1738.43Z" fill="#121212"/>
<path d="M1660.23 546.059V601.324C1662.72 601.522 1665.42 601.653 1668.31 601.653C1676.09 601.653 1682.21 599.024 1686.62 593.767C1691.02 588.477 1693.21 581.118 1693.21 571.622C1693.21 554.306 1684.58 545.633 1667.3 545.633C1665.65 545.633 1663.28 545.764 1660.23 546.059ZM1664.11 614.467H1644.78V533.442C1657.11 533.049 1664.86 532.851 1668.02 532.851C1680.69 532.851 1690.72 536.301 1698.15 543.201C1705.58 550.134 1709.28 559.301 1709.28 570.734C1709.28 599.879 1694.2 614.467 1664.11 614.467Z" fill="#121212"/>
<path d="M1517.69 546.209V565.134H1545.92V577.39H1517.69V601.639H1557.25V614.452H1502.26V533.396H1557.25V546.209H1517.69Z" fill="#121212"/>
<path d="M1468.76 614.454V533.396H1484.2V614.454H1468.76Z" fill="#121212"/>
<path d="M1444.23 615.57L1402.02 564.216V614.453H1387.19V533.396H1394.61L1435.72 582.351V533.396H1450.57V615.57H1444.23Z" fill="#121212"/>
<path d="M1339.67 557.092L1329.16 587.025H1350.18L1339.67 557.092ZM1361.09 614.46L1354.72 597.999H1324.72L1318.64 614.46H1301.46L1336.29 532.252H1343.09L1378.11 614.46H1361.09Z" fill="#121212"/>
<path d="M1263.18 545.928V571.787C1265.81 572.049 1267.88 572.181 1269.36 572.181C1276.42 572.181 1281.58 571.063 1284.84 568.896C1288.09 566.727 1289.73 563.145 1289.73 558.216C1289.73 549.838 1282.44 545.633 1267.88 545.633C1266.27 545.633 1264.69 545.732 1263.18 545.928ZM1263.18 584.601V614.467H1247.74V533.442C1258.02 533.049 1264.07 532.851 1265.81 532.851C1279.58 532.851 1289.63 534.79 1295.97 538.732C1302.35 542.676 1305.53 548.787 1305.53 557.132C1305.53 575.697 1293.74 584.995 1270.21 584.995C1268.47 584.995 1266.14 584.864 1263.18 584.601Z" fill="#121212"/>
<path d="M1238.25 614.453H1223.26L1214.2 570.787L1196.75 615.57H1191.26L1173.81 570.787L1164.48 614.453H1149.53L1167.05 533.396H1175.19L1193.99 588.036L1212.32 533.396H1220.47L1238.25 614.453Z" fill="#121212"/>
<path d="M1083.46 573.193C1083.46 582.689 1085.17 590.016 1088.62 595.207C1092.03 600.399 1097.06 602.994 1103.63 602.994C1111.35 602.994 1117.23 600.464 1121.28 595.372C1125.35 590.28 1127.35 582.886 1127.35 573.193C1127.35 554.235 1119.83 544.739 1104.82 544.739C1097.92 544.739 1092.66 547.303 1088.98 552.428C1085.3 557.586 1083.46 564.52 1083.46 573.193ZM1067.39 573.193C1067.39 561.661 1070.78 551.903 1077.58 543.918C1084.34 535.901 1093.45 531.925 1104.82 531.925C1117.33 531.925 1126.89 535.54 1133.5 542.768C1140.14 549.997 1143.42 560.15 1143.42 573.193C1143.42 586.27 1139.97 596.653 1133.07 604.309C1126.14 611.965 1116.35 615.809 1103.63 615.809C1091.93 615.809 1082.96 612.03 1076.72 604.408C1070.51 596.817 1067.39 586.401 1067.39 573.193Z" fill="#121212"/>
<path d="M1056.8 537.69L1050.46 549.585C1047.01 546.431 1041.46 544.821 1033.8 544.821C1026.54 544.821 1020.59 547.68 1015.96 553.298C1011.29 558.949 1008.99 566.111 1008.99 574.753C1008.99 583.427 1011.13 590.294 1015.43 595.387C1019.74 600.447 1025.49 602.977 1032.65 602.977C1040.86 602.977 1047.27 600.25 1051.94 594.764L1059.13 606.394C1052.82 612.669 1043.59 615.792 1031.4 615.792C1019.24 615.792 1009.78 612.078 1003.05 604.62C996.31 597.195 992.926 587.009 992.926 574.162C992.926 562.169 996.671 552.148 1004.16 544.097C1011.62 536.048 1021.18 532.007 1032.85 532.007C1042.84 532.007 1050.82 533.913 1056.8 537.69Z" fill="#121212"/>
<path d="M2785.79 232.85V195.296H2801.8C2805.8 195.296 2808.73 195.624 2810.54 196.314C2812.38 196.972 2813.81 198.187 2814.9 199.895C2816.02 201.637 2816.55 203.609 2816.55 205.81C2816.55 208.635 2815.72 210.969 2814.08 212.809C2812.43 214.648 2809.98 215.798 2806.69 216.291C2808.29 217.245 2809.65 218.296 2810.73 219.446C2811.78 220.562 2813.23 222.599 2815.04 225.524L2819.6 232.85H2810.54L2805.07 224.669C2803.14 221.746 2801.8 219.906 2801.07 219.15C2800.35 218.393 2799.6 217.868 2798.8 217.606C2797.98 217.31 2796.7 217.178 2794.95 217.178H2793.42V232.85H2785.79ZM2793.42 211.199H2799.04C2802.68 211.199 2804.95 211.034 2805.84 210.739C2806.76 210.41 2807.47 209.884 2807.97 209.129C2808.49 208.373 2808.73 207.453 2808.73 206.303C2808.73 205.054 2808.39 204.035 2807.74 203.248C2807.05 202.459 2806.09 201.965 2804.88 201.768C2804.25 201.669 2802.41 201.637 2799.33 201.637H2793.42V211.199Z" fill="#BD081C"/>
<path fill-rule="evenodd" clip-rule="evenodd" d="M2779.62 180.276H2822C2828.75 180.276 2834.23 185.796 2834.23 192.498V234.916C2834.23 241.619 2828.75 247.139 2822 247.139H2779.62C2772.89 247.139 2767.4 241.619 2767.4 234.916V192.498C2767.4 185.796 2772.89 180.276 2779.62 180.276ZM2779.62 173.869H2822C2832.26 173.869 2840.67 182.247 2840.67 192.498V234.916C2840.67 245.168 2832.26 253.546 2822 253.546H2779.62C2769.38 253.546 2760.98 245.168 2760.98 234.916V192.498C2760.98 182.247 2769.38 173.869 2779.62 173.869Z" fill="#BD081C"/>
<path fill-rule="evenodd" clip-rule="evenodd" d="M520.77 95.0219L337.691 0V111.549L520.77 187.94V95.0219Z" fill="#BD081C"/>
<path fill-rule="evenodd" clip-rule="evenodd" d="M520.797 332.713L337.719 286.451V398L520.797 425.632V425.009V332.713Z" fill="#BD081C"/>
<path fill-rule="evenodd" clip-rule="evenodd" d="M520.797 569.879L337.719 574.938V686.487L520.797 662.831V569.879Z" fill="#BD081C"/>
<path fill-rule="evenodd" clip-rule="evenodd" d="M323.567 111.549V0L140.489 95.0219V187.94L323.567 111.549Z" fill="#BD081C"/>
<path fill-rule="evenodd" clip-rule="evenodd" d="M323.567 398V286.451L140.489 332.713V425.632L323.567 398Z" fill="#BD081C"/>
<path fill-rule="evenodd" clip-rule="evenodd" d="M323.567 686.487V574.938L140.489 569.879V662.831L323.567 686.487Z" fill="#BD081C"/>
<path fill-rule="evenodd" clip-rule="evenodd" d="M0 565.795L48.398 566.19H48.7595L121.504 566.814V660.423L42.2867 650.927L0 645.9V565.795Z" fill="#BD081C"/>
<path fill-rule="evenodd" clip-rule="evenodd" d="M101.166 454.501L121.504 452.07V502.473V545.678L0 546.566V466.462L101.166 454.501Z" fill="#BD081C"/>
<path fill-rule="evenodd" clip-rule="evenodd" d="M47.8067 354.069L121.504 336.03V351.604V429.639L0 445.903V365.798L47.8067 354.069Z" fill="#BD081C"/>
<path fill-rule="evenodd" clip-rule="evenodd" d="M0 266.916L121.504 217.894V231.267V311.503L0 347.02V266.916Z" fill="#BD081C"/>
<path fill-rule="evenodd" clip-rule="evenodd" d="M0 166.87L84.5405 123.992L121.504 105.231V196.245L0 246.975V166.87Z" fill="#BD081C"/>
<path fill-rule="evenodd" clip-rule="evenodd" d="M868.582 457.624H2773.03V471.819H868.582V457.624Z" fill="#BD081C"/>
</svg>
