<svg width="200" height="70" viewBox="0 0 200 70" fill="none" xmlns="http://www.w3.org/2000/svg">
<g clip-path="url(#clip0_2015_1554)">
<path d="M32.2802 69.9999H31.5002C30.2869 69.2932 29.5569 68.2999 29.3102 67.0199C28.9902 65.4399 29.9202 64.2499 29.9502 62.6599C29.9568 62.1425 29.8258 61.6288 29.5702 61.1699C28.5036 59.2299 27.4136 57.1699 26.3002 54.9899C25.1002 52.6499 25.4402 50.6699 27.0402 48.3699C29.1069 45.3965 30.3436 42.0332 30.7502 38.2799C31.1402 34.6299 29.1002 33.7499 25.9502 32.1999C25.648 32.0487 25.3871 31.8255 25.1902 31.5499C24.8569 31.0832 24.5669 30.7732 24.3202 30.6199C24.2417 30.5734 24.1543 30.5437 24.0637 30.5327C23.9731 30.5217 23.8812 30.5296 23.7938 30.5559C23.7064 30.5822 23.6254 30.6264 23.5559 30.6856C23.4865 30.7448 23.43 30.8177 23.3902 30.8999C21.4769 34.9599 20.3836 37.5499 20.1102 38.6699C18.8569 43.8432 17.4469 48.3199 15.8802 52.0999C13.3702 58.1599 7.47022 63.1299 0.680221 63.1699C0.615482 63.168 0.55322 63.1446 0.50336 63.1033C0.453499 63.0619 0.418909 63.0051 0.405103 62.9418C0.391297 62.8785 0.39907 62.8125 0.427183 62.7541C0.455296 62.6958 0.50213 62.6485 0.560221 62.6199C2.80022 61.5932 4.54022 60.7399 5.78022 60.0599C12.8902 56.1299 13.9302 45.4499 14.4102 38.3899C15.3502 24.3599 27.1102 11.5399 41.2602 11.9399C43.6069 12.0065 46.4369 12.6332 49.7502 13.8199C53.3102 15.0899 56.4002 15.7399 59.3802 13.1299C61.4602 11.3032 62.8269 10.0432 63.4802 9.34988C63.5343 9.29281 63.5762 9.22534 63.6035 9.15143C63.6308 9.07751 63.6429 8.99865 63.6392 8.91947C63.6355 8.84028 63.616 8.76238 63.5818 8.69032C63.5476 8.61827 63.4995 8.55352 63.4402 8.49988C61.5202 6.74988 59.2002 4.22988 60.6702 1.67988C60.7791 1.49453 60.9556 1.35864 61.1626 1.30082C61.3697 1.243 61.5911 1.26776 61.7802 1.36988C64.0869 2.64321 65.0602 4.42654 64.7002 6.71988C64.6897 6.78884 64.6957 6.85932 64.7178 6.92551C64.7398 6.99169 64.7773 7.05168 64.8271 7.10052C64.877 7.14936 64.9377 7.18565 65.0043 7.2064C65.0709 7.22716 65.1415 7.23178 65.2102 7.21988L65.4702 7.17988C65.5431 7.16751 65.6111 7.13693 65.6673 7.09126C65.7236 7.0456 65.7659 6.98646 65.7902 6.91988L67.8702 0.789876C67.9175 0.651316 68.0038 0.529367 68.1188 0.438691C68.2337 0.348015 68.3724 0.292472 68.5182 0.278741C68.664 0.26501 68.8106 0.293674 68.9405 0.361288C69.0703 0.428902 69.1779 0.532587 69.2502 0.659876C70.9102 3.55988 69.3902 5.28988 67.6802 7.45988C67.6305 7.52468 67.5993 7.6016 67.59 7.68274C67.5806 7.76388 67.5934 7.84632 67.627 7.92163C67.6606 7.99693 67.7137 8.06238 67.7811 8.11128C67.8484 8.16017 67.9275 8.19075 68.0102 8.19988L68.6802 8.25988C68.908 8.27907 69.1292 8.34392 69.3303 8.4505C69.5314 8.55708 69.7083 8.70316 69.8502 8.87988C71.6902 11.1732 73.9736 12.4399 76.7002 12.6799C76.9852 12.704 77.258 12.8066 77.4884 12.9762C77.7187 13.1459 77.8976 13.3759 78.0053 13.6409C78.1129 13.906 78.1452 14.1956 78.0984 14.4778C78.0516 14.76 77.9276 15.0238 77.7402 15.2399L76.8102 16.2699C76.2699 16.8624 75.5828 17.3012 74.8187 17.5419C74.0546 17.7825 73.2408 17.8163 72.4602 17.6399L68.3102 16.6899C68.025 16.627 67.7296 16.6271 67.4445 16.69C67.1593 16.7529 66.8913 16.8772 66.659 17.0542C66.4268 17.2313 66.2359 17.4568 66.0997 17.7151C65.9635 17.9734 65.8852 18.2582 65.8702 18.5499C65.6769 22.0699 64.2536 24.5465 61.6002 25.9799C61.386 26.0963 61.1988 26.2562 61.0506 26.4491C60.9024 26.6421 60.7967 26.8638 60.7402 27.0999L59.8202 31.0399C59.7792 31.217 59.774 31.4003 59.8049 31.5789C59.8359 31.7575 59.9023 31.9279 60.0002 32.0799C63.1202 36.8399 67.5902 48.6899 60.0702 51.7399C51.5702 55.1899 47.7002 48.9199 49.9802 41.4399C51.1336 37.6465 51.7136 35.6099 51.7202 35.3299C51.7233 35.2147 51.7573 35.1021 51.8188 35.0037C51.8803 34.9053 51.967 34.8246 52.0702 34.7699C52.2969 34.6565 52.4902 34.4499 52.6502 34.1499C52.7169 34.0299 52.7002 33.7832 52.6002 33.4099C52.1736 31.8565 51.6369 29.4965 50.9902 26.3299C50.9196 25.9749 50.9799 25.6056 51.1602 25.2899L52.7002 22.6199C52.7128 22.5983 52.7203 22.5743 52.722 22.55C52.7237 22.5257 52.7197 22.5016 52.7102 22.4799L52.4202 21.8899C52.4 21.847 52.3685 21.8104 52.329 21.7841C52.2895 21.7579 52.2436 21.7429 52.1963 21.7408C52.1489 21.7388 52.1019 21.7497 52.0603 21.7725C52.0187 21.7952 51.9841 21.8289 51.9602 21.8699L50.0202 25.2299C49.9388 25.3706 49.8893 25.527 49.8755 25.6878C49.8617 25.8486 49.8838 26.0099 49.9402 26.1599C50.3502 27.2499 50.7902 28.2699 50.6702 29.5299C50.6566 29.7014 50.5851 29.8635 50.4673 29.9904C50.3495 30.1172 50.1921 30.2016 50.0202 30.2299L44.1602 31.1699C44.0776 31.1829 43.9931 31.1782 43.9126 31.156C43.8321 31.1339 43.7574 31.0949 43.6938 31.0417C43.6301 30.9885 43.579 30.9224 43.5438 30.8478C43.5087 30.7733 43.4904 30.6921 43.4902 30.6099C43.4636 27.5832 42.2436 25.2965 39.8302 23.7499C39.7859 23.7192 39.7323 23.7051 39.6787 23.71C39.625 23.7148 39.5748 23.7383 39.5367 23.7764C39.4987 23.8145 39.4752 23.8647 39.4703 23.9183C39.4655 23.972 39.4796 24.0256 39.5102 24.0699C42.1436 27.9832 42.1369 32.0699 39.4902 36.3299C38.4569 37.9899 36.3836 41.0699 33.2702 45.5699C29.8636 50.4832 29.7036 55.9399 32.7902 61.9399C34.1836 64.6532 34.0136 67.3399 32.2802 69.9999ZM54.6102 31.1099C55.3702 30.4432 56.2136 30.2032 57.1402 30.3899C57.2986 30.4203 57.4627 30.3926 57.6024 30.3118C57.742 30.2309 57.8477 30.1024 57.9002 29.9499L58.5602 27.9999C58.5807 27.9448 58.5845 27.8849 58.5713 27.8277C58.558 27.7704 58.5282 27.7183 58.4856 27.6779C58.443 27.6374 58.3895 27.6103 58.3316 27.6C58.2738 27.5897 58.2142 27.5966 58.1602 27.6199L54.4902 29.0399C54.322 29.1054 54.175 29.2167 54.0656 29.3614C53.9562 29.5061 53.8886 29.6786 53.8702 29.8599L53.8002 30.6999C53.7922 30.797 53.8133 30.8943 53.8609 30.9794C53.9085 31.0645 53.9803 31.1334 54.0673 31.1774C54.1542 31.2214 54.2523 31.2385 54.349 31.2265C54.4458 31.2145 54.5367 31.1739 54.6102 31.1099ZM54.8202 32.5099C54.9536 33.2565 55.2469 34.0065 55.7002 34.7599C55.8499 35.0092 55.9508 35.2851 55.9961 35.5686C56.0413 35.8521 56.0299 36.1366 55.9624 36.4025C55.895 36.6684 55.7732 36.9094 55.6054 37.1092C55.4376 37.309 55.2278 37.4627 54.9902 37.5599C54.7769 37.6465 54.2936 37.7632 53.5402 37.9099C53.4107 37.937 53.2907 37.9979 53.1923 38.0864C53.0939 38.1749 53.0207 38.2878 52.9801 38.4137C52.9395 38.5396 52.9329 38.6741 52.961 38.8034C52.9891 38.9326 53.051 39.0522 53.1402 39.1499C53.7536 39.8099 54.5902 40.0532 55.6502 39.8799C58.7236 39.3732 60.1002 37.4565 59.7802 34.1299C59.7649 33.9747 59.713 33.8253 59.6291 33.6941C59.5451 33.5629 59.4314 33.4536 59.2974 33.3753C59.1634 33.2971 59.013 33.2522 58.8587 33.2443C58.7044 33.2364 58.5507 33.2657 58.4102 33.3299C57.4036 33.7899 56.4269 33.4199 55.4802 32.2199C55.4302 32.1529 55.3589 32.1048 55.2781 32.0835C55.1972 32.0622 55.1115 32.069 55.035 32.1026C54.9584 32.1362 54.8955 32.1948 54.8565 32.2688C54.8175 32.3427 54.8047 32.4277 54.8202 32.5099Z" fill="#4A0000"/>
<path d="M152.968 9.0405C150.742 9.02108 148.926 10.4022 148.911 12.1252C148.896 13.8483 150.688 15.2608 152.914 15.2803C155.139 15.2997 156.956 13.9186 156.971 12.1955C156.986 10.4725 155.194 9.05992 152.968 9.0405Z" fill="#4A0000"/>
<path d="M168.13 33.2703C167.043 34.1503 165.83 34.727 164.49 35.0003C164.152 35.073 163.807 35.0866 163.47 35.0403C161.43 34.767 160.053 33.637 159.34 31.6503C159.254 31.4189 159.21 31.1717 159.21 30.9203L159.1 12.1103C159.096 11.6793 159.185 11.2525 159.36 10.8585C159.535 10.4645 159.792 10.1123 160.114 9.82554C160.435 9.53875 160.815 9.32392 161.226 9.19541C161.638 9.0669 162.072 9.02765 162.5 9.0803L162.96 9.1303C163.444 9.14193 163.922 9.24943 164.365 9.44662C164.807 9.6438 165.207 9.92675 165.54 10.2791C165.872 10.6315 166.132 11.0463 166.304 11.4997C166.476 11.953 166.556 12.4358 166.54 12.9203C166.373 17.8003 166.306 22.8236 166.34 27.9903C166.353 29.7836 166.953 31.1803 168.14 32.1803C168.22 32.2483 168.284 32.333 168.328 32.4283C168.371 32.5236 168.393 32.6271 168.392 32.7313C168.391 32.8356 168.367 32.938 168.322 33.0312C168.277 33.1244 168.211 33.2061 168.13 33.2703Z" fill="#4A0000"/>
<path d="M89.0807 15.8498C89.029 15.8196 88.9702 15.8032 88.9104 15.8022C88.8506 15.8012 88.7918 15.8157 88.74 15.8441C88.6882 15.8726 88.6453 15.914 88.6155 15.9641C88.5858 16.0143 88.5703 16.0714 88.5707 16.1298L88.5507 19.6098C88.5506 19.678 88.5644 19.7456 88.5914 19.8083C88.6184 19.871 88.6579 19.9275 88.7076 19.9744C88.7572 20.0212 88.816 20.0574 88.8801 20.0807C88.9443 20.104 89.0126 20.1139 89.0807 20.1098L92.4707 19.8998C92.7459 19.8834 93.0215 19.9235 93.2806 20.0177C93.5397 20.1118 93.7768 20.258 93.9773 20.4473C94.1778 20.6365 94.3374 20.8647 94.4463 21.118C94.5552 21.3712 94.6112 21.6441 94.6107 21.9198V22.3998C94.6113 22.8073 94.4555 23.1999 94.1748 23.4972C93.8942 23.7946 93.51 23.9743 93.1007 23.9998L89.1907 24.2398C89.0284 24.2488 88.875 24.3157 88.7591 24.428C88.6432 24.5402 88.5727 24.6901 88.5607 24.8498C88.4007 26.7764 88.5574 28.5631 89.0307 30.2098C89.2907 31.1198 90.2807 31.2598 90.7207 31.9198C90.8202 32.0621 90.865 32.2357 90.8466 32.4085C90.8282 32.5812 90.748 32.7415 90.6207 32.8598C86.4307 36.7998 81.0007 35.1498 80.9807 29.2498C80.974 25.4898 80.9707 19.9598 80.9707 12.6598C80.9708 12.3448 81.0499 12.0353 81.2007 11.7598C81.8807 10.5131 82.984 9.87977 84.5107 9.85977C91.504 9.7931 95.354 9.75977 96.0607 9.75977C96.4091 9.7599 96.7517 9.84925 97.0557 10.0193C97.3598 10.1894 97.6152 10.4345 97.7977 10.7313C97.9802 11.028 98.0836 11.3666 98.0982 11.7147C98.1127 12.0628 98.0378 12.4088 97.8807 12.7198L97.5307 13.4098C97.1506 14.1671 96.5783 14.8114 95.8711 15.2782C95.1639 15.745 94.3465 16.018 93.5007 16.0698C91.0407 16.2298 89.5674 16.1564 89.0807 15.8498Z" fill="#4A0000"/>
<path d="M125.67 19.5603C125.693 19.6329 125.736 19.6974 125.795 19.746C125.854 19.7947 125.925 19.8256 126.001 19.8351C126.076 19.8445 126.153 19.8322 126.222 19.7994C126.291 19.7667 126.349 19.7149 126.39 19.6503C128.54 16.0603 133.89 14.4503 135.59 19.4503C135.616 19.5333 135.665 19.6073 135.731 19.664C135.798 19.7207 135.878 19.7579 135.964 19.7713C136.051 19.7848 136.139 19.7741 136.219 19.7404C136.299 19.7066 136.369 19.6512 136.42 19.5803C137.98 17.467 139.503 16.3803 140.99 16.3203C147.58 16.0503 146.27 23.8603 146.33 27.8203C146.36 29.6903 146.73 31.0503 148.27 32.0903C148.349 32.1437 148.416 32.2135 148.465 32.2948C148.515 32.3761 148.547 32.4669 148.559 32.5611C148.57 32.6552 148.561 32.7504 148.532 32.84C148.502 32.9297 148.454 33.0117 148.39 33.0803C147.276 34.3003 145.916 34.897 144.31 34.8703C137.53 34.7503 139.71 25.9403 139.29 21.9903C139.271 21.816 139.207 21.6497 139.103 21.5087C138.999 21.3677 138.859 21.2573 138.697 21.1889C138.536 21.1204 138.359 21.0965 138.185 21.1197C138.012 21.1428 137.847 21.2121 137.71 21.3203L137.42 21.5803C137.071 21.8881 136.791 22.2667 136.6 22.6908C136.408 23.115 136.309 23.575 136.31 24.0403V31.5603C136.31 32.4647 135.95 33.332 135.311 33.9715C134.671 34.611 133.804 34.9703 132.9 34.9703H132.55C131.672 34.9703 130.83 34.6216 130.209 34.0008C129.588 33.3801 129.24 32.5382 129.24 31.6603V22.2203C129.239 22.0197 129.183 21.8233 129.077 21.6529C128.971 21.4825 128.82 21.345 128.64 21.2557C128.461 21.1664 128.26 21.1289 128.06 21.1474C127.86 21.1659 127.67 21.2396 127.51 21.3603L127.15 21.6303C126.854 21.8539 126.615 22.1419 126.45 22.4715C126.285 22.8012 126.199 23.1636 126.2 23.5303V31.4803C126.2 31.9537 126.104 32.4223 125.918 32.8577C125.732 33.2931 125.459 33.6863 125.116 34.0135C124.773 34.3407 124.367 34.5951 123.922 34.7612C123.478 34.9274 123.004 35.0019 122.53 34.9803L122.26 34.9603C121.792 34.9375 121.333 34.8215 120.911 34.6192C120.488 34.4169 120.11 34.1323 119.799 33.7822C119.488 33.432 119.25 33.0233 119.099 32.5799C118.948 32.1366 118.887 31.6676 118.92 31.2003C119.17 27.7603 120.23 21.1503 117.44 19.2203C117.361 19.1654 117.295 19.0951 117.245 19.0138C117.195 18.9325 117.162 18.8419 117.149 18.7479C117.136 18.6538 117.143 18.5584 117.168 18.4676C117.194 18.3767 117.239 18.2925 117.3 18.2203C119.66 15.3303 124.38 15.6303 125.67 19.5603Z" fill="#4A0000"/>
<path d="M108.74 31.9402C108.717 31.8825 108.678 31.8322 108.629 31.7949C108.579 31.7575 108.52 31.7345 108.458 31.7283C108.396 31.7221 108.334 31.733 108.278 31.7598C108.222 31.7866 108.174 31.8282 108.14 31.8802C106.647 34.1935 104.82 35.2402 102.66 35.0202C95.0099 34.2302 94.2899 19.4002 101.43 16.7802C103.963 15.8535 106.093 16.5435 107.82 18.8502C107.872 18.9185 107.942 18.9709 108.023 19.0013C108.103 19.0318 108.19 19.0391 108.275 19.0224C108.359 19.0058 108.437 18.9658 108.5 18.9071C108.563 18.8484 108.608 18.7732 108.63 18.6902C109.45 15.4602 114.14 15.8902 115.45 18.5802C115.588 18.8691 115.653 19.185 115.64 19.5002C115.433 22.8669 115.35 25.9469 115.39 28.7402C115.41 30.5202 116.03 31.2402 117.21 32.3302C117.267 32.3841 117.313 32.4491 117.344 32.5211C117.375 32.5931 117.392 32.6705 117.392 32.7484C117.392 32.8264 117.375 32.9032 117.344 32.9741C117.313 33.0449 117.267 33.1083 117.21 33.1602C114.38 35.7502 110.4 36.0202 108.74 31.9402ZM106.114 21.0103C105.773 21.0085 105.434 21.1275 105.118 21.3605C104.801 21.5936 104.512 21.936 104.269 22.3684C104.025 22.8008 103.831 23.3146 103.697 23.8805C103.564 24.4464 103.493 25.0533 103.49 25.6666C103.483 26.9051 103.751 28.0944 104.234 28.9727C104.717 29.851 105.376 30.3465 106.065 30.3501C106.407 30.3519 106.746 30.2329 107.062 29.9999C107.379 29.7669 107.667 29.4244 107.911 28.992C108.155 28.5596 108.349 28.0458 108.483 27.4799C108.616 26.914 108.687 26.3071 108.69 25.6938C108.696 24.4553 108.429 23.266 107.946 22.3877C107.463 21.5094 106.804 21.0139 106.114 21.0103Z" fill="#4A0000"/>
<path d="M148.399 18.2404C151.499 14.8504 157.019 16.1804 157.119 21.2704C157.186 24.8304 157.259 28.1837 157.339 31.3304C157.353 31.801 157.271 32.2695 157.101 32.7081C156.93 33.1468 156.672 33.5467 156.344 33.8843C156.016 34.2218 155.623 34.4901 155.19 34.6732C154.756 34.8563 154.29 34.9505 153.819 34.9504H153.359C152.908 34.9507 152.462 34.8599 152.046 34.6835C151.631 34.5071 151.256 34.2486 150.943 33.9237C150.63 33.5987 150.386 33.2139 150.226 32.7923C150.065 32.3707 149.992 31.9211 150.009 31.4704C150.116 28.617 150.229 26.2237 150.349 24.2904C150.503 21.957 149.876 20.2237 148.469 19.0904C148.407 19.0396 148.355 18.9768 148.317 18.9058C148.279 18.8347 148.257 18.757 148.25 18.6774C148.243 18.5977 148.253 18.5178 148.279 18.4427C148.305 18.3675 148.346 18.2987 148.399 18.2404Z" fill="#4A0000"/>
<path d="M180.741 31.9097C180.735 31.8487 180.712 31.7907 180.674 31.7426C180.636 31.6945 180.585 31.6582 180.527 31.6382C180.469 31.6182 180.407 31.6152 180.347 31.6297C180.287 31.6442 180.233 31.6754 180.191 31.7197L178.181 33.8697C177.99 34.0799 177.75 34.2412 177.481 34.3397C172.731 36.0697 170.301 32.6097 170.351 28.3197C170.381 25.0397 171.201 21.1097 168.441 19.3997C168.347 19.3421 168.267 19.2643 168.207 19.1718C168.147 19.0794 168.109 18.9747 168.094 18.8655C168.08 18.7563 168.09 18.6452 168.124 18.5404C168.158 18.4356 168.215 18.3397 168.291 18.2597C170.581 15.7897 174.341 15.7397 176.511 18.6097C177.901 20.4497 177.231 26.2897 177.381 28.9997C177.389 29.1712 177.441 29.3376 177.532 29.4831C177.623 29.6287 177.75 29.7486 177.901 29.8317C178.052 29.9147 178.223 29.9581 178.396 29.9578C178.569 29.9575 178.739 29.9134 178.891 29.8297L179.301 29.5897C179.663 29.3797 179.963 29.078 180.172 28.7148C180.38 28.3515 180.491 27.9395 180.491 27.5197V19.8297C180.491 18.9545 180.839 18.1152 181.457 17.4963C182.076 16.8774 182.916 16.5297 183.791 16.5297H184.201C184.685 16.5291 185.165 16.6272 185.61 16.8183C186.055 17.0093 186.457 17.2892 186.791 17.6409C187.125 17.9927 187.384 18.4089 187.553 18.8643C187.721 19.3197 187.795 19.8046 187.771 20.2897C187.578 24.2697 187.511 27.4031 187.571 29.6897C187.671 33.4697 187.281 36.1031 186.401 37.5897C183.151 43.1297 174.571 43.5297 170.931 38.3897C170.311 37.5164 169.991 36.7431 169.971 36.0697C169.968 35.9397 170.004 35.8117 170.076 35.7029C170.147 35.5942 170.25 35.5097 170.37 35.4608C170.491 35.4119 170.623 35.401 170.75 35.4294C170.877 35.4577 170.993 35.5242 171.081 35.6197C175.151 40.0597 181.261 38.6797 180.741 31.9097Z" fill="#4A0000"/>
<path d="M45.6608 33.1005C42.1008 38.8505 37.1708 44.3005 34.3708 49.6205C33.4308 51.4071 33.3908 53.0505 34.2508 54.5505C36.8908 59.1705 39.5908 64.5905 35.4708 68.6605C35.3313 68.7901 35.151 68.8671 34.9609 68.8782C34.7708 68.8894 34.5827 68.8341 34.4289 68.7217C34.2752 68.6094 34.1653 68.447 34.1182 68.2625C34.0711 68.0779 34.0897 67.8828 34.1708 67.7105C37.1808 61.7605 30.5608 56.4605 32.1508 50.9605C33.4808 46.3605 37.0708 42.1405 41.3408 36.8405C42.0608 35.9471 42.5875 34.8738 42.9208 33.6205C43.0045 33.3158 43.1735 33.0417 43.4075 32.8308C43.6415 32.6198 43.9307 32.4809 44.2408 32.4305L45.1208 32.2905C45.2215 32.2762 45.3243 32.2908 45.4171 32.3324C45.5099 32.374 45.5891 32.441 45.6456 32.5256C45.702 32.6103 45.7334 32.7091 45.7361 32.8108C45.7388 32.9125 45.7127 33.0129 45.6608 33.1005Z" fill="#4A0000"/>
<path d="M90.1301 50.9905C90.1063 50.951 90.0703 50.9204 90.0275 50.9034C89.9846 50.8864 89.9374 50.884 89.8931 50.8965C89.8487 50.909 89.8097 50.9357 89.7821 50.9726C89.7544 51.0095 89.7397 51.0544 89.7401 51.1004L90.3801 61.6004C90.4106 62.0994 90.3333 62.5992 90.1534 63.0656C89.9735 63.532 89.6952 63.9542 89.3374 64.3034C88.9797 64.6526 88.5509 64.9206 88.0802 65.0892C87.6096 65.2578 87.1082 65.323 86.6101 65.2804L85.6801 65.2004C84.8 65.1265 83.9837 64.711 83.4047 64.0423C82.8257 63.3737 82.5299 62.5048 82.5801 61.6204C82.7601 58.3738 82.8867 53.0004 82.9601 45.5004C82.9667 44.1204 82.3834 43.0504 81.2101 42.2904C81.1176 42.2304 81.0411 42.1488 80.9872 42.0526C80.9333 41.9564 80.9036 41.8486 80.9006 41.7383C80.8977 41.6281 80.9216 41.5188 80.9703 41.4199C81.0189 41.321 81.0909 41.2354 81.1801 41.1704C83.4467 39.4904 85.5701 38.9071 87.5501 39.4204C91.1701 40.3504 94.0101 47.0504 95.3801 50.1804C95.4234 50.2793 95.4939 50.3639 95.5834 50.4243C95.6729 50.4846 95.7777 50.5183 95.8856 50.5215C95.9935 50.5246 96.1001 50.4971 96.1929 50.442C96.2858 50.3869 96.3611 50.3066 96.4101 50.2104C97.3367 48.3371 98.6867 45.8071 100.46 42.6204C102.19 39.5404 104.23 38.5104 107.35 39.9604C107.858 40.1993 108.288 40.5772 108.589 41.05C108.89 41.5227 109.05 42.0709 109.05 42.6305V61.7804C109.051 62.2695 108.949 62.7534 108.752 63.2013C108.554 63.6492 108.266 64.0514 107.904 64.3823C107.542 64.7133 107.114 64.9658 106.649 65.1238C106.184 65.2819 105.69 65.342 105.2 65.3005L104.5 65.2404C104.028 65.2002 103.569 65.0673 103.149 64.8494C102.729 64.6315 102.356 64.3329 102.051 63.9707C101.747 63.6084 101.516 63.1896 101.374 62.7383C101.231 62.287 101.179 61.812 101.22 61.3404L102.14 50.6604C102.139 50.6478 102.135 50.6357 102.127 50.6259C102.119 50.616 102.108 50.6089 102.096 50.6056C102.084 50.6023 102.071 50.6029 102.059 50.6074C102.047 50.6118 102.037 50.6199 102.03 50.6305C101.223 51.7771 100.073 53.9204 98.5801 57.0604C98.0734 58.1138 97.4801 58.8338 96.8001 59.2204C96.5852 59.3564 96.3447 59.4466 96.0934 59.4854C95.8422 59.5242 95.5856 59.5108 95.3398 59.4461C95.094 59.3813 94.8641 59.2666 94.6646 59.1091C94.465 58.9515 94.3001 58.7546 94.1801 58.5304L90.1301 50.9905Z" fill="#F4713E"/>
<path d="M155.6 49.4202C155.592 49.483 155.606 49.5459 155.637 49.6002C155.669 49.6545 155.717 49.6974 155.776 49.7228C155.834 49.7481 155.9 49.7548 155.963 49.7418C156.027 49.7288 156.085 49.6967 156.13 49.6502C156.97 48.7168 157.703 48.0468 158.33 47.6402C163.85 44.0802 170.02 51.1002 164.42 55.6202C163.94 56.0002 163.17 56.0502 162.76 56.3302C162.628 56.4162 162.536 56.5502 162.502 56.7034C162.469 56.8567 162.496 57.0171 162.58 57.1502C164.113 59.6102 166.083 61.4068 168.49 62.5402C168.557 62.5732 168.615 62.6223 168.659 62.683C168.703 62.7437 168.731 62.814 168.741 62.8875C168.751 62.9611 168.742 63.0355 168.716 63.1041C168.689 63.1727 168.646 63.2332 168.59 63.2802C162.45 68.4402 157.29 63.8502 156.62 57.2402C156.602 57.0725 156.637 56.9033 156.719 56.755C156.801 56.6068 156.927 56.4865 157.08 56.4102C157.28 56.3102 157.586 56.2468 158 56.2202C160.03 56.0902 160.87 53.9602 160.12 52.3402C160.015 52.1133 159.864 51.9107 159.676 51.745C159.489 51.5794 159.268 51.4542 159.029 51.3772C158.79 51.3003 158.537 51.2733 158.286 51.2979C158.035 51.3225 157.791 51.3981 157.57 51.5202C155.02 52.9202 155.66 58.6002 156 61.4802C156.058 61.9629 156.015 62.4526 155.873 62.918C155.731 63.3833 155.494 63.8141 155.176 64.183C154.858 64.5518 154.466 64.8505 154.026 65.0601C153.586 65.2696 153.107 65.3855 152.62 65.4002L152.22 65.4102C151.759 65.4224 151.301 65.3412 150.873 65.1716C150.445 65.0019 150.055 64.7472 149.728 64.423C149.401 64.0987 149.143 63.7115 148.97 63.2848C148.796 62.8581 148.711 62.4007 148.72 61.9402C148.8 57.0735 148.893 54.1168 149 53.0702C149.35 49.7302 148.78 46.4002 148.72 42.8802C148.709 42.3983 148.801 41.9197 148.988 41.4755C149.175 41.0314 149.453 40.6316 149.805 40.3023C150.157 39.9731 150.575 39.7216 151.03 39.5645C151.486 39.4073 151.969 39.3479 152.45 39.3902L153.19 39.4502C153.615 39.4867 154.029 39.6067 154.408 39.8034C154.788 40.0001 155.124 40.2697 155.399 40.5966C155.674 40.9235 155.882 41.3014 156.011 41.7087C156.139 42.116 156.187 42.5446 156.15 42.9702L155.6 49.4202Z" fill="#F4713E"/>
<path d="M200 47.9704V48.9804C199.573 49.9737 198.396 50.3804 196.47 50.2004C196.341 50.1893 196.212 50.2051 196.089 50.2469C195.967 50.2886 195.855 50.3553 195.76 50.4428C195.665 50.5303 195.589 50.6366 195.537 50.755C195.486 50.8734 195.459 51.0012 195.46 51.1304V58.9604C195.459 59.5508 195.685 60.1186 196.092 60.5453C196.498 60.972 197.053 61.2246 197.64 61.2504L200 61.3704V62.3004C197.39 65.2504 192.61 66.6504 189.69 63.4604C188.89 62.5871 188.496 61.0837 188.51 58.9504C188.53 54.3437 188.59 51.7371 188.69 51.1304C188.712 50.9906 188.681 50.8477 188.603 50.7294C188.526 50.6111 188.407 50.5259 188.27 50.4904C187.043 50.1771 186.49 49.3437 186.61 47.9904C186.627 47.8266 186.697 47.6732 186.809 47.5539C186.921 47.4346 187.069 47.3561 187.23 47.3304L187.97 47.2104C188.051 47.1971 188.128 47.1679 188.198 47.1244C188.268 47.0808 188.328 47.024 188.375 46.957C188.423 46.89 188.456 46.8143 188.474 46.7342C188.492 46.6541 188.494 46.5712 188.48 46.4904C187.88 42.8904 191.5 41.3404 194.46 41.5904C194.633 41.603 194.802 41.6499 194.957 41.7283C195.112 41.8068 195.249 41.9152 195.362 42.0473C195.474 42.1794 195.56 42.3326 195.612 42.498C195.665 42.6633 195.685 42.8375 195.67 43.0104L195.37 46.4304C195.361 46.5505 195.379 46.671 195.423 46.7831C195.467 46.8951 195.536 46.9957 195.625 47.0774C195.713 47.1591 195.819 47.2198 195.934 47.255C196.049 47.2901 196.171 47.2988 196.29 47.2804C198.016 47.0137 199.253 47.2437 200 47.9704Z" fill="#F4713E"/>
<path d="M122.94 62.3103C122.917 62.2526 122.878 62.2023 122.829 62.165C122.779 62.1276 122.72 62.1046 122.658 62.0984C122.596 62.0922 122.534 62.1031 122.478 62.1299C122.422 62.1567 122.374 62.1983 122.34 62.2503C120.847 64.5637 119.02 65.607 116.86 65.3803C109.21 64.5903 108.51 49.7603 115.65 47.1503C118.183 46.2237 120.31 46.9137 122.03 49.2203C122.082 49.2887 122.152 49.341 122.233 49.3714C122.313 49.4019 122.4 49.4092 122.485 49.3925C122.569 49.3759 122.647 49.3359 122.71 49.2772C122.773 49.2185 122.818 49.1434 122.84 49.0603C123.67 45.8403 128.35 46.2703 129.66 48.9603C129.798 49.2492 129.863 49.5651 129.85 49.8803C129.643 53.247 129.557 56.327 129.59 59.1203C129.61 60.9003 130.23 61.6203 131.41 62.7103C131.467 62.7642 131.513 62.8292 131.544 62.9012C131.575 62.9732 131.591 63.0506 131.591 63.1285C131.591 63.2065 131.575 63.2833 131.544 63.3542C131.513 63.4251 131.467 63.4884 131.41 63.5403C128.57 66.1303 124.59 66.3903 122.94 62.3103ZM120.24 51.3803C119.548 51.3803 118.884 51.8723 118.394 52.7481C117.905 53.6239 117.63 54.8118 117.63 56.0503C117.63 57.2889 117.905 58.4767 118.394 59.3525C118.884 60.2283 119.548 60.7203 120.24 60.7203C120.932 60.7203 121.596 60.2283 122.085 59.3525C122.575 58.4767 122.85 57.2889 122.85 56.0503C122.85 54.8118 122.575 53.6239 122.085 52.7481C121.596 51.8723 120.932 51.3803 120.24 51.3803Z" fill="#F4713E"/>
<path d="M139.759 49.6901C139.787 49.757 139.833 49.8144 139.893 49.8552C139.953 49.8959 140.023 49.9182 140.096 49.9192C140.168 49.9203 140.239 49.9001 140.3 49.8612C140.361 49.8222 140.41 49.7662 140.439 49.7001C142.029 46.0901 145.929 45.4001 148.019 49.1801C149.579 52.0001 145.349 56.4801 142.399 54.4601C141.992 54.1734 141.899 53.4968 142.119 52.4301C142.156 52.2705 142.137 52.1038 142.066 51.9571C141.994 51.8105 141.874 51.6927 141.725 51.623C141.577 51.5532 141.408 51.5358 141.247 51.5734C141.086 51.611 140.942 51.7016 140.839 51.8301C140.432 52.3301 140.219 53.0601 140.199 54.0201C140.159 56.0868 140.246 58.6368 140.459 61.6701C140.496 62.171 140.423 62.6739 140.246 63.144C140.07 63.6142 139.793 64.0403 139.436 64.3931C139.078 64.7458 138.648 65.0168 138.176 65.1872C137.703 65.3576 137.199 65.4234 136.699 65.3801L136.129 65.3301C135.27 65.2561 134.473 64.8504 133.907 64.1989C133.342 63.5475 133.052 62.7015 133.099 61.8401C133.226 59.5334 133.296 56.5334 133.309 52.8401C133.309 51.3601 132.709 50.2601 131.509 49.5401C131.434 49.4933 131.37 49.4307 131.321 49.3567C131.273 49.2827 131.241 49.1992 131.229 49.1122C131.216 49.0252 131.223 48.9368 131.249 48.8535C131.275 48.7701 131.32 48.6938 131.379 48.6301C133.939 45.8801 138.199 45.8501 139.759 49.6901Z" fill="#F4713E"/>
<path d="M175.981 58.3904C176.951 62.1104 183.231 60.8204 185.621 59.2704C185.727 59.2033 185.853 59.1739 185.978 59.1871C186.103 59.2003 186.22 59.2552 186.31 59.3429C186.4 59.4307 186.458 59.5463 186.475 59.671C186.491 59.7957 186.465 59.9223 186.401 60.0304C185.101 62.197 183.567 63.6904 181.801 64.5104C172.021 69.0204 163.741 55.6004 172.171 48.8104C175.881 45.8204 182.561 45.7104 185.561 49.9404C186.787 51.6737 186.897 53.417 185.891 55.1704C184.221 58.0704 179.461 58.7004 176.481 57.8904C176.412 57.8724 176.339 57.8728 176.27 57.8915C176.201 57.9103 176.138 57.9467 176.088 57.9973C176.037 58.0478 176.001 58.1106 175.982 58.1796C175.963 58.2486 175.963 58.3212 175.981 58.3904ZM175.651 54.7504C176.204 55.377 177.147 55.3037 178.481 54.5304C180.301 53.4704 180.697 52.3604 179.671 51.2004C178.637 50.0337 177.484 50.2904 176.211 51.9704C175.277 53.197 175.091 54.1237 175.651 54.7504Z" fill="#F4713E"/>
</g>
<defs>
<clipPath id="clip0_2015_1554">
<rect width="200" height="70" fill="white"/>
</clipPath>
</defs>
</svg>
