<svg width="500" height="215" viewBox="0 0 500 215" fill="none" xmlns="http://www.w3.org/2000/svg">
<g clip-path="url(#clip0_2015_1552)">
<path d="M131.77 0L131.74 56.44C131.74 56.5355 131.778 56.627 131.845 56.6946C131.913 56.7621 132.004 56.8 132.1 56.8H187.35C187.432 56.8 187.511 56.7684 187.569 56.7121C187.627 56.6559 187.66 56.5796 187.66 56.5L187.67 0H215.36L215.23 142.49C215.23 142.562 215.2 142.63 215.148 142.681C215.095 142.732 215.024 142.76 214.95 142.76H188C187.883 142.76 187.771 142.714 187.689 142.631C187.606 142.549 187.56 142.437 187.56 142.32V82.8C187.56 82.6594 187.505 82.5246 187.407 82.4252C187.31 82.3258 187.178 82.27 187.04 82.27H132.18C132.11 82.27 132.041 82.284 131.977 82.3111C131.913 82.3382 131.854 82.378 131.805 82.4282C131.756 82.4783 131.717 82.5378 131.69 82.6033C131.663 82.6689 131.65 82.7391 131.65 82.81V142.22C131.65 142.345 131.6 142.464 131.512 142.552C131.424 142.64 131.304 142.69 131.18 142.69H104.36C104.303 142.69 104.247 142.679 104.195 142.657C104.143 142.636 104.096 142.604 104.056 142.564C104.016 142.524 103.984 142.477 103.962 142.425C103.941 142.372 103.93 142.316 103.93 142.26L104.03 0H131.77Z" fill="#009256"/>
<path d="M500 0V142.58L475.71 142.59C475.574 142.59 475.443 142.537 475.346 142.441C475.248 142.346 475.193 142.216 475.19 142.08L475.17 0H500Z" fill="#009256"/>
<path d="M261.409 102.48C262.079 116.79 274.409 126.44 288.579 124.06C294.272 123.106 299.319 119.706 303.719 113.86C303.822 113.726 303.954 113.617 304.105 113.543C304.256 113.468 304.421 113.429 304.589 113.43H334.129C334.206 113.429 334.282 113.449 334.35 113.485C334.417 113.522 334.475 113.575 334.516 113.64C334.558 113.705 334.583 113.779 334.589 113.856C334.595 113.932 334.581 114.009 334.549 114.08C324.319 136.31 302.589 149.43 278.189 146.77C234.169 141.97 213.889 89.3496 244.559 56.8196C271.449 28.2996 318.549 36.7196 334.209 72.3696C338.036 81.0896 339.329 90.633 338.089 101C338.067 101.198 337.973 101.382 337.825 101.515C337.677 101.648 337.487 101.721 337.289 101.72H262.129C262.031 101.719 261.934 101.739 261.844 101.778C261.754 101.817 261.673 101.873 261.605 101.944C261.538 102.016 261.486 102.1 261.452 102.192C261.418 102.284 261.404 102.382 261.409 102.48ZM260.569 82.1996H307.869C307.904 82.1996 307.937 82.1859 307.961 82.1616C307.985 82.1372 307.999 82.1041 307.999 82.0696V82.0196C307.999 75.7764 305.547 69.789 301.183 65.3743C296.819 60.9597 290.901 58.4796 284.729 58.4796H283.709C277.537 58.4796 271.619 60.9597 267.255 65.3743C262.891 69.789 260.439 75.7764 260.439 82.0196V82.0696C260.439 82.1041 260.453 82.1372 260.477 82.1616C260.502 82.1859 260.535 82.1996 260.569 82.1996Z" fill="#009256"/>
<path d="M384.039 101.72C383.941 101.719 383.844 101.739 383.754 101.778C383.664 101.817 383.583 101.873 383.515 101.944C383.448 102.016 383.396 102.1 383.362 102.192C383.328 102.284 383.314 102.382 383.319 102.48C383.989 116.79 396.319 126.44 410.489 124.06C416.183 123.106 421.229 119.706 425.629 113.86C425.732 113.726 425.864 113.617 426.015 113.543C426.166 113.468 426.332 113.429 426.499 113.43H456.039C456.116 113.429 456.192 113.449 456.26 113.485C456.327 113.522 456.385 113.575 456.427 113.64C456.468 113.705 456.493 113.779 456.499 113.856C456.505 113.932 456.491 114.009 456.459 114.08C446.229 136.31 424.499 149.43 400.099 146.77C356.079 141.97 335.799 89.3496 366.469 56.8196C393.359 28.2996 440.459 36.7196 456.119 72.3696C459.946 81.0896 461.239 90.633 459.999 101C459.977 101.198 459.883 101.382 459.735 101.515C459.588 101.648 459.397 101.721 459.199 101.72H384.039ZM382.639 82.2396L429.739 82.1596C429.798 82.1596 429.854 82.1365 429.895 82.0952C429.936 82.0539 429.959 81.998 429.959 81.9396V81.8196C429.949 75.6242 427.485 69.6867 423.109 65.3134C418.734 60.94 412.806 58.4891 406.629 58.4996H405.669C402.611 58.5049 399.583 59.1143 396.76 60.2931C393.936 61.4719 391.371 63.197 389.212 65.3699C387.053 67.5427 385.342 70.1209 384.177 72.9571C383.011 75.7933 382.414 78.8319 382.419 81.8996V82.0196C382.419 82.078 382.442 82.1339 382.484 82.1752C382.525 82.2165 382.581 82.2396 382.639 82.2396Z" fill="#009256"/>
<path d="M0.330476 81.8098L9.39048 57.0198C9.41498 56.9549 9.45877 56.899 9.51598 56.8596C9.57318 56.8203 9.64106 56.7994 9.71048 56.7998H77.2905C77.3456 56.7995 77.4 56.8126 77.449 56.838C77.4979 56.8634 77.54 56.9004 77.5715 56.9456C77.603 56.9909 77.623 57.0432 77.6298 57.0979C77.6366 57.1526 77.6299 57.2082 77.6105 57.2598L68.5505 82.0498C68.526 82.1148 68.4822 82.1707 68.425 82.21C68.3678 82.2493 68.2999 82.2702 68.2305 82.2698H0.650476C0.595324 82.2701 0.540925 82.257 0.491972 82.2316C0.44302 82.2062 0.400982 82.1693 0.369486 82.124C0.33799 82.0787 0.317981 82.0264 0.311185 81.9717C0.304389 81.917 0.31101 81.8614 0.330476 81.8098Z" fill="#009256"/>
<path d="M66.8498 181.67H64.1898C63.9965 181.67 63.8398 181.827 63.8398 182.02V207.22C63.8398 207.413 63.9965 207.57 64.1898 207.57H66.8498C67.0431 207.57 67.1998 207.413 67.1998 207.22V182.02C67.1998 181.827 67.0431 181.67 66.8498 181.67Z" fill="#0097D5"/>
<path d="M90.89 192.07C92.72 190.44 93.33 189.69 96.05 189.63C101.68 189.49 102.94 193.58 102.75 198.6C102.663 200.813 102.697 203.576 102.85 206.89C102.854 206.976 102.841 207.063 102.81 207.144C102.78 207.225 102.733 207.299 102.673 207.362C102.614 207.424 102.542 207.474 102.462 207.508C102.382 207.542 102.297 207.56 102.21 207.56H100.05C99.875 207.56 99.7071 207.49 99.5833 207.366C99.4595 207.243 99.39 207.075 99.39 206.9V195.9C99.3892 195.365 99.2696 194.838 99.0397 194.356C98.8098 193.874 98.4754 193.448 98.0609 193.111C97.6463 192.774 97.1619 192.534 96.6429 192.407C96.1239 192.281 95.5832 192.271 95.06 192.38L94.63 192.46C93.5078 192.692 92.5001 193.304 91.7769 194.193C91.0537 195.082 90.6592 196.194 90.66 197.34V207.06C90.66 207.192 90.6073 207.319 90.5135 207.413C90.4198 207.507 90.2926 207.56 90.16 207.56H87.73C87.6027 207.56 87.4806 207.509 87.3906 207.419C87.3006 207.329 87.25 207.207 87.25 207.08V182.03C87.25 181.937 87.2879 181.848 87.3554 181.782C87.423 181.717 87.5145 181.68 87.61 181.68H90.25C90.3481 181.68 90.4422 181.719 90.5116 181.788C90.581 181.857 90.62 181.952 90.62 182.05V191.94C90.621 191.972 90.6308 192.004 90.6483 192.031C90.6658 192.058 90.6902 192.08 90.7186 192.094C90.747 192.107 90.7783 192.112 90.8086 192.108C90.839 192.104 90.8673 192.091 90.89 192.07Z" fill="#0097D5"/>
<path d="M198.921 205.62C195.867 208.34 192.861 208.777 189.901 206.93C183.811 203.14 184.521 190.38 192.921 189.62C195.414 189.393 197.431 190.163 198.971 191.93C199.006 191.968 199.051 191.994 199.102 192.006C199.152 192.017 199.204 192.014 199.253 191.996C199.301 191.978 199.343 191.945 199.373 191.903C199.403 191.861 199.419 191.811 199.421 191.76V182.11C199.421 182.052 199.432 181.995 199.454 181.942C199.476 181.888 199.509 181.84 199.55 181.799C199.59 181.758 199.639 181.726 199.692 181.703C199.746 181.681 199.803 181.67 199.861 181.67H202.171C202.285 181.67 202.394 181.715 202.475 181.796C202.555 181.877 202.601 181.986 202.601 182.1V207.04C202.601 207.18 202.544 207.315 202.443 207.415C202.341 207.514 202.204 207.57 202.061 207.57H200.011C199.936 207.57 199.863 207.553 199.795 207.521C199.728 207.49 199.669 207.444 199.621 207.386C199.573 207.329 199.539 207.262 199.52 207.19C199.501 207.118 199.498 207.043 199.511 206.97C199.611 206.423 199.631 206.04 199.571 205.82C199.553 205.754 199.52 205.694 199.473 205.644C199.425 205.595 199.367 205.559 199.301 205.539C199.236 205.519 199.167 205.516 199.101 205.53C199.034 205.544 198.972 205.575 198.921 205.62ZM194.276 192.181C192.948 192.204 191.686 192.917 190.768 194.164C189.85 195.41 189.351 197.088 189.382 198.827C189.397 199.689 189.541 200.539 189.807 201.331C190.072 202.122 190.454 202.839 190.93 203.44C191.405 204.041 191.966 204.514 192.58 204.833C193.193 205.152 193.847 205.31 194.505 205.299C195.834 205.276 197.096 204.562 198.014 203.316C198.932 202.07 199.43 200.392 199.4 198.653C199.385 197.791 199.24 196.941 198.975 196.149C198.709 195.358 198.328 194.641 197.852 194.04C197.376 193.439 196.815 192.966 196.202 192.647C195.588 192.328 194.934 192.169 194.276 192.181Z" fill="#0097D5"/>
<path d="M326.55 205.82C326.533 205.754 326.499 205.693 326.452 205.644C326.405 205.595 326.346 205.559 326.28 205.539C326.215 205.519 326.146 205.516 326.08 205.53C326.013 205.544 325.951 205.575 325.9 205.62C322.853 208.34 319.85 208.776 316.89 206.93C310.8 203.14 311.51 190.39 319.9 189.63C322.393 189.403 324.41 190.173 325.95 191.94C325.985 191.977 326.031 192.004 326.081 192.016C326.131 192.027 326.184 192.024 326.232 192.006C326.28 191.987 326.322 191.955 326.352 191.913C326.382 191.871 326.398 191.821 326.4 191.77V182.12C326.4 182.003 326.446 181.891 326.529 181.809C326.611 181.726 326.723 181.68 326.84 181.68H329.14C329.254 181.68 329.363 181.725 329.444 181.806C329.525 181.886 329.57 181.996 329.57 182.11L329.58 207.04C329.58 207.18 329.523 207.315 329.422 207.414C329.32 207.514 329.183 207.57 329.04 207.57H326.99C326.915 207.569 326.842 207.553 326.775 207.521C326.707 207.489 326.648 207.443 326.6 207.386C326.552 207.329 326.518 207.262 326.499 207.19C326.48 207.118 326.477 207.043 326.49 206.97C326.59 206.423 326.61 206.04 326.55 205.82ZM321.264 192.171C320.607 192.183 319.961 192.366 319.36 192.707C318.76 193.048 318.218 193.542 317.766 194.16C317.313 194.778 316.959 195.508 316.723 196.308C316.487 197.109 316.374 197.964 316.391 198.826C316.424 200.565 316.983 202.223 317.944 203.435C318.905 204.647 320.19 205.314 321.516 205.288C322.172 205.276 322.819 205.094 323.419 204.753C324.019 204.411 324.561 203.918 325.014 203.3C325.466 202.682 325.821 201.952 326.057 201.151C326.293 200.35 326.405 199.495 326.389 198.634C326.356 196.894 325.797 195.236 324.836 194.024C323.875 192.812 322.59 192.145 321.264 192.171Z" fill="#0097D5"/>
<path d="M348.611 205.84C348.551 206.06 348.571 206.443 348.671 206.99C348.684 207.063 348.681 207.139 348.662 207.211C348.643 207.283 348.608 207.349 348.561 207.407C348.513 207.464 348.453 207.51 348.386 207.542C348.319 207.573 348.245 207.59 348.171 207.59L346.121 207.6C346.05 207.6 345.98 207.586 345.914 207.56C345.849 207.533 345.789 207.494 345.739 207.445C345.689 207.396 345.649 207.337 345.622 207.273C345.595 207.209 345.581 207.14 345.581 207.07L345.551 182.09C345.551 181.976 345.596 181.867 345.677 181.786C345.757 181.705 345.867 181.66 345.981 181.66H348.291C348.407 181.66 348.519 181.707 348.602 181.789C348.684 181.872 348.731 181.983 348.731 182.1L348.741 191.76C348.742 191.812 348.759 191.862 348.789 191.904C348.819 191.946 348.861 191.978 348.909 191.996C348.957 192.014 349.01 192.018 349.06 192.006C349.11 191.994 349.156 191.968 349.191 191.93C350.731 190.163 352.751 189.39 355.251 189.61C363.661 190.36 364.391 203.14 358.291 206.94C355.331 208.793 352.321 208.36 349.261 205.64C349.209 205.595 349.148 205.564 349.081 205.55C349.014 205.536 348.945 205.539 348.88 205.559C348.815 205.579 348.756 205.616 348.709 205.665C348.662 205.714 348.628 205.774 348.611 205.84ZM353.905 192.161C353.248 192.15 352.593 192.308 351.98 192.628C351.366 192.947 350.806 193.421 350.33 194.023C349.854 194.625 349.472 195.343 349.207 196.136C348.941 196.928 348.797 197.78 348.782 198.643C348.751 200.385 349.25 202.065 350.168 203.313C351.086 204.562 352.348 205.276 353.676 205.299C354.334 205.311 354.988 205.152 355.602 204.833C356.215 204.513 356.776 204.039 357.252 203.437C357.728 202.835 358.109 202.117 358.375 201.325C358.64 200.532 358.785 199.68 358.8 198.818C358.83 197.075 358.332 195.395 357.414 194.147C356.496 192.899 355.234 192.184 353.905 192.161Z" fill="#0097D5"/>
<path d="M245.36 182.52H242.52C242.272 182.52 242.07 182.721 242.07 182.97V185.71C242.07 185.958 242.272 186.16 242.52 186.16H245.36C245.609 186.16 245.81 185.958 245.81 185.71V182.97C245.81 182.721 245.609 182.52 245.36 182.52Z" fill="#0097D5"/>
<path d="M0 207.48V183.76C1.04667 183.486 2.10667 183.446 3.18 183.64C3.32036 183.665 3.44726 183.74 3.53861 183.849C3.62997 183.959 3.68 184.097 3.68 184.24V193.1C3.68 193.224 3.72952 193.344 3.81766 193.432C3.9058 193.52 4.02535 193.57 4.15 193.57H14.74C14.8328 193.57 14.9219 193.533 14.9875 193.467C15.0531 193.402 15.09 193.313 15.09 193.22V183.96C15.09 183.907 15.1001 183.855 15.1197 183.807C15.1393 183.758 15.168 183.714 15.2042 183.677C15.2404 183.64 15.2834 183.61 15.3308 183.59C15.3781 183.57 15.4288 183.56 15.48 183.56H18.08C18.1755 183.56 18.267 183.599 18.3346 183.668C18.4021 183.737 18.44 183.832 18.44 183.93V207.07C18.44 207.202 18.3884 207.329 18.2965 207.423C18.2046 207.517 18.08 207.57 17.95 207.57H15.59C15.4547 207.57 15.325 207.515 15.2294 207.417C15.1337 207.32 15.08 207.188 15.08 207.05V197.13C15.08 197.008 15.0315 196.891 14.9453 196.804C14.859 196.718 14.742 196.67 14.62 196.67H4.22C4.07944 196.67 3.94463 196.726 3.84523 196.825C3.74584 196.924 3.69 197.059 3.69 197.2V206.83C3.69036 206.968 3.64203 207.103 3.55298 207.212C3.46392 207.321 3.33944 207.398 3.2 207.43C2.18 207.656 1.11333 207.673 0 207.48Z" fill="#0097D5"/>
<path d="M75.0201 186L77.8902 184.96C77.9286 184.945 77.97 184.94 78.0109 184.945C78.0518 184.95 78.0908 184.965 78.1244 184.989C78.1581 185.013 78.1853 185.045 78.2038 185.081C78.2222 185.118 78.2313 185.159 78.2302 185.2V189.28C78.2302 189.439 78.2934 189.592 78.4059 189.704C78.5184 189.817 78.671 189.88 78.8302 189.88H81.9302C82.2033 189.88 82.4653 189.989 82.6585 190.182C82.8516 190.375 82.9602 190.637 82.9602 190.91V191.67C82.9602 191.925 82.859 192.169 82.679 192.349C82.4989 192.529 82.2548 192.63 82.0002 192.63H78.6002C78.5272 192.632 78.4556 192.65 78.3899 192.681C78.3242 192.713 78.2658 192.758 78.2187 192.814C78.1715 192.869 78.1366 192.934 78.1162 193.004C78.0958 193.074 78.0903 193.148 78.1002 193.22C78.2802 194.5 78.3135 196.91 78.2001 200.45C78.0901 203.94 79.0402 206.26 82.9102 204.82C82.9305 204.814 82.9519 204.813 82.9728 204.817C82.9938 204.822 83.0137 204.831 83.031 204.844C83.0483 204.858 83.0626 204.875 83.0729 204.895C83.0831 204.915 83.089 204.938 83.0901 204.96V207.12C83.0897 207.208 83.0613 207.293 83.0092 207.363C82.957 207.433 82.8838 207.485 82.8002 207.51C79.1068 208.717 76.5235 207.733 75.0502 204.56C74.9316 204.317 74.87 204.05 74.8702 203.78V193.15C74.8702 193.01 74.8154 192.875 74.7178 192.775C74.6203 192.676 74.4881 192.62 74.3502 192.62H71.4602C71.3143 192.62 71.1744 192.562 71.0712 192.459C70.9681 192.356 70.9102 192.216 70.9102 192.07V190.48C70.9102 190.326 70.9723 190.179 71.083 190.07C71.1936 189.961 71.3437 189.9 71.5002 189.9H74.2902C74.4493 189.9 74.6019 189.838 74.7144 189.727C74.8269 189.617 74.8902 189.467 74.8902 189.31V186.18C74.8902 186.139 74.9029 186.099 74.9263 186.067C74.9498 186.034 74.9827 186.011 75.0201 186Z" fill="#0097D5"/>
<path d="M440.16 185.18V189.27C440.16 189.429 440.223 189.581 440.336 189.694C440.448 189.806 440.601 189.87 440.76 189.87H443.87C444.143 189.87 444.405 189.978 444.598 190.171C444.792 190.364 444.9 190.626 444.9 190.9V191.66C444.9 191.914 444.799 192.158 444.619 192.338C444.439 192.519 444.195 192.62 443.94 192.62H440.54C440.465 192.62 440.392 192.637 440.324 192.668C440.256 192.7 440.196 192.746 440.148 192.803C440.099 192.86 440.064 192.927 440.043 192.998C440.023 193.07 440.019 193.146 440.03 193.22C440.217 194.5 440.253 196.913 440.14 200.46C440.03 203.95 440.98 206.27 444.85 204.83C444.871 204.822 444.893 204.819 444.916 204.822C444.938 204.826 444.959 204.835 444.978 204.848C444.996 204.862 445.012 204.88 445.023 204.901C445.033 204.922 445.039 204.946 445.04 204.97V207.13C445.04 207.217 445.011 207.302 444.959 207.372C444.907 207.442 444.834 207.494 444.75 207.52C441.05 208.733 438.46 207.75 436.98 204.57C436.862 204.326 436.8 204.06 436.8 203.79V193.15C436.8 193.08 436.787 193.011 436.76 192.947C436.734 192.883 436.696 192.824 436.648 192.775C436.6 192.726 436.542 192.687 436.479 192.66C436.416 192.633 436.348 192.62 436.28 192.62H433.38C433.234 192.62 433.094 192.562 432.991 192.459C432.888 192.355 432.83 192.216 432.83 192.07V190.47C432.83 190.393 432.845 190.318 432.875 190.248C432.905 190.177 432.948 190.113 433.003 190.06C433.058 190.006 433.123 189.963 433.194 189.934C433.266 189.905 433.343 189.89 433.42 189.89H436.22C436.379 189.89 436.532 189.827 436.644 189.717C436.757 189.606 436.82 189.456 436.82 189.3V186.17C436.82 186.129 436.833 186.089 436.856 186.056C436.88 186.024 436.913 186 436.95 185.99L439.82 184.94C439.859 184.925 439.9 184.92 439.941 184.925C439.982 184.93 440.021 184.945 440.054 184.969C440.088 184.992 440.115 185.024 440.134 185.061C440.152 185.098 440.161 185.138 440.16 185.18Z" fill="#0097D5"/>
<path d="M37.5198 203.72C37.5669 203.698 37.6188 203.688 37.6706 203.692C37.7224 203.695 37.7724 203.712 37.8162 203.74C37.86 203.767 37.8961 203.806 37.9212 203.851C37.9463 203.897 37.9596 203.948 37.9598 204V206.03C37.9601 206.203 37.9114 206.373 37.8194 206.52C37.7274 206.666 37.5958 206.784 37.4398 206.86C33.7198 208.7 27.6498 208.54 25.0598 204.72C21.2198 199.06 23.3698 189.78 31.5498 189.64C37.2798 189.53 39.0498 193.94 39.2298 198.91C39.2325 198.99 39.219 199.07 39.19 199.145C39.1611 199.221 39.1173 199.289 39.0613 199.347C39.0053 199.405 38.9383 199.451 38.8641 199.482C38.79 199.514 38.7103 199.53 38.6298 199.53L27.3498 199.55C27.2431 199.551 27.1381 199.577 27.0434 199.626C26.9486 199.675 26.8668 199.746 26.8045 199.833C26.7422 199.919 26.7011 200.019 26.6847 200.125C26.6682 200.23 26.6768 200.338 26.7098 200.44C28.5598 206.14 32.9098 205.98 37.5198 203.72ZM27.0398 197L35.6998 196.9C35.7369 196.9 35.7725 196.885 35.7988 196.859C35.8251 196.832 35.8398 196.797 35.8398 196.76V196.68C35.8267 195.504 35.3445 194.381 34.4989 193.558C33.6534 192.735 32.5137 192.279 31.3298 192.29C30.742 192.295 30.1609 192.415 29.62 192.644C29.079 192.873 28.5887 193.205 28.1772 193.622C27.7657 194.039 27.4411 194.533 27.2219 195.075C27.0027 195.616 26.8932 196.196 26.8998 196.78V196.86C26.8998 196.897 26.9146 196.932 26.9408 196.959C26.9671 196.985 27.0027 197 27.0398 197Z" fill="#0097D5"/>
<path d="M45.34 193.76C45.2881 193.802 45.2252 193.828 45.1589 193.836C45.0926 193.843 45.0255 193.832 44.9656 193.802C44.9056 193.773 44.8554 193.727 44.8207 193.67C44.7861 193.613 44.7685 193.547 44.77 193.48L44.76 191.97C44.7591 191.749 44.8159 191.532 44.9247 191.341C45.0335 191.15 45.1905 190.991 45.38 190.88C46.9066 189.953 48.9066 189.53 51.38 189.61C56.41 189.79 57.75 193.23 57.64 197.94C57.5666 200.98 57.62 204.01 57.8 207.03C57.8055 207.1 57.7964 207.171 57.7733 207.238C57.7501 207.304 57.7134 207.365 57.6655 207.417C57.6176 207.469 57.5595 207.51 57.4948 207.538C57.4302 207.566 57.3604 207.58 57.29 207.58L55.31 207.59C55.1747 207.59 55.045 207.536 54.9493 207.441C54.8537 207.345 54.8 207.215 54.8 207.08L54.79 205.83C54.7915 205.782 54.7791 205.734 54.7542 205.693C54.7293 205.652 54.693 205.619 54.6497 205.597C54.6064 205.576 54.5579 205.568 54.51 205.574C54.4621 205.58 54.417 205.599 54.38 205.63C53.88 206.023 53.53 206.317 53.33 206.51C48.48 211.18 38.49 204.88 44.47 198.69C45.0033 198.137 46.28 197.53 48.3 196.87C48.4491 196.823 48.6011 196.799 48.75 196.8L53.9 196.71C53.9744 196.709 54.0479 196.693 54.1157 196.662C54.1835 196.631 54.2442 196.586 54.294 196.531C54.3438 196.476 54.3816 196.411 54.405 196.34C54.4284 196.269 54.4369 196.194 54.43 196.12C53.94 191.34 48.37 191.43 45.34 193.76ZM53.68 199.23C51.24 198.997 49.2033 199.323 47.57 200.21C46.9988 200.522 46.5673 201.037 46.366 201.646C46.1647 202.256 46.2091 202.913 46.49 203.48C46.7966 204.087 47.36 204.6 48.18 205.02C48.4531 205.167 48.7592 205.242 49.07 205.24C52.5766 205.24 54.35 203.5 54.39 200.02C54.3933 199.823 54.3219 199.632 54.1902 199.486C54.0585 199.339 53.8762 199.248 53.68 199.23Z" fill="#0097D5"/>
<path d="M110.64 198.84C110.72 204.22 114.88 206.31 119.81 204.51C119.846 204.497 119.886 204.493 119.924 204.499C119.962 204.504 119.999 204.519 120.03 204.541C120.062 204.564 120.087 204.594 120.104 204.628C120.122 204.663 120.131 204.701 120.13 204.74V207.13C120.13 207.193 120.109 207.254 120.071 207.303C120.033 207.352 119.979 207.386 119.92 207.4C113.987 208.94 109.923 207.167 107.73 202.08C107.579 201.734 107.481 201.37 107.44 201C107.353 200.293 107.303 199.587 107.29 198.88C107.283 198.173 107.313 197.463 107.38 196.75C107.411 196.382 107.499 196.018 107.64 195.67C109.7 190.53 113.717 188.65 119.69 190.03C119.75 190.041 119.804 190.073 119.844 190.12C119.884 190.167 119.907 190.227 119.91 190.29L119.97 192.68C119.972 192.718 119.964 192.757 119.948 192.791C119.932 192.826 119.907 192.857 119.877 192.88C119.847 192.904 119.811 192.92 119.773 192.927C119.736 192.933 119.697 192.931 119.66 192.92C114.68 191.26 110.57 193.45 110.64 198.84Z" fill="#0097D5"/>
<path d="M125.751 193.74C125.699 193.779 125.637 193.803 125.572 193.809C125.508 193.815 125.442 193.802 125.384 193.773C125.326 193.744 125.277 193.7 125.243 193.644C125.209 193.589 125.191 193.525 125.191 193.46V191.96C125.191 191.741 125.248 191.526 125.357 191.336C125.466 191.146 125.622 190.989 125.811 190.88C127.338 189.967 129.331 189.56 131.791 189.66C136.801 189.87 138.111 193.3 137.961 197.99C137.868 201.017 137.901 204.034 138.061 207.04C138.065 207.11 138.055 207.179 138.031 207.245C138.007 207.31 137.97 207.37 137.923 207.42C137.875 207.471 137.817 207.511 137.753 207.539C137.689 207.566 137.62 207.58 137.551 207.58H135.581C135.446 207.58 135.316 207.527 135.22 207.431C135.125 207.335 135.071 207.206 135.071 207.07V205.82C135.071 205.774 135.058 205.728 135.034 205.689C135.009 205.649 134.974 205.617 134.933 205.597C134.891 205.576 134.845 205.567 134.798 205.571C134.752 205.575 134.708 205.592 134.671 205.62C134.164 206.007 133.811 206.297 133.611 206.49C128.751 211.1 118.851 204.76 124.851 198.64C125.384 198.094 126.661 197.5 128.681 196.86C128.827 196.814 128.975 196.79 129.121 196.79L134.251 196.74C134.325 196.739 134.399 196.723 134.467 196.692C134.534 196.662 134.595 196.618 134.645 196.564C134.695 196.509 134.732 196.445 134.756 196.376C134.779 196.307 134.788 196.233 134.781 196.16C134.331 191.4 128.781 191.45 125.751 193.74ZM134.131 199.24C131.671 198.974 129.611 199.28 127.951 200.16C127.371 200.469 126.93 200.985 126.722 201.598C126.513 202.212 126.552 202.875 126.831 203.45C127.131 204.064 127.691 204.587 128.511 205.02C128.786 205.171 129.096 205.25 129.411 205.25C132.951 205.29 134.758 203.554 134.831 200.04C134.837 199.845 134.768 199.654 134.639 199.506C134.509 199.358 134.328 199.263 134.131 199.24Z" fill="#0097D5"/>
<path d="M147.389 191.99C148.769 189.963 150.686 189.223 153.139 189.77C153.33 189.813 153.5 189.92 153.621 190.072C153.743 190.225 153.809 190.415 153.809 190.61V192.04C153.81 192.129 153.79 192.217 153.752 192.297C153.714 192.377 153.659 192.448 153.589 192.504C153.52 192.56 153.439 192.599 153.352 192.619C153.266 192.639 153.176 192.639 153.089 192.62C145.609 190.95 147.059 203.14 147.249 207.04C147.253 207.112 147.243 207.184 147.218 207.252C147.193 207.32 147.155 207.382 147.105 207.434C147.055 207.487 146.995 207.528 146.929 207.557C146.863 207.585 146.791 207.6 146.719 207.6H144.369C144.237 207.6 144.109 207.546 144.016 207.451C143.922 207.355 143.869 207.225 143.869 207.09V190.37C143.869 190.243 143.92 190.121 144.01 190.03C144.1 189.94 144.222 189.89 144.349 189.89H146.369C146.451 189.891 146.533 189.909 146.607 189.943C146.682 189.977 146.748 190.027 146.801 190.089C146.854 190.151 146.893 190.223 146.915 190.301C146.937 190.379 146.942 190.46 146.929 190.54C146.789 191.433 146.726 191.897 146.739 191.93C146.765 191.992 146.807 192.045 146.862 192.085C146.916 192.124 146.979 192.149 147.046 192.155C147.113 192.161 147.18 192.149 147.24 192.12C147.301 192.091 147.352 192.046 147.389 191.99Z" fill="#0097D5"/>
<path d="M170.689 203.73C170.736 203.708 170.788 203.698 170.84 203.702C170.892 203.705 170.942 203.722 170.986 203.749C171.029 203.777 171.065 203.816 171.091 203.861C171.116 203.907 171.129 203.958 171.129 204.01L171.119 206.04C171.119 206.213 171.071 206.383 170.979 206.53C170.887 206.676 170.755 206.794 170.599 206.87C166.869 208.69 160.809 208.52 158.229 204.7C154.409 199.03 156.579 189.75 164.749 189.63C170.479 189.53 172.239 193.95 172.409 198.92C172.412 199 172.398 199.08 172.369 199.155C172.34 199.23 172.297 199.299 172.241 199.357C172.185 199.415 172.118 199.461 172.043 199.492C171.969 199.523 171.89 199.54 171.809 199.54L160.529 199.53C160.422 199.529 160.315 199.554 160.219 199.603C160.123 199.651 160.04 199.722 159.977 199.809C159.913 199.895 159.871 199.996 159.854 200.102C159.837 200.209 159.846 200.317 159.879 200.42C161.729 206.12 166.079 205.97 170.689 203.73ZM160.279 196.96L168.779 196.92C168.832 196.92 168.883 196.899 168.921 196.861C168.958 196.824 168.979 196.773 168.979 196.72V196.57C168.977 196.006 168.859 195.449 168.634 194.929C168.408 194.41 168.079 193.938 167.665 193.542C167.251 193.145 166.76 192.831 166.22 192.618C165.68 192.405 165.102 192.297 164.519 192.3H164.499C163.322 192.305 162.195 192.762 161.366 193.571C160.537 194.379 160.074 195.472 160.079 196.61V196.76C160.079 196.813 160.1 196.864 160.138 196.901C160.175 196.939 160.226 196.96 160.279 196.96Z" fill="#0097D5"/>
<path d="M221.59 203.73C221.637 203.708 221.689 203.698 221.741 203.702C221.793 203.705 221.843 203.722 221.887 203.749C221.93 203.777 221.966 203.816 221.992 203.861C222.017 203.907 222.03 203.958 222.03 204.01V206.04C222.03 206.213 221.982 206.383 221.89 206.529C221.798 206.676 221.666 206.794 221.51 206.87C217.77 208.7 211.7 208.52 209.13 204.7C205.3 199.02 207.47 189.74 215.65 189.62C221.38 189.53 223.15 193.95 223.32 198.92C223.323 199.001 223.309 199.082 223.279 199.158C223.25 199.233 223.205 199.302 223.148 199.36C223.091 199.418 223.023 199.464 222.948 199.495C222.872 199.526 222.792 199.541 222.71 199.54L211.43 199.53C211.323 199.529 211.216 199.554 211.12 199.603C211.024 199.651 210.941 199.722 210.878 199.808C210.814 199.895 210.772 199.996 210.755 200.102C210.738 200.208 210.747 200.317 210.78 200.42C212.63 206.12 216.98 205.98 221.59 203.73ZM211.16 197L219.7 196.9C219.751 196.9 219.799 196.879 219.835 196.844C219.87 196.808 219.89 196.76 219.89 196.71L219.88 196.57C219.874 196.003 219.752 195.444 219.522 194.923C219.292 194.403 218.958 193.931 218.539 193.536C218.12 193.14 217.625 192.828 217.081 192.618C216.537 192.407 215.956 192.303 215.37 192.31C214.188 192.323 213.059 192.79 212.232 193.608C211.405 194.425 210.947 195.527 210.96 196.67L210.97 196.81C210.97 196.86 210.99 196.908 211.026 196.944C211.061 196.98 211.11 197 211.16 197Z" fill="#0097D5"/>
<path d="M226.959 203.97C228.739 205.23 232.779 206.16 233.979 203.68C234.178 203.264 234.202 202.778 234.046 202.312C233.889 201.847 233.564 201.434 233.129 201.15C230.379 199.36 224.659 197.8 226.929 192.77C228.549 189.19 232.429 189.43 235.819 189.92C236.073 189.958 236.304 190.086 236.471 190.281C236.638 190.475 236.73 190.723 236.729 190.98V192.32C236.729 192.432 236.701 192.543 236.647 192.642C236.594 192.741 236.516 192.824 236.421 192.885C236.326 192.946 236.218 192.982 236.106 192.99C235.994 192.997 235.881 192.977 235.779 192.93C234.432 192.303 232.969 192.177 231.389 192.55C231.148 192.606 230.92 192.708 230.719 192.85C230.518 192.992 230.348 193.17 230.219 193.375C230.09 193.579 230.005 193.806 229.969 194.04C229.933 194.275 229.947 194.513 230.009 194.74C230.519 196.56 234.489 198.02 235.329 198.44C235.659 198.605 235.949 198.84 236.179 199.13C237.552 200.83 237.896 202.57 237.209 204.35C235.629 208.45 230.439 208.67 226.859 207.09C226.799 207.063 226.748 207.02 226.713 206.967C226.677 206.914 226.659 206.852 226.659 206.79V204.13C226.658 204.095 226.667 204.06 226.685 204.029C226.703 203.999 226.728 203.974 226.76 203.957C226.791 203.94 226.826 203.933 226.861 203.935C226.896 203.937 226.93 203.949 226.959 203.97Z" fill="#0097D5"/>
<path d="M245.101 189.91H242.721C242.494 189.91 242.311 190.094 242.311 190.32V207.16C242.311 207.387 242.494 207.57 242.721 207.57H245.101C245.327 207.57 245.511 207.387 245.511 207.16V190.32C245.511 190.094 245.327 189.91 245.101 189.91Z" fill="#0097D5"/>
<path d="M260.6 215H256.12L252.93 214.24C252.697 214.183 252.489 214.05 252.34 213.862C252.191 213.673 252.11 213.44 252.11 213.2V211.53C252.11 211.426 252.138 211.324 252.19 211.234C252.242 211.144 252.317 211.069 252.408 211.016C252.499 210.964 252.602 210.936 252.708 210.935C252.813 210.933 252.917 210.959 253.01 211.01C258.14 213.91 264.58 212.69 264.21 205.48C264.209 205.422 264.191 205.367 264.158 205.321C264.126 205.274 264.08 205.237 264.027 205.215C263.974 205.193 263.914 205.187 263.857 205.196C263.799 205.206 263.744 205.231 263.7 205.27C255.44 212.4 247.65 202.04 251.74 194.07C253.007 191.603 254.81 190.153 257.15 189.72C259.963 189.2 262.17 189.91 263.77 191.85C263.819 191.91 263.883 191.954 263.957 191.977C264.03 192 264.109 192.001 264.184 191.98C264.259 191.959 264.327 191.916 264.379 191.858C264.432 191.799 264.467 191.727 264.48 191.65C264.527 191.356 264.503 191 264.41 190.58C264.391 190.493 264.391 190.403 264.412 190.317C264.432 190.23 264.473 190.15 264.529 190.08C264.586 190.011 264.658 189.955 264.739 189.917C264.821 189.879 264.91 189.859 265 189.86H266.57C266.667 189.86 266.763 189.879 266.852 189.916C266.941 189.953 267.022 190.008 267.09 190.077C267.158 190.146 267.211 190.227 267.247 190.317C267.284 190.407 267.301 190.503 267.3 190.6C267.247 196.28 267.26 201.35 267.34 205.81C267.42 210.86 265.74 214.21 260.6 215ZM259.204 192.24C258.549 192.235 257.899 192.394 257.291 192.708C256.684 193.022 256.13 193.485 255.663 194.069C255.196 194.654 254.823 195.349 254.567 196.115C254.311 196.881 254.176 197.704 254.17 198.535C254.159 200.214 254.673 201.827 255.601 203.021C256.528 204.214 257.793 204.89 259.116 204.899C259.771 204.904 260.421 204.745 261.029 204.431C261.636 204.117 262.19 203.655 262.657 203.07C263.125 202.485 263.497 201.79 263.753 201.024C264.009 200.258 264.144 199.436 264.15 198.604C264.162 196.926 263.647 195.312 262.72 194.118C261.792 192.925 260.528 192.249 259.204 192.24Z" fill="#0097D5"/>
<path d="M276.409 191.67C276.41 191.743 276.432 191.814 276.473 191.874C276.513 191.934 276.571 191.981 276.638 192.009C276.705 192.037 276.779 192.044 276.851 192.03C276.922 192.016 276.988 191.981 277.039 191.93C281.309 187.61 288.109 189.22 288.669 195.75C288.743 196.69 288.776 200.437 288.769 206.99C288.767 207.137 288.708 207.277 288.605 207.38C288.502 207.482 288.363 207.54 288.219 207.54H285.909C285.765 207.537 285.628 207.477 285.527 207.373C285.426 207.268 285.369 207.127 285.369 206.98V195.85C285.369 195.329 285.255 194.814 285.033 194.342C284.812 193.87 284.489 193.453 284.088 193.12C283.687 192.787 283.218 192.546 282.713 192.415C282.209 192.283 281.682 192.265 281.169 192.36L280.689 192.45C279.552 192.656 278.522 193.256 277.78 194.146C277.038 195.036 276.631 196.159 276.629 197.32V206.95C276.629 207.107 276.567 207.257 276.456 207.367C276.346 207.478 276.196 207.54 276.039 207.54H273.849C273.774 207.54 273.7 207.525 273.631 207.497C273.562 207.468 273.499 207.426 273.446 207.373C273.393 207.32 273.351 207.257 273.323 207.188C273.294 207.119 273.279 207.045 273.279 206.97V190.48C273.279 190.324 273.343 190.174 273.455 190.063C273.568 189.952 273.72 189.89 273.879 189.89H275.899C275.966 189.89 276.033 189.903 276.094 189.929C276.156 189.955 276.213 189.992 276.26 190.04C276.307 190.087 276.345 190.143 276.37 190.205C276.396 190.267 276.409 190.333 276.409 190.4V191.67Z" fill="#0097D5"/>
<path d="M307.749 203.7C307.797 203.679 307.848 203.669 307.9 203.673C307.952 203.676 308.002 203.692 308.046 203.72C308.09 203.748 308.126 203.787 308.151 203.832C308.176 203.878 308.189 203.929 308.189 203.98L308.209 206.01C308.21 206.184 308.161 206.354 308.069 206.5C307.977 206.647 307.845 206.765 307.689 206.84C303.969 208.71 297.889 208.58 295.279 204.78C291.399 199.12 293.489 189.81 301.679 189.62C307.419 189.48 309.229 193.89 309.439 198.87C309.442 198.951 309.429 199.031 309.4 199.106C309.371 199.181 309.327 199.25 309.271 199.308C309.215 199.366 309.148 199.412 309.074 199.443C309 199.474 308.92 199.49 308.839 199.49L297.539 199.58C297.432 199.581 297.325 199.607 297.23 199.657C297.134 199.707 297.051 199.778 296.989 199.866C296.926 199.954 296.885 200.056 296.87 200.163C296.854 200.269 296.864 200.378 296.899 200.48C298.789 206.17 303.149 205.99 307.749 203.7ZM297.419 196.98L305.719 196.88C305.781 196.878 305.84 196.851 305.883 196.807C305.926 196.762 305.949 196.702 305.949 196.64V196.5C305.943 195.944 305.826 195.393 305.605 194.882C305.385 194.37 305.065 193.906 304.664 193.517C304.262 193.128 303.788 192.821 303.267 192.614C302.747 192.407 302.19 192.304 301.629 192.31H301.389C300.829 192.317 300.275 192.433 299.759 192.652C299.244 192.872 298.777 193.189 298.385 193.588C297.993 193.986 297.684 194.457 297.475 194.974C297.267 195.491 297.163 196.044 297.169 196.6L297.179 196.74C297.179 196.804 297.205 196.865 297.25 196.91C297.295 196.955 297.356 196.98 297.419 196.98Z" fill="#0097D5"/>
<path d="M369.12 215H365.82C365.3 214.36 365.204 213.627 365.53 212.8C365.594 212.645 365.707 212.514 365.851 212.427C365.995 212.341 366.163 212.303 366.33 212.32C368.824 212.58 370.324 211.313 370.83 208.52C370.909 208.101 370.874 207.67 370.73 207.27L364.55 190.33C364.531 190.279 364.525 190.224 364.532 190.169C364.54 190.115 364.56 190.063 364.593 190.017C364.625 189.972 364.668 189.935 364.718 189.91C364.769 189.884 364.824 189.87 364.88 189.87H367.17C367.321 189.871 367.467 189.917 367.59 190.003C367.713 190.088 367.808 190.21 367.86 190.35L372.71 203.67C372.726 203.704 372.751 203.733 372.783 203.753C372.815 203.772 372.851 203.782 372.889 203.781C372.926 203.78 372.962 203.768 372.993 203.747C373.023 203.725 373.047 203.695 373.06 203.66L377.36 190.37C377.407 190.227 377.497 190.103 377.617 190.015C377.738 189.927 377.882 189.88 378.03 189.88H380.43C380.476 189.881 380.52 189.892 380.56 189.913C380.6 189.934 380.634 189.964 380.66 190C380.686 190.037 380.702 190.079 380.707 190.122C380.712 190.166 380.707 190.209 380.69 190.25C376.404 202.403 373.794 209.59 372.86 211.81C372.247 213.27 371 214.333 369.12 215Z" fill="#0097D5"/>
<path d="M398.309 191.95C402.599 187.61 409.419 189.22 409.979 195.78C410.052 196.72 410.089 200.48 410.089 207.06C410.086 207.206 410.027 207.346 409.924 207.449C409.822 207.552 409.683 207.61 409.539 207.61H407.219C407.073 207.61 406.933 207.551 406.83 207.446C406.727 207.341 406.669 207.198 406.669 207.05V195.88C406.669 195.357 406.554 194.841 406.332 194.368C406.11 193.895 405.787 193.476 405.385 193.142C404.983 192.808 404.513 192.567 404.007 192.435C403.501 192.303 402.973 192.284 402.459 192.38L401.969 192.47C400.826 192.678 399.793 193.282 399.049 194.175C398.306 195.069 397.899 196.196 397.899 197.36V207.02C397.899 207.176 397.837 207.326 397.726 207.437C397.616 207.547 397.466 207.61 397.309 207.61H395.109C394.958 207.61 394.813 207.549 394.706 207.443C394.599 207.336 394.539 207.191 394.539 207.04V190.49C394.539 190.333 394.602 190.183 394.715 190.072C394.827 189.962 394.98 189.9 395.139 189.9H397.169C397.304 189.9 397.434 189.953 397.53 190.049C397.625 190.145 397.679 190.274 397.679 190.41V191.69C397.68 191.762 397.702 191.833 397.742 191.893C397.783 191.954 397.841 192.001 397.908 192.028C397.975 192.056 398.049 192.063 398.12 192.049C398.192 192.035 398.257 192.001 398.309 191.95Z" fill="#0097D5"/>
<path d="M417.321 193.74C417.269 193.779 417.207 193.803 417.142 193.809C417.077 193.815 417.012 193.802 416.954 193.773C416.896 193.744 416.847 193.7 416.813 193.644C416.779 193.589 416.761 193.525 416.761 193.46L416.751 191.96C416.75 191.739 416.806 191.522 416.915 191.331C417.024 191.14 417.181 190.981 417.371 190.87C418.897 189.944 420.894 189.527 423.361 189.62C428.391 189.8 429.721 193.24 429.601 197.94C429.521 200.98 429.567 204.007 429.741 207.02C429.746 207.091 429.737 207.161 429.714 207.228C429.691 207.294 429.654 207.355 429.606 207.407C429.558 207.459 429.5 207.5 429.435 207.528C429.371 207.556 429.301 207.57 429.231 207.57L427.261 207.58C427.193 207.582 427.125 207.569 427.062 207.544C426.999 207.519 426.942 207.482 426.893 207.434C426.845 207.387 426.807 207.33 426.78 207.268C426.754 207.205 426.741 207.138 426.741 207.07V205.82C426.742 205.772 426.73 205.724 426.705 205.683C426.68 205.642 426.644 205.609 426.6 205.588C426.557 205.566 426.508 205.558 426.461 205.564C426.413 205.57 426.368 205.589 426.331 205.62C425.824 206.007 425.471 206.297 425.271 206.49C420.421 211.15 410.451 204.83 416.441 198.66C416.974 198.107 418.254 197.507 420.281 196.86C420.426 196.811 420.574 196.784 420.721 196.78L425.871 196.71C425.945 196.709 426.018 196.693 426.086 196.662C426.154 196.631 426.215 196.587 426.265 196.531C426.314 196.476 426.352 196.411 426.376 196.34C426.399 196.269 426.407 196.194 426.401 196.12C425.921 191.35 420.351 191.43 417.321 193.74ZM425.671 199.23C423.224 198.99 421.181 199.317 419.541 200.21C418.969 200.522 418.538 201.037 418.337 201.647C418.135 202.256 418.18 202.913 418.461 203.48C418.767 204.087 419.327 204.6 420.141 205.02C420.417 205.168 420.727 205.244 421.041 205.24C424.554 205.247 426.331 203.507 426.371 200.02C426.374 199.825 426.304 199.635 426.174 199.489C426.045 199.343 425.865 199.25 425.671 199.23Z" fill="#0097D5"/>
<path d="M461.571 205.81C461.57 205.737 461.548 205.666 461.507 205.606C461.467 205.546 461.409 205.499 461.342 205.471C461.275 205.443 461.201 205.436 461.129 205.45C461.058 205.464 460.992 205.499 460.941 205.55C456.651 209.9 449.821 208.29 449.261 201.73C449.187 200.783 449.147 197.02 449.141 190.44C449.143 190.293 449.202 190.153 449.305 190.05C449.408 189.948 449.546 189.89 449.691 189.89L452.011 189.88C452.156 189.88 452.296 189.939 452.4 190.044C452.503 190.149 452.561 190.291 452.561 190.44L452.571 201.62C452.57 202.143 452.686 202.661 452.908 203.135C453.131 203.609 453.455 204.028 453.858 204.362C454.261 204.696 454.733 204.937 455.24 205.068C455.747 205.199 456.276 205.217 456.791 205.12L457.281 205.03C458.422 204.822 459.454 204.218 460.198 203.325C460.941 202.432 461.349 201.305 461.351 200.14L461.341 190.47C461.341 190.313 461.403 190.163 461.513 190.053C461.624 189.942 461.774 189.88 461.931 189.88H464.131C464.282 189.88 464.427 189.94 464.534 190.047C464.641 190.154 464.701 190.299 464.701 190.45L464.711 207.01C464.711 207.166 464.647 207.316 464.535 207.427C464.422 207.538 464.27 207.6 464.111 207.6H462.081C461.945 207.6 461.816 207.546 461.72 207.451C461.624 207.355 461.571 207.225 461.571 207.09V205.81Z" fill="#0097D5"/>
<path d="M473.54 191.92C473.566 191.982 473.608 192.035 473.662 192.075C473.716 192.115 473.78 192.139 473.847 192.145C473.913 192.151 473.981 192.139 474.041 192.11C474.101 192.081 474.153 192.036 474.19 191.98C475.576 189.967 477.493 189.24 479.94 189.8C480.128 189.843 480.296 189.95 480.416 190.103C480.536 190.255 480.6 190.445 480.6 190.64L480.59 192.06C480.59 192.149 480.571 192.237 480.533 192.317C480.495 192.397 480.439 192.468 480.37 192.524C480.301 192.58 480.22 192.619 480.133 192.639C480.046 192.659 479.956 192.66 479.87 192.64C472.42 190.93 473.8 203.1 473.97 206.99C473.972 207.061 473.961 207.132 473.935 207.199C473.91 207.266 473.871 207.326 473.822 207.378C473.772 207.429 473.713 207.47 473.647 207.498C473.582 207.526 473.511 207.54 473.44 207.54L471.09 207.53C470.959 207.527 470.834 207.472 470.742 207.377C470.651 207.282 470.6 207.154 470.6 207.02L470.69 190.34C470.692 190.214 470.744 190.095 470.834 190.007C470.923 189.919 471.044 189.87 471.17 189.87L473.19 189.88C473.271 189.88 473.35 189.898 473.424 189.933C473.497 189.967 473.562 190.016 473.614 190.078C473.667 190.14 473.705 190.212 473.727 190.29C473.748 190.368 473.753 190.45 473.74 190.53C473.593 191.423 473.526 191.887 473.54 191.92Z" fill="#0097D5"/>
<path d="M497.479 203.73C497.526 203.708 497.578 203.698 497.63 203.702C497.682 203.705 497.732 203.722 497.776 203.749C497.82 203.777 497.856 203.816 497.881 203.861C497.906 203.907 497.919 203.958 497.919 204.01V206.04C497.92 206.213 497.871 206.383 497.779 206.53C497.687 206.676 497.555 206.794 497.399 206.87C493.669 208.7 487.599 208.53 485.019 204.71C481.189 199.04 483.349 189.76 491.529 189.63C497.259 189.53 499.029 193.95 499.199 198.92C499.202 199 499.188 199.08 499.159 199.155C499.131 199.23 499.087 199.299 499.031 199.357C498.975 199.415 498.908 199.461 498.834 199.492C498.759 199.523 498.68 199.54 498.599 199.54H487.319C487.212 199.539 487.106 199.564 487.01 199.613C486.914 199.661 486.83 199.732 486.767 199.819C486.703 199.905 486.662 200.006 486.645 200.112C486.628 200.219 486.636 200.327 486.669 200.43C488.519 206.13 492.869 205.98 497.479 203.73ZM487.119 196.99L495.559 196.91C495.618 196.91 495.674 196.886 495.715 196.845C495.756 196.804 495.779 196.748 495.779 196.69V196.55C495.774 195.99 495.657 195.437 495.435 194.922C495.212 194.407 494.889 193.941 494.483 193.549C494.077 193.157 493.597 192.848 493.07 192.638C492.542 192.429 491.978 192.324 491.409 192.33H491.189C490.041 192.34 488.944 192.799 488.139 193.606C487.335 194.412 486.889 195.5 486.899 196.63V196.77C486.899 196.828 486.922 196.884 486.964 196.925C487.005 196.966 487.061 196.99 487.119 196.99Z" fill="#0097D5"/>
</g>
<defs>
<clipPath id="clip0_2015_1552">
<rect width="500" height="215" fill="white"/>
</clipPath>
</defs>
</svg>
