<svg width="194" height="188" viewBox="0 0 194 188" fill="none" xmlns="http://www.w3.org/2000/svg">
<g clip-path="url(#clip0_55_463)">
<path d="M95.1811 164.827C131.403 164.827 160.767 135.314 160.767 98.9077C160.767 62.5014 131.403 32.9883 95.1811 32.9883C58.9593 32.9883 29.5957 62.5014 29.5957 98.9077C29.5957 135.314 58.9593 164.827 95.1811 164.827Z" fill="#FFDE00"/>
<path d="M2.63842 68.1931C2.54416 68.1931 2.46875 68.0984 2.46875 68.0036C2.46875 68.0036 2.46875 67.9657 2.46875 67.9468C4.86293 60.7087 7.74726 53.8307 11.6873 47.2937C18.0026 36.7587 26.2409 27.228 36.1569 19.7246C53.5572 6.57488 73.3704 0 95.5967 0C110.075 0 123.761 3.0127 136.618 9.0381C143.16 12.0887 149.079 15.7456 154.414 19.9899C159.881 24.3479 164.839 29.2364 169.345 34.6745C177.432 44.4705 183.484 56.0286 187.311 67.852C187.311 67.871 187.311 67.9468 187.311 68.0605C187.311 68.1552 187.235 68.231 187.141 68.231L179.487 68.5342C179.393 68.5342 179.299 68.4773 179.261 68.3826C175.076 56.0476 168.553 45.0768 159.712 35.4703C158.486 34.1439 155.866 31.3965 154 29.8049C146.666 23.5142 139.05 18.6446 131.17 15.2151C120.029 10.3644 108.265 7.90123 95.8606 7.82544C81.9103 7.7307 68.4689 10.7055 55.5366 16.7498C43.528 22.3584 33.1218 31.0554 24.9967 41.4767C18.7944 49.4348 13.9495 58.3781 10.4431 68.3257C10.4054 68.4205 10.3111 68.4963 10.198 68.4963L2.65727 68.1931H2.63842Z" fill="black"/>
<path d="M47.6287 71.4391C47.7778 68.2614 45.226 65.5587 41.9292 65.4024C38.6324 65.2462 35.839 67.6955 35.6899 70.8732C35.5408 74.0509 38.0925 76.7536 41.3893 76.9099C44.6861 77.0662 47.4796 74.6168 47.6287 71.4391Z" fill="black"/>
<path d="M143.876 110.428V88.9598C143.876 88.9598 143.819 88.8461 143.763 88.8461H140.464C140.464 88.8461 140.351 88.7893 140.351 88.7324V79.9975C140.351 79.9975 140.407 79.8838 140.464 79.8838H143.763C143.763 79.8838 143.876 79.827 143.876 79.7701V67.7572C143.876 67.7572 143.932 67.6436 143.989 67.6436H154.659C154.659 67.6436 154.772 67.7004 154.772 67.7572V79.7891C154.772 79.7891 154.829 79.9028 154.885 79.9028H160.522C160.522 79.9028 160.635 79.9596 160.635 80.0165V88.7324C160.635 88.7324 160.579 88.8461 160.522 88.8461H154.885C154.885 88.8461 154.772 88.903 154.772 88.9598V110.447C154.772 110.447 154.716 110.56 154.659 110.56H143.989C143.989 110.56 143.876 110.503 143.876 110.447V110.428Z" fill="black"/>
<path d="M58.6856 97.9223C58.9118 98.6612 59.0437 99.6844 59.4208 100.367C60.1937 101.731 61.4002 102.602 63.0403 102.981C66.2263 103.72 69.9401 102.943 71.6179 99.9307C71.7122 99.7602 71.9195 99.7034 72.0703 99.7981L79.0455 103.853C79.1775 103.929 79.2152 104.099 79.1398 104.232C76.7079 107.813 73.3711 110.011 69.1483 110.864C63.7756 111.925 57.3094 110.939 53.2185 106.941C50.5604 104.346 49.0334 101.219 48.5998 97.5623C48.1286 93.5643 48.8638 89.8884 50.8244 86.5536C54.8586 79.6755 63.9075 77.1934 70.9392 80.1113C76.0669 82.2335 79.8373 87.1789 80.1012 92.8443C80.1766 94.398 80.1955 95.9706 80.1578 97.5623C80.1578 97.657 80.0824 97.7328 79.9881 97.7328H58.8175C58.8175 97.7328 58.6856 97.7896 58.6856 97.8654C58.6856 97.8654 58.6856 97.8844 58.6856 97.9033V97.9223ZM59.1003 91.7263H70.4679C70.4679 91.7263 70.4679 91.7074 70.4679 91.6884V91.6505C70.4679 88.9978 68.2057 86.8568 65.4345 86.8568H64.1149C61.3437 86.8568 59.0815 89.0168 59.1003 91.6505V91.6884V91.7263Z" fill="black"/>
<path d="M103.59 84.2608C103.59 84.2608 103.646 84.4503 103.571 84.5261L98.82 88.7136C98.6315 88.8841 98.3299 88.8841 98.1414 88.7136C96.9726 87.6335 95.521 86.9514 93.8432 86.6672C92.7498 86.4777 90.7892 86.7619 90.5818 88.0693C90.4687 88.8083 91.0342 89.1115 91.6375 89.3199C94.2013 90.2104 96.4259 91.101 98.311 91.9536C101.723 93.5074 104.193 96.1222 104.457 100.063C104.853 106.108 100.272 110.788 94.3522 111.242C89.5261 111.621 85.2467 110.314 81.4952 107.358C80.8354 106.847 80.2887 106.259 79.8551 105.634C79.7797 105.539 79.7986 105.388 79.8928 105.312L84.7189 100.689C84.9451 100.48 85.2844 100.442 85.5484 100.632C87.7729 102.185 89.6204 103.493 92.5047 103.19C93.4661 103.095 94.2202 102.697 94.7858 102.015C95.0497 101.693 95.0308 101.2 94.7104 100.916C94.3899 100.613 93.8809 100.31 93.1834 99.9875C92.3916 99.6086 90.9965 99.0591 89.036 98.3012C86.9623 97.5243 85.6049 96.899 84.9828 96.4253C81.9288 94.1895 80.6657 90.7031 81.3821 87.0083C82.3059 82.3092 86.491 79.467 91.1474 79.1449C96.1242 78.8039 100.422 80.225 103.608 84.2798L103.59 84.2608Z" fill="black"/>
<path d="M10.688 108.192C10.688 108.192 10.5937 108.173 10.556 108.192C10.556 108.192 10.5372 108.23 10.5372 108.249V123.293C10.5372 123.388 10.4618 123.464 10.3675 123.464H0.16869C0.0744307 123.464 -0.000976562 123.388 -0.000976562 123.293V80.0732C-0.000976562 79.9595 0.0932825 79.8648 0.206393 79.8648H10.3675C10.4618 79.8648 10.556 79.9406 10.556 80.0543V81.4943C10.556 81.5891 10.6314 81.6648 10.7257 81.6648C10.7634 81.6648 10.8011 81.6649 10.8388 81.627C11.329 81.1722 11.9699 80.7743 12.7428 80.4143C16.3812 78.7279 21.5278 78.6332 25.0531 80.4522C29.0685 82.5364 31.7455 85.5681 33.1405 89.5471C33.8192 91.4988 34.0831 93.8672 33.9323 96.6336C33.6683 101.408 31.6889 105.274 27.9751 108.211C22.9794 112.19 15.7214 112.266 10.7068 108.154L10.688 108.192ZM23.3376 93.4504C21.9802 85.3218 10.2733 87.1029 9.85852 94.4925C9.59459 99.2484 13.9682 103.114 18.6246 102.166C22.6966 101.352 23.922 97.0694 23.3187 93.4504H23.3376Z" fill="black"/>
<path d="M138.409 95.2314C138.409 98.7178 138.409 103.796 138.409 110.446C138.409 110.522 138.352 110.598 138.258 110.598H128.624C128.624 110.598 128.455 110.522 128.455 110.446V109.139C128.455 109.139 128.398 109.025 128.342 109.025C128.323 109.025 128.304 109.025 128.285 109.025C123.629 111.981 117.257 112.209 112.582 109.291C107.793 106.316 105.116 100.897 105.116 95.2504C105.116 89.6039 107.793 84.1659 112.563 81.1911C117.238 78.2731 123.61 78.5005 128.266 81.4564C128.323 81.4943 128.398 81.4564 128.436 81.4185C128.436 81.3995 128.436 81.3806 128.436 81.3616V80.0542C128.436 80.0542 128.511 79.8837 128.587 79.8837H138.22C138.22 79.8837 138.352 79.9405 138.371 80.0163C138.371 86.667 138.371 91.7261 138.371 95.2125L138.409 95.2314ZM122.007 87.8797C118.388 87.8797 115.447 91.1576 115.428 95.2125C115.428 99.2673 118.35 102.564 121.97 102.564C125.589 102.564 128.53 99.2862 128.549 95.2314C128.549 91.1766 125.627 87.8797 122.007 87.8797Z" fill="black"/>
<path d="M193.55 95.2128C193.55 104.838 193.569 109.878 193.588 110.371C193.588 110.485 193.512 110.561 193.399 110.561H183.502C183.37 110.561 183.257 110.447 183.257 110.314V110.276C183.332 109.859 183.351 109.518 183.313 109.234C183.313 109.158 183.219 109.12 183.163 109.12H183.125C180.184 110.939 176.885 111.641 173.19 111.224C166.064 110.409 161.351 104.402 160.427 97.5244C160.371 97.0886 160.333 96.3307 160.333 95.2507C160.333 94.1707 160.371 93.4128 160.427 92.977C161.332 86.0989 166.007 80.0735 173.152 79.2398C176.828 78.804 180.146 79.5051 183.087 81.3051C183.144 81.343 183.238 81.3051 183.276 81.2672V81.2293C183.332 80.9451 183.313 80.6041 183.219 80.1872C183.2 80.0546 183.276 79.9219 183.408 79.903C183.408 79.903 183.445 79.903 183.464 79.903H193.361C193.474 79.884 193.55 79.9598 193.55 80.0735C193.55 80.5662 193.55 85.6063 193.55 95.2318V95.2128ZM170.89 95.0991C170.833 98.6234 172.455 101.769 176.037 102.451C180.354 103.285 183.898 99.2297 183.954 95.3265C184.011 91.4233 180.618 87.2547 176.282 87.9369C172.681 88.5053 170.947 91.5748 170.89 95.0991Z" fill="black"/>
<path d="M46.1866 79.8647H36.9115C36.5575 79.8647 36.2705 80.1532 36.2705 80.509V109.897C36.2705 110.253 36.5575 110.541 36.9115 110.541H46.1866C46.5406 110.541 46.8275 110.253 46.8275 109.897V80.509C46.8275 80.1532 46.5406 79.8647 46.1866 79.8647Z" fill="black"/>
<path d="M190.742 117.779C190.742 117.779 190.893 117.855 190.893 117.931C190.893 117.931 190.893 117.95 190.893 117.969C186.67 136.481 177.263 152.909 163.727 166.115C163.671 166.172 163.633 166.267 163.671 166.343C164.274 168.73 163.199 169.526 161.22 171.061C159.73 172.235 155.112 175.873 147.364 181.956C146.874 182.354 146.421 182.41 146.025 182.126C145.403 181.69 144.856 181.292 144.385 180.895C144.253 180.781 144.046 180.781 143.914 180.895L134.79 187.792C134.507 188 134.13 188.057 133.79 187.924L131.736 187.072C131.736 187.072 131.679 187.034 131.66 187.015C131.019 186.257 130.491 185.253 130.906 184.21C131.095 183.718 131.132 183.244 131 182.827C130.868 182.41 131.038 181.956 131.415 181.728L140.351 176.233C140.351 176.233 140.464 176.082 140.426 176.006C140.03 175.191 139.408 173.941 139.917 173.202C140.012 173.069 140.464 172.671 141.275 172.027C147.552 167.101 151.888 163.671 154.282 161.719C155.772 160.507 156.545 159.825 158.222 160.355C158.43 160.412 158.656 160.355 158.807 160.223C162.539 156.566 166.046 152.511 169.307 148.077C171.607 144.951 173.587 141.748 175.208 138.489C177.112 134.662 178.62 131.213 179.713 128.144C180.788 125.131 181.844 121.759 182.881 118.007C182.937 117.836 183.088 117.723 183.258 117.723H190.761L190.742 117.779Z" fill="black"/>
<path d="M46.1289 123.028H48.2026L50.5025 126.628L52.8024 123.028H54.8761V131.536H52.9721V125.984L50.5214 129.622H50.4648L48.0329 126.022V131.536H46.1478V123.028H46.1289Z" fill="black"/>
<path d="M57.874 127.898V123.047H59.7969V127.86C59.7969 129.243 60.5133 129.963 61.6821 129.963C62.8509 129.963 63.5673 129.262 63.5673 127.917V123.047H65.4902V127.841C65.4902 130.418 64.0009 131.669 61.6632 131.669C59.3256 131.669 57.874 130.399 57.874 127.898Z" fill="black"/>
<path d="M67.8844 130.285L69.0155 128.959C69.8073 129.584 70.6179 129.982 71.617 129.982C72.4088 129.982 72.8801 129.679 72.8801 129.186C72.8801 128.694 72.5785 128.447 71.1269 128.087C69.3737 127.651 68.2237 127.178 68.2237 125.491C68.2237 123.919 69.5056 122.896 71.2777 122.896C72.5596 122.896 73.6342 123.293 74.5202 123.976L73.5211 125.378C72.7481 124.847 71.9941 124.544 71.24 124.544C70.4859 124.544 70.1089 124.866 70.1089 125.283C70.1089 125.87 70.4859 126.041 71.9941 126.42C73.7661 126.875 74.7653 127.481 74.7653 128.978C74.7653 130.683 73.4457 131.63 71.5605 131.63C70.2409 131.63 68.9024 131.176 67.8467 130.266L67.8844 130.285Z" fill="black"/>
<path d="M77.6123 123.028H79.5352V131.536H77.6123V123.028Z" fill="black"/>
<path d="M82.3633 127.31C82.3633 124.866 84.2296 122.896 86.9254 122.896C88.5655 122.896 89.5647 123.426 90.3753 124.203L89.1499 125.567C88.4713 124.98 87.7926 124.601 86.9066 124.601C85.4361 124.601 84.3804 125.795 84.3804 127.254C84.3804 128.731 85.4173 129.944 86.9066 129.944C87.9057 129.944 88.509 129.546 89.2065 128.94L90.4319 130.134C89.527 131.062 88.5278 131.649 86.85 131.649C84.2862 131.649 82.3633 129.717 82.3633 127.272V127.31Z" fill="black"/>
<path d="M97.1988 130.285L98.3299 128.959C99.1217 129.584 99.9323 129.982 100.931 129.982C101.723 129.982 102.195 129.679 102.195 129.186C102.195 128.694 101.893 128.447 100.441 128.087C98.6881 127.651 97.5382 127.178 97.5382 125.491C97.5382 123.919 98.8012 122.896 100.592 122.896C101.874 122.896 102.949 123.293 103.835 123.976L102.836 125.378C102.063 124.847 101.309 124.544 100.554 124.544C99.8004 124.544 99.4234 124.866 99.4234 125.283C99.4234 125.87 99.8004 126.041 101.309 126.42C103.081 126.875 104.08 127.481 104.08 128.978C104.08 130.683 102.76 131.63 100.875 131.63C99.5553 131.63 98.2168 131.176 97.1611 130.266L97.1988 130.285Z" fill="black"/>
<path d="M108.869 124.753H106.211V123.028H113.45V124.753H110.792V131.536H108.869V124.753Z" fill="black"/>
<path d="M115.824 127.898V123.047H117.747V127.86C117.747 129.243 118.463 129.963 119.632 129.963C120.801 129.963 121.517 129.262 121.517 127.917V123.047H123.44V127.841C123.44 130.418 121.951 131.669 119.613 131.669C117.276 131.669 115.824 130.399 115.824 127.898Z" fill="black"/>
<path d="M126.438 123.028H129.85C132.602 123.028 134.487 124.866 134.487 127.254C134.487 129.679 132.583 131.536 129.85 131.536H126.438V123.028ZM128.36 124.715V129.831H129.85C131.414 129.831 132.489 128.807 132.489 127.292C132.489 125.757 131.433 124.715 129.85 124.715H128.36Z" fill="black"/>
<path d="M137.334 123.028H139.257V131.536H137.334V123.028Z" fill="black"/>
<path d="M142.104 127.31C142.104 124.866 144.064 122.896 146.76 122.896C149.456 122.896 151.397 124.847 151.397 127.272C151.397 129.717 149.437 131.687 146.741 131.687C144.045 131.687 142.104 129.736 142.104 127.31ZM149.38 127.31C149.38 125.832 148.287 124.62 146.741 124.62C145.195 124.62 144.121 125.813 144.121 127.272C144.121 128.75 145.214 129.963 146.76 129.963C148.306 129.963 149.38 128.769 149.38 127.31Z" fill="black"/>
</g>
<defs>
<clipPath id="clip0_55_463">
<rect width="193.57" height="188" fill="white"/>
</clipPath>
</defs>
</svg>
