<svg width="1178" height="1082" viewBox="0 0 1178 1082" fill="none" xmlns="http://www.w3.org/2000/svg">
<g clip-path="url(#clip0_17_37)">
<path d="M466 32C546.52 32 627.04 32 710 32C708.919 39.5688 707.974 42.7546 701.938 47.3125C697.28 49.7633 692.168 49.8131 687 50C687.387 50.8972 687.773 51.7944 688.172 52.7188C693.81 66.1106 698.112 80.0292 698.203 94.6797C698.209 95.4101 698.215 96.1405 698.22 96.8931C698.23 98.4378 698.236 99.9826 698.24 101.527C698.25 103.834 698.281 106.139 698.312 108.445C698.413 122.35 696.366 135.312 691.812 148.5C691.511 149.384 691.209 150.268 690.898 151.178C684.312 169.879 673.467 185.327 661.89 201.236C658.332 206.129 654.85 211.066 651.438 216.062C646.207 223.723 640.869 231.304 635.507 238.872C628.48 248.793 621.477 258.731 614.5 268.688C613.619 269.944 613.619 269.944 612.719 271.226C611.624 272.79 610.532 274.356 609.442 275.924C608.204 277.706 606.955 279.481 605.703 281.254C600.582 289.511 599.721 299.75 601.75 309.125C604.113 317.045 608.604 323.592 613.375 330.25C614.633 332.026 615.891 333.802 617.148 335.578C617.789 336.479 618.429 337.379 619.089 338.307C622.081 342.523 625.039 346.762 628 351C629.165 352.664 630.331 354.328 631.496 355.992C633.846 359.349 636.192 362.709 638.535 366.07C644.173 374.153 649.843 382.207 655.625 390.188C657.222 392.396 658.819 394.604 660.417 396.812C661.477 398.278 662.54 399.743 663.603 401.208C675.8 418.039 685.546 434.699 690.75 455C690.949 455.77 691.148 456.539 691.352 457.333C694.553 470.566 695.378 483.705 695.312 497.25C695.311 498.015 695.31 498.78 695.308 499.569C695.249 516.438 693.17 531.914 688 548C689.949 547.876 689.949 547.876 691.938 547.75C698.474 547.76 703.804 549.804 708.438 554.438C710.938 558.539 712 561.145 712 566C630.16 566 548.32 566 464 566C466.412 555.145 466.412 555.145 473.273 550.441C476.34 548.82 478.889 548.302 482.312 547.812C483.915 547.575 483.915 547.575 485.551 547.332C486.359 547.222 487.167 547.113 488 547C487.734 546.022 487.469 545.043 487.195 544.035C476.745 505.358 477.367 460.212 496.983 424.194C502.198 415.235 508.57 406.941 514.672 398.578C517.844 394.227 520.963 389.841 524.062 385.438C524.555 384.738 525.047 384.039 525.554 383.318C526.545 381.911 527.535 380.503 528.525 379.096C530.478 376.321 532.437 373.551 534.395 370.781C539.779 363.164 545.153 355.54 550.483 347.886C553.733 343.22 557.015 338.581 560.34 333.969C561.064 332.954 561.788 331.939 562.534 330.893C563.932 328.934 565.339 326.983 566.759 325.041C572.336 317.178 575.426 309.821 575.438 300.062C575.457 298.981 575.476 297.899 575.496 296.785C574.268 287.413 570.166 280.055 564.625 272.562C563.368 270.817 562.112 269.071 560.855 267.324C560.215 266.443 559.575 265.562 558.916 264.654C555.868 260.432 552.908 256.151 549.938 251.875C545.499 245.517 540.998 239.209 536.438 232.938C531.454 226.084 526.639 219.13 521.884 212.116C518.106 206.564 514.209 201.112 510.25 195.688C486.061 162.352 472.673 125.629 478.826 83.8008C480.867 72.2301 484.684 60.9037 489 50C488.276 49.9742 487.551 49.9484 486.805 49.9219C480.755 49.567 476.764 49.067 472 45C470.886 44.1647 470.886 44.1647 469.75 43.3125C468 41 468 41 466 32ZM494 149C495.825 154.931 497.961 160.458 500.875 165.938C501.453 167.024 501.453 167.024 502.042 168.133C506.45 176.168 511.837 183.436 517.324 190.756C520.025 194.372 522.67 198.028 525.312 201.688C525.84 202.416 526.367 203.145 526.911 203.896C532.762 212.008 538.448 220.235 544.148 228.453C547.477 233.252 550.821 238.04 554.188 242.812C554.899 243.821 554.899 243.821 555.624 244.851C558.171 248.451 560.745 252.03 563.348 255.59C569.025 263.36 574.511 271.113 579.414 279.398C580.83 281.72 582.353 283.84 584 286C584.093 275.612 584.164 265.223 584.207 254.835C584.228 250.01 584.256 245.186 584.302 240.361C584.345 235.699 584.369 231.038 584.38 226.376C584.387 224.603 584.401 222.831 584.423 221.058C584.554 209.907 584.645 200.16 577 191.25C568.652 183.695 557.388 180.653 546.812 177.625C527.358 171.85 511.726 164.391 496.68 150.469C495.246 148.89 495.246 148.89 494 149ZM681 149C680.466 149.496 679.933 149.993 679.383 150.504C663.443 165.037 645.936 172.469 625.596 178.741C608.551 183.858 608.551 183.858 596 196C591.096 205.51 591.478 214.962 591.609 225.355C591.617 227.111 591.623 228.866 591.627 230.622C591.642 235.207 591.681 239.792 591.725 244.377C591.767 249.069 591.785 253.762 591.805 258.455C591.847 267.637 591.916 276.818 592 286C594.614 283.492 596.192 281.065 597.938 277.875C605.029 265.506 613.852 254.188 622.213 242.662C626.18 237.177 630.031 231.623 633.843 226.03C637.253 221.044 640.763 216.137 644.312 211.25C651.327 201.582 658.23 191.841 665 182C665.449 181.35 665.898 180.701 666.36 180.032C671.047 173.201 675.052 166.221 678.625 158.75C678.981 158.01 679.336 157.27 679.703 156.507C680.535 154.701 681.277 152.853 682 151C681.505 150.01 681.505 150.01 681 149ZM504.668 429.578C500.999 434.905 498.954 440.89 497 447C496.658 448.066 496.658 448.066 496.309 449.153C486.193 481.681 486.304 516.259 499 548C557.74 548 616.48 548 677 548C681.353 536.825 681.353 536.825 684.25 525.438C684.413 524.625 684.575 523.812 684.743 522.974C685.964 516.663 686.798 510.432 687 504C687.04 502.953 687.08 501.907 687.121 500.828C687.547 479.073 684.45 453.462 674 434C666.484 434.635 666.484 434.635 659 435.562C635.594 438.506 612.779 429.345 591.389 420.959C563.503 410.06 527.385 404.584 504.668 429.578Z" fill="#D6958B"/>
<path d="M0 729C10.2942 728.953 20.5884 728.918 30.8827 728.896C35.6654 728.886 40.4481 728.872 45.2307 728.849C120.913 728.496 120.913 728.496 141.523 748.363C153.143 760.734 156.471 774.054 156.211 790.676C155.743 803.911 150.247 816.94 140.73 826.211C131.208 834.315 120.45 840.034 108 842C113.659 851.047 119.579 859.913 125.514 868.779C127.278 871.415 129.037 874.053 130.795 876.692C131.601 877.901 132.407 879.11 133.215 880.318C135.447 883.659 137.665 887.01 139.867 890.371C160.112 922.332 160.112 922.332 192.812 938.875C194.872 939.266 196.934 939.647 199 940C199 942.64 199 945.28 199 948C149.845 952.54 149.845 952.54 139.79 945.592C133.489 939.981 130.233 932 127.292 924.268C125.638 920.084 123.406 916.721 120.75 913.125C119.985 911.991 119.226 910.853 118.473 909.711C118.085 909.129 117.697 908.547 117.297 907.948C115.778 905.667 114.262 903.384 112.746 901.101C103.367 886.966 103.367 886.966 93.7458 872.994C90.9844 869.039 88.4401 865.077 86.1172 860.848C85.6346 860.014 85.152 859.18 84.6548 858.321C83.752 856.749 82.8952 855.149 82.0991 853.521C80.5676 850.926 79.527 849.691 77 848C74.0954 847.446 71.212 847.363 68.2607 847.289C67.4672 847.257 66.6736 847.224 65.856 847.191C63.9045 847.113 61.9523 847.055 60 847C60.0381 857.718 60.0974 868.436 60.1839 879.155C60.2234 884.132 60.2556 889.109 60.271 894.086C60.2862 898.891 60.3206 903.695 60.3683 908.5C60.3831 910.331 60.391 912.163 60.3919 913.994C60.3943 916.563 60.4213 919.131 60.4541 921.7C60.4491 922.454 60.444 923.209 60.4389 923.986C60.54 929.121 61.7916 932.026 65 936C69.4993 939.954 73.9047 940.233 79.6875 940.562C80.7403 940.627 80.7403 940.627 81.8145 940.693C83.5428 940.799 85.2714 940.9 87 941C87 943.31 87 945.62 87 948C58.29 948 29.58 948 0 948C0 945.69 0 943.38 0 941C1.08539 940.902 2.17078 940.804 3.28906 940.703C4.73447 940.553 6.17977 940.402 7.625 940.25C8.33785 940.188 9.0507 940.126 9.78516 940.062C15.6163 939.42 19.5293 937.471 23.75 933.25C28.2227 925.199 27.2903 915.756 27.2747 906.844C27.279 905.206 27.2842 903.567 27.2901 901.929C27.3035 897.495 27.3041 893.061 27.3016 888.627C27.3005 884.917 27.3054 881.207 27.3102 877.497C27.3213 868.739 27.3217 859.981 27.3157 851.223C27.3096 842.209 27.3219 833.194 27.3432 824.179C27.3609 816.422 27.3669 808.664 27.3636 800.907C27.3618 796.282 27.3644 791.657 27.3783 787.031C27.391 782.679 27.3889 778.326 27.3759 773.973C27.3736 772.383 27.3762 770.793 27.3845 769.203C27.8976 754.766 27.8976 754.766 22.314 742.008C17.3701 737.411 12.3778 735.816 5.6875 735.375C4.61887 735.3 3.55023 735.225 2.44922 735.148C1.64098 735.099 0.832734 735.05 0 735C0 733.02 0 731.04 0 729ZM60 747C60 776.04 60 805.08 60 835C75.6187 837.603 92.0502 834.188 105 825C105.887 824.422 106.774 823.845 107.688 823.25C115.954 815.207 121.56 804.387 122.168 792.801C122.255 777.208 119.409 765.832 108.461 754.266C99.2015 745.741 89.8903 743.629 77.625 743.801C68.5505 744.248 68.5505 744.248 60 747Z" fill="#B97D7B"/>
<path d="M733.434 728.877C734.525 728.878 735.615 728.879 736.739 728.88C737.986 728.878 739.232 728.877 740.517 728.875C741.911 728.879 743.305 728.883 744.699 728.886C746.158 728.887 747.616 728.887 749.074 728.886C753.045 728.886 757.016 728.892 760.987 728.899C765.132 728.905 769.278 728.905 773.423 728.907C781.278 728.91 789.133 728.918 796.989 728.928C805.929 728.939 814.87 728.945 823.81 728.95C842.207 728.96 860.603 728.978 879 729C878.214 733.787 876.247 737.015 873.5 740.937C872.584 742.278 871.668 743.619 870.754 744.961C870.06 745.974 870.06 745.974 869.352 747.007C867.327 749.992 865.378 753.023 863.438 756.062C862.885 756.925 862.885 756.925 862.322 757.805C861.581 758.963 860.84 760.121 860.1 761.279C858.28 764.127 856.452 766.97 854.625 769.812C854.068 770.679 854.068 770.679 853.5 771.563C850.207 776.686 846.894 781.795 843.581 786.905C840.042 792.372 836.533 797.858 833.03 803.347C827.55 811.931 822.058 820.499 816.377 828.951C812.529 834.681 808.803 840.485 805.087 846.301C803.336 849.038 801.573 851.768 799.812 854.5C795.893 860.589 792.009 866.7 788.125 872.812C782.962 880.935 777.763 889.032 772.523 897.105C770.106 900.832 767.708 904.572 765.312 908.312C761.851 913.714 758.313 919.059 754.727 924.379C753.078 926.881 751.534 929.426 750 932C760.841 932.07 771.682 932.123 782.522 932.155C787.558 932.171 792.593 932.192 797.628 932.226C802.497 932.259 807.367 932.277 812.236 932.285C814.084 932.29 815.931 932.301 817.778 932.317C839.059 932.642 839.059 932.642 858 924C867.368 914.767 871.964 900.238 876 888C877.98 888.33 879.96 888.66 882 889C879.658 908.804 876.284 928.293 873 948C819.21 948 765.42 948 710 948C710 937.879 710 937.879 712.352 934.519C712.866 933.759 713.381 932.999 713.911 932.215C714.759 931.026 714.759 931.026 715.625 929.812C716.822 928.057 718.017 926.3 719.211 924.543C720.146 923.184 720.146 923.184 721.101 921.798C724.26 917.144 727.249 912.383 730.25 907.625C731.428 905.769 732.606 903.914 733.785 902.059C734.337 901.19 734.889 900.321 735.458 899.425C739.771 892.643 744.126 885.887 748.5 879.144C753.704 871.12 758.872 863.073 764 855C768.525 847.876 773.076 840.77 777.671 833.69C782.559 826.153 787.394 818.583 792.233 811.015C795.69 805.609 799.15 800.206 802.625 794.812C806.438 788.888 810.22 782.945 814 777C822.052 764.338 822.052 764.338 826 758.187C826.959 756.693 826.959 756.693 827.938 755.168C829.652 752.534 831.385 749.916 833.129 747.302C833.667 746.495 834.205 745.688 834.76 744.857C835.374 743.938 835.374 743.938 836 743C827.489 743.085 818.978 743.18 810.466 743.287C806.513 743.337 802.56 743.383 798.606 743.422C794.781 743.459 790.955 743.506 787.13 743.558C785.681 743.576 784.232 743.591 782.783 743.603C763.174 743.372 763.174 743.372 746.102 751.652C738.26 759.742 736.556 770.221 734.613 780.91C734 784 734 784 733 786C730.69 786 728.38 786 726 786C726.499 778.715 727.003 771.431 727.513 764.147C727.75 760.765 727.984 757.383 728.216 754.001C728.481 750.116 728.754 746.232 729.027 742.348C729.11 741.128 729.192 739.908 729.277 738.651C729.357 737.53 729.437 736.409 729.519 735.254C729.588 734.261 729.657 733.269 729.728 732.246C730.107 729.12 730.265 729.037 733.434 728.877Z" fill="#AF7576"/>
<path d="M969 729C997.38 729 1025.76 729 1055 729C1055 730.98 1055 732.96 1055 735C1054.15 735.086 1053.31 735.173 1052.44 735.262C1045.49 736.123 1039.24 737.018 1034 742C1031.62 745.89 1031.39 749.546 1032 754C1034.48 762.275 1039.05 769.542 1043.5 776.875C1044.22 778.073 1044.94 779.271 1045.66 780.469C1047.09 782.866 1048.53 785.26 1049.98 787.652C1051.76 790.599 1053.53 793.55 1055.3 796.504C1058.19 801.34 1061.09 806.171 1064 811C1066.17 814.604 1068.33 818.208 1070.5 821.812C1070.99 822.631 1071.49 823.449 1071.99 824.293C1074.72 828.831 1077.39 833.393 1080 838C1082.5 835.709 1084.11 833.345 1085.79 830.406C1086.33 829.472 1086.87 828.537 1087.43 827.574C1088.01 826.559 1088.59 825.545 1089.19 824.5C1090.44 822.325 1091.7 820.151 1092.96 817.977C1093.62 816.837 1094.27 815.698 1094.95 814.524C1098.04 809.198 1101.19 803.909 1104.34 798.618C1120.5 775.333 1120.5 775.333 1127 749C1125.18 743.838 1122.89 741.444 1118 739C1114.97 738.41 1112.1 738.188 1109 738C1109 735.03 1109 732.06 1109 729C1131.77 729 1154.54 729 1178 729C1178 730.98 1178 732.96 1178 735C1176.91 735.206 1175.81 735.412 1174.69 735.625C1167.04 737.535 1160.52 741.46 1155 747C1154.34 747 1153.68 747 1153 747C1152.74 747.568 1152.48 748.137 1152.21 748.723C1150.89 751.198 1149.35 753.225 1147.62 755.438C1143.23 761.417 1139.62 767.732 1135.98 774.196C1131.79 781.656 1127.45 789.024 1123.06 796.375C1117.56 805.6 1112.17 814.874 1106.95 824.261C1106.49 825.089 1106.03 825.917 1105.55 826.77C1105.05 827.703 1104.55 828.637 1104.03 829.599C1102.38 832.361 1100.67 834.809 1098.75 837.371C1087.19 853.52 1087.32 868.503 1087.99 887.508C1088.09 890.606 1088.13 893.703 1088.16 896.802C1087.39 916.489 1087.39 916.489 1092.62 934.875C1098.97 940.555 1106.87 940.607 1115 941C1115 943.31 1115 945.62 1115 948C1086.62 948 1058.24 948 1029 948C1029 945.69 1029 943.38 1029 941C1030.22 940.914 1031.44 940.827 1032.69 940.738C1034.32 940.597 1035.94 940.455 1037.56 940.312C1038.36 940.259 1039.16 940.206 1039.99 940.15C1045.58 939.626 1050.22 938.382 1054 934C1060.88 920.344 1059.48 902.569 1059.59 887.642C1059.61 885.373 1059.65 883.105 1059.71 880.836C1060.08 866.729 1060.09 857.297 1051 846C1049.71 843.968 1048.45 841.918 1047.21 839.852C1046.59 838.838 1045.96 837.825 1045.32 836.781C1039.39 827.162 1033.49 817.531 1027.62 807.875C1023.38 800.889 1019.11 793.92 1014.76 787.002C1012.41 783.277 1010.1 779.534 1007.81 775.773C995.176 753.603 995.176 753.603 975 739C971.763 738.292 971.763 738.292 969 738C969 735.03 969 732.06 969 729Z" fill="#A86F72"/>
<path d="M457 729C511.12 729 565.24 729 621 729C621.591 733.142 622.126 736.902 622.297 741.017C622.337 741.938 622.377 742.858 622.418 743.807C622.456 744.777 622.495 745.747 622.535 746.746C622.578 747.757 622.621 748.768 622.665 749.81C622.801 753.019 622.931 756.228 623.062 759.438C623.154 761.622 623.245 763.806 623.337 765.99C623.562 771.327 623.782 776.663 624 782C621.69 782 619.38 782 617 782C616.671 780.333 616.671 780.333 616.335 778.633C614.029 767.568 611.299 757.534 601.988 750.246C594.067 745.282 585.844 743.95 576.632 743.684C575.953 743.663 575.273 743.642 574.573 743.621C572.424 743.556 570.274 743.497 568.125 743.438C566.658 743.394 565.192 743.351 563.726 743.307C560.151 743.2 556.575 743.099 553 743C553.084 765.593 553.179 788.185 553.287 810.778C553.337 821.269 553.384 831.76 553.421 842.251C553.454 851.4 553.494 860.548 553.542 869.696C553.567 874.536 553.589 879.376 553.603 884.216C553.616 888.781 553.638 893.345 553.667 897.909C553.676 899.576 553.682 901.243 553.684 902.91C552.887 919.576 552.887 919.576 558.187 934.625C565.452 940.76 572.764 940.629 582 941C582 943.31 582 945.62 582 948C553.95 948 525.9 948 497 948C497 945.69 497 943.38 497 941C498.097 940.879 499.194 940.758 500.324 940.633C501.778 940.464 503.233 940.295 504.687 940.125C505.408 940.046 506.13 939.968 506.873 939.887C510.885 939.41 514.299 938.737 518 937C518 936.34 518 935.68 518 935C518.66 935 519.32 935 520 935C524.816 921.854 524.153 907.807 524.205 893.989C524.214 892.332 524.224 890.674 524.235 889.017C524.262 884.564 524.283 880.11 524.303 875.656C524.325 870.985 524.352 866.314 524.379 861.643C524.429 852.818 524.474 843.993 524.517 835.167C524.567 825.112 524.621 815.056 524.677 805C524.79 784.333 524.897 763.667 525 743C521.034 743.11 517.069 743.228 513.104 743.352C511.102 743.413 509.101 743.468 507.099 743.524C490.838 743.988 490.838 743.988 476 750C475.34 750 474.68 750 474 750C474 750.66 474 751.32 474 752C473.34 752 472.68 752 472 752C471.72 752.571 471.44 753.142 471.152 753.73C470.411 755.19 469.634 756.633 468.816 758.051C465.21 764.555 463.823 770.724 462.578 777.973C462 781 462 781 461 782C459 782.041 456.999 782.043 455 782C454.538 764.243 455.982 746.802 457 729Z" fill="#B77B7A"/>
<path d="M279 729C307.38 729 335.76 729 365 729C365 730.98 365 732.96 365 735C364.154 735.026 363.309 735.052 362.438 735.078C354.012 735.499 347.789 736.311 341.625 742.312C335.236 752.879 336.852 767.362 336.871 779.233C336.869 780.724 336.867 782.215 336.865 783.707C336.861 787.721 336.862 791.735 336.866 795.75C336.868 799.971 336.866 804.193 336.864 808.414C336.862 815.499 336.865 822.585 336.87 829.67C336.875 837.837 336.873 846.004 336.868 854.171C336.863 861.211 336.863 868.251 336.865 875.291C336.867 879.484 336.867 883.676 336.864 887.869C336.861 891.811 336.863 895.754 336.869 899.696C336.87 901.135 336.87 902.573 336.867 904.012C336.018 919.722 336.018 919.722 341 934C346.684 938.355 351.538 940.067 358.688 940.562C359.867 940.646 361.046 940.73 362.262 940.816C363.165 940.877 364.069 940.938 365 941C365 943.31 365 945.62 365 948C336.62 948 308.24 948 279 948C279 945.69 279 943.38 279 941C280.085 940.902 281.171 940.804 282.289 940.703C283.734 940.553 285.18 940.402 286.625 940.25C287.338 940.188 288.051 940.126 288.785 940.062C293.8 939.51 296.966 938.231 301 935C304.994 929.629 305.125 924.415 305.14 917.885C305.143 917.18 305.146 916.475 305.149 915.748C305.158 913.392 305.16 911.035 305.161 908.678C305.166 906.986 305.171 905.294 305.176 903.602C305.189 899.009 305.196 894.416 305.2 889.823C305.203 886.952 305.207 884.081 305.212 881.21C305.225 872.222 305.235 863.235 305.239 854.248C305.243 843.881 305.261 833.515 305.29 823.149C305.312 815.13 305.322 807.111 305.323 799.092C305.324 794.305 305.33 789.519 305.348 784.732C305.364 780.228 305.366 775.725 305.358 771.221C305.357 769.571 305.361 767.922 305.371 766.272C305.861 753.223 305.861 753.223 300.133 741.977C292.997 737.173 287.572 735.633 279 735C279 733.02 279 731.04 279 729Z" fill="#B87C7B"/>
<path d="M431.682 581.739C433.084 581.736 434.485 581.732 435.886 581.728C439.728 581.718 443.569 581.72 447.41 581.724C451.557 581.726 455.704 581.717 459.85 581.71C467.971 581.697 476.091 581.695 484.212 581.698C490.813 581.7 497.415 581.698 504.017 581.694C505.426 581.693 505.426 581.693 506.864 581.692C508.774 581.69 510.683 581.689 512.592 581.688C530.496 581.677 548.4 581.679 566.304 581.685C582.676 581.691 599.049 581.679 615.421 581.66C632.238 581.641 649.055 581.633 665.873 581.636C675.312 581.638 684.751 581.636 694.19 581.622C702.227 581.61 710.263 581.608 718.299 581.621C722.398 581.626 726.496 581.628 730.595 581.616C734.351 581.605 738.106 581.608 741.862 581.622C743.856 581.626 745.849 581.615 747.843 581.604C758.776 581.669 767.889 583.231 776 591C781 596.839 781 596.839 781 600C653.62 600 526.24 600 395 600C399.253 591.495 405.001 586.274 413.864 582.915C419.66 581.33 425.723 581.722 431.682 581.739Z" fill="#C2847F"/>
<path d="M396 0C522.72 0 649.44 0 780 0C773.938 8.0832 769.14 13.6341 759.185 15.5385C753.338 16.3315 747.427 16.1409 741.539 16.1337C740.162 16.1356 738.784 16.1379 737.407 16.1406C733.632 16.1467 729.857 16.1466 726.082 16.1454C722.007 16.1452 717.932 16.1507 713.857 16.1554C705.877 16.1637 697.897 16.1665 689.918 16.1671C683.431 16.1675 676.944 16.1696 670.458 16.1728C652.062 16.1816 633.666 16.1862 615.27 16.1854C614.279 16.1854 613.287 16.1853 612.266 16.1853C611.274 16.1853 610.281 16.1852 609.258 16.1852C593.17 16.1848 577.081 16.1943 560.992 16.2084C544.468 16.2228 527.944 16.2297 511.419 16.2288C502.144 16.2285 492.868 16.2313 483.593 16.242C475.697 16.2511 467.801 16.2533 459.904 16.2465C455.877 16.2433 451.849 16.2432 447.822 16.2519C444.132 16.2597 440.442 16.2583 436.752 16.2496C434.792 16.2473 432.831 16.2549 430.871 16.2628C419.722 16.2193 409.206 15.0578 400.879 6.92969C396 1.45196 396 1.45196 396 0Z" fill="#E0A498"/>
<path d="M431 32C434.96 32 438.92 32 443 32C443.774 36.1548 444.156 40.1379 444.25 44.3611C444.28 45.6122 444.311 46.8633 444.342 48.1523C444.356 48.8173 444.371 49.4824 444.385 50.1676C444.431 52.2926 444.482 54.4173 444.535 56.5421C444.611 59.5882 444.685 62.6344 444.758 65.6806C445.929 113.739 449.097 161.352 454.587 209.124C454.679 209.933 454.771 210.742 454.866 211.576C455.037 213.063 455.21 214.55 455.386 216.036C456.671 227.245 457.57 237.066 451.188 246.75C446.897 251.163 442.089 252.794 436 253C431.543 251.966 427.812 250.541 424 248C424 247.34 424 246.68 424 246C423.34 246 422.68 246 422 246C415.191 233.27 418.293 218.987 419.966 205.236C420.561 200.326 421.129 195.413 421.696 190.5C421.809 189.516 421.923 188.533 422.04 187.519C423.662 173.371 424.927 159.199 426 145C426.141 143.141 426.141 143.141 426.285 141.245C427.989 117.801 428.613 94.3048 429.303 70.8135C429.688 57.8608 430.1 44.9285 431 32Z" fill="#DE9F93"/>
<path d="M445.16 354.656C450.618 357.439 454.103 362.31 456 368C456.874 380.911 455.123 393.737 453.664 406.541C451.284 427.52 449.256 448.508 447.688 469.563C447.607 470.628 447.526 471.694 447.443 472.792C445.668 496.367 444.876 519.936 444.448 543.57C444.396 546.363 444.339 549.156 444.281 551.949C444.268 552.789 444.254 553.628 444.24 554.493C444.224 555.276 444.207 556.059 444.19 556.866C444.171 557.887 444.171 557.887 444.152 558.928C443.977 561.31 443.469 563.658 443 566C439.04 566 435.08 566 431 566C430.112 556.837 429.79 547.742 429.612 538.546C429.208 518.334 428.302 498.173 427 478C426.953 477.257 426.905 476.514 426.856 475.748C425.252 450.844 422.736 426.055 419.982 401.253C419.851 400.06 419.721 398.867 419.586 397.638C419.342 395.405 419.093 393.173 418.838 390.941C416.629 370.638 416.629 370.638 421 362C427.428 354.218 435.368 351.681 445.16 354.656Z" fill="#CF8E86"/>
<path d="M733 32C737.29 32 741.58 32 746 32C746.068 35.0763 746.068 35.0763 746.136 38.2148C747.388 94.7128 749.282 151.053 755.957 207.223C756.102 208.449 756.248 209.676 756.397 210.94C756.66 213.111 756.934 215.281 757.225 217.448C758.454 227.374 759.142 238.539 753 247C749.506 250.905 745.669 252.042 740.625 252.867C735.416 253.131 731.163 251.843 727.176 248.445C720.852 241.554 720.505 234.239 720.87 225.216C721.288 218.096 722.155 211.008 722.966 203.924C723.565 198.658 724.131 193.387 724.7 188.117C724.814 187.065 724.927 186.013 725.045 184.93C730.521 134.183 732.28 83.0135 733 32Z" fill="#D49188"/>
<path d="M745 354C749.968 355.709 752.981 358.383 755.438 363C759.479 372.561 757.971 382.535 756.793 392.582C756.535 394.879 756.277 397.176 756.019 399.473C755.815 401.27 755.815 401.27 755.607 403.103C752.84 427.597 750.721 452.063 749.266 476.667C749.03 480.609 748.75 484.546 748.457 488.484C748.018 494.529 747.715 500.568 747.5 506.625C747.461 507.717 747.421 508.808 747.38 509.933C746.734 528.616 746.393 547.31 746 566C741.71 566 737.42 566 733 566C732.986 564.96 732.971 563.921 732.956 562.85C732.123 506.981 729.425 450.899 722.219 395.456C718.953 369.241 718.953 369.241 723.719 361.547C729.806 354.198 735.728 353.001 745 354Z" fill="#C68781"/>
<path d="M436 260C438.954 262.954 438.945 266.52 439.562 270.5C440.251 275.907 440.251 275.907 442 281C442.231 280.276 442.461 279.551 442.699 278.805C444.692 272.897 446.502 268.38 451 264C451.66 264 452.32 264 453 264C452.454 266.731 451.64 268.72 450.375 271.25C448.455 275.601 448.455 275.601 450 283C457.425 278.05 457.425 278.05 465 273C465 276.382 464.555 276.967 462.594 279.574C461.849 280.575 461.849 280.575 461.09 281.596C460.565 282.286 460.041 282.976 459.5 283.688C458.975 284.389 458.451 285.091 457.91 285.814C456.613 287.548 455.307 289.275 454 291C457.735 290.502 459.812 290.125 463 288C465.262 287.805 465.262 287.805 467.688 287.875C468.9 287.902 468.9 287.902 470.137 287.93C470.752 287.953 471.366 287.976 472 288C472 288.66 472 289.32 472 290C471.134 290.392 470.267 290.784 469.375 291.188C465.344 293.207 465.344 293.207 460 298C465.61 298.66 471.22 299.32 477 300C477 300.66 477 301.32 477 302C470.4 303.32 463.8 304.64 457 306C460.516 310.183 460.516 310.183 464.5 310.938C468.544 312.165 469.719 313.532 472 317C471.01 317.495 471.01 317.495 470 318C468.515 317.01 468.515 317.01 467 316C464.026 315.758 464.026 315.758 460.812 315.875C459.726 315.893 458.639 315.911 457.52 315.93C456.688 315.953 455.857 315.976 455 316C455.699 316.953 456.397 317.905 457.117 318.887C458.037 320.153 458.956 321.42 459.875 322.688C460.335 323.313 460.795 323.939 461.27 324.584C463.699 327.947 465.676 331.021 467 335C463.763 333.515 461.067 331.673 458.25 329.5C457.451 328.892 456.652 328.283 455.828 327.656C455.225 327.11 454.622 326.563 454 326C454 325.34 454 324.68 454 324C453.402 323.711 452.804 323.423 452.188 323.125C450 322 450 322 447 320C447.257 321.44 447.531 322.877 447.812 324.312C447.963 325.113 448.114 325.914 448.27 326.738C448.827 329.063 448.827 329.063 450.531 330.5C452.496 332.507 452.487 333.926 452.688 336.688C452.786 337.9 452.786 337.9 452.887 339.137C452.943 340.059 452.943 340.059 453 341C452.34 341 451.68 341 451 341C450.608 339.763 450.216 338.525 449.812 337.25C448.34 333.264 446.543 331.424 443 329C442.67 328.34 442.34 327.68 442 327C439.805 329.195 440.171 334.369 439.838 337.453C439.413 341.005 439.021 342.968 437 346C435.363 344.363 435.542 342.342 435.246 340.09C435.114 339.1 434.982 338.111 434.846 337.092C434.711 336.051 434.576 335.01 434.438 333.938C434.299 332.893 434.16 331.848 434.018 330.771C433.675 328.181 433.336 325.591 433 323C430.357 325.466 429.649 326.77 429.188 330.375C428.512 333.976 427.727 335.731 424.875 338.062C423.926 338.702 422.978 339.341 422 340C422.164 339.5 422.327 339 422.496 338.484C423.188 335.073 423.105 331.713 423.062 328.25C423.032 324.661 423.032 324.661 423 321C418.05 324.63 413.1 328.26 408 332C407.67 331.01 407.34 330.02 407 329C407.896 327.374 407.896 327.374 409.309 325.645C409.808 325.023 410.308 324.401 410.822 323.76C411.355 323.117 411.888 322.475 412.438 321.812C412.967 321.158 413.496 320.504 414.041 319.83C415.352 318.213 416.675 316.605 418 315C415.178 313.686 415.178 313.686 413.238 314.777C412.603 315.16 411.967 315.543 411.312 315.938C406.976 318.279 403.872 318.348 399 318C399 317.34 399 316.68 399 316C399.626 315.902 400.253 315.804 400.898 315.703C401.716 315.554 402.533 315.404 403.375 315.25C404.187 315.111 404.999 314.972 405.836 314.828C408.146 314.203 408.146 314.203 409.102 312.109C409.398 311.413 409.695 310.717 410 310C411.625 308.25 411.625 308.25 413 307C408.157 305.978 403.367 304.992 398.438 304.5C397.303 304.335 396.169 304.17 395 304C394.67 303.34 394.34 302.68 394 302C396.728 301.495 399.457 300.996 402.188 300.5C402.956 300.357 403.725 300.214 404.518 300.066C408.394 299.368 412.041 298.81 416 299C412.441 294.667 408.043 293.074 403 291C402.34 290.67 401.68 290.34 401 290C401 289.34 401 288.68 401 288C400.01 287.67 399.02 287.34 398 287C401.75 285.875 401.75 285.875 404 287C408.66 287.453 413.327 287.703 418 288C415.03 283.71 412.06 279.42 409 275C409.33 274.34 409.66 273.68 410 273C411.355 274.048 411.355 274.048 412.738 275.117C413.93 276.037 415.121 276.956 416.312 277.875C416.907 278.335 417.502 278.795 418.115 279.27C420.7 281.262 423.283 283.189 426 285C425.025 280.939 424.337 278.453 421.812 275.062C419.315 270.842 420.024 268.715 421 264C421.66 264.33 422.32 264.66 423 265C423.248 266.093 423.495 267.186 423.75 268.312C425.284 272.837 427.042 273.558 431 276C431.875 278.25 431.875 278.25 432 280C432.66 280 433.32 280 434 280C433.959 278.928 433.918 277.855 433.875 276.75C433.855 271.069 434.961 265.567 436 260ZM431 289.812C430.319 290.149 429.639 290.485 428.938 290.832C426.163 292.505 424.437 293.964 423.164 296.98C421.939 301.995 421.812 305.511 423.938 310.273C425.934 313.518 428.656 315.328 432 317C437.386 317.353 440.599 317.423 445 314C448.169 311.183 449.69 309.282 450.273 304.984C450.509 299.804 449.877 296.507 446.566 292.441C441.905 288.152 436.694 286.933 431 289.812Z" fill="#D6958B"/>
<path d="M759.086 272.492C767.173 278.863 772.028 287.203 773.746 297.297C774.826 308.798 771.93 319.167 764.699 328.184C757.26 336.135 748.571 339.813 737.75 340.25C728.184 340.105 719.625 336.44 712.762 329.852C706.667 323.334 706.667 323.334 706 318C706.485 318.387 706.969 318.773 707.469 319.172C715.888 325.713 724.053 330.342 735 329C737.493 328.114 739.795 327.073 742.152 325.875C744 325 744 325 746 325C746.186 323.855 746.186 323.855 746.375 322.688C747 320 747 320 749 317C748.34 317 747.68 317 747 317C747 316.01 747 315.02 747 314C748.496 312.859 748.496 312.859 750.438 311.75C753.562 309.667 753.911 309.385 754.812 305.5C754.905 303.768 754.905 303.768 755 302C755.351 301.175 755.701 300.35 756.062 299.5C758.044 294.215 757.281 290.041 755.062 285C751.337 278.106 745.775 273.774 738.438 271.125C734.325 269.945 730.256 269.387 726 269C727 267 727 267 728.676 266.391C739.792 264.522 749.735 266.271 759.086 272.492Z" fill="#CC8C84"/>
<path d="M625.625 1026.56C633.222 1030.94 638.1 1036.78 640.687 1045.25C641.703 1054.19 641.49 1062.74 636.371 1070.45C631.326 1076.61 625.852 1081.33 617.727 1082.26C615.106 1082.44 612.502 1082.53 609.875 1082.56C608.604 1082.58 608.604 1082.58 607.307 1082.61C599.388 1082.48 592.643 1079.64 587 1074C580.703 1064.68 578.976 1057.18 580 1046C581.718 1040.79 584.465 1036.2 588 1032C588.66 1032 589.32 1032 590 1032C590 1031.34 590 1030.68 590 1030C591.603 1029.18 593.207 1028.37 594.812 1027.56C595.705 1027.11 596.599 1026.66 597.519 1026.19C606.059 1022.09 617.147 1022.56 625.625 1026.56ZM594.062 1038.31C589.739 1045.39 589.434 1052.01 591 1060C592.971 1066.23 596.607 1070.39 602 1074C607.23 1076.67 612.39 1076.26 618 1075C624.112 1071.83 627.548 1067.8 629.875 1061.37C631.789 1054.36 630.557 1047.56 627.25 1041.12C623.8 1036.33 619.868 1032.54 614 1031C606.281 1030.23 598.983 1031.89 594.062 1038.31Z" fill="#B37877"/>
<path d="M668 1025C672.384 1024.66 676.625 1024.49 681 1025C683.438 1027.5 683.438 1027.5 685 1031C686.056 1032.44 687.141 1033.85 688.25 1035.25C691 1038.76 691 1038.76 691 1041C691.66 1041 692.32 1041 693 1041C694.594 1042.95 694.594 1042.95 696.5 1045.69C699.659 1050.17 702.922 1054.56 706.281 1058.89C706.738 1059.49 707.195 1060.08 707.665 1060.69C708.776 1062.13 709.888 1063.56 711 1065C711.05 1060.37 711.086 1055.75 711.11 1051.12C711.12 1049.55 711.134 1047.97 711.151 1046.4C711.175 1044.14 711.186 1041.87 711.195 1039.61C711.206 1038.91 711.216 1038.21 711.227 1037.48C711.227 1033.84 711.129 1031.04 709 1028C708.34 1027.67 707.68 1027.34 707 1027C707 1026.34 707 1025.68 707 1025C712.28 1025 717.56 1025 723 1025C721 1029 721 1029 720 1030C719.877 1031.63 719.822 1033.26 719.795 1034.89C719.775 1035.93 719.755 1036.97 719.734 1038.04C719.709 1039.74 719.709 1039.74 719.684 1041.47C719.663 1042.63 719.642 1043.78 719.621 1044.97C719.555 1048.66 719.496 1052.36 719.438 1056.06C719.394 1058.56 719.351 1061.06 719.307 1063.56C719.199 1069.71 719.098 1075.85 719 1082C712.242 1082.14 712.242 1082.14 710.066 1080.86C706.204 1076.57 702.784 1072.09 699.453 1067.38C694.697 1060.73 689.542 1054.36 684.499 1047.93C682.977 1045.97 681.484 1043.99 680 1042C679.926 1046.93 679.871 1051.86 679.835 1056.79C679.82 1058.47 679.8 1060.14 679.774 1061.82C679.737 1064.23 679.72 1066.64 679.707 1069.05C679.692 1069.8 679.676 1070.55 679.66 1071.32C679.594 1075.41 679.594 1075.41 681.518 1078.87C682.252 1079.43 682.252 1079.43 683 1080C683 1080.66 683 1081.32 683 1082C677.72 1082 672.44 1082 667 1082C667 1081.34 667 1080.68 667 1080C668 1079 669 1078 670 1077C670.903 1074.29 671.135 1072.67 671.161 1069.88C671.176 1068.65 671.176 1068.65 671.19 1067.38C671.194 1066.5 671.199 1065.61 671.203 1064.7C671.209 1063.78 671.215 1062.86 671.22 1061.92C671.23 1059.98 671.236 1058.04 671.24 1056.1C671.25 1053.14 671.281 1050.18 671.312 1047.22C671.319 1045.34 671.324 1043.45 671.328 1041.57C671.34 1040.69 671.353 1039.8 671.366 1038.89C671.348 1034.01 670.973 1031.07 668 1027C668 1026.34 668 1025.68 668 1025Z" fill="#B37877"/>
<path d="M423 1024C426.432 1025.68 428.344 1027 430.438 1030.19C431.387 1034.93 431.493 1039.65 428.825 1043.85C427.582 1045.59 426.312 1047.31 425 1049C436.011 1060.46 447.227 1071.25 461.305 1078.88C461.864 1079.25 462.424 1079.62 463 1080C463 1080.66 463 1081.32 463 1082C449.321 1082.56 449.321 1082.56 443 1079C442.031 1078.48 441.062 1077.97 440.063 1077.44C439.382 1076.96 438.702 1076.49 438 1076C438 1075.34 438 1074.68 438 1074C437.547 1074.5 437.093 1074.99 436.625 1075.5C435 1077 435 1077 433 1077C433 1077.66 433 1078.32 433 1079C428.298 1081.77 424.368 1082.49 419 1082.44C417.972 1082.47 417.972 1082.47 416.922 1082.5C410.612 1082.49 407.188 1080.01 402.688 1075.88C399.912 1071.15 399.454 1066.21 400.371 1060.82C402.11 1055.27 405.701 1051.77 410 1048C409.639 1047.5 409.278 1047.01 408.907 1046.5C405.75 1041.88 404.129 1038.77 405 1033C408.284 1025.16 415.017 1022.59 423 1024ZM415 1031C413.603 1033.15 413.603 1033.15 413 1036C414.763 1039.31 414.763 1039.31 417 1042C418.95 1041.81 418.95 1041.81 421 1041C422.84 1038.55 423.044 1037.37 422.688 1034.31C422.217 1032.06 422.217 1032.06 421 1031C419.001 1030.96 417 1030.96 415 1031ZM416 1054C416 1054.66 416 1055.32 416 1056C415.34 1056 414.68 1056 414 1056C411.424 1059.75 409.584 1062.49 409.875 1067.13C410.524 1070.46 411.232 1071.26 413.625 1074C417.596 1076.35 419.462 1076.73 424 1076C427.704 1073.97 429.654 1072.52 432 1069C429.525 1066.5 427.045 1064 424.563 1061.5C423.502 1060.43 423.502 1060.43 422.42 1059.33C421.747 1058.66 421.073 1057.98 420.379 1057.28C419.756 1056.65 419.133 1056.02 418.491 1055.38C417.216 1053.89 417.216 1053.89 416 1054Z" fill="#B47877"/>
<path d="M932 1025C935.646 1024.91 939.291 1024.86 942.938 1024.81C944.47 1024.77 944.47 1024.77 946.033 1024.74C952.428 1024.68 958.203 1025.08 964 1028C967.492 1031.58 969.152 1034.29 969.312 1039.25C969.237 1043.94 968.171 1046.42 965 1050C963.805 1050.92 962.586 1051.81 961.348 1052.67C960.72 1053.11 960.092 1053.55 959.446 1054C958.969 1054.33 958.491 1054.66 958 1055C967.637 1069.43 967.637 1069.43 981 1080C981 1080.66 981 1081.32 981 1082C979.292 1082.08 977.584 1082.14 975.875 1082.19C974.924 1082.22 973.972 1082.26 972.992 1082.29C968.236 1081.83 965.123 1080.12 961.762 1076.76C959.478 1073.86 957.215 1070.95 955 1068C954.571 1067.43 954.142 1066.87 953.701 1066.28C952.407 1064.55 951.137 1062.81 949.875 1061.06C949.109 1060 948.344 1058.94 947.555 1057.85C946 1055 946 1055 946.016 1052.72C947.325 1050.43 948.373 1050.17 950.875 1049.44C954.042 1048.5 955.888 1047.59 958 1045C959.113 1041.34 959.319 1039.68 957.688 1036.19C955.77 1033.7 954.905 1033.13 951.836 1032.68C951.024 1032.6 950.212 1032.52 949.375 1032.44C948.558 1032.35 947.74 1032.27 946.898 1032.18C946.272 1032.12 945.645 1032.06 945 1032C945.092 1038.32 945.2 1044.63 945.317 1050.95C945.356 1053.1 945.39 1055.25 945.422 1057.4C945.468 1060.49 945.526 1063.58 945.586 1066.67C945.597 1067.63 945.609 1068.59 945.621 1069.57C945.641 1070.47 945.661 1071.37 945.681 1072.3C945.694 1073.09 945.708 1073.88 945.722 1074.69C945.963 1077.53 945.963 1077.53 948 1082C942.72 1082 937.44 1082 932 1082C932.66 1080.35 933.32 1078.7 934 1077C934.297 1074.64 934.297 1074.64 934.259 1072.2C934.265 1071.27 934.271 1070.35 934.278 1069.4C934.274 1068.41 934.27 1067.42 934.266 1066.41C934.268 1064.87 934.268 1064.87 934.271 1063.3C934.273 1061.14 934.269 1058.98 934.261 1056.82C934.25 1053.51 934.261 1050.21 934.273 1046.9C934.272 1044.8 934.27 1042.7 934.266 1040.59C934.272 1039.11 934.272 1039.11 934.278 1037.6C934.241 1031.08 934.241 1031.08 932 1025Z" fill="#B37977"/>
<path d="M1045 1025C1045 1028.63 1045 1032.26 1045 1036C1042.41 1034.97 1039.83 1033.93 1037.25 1032.87C1030.27 1031 1024.51 1031.52 1018.01 1034.73C1013.31 1037.7 1010.77 1041.77 1009 1047C1008.04 1054.34 1008.94 1060.75 1013 1067C1017.57 1071.77 1022.77 1074.62 1029.37 1075.21C1033.13 1075.27 1036.37 1074.95 1040 1074C1040.05 1071.08 1040.09 1068.17 1040.12 1065.25C1040.14 1064.42 1040.16 1063.6 1040.18 1062.75C1040.18 1061.95 1040.19 1061.15 1040.2 1060.33C1040.21 1059.59 1040.22 1058.86 1040.23 1058.11C1040.08 1055.57 1040.08 1055.57 1038 1052C1042.29 1052 1046.58 1052 1051 1052C1051 1061.57 1051 1071.14 1051 1081C1044.87 1082.23 1039.04 1082.26 1032.81 1082.31C1031.63 1082.34 1030.45 1082.37 1029.23 1082.4C1020.4 1082.46 1013.01 1081.4 1006.12 1075.56C1005.42 1074.72 1004.72 1073.87 1004 1073C1003.3 1072.26 1002.6 1071.51 1001.87 1070.75C997.352 1064.12 996.101 1056.91 997 1049C998.575 1041.1 1002.68 1035.51 1008.12 1029.75C1018.97 1023.15 1032.75 1021.94 1045 1025Z" fill="#B37877"/>
<path d="M103.75 1023.81C104.491 1023.81 105.233 1023.81 105.996 1023.81C109.558 1023.84 112.523 1024.13 116 1025C116 1028.63 116 1032.26 116 1036C113.525 1035.01 113.525 1035.01 111 1034C102.929 1031.11 97.2141 1031.26 89.2697 1034.74C84.6587 1037.3 82.6102 1040.43 80.6877 1045.37C79.2616 1052.89 79.7279 1057.35 83.1252 1064.12C84.0002 1066 84.0002 1066 84.0002 1068C84.6602 1068 85.3202 1068 86.0002 1068C86.5364 1068.6 87.0727 1069.2 87.6252 1069.81C92.6024 1074.4 98.2163 1075.35 104.824 1075.2C107.264 1074.98 109.607 1074.52 112 1074C112.082 1071.6 112.141 1069.21 112.188 1066.81C112.213 1066.14 112.238 1065.47 112.264 1064.77C112.33 1060.24 111.571 1057.69 109 1054C109 1053.34 109 1052.68 109 1052C113.62 1052 118.24 1052 123 1052C123 1061.57 123 1071.14 123 1081C116.469 1082.09 110.289 1082.26 103.688 1082.31C101.91 1082.36 101.91 1082.36 100.096 1082.4C89.7715 1082.47 82.3072 1080.18 74.7307 1073.03C69.0211 1066.34 68.4025 1058.8 68.6799 1050.27C69.3618 1043.31 72.06 1037.02 77.0002 1032C85.3426 1025.74 93.499 1023.64 103.75 1023.81Z" fill="#B47877"/>
<path d="M331.562 1023.75C333.483 1023.74 333.483 1023.74 335.441 1023.73C338.769 1023.98 341.021 1024.56 344 1026C344 1029.3 344 1032.6 344 1036C339 1034 339 1034 336.625 1032.88C332.142 1031.38 328.469 1031.36 324.125 1033.25C321.915 1034.81 321.915 1034.81 321.125 1036.94C320.979 1039.34 320.972 1040.8 322 1043C323.654 1043.7 325.324 1044.36 327 1045C329.502 1046.22 331.972 1047.46 334.438 1048.75C335.08 1049.07 335.723 1049.39 336.385 1049.73C341.236 1052.27 346.818 1055.56 348.687 1061C349.69 1066.01 348.595 1070.63 346 1075C343.812 1076.5 343.812 1076.5 342 1077C342 1077.66 342 1078.32 342 1079C336.36 1082.64 331.281 1082.39 324.812 1082.25C323.317 1082.24 323.317 1082.24 321.791 1082.23C314.466 1082.16 314.466 1082.16 311 1081C310.051 1078.28 310.051 1078.28 309.312 1074.94C309.061 1073.83 308.81 1072.73 308.551 1071.59C308.369 1070.74 308.187 1069.88 308 1069C310.495 1069.99 312.974 1070.99 315.43 1072.07C321.84 1074.84 326.503 1076.1 333.375 1073.94C336.299 1072.16 336.299 1072.16 337.188 1068.62C337.353 1064.95 337.353 1064.95 335.023 1062.55C330.784 1058.97 326.121 1056.8 321.15 1054.39C315.665 1051.64 312.024 1049.07 310 1043C309.655 1037.65 309.512 1034.33 313 1030C318.581 1024.72 324.027 1023.72 331.562 1023.75Z" fill="#B47978"/>
<path d="M793 1026C793 1029.63 793 1033.26 793 1037C792.215 1036.71 791.43 1036.42 790.621 1036.13C783.364 1033.56 777.923 1031.71 770.375 1034.19C764.98 1037.08 761.91 1040.19 760 1046C759.083 1053.64 759.686 1060.5 764 1067C767.299 1070.78 771.065 1073.07 776 1074C782.694 1073.99 787.999 1072.88 794 1070C794.99 1070 795.98 1070 797 1070C796.574 1071.44 796.133 1072.88 795.687 1074.31C795.443 1075.11 795.2 1075.91 794.949 1076.74C793.905 1079.23 793.105 1080.33 791 1082C787.346 1082.67 783.645 1082.51 779.937 1082.5C778.438 1082.54 778.438 1082.54 776.908 1082.59C768.457 1082.61 762.048 1080.43 755.562 1074.94C749.063 1066.88 747.316 1059.3 748 1049C749.264 1040.35 753.082 1034 759.82 1028.51C769.407 1021.86 782.286 1022.54 793 1026Z" fill="#B37877"/>
<path d="M1078 1025C1088.23 1025 1098.46 1025 1109 1025C1109 1028.63 1109 1032.26 1109 1036C1107.68 1035.34 1106.36 1034.68 1105 1034C1100.34 1033.44 1095.69 1033.26 1091 1033C1091 1037.62 1091 1042.24 1091 1047C1095.29 1047 1099.58 1047 1104 1047C1104 1050.3 1104 1053.6 1104 1057C1099.71 1056.34 1095.42 1055.68 1091 1055C1091 1061.27 1091 1067.54 1091 1074C1093.87 1073.9 1096.73 1073.79 1099.69 1073.69C1100.58 1073.66 1101.48 1073.64 1102.4 1073.61C1107.17 1073.39 1109.94 1072.69 1114 1070C1114.99 1070.33 1115.98 1070.66 1117 1071C1115.68 1074.63 1114.36 1078.26 1113 1082C1101.45 1082 1089.9 1082 1078 1082C1078.66 1080.35 1079.32 1078.7 1080 1077C1080.3 1074.64 1080.3 1074.64 1080.26 1072.2C1080.27 1071.27 1080.27 1070.35 1080.28 1069.4C1080.27 1068.41 1080.27 1067.42 1080.27 1066.41C1080.27 1064.87 1080.27 1064.87 1080.27 1063.3C1080.27 1061.14 1080.27 1058.98 1080.26 1056.82C1080.25 1053.51 1080.26 1050.21 1080.27 1046.9C1080.27 1044.8 1080.27 1042.7 1080.27 1040.59C1080.27 1039.11 1080.27 1039.11 1080.28 1037.6C1080.27 1036.68 1080.27 1035.76 1080.26 1034.8C1080.26 1033.99 1080.26 1033.19 1080.25 1032.35C1080.05 1029.47 1080.05 1029.47 1078 1025Z" fill="#B37978"/>
<path d="M537.312 1023.81C539.225 1023.79 539.225 1023.79 541.176 1023.77C545.166 1024.01 548.225 1024.76 552 1026C552 1029.63 552 1033.26 552 1037C550.948 1036.53 549.896 1036.05 548.812 1035.56C542.317 1032.8 536.234 1032 529.375 1034.12C524.696 1036.72 522.399 1039.6 519.687 1044.25C517.666 1052.34 518.848 1059.79 523 1067C527.054 1071.86 532.076 1073.72 538.25 1074.31C542.297 1073.98 545.731 1073.02 549.57 1071.75C552.031 1070.99 554.468 1070.46 557 1070C556.408 1071.63 555.801 1073.25 555.188 1074.88C554.851 1075.78 554.515 1076.68 554.168 1077.62C553 1080 553 1080 550 1082C546.33 1082.49 542.637 1082.42 538.937 1082.44C537.938 1082.47 536.938 1082.5 535.908 1082.54C527.862 1082.59 521.131 1080.79 515.084 1075.24C509.084 1068.86 507.433 1062.22 507.5 1053.69C507.506 1052.85 507.511 1052.01 507.517 1051.14C507.738 1043.47 509.398 1037.9 514.68 1032.18C521.501 1025.9 528.207 1023.86 537.312 1023.81Z" fill="#B47877"/>
<path d="M866 1025C876.56 1025 887.12 1025 898 1025C898 1028.63 898 1032.26 898 1036C896.35 1035.34 894.7 1034.68 893 1034C890.57 1033.72 888.13 1033.51 885.688 1033.38C883.481 1033.25 881.274 1033.13 879 1033C879 1037.62 879 1042.24 879 1047C883.62 1047 888.24 1047 893 1047C893 1050.3 893 1053.6 893 1057C892.01 1056.67 891.02 1056.34 890 1056C888.108 1055.78 886.211 1055.59 884.312 1055.44C882.559 1055.29 880.806 1055.15 879 1055C879 1061.27 879 1067.54 879 1074C881.846 1073.9 884.693 1073.79 887.625 1073.69C888.51 1073.66 889.395 1073.64 890.307 1073.61C895.261 1073.38 898.618 1072.51 903 1070C903.66 1070 904.32 1070 905 1070C904.69 1071.44 904.377 1072.88 904.062 1074.31C903.888 1075.11 903.714 1075.91 903.535 1076.74C903 1079 903 1079 902 1082C890.12 1082 878.24 1082 866 1082C866 1081.34 866 1080.68 866 1080C866.73 1079.34 866.73 1079.34 867.476 1078.66C869.471 1076.49 869.38 1075.31 869.388 1072.39C869.398 1071.46 869.407 1070.53 869.417 1069.57C869.411 1068.57 869.405 1067.56 869.398 1066.53C869.401 1065.5 869.404 1064.47 869.407 1063.4C869.409 1061.22 869.404 1059.04 869.391 1056.86C869.375 1053.51 869.391 1050.17 869.41 1046.82C869.408 1044.71 869.404 1042.59 869.398 1040.47C869.405 1039.47 869.411 1038.46 869.417 1037.43C869.403 1036.03 869.403 1036.03 869.388 1034.61C869.386 1033.79 869.383 1032.97 869.381 1032.12C868.913 1029.51 867.925 1028.74 866 1027C866 1026.34 866 1025.68 866 1025Z" fill="#B37978"/>
<path d="M250.877 1024.89C252.607 1024.89 254.337 1024.89 256.066 1024.9C256.975 1024.9 257.884 1024.91 258.82 1024.91C261.734 1024.91 264.648 1024.92 267.562 1024.94C269.533 1024.94 271.504 1024.95 273.475 1024.95C278.316 1024.96 283.158 1024.98 288 1025C287.34 1028.3 286.68 1031.6 286 1035C285.01 1035 284.02 1035 283 1035C282.505 1034.5 282.505 1034.5 282 1034C280.151 1033.77 278.295 1033.59 276.438 1033.44C275.426 1033.35 274.414 1033.27 273.371 1033.18C272.589 1033.12 271.806 1033.06 271 1033C271.069 1039.21 271.157 1045.42 271.262 1051.63C271.296 1053.75 271.324 1055.86 271.346 1057.97C271.38 1061.01 271.432 1064.05 271.488 1067.08C271.495 1068.03 271.501 1068.98 271.508 1069.95C271.537 1071.27 271.537 1071.27 271.568 1072.62C271.579 1073.4 271.59 1074.17 271.601 1074.97C272.097 1077.49 273.141 1078.29 275 1080C275 1080.66 275 1081.32 275 1082C269.06 1082 263.12 1082 257 1082C257.99 1080.35 258.98 1078.7 260 1077C260.46 1074.73 260.46 1074.73 260.432 1072.39C260.452 1071.51 260.472 1070.63 260.492 1069.73C260.502 1068.32 260.502 1068.32 260.512 1066.89C260.53 1065.92 260.548 1064.95 260.566 1063.95C260.62 1060.86 260.654 1057.77 260.688 1054.69C260.721 1052.59 260.755 1050.49 260.791 1048.4C260.876 1043.26 260.943 1038.13 261 1033C259.104 1033.11 257.208 1033.24 255.312 1033.38C253.729 1033.48 253.729 1033.48 252.113 1033.59C249.093 1033.99 246.759 1034.74 244 1036C244.308 1034.35 244.621 1032.71 244.938 1031.06C245.112 1030.15 245.286 1029.23 245.465 1028.29C246.362 1024.45 246.609 1025.01 250.877 1024.89Z" fill="#B37877"/>
<path d="M192 1025C202.56 1025 213.12 1025 224 1025C224 1028.63 224 1032.26 224 1036C222.68 1035.34 221.36 1034.68 220 1034C215.339 1033.44 210.691 1033.26 206 1033C206 1037.62 206 1042.24 206 1047C210.29 1047 214.58 1047 219 1047C219 1050.3 219 1053.6 219 1057C214.71 1056.34 210.42 1055.68 206 1055C206.114 1058.75 206.241 1062.5 206.375 1066.25C206.406 1067.31 206.437 1068.38 206.469 1069.47C206.507 1070.5 206.546 1071.52 206.586 1072.58C206.617 1073.52 206.649 1074.46 206.681 1075.43C206.899 1078.35 206.899 1078.35 209 1082C203.39 1082 197.78 1082 192 1082C192.99 1080.35 193.98 1078.7 195 1077C195.445 1074.63 195.445 1074.63 195.388 1072.17C195.398 1071.23 195.407 1070.3 195.417 1069.34C195.411 1068.35 195.405 1067.36 195.398 1066.34C195.401 1065.31 195.404 1064.28 195.407 1063.22C195.409 1061.05 195.404 1058.88 195.391 1056.71C195.375 1053.38 195.391 1050.05 195.41 1046.73C195.408 1044.62 195.404 1042.51 195.398 1040.4C195.405 1039.4 195.411 1038.4 195.417 1037.38C195.407 1036.45 195.398 1035.53 195.388 1034.58C195.386 1033.76 195.383 1032.95 195.381 1032.11C194.912 1029.51 193.916 1028.74 192 1027C192 1026.34 192 1025.68 192 1025Z" fill="#B27877"/>
<path d="M148 1025C153.61 1025 159.22 1025 165 1025C164.34 1026.32 163.68 1027.64 163 1029C162.7 1031.35 162.7 1031.35 162.741 1033.89C162.735 1034.86 162.729 1035.82 162.722 1036.82C162.726 1037.86 162.73 1038.9 162.734 1039.97C162.732 1041.58 162.732 1041.58 162.729 1043.22C162.727 1045.48 162.731 1047.75 162.739 1050.02C162.75 1053.49 162.739 1056.96 162.727 1060.43C162.728 1062.63 162.73 1064.83 162.734 1067.03C162.73 1068.07 162.726 1069.11 162.722 1070.18C162.728 1071.15 162.735 1072.11 162.741 1073.11C162.743 1073.96 162.744 1074.81 162.746 1075.69C162.908 1078.39 162.908 1078.39 165 1082C159.39 1082 153.78 1082 148 1082C148.99 1080.35 149.98 1078.7 151 1077C151.445 1074.63 151.445 1074.63 151.388 1072.17C151.398 1071.23 151.407 1070.3 151.417 1069.34C151.411 1068.35 151.405 1067.36 151.398 1066.34C151.401 1065.31 151.404 1064.28 151.407 1063.22C151.409 1061.05 151.404 1058.88 151.391 1056.71C151.375 1053.38 151.391 1050.05 151.41 1046.73C151.408 1044.62 151.404 1042.51 151.398 1040.4C151.405 1039.4 151.411 1038.4 151.417 1037.38C151.407 1036.45 151.398 1035.53 151.388 1034.58C151.386 1033.76 151.383 1032.95 151.381 1032.11C150.912 1029.51 149.916 1028.74 148 1027C148 1026.34 148 1025.68 148 1025Z" fill="#B37877"/>
<path d="M822 1025C827.28 1025 832.56 1025 838 1025C837.34 1026.65 836.68 1028.3 836 1030C835.703 1032.41 835.703 1032.41 835.741 1034.91C835.735 1035.86 835.729 1036.81 835.722 1037.78C835.726 1038.79 835.73 1039.81 835.734 1040.85C835.732 1042.42 835.732 1042.42 835.729 1044.03C835.727 1046.24 835.731 1048.45 835.739 1050.67C835.75 1054.05 835.739 1057.44 835.727 1060.83C835.728 1062.98 835.73 1065.13 835.734 1067.29C835.73 1068.3 835.726 1069.31 835.722 1070.36C835.728 1071.3 835.735 1072.25 835.741 1073.22C835.743 1074.05 835.744 1074.88 835.746 1075.73C835.913 1078.4 835.913 1078.4 838 1082C832.72 1082 827.44 1082 822 1082C822.66 1080.35 823.32 1078.7 824 1077C824.297 1074.59 824.297 1074.59 824.259 1072.09C824.265 1071.14 824.271 1070.19 824.278 1069.22C824.274 1068.21 824.27 1067.19 824.266 1066.15C824.268 1065.1 824.269 1064.05 824.271 1062.97C824.273 1060.76 824.269 1058.55 824.261 1056.33C824.25 1052.95 824.261 1049.56 824.273 1046.17C824.272 1044.02 824.27 1041.87 824.266 1039.71C824.27 1038.7 824.274 1037.69 824.278 1036.64C824.272 1035.7 824.265 1034.75 824.259 1033.78C824.257 1032.95 824.256 1032.12 824.254 1031.27C824.087 1028.6 824.087 1028.6 822 1025Z" fill="#B37877"/>
<path d="M1164 1041C1168.56 1044.8 1172.85 1048.75 1177 1053C1175.58 1056.13 1173.88 1058.54 1171.62 1061.12C1171.04 1061.81 1170.45 1062.49 1169.85 1063.2C1167.99 1065.01 1166.37 1065.99 1164 1067C1159.41 1063.39 1155.68 1059.53 1152 1055C1153.59 1051.1 1156.13 1048.66 1159.12 1045.75C1160.04 1044.86 1160.95 1043.97 1161.88 1043.05C1162.58 1042.37 1163.28 1041.7 1164 1041Z" fill="#9C656C"/>
<path d="M13 1041C17.5603 1044.8 21.8509 1048.75 26 1053C24.5644 1056.19 22.7973 1058.62 20.5 1061.25C19.5873 1062.31 19.5873 1062.31 18.6562 1063.39C17 1065 17 1065 15 1065C15 1065.66 15 1066.32 15 1067C13 1066 11 1065 9 1064C9 1063.34 9 1062.68 9 1062C8.34 1062 7.68 1062 7 1062C5.49219 1060.47 5.49219 1060.47 3.875 1058.5C3.33617 1057.85 2.79734 1057.2 2.24219 1056.53C1.6273 1055.77 1.6273 1055.77 1 1055C2.58668 1051.1 5.1335 1048.66 8.125 1045.75C9.03508 1044.86 9.94516 1043.97 10.8828 1043.05C11.5815 1042.37 12.2802 1041.7 13 1041Z" fill="#AD7374"/>
<path d="M438.84 292.457C441.759 293.191 443.5 294.673 445.188 297.152C446.749 300.703 446.552 303.136 446 307C444.206 309.81 442.981 311.509 440 313C435.64 313.503 433.45 313.245 429.562 311.125C426.927 308.645 426.504 306.57 426.312 303C426.559 299.417 426.991 298.014 428.938 294.875C432.484 292.703 434.731 292.203 438.84 292.457Z" fill="#D69489"/>
<path d="M723 280C723.66 280 724.32 280 725 280C725.66 283.63 726.32 287.26 727 291C728.32 290.01 729.64 289.02 731 288C731.66 288.33 732.32 288.66 733 289C731.68 290.65 730.36 292.3 729 294C734.445 294.99 734.445 294.99 740 296C740 296.66 740 297.32 740 298C734.555 298.99 734.555 298.99 729 300C730.98 302.97 730.98 302.97 733 306C730.506 304.796 728.319 303.546 726 302C725.67 305.63 725.34 309.26 725 313C724.34 313 723.68 313 723 313C722.67 309.37 722.34 305.74 722 302C721.34 302 720.68 302 720 302C720 302.66 720 303.32 720 304C718.35 304.66 716.7 305.32 715 306C716.32 304.02 717.64 302.04 719 300C715.37 299.34 711.74 298.68 708 298C708 297.34 708 296.68 708 296C711.63 295.34 715.26 294.68 719 294C718.01 292.68 717.02 291.36 716 290C716.33 289.34 716.66 288.68 717 288C718.32 288.99 719.64 289.98 721 291C721.66 287.37 722.32 283.74 723 280Z" fill="#CD8E85"/>
</g>
<defs>
<clipPath id="clip0_17_37">
<rect width="1178" height="1082" fill="white"/>
</clipPath>
</defs>
</svg>
