<svg width="1053" height="337" viewBox="0 0 1053 337" fill="none" xmlns="http://www.w3.org/2000/svg">
<g clip-path="url(#clip0_115_134)">
<path d="M44.2337 234.312L39.1241 206.508C37.8919 199.905 36.0299 190.776 33.5107 178.962L8.9212 65.9995L0 27.8831C12.6835 28.0914 22.9465 28.1955 30.8272 28.1955C39.6444 28.1955 49.951 28.0914 61.6052 27.8831C64.3434 44.3385 66.5065 56.3554 68.1001 64.0433L80.7782 124.96C83.4126 138.068 86.3479 154.052 89.5462 172.935L94.5463 151.734L112.537 81.8904L124.963 27.8886C138.78 28.0969 150.428 28.201 160.018 28.201C170.379 28.201 181.979 28.0969 194.865 27.8886L204.399 91.5401L217.598 172.628L223.474 150.397C224.608 146.577 225.747 142.659 226.929 138.742C228.167 134.824 230.692 126.982 234.509 115.322L252.91 57.2376L261.519 27.8886C273.688 27.9927 283.737 28.0421 291.678 28.0421C300.594 28.0421 310.594 27.9927 321.684 27.8886L263.173 203.626L253.787 234.317C238.687 234.109 225.539 234.005 214.251 234.005C202.34 234.005 189.246 234.109 174.815 234.317L171.36 213.577L158.106 141.465C157.389 137.13 156.77 132.648 156.201 128.056C155.686 123.464 154.908 116.346 153.878 106.647L148.567 130.116C147.28 135.377 145.888 140.638 144.497 146.002L120.061 234.312C104.859 234.104 92.2241 233.999 82.1747 233.999C71.501 233.999 58.8725 234.104 44.2337 234.312ZM340.403 234.312C342.517 212.13 343.907 194.694 344.631 182.009C345.66 164.627 346.641 140.851 347.566 110.62C348.546 80.3451 349.011 59.0403 349.011 46.6564C349.011 42.2234 348.962 35.9327 348.858 27.8831C362.265 28.1955 372.884 28.3489 380.721 28.3489C391.701 28.3489 404.434 28.0914 419.023 27.6749C433.613 27.2146 446.137 26.9571 456.603 26.9571C469.184 26.9571 478.151 27.3187 483.467 28.0421C490.525 28.9736 496.707 30.5737 501.972 32.8861C507.279 35.2094 511.664 38.0479 515.17 41.5C519.082 45.5276 522.18 50.3772 524.389 55.9993C526.921 62.4488 528.157 69.3532 528.157 76.734C528.157 82.4605 527.431 87.929 525.995 93.1894C524.502 98.4497 522.438 103.091 519.751 107.168C517.126 111.239 514.14 114.648 510.789 117.377C507.485 120.105 504.237 122.22 501.045 123.722C497.9 125.218 493.674 126.763 488.311 128.265C493.623 129.141 497.9 130.226 501.102 131.36C504.345 132.495 507.752 134.402 511.407 136.982C515.071 139.509 518.366 142.808 521.31 146.884C524.193 150.906 526.355 155.394 527.857 160.403C529.299 165.406 530.019 170.666 530.019 176.239C530.019 183.866 528.784 191.094 526.252 197.851C523.729 204.607 520.224 210.437 515.685 215.237C511.87 219.413 506.872 222.925 500.732 225.862C494.601 228.75 488.311 230.816 481.914 231.895C476.658 232.723 467.123 233.287 453.306 233.704C439.489 234.114 424.856 234.323 409.335 234.323L369.697 234.169L340.413 234.323L340.403 234.312ZM407.939 108.346H429.231C436.242 108.346 441.181 108.193 444.177 107.831C447.112 107.469 449.998 106.85 452.78 105.924C455.568 104.998 457.994 103.497 460.053 101.381C462.112 99.2664 463.553 96.8936 464.385 94.2634C465.261 91.6276 465.672 89.0522 465.672 86.4221C465.672 82.6575 464.796 79.359 463.043 76.4106C461.291 73.4735 458.454 71.3038 454.588 69.9176C450.666 68.5201 444.686 67.8022 436.707 67.8022H409.691L407.939 108.34V108.346ZM404.33 192.842H433.147C440.77 192.842 446.334 192.376 449.944 191.499C454.379 190.365 457.731 188.924 459.999 187.061C462.315 185.258 464.122 182.781 465.508 179.63C466.85 176.535 467.523 173.033 467.523 169.214C467.523 165.86 466.954 162.923 465.869 160.397C464.785 157.866 463.142 155.75 460.924 154.046C458.706 152.347 456.022 151.109 452.824 150.336C449.626 149.564 444.631 149.202 437.829 149.202H406.181L404.324 192.842H404.33ZM680.444 114.226C694.208 114.434 707.349 114.538 719.831 114.538C741.125 114.538 757.823 114.434 769.888 114.226C768.592 127.996 767.305 147.553 765.966 172.77C764.675 198.042 763.851 217.078 763.542 229.972C751.94 232.087 742.351 233.638 734.774 234.619C727.141 235.599 718.02 236.422 707.345 237.194C696.669 237.972 687.136 238.328 678.783 238.328C665.07 238.328 651.671 237.244 638.474 235.024C625.281 232.805 613.473 229.2 603.004 224.295C592.591 219.347 583.933 212.64 576.969 204.179C570.015 195.719 564.656 185.664 560.889 174.113C557.131 162.507 555.216 150.539 555.216 138.106C555.216 117.684 560.322 98.7019 570.478 81.1618C580.634 63.6211 595.273 49.7524 614.348 39.4836C633.424 29.275 658.069 24.168 688.269 24.168C710.34 24.168 734.723 26.8475 761.525 32.212C761.525 46.8592 762.147 63.1611 763.388 81.1122C756.12 78.6846 750.293 76.8819 745.805 75.5888C741.321 74.3505 736.061 73.1669 730.085 72.1312C724.104 71.0572 718.38 70.2789 713.017 69.8132C707.607 69.2928 702.814 69.0354 698.588 69.0354C687.501 69.0354 677.037 70.635 667.134 73.7805C657.287 76.9806 648.784 81.8245 641.722 88.4275C634.603 94.9813 629.301 102.872 625.786 112.001C622.229 121.18 620.484 130.829 620.484 140.988C620.484 151.147 622.491 160.534 626.512 168.638C630.593 176.732 636.981 182.875 645.737 187.099C654.507 191.329 664.298 193.445 675.127 193.445C684.09 193.445 693.946 192.108 704.611 189.423L706.161 157.235C699.665 157.033 695.794 156.929 694.61 156.929L678.633 157.082L679.662 138.457C679.765 136.446 679.92 133.509 680.126 129.739C680.336 125.974 680.439 120.769 680.439 114.215L680.444 114.226Z" fill="#212121"/>
<path d="M43.7696 336.069L42.6469 329.976C42.3785 328.529 41.9733 326.529 41.4202 323.937L36.0313 299.174L34.0762 290.824C36.8582 290.862 39.1036 290.89 40.8341 290.89C42.7674 290.89 45.0292 290.868 47.5811 290.824C48.1782 294.429 48.649 297.065 49.0052 298.753L51.7818 312.101C52.3621 314.978 53.0028 318.479 53.7039 322.617L54.799 317.97L58.7368 302.66L61.4587 290.824C64.4871 290.868 67.0447 290.89 69.1423 290.89C71.4149 290.89 73.9561 290.862 76.7819 290.818L78.8683 304.769L81.76 322.545L83.047 317.668C83.2988 316.83 83.5511 315.975 83.808 315.115C84.0766 314.254 84.635 312.534 85.4731 309.981L89.5036 297.251L91.3985 290.818C94.0656 290.846 96.2671 290.857 98.009 290.857C99.9638 290.857 102.155 290.846 104.586 290.818L91.7603 329.346L89.7011 336.069C86.3932 336.02 83.5071 336.003 81.0318 336.003C78.4195 336.003 75.5553 336.025 72.3841 336.069L71.6283 331.521L68.7258 315.718C68.5671 314.764 68.4305 313.784 68.3041 312.775C68.1894 311.772 68.0196 310.211 67.7949 308.085L66.6287 313.23C66.3493 314.381 66.0423 315.532 65.7357 316.715L60.3799 336.069C57.0445 336.025 54.2791 336.003 52.0776 336.003C49.7334 336.003 46.968 336.02 43.7586 336.069H43.7696ZM108.693 336.074C109.97 318.32 110.616 304.676 110.61 295.098L110.577 290.824C114.444 290.868 117.018 290.89 118.316 290.89C118.918 290.89 121.289 290.868 125.435 290.824C125.03 295.794 124.712 300.501 124.466 304.95C124.148 311.137 123.924 316.918 123.786 322.304C123.655 327.685 123.584 332.277 123.584 336.074L116.821 336.009C115.495 336.009 112.784 336.031 108.693 336.08V336.074ZM131.727 336.069L132.385 329.104L133.677 305.504L134.038 295.98V290.813C137.467 290.857 140.495 290.879 143.113 290.879C144.992 290.879 147.637 290.857 151.021 290.813L165.249 316.556L167.221 320.337C167.44 316.622 167.675 311.411 167.905 304.709C168.141 298.019 168.256 293.383 168.25 290.813C170.972 290.851 173.157 290.879 174.795 290.879C175.54 290.879 177.708 290.857 181.295 290.813L180.512 300.693L179.05 328.134L178.858 336.058C175.972 336.014 173.3 335.993 170.786 335.993C168.705 335.993 165.835 336.014 162.166 336.064C161.016 333.894 160.162 332.321 159.609 331.346L154.05 321.893C152.209 318.797 150.528 315.833 148.978 313.005C147.965 311.208 146.925 309.241 145.84 307.093L145.161 322.819L144.844 336.064C142.1 336.02 140.008 335.998 138.573 335.998C137.358 335.998 135.085 336.02 131.733 336.064L131.727 336.069ZM187.319 336.074C187.736 331.932 188.042 328.518 188.207 325.795C188.552 320.978 188.897 314.386 189.275 306.008C189.548 300.172 189.669 296.057 189.669 293.673V290.824C193.355 290.862 195.885 290.89 197.276 290.89C198.19 290.89 200.578 290.868 204.406 290.824L202.851 315.586L202.057 336.074L194.883 336.003C193.875 336.003 191.356 336.025 187.325 336.069L187.319 336.074ZM203.88 312.227L211.317 302.107L217.32 293.673L219.171 290.818C223.284 290.862 226.077 290.884 227.534 290.89C227.928 290.89 230.573 290.868 235.458 290.824L221.482 308.539L218.859 312.09L221.312 315.997L235.184 336.074L227.013 336.009C225.25 336.009 222.254 336.031 218.037 336.074C215.173 330.705 210.463 322.754 203.886 312.227H203.88ZM239.199 336.074C239.625 332.184 239.965 328.677 240.212 325.57C240.458 322.452 240.677 318.83 240.858 314.726C241.049 310.616 241.181 306.282 241.274 301.712C241.362 297.147 241.411 293.514 241.411 290.824C244.165 290.89 246.394 290.922 248.092 290.928C249.85 290.928 252.013 290.868 254.543 290.774C257.09 290.676 259.549 290.621 261.953 290.616C264.779 290.616 267.287 290.73 269.5 290.955C271.154 291.103 272.66 291.432 274.013 291.92C275.371 292.407 276.51 292.994 277.435 293.684C278.361 294.385 279.139 295.164 279.752 296.024C280.376 296.878 280.847 297.887 281.198 299.054C281.537 300.21 281.701 301.449 281.701 302.775C281.701 304.254 281.504 305.646 281.137 306.934C280.765 308.227 280.179 309.443 279.363 310.578C278.563 311.717 277.545 312.704 276.318 313.531C275.091 314.359 273.372 315.203 271.17 316.063L272.884 320.277C273.372 321.444 273.892 322.644 274.445 323.861L278.87 333.581C279.078 334.003 279.423 334.83 279.927 336.069C276.28 336.025 273.826 336.003 272.572 336.003C270.979 336.003 268.377 336.025 264.752 336.069C264.401 334.913 263.761 332.776 262.835 329.658C262.462 328.359 262.15 327.34 261.871 326.639C261.356 325.071 260.562 322.863 259.533 320.025L256.121 310.627C257.32 310.857 258.481 310.967 259.631 310.967C261.236 310.967 262.698 310.726 264.007 310.244C265.316 309.75 266.313 309.01 266.992 307.992C267.654 306.983 267.999 305.92 267.999 304.791C267.999 303.854 267.747 303.021 267.238 302.309C266.734 301.597 265.924 301.06 264.845 300.714C263.749 300.364 262.068 300.183 259.796 300.183C259.029 300.183 258.224 300.194 257.397 300.232C256.57 300.26 255.611 300.298 254.505 300.32C254.21 304.841 253.963 310.37 253.733 316.885C253.509 323.394 253.361 329.795 253.295 336.069C249.615 336.02 247.216 336.003 246.11 336.003C244.834 336.003 242.517 336.025 239.187 336.074H239.199ZM280.803 336.074L283.553 331.302L300.661 299.01L302.479 295.405C303.01 294.341 303.744 292.813 304.697 290.829C308.586 290.867 311.423 290.895 313.208 290.895C316.318 290.895 319.194 290.873 321.85 290.829L326.674 304.66L336.521 331.241L338.444 336.08C334.621 336.036 332.304 336.014 331.494 336.02C329.643 336.02 326.91 336.042 323.312 336.086C322.342 332.436 320.941 328.134 319.095 323.197H302.43C300.519 327.099 298.542 331.395 296.493 336.086C292.381 336.036 289.861 336.02 288.936 336.014C287.249 336.014 284.549 336.036 280.809 336.086L280.803 336.074ZM306.428 313.548H316.713C314.15 305.756 312.748 301.46 312.501 300.671C311.056 303.914 309.818 306.572 308.805 308.649L306.433 313.542L306.428 313.548ZM342.102 336.069C342.562 331.581 342.879 327.986 343.065 325.258C343.334 321.23 343.586 315.707 343.833 308.671C344.068 301.624 344.194 296.884 344.194 294.457V290.813C350.826 290.862 357.009 290.884 362.721 290.884C368.433 290.884 374.019 290.862 379.331 290.818C378.986 295.887 378.805 299.196 378.8 300.758L375.913 300.654L373.597 300.616L371.281 300.583H364.763C364.013 300.583 361.812 300.605 358.175 300.649L357.918 308.452L362.71 308.518H368.055C369.605 308.518 371.954 308.49 375.125 308.419C374.89 312.6 374.764 315.882 374.764 318.255C371.215 318.14 368.597 318.085 366.877 318.079C363.975 318.079 360.809 318.14 357.376 318.255L357.014 330.173L356.971 334.606V336.064L349.862 335.993C349.309 335.993 346.718 336.014 342.107 336.058L342.102 336.069ZM393.619 336.069C394.709 325.329 395.361 313.504 395.58 300.588L381.461 300.922L381.62 297.257C381.708 295.29 381.773 293.142 381.823 290.813C388.094 290.857 395.405 290.879 403.745 290.884L411.927 290.851H419.884L424.189 290.813L423.986 294.051C423.904 295.794 423.839 297.229 423.806 298.358C423.773 299.492 423.762 300.347 423.756 300.922C419.035 300.693 415.137 300.583 412.069 300.583H409.753C409.413 304.484 409.162 308.09 408.981 311.405C408.734 316.156 408.554 320.753 408.422 325.219C408.285 329.685 408.22 333.302 408.214 336.064C404.6 336.02 402.267 335.998 401.21 336.003C400.273 336.003 397.727 336.02 393.614 336.069H393.619ZM443.718 336.074C444.183 331.214 444.485 327.389 444.649 324.606C444.874 320.798 445.093 315.586 445.295 308.961C445.509 302.32 445.608 297.651 445.613 294.939C445.613 293.963 445.602 292.588 445.58 290.824C448.516 290.895 450.843 290.928 452.562 290.928C454.967 290.928 457.76 290.873 460.958 290.78C464.156 290.681 466.9 290.621 469.196 290.621C471.948 290.621 473.918 290.698 475.083 290.862C476.628 291.065 477.989 291.416 479.141 291.925C480.301 292.435 481.265 293.054 482.033 293.81C482.889 294.692 483.563 295.755 484.055 296.988C484.612 298.407 484.878 299.914 484.878 301.531C484.878 302.786 484.724 303.986 484.41 305.142C484.078 306.293 483.629 307.317 483.039 308.205C482.463 309.098 481.813 309.844 481.074 310.446C480.357 311.043 479.637 311.51 478.939 311.838C478.247 312.167 477.32 312.506 476.15 312.83C477.311 313.022 478.251 313.263 478.949 313.515C479.66 313.762 480.409 314.178 481.205 314.748C482.01 315.301 482.726 316.024 483.371 316.918C484.008 317.8 484.481 318.787 484.813 319.882C485.126 320.978 485.286 322.134 485.286 323.356C485.286 325.028 485.014 326.611 484.457 328.096C483.905 329.576 483.137 330.852 482.141 331.905C481.303 332.819 480.208 333.587 478.865 334.233C477.521 334.864 476.141 335.318 474.742 335.554C473.586 335.735 471.498 335.855 468.466 335.949C465.438 336.042 462.229 336.086 458.828 336.086L450.136 336.047L443.718 336.086V336.074ZM458.521 308.462H463.193C464.726 308.462 465.816 308.43 466.468 308.348C467.108 308.265 467.743 308.134 468.353 307.931C468.966 307.729 469.495 307.4 469.945 306.94C470.398 306.473 470.712 305.953 470.895 305.378C471.086 304.802 471.175 304.238 471.171 303.663C471.171 302.835 470.979 302.112 470.595 301.465C470.211 300.819 469.589 300.342 468.746 300.04C467.886 299.734 466.577 299.58 464.825 299.575H458.904L458.521 308.462ZM457.733 326.984H464.052C465.723 326.984 466.944 326.88 467.738 326.688C468.709 326.441 469.439 326.118 469.94 325.718C470.45 325.318 470.843 324.776 471.152 324.09C471.442 323.406 471.587 322.644 471.587 321.806C471.587 321.071 471.461 320.424 471.232 319.871C470.993 319.318 470.628 318.852 470.146 318.48C469.654 318.101 469.069 317.833 468.367 317.663C467.667 317.493 466.572 317.416 465.082 317.416H458.143L457.733 326.984ZM493.63 290.824C497.065 290.868 499.494 290.89 500.907 290.89C502.672 290.89 505.021 290.868 507.965 290.824L506.968 304.923C506.781 307.569 506.617 310.057 506.523 312.386C506.425 314.704 506.369 316.309 506.364 317.192C506.364 318.88 506.491 320.277 506.734 321.411C506.973 322.534 507.417 323.488 508.063 324.271C508.704 325.061 509.593 325.647 510.735 326.041C511.877 326.436 513.066 326.644 514.311 326.644C515.373 326.644 516.365 326.496 517.287 326.216C518.022 325.981 518.668 325.647 519.244 325.219C519.754 324.825 520.208 324.375 520.577 323.839C521.041 323.203 521.448 322.414 521.808 321.466C522.159 320.572 522.421 319.422 522.604 317.997C522.8 316.55 523.067 313.258 523.381 308.123C523.676 303.75 523.896 299.745 524.036 296.117C524.172 292.588 524.284 290.824 524.396 290.824C527.728 290.824 530.363 290.824 532.282 290.824H539.007L537.43 314.375C537.411 314.819 537.397 315.175 537.397 315.46C537.304 320.063 537.028 323.307 536.55 325.192C536.073 327.088 535.287 328.737 534.177 330.129C533.073 331.521 531.463 332.77 529.338 333.894C527.214 335 524.808 335.795 522.112 336.256C519.412 336.721 516.693 336.957 513.922 336.957C511.447 336.957 509.065 336.776 506.771 336.425C504.642 336.074 502.737 335.56 501.029 334.885C499.33 334.206 497.851 333.417 496.588 332.513C495.446 331.674 494.561 330.82 493.944 329.943C493.321 329.061 492.839 328.02 492.488 326.803C492.09 325.433 491.884 323.964 491.884 322.392C491.884 321.86 491.908 321.071 491.955 319.997C491.997 318.923 492.09 317.373 492.245 315.362L492.68 310.057C492.778 308.666 492.905 306.616 493.026 303.931L493.625 290.829L493.63 290.824ZM543.963 335.39C543.683 330.699 543.346 326.94 542.976 324.129C545.461 325.225 547.684 325.987 549.626 326.403C551.578 326.831 553.281 327.05 554.737 327.044C556.684 327.044 558.219 326.759 559.361 326.195C560.503 325.636 561.078 324.808 561.078 323.701C561.078 323.329 561.027 322.967 560.91 322.627C560.793 322.271 560.591 321.893 560.273 321.455C559.964 321.027 559.52 320.562 558.944 320.058L552.664 314.616C551.194 313.383 550.164 312.49 549.589 311.937C548.414 310.802 547.487 309.756 546.828 308.781C546.172 307.805 545.695 306.824 545.395 305.816C545.087 304.808 544.942 303.745 544.942 302.616C544.942 301.273 545.176 299.953 545.653 298.66C546.121 297.372 546.842 296.161 547.801 295.032C548.751 293.909 550.005 292.939 551.587 292.122C553.155 291.3 554.83 290.742 556.627 290.451C558.42 290.144 560.264 289.996 562.173 290.002C565.917 290.002 569.984 290.429 574.393 291.29C574.449 292.818 574.528 294.21 574.617 295.476C574.706 296.742 574.926 298.961 575.254 302.144C573.204 301.328 571.337 300.769 569.643 300.446C567.962 300.133 566.507 299.969 565.285 299.969C563.554 299.969 562.108 300.287 560.966 300.934C559.824 301.58 559.244 302.364 559.244 303.317C559.244 303.756 559.337 304.189 559.515 304.605C559.683 305.027 560.02 305.52 560.502 306.085C560.999 306.643 561.64 307.257 562.44 307.942C563.236 308.605 564.495 309.613 566.217 310.934L568.604 312.819C569.32 313.394 570.087 314.085 570.911 314.896C571.725 315.723 572.436 316.523 573.036 317.318C573.644 318.123 574.098 318.841 574.421 319.51C574.739 320.167 574.982 320.83 575.137 321.51C575.296 322.184 575.371 322.907 575.371 323.679C575.371 325.669 574.898 327.554 573.948 329.356C573.003 331.165 571.646 332.644 569.9 333.8C568.15 334.962 566.226 335.767 564.134 336.228C562.047 336.694 559.847 336.929 557.531 336.929C553.95 336.929 549.416 336.409 543.954 335.368L543.963 335.39ZM582.007 336.069C583.28 318.32 583.926 304.671 583.926 295.093L583.888 290.824C587.754 290.862 590.328 290.89 591.634 290.89C592.238 290.89 594.606 290.867 598.752 290.818C598.34 295.794 598.031 300.501 597.779 304.939C597.46 311.126 597.236 316.912 597.1 322.299C596.969 327.68 596.894 332.271 596.894 336.069L590.127 336.003C588.802 336.003 586.093 336.02 581.998 336.069H582.007ZM605.037 336.074L605.697 329.104L606.984 305.509L607.345 295.986V290.818C610.775 290.862 613.803 290.884 616.419 290.884C618.296 290.884 620.945 290.862 624.333 290.818L638.556 316.562L640.521 320.337C640.746 316.627 640.97 311.416 641.204 304.709C641.443 298.013 641.555 293.377 641.555 290.813C644.279 290.857 646.465 290.879 648.103 290.879C648.847 290.879 651.014 290.857 654.603 290.813L653.817 300.693L652.357 328.14L652.165 336.064C649.277 336.014 646.605 335.998 644.092 335.998C642.019 335.998 639.145 336.014 635.471 336.069C634.32 333.899 633.473 332.321 632.921 331.351L627.356 321.899C625.522 318.797 623.837 315.838 622.283 313.005C621.272 311.208 620.233 309.246 619.148 307.093L618.469 322.819L618.151 336.058C615.408 336.009 613.321 335.987 611.88 335.993C610.658 335.993 608.393 336.014 605.037 336.058V336.074ZM660.626 336.069C661.179 330.376 661.576 325.597 661.834 321.74C662.087 317.899 662.344 312.791 662.597 306.413C662.854 300.046 662.976 295.816 662.976 293.734L662.948 290.818C668.161 290.862 674.46 290.884 681.855 290.884C688.664 290.884 694.678 290.862 699.887 290.818L699.821 291.92C699.798 292.177 699.737 293.136 699.658 294.802L699.456 298.407C699.41 299.175 699.386 299.958 699.381 300.758C695.137 300.578 691.561 300.49 688.669 300.484C685.496 300.484 683.348 300.495 682.243 300.506C681.12 300.512 679.393 300.561 677.03 300.654L676.646 308.249C679.257 308.32 682.285 308.353 685.739 308.353C686.989 308.353 690.274 308.276 695.609 308.118C695.385 310.945 695.184 314.315 694.978 318.227C691.159 318.178 688.22 318.162 686.16 318.162C683.114 318.162 679.702 318.227 675.921 318.364L675.504 326.441H679.314C680.442 326.441 682.768 326.408 686.296 326.337L693.157 326.167C694.173 326.145 695.867 326.052 698.254 325.899C697.996 329.176 697.767 332.568 697.584 336.074C692.207 336.025 686.31 336.009 679.894 336.009L665.325 336.042L660.622 336.074L660.626 336.069ZM704.96 335.39C704.675 330.699 704.338 326.94 703.968 324.129C706.453 325.225 708.676 325.987 710.623 326.403C712.57 326.831 714.273 327.05 715.729 327.044C717.676 327.044 719.215 326.759 720.348 326.195C721.49 325.636 722.065 324.808 722.065 323.701C722.065 323.329 722.014 322.967 721.897 322.627C721.78 322.271 721.579 321.893 721.26 321.455C720.942 321.027 720.502 320.562 719.931 320.058L713.641 314.616C712.177 313.383 711.147 312.49 710.567 311.937C709.387 310.802 708.461 309.756 707.81 308.781C707.155 307.805 706.678 306.824 706.378 305.816C706.069 304.808 705.924 303.745 705.924 302.616C705.924 301.273 706.158 299.953 706.635 298.66C707.103 297.372 707.815 296.161 708.774 295.032C709.729 293.909 710.983 292.939 712.565 292.122C714.133 291.3 715.808 290.742 717.596 290.451C719.393 290.144 721.242 289.996 723.151 289.996C726.891 289.996 730.953 290.424 735.371 291.284C735.422 292.813 735.506 294.205 735.595 295.47C735.68 296.736 735.9 298.955 736.236 302.139C734.187 301.323 732.319 300.764 730.625 300.44C728.945 300.128 727.49 299.964 726.268 299.964C724.537 299.964 723.09 300.282 721.948 300.928C720.807 301.575 720.226 302.358 720.226 303.312C720.226 303.75 720.315 304.183 720.493 304.6C720.666 305.021 721.003 305.514 721.485 306.079C721.972 306.638 722.618 307.252 723.418 307.936C724.218 308.6 725.477 309.608 727.195 310.928L729.586 312.813C730.302 313.389 731.065 314.079 731.893 314.89C732.708 315.718 733.414 316.518 734.018 317.312C734.627 318.118 735.071 318.836 735.403 319.504C735.722 320.161 735.965 320.825 736.119 321.504C736.274 322.178 736.354 322.902 736.354 323.674C736.354 325.663 735.876 327.548 734.931 329.351C733.976 331.159 732.624 332.639 730.883 333.795C729.132 334.957 727.209 335.762 725.117 336.222C723.025 336.688 720.83 336.924 718.509 336.924C714.924 336.924 710.389 336.403 704.932 335.362L704.96 335.39ZM742.433 335.395C742.147 330.705 741.815 326.946 741.441 324.134C743.93 325.23 746.153 325.992 748.096 326.408C750.047 326.836 751.751 327.05 753.206 327.05C755.148 327.05 756.683 326.765 757.83 326.2C758.967 325.641 759.548 324.808 759.548 323.701C759.548 323.329 759.491 322.967 759.379 322.633C759.257 322.277 759.061 321.899 758.743 321.46C758.424 321.033 757.98 320.567 757.414 320.063L751.128 314.627C749.663 313.389 748.634 312.501 748.054 311.948C746.874 310.813 745.947 309.767 745.297 308.791C744.642 307.816 744.164 306.83 743.865 305.827C743.556 304.824 743.406 303.761 743.406 302.632C743.406 301.284 743.645 299.969 744.122 298.676C744.586 297.388 745.302 296.177 746.261 295.049C747.216 293.925 748.47 292.955 750.052 292.144C751.62 291.322 753.295 290.764 755.083 290.467C756.88 290.161 758.729 290.018 760.638 290.013C764.377 290.013 768.44 290.446 772.858 291.306C772.909 292.835 772.993 294.227 773.082 295.487C773.166 296.753 773.386 298.977 773.714 302.161C771.669 301.345 769.801 300.78 768.107 300.462C766.427 300.145 764.972 299.986 763.75 299.986C762.019 299.986 760.573 300.303 759.431 300.95C758.293 301.597 757.713 302.38 757.713 303.334C757.713 303.772 757.802 304.205 757.98 304.622C758.153 305.043 758.49 305.536 758.972 306.101C759.459 306.66 760.105 307.274 760.905 307.953C761.705 308.622 762.964 309.624 764.682 310.95L767.073 312.841C767.789 313.416 768.552 314.101 769.38 314.918C770.195 315.74 770.901 316.545 771.505 317.339C772.109 318.14 772.558 318.868 772.89 319.537C773.204 320.189 773.452 320.857 773.606 321.537C773.761 322.216 773.84 322.94 773.84 323.707C773.84 325.696 773.363 327.581 772.418 329.384C771.463 331.192 770.11 332.672 768.369 333.828C766.619 334.99 764.696 335.795 762.604 336.261C760.512 336.726 758.317 336.957 755.995 336.962C752.411 336.962 747.876 336.442 742.419 335.401L742.433 335.395ZM823.851 309.75C826.865 309.8 829.752 309.816 832.49 309.821C837.151 309.821 840.816 309.799 843.46 309.756C843.175 312.775 842.894 317.06 842.604 322.589C842.318 328.129 842.14 332.299 842.065 335.127C839.519 335.587 837.418 335.932 835.766 336.146C834.091 336.359 832.088 336.54 829.752 336.71C827.408 336.88 825.316 336.957 823.49 336.962C820.486 336.962 817.542 336.726 814.659 336.234C811.762 335.751 809.174 334.957 806.881 333.883C804.597 332.797 802.697 331.329 801.176 329.477C799.646 327.625 798.471 325.417 797.647 322.89C796.819 320.343 796.398 317.723 796.403 315C796.403 310.523 797.521 306.358 799.744 302.517C801.967 298.67 805.182 295.629 809.366 293.377C813.545 291.136 818.946 290.024 825.573 290.024C830.412 290.024 835.752 290.61 841.63 291.788C841.63 294.999 841.766 298.572 842.042 302.506C840.441 301.98 839.168 301.58 838.186 301.301C837.198 301.027 836.047 300.764 834.741 300.539C833.426 300.303 832.176 300.133 831.002 300.03C829.813 299.914 828.76 299.86 827.833 299.86C825.409 299.86 823.111 300.21 820.94 300.895C818.782 301.597 816.92 302.66 815.371 304.106C813.812 305.536 812.647 307.268 811.879 309.273C811.102 311.29 810.719 313.405 810.719 315.63C810.719 317.855 811.159 319.915 812.038 321.69C812.932 323.466 814.336 324.814 816.255 325.74C818.179 326.666 820.327 327.126 822.699 327.126C824.665 327.126 826.823 326.841 829.158 326.25L829.504 319.192C828.077 319.148 827.23 319.121 826.968 319.126L823.472 319.159L823.687 315.077C823.715 314.638 823.748 313.991 823.795 313.164C823.841 312.337 823.865 311.197 823.865 309.761L823.851 309.75ZM850.129 336.074C850.555 332.184 850.896 328.677 851.14 325.57C851.393 322.452 851.603 318.836 851.79 314.726C851.982 310.611 852.113 306.282 852.207 301.712C852.291 297.147 852.343 293.514 852.343 290.824C855.104 290.895 857.327 290.928 859.021 290.928C860.781 290.928 862.938 290.873 865.475 290.78C868.016 290.681 870.478 290.626 872.883 290.626C875.71 290.626 878.218 290.742 880.437 290.961C882.084 291.114 883.591 291.438 884.944 291.925C886.301 292.413 887.443 292.999 888.365 293.69C889.296 294.391 890.068 295.169 890.681 296.03C891.308 296.884 891.781 297.893 892.127 299.06C892.469 300.21 892.637 301.449 892.633 302.775C892.633 304.254 892.441 305.646 892.066 306.94C891.697 308.227 891.112 309.449 890.293 310.578C889.492 311.717 888.477 312.704 887.255 313.531C886.02 314.359 884.307 315.203 882.103 316.063L883.82 320.277C884.307 321.444 884.826 322.644 885.383 323.861L889.806 333.587C890.017 334.003 890.358 334.83 890.868 336.074C887.223 336.025 884.766 336.009 883.507 336.003C881.916 336.003 879.318 336.025 875.691 336.069C875.345 334.918 874.694 332.776 873.772 329.658C873.398 328.359 873.084 327.345 872.808 326.644C872.293 325.071 871.498 322.868 870.468 320.025L867.057 310.627C868.255 310.857 869.415 310.972 870.567 310.972C872.176 310.972 873.632 310.731 874.942 310.249C876.253 309.761 877.25 309.016 877.928 307.992C878.593 306.989 878.934 305.925 878.934 304.791C878.934 303.854 878.682 303.021 878.181 302.309C877.671 301.602 876.866 301.065 875.78 300.714C874.685 300.364 873.005 300.188 870.73 300.188C869.963 300.188 869.158 300.199 868.334 300.238C867.506 300.271 866.546 300.303 865.442 300.325C865.147 304.852 864.899 310.375 864.674 316.89C864.445 323.4 864.295 329.8 864.23 336.074C860.551 336.031 858.151 336.009 857.046 336.009C855.768 336.009 853.452 336.031 850.12 336.074H850.129ZM925.042 290.007C928.57 290.007 931.963 290.484 935.235 291.432C938.511 292.38 941.366 293.898 943.809 295.991C946.266 298.073 948.091 300.479 949.307 303.191C950.524 305.904 951.128 309.038 951.133 312.561C951.133 316.282 950.468 319.685 949.134 322.786C947.796 325.899 945.868 328.534 943.35 330.688C940.841 332.858 937.837 334.442 934.341 335.45C930.859 336.458 927.223 336.951 923.451 336.951C919.721 336.951 916.136 336.463 912.719 335.477C909.298 334.496 906.331 332.902 903.799 330.71C901.263 328.507 899.466 326.063 898.417 323.367C897.355 320.666 896.821 317.679 896.821 314.392C896.821 309.553 897.944 305.306 900.177 301.652C902.437 297.997 905.746 295.136 910.155 293.081C914.554 291.037 919.515 290.002 925.042 290.002V290.007ZM924.438 299.98C921.892 299.98 919.594 300.605 917.535 301.86C915.476 303.103 913.899 304.841 912.789 307.06C911.685 309.285 911.128 311.674 911.128 314.205C911.128 316.556 911.634 318.693 912.64 320.633C913.646 322.595 915.172 324.107 917.24 325.203C919.29 326.299 921.471 326.847 923.764 326.847C926.23 326.847 928.477 326.233 930.531 325.006C932.572 323.784 934.144 322.052 935.216 319.833C936.292 317.608 936.826 315.279 936.826 312.846C936.826 310.485 936.33 308.298 935.333 306.298C934.336 304.298 932.867 302.736 930.948 301.64C929.024 300.534 926.853 299.98 924.438 299.98ZM958.377 290.824C961.812 290.868 964.241 290.89 965.655 290.89C967.419 290.89 969.768 290.868 972.707 290.824L971.72 304.923C971.528 307.569 971.364 310.057 971.275 312.386C971.177 314.704 971.121 316.309 971.121 317.192C971.121 318.88 971.243 320.277 971.495 321.411C971.729 322.534 972.174 323.493 972.82 324.277C973.461 325.066 974.35 325.652 975.497 326.052C976.643 326.447 977.823 326.655 979.068 326.649C980.13 326.649 981.122 326.501 982.053 326.222C982.788 325.987 983.434 325.658 984.01 325.225C984.51 324.836 984.964 324.381 985.339 323.844C985.797 323.208 986.205 322.419 986.565 321.471C986.921 320.573 987.183 319.427 987.361 318.003C987.553 316.55 987.824 313.268 988.142 308.128C988.437 303.756 988.652 299.75 988.793 296.123C988.933 292.599 989.041 290.829 989.153 290.829C992.49 290.829 995.12 290.829 997.044 290.829H1003.77L1002.19 314.381C1002.17 314.819 1002.16 315.181 1002.15 315.466C1002.07 320.068 1001.78 323.313 1001.31 325.203C1000.83 327.094 1000.04 328.748 998.93 330.135C997.825 331.526 996.215 332.776 994.09 333.899C991.966 335.006 989.56 335.801 986.874 336.261C984.174 336.726 981.45 336.962 978.679 336.962C976.203 336.962 973.821 336.782 971.528 336.431C969.403 336.08 967.489 335.565 965.781 334.891C964.082 334.211 962.603 333.422 961.34 332.518C960.203 331.68 959.318 330.825 958.696 329.948C958.069 329.066 957.591 328.025 957.24 326.809C956.842 325.439 956.641 323.97 956.636 322.397C956.636 321.866 956.66 321.077 956.707 320.003C956.749 318.929 956.842 317.378 956.997 315.367L957.432 310.068C957.53 308.676 957.657 306.627 957.778 303.936L958.377 290.835V290.824Z" fill="#212121"/>
<path d="M1009.28 336.071L1009.95 327.577L1010.83 311.001L1011.19 299.281C1011.21 298.015 1011.22 296.76 1011.22 295.494C1011.22 294.541 1011.21 292.996 1011.19 290.82C1014.11 290.886 1016.45 290.924 1018.21 290.924C1019.9 290.924 1022.23 290.864 1025.18 290.776C1028.14 290.678 1030.64 290.617 1032.7 290.617C1035.64 290.617 1037.83 290.809 1039.25 291.182C1040.68 291.555 1041.97 292.152 1043.11 292.957C1044.26 293.774 1045.21 294.711 1045.96 295.796C1046.71 296.88 1047.28 298.114 1047.65 299.494C1048.02 300.875 1048.21 302.284 1048.21 303.719C1048.21 306.684 1047.5 309.396 1046.07 311.851C1044.63 314.306 1042.62 316.136 1040.02 317.353C1037.43 318.569 1034.5 319.177 1031.26 319.177C1030.07 319.177 1028.68 319.04 1027.13 318.772C1026.96 317.764 1026.62 316.262 1026.15 314.262C1025.66 312.257 1025.27 310.777 1024.96 309.813C1025.93 309.993 1026.94 310.081 1027.99 310.081C1030.21 310.081 1031.87 309.538 1032.96 308.47C1034.05 307.396 1034.59 306.081 1034.59 304.53C1034.59 303.774 1034.46 303.105 1034.23 302.519C1033.98 301.938 1033.6 301.462 1033.07 301.072C1032.55 300.7 1031.96 300.464 1031.31 300.349C1030.68 300.24 1029.94 300.179 1029.13 300.179C1028.34 300.179 1027.52 300.201 1026.66 300.245L1023.88 300.437C1023.6 304.7 1023.38 309.445 1023.22 314.662C1022.96 324.158 1022.81 329.862 1022.81 331.759V336.066L1016.21 335.994C1015.28 335.994 1012.98 336.016 1009.3 336.066L1009.28 336.071Z" fill="#212121"/>
<path fill-rule="evenodd" clip-rule="evenodd" d="M845.408 0H1043.51C1047.9 0 1051.49 3.58916 1051.49 7.97832V206.193C1051.49 210.582 1047.9 214.171 1043.51 214.171H936.083C931.697 214.171 928.113 210.582 928.113 206.193V131.418C928.113 127.029 924.523 123.44 920.138 123.44H917.849V123.292H845.408C841.022 123.292 837.438 119.703 837.438 115.313V7.97832C837.438 3.58916 841.022 0 845.408 0Z" fill="#D83248"/>
<path fill-rule="evenodd" clip-rule="evenodd" d="M821.408 147.219H896.139C900.524 147.219 904.113 150.813 904.113 155.197V229.972C904.113 234.361 900.524 237.95 896.139 237.95H821.408C817.018 237.95 813.434 234.361 813.434 229.972V155.197C813.434 150.808 817.018 147.219 821.408 147.219Z" fill="#212121"/>
</g>
<defs>
<clipPath id="clip0_115_134">
<rect width="1053" height="336.96" fill="white"/>
</clipPath>
</defs>
</svg>
