<svg width="65" height="73" viewBox="0 0 65 73" fill="none" xmlns="http://www.w3.org/2000/svg">
<path d="M0.675149 56.6859C0.583995 50.3021 0.350476 37.7269 0.276733 31.344C7.55472 25.1733 21.9673 12.932 29.2637 6.78779L29.9141 6.23779L30.5952 6.78882C38.2142 12.9914 53.0088 24.8937 60.6688 31.0378C60.7119 34.3521 60.7405 38.1796 60.7293 41.496C60.7191 47.8265 60.6094 54.6037 60.4558 60.9384C60.3544 63.7652 60.3053 67.8631 60.1782 70.6591L60.1455 71.7161L59.1541 71.6844C52.9935 71.4764 46.835 71.2193 40.6836 70.8117V70.5086C43.7603 70.2965 46.839 70.1439 49.9188 69.9985C52.9965 69.8592 56.0753 69.7343 59.1541 69.6359L58.1299 70.6602C57.9158 64.4104 57.756 57.4838 57.6618 51.2177C57.5645 44.8134 57.545 38.1848 57.629 31.7752L58.182 32.95L43.7449 20.6483L29.2637 8.39989H30.5952C23.2864 14.3116 8.50825 26.136 1.17496 32.0149L1.37365 31.5939C1.30606 37.8488 1.07561 50.4331 0.979335 56.6869H0.676174L0.675149 56.6859Z" fill="#5E5E5E"/>
<path d="M14.5948 30.1058C12.5045 30.1058 10.5779 30.8187 9.05595 32.0119V46.2155C10.5851 47.4087 12.5106 48.1215 14.5948 48.1215C17.0836 48.1215 19.3317 47.1137 20.9633 45.4822C21.711 44.7345 22.3275 43.8578 22.7803 42.8837H23.5413C23.0475 44.0493 22.3419 45.0981 21.457 45.9758C19.7025 47.7303 17.2752 48.821 14.5948 48.821C11.9145 48.821 9.48819 47.7375 7.73268 45.9758C5.97822 44.2213 4.88745 41.794 4.88745 39.1136C4.88745 36.4334 5.97104 34.007 7.73268 32.2515C9.48714 30.497 11.9145 29.4062 14.5948 29.4062C17.2752 29.4062 19.7015 30.4899 21.457 32.2515C22.3347 33.1293 23.0475 34.178 23.5413 35.3436H22.7803C22.3347 34.3706 21.711 33.4928 20.9633 32.7391C19.3317 31.1075 17.0836 30.0996 14.5948 30.0996V30.1068V30.1058Z" fill="#5E5E5E"/>
<path d="M29.2001 48.0939V30.1335H35.0166C37.4828 30.1335 39.7279 31.1414 41.3564 32.7709C42.9859 34.4003 43.9937 36.6444 43.9937 39.1107C43.9937 41.577 42.9859 43.822 41.3564 45.4505C39.7269 47.08 37.4828 48.0879 35.0166 48.0879H29.2001V48.0939ZM25.3204 48.814H35.0176C40.3506 48.814 44.7148 44.4499 44.7148 39.1168C44.7148 33.7838 40.3506 29.4197 35.0176 29.4197H25.3204V48.8202V48.814Z" fill="#5E5E5E"/>
<path d="M50.6205 29.4136H49.8206V48.8141H50.6205V29.4136Z" fill="#5E5E5E"/>
<path d="M16.8046 60.0351H15.9464V56.6953H12.1578V60.0351H11.2996V52.7131H12.1578V55.925H15.9464V52.7131H16.8046V60.0351Z" fill="#5E5E5E"/>
<path d="M23.1188 60.1579C22.0803 60.1579 21.2486 59.8158 20.6249 59.1316C20.0001 58.4475 19.6877 57.5574 19.6877 56.4616C19.6877 55.2837 20.0062 54.3446 20.6423 53.6429C21.2783 52.9414 22.1448 52.5911 23.2418 52.5911C24.2526 52.5911 25.0668 52.9311 25.6855 53.6122C26.3031 54.2933 26.6124 55.1833 26.6124 56.2824C26.6124 57.4776 26.2959 58.4219 25.6629 59.1163C25.03 59.8107 24.182 60.1579 23.1198 60.1579H23.1188ZM23.1803 53.3664C22.4111 53.3664 21.7864 53.644 21.306 54.1991C20.8256 54.7542 20.586 55.4824 20.586 56.3848C20.586 57.2871 20.8194 58.0132 21.2886 58.5622C21.7566 59.1122 22.3671 59.3867 23.1188 59.3867C23.9218 59.3867 24.5558 59.1244 25.0187 58.6001C25.4816 58.0757 25.7132 57.3424 25.7132 56.3991C25.7132 55.4558 25.4888 54.6856 25.0392 54.1571C24.5895 53.6297 23.9699 53.3654 23.1803 53.3654V53.3664Z" fill="#5E5E5E"/>
<path d="M36.9598 60.0351H36.1066V55.1231C36.1066 54.7349 36.1302 54.2597 36.1783 53.6984H36.1578C36.0759 54.0282 36.0032 54.2648 35.9386 54.4081L33.4365 60.0351H33.0176L30.5206 54.4492C30.4489 54.2853 30.3762 54.0354 30.3014 53.6984H30.281C30.3086 53.9913 30.3219 54.4696 30.3219 55.1333V60.0351H29.4944V52.7131H30.6282L32.8753 57.8198C33.0494 58.2111 33.161 58.504 33.2122 58.6975H33.2429C33.3894 58.2961 33.5072 57.996 33.5953 57.7993L35.8885 52.7131H36.9608V60.0351H36.9598Z" fill="#5E5E5E"/>
<path d="M44.2092 60.0351H40.3285V52.7131H44.0453V53.4894H41.1857V55.925H43.8312V56.6962H41.1857V59.2599H44.2081V60.0362L44.2092 60.0351Z" fill="#5E5E5E"/>
<path d="M11.2153 65.5629C11.2706 65.6069 11.3311 65.6459 11.3955 65.6807C11.4601 65.7155 11.5276 65.7442 11.5963 65.7697C11.6649 65.7943 11.7346 65.8128 11.8042 65.8251C11.8738 65.8374 11.9404 65.8435 12.0029 65.8435C12.4382 65.8435 12.6564 65.6797 12.6564 65.354C12.6564 65.2791 12.641 65.2147 12.6102 65.1604C12.5795 65.1061 12.5355 65.0559 12.4781 65.0108C12.4208 64.9657 12.3522 64.9248 12.2722 64.8859C12.1924 64.8479 12.1012 64.8081 11.9999 64.7661C11.8647 64.7107 11.7478 64.6544 11.6506 64.5971C11.5533 64.5397 11.4734 64.4772 11.4098 64.4096C11.3474 64.342 11.3003 64.2673 11.2696 64.1864C11.2388 64.1055 11.2235 64.0132 11.2235 63.9098C11.2235 63.7797 11.2511 63.665 11.3074 63.5637C11.3638 63.4622 11.4396 63.3762 11.5348 63.3055C11.6301 63.2349 11.7407 63.1806 11.8656 63.1437C11.9906 63.1068 12.1217 63.0884 12.2599 63.0884C12.514 63.0884 12.7352 63.1365 12.9247 63.2318V63.6189C12.7055 63.4776 12.4689 63.407 12.2149 63.407C12.1227 63.407 12.0397 63.4182 11.964 63.4417C11.8882 63.4642 11.8247 63.4971 11.7704 63.5391C11.7171 63.5811 11.6751 63.6312 11.6454 63.6896C11.6157 63.748 11.6014 63.8125 11.6014 63.8832C11.6014 63.9538 11.6127 64.0194 11.6352 64.0737C11.6577 64.1279 11.6936 64.1771 11.7428 64.2211C11.7919 64.2652 11.8544 64.3072 11.9322 64.3472C12.01 64.3871 12.1032 64.4301 12.2139 64.4762C12.3552 64.5336 12.4771 64.5899 12.5806 64.6462C12.684 64.7026 12.769 64.764 12.8355 64.8295C12.9021 64.8951 12.9524 64.9688 12.9841 65.0497C13.0168 65.1306 13.0333 65.2249 13.0333 65.3314C13.0333 65.4625 13.0056 65.5802 12.9513 65.6837C12.897 65.7872 12.8212 65.8732 12.725 65.9439C12.6287 66.0145 12.515 66.0678 12.386 66.1046C12.2559 66.1405 12.1146 66.1589 11.9619 66.1589C11.6659 66.1589 11.4171 66.0975 11.2142 65.9725V65.5629H11.2153Z" fill="#5E5E5E"/>
<path d="M15.0234 66.0554C14.8974 66.1179 14.7601 66.1497 14.6106 66.1497C14.1374 66.1497 13.9008 65.8772 13.9008 65.3302V63.4775H13.3856V63.1569H13.9008V62.4184L14.2675 62.2986V63.1579H15.0234V63.4785H14.2675V65.2739C14.2675 65.4726 14.3003 65.616 14.3647 65.7041C14.4293 65.7922 14.5399 65.8352 14.6946 65.8352C14.8093 65.8352 14.9189 65.8003 15.0244 65.7317V66.0554H15.0234Z" fill="#5E5E5E"/>
<path d="M17.5472 66.0903V65.5925H17.536C17.3373 65.9705 17.029 66.1589 16.6111 66.1589C15.9147 66.1589 15.5654 65.7339 15.5654 64.8818V63.158H15.9321V64.8132C15.9321 65.1644 15.9946 65.4235 16.1195 65.5915C16.2445 65.7595 16.436 65.8435 16.6941 65.8435C16.8201 65.8435 16.9348 65.8189 17.0393 65.7697C17.1427 65.7216 17.2329 65.653 17.3086 65.5639C17.3844 65.4748 17.4428 65.3683 17.4848 65.2444C17.5268 65.1204 17.5483 64.9831 17.5483 64.8326V63.157H17.9149V66.0893H17.5483L17.5472 66.0903Z" fill="#5E5E5E"/>
<path d="M20.9147 66.0903V65.5751H20.9034C20.8062 65.7604 20.6669 65.9039 20.4866 66.0063C20.3063 66.1087 20.1015 66.1599 19.8721 66.1599C19.6887 66.1599 19.5218 66.1261 19.3722 66.0586C19.2227 65.9909 19.0937 65.8926 18.9871 65.7646C18.8806 65.6366 18.7977 65.4819 18.7393 65.3006C18.6809 65.1193 18.6522 64.9145 18.6522 64.685C18.6522 64.4557 18.684 64.2324 18.7485 64.0367C18.812 63.8411 18.9032 63.6732 19.021 63.5329C19.1388 63.3925 19.2801 63.2839 19.445 63.2061C19.6099 63.1283 19.7942 63.0903 19.996 63.0903C20.4179 63.0903 20.7201 63.2593 20.9034 63.5973H20.9147V61.7507H21.2814V66.0923H20.9147V66.0903ZM20.9147 64.3204C20.9147 64.1925 20.8932 64.0736 20.8491 63.962C20.8051 63.8514 20.7447 63.7551 20.6658 63.6721C20.5869 63.5902 20.4937 63.5246 20.3842 63.4775C20.2746 63.4305 20.1537 63.4059 20.0216 63.4059C19.8762 63.4059 19.743 63.4345 19.6201 63.4919C19.4983 63.5492 19.3937 63.6322 19.3067 63.7397C19.2197 63.8472 19.152 63.9794 19.1029 64.134C19.0537 64.2887 19.0302 64.4639 19.0302 64.6605C19.0302 64.8459 19.0517 65.0118 19.0957 65.1582C19.1398 65.3057 19.2023 65.4296 19.2832 65.5311C19.3641 65.6325 19.4614 65.7093 19.574 65.7636C19.6867 65.8168 19.8117 65.8434 19.9489 65.8434C20.0974 65.8434 20.2315 65.8168 20.3514 65.7636C20.4702 65.7103 20.5716 65.6366 20.6546 65.5423C20.7375 65.4491 20.8021 65.3395 20.8461 65.2136C20.8911 65.0876 20.9137 64.9534 20.9137 64.81V64.3204H20.9147Z" fill="#5E5E5E"/>
<path d="M22.4071 62.4153C22.3364 62.4153 22.275 62.3908 22.2238 62.3405C22.1726 62.2913 22.147 62.2279 22.147 62.1521C22.147 62.0763 22.1726 62.0159 22.2238 61.9677C22.275 61.9186 22.3364 61.895 22.4071 61.895C22.443 61.895 22.4779 61.9012 22.5106 61.9135C22.5434 61.9258 22.5711 61.9432 22.5956 61.9667C22.6192 61.9893 22.6386 62.0169 22.6529 62.0486C22.6673 62.0804 22.6744 62.1152 22.6744 62.1532C22.6744 62.189 22.6673 62.2238 22.654 62.2566C22.6407 62.2893 22.6212 62.317 22.5966 62.3416C22.572 62.3662 22.5434 62.3836 22.5116 62.3969C22.4799 62.4102 22.445 62.4174 22.4071 62.4174V62.4153ZM22.2259 66.0902V63.1579H22.5926V66.0902H22.2259Z" fill="#5E5E5E"/>
<path d="M24.7371 66.1591C24.52 66.1591 24.3243 66.1233 24.1512 66.0505C23.9782 65.9778 23.8306 65.8754 23.7088 65.7423C23.5869 65.6101 23.4927 65.4503 23.4281 65.265C23.3636 65.0796 23.3308 64.8747 23.3308 64.6494C23.3308 64.4057 23.3646 64.1865 23.4343 63.994C23.5029 63.8014 23.6013 63.6375 23.7283 63.5034C23.8552 63.3692 24.0079 63.2657 24.1881 63.1951C24.3673 63.1244 24.5681 63.0896 24.7893 63.0896C25.0105 63.0896 25.1918 63.1244 25.3618 63.194C25.5319 63.2637 25.6763 63.3641 25.794 63.4962C25.9129 63.6283 26.003 63.7881 26.0665 63.9776C26.13 64.1661 26.1607 64.3811 26.1607 64.6218C26.1607 64.8625 26.1279 65.0591 26.0624 65.2476C25.9969 65.436 25.9026 65.5979 25.7808 65.7331C25.6589 65.8683 25.5094 65.9738 25.3342 66.0485C25.1591 66.1233 24.9604 66.1602 24.7381 66.1602L24.7371 66.1591ZM24.7657 63.4071C24.605 63.4071 24.4606 63.4347 24.3305 63.4901C24.2004 63.5453 24.0898 63.6263 23.9966 63.7318C23.9044 63.8373 23.8327 63.9674 23.7835 64.121C23.7344 64.2746 23.7088 64.4487 23.7088 64.6433C23.7088 64.8266 23.7334 64.9916 23.7835 65.139C23.8338 65.2865 23.9033 65.4125 23.9945 65.5169C24.0846 65.6224 24.1953 65.7023 24.3253 65.7586C24.4554 65.815 24.5998 65.8437 24.7606 65.8437C24.9215 65.8437 25.0699 65.816 25.1959 65.7617C25.3219 65.7074 25.4284 65.6286 25.5165 65.5241C25.6046 65.4197 25.6712 65.2927 25.7152 65.1421C25.7602 64.9916 25.7828 64.8195 25.7828 64.6269C25.7828 64.2316 25.6947 63.9294 25.5196 63.7205C25.3444 63.5116 25.0925 63.4071 24.7668 63.4071H24.7657Z" fill="#5E5E5E"/>
<path d="M30.5626 66.0903V65.5751H30.5514C30.454 65.7604 30.3148 65.9039 30.1345 66.0063C29.9542 66.1087 29.7494 66.1599 29.52 66.1599C29.3367 66.1599 29.1698 66.1261 29.0202 66.0586C28.8707 65.9909 28.7416 65.8926 28.6351 65.7646C28.5286 65.6366 28.4456 65.4819 28.3872 65.3006C28.3289 65.1193 28.3002 64.9145 28.3002 64.685C28.3002 64.4557 28.332 64.2324 28.3964 64.0367C28.4599 63.8411 28.5511 63.6732 28.6689 63.5329C28.7867 63.3925 28.928 63.2839 29.0929 63.2061C29.2578 63.1283 29.4422 63.0903 29.6439 63.0903C30.0659 63.0903 30.368 63.2593 30.5514 63.5973H30.5626V61.7507H30.9293V66.0923H30.5626V66.0903ZM30.5626 64.3204C30.5626 64.1925 30.5411 64.0736 30.4971 63.962C30.4531 63.8503 30.3926 63.7551 30.3138 63.6721C30.2349 63.5902 30.1417 63.5246 30.0321 63.4775C29.9225 63.4305 29.8017 63.4059 29.6696 63.4059C29.5241 63.4059 29.3909 63.4345 29.2681 63.4919C29.1461 63.5492 29.0417 63.6322 28.9547 63.7397C28.8676 63.8472 28.8 63.9794 28.7509 64.134C28.7017 64.2887 28.6781 64.4639 28.6781 64.6605C28.6781 64.8459 28.6997 65.0118 28.7437 65.1582C28.7877 65.3057 28.8502 65.4296 28.9311 65.5311C29.012 65.6325 29.1093 65.7093 29.2219 65.7636C29.3346 65.8168 29.4595 65.8434 29.5968 65.8434C29.7454 65.8434 29.8795 65.8168 29.9993 65.7636C30.1181 65.7103 30.2195 65.6366 30.3025 65.5423C30.3854 65.4491 30.45 65.3395 30.494 65.2136C30.5391 65.0876 30.5616 64.9534 30.5616 64.81V64.3204H30.5626Z" fill="#5E5E5E"/>
<path d="M32.0486 64.6892C32.0506 64.8685 32.0741 65.0303 32.1202 65.1736C32.1664 65.3171 32.2319 65.438 32.3179 65.5373C32.404 65.6366 32.5084 65.7124 32.6313 65.7646C32.7543 65.8169 32.8935 65.8435 33.0482 65.8435C33.378 65.8435 33.6903 65.7277 33.9842 65.4973V65.8578C33.7037 66.0586 33.3636 66.1589 32.9652 66.1589C32.7686 66.1589 32.5903 66.1252 32.4295 66.0555C32.2688 65.9869 32.1325 65.8875 32.0198 65.7565C31.9072 65.6253 31.8202 65.4646 31.7598 65.274C31.6983 65.0835 31.6686 64.8654 31.6686 64.6206C31.6686 64.4015 31.7024 64.1976 31.769 64.0101C31.8355 63.8228 31.9287 63.662 32.0465 63.5247C32.1653 63.3885 32.3056 63.2809 32.4675 63.2041C32.6293 63.1273 32.8075 63.0884 33 63.0884C33.1926 63.0884 33.3565 63.1211 33.5009 63.1868C33.6463 63.2523 33.7682 63.3465 33.8665 63.4684C33.9648 63.5903 34.0396 63.7398 34.0918 63.9149C34.1431 64.0901 34.1697 64.2868 34.1697 64.5049V64.6883H32.0506L32.0486 64.6892ZM33.7897 64.3686C33.7835 64.0635 33.7108 63.8268 33.5715 63.6589C33.4323 63.4909 33.2387 63.407 32.9898 63.407C32.8659 63.407 32.7512 63.4284 32.6446 63.4725C32.5391 63.5165 32.4459 63.58 32.365 63.663C32.2851 63.7459 32.2185 63.8474 32.1664 63.9672C32.1141 64.0859 32.0772 64.2202 32.0557 64.3697H33.7886L33.7897 64.3686Z" fill="#5E5E5E"/>
<path d="M34.7208 65.5629C34.7762 65.6069 34.8366 65.6459 34.9011 65.6807C34.9656 65.7155 35.0333 65.7442 35.1019 65.7697C35.1705 65.7943 35.2401 65.8128 35.3098 65.8251C35.3794 65.8374 35.446 65.8435 35.5085 65.8435C35.9438 65.8435 36.1619 65.6797 36.1619 65.354C36.1619 65.2791 36.1465 65.2147 36.1158 65.1604C36.0851 65.1061 36.041 65.0559 35.9837 65.0108C35.9263 64.9657 35.8577 64.9248 35.7779 64.8859C35.6979 64.8479 35.6067 64.8081 35.5054 64.7661C35.3702 64.7107 35.2535 64.6544 35.1561 64.5971C35.0588 64.5397 34.979 64.4772 34.9155 64.4096C34.8529 64.342 34.8058 64.2673 34.7751 64.1864C34.7444 64.1055 34.7291 64.0132 34.7291 63.9098C34.7291 63.7797 34.7567 63.665 34.813 63.5637C34.8694 63.4622 34.9452 63.3762 35.0404 63.3055C35.1357 63.2349 35.2463 63.1806 35.3713 63.1437C35.4962 63.1068 35.6273 63.0884 35.7656 63.0884C36.0195 63.0884 36.2408 63.1365 36.4302 63.2318V63.6189C36.2111 63.4776 35.9744 63.407 35.7205 63.407C35.6283 63.407 35.5453 63.4182 35.4695 63.4417C35.3937 63.4642 35.3302 63.4971 35.276 63.5391C35.2227 63.5811 35.1807 63.6312 35.151 63.6896C35.1213 63.748 35.107 63.8125 35.107 63.8832C35.107 63.9538 35.1183 64.0194 35.1408 64.0737C35.1633 64.1279 35.1992 64.1771 35.2483 64.2211C35.2975 64.2652 35.3599 64.3072 35.4377 64.3472C35.5157 64.3871 35.6089 64.4301 35.7194 64.4762C35.8608 64.5336 35.9827 64.5899 36.0861 64.6462C36.1896 64.7026 36.2746 64.764 36.3412 64.8295C36.4077 64.8951 36.4579 64.9688 36.4896 65.0497C36.5214 65.1306 36.5388 65.2249 36.5388 65.3314C36.5388 65.4625 36.5111 65.5802 36.4568 65.6837C36.4026 65.7872 36.3268 65.8732 36.2305 65.9439C36.1342 66.0145 36.0206 66.0678 35.8915 66.1046C35.7614 66.1405 35.6201 66.1589 35.4675 66.1589C35.1715 66.1589 34.9226 66.0975 34.7198 65.9725V65.5629H34.7208Z" fill="#5E5E5E"/>
<path d="M37.4494 62.4153C37.3788 62.4153 37.3173 62.3908 37.2661 62.3405C37.2149 62.2913 37.1893 62.2279 37.1893 62.1521C37.1893 62.0763 37.2149 62.0159 37.2661 61.9677C37.3173 61.9186 37.3788 61.895 37.4494 61.895C37.4853 61.895 37.5201 61.9012 37.5529 61.9135C37.5857 61.9258 37.6133 61.9432 37.6379 61.9667C37.6615 61.9893 37.681 62.0169 37.6953 62.0486C37.7096 62.0804 37.7168 62.1152 37.7168 62.1532C37.7168 62.189 37.7096 62.2238 37.6963 62.2566C37.683 62.2893 37.6635 62.317 37.639 62.3416C37.6144 62.3662 37.5857 62.3836 37.5539 62.3969C37.5221 62.4102 37.4874 62.4174 37.4494 62.4174V62.4153ZM37.2692 66.0902V63.1579H37.6359V66.0902H37.2692Z" fill="#5E5E5E"/>
<path d="M41.0039 65.8641C41.0039 66.408 40.88 66.8116 40.6332 67.0738C40.3863 67.3359 40.0043 67.467 39.4892 67.467C39.1685 67.467 38.8644 67.3953 38.5786 67.2529V66.8802C38.8971 67.0573 39.2013 67.1465 39.4892 67.1465C40.2542 67.1465 40.6373 66.7419 40.6373 65.9327V65.5804H40.6259C40.4006 65.9666 40.0565 66.1591 39.5946 66.1591C39.4133 66.1591 39.2474 66.1254 39.0978 66.0588C38.9483 65.9922 38.8193 65.8959 38.7128 65.7699C38.6063 65.6439 38.5222 65.4903 38.4639 65.3101C38.4044 65.1298 38.3748 64.9259 38.3748 64.6986C38.3748 64.4579 38.4066 64.2388 38.469 64.0411C38.5325 63.8434 38.6216 63.6744 38.7384 63.5331C38.8551 63.3918 38.9954 63.2821 39.1604 63.2054C39.3252 63.1285 39.5106 63.0896 39.7175 63.0896C40.1312 63.0896 40.4345 63.2575 40.625 63.5935H40.6362V63.1582H41.0029V65.8641H41.0039ZM40.6373 64.3084C40.6373 64.1865 40.6158 64.0707 40.5717 63.9622C40.5277 63.8536 40.4672 63.7584 40.3883 63.6754C40.3095 63.5935 40.2173 63.5279 40.1088 63.4798C40.0012 63.4316 39.8824 63.4071 39.7523 63.4071C39.5997 63.4071 39.4615 63.4368 39.3386 63.4962C39.2156 63.5556 39.1101 63.6396 39.0231 63.7481C38.936 63.8567 38.8695 63.9889 38.8224 64.1445C38.7752 64.3002 38.7527 64.4753 38.7527 64.6699C38.7527 64.8492 38.7742 65.012 38.8182 65.1564C38.8623 65.3019 38.9237 65.4248 39.0046 65.5261C39.0846 65.6276 39.1819 65.7054 39.2956 65.7607C39.4092 65.816 39.5352 65.8437 39.6745 65.8437C39.8138 65.8437 39.951 65.8171 40.0698 65.7648C40.1887 65.7126 40.289 65.6399 40.373 65.5467C40.457 65.4545 40.5215 65.3449 40.5676 65.2199C40.6137 65.0949 40.6362 64.9598 40.6362 64.8144V64.3074L40.6373 64.3084Z" fill="#5E5E5E"/>
<path d="M43.9274 66.0905V64.4006C43.9274 63.7379 43.6867 63.4071 43.2054 63.4071C43.0774 63.4071 42.9596 63.4327 42.85 63.4828C42.7404 63.5331 42.6472 63.6037 42.5683 63.6929C42.4895 63.783 42.427 63.8894 42.3819 64.0124C42.3368 64.1353 42.3144 64.2685 42.3144 64.4118V66.0905H41.9476V63.1582H42.3144V63.6683H42.3256C42.5438 63.2821 42.8705 63.0896 43.3078 63.0896C43.6284 63.0896 43.8731 63.194 44.0412 63.4019C44.2091 63.6099 44.2931 63.911 44.2931 64.3043V66.0915H43.9264L43.9274 66.0905Z" fill="#5E5E5E"/>
</svg>
