<svg width="161" height="69" viewBox="0 0 161 69" fill="none" xmlns="http://www.w3.org/2000/svg">
<g clip-path="url(#clip0_21_248)">
<path d="M54.1605 12.2699C49.3888 11.1834 36.6328 9.6099 30.4332 21.8049C30.0387 22.5729 30.4332 23.5095 31.2222 23.7905C44.1474 28.38 52.3195 18.4704 55.0247 14.4055C55.5695 13.5812 55.1187 12.476 54.1605 12.2512V12.2699Z" fill="#5E5E5E"/>
<path d="M38.2867 0.131857C36.1263 1.63047 30.9224 6.12631 33.5525 12.9825C33.7216 13.4133 34.2288 13.6006 34.6421 13.3758C41.1235 9.89157 40.109 3.09162 39.4703 0.562708C39.3388 0.0569261 38.7376 -0.167866 38.3055 0.131857H38.2867Z" fill="#5E5E5E"/>
<path d="M50.3101 28.1742L45.9516 25.0834C43.5845 26.1886 40.8605 26.9192 37.7983 26.9192C35.45 26.9192 33.0265 26.4883 30.5843 25.6266C29.6637 25.3081 28.9311 24.5963 28.5741 23.6971C28.2172 22.798 28.2548 21.7864 28.7056 20.9247C29.814 18.7704 31.0915 16.9908 32.5005 15.5484L29.288 13.2818C28.4051 12.6636 27.353 12.3264 26.2822 12.3264C25.2113 12.3264 24.1405 12.6636 23.2763 13.2818L2.1979 28.1742C0.826483 29.1483 -0.00012207 30.7219 -0.00012207 32.4078V62.5674C-0.00012207 65.4335 2.3294 67.7563 5.20374 67.7563H47.2855C50.1598 67.7563 52.4893 65.4335 52.4893 62.5674V32.4078C52.4893 30.7219 51.6627 29.1483 50.2913 28.1742H50.3101Z" fill="#5E5E5E"/>
<path d="M77.1565 27.7619C76.9498 28.1928 76.5741 28.811 75.7287 29.5415C74.6015 30.5344 72.7792 31.5834 69.3976 31.5834C68.6274 31.5834 65.8846 31.5647 63.7429 29.9724C61.2443 28.1179 61.1316 25.2518 61.1316 24.2402C61.1316 22.8352 61.4697 21.3928 62.24 20.2127C62.5218 19.8006 62.766 19.5196 63.123 19.1824C63.5926 18.7328 63.8181 18.5829 64.0999 18.4143C65.0016 17.8149 66.8427 16.9719 69.5855 16.9719C70.337 16.9719 72.9859 17.0281 75.1463 18.4705C76.3111 19.2386 76.9498 20.2127 77.2128 20.6623C77.3068 20.8496 77.4007 21.0556 77.4946 21.243L73.7373 21.7113C73.5307 21.3741 73.1362 20.7747 72.3471 20.2501C71.8962 19.9504 70.9569 19.5008 69.6043 19.5008C69.2474 19.5008 68.3832 19.5196 67.4626 19.913C65.6779 20.6435 64.7198 22.3669 64.7198 24.2777C64.7198 25.233 65.0204 26.2821 65.584 27.0688C65.6967 27.2374 65.9973 27.5933 66.4482 27.9493C66.9742 28.3801 68.0262 29.0545 69.717 29.0545C71.7272 29.0545 72.798 28.2115 73.3428 27.5746C73.5682 27.3311 73.7373 27.0688 74.0379 26.4881L77.6637 26.4506C77.4758 27.1438 77.3443 27.406 77.1753 27.7432L77.1565 27.7619Z" fill="#5E5E5E"/>
<path d="M97.2964 25.8885C97.1273 26.8064 96.5825 28.792 94.4972 30.1783C93.5391 30.7964 91.792 31.5832 89.0679 31.5832C84.9725 31.5832 82.812 29.9347 81.8163 28.4736C81.3467 27.8179 80.5952 26.3755 80.5952 24.2775C80.5952 21.1117 82.1357 19.4632 83.1502 18.6764C84.6531 17.5337 86.6633 17.0654 88.5043 16.9905C90.2139 16.9343 92.2804 17.1965 93.8209 17.9646C94.0276 18.077 94.4221 18.283 94.9105 18.6202C95.305 18.9199 95.6808 19.2571 96.0001 19.6505C96.5825 20.3249 97.4655 21.8422 97.4655 24.1463C97.4655 24.4273 97.4655 25.1392 97.3152 25.8885H97.2964ZM92.7125 20.9431C91.7544 19.894 90.2703 19.407 88.8613 19.4444C88.5419 19.4632 87.7341 19.5194 86.8699 19.894C84.3149 21.018 84.1271 23.4532 84.1271 24.3711C84.1271 24.6521 84.1459 25.5326 84.5028 26.3568C84.5967 26.6003 84.7095 26.8626 85.0288 27.2934C85.1228 27.4058 85.3858 27.7805 85.7239 28.0615C86.2687 28.5298 87.3208 29.1105 89.0116 29.1105C89.3309 29.1105 90.1387 29.0918 91.0029 28.7733C93.7082 27.7992 93.9524 25.1392 93.9524 24.2775C93.9524 23.6968 93.8773 22.1981 92.7313 20.9431H92.7125Z" fill="#5E5E5E"/>
<path d="M101.841 31.1339V17.4216H105.298V28.605H112.944V31.1339H101.86H101.841Z" fill="#5E5E5E"/>
<path d="M116.796 31.1339V17.4216H120.252V31.1339H116.796Z" fill="#5E5E5E"/>
<path d="M136.992 31.1339L128.5 21.5241V31.1339H125.231V17.4216H128.688L137.123 26.994V17.4216H140.392V31.1339H137.01H136.992Z" fill="#5E5E5E"/>
<path d="M157.111 31.1339L155.946 28.5488H148.901L147.737 31.1339H143.979L150.63 17.4216H154.35L161 31.1339H157.149H157.111ZM152.433 20.756L149.991 26.1136H154.819L152.415 20.756H152.433Z" fill="#5E5E5E"/>
<path d="M70.712 54.4381H67.368L61.1497 40.7258H64.9445L69.0588 50.8415L73.1918 40.7258H76.8927L70.712 54.4381Z" fill="#5E5E5E"/>
<path d="M80.4241 54.4381V40.7258H93.2365V43.1985H83.862V46.2894H92.9171V48.7434H83.862V52.0029H93.631V54.4569H80.4241V54.4381Z" fill="#5E5E5E"/>
<path d="M108.848 54.4381L105.184 48.912H101.239V54.4381H97.8014V40.7258H107.27C108.453 40.7258 108.979 40.8008 109.543 40.9694C111.309 41.4939 112.286 43.0112 112.286 44.8095C112.286 45.1655 112.267 45.8398 111.91 46.6079C111.29 48.0128 110.107 48.425 108.698 48.6872L112.887 54.4194H108.81L108.848 54.4381ZM108.547 43.8355C108.115 43.1798 107.364 43.1423 106.65 43.1423H101.239V46.4955H106.763C106.763 46.4955 107.326 46.5142 107.627 46.4393C108.04 46.3456 108.829 45.9897 108.829 44.8657C108.829 44.7346 108.81 44.2288 108.547 43.8355Z" fill="#5E5E5E"/>
<path d="M129.401 52.6579C129.007 53.0325 128.199 53.7256 126.828 54.119C125.964 54.3625 125.25 54.4562 123.484 54.4562H116.382V40.7439H123.916C125.625 40.7439 127.072 40.8938 128.575 41.8304C128.782 41.9615 129.232 42.2425 129.683 42.7108C130.904 43.9659 131.412 45.8204 131.412 47.5438C131.412 50.3537 130.228 51.8898 129.383 52.6766L129.401 52.6579ZM126.734 43.9284C126.602 43.8161 126.264 43.5725 125.794 43.4039C125.287 43.2353 124.855 43.1604 123.784 43.1604H119.802V52.021H123.615C123.803 52.021 124.893 52.0584 125.738 51.74C126.94 51.3091 127.974 50.129 127.974 47.4315C127.974 47.0943 127.992 45.0149 126.715 43.9284H126.734Z" fill="#5E5E5E"/>
<path d="M135.789 54.4381V40.7258H148.601V43.1985H139.227V46.2894H148.282V48.7434H139.227V52.0029H148.995V54.4569H135.789V54.4381Z" fill="#5E5E5E"/>
<path d="M66.4474 67.8678L64.5876 65.6761H61.9387V67.8678H61.1497V62.3792H64.8882C65.3578 62.3792 65.5269 62.3979 65.7524 62.4728C66.485 62.6601 66.9171 63.2409 66.9171 63.9902C66.9171 64.2899 66.8608 65.0579 66.0342 65.3951C65.9026 65.4513 65.7524 65.4888 65.433 65.545L67.4619 67.8678H66.4474ZM65.9778 63.4844C65.7523 63.0723 65.3766 63.0348 64.9445 63.0348H61.9199V65.0205H64.6439C65.0948 65.0205 65.6021 65.0205 65.9214 64.6083C65.9966 64.5147 66.1281 64.3273 66.1281 64.0089C66.1281 63.9152 66.1281 63.6904 65.9966 63.4656L65.9778 63.4844Z" fill="#5E5E5E"/>
<path d="M70.4673 67.8678V62.3792H75.5396V63.0535H71.2563V64.6833H75.4457V65.3389H71.2563V67.1934H75.7463V67.8678H70.4673Z" fill="#5E5E5E"/>
<path d="M83.9948 67.1195C83.5064 67.7939 82.5858 67.9063 82.3792 67.9438C82.2477 67.9438 81.9283 67.9999 81.5901 67.9999C81.4398 67.9999 80.7635 67.9999 80.1811 67.8314C80.0496 67.7939 79.8618 67.7564 79.58 67.644C79.2982 67.5129 79.0915 67.3818 78.9976 67.3068C78.697 67.082 78.5655 66.876 78.4904 66.7636L79.223 66.4639C79.223 66.4639 79.2982 66.5575 79.3357 66.595C79.4485 66.7074 79.7115 66.9135 80.0872 67.0633C80.726 67.3256 81.4586 67.3256 81.6465 67.3256C81.778 67.3256 82.6046 67.3443 83.1494 66.9509C83.4688 66.7074 83.5251 66.3515 83.5251 66.2203C83.5251 65.9019 83.3373 65.6771 83.0555 65.546C82.6422 65.3586 81.7028 65.3212 81.2708 65.265C80.2187 65.1713 79.7115 65.1339 79.2982 64.7592C78.9224 64.422 78.9037 64.0286 78.9037 63.8413C78.9037 63.0733 79.4297 62.7173 79.6739 62.6049C79.9933 62.4176 80.5944 62.249 81.4962 62.249C82.5858 62.249 83.2433 62.5113 83.6379 62.7735C83.7318 62.8297 83.8069 62.8859 83.8821 62.9609C84.0699 63.1107 84.2015 63.2981 84.239 63.3543L83.5251 63.6352C83.5251 63.6352 83.3373 63.4479 83.187 63.3543C82.8864 63.1482 82.3604 62.9047 81.4962 62.9047C80.9326 62.9047 80.5005 62.9983 80.2939 63.092C79.8242 63.2793 79.6927 63.5978 79.6927 63.8226C79.6927 63.935 79.7303 64.0661 79.7866 64.1598C79.9745 64.4782 80.369 64.4969 80.6884 64.5344C81.2895 64.6093 81.9095 64.6468 82.5107 64.7217C83.3561 64.8154 83.7506 65.0402 84.0136 65.3586C84.2954 65.7146 84.2954 66.0517 84.2954 66.2203C84.2954 66.6887 84.1263 66.9884 84.0136 67.1382L83.9948 67.1195Z" fill="#5E5E5E"/>
<path d="M87.6381 67.8678V62.3792H88.4271V67.8678H87.6381Z" fill="#5E5E5E"/>
<path d="M96.9181 67.2122C96.1666 67.8491 95.2085 67.8678 94.288 67.8678H92.09V62.3792H94.8328C94.9831 62.3792 95.1334 62.3792 95.2837 62.3792C95.5279 62.3792 96.1291 62.4353 96.7114 62.81C97.4817 63.3158 97.8386 64.1588 97.8386 65.0767C97.8386 65.8634 97.538 66.6877 96.9181 67.2122ZM95.6782 63.1097C95.4152 63.0348 95.0958 63.0348 94.8328 63.0348H92.879V67.2122H94.4759C94.6261 67.2122 94.7576 67.2122 94.9079 67.2122C95.1334 67.2122 95.8285 67.1934 96.3733 66.7064C96.9932 66.1631 97.0308 65.3389 97.0308 65.0767C97.0308 64.1775 96.5799 63.372 95.6594 63.1285L95.6782 63.1097Z" fill="#5E5E5E"/>
<path d="M101.258 67.8678V62.3792H106.331V63.0535H102.047V64.6833H106.237V65.3389H102.047V67.1934H106.537V67.8678H101.258Z" fill="#5E5E5E"/>
<path d="M114.804 67.8678L110.501 63.3345V67.8678H109.769V62.3792H110.577L114.86 66.9125V62.3792H115.593V67.8678H114.822H114.804Z" fill="#5E5E5E"/>
<path d="M125.118 66.9508C124.216 67.9998 122.638 67.9998 122.319 67.9998C121.229 67.9998 120.59 67.7001 120.196 67.4566C120.064 67.3629 119.952 67.2692 119.82 67.1756C119.745 67.1007 119.576 66.9321 119.407 66.6698C119.219 66.3701 118.975 65.9018 118.975 65.0775C118.975 64.8153 118.975 64.0847 119.463 63.4478C119.538 63.3354 119.651 63.2043 119.858 63.0169C120.046 62.8483 120.271 62.6985 120.496 62.5861C121.21 62.2302 122.093 62.2114 122.3 62.2114C122.563 62.2114 123.577 62.2302 124.366 62.7172C124.479 62.7921 124.705 62.942 124.93 63.1668C125.174 63.4291 125.306 63.6726 125.381 63.8037L124.554 63.991C124.554 63.991 124.46 63.8224 124.404 63.7475C124.273 63.5789 124.085 63.4103 123.916 63.2979C123.653 63.1293 123.108 62.9045 122.319 62.9045C122.093 62.9045 121.248 62.9045 120.609 63.3541C120.553 63.3916 120.421 63.4853 120.29 63.6351C120.083 63.8599 119.783 64.2908 119.783 65.0775C119.783 65.3023 119.801 65.9205 120.215 66.4637C120.703 67.1006 121.511 67.2505 121.755 67.288C122.018 67.3254 122.3 67.3254 122.394 67.3254C122.638 67.3254 123.709 67.3254 124.366 66.6136C124.498 66.4825 124.573 66.3513 124.667 66.2015L125.494 66.3701C125.306 66.6885 125.212 66.8197 125.099 66.9695L125.118 66.9508Z" fill="#5E5E5E"/>
<path d="M128.744 67.8678V62.3792H133.817V63.0535H129.533V64.6833H133.723V65.3389H129.533V67.1934H134.023V67.8678H128.744Z" fill="#5E5E5E"/>
</g>
<defs>
<clipPath id="clip0_21_248">
<rect width="161" height="68.1154" fill="white"/>
</clipPath>
</defs>
</svg>
