<svg width="161" height="35" viewBox="0 0 161 35" fill="none" xmlns="http://www.w3.org/2000/svg">
<g clip-path="url(#clip0_21_281)">
<path d="M13.0978 0.271286C13.1071 0.271286 13.1168 0.271286 13.1268 0.271286C20.8998 0.244627 27.0106 7.11697 25.4528 14.8784C24.9196 17.5362 23.6098 20.1743 22.0972 22.4728C19.5819 26.2944 16.4129 29.7903 13.026 32.7877C13.0098 32.8016 12.9931 32.8086 12.9761 32.8086C12.9591 32.8086 12.9425 32.8012 12.9263 32.7866C9.56141 29.7648 6.41907 26.2457 3.93278 22.4044C2.43638 20.0955 1.14629 17.4469 0.633965 14.7856C-0.86592 7.01265 5.29589 0.186671 13.0677 0.271286C13.0778 0.271286 13.0878 0.271286 13.0978 0.271286ZM17.3297 15.0615C16.4048 16.9346 14.2013 17.4887 12.2899 17.265C10.1954 17.0215 8.74656 15.4359 8.47764 13.3819C8.09514 10.4598 9.67268 7.85648 12.7733 7.69305C14.6534 7.59337 16.4801 8.37692 17.3239 10.0808C17.3357 10.1051 17.3541 10.1256 17.3771 10.1399C17.4 10.1543 17.4266 10.1619 17.4538 10.1619H22.6431C22.653 10.1619 22.6627 10.1596 22.6716 10.1552C22.6804 10.1509 22.6882 10.1445 22.6942 10.1367C22.7003 10.1289 22.7044 10.1198 22.7064 10.1101C22.7084 10.1004 22.7082 10.0904 22.7057 10.0808C22.6191 9.75085 22.5106 9.40158 22.38 9.03298C21.9604 7.84605 21.2947 6.81058 20.3828 5.92657C17.8896 3.50983 14.3578 2.68339 10.9628 3.29076C8.24814 3.77527 5.83024 5.33659 4.46597 7.7058C2.36915 11.3466 2.89654 16.3597 6.04004 19.2609C7.65275 20.7492 9.58227 21.6066 11.8286 21.833C15.6177 22.2155 19.1403 20.9289 21.2684 17.6961C22.3603 16.0375 22.8726 13.9279 22.8645 11.9389C22.8645 11.9275 22.8598 11.9166 22.8516 11.9085C22.8433 11.9005 22.8321 11.896 22.8204 11.896H12.7455C12.735 11.896 12.725 11.9001 12.7176 11.9075C12.7102 11.9149 12.7061 11.9249 12.7061 11.9354V14.9236C12.7061 14.9408 12.713 14.9573 12.7254 14.9695C12.7378 14.9816 12.7546 14.9885 12.7721 14.9885H17.2845C17.2931 14.9886 17.3015 14.9909 17.3089 14.9951C17.3164 14.9993 17.3226 15.0054 17.3271 15.0126C17.3316 15.0199 17.3342 15.0282 17.3347 15.0367C17.3351 15.0453 17.3334 15.0538 17.3297 15.0615Z" fill="#5E5E5E"/>
<path d="M42.9589 11.2293V10.2731C42.9589 10.2203 42.9797 10.1692 43.0168 10.1305L49.356 3.63951C49.3656 3.62994 49.377 3.62235 49.3895 3.61718C49.402 3.61201 49.4154 3.60935 49.429 3.60938H50.3714C50.3923 3.60938 50.4123 3.61768 50.4271 3.63246C50.4419 3.64724 50.4502 3.66729 50.4502 3.68819V7.50977C50.4502 7.53713 50.4609 7.56337 50.48 7.58272C50.4992 7.60206 50.5251 7.61293 50.5522 7.61293H53.9646C53.98 7.61293 53.9947 7.61904 54.0056 7.62991C54.0164 7.64077 54.0225 7.65552 54.0225 7.67089V11.2433C54.0225 11.262 54.0152 11.28 54.0022 11.2933C53.9891 11.3065 53.9714 11.314 53.953 11.314H50.6101C50.5923 11.314 50.5752 11.3212 50.5626 11.334C50.55 11.3468 50.5429 11.3642 50.5429 11.3823C50.5452 12.2733 50.5452 13.6198 50.5429 15.4218C50.5406 16.2147 50.6797 16.7235 51.3473 17.0886C51.5822 17.2177 52.0192 17.2764 52.6583 17.2648C52.6606 17.2648 53.1088 17.259 54.0028 17.2474C54.0139 17.2473 54.0249 17.2494 54.0351 17.2535C54.0454 17.2577 54.0547 17.2639 54.0626 17.2718C54.0705 17.2797 54.0767 17.2891 54.081 17.2994C54.0853 17.3097 54.0875 17.3208 54.0875 17.332L54.0886 21.3854C54.0886 21.4068 54.0801 21.4272 54.0649 21.4424C54.0497 21.4576 54.0291 21.4663 54.0075 21.4666C52.6714 21.4743 51.4957 21.4697 50.4803 21.4527C49.3444 21.4334 48.3391 21.1347 47.4643 20.5567C46.3771 19.8392 45.7929 18.585 45.6352 17.2764C45.6097 17.0662 45.5993 16.5214 45.6039 15.6421C45.6039 15.5153 45.6047 14.107 45.6063 11.4171C45.6063 11.3898 45.5954 11.3635 45.576 11.3442C45.5567 11.3248 45.5305 11.314 45.5031 11.314H43.0435C43.0324 11.314 43.0214 11.3118 43.0111 11.3075C43.0008 11.3033 42.9915 11.297 42.9836 11.2892C42.9758 11.2813 42.9696 11.272 42.9653 11.2617C42.9611 11.2515 42.9589 11.2405 42.9589 11.2293Z" fill="#5E5E5E"/>
<path d="M42.064 16.7715C42.0722 16.7714 42.0802 16.7733 42.0874 16.777C42.0947 16.7806 42.1009 16.786 42.1057 16.7926C42.1104 16.7991 42.1136 16.8067 42.1148 16.8148C42.116 16.8228 42.1153 16.831 42.1127 16.8387C41.1982 19.5649 38.924 21.3662 36.1062 21.795C34.1068 22.0999 31.9195 21.8078 30.2075 20.7055C27.6378 19.0514 26.5448 16.3646 26.9377 13.3846C27.2576 10.9655 28.8178 8.9614 31.0375 7.93675C32.2267 7.38811 33.5883 7.14315 35.1221 7.20188C39.6925 7.3769 43.0296 10.9736 42.3202 15.6274C42.3177 15.6438 42.3093 15.6588 42.2966 15.6697C42.2838 15.6805 42.2675 15.6865 42.2507 15.6865H31.8326C31.8192 15.6866 31.806 15.6898 31.794 15.6958C31.7821 15.7017 31.7716 15.7103 31.7634 15.721C31.7553 15.7316 31.7496 15.7439 31.747 15.757C31.7443 15.7701 31.7446 15.7837 31.748 15.7967C32.1498 17.3491 33.1586 18.1006 34.7744 18.0511C35.2427 18.0372 35.6913 17.9306 36.1201 17.7312C36.4922 17.5585 36.7646 17.2757 37.1459 16.9337C37.2018 16.8847 37.271 16.8539 37.3442 16.8456C37.8526 16.7923 38.3673 16.7661 38.8881 16.7668C40.534 16.7699 41.5927 16.7715 42.064 16.7715ZM34.6608 13.0438C36.1375 13.0446 37.0625 13.0473 37.4357 13.0519C37.447 13.0522 37.4582 13.0497 37.4683 13.0447C37.4784 13.0397 37.4871 13.0323 37.4937 13.0232C37.5003 13.0141 37.5046 13.0035 37.5062 12.9923C37.5078 12.9812 37.5067 12.9698 37.503 12.9592C37.0613 11.6679 36.0587 10.9354 34.662 10.9342C33.2664 10.933 32.2626 11.6656 31.8199 12.9557C31.8161 12.9662 31.815 12.9775 31.8166 12.9885C31.8181 12.9996 31.8223 13.0101 31.8288 13.0192C31.8353 13.0283 31.8438 13.0357 31.8538 13.0408C31.8637 13.0459 31.8748 13.0485 31.8859 13.0484C32.2599 13.0438 33.1849 13.0422 34.6608 13.0438Z" fill="#5E5E5E"/>
<path d="M78.3209 21.4051C78.3209 21.422 78.3141 21.4383 78.3019 21.4502C78.2897 21.4622 78.2732 21.4689 78.256 21.4689H73.4283C73.4117 21.4689 73.3958 21.4623 73.3841 21.4506C73.3723 21.4388 73.3658 21.4229 73.3658 21.4063C73.3681 17.0303 73.3661 14.2345 73.36 13.019C73.3565 12.3003 73.0006 11.4102 72.1475 11.2954C70.2593 11.0439 69.7482 12.4313 69.7482 13.9961C69.7513 17.8915 69.7501 20.3503 69.7447 21.3727C69.7447 21.3855 69.7422 21.3981 69.7373 21.4099C69.7324 21.4218 69.7252 21.4325 69.7162 21.4415C69.7071 21.4506 69.6964 21.4577 69.6846 21.4626C69.6728 21.4675 69.6601 21.47 69.6473 21.47H64.9831C64.9686 21.47 64.9548 21.4644 64.9446 21.4544C64.9343 21.4444 64.9286 21.4309 64.9286 21.4167C64.9325 16.5794 64.9313 13.7558 64.9251 12.946C64.9244 12.8007 64.8594 12.5434 64.7304 12.174C64.5345 11.6142 64.0523 11.2699 63.4565 11.2571C62.0007 11.2259 61.3481 12.3027 61.3423 13.6194C61.3346 15.6517 61.3338 18.2439 61.34 21.3959C61.34 21.4158 61.332 21.435 61.3176 21.4491C61.3033 21.4633 61.2838 21.4712 61.2635 21.4712H56.4474C56.4311 21.4712 56.4155 21.4647 56.404 21.4532C56.3925 21.4417 56.386 21.4261 56.386 21.4098V7.6813C56.386 7.66163 56.3938 7.64276 56.4077 7.62885C56.4216 7.61494 56.4405 7.60712 56.4602 7.60712H59.759C59.7885 7.60715 59.8173 7.61568 59.8422 7.6317C59.8671 7.64773 59.8868 7.67057 59.8992 7.69753L60.4939 8.99805C60.4973 9.00563 60.5025 9.01227 60.509 9.01743C60.5156 9.02259 60.5232 9.0261 60.5314 9.02769C60.5396 9.02928 60.548 9.02889 60.556 9.02656C60.564 9.02422 60.5713 9.02001 60.5773 9.01428C60.7999 8.79791 61.0112 8.61091 61.2114 8.45327C62.61 7.34748 64.2015 6.98584 65.9857 7.36834C67.1425 7.61639 68.0605 8.21295 68.7397 9.15801C68.7463 9.16719 68.7548 9.17476 68.7647 9.18016C68.7747 9.18557 68.7857 9.18866 68.797 9.18921C68.8084 9.18977 68.8198 9.18778 68.8303 9.18338C68.8409 9.17898 68.8503 9.17229 68.858 9.1638C69.8471 8.07115 71.0394 7.43866 72.435 7.26634C75.2342 6.91977 77.5351 8.43704 78.1772 11.234C78.2761 11.6667 78.3248 12.2926 78.3232 13.1117C78.3178 16.555 78.3171 19.3195 78.3209 21.4051Z" fill="#5E5E5E"/>
<path d="M96.4633 21.4201C96.4633 21.4315 96.4586 21.4424 96.4504 21.4504C96.4421 21.4585 96.4309 21.463 96.4192 21.463L92.6996 21.4641C92.6833 21.4641 92.6675 21.4595 92.6539 21.4509C92.6403 21.4422 92.6296 21.4299 92.6231 21.4155L92.2186 20.5311C92.2161 20.5252 92.2122 20.5201 92.2074 20.516C92.2025 20.5119 92.1968 20.509 92.1907 20.5074C92.1845 20.5058 92.1781 20.5057 92.1719 20.507C92.1657 20.5083 92.1599 20.5109 92.1549 20.5148C91.1132 21.31 89.9394 21.762 88.6335 21.871C83.9124 22.2616 80.172 18.9906 80.4247 14.1177C80.6438 9.89972 83.8742 7.13409 88.0481 7.21639C89.5306 7.24652 91.0189 7.69626 92.1908 8.62354C92.1996 8.63067 92.2099 8.63566 92.2209 8.63814C92.232 8.64061 92.2435 8.6405 92.2545 8.63782C92.2656 8.63514 92.276 8.62995 92.2848 8.62265C92.2936 8.61536 92.3007 8.60615 92.3055 8.59573L92.7275 7.70089C92.7399 7.67444 92.7595 7.65202 92.7841 7.63623C92.8087 7.62044 92.8373 7.61192 92.8665 7.61164L96.4111 7.61048C96.424 7.61048 96.4364 7.61561 96.4455 7.62474C96.4546 7.63387 96.4598 7.64626 96.4598 7.65917L96.4633 21.4201ZM85.3538 14.4333C85.3401 14.8468 85.4094 15.259 85.5578 15.6464C85.7061 16.0337 85.9306 16.3887 86.2185 16.6909C86.5063 16.9932 86.8519 17.2369 87.2354 17.408C87.6189 17.5791 88.0329 17.6744 88.4537 17.6884C88.8745 17.7023 89.2939 17.6347 89.6879 17.4894C90.0819 17.344 90.4428 17.1238 90.7501 16.8413C91.0573 16.5588 91.3049 16.2195 91.4786 15.8428C91.6523 15.4661 91.7488 15.0594 91.7625 14.6459C91.7762 14.2324 91.7069 13.8202 91.5585 13.4329C91.4102 13.0455 91.1857 12.6906 90.8978 12.3883C90.61 12.0861 90.2644 11.8424 89.8809 11.6713C89.4974 11.5001 89.0834 11.4049 88.6626 11.3909C88.2418 11.3769 87.8224 11.4446 87.4284 11.5899C87.0344 11.7352 86.6735 11.9555 86.3662 12.238C86.059 12.5205 85.8114 12.8598 85.6377 13.2365C85.464 13.6131 85.3675 14.0198 85.3538 14.4333Z" fill="#5E5E5E"/>
<path d="M103.785 8.97862C104.982 7.61435 107.028 7.09275 108.801 7.24576C111.107 7.44396 112.79 8.80244 113.451 11.0117C113.661 11.7176 113.719 12.5174 113.717 13.3009C113.714 14.6022 113.714 17.3026 113.715 21.4019C113.715 21.4137 113.713 21.4253 113.709 21.4361C113.704 21.4469 113.698 21.4568 113.69 21.465C113.681 21.4733 113.672 21.4799 113.661 21.4844C113.65 21.4889 113.639 21.4912 113.627 21.4912H108.826C108.819 21.4912 108.812 21.4897 108.805 21.4869C108.798 21.484 108.792 21.4798 108.787 21.4745C108.782 21.4693 108.778 21.463 108.775 21.4561C108.772 21.4492 108.771 21.4418 108.771 21.4344C108.775 16.611 108.772 13.9678 108.761 13.5049C108.738 12.5104 108.37 11.4278 107.221 11.327C105.897 11.2111 105.04 11.7636 104.649 12.9845C104.531 13.3531 104.5 14.0625 104.5 14.5192C104.501 18.2971 104.5 20.5859 104.496 21.3857C104.496 21.4083 104.486 21.4298 104.47 21.4456C104.454 21.4614 104.433 21.4703 104.41 21.4703H99.6102C99.5961 21.4703 99.5825 21.4647 99.5725 21.4547C99.5625 21.4447 99.5569 21.4311 99.5569 21.417V7.67579C99.5569 7.65796 99.5639 7.64086 99.5762 7.62825C99.5886 7.61564 99.6054 7.60856 99.623 7.60856H102.91C102.951 7.60851 102.991 7.6202 103.025 7.64221C103.059 7.66422 103.086 7.69561 103.103 7.73258L103.665 8.96124C103.67 8.97223 103.677 8.98179 103.687 8.98904C103.696 8.99629 103.708 9.001 103.72 9.00273C103.732 9.00446 103.744 9.00315 103.756 8.99894C103.767 8.99473 103.777 8.98775 103.785 8.97862Z" fill="#5E5E5E"/>
<path d="M131.311 13.2785C131.311 13.2843 131.311 13.2902 131.309 13.2958C131.308 13.3014 131.305 13.3066 131.301 13.311C131.297 13.3154 131.292 13.319 131.287 13.3214C131.282 13.3237 131.276 13.3249 131.27 13.3249H126.555C126.531 13.3249 126.507 13.3171 126.487 13.3027C126.468 13.2883 126.454 13.268 126.447 13.2449C126.332 12.867 125.975 12.3895 125.668 12.1577C124.711 11.4336 123.666 11.2876 122.53 11.7195C120.362 12.5448 120.227 15.8436 122.019 17.0908C123.618 18.2024 125.798 17.5267 126.483 15.6987C126.491 15.6766 126.506 15.6575 126.525 15.644C126.545 15.6305 126.568 15.6233 126.592 15.6234H131.299C131.312 15.6234 131.325 15.6262 131.336 15.6316C131.348 15.6369 131.358 15.6447 131.367 15.6545C131.375 15.6642 131.381 15.6756 131.384 15.6878C131.388 15.7001 131.388 15.7129 131.386 15.7254C130.761 19.263 128.014 21.6183 124.449 21.8768C122.879 21.9904 121.447 21.769 120.151 21.2126C117.044 19.8785 115.403 16.7628 115.871 13.4049C116.37 9.83713 119.236 7.56181 122.732 7.24305C123.717 7.15264 124.632 7.18935 125.477 7.35317C128.572 7.95358 130.823 10.1408 131.311 13.2785Z" fill="#5E5E5E"/>
<path d="M148.724 21.4261C148.724 21.4374 148.719 21.4483 148.711 21.4564C148.703 21.4644 148.692 21.4689 148.68 21.4689H144.958C144.942 21.4689 144.926 21.4643 144.912 21.4557C144.899 21.4471 144.888 21.4348 144.881 21.4203L144.477 20.5359C144.474 20.5301 144.471 20.5249 144.466 20.5208C144.461 20.5167 144.455 20.5138 144.449 20.5122C144.443 20.5106 144.436 20.5105 144.43 20.5118C144.424 20.5131 144.418 20.5158 144.413 20.5196C143.372 21.3148 142.197 21.7664 140.891 21.8746C136.167 22.2652 132.426 18.9919 132.68 14.1167C132.9 9.89641 136.133 7.13078 140.309 7.21424C141.791 7.24438 143.281 7.69411 144.453 8.62256C144.461 8.62968 144.472 8.63468 144.483 8.63715C144.494 8.63962 144.505 8.63951 144.516 8.63683C144.527 8.63415 144.538 8.62896 144.547 8.62166C144.555 8.61437 144.563 8.60516 144.567 8.59474L144.989 7.69991C145.002 7.67327 145.022 7.65074 145.046 7.63494C145.071 7.61914 145.1 7.61072 145.13 7.61066H148.675C148.688 7.61066 148.701 7.61578 148.71 7.62491C148.719 7.63404 148.724 7.64643 148.724 7.65934V21.4261ZM137.58 14.485C137.572 14.8986 137.648 15.3097 137.803 15.6947C137.957 16.0797 138.187 16.431 138.48 16.7287C138.773 17.0264 139.122 17.2646 139.508 17.4297C139.895 17.5948 140.31 17.6836 140.731 17.6909C141.152 17.6983 141.571 17.6241 141.963 17.4726C142.355 17.3211 142.712 17.0952 143.015 16.8079C143.318 16.5206 143.56 16.1775 143.728 15.7981C143.896 15.4188 143.986 15.0106 143.993 14.5969C144 14.1833 143.925 13.7722 143.77 13.3872C143.616 13.0022 143.385 12.6509 143.093 12.3532C142.8 12.0555 142.451 11.8173 142.064 11.6522C141.678 11.4871 141.262 11.3983 140.841 11.391C140.42 11.3836 140.002 11.4578 139.61 11.6093C139.218 11.7608 138.861 11.9867 138.558 12.274C138.255 12.5613 138.013 12.9044 137.845 13.2838C137.677 13.6632 137.587 14.0713 137.58 14.485Z" fill="#5E5E5E"/>
<path d="M161 7.58053V11.9446C160.401 11.9515 159.803 11.9488 159.205 11.9365C158.686 11.9256 158.213 12.0253 157.786 12.2355C156.958 12.6435 156.775 13.5407 156.763 14.3729C156.756 14.9285 156.754 17.2795 156.759 21.4261C156.759 21.4433 156.752 21.4598 156.74 21.472C156.728 21.4841 156.711 21.491 156.694 21.491H151.848C151.836 21.491 151.825 21.4863 151.817 21.4781C151.809 21.4698 151.805 21.4586 151.805 21.4469V7.67441C151.805 7.65689 151.812 7.64009 151.824 7.6277C151.836 7.6153 151.852 7.60834 151.87 7.60834H155.039C155.067 7.60833 155.095 7.61613 155.119 7.63087C155.142 7.64562 155.162 7.66672 155.174 7.6918L155.869 9.05839C155.873 9.06671 155.879 9.0739 155.886 9.07932C155.894 9.08473 155.902 9.08822 155.912 9.08948C155.921 9.09074 155.93 9.08972 155.939 9.08653C155.948 9.08333 155.956 9.07805 155.963 9.07114C156.695 8.27599 157.603 7.79535 158.688 7.62921C159.279 7.53957 160.05 7.52334 161 7.58053Z" fill="#5E5E5E"/>
<path d="M138.833 24.9592C138.839 24.9592 138.845 24.9604 138.851 24.9628C138.856 24.9651 138.861 24.9685 138.865 24.9728C138.869 24.9771 138.873 24.9822 138.875 24.9878C138.877 24.9935 138.878 24.9995 138.878 25.0056V27.7666C138.878 27.7762 138.881 27.7856 138.886 27.7937C138.891 27.8017 138.899 27.8081 138.908 27.8119C138.916 27.8158 138.926 27.8169 138.936 27.8152C138.945 27.8136 138.954 27.8091 138.961 27.8025C139.57 27.2415 140.299 27.0491 141.15 27.2253C142.089 27.42 142.391 28.1514 142.442 29.0358C142.452 29.2205 142.454 30.4376 142.447 32.687C142.447 32.6998 142.445 32.7124 142.44 32.7243C142.435 32.7361 142.428 32.7468 142.419 32.7558C142.41 32.7649 142.399 32.7721 142.387 32.777C142.375 32.7818 142.363 32.7844 142.35 32.7844H141.532C141.505 32.7844 141.479 32.7738 141.46 32.7549C141.441 32.736 141.43 32.7104 141.43 32.6835C141.426 32.0251 141.428 31.0955 141.437 29.8947C141.441 29.1413 141.389 28.6738 141.279 28.4922C141.027 28.078 140.608 27.9192 140.021 28.0158C139.521 28.0985 139.151 28.3743 138.911 28.8434C138.89 28.8853 138.878 28.9318 138.878 28.979V32.6928C138.878 32.7174 138.869 32.741 138.851 32.7584C138.833 32.7758 138.809 32.7855 138.785 32.7855H137.956C137.93 32.7855 137.905 32.7753 137.887 32.757C137.869 32.7387 137.858 32.714 137.858 32.6882V25.0079C137.858 24.995 137.863 24.9826 137.872 24.9735C137.881 24.9644 137.893 24.9592 137.906 24.9592H138.833Z" fill="#5E5E5E"/>
<path d="M51.2812 29.0726C51.2812 29.119 51.2812 29.1453 51.2812 29.1515C51.2117 30.1541 51.469 31.4337 52.4589 31.8545C53.0508 32.1049 53.63 32.113 54.1964 31.8788C54.7396 31.654 55.0549 31.1722 55.1422 30.4334C55.1431 30.423 55.1479 30.4132 55.1556 30.4062C55.1633 30.3991 55.1735 30.3951 55.184 30.3952H56.2144C56.2173 30.3951 56.2202 30.3957 56.2228 30.397C56.2255 30.3982 56.2278 30.4001 56.2297 30.4024C56.2316 30.4047 56.233 30.4075 56.2337 30.4104C56.2345 30.4134 56.2346 30.4165 56.2341 30.4195C56.0363 31.754 55.3207 32.5515 54.0874 32.8119C53.9058 32.8506 53.611 32.8679 53.203 32.8641C51.7855 32.8525 50.7133 31.9832 50.3586 30.6293C50.2458 30.1989 50.1901 29.6792 50.1917 29.0703C50.1932 28.4622 50.2512 27.9433 50.3655 27.5136C50.726 26.161 51.8017 25.2963 53.2193 25.2905C53.6273 25.2882 53.9221 25.3067 54.1037 25.3461C55.3354 25.6119 56.0475 26.4125 56.2399 27.7478C56.2404 27.7508 56.2403 27.7539 56.2395 27.7569C56.2388 27.7598 56.2374 27.7626 56.2355 27.7649C56.2336 27.7672 56.2313 27.7691 56.2286 27.7703C56.226 27.7716 56.2231 27.7722 56.2202 27.7721L55.1898 27.7675C55.1793 27.7675 55.1691 27.7636 55.1614 27.7565C55.1537 27.7494 55.1489 27.7397 55.148 27.7292C55.0638 26.9905 54.7505 26.5075 54.208 26.2804C53.6431 26.0431 53.0639 26.0485 52.4705 26.2966C51.4795 26.7127 51.2163 27.9912 51.2812 28.995C51.2812 29.0012 51.2812 29.0271 51.2812 29.0726Z" fill="#5E5E5E"/>
<path d="M70.0632 25.2887L69.8546 25.2924C69.5813 25.2972 69.3636 25.5226 69.3684 25.7959L69.37 25.8886C69.3748 26.1619 69.6002 26.3796 69.8735 26.3748L70.0821 26.3712C70.3554 26.3664 70.5731 26.141 70.5683 25.8677L70.5667 25.775C70.5619 25.5017 70.3365 25.284 70.0632 25.2887Z" fill="#5E5E5E"/>
<path d="M127.759 27.2554H128.589C128.626 27.2554 128.661 27.2407 128.687 27.2146C128.712 27.1885 128.727 27.1531 128.727 27.1163V26.0105C128.727 26.0032 128.728 25.9959 128.731 25.9892C128.734 25.9824 128.738 25.9763 128.743 25.9711C128.748 25.966 128.755 25.9619 128.761 25.9591C128.768 25.9563 128.775 25.9548 128.783 25.9548H129.7C129.713 25.9548 129.725 25.9601 129.735 25.9694C129.744 25.9788 129.749 25.9915 129.749 26.0047V27.1742C129.749 27.1957 129.758 27.2164 129.773 27.2316C129.788 27.2468 129.809 27.2554 129.83 27.2554H130.706C130.733 27.2554 130.759 27.2662 130.778 27.2856C130.797 27.3049 130.808 27.3312 130.808 27.3585V27.9079C130.808 27.9371 130.796 27.9651 130.775 27.9858C130.755 28.0064 130.727 28.018 130.697 28.018H129.839C129.827 28.018 129.815 28.0204 129.804 28.025C129.792 28.0296 129.782 28.0364 129.774 28.0449C129.765 28.0534 129.759 28.0635 129.754 28.0746C129.749 28.0857 129.747 28.0976 129.747 28.1096C129.749 30.1033 129.749 31.1727 129.747 31.318C129.733 31.9625 130.157 32.1085 130.72 31.9729C130.735 31.9694 130.75 31.9693 130.765 31.9726C130.78 31.976 130.794 31.9826 130.806 31.9921C130.818 32.0016 130.828 32.0136 130.835 32.0274C130.841 32.0411 130.845 32.0562 130.845 32.0714V32.6452C130.845 32.6808 130.833 32.7154 130.811 32.7434C130.788 32.7713 130.758 32.791 130.723 32.7994C130.024 32.9605 129.202 32.9188 128.85 32.1839C128.765 32.0077 128.723 31.7032 128.724 31.2705C128.727 29.9785 128.729 28.9229 128.729 28.1038C128.729 28.0927 128.727 28.0817 128.723 28.0714C128.719 28.0612 128.713 28.0518 128.705 28.044C128.697 28.0361 128.688 28.0299 128.678 28.0256C128.668 28.0214 128.657 28.0192 128.646 28.0192H127.771C127.743 28.0192 127.717 28.0083 127.698 27.989C127.678 27.9696 127.668 27.9434 127.668 27.916V27.3458C127.668 27.3218 127.677 27.2988 127.694 27.2818C127.712 27.2649 127.735 27.2554 127.759 27.2554Z" fill="#5E5E5E"/>
<path d="M60.6654 29.4263C60.6831 29.4269 60.7004 29.421 60.714 29.41C60.7277 29.3989 60.7367 29.3832 60.7395 29.366C60.7589 29.2486 60.7523 29.0677 60.7198 28.8236C60.6248 28.1119 59.9711 27.9079 59.3208 27.9751C58.7721 28.0323 58.4244 28.3054 58.2776 28.7946C58.2746 28.8044 58.2687 28.8129 58.2608 28.819C58.2528 28.825 58.2433 28.8283 58.2335 28.8282H57.2947C57.2906 28.8282 57.2865 28.8274 57.2827 28.8257C57.279 28.824 57.2756 28.8216 57.2728 28.8185C57.2701 28.8155 57.268 28.8118 57.2668 28.8079C57.2656 28.804 57.2652 28.7998 57.2657 28.7957C57.319 28.3661 57.5052 28.0184 57.8244 27.7525C58.8444 26.9052 61.0954 26.8531 61.661 28.3275C61.7321 28.5122 61.7657 28.856 61.7619 29.3591C61.7549 30.4247 61.7565 31.2225 61.7665 31.7526C61.7711 31.9953 61.8372 32.3005 61.9647 32.6683C61.9694 32.6817 61.9708 32.6959 61.9689 32.7099C61.9669 32.7239 61.9617 32.7371 61.9537 32.7486C61.9456 32.7601 61.9349 32.7694 61.9225 32.7758C61.9101 32.7822 61.8964 32.7855 61.8824 32.7854H60.9876C60.9458 32.7854 60.9057 32.7688 60.8761 32.7392C60.8466 32.7097 60.8299 32.6696 60.8299 32.6278V32.3681C60.8301 32.3513 60.8253 32.3349 60.8163 32.3207C60.8073 32.3066 60.7943 32.2953 60.779 32.2882C60.7636 32.2812 60.7465 32.2786 60.7297 32.2808C60.7128 32.2831 60.697 32.29 60.6839 32.3009C60.0487 32.831 59.3154 32.9948 58.4839 32.7923C57.501 32.5524 56.9145 31.6448 57.2611 30.6526C57.7247 29.3255 59.5619 29.395 60.6654 29.4263ZM60.6514 30.1113C60.0966 30.0711 59.5507 30.1086 59.0136 30.2238C57.7966 30.4834 57.9994 31.9705 59.1782 32.0134C59.6851 32.032 60.1306 31.8643 60.5147 31.5104C60.6561 31.3798 60.7291 31.2345 60.7337 31.0745C60.7461 30.6797 60.7457 30.3857 60.7326 30.1925C60.7312 30.1714 60.7222 30.1515 60.7073 30.1366C60.6924 30.1217 60.6725 30.1127 60.6514 30.1113Z" fill="#5E5E5E"/>
<path d="M64.2609 27.7608C64.3235 27.6866 64.4197 27.5487 64.5102 27.4861C64.9212 27.194 65.3818 27.1032 65.8918 27.2137C65.9179 27.2197 65.9411 27.2343 65.9578 27.2549C65.9744 27.2755 65.9834 27.3011 65.9834 27.3273V28.0494C65.9834 28.0622 65.9806 28.0748 65.9752 28.0864C65.9698 28.098 65.962 28.1084 65.9522 28.1167C65.9424 28.1251 65.9309 28.1313 65.9185 28.1348C65.9061 28.1384 65.893 28.1393 65.8802 28.1375C65.1535 28.0286 64.1821 28.2662 64.1856 29.11C64.1887 30.2691 64.1883 31.4603 64.1844 32.6835C64.1844 32.7106 64.1737 32.7365 64.1546 32.7557C64.1354 32.7748 64.1095 32.7855 64.0824 32.7855H63.2629C63.2368 32.7855 63.2118 32.7752 63.1933 32.7567C63.1748 32.7382 63.1644 32.7131 63.1644 32.687V27.3586C63.1644 27.3297 63.176 27.302 63.1967 27.2816C63.2173 27.2611 63.2453 27.2496 63.2745 27.2496H64.0685C64.0934 27.2496 64.1173 27.2594 64.1349 27.2768C64.1525 27.2942 64.1624 27.3178 64.1624 27.3424V27.7249C64.1623 27.7364 64.1658 27.7476 64.1723 27.7571C64.1789 27.7665 64.1882 27.7737 64.199 27.7776C64.2098 27.7816 64.2215 27.7821 64.2326 27.7791C64.2437 27.776 64.2536 27.7697 64.2609 27.7608Z" fill="#5E5E5E"/>
<path d="M72.894 27.8187C72.8939 27.8275 72.8965 27.8361 72.9013 27.8434C72.9062 27.8507 72.9131 27.8564 72.9211 27.8597C72.9292 27.8631 72.9381 27.8639 72.9467 27.8622C72.9553 27.8605 72.9632 27.8563 72.9693 27.85C73.4801 27.3369 74.1095 27.1117 74.8575 27.1743C76.3226 27.2971 76.5208 28.3218 76.4826 29.6501C76.4772 29.8479 76.4749 30.8587 76.4756 32.6823C76.4756 32.6959 76.473 32.7093 76.4678 32.7218C76.4626 32.7343 76.455 32.7457 76.4454 32.7553C76.4358 32.7649 76.4245 32.7725 76.412 32.7777C76.3994 32.7828 76.386 32.7855 76.3725 32.7855H75.553C75.5269 32.7855 75.5018 32.7751 75.4833 32.7567C75.4648 32.7382 75.4545 32.7131 75.4545 32.687C75.4521 31.1415 75.4537 30.0624 75.4591 29.4496C75.4661 28.6116 75.3304 28.0274 74.4171 27.9914C73.8224 27.9671 72.9334 28.3786 72.9357 29.0845C72.938 29.7429 72.9384 30.9425 72.9369 32.6835C72.9369 32.7096 72.9265 32.7347 72.908 32.7532C72.8896 32.7717 72.8645 32.782 72.8384 32.782H72.0131C71.9869 32.782 71.9619 32.7717 71.9434 32.7532C71.9249 32.7347 71.9146 32.7096 71.9146 32.6835V27.3562C71.9146 27.3286 71.9255 27.302 71.9451 27.2825C71.9647 27.2629 71.9912 27.2519 72.0189 27.2519H72.7723C72.8046 27.2519 72.8355 27.2646 72.8583 27.2872C72.8812 27.3098 72.894 27.3405 72.894 27.3725V27.8187Z" fill="#5E5E5E"/>
<path d="M90.4069 30.4634C90.4069 30.7759 90.3454 31.0854 90.2258 31.3741C90.1062 31.6628 89.9309 31.9251 89.7099 32.1461C89.489 32.3671 89.2266 32.5424 88.9379 32.662C88.6492 32.7815 88.3398 32.8431 88.0273 32.8431H87.5914C87.2789 32.8431 86.9695 32.7815 86.6808 32.662C86.3921 32.5424 86.1297 32.3671 85.9088 32.1461C85.6878 31.9251 85.5125 31.6628 85.3929 31.3741C85.2733 31.0854 85.2118 30.7759 85.2118 30.4634V29.5779C85.2118 28.9468 85.4625 28.3415 85.9088 27.8952C86.355 27.449 86.9603 27.1982 87.5914 27.1982H88.0273C88.6584 27.1982 89.2637 27.449 89.7099 27.8952C90.1562 28.3415 90.4069 28.9468 90.4069 29.5779V30.4634ZM87.7938 27.9413C87.5775 27.9424 87.3636 27.9973 87.1643 28.1028C86.9651 28.2082 86.7843 28.3623 86.6324 28.5561C86.4804 28.7498 86.3603 28.9796 86.2789 29.2322C86.1974 29.4847 86.1562 29.7552 86.1576 30.0281C86.1591 30.3011 86.2031 30.5711 86.2872 30.8228C86.3713 31.0745 86.4938 31.303 86.6478 31.4952C86.8017 31.6873 86.9841 31.8395 87.1845 31.9429C87.3848 32.0463 87.5993 32.0989 87.8156 32.0978C88.0319 32.0966 88.2458 32.0418 88.4451 31.9363C88.6444 31.8308 88.8251 31.6767 88.9771 31.483C89.129 31.2892 89.2491 31.0594 89.3306 30.8069C89.412 30.5543 89.4532 30.2838 89.4518 30.0109C89.4504 29.738 89.4063 29.4679 89.3222 29.2162C89.2382 28.9645 89.1156 28.736 88.9617 28.5439C88.8077 28.3517 88.6253 28.1995 88.425 28.0962C88.2246 27.9928 88.0101 27.9401 87.7938 27.9413Z" fill="#5E5E5E"/>
<path d="M98.4672 27.7248C98.4671 27.7362 98.4706 27.7475 98.4771 27.7569C98.4837 27.7664 98.493 27.7736 98.5038 27.7775C98.5146 27.7815 98.5264 27.7819 98.5374 27.7789C98.5485 27.7759 98.5584 27.7695 98.5657 27.7607C98.6283 27.6865 98.7245 27.5486 98.815 27.486C99.2261 27.1939 99.6866 27.1027 100.197 27.2124C100.223 27.2185 100.246 27.233 100.263 27.2536C100.279 27.2742 100.288 27.2998 100.288 27.326V28.0481C100.288 28.0609 100.285 28.0735 100.28 28.0852C100.275 28.0968 100.267 28.1071 100.257 28.1155C100.247 28.1238 100.236 28.13 100.223 28.1336C100.211 28.1372 100.198 28.1381 100.185 28.1362C99.4583 28.0273 98.4881 28.2661 98.4916 29.1087C98.4954 30.2678 98.4954 31.4586 98.4916 32.6811C98.4916 32.7081 98.4808 32.7341 98.4617 32.7532C98.4426 32.7724 98.4166 32.7831 98.3896 32.7831L97.5712 32.7843C97.5583 32.7843 97.5455 32.7817 97.5335 32.7768C97.5216 32.7718 97.5107 32.7645 97.5016 32.7554C97.4924 32.7462 97.4852 32.7354 97.4802 32.7234C97.4753 32.7115 97.4727 32.6987 97.4727 32.6857L97.4692 27.3585C97.4692 27.3296 97.4808 27.3019 97.5015 27.2814C97.5221 27.261 97.5501 27.2495 97.5793 27.2495H98.3733C98.3982 27.2495 98.4221 27.2593 98.4397 27.2767C98.4573 27.2941 98.4672 27.3177 98.4672 27.3422V27.7248Z" fill="#5E5E5E"/>
<path d="M104.458 31.1497C104.518 31.625 104.846 31.9182 105.443 32.0295C105.969 32.128 106.772 32.0318 106.989 31.4998C107.092 31.2479 107.024 31.0072 106.785 30.7777C106.64 30.6386 106.375 30.5265 105.991 30.4415C105.293 30.2862 104.357 30.1367 103.913 29.5907C103.191 28.7052 103.803 27.713 104.749 27.349C105.973 26.8773 107.676 27.2215 107.997 28.7133C108.003 28.7385 108.003 28.7646 107.996 28.7896C107.99 28.8146 107.979 28.838 107.963 28.858C107.946 28.878 107.926 28.8942 107.903 28.9052C107.879 28.9163 107.854 28.922 107.828 28.9219H107.136C107.09 28.922 107.044 28.9064 107.007 28.8776C106.971 28.8488 106.945 28.8085 106.933 28.7631C106.81 28.267 106.431 28.0032 105.798 27.9715C105.341 27.9483 104.76 28.1337 104.662 28.6159C104.577 29.0286 104.89 29.2813 105.262 29.3972C106.008 29.629 107.809 29.7913 108.018 30.9168C108.118 31.4515 107.981 31.9001 107.607 32.2625C107.068 32.7841 106.331 32.8942 105.57 32.8652C104.527 32.827 103.553 32.2602 103.406 31.1579C103.405 31.1451 103.406 31.1322 103.409 31.1199C103.413 31.1077 103.419 31.0963 103.428 31.0867C103.436 31.077 103.446 31.0693 103.458 31.064C103.469 31.0587 103.482 31.0559 103.494 31.0559H104.352C104.378 31.056 104.403 31.0655 104.423 31.0828C104.442 31.1001 104.454 31.1239 104.458 31.1497Z" fill="#5E5E5E"/>
<path d="M109.263 32.7888C109.241 32.7888 109.22 32.78 109.205 32.7644C109.19 32.7487 109.181 32.7275 109.181 32.7054V27.3468C109.181 27.321 109.191 27.2962 109.209 27.278C109.228 27.2597 109.252 27.2495 109.278 27.2495H110.08C110.106 27.2495 110.13 27.2594 110.148 27.277C110.165 27.2946 110.175 27.3185 110.175 27.3434V27.7004C110.175 27.7121 110.179 27.7236 110.185 27.7335C110.191 27.7434 110.2 27.7512 110.211 27.756C110.222 27.7608 110.234 27.7624 110.245 27.7605C110.257 27.7587 110.268 27.7535 110.276 27.7456C110.769 27.3097 111.373 27.1166 112.088 27.166C112.681 27.207 113.157 27.4635 113.516 27.9357C113.521 27.9427 113.528 27.9485 113.536 27.9525C113.544 27.9565 113.553 27.9587 113.562 27.9589C113.571 27.9592 113.58 27.9574 113.588 27.9538C113.596 27.9502 113.604 27.9448 113.61 27.938C114.107 27.3677 114.771 27.1111 115.602 27.1683C116.343 27.2193 116.858 27.5338 117.145 28.1118C117.284 28.3916 117.344 28.8865 117.325 29.5967C117.32 29.7837 117.319 30.8133 117.322 32.6857C117.322 32.7121 117.312 32.7375 117.293 32.7562C117.275 32.7749 117.249 32.7854 117.223 32.7854H116.403C116.376 32.7854 116.35 32.7746 116.331 32.7555C116.312 32.7364 116.301 32.7104 116.301 32.6834C116.301 30.8319 116.302 29.7118 116.304 29.3231C116.306 28.7633 116.225 28.2196 115.597 28.0539C114.878 27.8649 114.193 28.0666 113.86 28.7412C113.795 28.8726 113.766 29.0936 113.772 29.4042C113.778 29.6917 113.779 30.7863 113.776 32.688C113.776 32.715 113.765 32.741 113.745 32.7601C113.726 32.7793 113.7 32.79 113.672 32.79H112.856C112.83 32.79 112.804 32.7794 112.785 32.7605C112.766 32.7415 112.756 32.7159 112.756 32.6892C112.755 32.4226 112.754 31.2723 112.753 29.2385C112.753 28.776 112.619 28.2973 112.149 28.1095C111.472 27.8371 110.541 28.0122 110.223 28.7401C110.211 28.7676 110.206 28.7967 110.206 28.8258V32.6915C110.206 32.7173 110.195 32.7421 110.177 32.7603C110.159 32.7786 110.135 32.7888 110.109 32.7888H109.263Z" fill="#5E5E5E"/>
<path d="M121.998 29.4263C122.016 29.4268 122.033 29.421 122.047 29.4099C122.061 29.3988 122.07 29.3832 122.073 29.366C122.092 29.2485 122.085 29.0677 122.053 28.8235C121.958 28.113 121.304 27.909 120.655 27.9762C120.106 28.0334 119.759 28.3066 119.612 28.7957C119.609 28.8055 119.603 28.814 119.595 28.8201C119.587 28.8262 119.577 28.8294 119.568 28.8293H118.63C118.626 28.8294 118.622 28.8285 118.618 28.8268C118.614 28.8252 118.611 28.8227 118.608 28.8197C118.605 28.8166 118.603 28.813 118.602 28.809C118.601 28.8051 118.601 28.801 118.601 28.7969C118.654 28.368 118.839 28.0207 119.159 27.7548C120.177 26.9075 122.428 26.8542 122.994 28.3274C123.065 28.5121 123.099 28.856 123.095 29.359C123.088 30.4239 123.09 31.2213 123.101 31.7514C123.105 31.9941 123.171 32.2993 123.299 32.6671C123.304 32.6805 123.305 32.6947 123.303 32.7087C123.301 32.7227 123.296 32.7359 123.288 32.7474C123.28 32.7589 123.269 32.7682 123.257 32.7746C123.244 32.781 123.231 32.7843 123.217 32.7842H122.322C122.28 32.7842 122.24 32.7676 122.21 32.738C122.181 32.7085 122.164 32.6684 122.164 32.6266V32.3669C122.164 32.3501 122.159 32.3337 122.15 32.3195C122.141 32.3054 122.128 32.2941 122.113 32.287C122.098 32.28 122.081 32.2774 122.064 32.2797C122.047 32.2819 122.031 32.2889 122.018 32.2997C121.384 32.8298 120.651 32.994 119.819 32.7923C118.836 32.5524 118.25 31.6448 118.596 30.6538C119.059 29.3266 120.896 29.3961 121.998 29.4263ZM121.983 30.1067C121.429 30.0696 120.884 30.1101 120.349 30.2284C119.135 30.495 119.346 31.9786 120.524 32.0146C121.03 32.03 121.474 31.86 121.855 31.5045C121.995 31.3732 122.068 31.2275 122.071 31.0676C122.081 30.6735 122.079 30.3798 122.064 30.1866C122.063 30.1658 122.054 30.1462 122.039 30.1315C122.024 30.1168 122.004 30.108 121.983 30.1067Z" fill="#5E5E5E"/>
<path d="M125.512 27.7259C125.512 27.7374 125.515 27.7487 125.522 27.7581C125.528 27.7675 125.537 27.7747 125.548 27.7787C125.559 27.7826 125.571 27.7831 125.582 27.7801C125.593 27.7771 125.603 27.7707 125.61 27.7618C125.673 27.6877 125.769 27.5486 125.859 27.486C126.27 27.1939 126.73 27.1027 127.24 27.2124C127.266 27.2185 127.289 27.233 127.306 27.2536C127.322 27.2742 127.332 27.2998 127.331 27.326L127.333 28.0481C127.333 28.0609 127.33 28.0735 127.324 28.0852C127.319 28.0968 127.311 28.1071 127.301 28.1154C127.292 28.1238 127.28 28.13 127.268 28.1336C127.255 28.1372 127.242 28.1381 127.229 28.1362C126.503 28.0284 125.531 28.2672 125.536 29.111C125.541 30.2694 125.542 31.4602 125.539 32.6834C125.539 32.7105 125.529 32.7364 125.51 32.7555C125.49 32.7747 125.465 32.7854 125.437 32.7854L124.618 32.7866C124.592 32.7866 124.567 32.7762 124.548 32.7577C124.53 32.7392 124.519 32.7142 124.519 32.6881L124.514 27.3608C124.514 27.3319 124.525 27.3042 124.546 27.2837C124.567 27.2633 124.595 27.2518 124.624 27.2518L125.417 27.2507C125.429 27.2505 125.441 27.2528 125.453 27.2574C125.464 27.262 125.475 27.2688 125.484 27.2774C125.493 27.2861 125.5 27.2963 125.504 27.3077C125.509 27.319 125.512 27.3311 125.512 27.3434V27.7259Z" fill="#5E5E5E"/>
<path d="M132.886 32.3159C132.881 32.3138 132.875 32.3129 132.87 32.3134C132.864 32.3139 132.859 32.3158 132.854 32.3187C132.849 32.3217 132.846 32.3258 132.843 32.3306C132.841 32.3353 132.839 32.3407 132.839 32.3461V34.7535C132.839 34.7784 132.83 34.8023 132.812 34.8199C132.794 34.8375 132.77 34.8474 132.746 34.8474H131.92C131.892 34.8474 131.866 34.8363 131.846 34.8165C131.826 34.7968 131.815 34.7699 131.815 34.742V27.3573C131.815 27.329 131.826 27.3019 131.846 27.2819C131.866 27.2619 131.893 27.2506 131.921 27.2506H132.678C132.704 27.2506 132.73 27.2609 132.748 27.2792C132.766 27.2974 132.777 27.3222 132.777 27.348V27.7178C132.777 27.7308 132.781 27.7436 132.788 27.7545C132.795 27.7654 132.805 27.774 132.817 27.7791C132.829 27.7842 132.843 27.7856 132.855 27.7831C132.868 27.7807 132.88 27.7745 132.889 27.7653C133.276 27.389 133.745 27.1923 134.296 27.1753C135.524 27.1359 136.288 27.6915 136.59 28.8421C136.986 30.3501 136.681 32.7448 134.656 32.8688C134.225 32.8951 133.806 32.8232 133.399 32.6532C133.194 32.5675 133.033 32.3774 132.886 32.3159ZM132.841 30.0279C132.841 30.8184 132.842 31.2206 132.844 31.2345C132.849 31.263 132.857 31.291 132.868 31.3179C132.936 31.4756 133.037 31.607 133.171 31.712C133.897 32.2823 134.972 32.1838 135.429 31.3295C135.619 30.9733 135.714 30.539 135.714 30.0267C135.714 29.5151 135.619 29.0809 135.429 28.7239C134.972 27.8708 133.897 27.7722 133.171 28.3425C133.037 28.4476 132.936 28.579 132.868 28.7366C132.857 28.7636 132.849 28.7916 132.844 28.8201C132.842 28.834 132.841 29.2366 132.841 30.0279Z" fill="#5E5E5E"/>
<path d="M146.14 27.1639C147.603 27.1569 148.53 28.083 148.767 29.4693C148.78 29.5466 148.787 29.7263 148.789 30.0083C148.79 30.2904 148.784 30.47 148.771 30.5473C148.547 31.9359 147.626 32.8701 146.165 32.8759C144.703 32.8817 143.775 31.9568 143.538 30.5693C143.525 30.492 143.518 30.3124 143.516 30.0303C143.515 29.7491 143.521 29.5694 143.533 29.4913C143.758 28.1027 144.679 27.1697 146.14 27.1639ZM146.142 27.9439C145.926 27.9447 145.711 27.9991 145.511 28.1042C145.311 28.2092 145.13 28.3627 144.977 28.5561C144.825 28.7494 144.704 28.9786 144.622 29.2308C144.54 29.4829 144.498 29.753 144.499 30.0257C144.501 30.5762 144.677 31.1036 144.988 31.4919C145.298 31.8801 145.719 32.0974 146.157 32.0958C146.374 32.0951 146.588 32.0406 146.788 31.9356C146.988 31.8306 147.169 31.677 147.322 31.4837C147.474 31.2904 147.595 31.0612 147.677 30.809C147.759 30.5569 147.801 30.2868 147.8 30.0141C147.798 29.4636 147.622 28.9361 147.312 28.5479C147.001 28.1597 146.58 27.9424 146.142 27.9439Z" fill="#5E5E5E"/>
<path d="M150.873 27.8199C150.873 27.8287 150.875 27.8372 150.88 27.8445C150.885 27.8518 150.892 27.8575 150.9 27.8609C150.908 27.8642 150.917 27.8651 150.926 27.8634C150.934 27.8617 150.942 27.8574 150.948 27.8512C151.459 27.3381 152.089 27.1125 152.838 27.1743C154.304 27.2971 154.502 28.323 154.464 29.6513C154.458 29.8499 154.457 30.8614 154.458 32.6858C154.458 32.7132 154.447 32.7394 154.428 32.7588C154.408 32.7781 154.382 32.789 154.355 32.789L153.534 32.7902C153.508 32.7902 153.483 32.7798 153.465 32.7613C153.446 32.7428 153.436 32.7178 153.436 32.6916C153.433 31.1446 153.435 30.0647 153.44 29.4519C153.446 28.6127 153.311 28.0285 152.397 27.9926C151.801 27.9683 150.912 28.3809 150.915 29.0868C150.917 29.7459 150.918 30.9464 150.917 32.6882C150.917 32.7143 150.907 32.7393 150.888 32.7578C150.87 32.7763 150.845 32.7867 150.818 32.7867H149.992C149.966 32.7867 149.941 32.7763 149.922 32.7578C149.904 32.7393 149.893 32.7143 149.893 32.6882L149.892 27.3574C149.892 27.3297 149.903 27.3032 149.923 27.2837C149.942 27.2641 149.969 27.2531 149.997 27.2531H150.75C150.782 27.2531 150.813 27.2658 150.836 27.2884C150.859 27.311 150.872 27.3417 150.872 27.3736L150.873 27.8199Z" fill="#5E5E5E"/>
<path d="M156.594 30.3953C156.702 31.2959 157.224 31.9995 158.171 32.0632C158.791 32.1042 159.311 31.8847 159.73 31.4049C159.75 31.3807 159.78 31.3654 159.811 31.362C159.843 31.3586 159.875 31.3672 159.901 31.3863L160.357 31.7225C160.369 31.7314 160.379 31.7426 160.386 31.7554C160.394 31.7682 160.399 31.7824 160.401 31.797C160.403 31.8117 160.402 31.8266 160.398 31.8408C160.394 31.8551 160.388 31.8684 160.379 31.8801C159.847 32.5593 159.117 32.8901 158.189 32.8723C156.929 32.848 155.855 32.1084 155.634 30.8647C155.583 30.5711 155.567 30.1878 155.588 29.7149C155.655 28.1883 156.826 27.0571 158.373 27.173C160.085 27.3016 160.534 28.7053 160.496 30.1901C160.495 30.2168 160.484 30.2421 160.465 30.2608C160.445 30.2794 160.42 30.2898 160.393 30.2898H156.687C156.674 30.2899 156.661 30.2927 156.648 30.2982C156.636 30.3037 156.626 30.3117 156.617 30.3217C156.608 30.3317 156.602 30.3434 156.598 30.3561C156.594 30.3687 156.593 30.3821 156.594 30.3953ZM156.737 29.5074L159.433 29.4842C159.439 29.4841 159.445 29.4828 159.45 29.4803C159.455 29.4779 159.46 29.4745 159.464 29.4702C159.469 29.4659 159.472 29.4608 159.474 29.4552C159.476 29.4497 159.477 29.4438 159.477 29.4379V29.3625C159.475 29.178 159.438 28.9957 159.366 28.8259C159.294 28.6561 159.19 28.5022 159.06 28.3729C158.929 28.2436 158.775 28.1416 158.605 28.0725C158.435 28.0034 158.254 27.9688 158.071 27.9704C157.702 27.9738 157.349 28.1248 157.09 28.3905C156.831 28.6561 156.687 29.0144 156.69 29.3869V29.4622C156.69 29.4682 156.692 29.4742 156.694 29.4798C156.696 29.4853 156.7 29.4904 156.704 29.4946C156.708 29.4988 156.713 29.5021 156.719 29.5043C156.725 29.5065 156.731 29.5076 156.737 29.5074Z" fill="#5E5E5E"/>
<path d="M70.4041 27.2493H69.5232C69.4829 27.2493 69.4502 27.282 69.4502 27.3223V32.7075C69.4502 32.7478 69.4829 32.7805 69.5232 32.7805H70.4041C70.4445 32.7805 70.4772 32.7478 70.4772 32.7075V27.3223C70.4772 27.282 70.4445 27.2493 70.4041 27.2493Z" fill="#5E5E5E"/>
<path d="M81.2592 34.8893H80.2751L80.1894 34.8591C80.1721 34.8531 80.1572 34.8417 80.1466 34.8266C80.136 34.8114 80.1303 34.7932 80.1303 34.7745V34.188C80.1303 34.1791 80.132 34.1702 80.1355 34.162C80.1389 34.1538 80.144 34.1463 80.1504 34.14C80.1567 34.1338 80.1643 34.1289 80.1726 34.1255C80.1809 34.1222 80.1897 34.1206 80.1987 34.1208C80.631 34.1231 80.8466 34.1242 81.2592 33.8797C81.2929 33.8606 81.3221 33.8349 81.345 33.8043C81.5042 33.598 81.6514 33.2963 81.7866 32.8991C81.8415 32.736 81.8357 32.5722 81.7692 32.4076C81.4547 31.6295 80.7995 29.9213 79.8034 27.2832C79.8023 27.2802 79.8019 27.277 79.8023 27.2738C79.8027 27.2706 79.8038 27.2676 79.8057 27.265C79.8075 27.2624 79.8099 27.2602 79.8128 27.2587C79.8156 27.2573 79.8187 27.2565 79.8219 27.2565H80.8837C80.8942 27.2565 80.9046 27.2598 80.9132 27.2658C80.9219 27.2718 80.9286 27.2803 80.9324 27.2901L82.2955 31.1581C82.2989 31.1687 82.3056 31.1779 82.3147 31.1845C82.3237 31.191 82.3346 31.1944 82.3457 31.1943C82.3569 31.1942 82.3677 31.1905 82.3766 31.1837C82.3855 31.177 82.392 31.1676 82.3952 31.1569L83.6621 27.2936C83.6657 27.2825 83.6728 27.2729 83.6824 27.266C83.6919 27.2592 83.7035 27.2554 83.7154 27.2554H84.7563C84.7585 27.2555 84.7606 27.2561 84.7625 27.2571C84.7645 27.2581 84.7661 27.2595 84.7674 27.2612C84.7686 27.2629 84.7694 27.2648 84.7697 27.2668C84.77 27.2688 84.7697 27.2709 84.769 27.2728C83.4221 30.9572 82.6305 33.1116 82.394 33.7359C82.18 34.2985 81.8017 34.6829 81.2592 34.8893Z" fill="#5E5E5E"/>
<path d="M95.1279 32.3589C95.1265 32.3502 95.1229 32.342 95.1174 32.3351C95.1119 32.3283 95.1047 32.323 95.0965 32.3197C95.0884 32.3164 95.0795 32.3153 95.0708 32.3165C95.0621 32.3177 95.0538 32.3211 95.0468 32.3264C94.7883 32.5304 94.5321 32.7101 94.2342 32.7785C92.7263 33.1262 91.5521 32.5721 91.5266 30.8903C91.5235 30.6693 91.5231 29.4812 91.5254 27.326C91.5254 27.307 91.533 27.2887 91.5465 27.2752C91.5599 27.2617 91.5782 27.2542 91.5973 27.2542H92.4713C92.4806 27.2541 92.4899 27.256 92.4986 27.2596C92.5072 27.2633 92.5151 27.2686 92.5217 27.2753C92.5282 27.282 92.5334 27.2899 92.5369 27.2986C92.5404 27.3073 92.5421 27.3166 92.542 27.326C92.5373 28.3623 92.5381 29.5519 92.5443 30.8949C92.5489 32.0436 93.5388 32.2256 94.4139 31.8871C94.7122 31.772 94.9274 31.566 95.0595 31.2693C95.0802 31.2227 95.0908 31.1722 95.0908 31.1209V27.3086C95.0908 27.3015 95.0922 27.2944 95.095 27.2878C95.0977 27.2812 95.1017 27.2752 95.1068 27.2701C95.1118 27.265 95.1179 27.261 95.1245 27.2583C95.1311 27.2556 95.1382 27.2542 95.1453 27.2542H96.0552C96.069 27.2542 96.0823 27.2595 96.0921 27.2691C96.1019 27.2787 96.1074 27.2916 96.1074 27.3052V32.688C96.1074 32.7136 96.0972 32.738 96.0792 32.7561C96.0611 32.7741 96.0367 32.7843 96.0112 32.7843H95.216C95.2018 32.7843 95.1878 32.7812 95.175 32.7753C95.1621 32.7693 95.1507 32.7606 95.1415 32.7498C95.1324 32.739 95.1257 32.7263 95.1219 32.7126C95.1182 32.699 95.1174 32.6846 95.1198 32.6707C95.1399 32.5517 95.1426 32.4477 95.1279 32.3589Z" fill="#5E5E5E"/>
</g>
<defs>
<clipPath id="clip0_21_281">
<rect width="161" height="34.8891" fill="white"/>
</clipPath>
</defs>
</svg>
