<svg width="160" height="68" viewBox="0 0 160 68" fill="none" xmlns="http://www.w3.org/2000/svg">
<g clip-path="url(#clip0_21_657)">
<path d="M79.2196 20.9429H88.6107C88.6762 21.466 88.7198 22.011 88.7198 22.4905C88.7198 25.0627 87.89 27.1988 86.2301 28.8772C84.5704 30.5339 82.4519 31.3623 79.8967 31.3623C77.3196 31.3623 75.1357 30.4904 73.3449 28.79C71.5977 27.0898 70.7023 24.9755 70.7023 22.4687C70.7023 19.9838 71.5759 17.8694 73.323 16.1692C75.0701 14.4471 77.2541 13.5752 79.8093 13.5752C81.7749 13.5752 83.5002 14.033 85.0071 14.9267C86.5141 15.8204 87.5624 17.0628 88.1301 18.6978L84.0899 19.8748C83.2599 18.24 81.8185 17.4335 79.8093 17.4335C78.4116 17.4335 77.2541 17.9131 76.3151 18.8721C75.3759 19.8312 74.9173 21.03 74.9173 22.4905C74.9173 23.9292 75.3977 25.1281 76.3369 26.1308C77.2978 27.0898 78.499 27.5694 79.9185 27.5694C82.1243 27.5694 83.7841 26.4359 84.4174 24.5177H79.2196V20.9429Z" fill="#5E5E5E"/>
<path d="M102.303 19.7658C103.657 21.0082 104.334 22.643 104.334 24.6048C104.334 26.5884 103.657 28.2232 102.303 29.4657C100.949 30.7081 99.2891 31.3403 97.3454 31.3403C95.358 31.3403 93.6764 30.7081 92.3004 29.4657C90.9465 28.2232 90.2694 26.5884 90.2694 24.6048C90.2694 22.643 90.9465 21.03 92.3004 19.7658C93.6764 18.5232 95.358 17.8911 97.3454 17.8911C99.2891 17.8911 100.949 18.5232 102.303 19.7658ZM99.5075 26.9808C100.119 26.3486 100.425 25.5639 100.425 24.583C100.425 23.6239 100.119 22.8391 99.4857 22.2289C98.8742 21.5967 98.1534 21.2915 97.3454 21.2915C96.5155 21.2915 95.773 21.5967 95.1396 22.2289C94.5062 22.8391 94.2006 23.6239 94.2006 24.583C94.2006 26.523 95.62 27.8963 97.3672 27.8963C98.1753 27.8963 98.896 27.5912 99.5075 26.9808Z" fill="#5E5E5E"/>
<path d="M110.537 30.97H106.453V12.6599H110.537V30.97Z" fill="#5E5E5E"/>
<path d="M125.935 19.7445C127.158 21.0089 127.77 22.6437 127.77 24.6054C127.77 26.5891 127.158 28.2239 125.935 29.4882C124.733 30.7306 123.27 31.3628 121.523 31.3628C119.929 31.3628 118.596 30.9051 117.548 29.9677V30.9923H113.465V12.6821H117.548V19.2433C118.596 18.3059 119.907 17.8482 121.523 17.8482C123.27 17.8264 124.733 18.4585 125.935 19.7445ZM123.773 24.6054C123.773 22.6655 122.505 21.2922 120.693 21.2922C119.863 21.2922 119.121 21.5974 118.487 22.2295C117.876 22.8616 117.571 23.6463 117.571 24.5836C117.571 25.5428 117.876 26.3275 118.487 26.9815C119.121 27.5917 119.863 27.897 120.693 27.897C122.505 27.897 123.773 26.5455 123.773 24.6054Z" fill="#5E5E5E"/>
<path d="M143.341 18.2183V30.97H139.257V29.9456C138.208 30.8828 136.898 31.3405 135.282 31.3405C133.557 31.3405 132.072 30.7085 130.849 29.466C129.648 28.2018 129.036 26.5668 129.036 24.5833C129.036 22.6214 129.648 21.0084 130.849 19.7224C132.072 18.4581 133.557 17.8259 135.282 17.8259C136.876 17.8259 138.208 18.2837 139.257 19.221V18.2183H143.341ZM138.318 26.981C138.951 26.3489 139.257 25.5642 139.257 24.5833C139.257 23.646 138.951 22.8613 138.318 22.2291C137.706 21.597 136.964 21.2918 136.134 21.2918C134.322 21.2918 133.054 22.665 133.054 24.6051C133.054 26.5668 134.322 27.9183 136.134 27.9183C136.964 27.8965 137.706 27.5914 138.318 26.981Z" fill="#5E5E5E"/>
<path d="M157.865 19.3083C158.781 20.2674 159.24 21.5534 159.24 23.1447V30.9701H155.2V23.9948C155.2 22.4907 154.304 21.4881 153.016 21.4881C151.356 21.4881 150.373 22.6216 150.373 25.0411V30.9701H146.29V18.2184H150.373V19.4391C151.399 18.371 152.688 17.8478 154.304 17.8478C155.789 17.826 156.991 18.3274 157.865 19.3083Z" fill="#5E5E5E"/>
<path d="M85.5545 39.2313H80.0291V52.5933H75.8578V39.2313H70.3324V35.5693H85.5545V39.2313Z" fill="#5E5E5E"/>
<path d="M95.7755 39.754L95.6007 43.8302H94.8582C91.9318 43.8302 90.4467 45.4214 90.4467 48.604V52.5929H86.3627V39.8412H90.4467V42.2825C91.4949 40.5387 92.9582 39.6668 94.8582 39.6668C95.2076 39.645 95.5134 39.6886 95.7755 39.754Z" fill="#5E5E5E"/>
<path d="M110.255 39.8418V52.5935H106.171V51.569C105.123 52.5063 103.812 52.9641 102.196 52.9641C100.471 52.9641 98.9858 52.3319 97.7628 51.0894C96.5616 49.8252 95.9501 48.1904 95.9501 46.2067C95.9501 44.245 96.5616 42.632 97.7628 41.3459C98.9858 40.0815 100.471 39.4495 102.196 39.4495C103.79 39.4495 105.123 39.9072 106.171 40.8445V39.82H110.255V39.8418ZM105.232 48.6045C105.865 47.9723 106.171 47.1876 106.171 46.2067C106.171 45.2694 105.865 44.4847 105.232 43.8526C104.62 43.2204 103.878 42.9153 103.048 42.9153C101.235 42.9153 99.9685 44.2886 99.9685 46.2285C99.9685 48.1904 101.235 49.5418 103.048 49.5418C103.878 49.52 104.62 49.2148 105.232 48.6045Z" fill="#5E5E5E"/>
<path d="M126.022 34.2834V52.5935H121.938V51.569C120.89 52.5064 119.58 52.9641 117.964 52.9641C116.238 52.9641 114.753 52.3319 113.53 51.0895C112.328 49.8252 111.718 48.1904 111.718 46.2068C111.718 44.245 112.328 42.6319 113.53 41.3458C114.753 40.0816 116.238 39.4495 117.964 39.4495C119.558 39.4495 120.89 39.9073 121.938 40.8445V34.2834H126.022ZM120.999 48.6046C121.633 47.9724 121.938 47.1877 121.938 46.2068C121.938 45.2694 121.633 44.4847 120.999 43.8527C120.388 43.2205 119.645 42.9153 118.815 42.9153C117.002 42.9153 115.736 44.2886 115.736 46.2286C115.736 48.1904 117.002 49.5418 118.815 49.5418C119.645 49.52 120.388 49.2148 120.999 48.6046Z" fill="#5E5E5E"/>
<path d="M140.853 47.2531H131.483C131.812 48.7788 132.881 49.7162 134.236 49.7162C135.502 49.7162 136.419 49.2366 136.966 48.234L140.591 48.9751C139.499 51.6126 137.228 52.9641 134.257 52.9641C132.379 52.9641 130.764 52.3319 129.475 51.0894C128.186 49.8252 127.509 48.1904 127.509 46.2067C127.509 44.245 128.164 42.632 129.475 41.3459C130.764 40.0815 132.379 39.4495 134.279 39.4495C136.136 39.4495 137.687 40.0597 138.931 41.3023C140.176 42.5448 140.831 44.1796 140.875 46.2067V47.2531H140.853ZM131.571 44.7681H136.835C136.464 43.4385 135.48 42.7627 134.257 42.7627C133.078 42.7627 131.942 43.5256 131.571 44.7681Z" fill="#5E5E5E"/>
<path d="M58.8007 16.7794L51.7465 12.7033C51.3971 12.507 50.9821 12.507 50.6545 12.7033L29.4702 24.91C29.1208 25.1061 28.9243 25.4767 28.9243 25.8691V33.9997C28.9243 34.392 29.1426 34.7626 29.4702 34.9588L36.5244 39.0349C36.699 39.1439 36.8956 39.1875 37.0703 39.1875C37.2669 39.1875 37.4416 39.1439 37.6163 39.0349L43.0325 35.9178V41.5199L30.0161 49.0183L16.9781 41.4981V26.5012L37.5945 14.6214C37.9439 14.4253 38.1404 14.0547 38.1404 13.6624V5.53178C38.1404 5.13942 37.9221 4.76886 37.5945 4.57268L30.5403 0.4965C30.1909 0.30032 29.776 0.30032 29.4484 0.4965L1.20993 16.7577C0.860496 16.9538 0.66394 17.3244 0.66394 17.7167V50.2607C0.66394 50.6532 0.882335 51.0238 1.20993 51.2199L29.4484 67.481C29.623 67.5901 29.8196 67.6337 29.9943 67.6337C30.1691 67.6337 30.3656 67.5901 30.5403 67.481L58.7787 51.2199C59.1282 51.0238 59.3248 50.6532 59.3248 50.2607V17.7385C59.3466 17.3462 59.1282 16.9756 58.8007 16.7794ZM51.1786 14.9267L56.027 17.7167L37.0703 28.6592L32.2219 25.8691L51.1786 14.9267ZM35.9565 36.1795L31.1081 33.3893V27.7873L34.7553 29.8799L35.9783 30.5774V36.1795H35.9565ZM50.0866 31.8417V44.31L48.8418 43.5907L45.2383 41.5199V34.6536L50.0866 31.8417ZM30.5622 51.2199L44.1245 43.3945L48.9728 46.1846L36.3278 53.4651L29.9943 57.1053L23.661 53.4651L11.0159 46.1846L15.8642 43.3945L29.4265 51.2199C29.7978 51.4161 30.2127 51.4161 30.5622 51.2199ZM35.9565 13.0302L15.34 24.91C14.9906 25.1061 14.7941 25.4767 14.7941 25.8691V41.4981L9.94572 44.2882V22.4468L29.2955 11.3082L35.9783 7.44999V13.0302H35.9565ZM30.0161 2.74166L34.8645 5.53178L8.8319 20.5287L3.98354 17.7385L30.0161 2.74166ZM2.86972 19.6349L7.71809 22.425V46.2064C7.71809 46.5988 7.93648 46.9693 8.26408 47.1656L28.8805 59.0453V64.6473L2.84789 49.6505V19.6349H2.86972ZM31.1081 64.6473V59.0453L51.7247 47.1656C52.0741 46.9693 52.2706 46.5988 52.2706 46.2064V29.9453C52.2706 29.5529 52.0522 29.1824 51.7247 28.9861C51.3752 28.79 50.9603 28.79 50.6327 28.9861L38.1623 36.1795V30.5774L57.1408 19.6349V49.6287L31.1081 64.6473Z" fill="#5E5E5E"/>
</g>
<defs>
<clipPath id="clip0_21_657">
<rect width="159.746" height="68" fill="white"/>
</clipPath>
</defs>
</svg>
