<svg width="162" height="38" viewBox="0 0 162 38" fill="none" xmlns="http://www.w3.org/2000/svg">
<path fill-rule="evenodd" clip-rule="evenodd" d="M138.503 12.6229C141.474 11.2155 144.856 11.3317 148.003 10.1567C149.401 9.6273 149.926 8.10367 149.17 6.04743C147.423 3.28748 145.324 3.81687 141.769 4.11062C144.917 5.45993 144.218 9.97915 140.137 10.4504C136.583 10.5666 135.884 8.27799 135.942 6.04743C136.234 1.70252 140.429 0.353215 144.333 0.00136177C147.013 0.00136177 154.125 -0.176179 155.699 3.52312C156.455 5.40183 156.689 7.86803 156.689 10.1567V19.7245C156.923 20.9576 159.08 20.8995 159.08 19.6664V15.5572H161.936C162.113 20.4863 162.286 23.8919 157.1 24.9474C153.894 25.1831 151.564 24.5956 149.465 22.0713C146.026 24.5375 144.045 25.5931 139.907 24.7118C134.371 23.4787 133.262 15.144 138.509 12.6197M149.17 13.7366L149.228 16.9065C148.994 21.7194 143.109 22.1294 142.468 18.6076C141.769 15.4958 147.247 14.2627 149.17 13.7366ZM68.3882 4.81433C64.5997 4.99187 63.6092 5.63747 63.5515 7.39674L63.6092 22.2456C63.7246 29.4053 57.8398 31.284 53.0608 31.284C48.3972 31.1678 45.2496 29.4053 43.6182 25.6479C42.8617 22.4199 43.3265 19.1338 47.2305 18.4882C51.1345 17.7264 54.048 24.063 49.6793 25.9998C49.8556 27.7009 54.3429 28.2884 54.4583 24.8248V6.81247C54.516 3.87821 51.253 4.58191 49.3876 4.4657V0.414547H68.3882V4.81756V4.81433ZM135.413 20.6058V24.715L121.483 24.7731V20.722C123.99 20.6639 124.746 19.547 124.746 17.8458C124.746 11.916 125.038 6.98678 123.288 6.22497C120.316 4.69812 117.226 5.87312 116.528 9.63052V17.4359C116.528 20.1345 117.284 20.4896 119.326 20.6639V24.715L106.329 24.7731V20.722C108.543 20.6639 109.242 19.4889 109.361 17.4359V8.57174C109.303 6.45739 108.37 5.51804 106.213 5.34372C102.367 5.63747 101.611 7.22243 101.726 10.3342L101.784 17.4359C101.899 20.1345 102.832 20.6639 104.639 20.722V24.7118H90.4178V20.722C92.575 20.7801 94.2064 20.6639 94.2064 18.4333V7.45807C94.1487 5.16941 92.575 5.57937 90.6518 5.52126L90.7095 1.06015H101.607V3.75877C104.172 0.414548 110.701 -0.818553 115.246 3.29071C116.351 5.0532 116.121 4.11385 117.46 3.2326C121.714 -0.0535143 127.076 -0.172951 130.281 3.2326C132.089 5.0532 131.563 7.34186 131.621 9.68863V17.6134C131.855 20.4896 133.951 20.6058 135.41 20.6058H135.413ZM77.9463 25.7706C60.4617 25.5349 61.8592 0.58886 78.7636 0.472652C96.4245 0.414547 97.2386 26.4743 77.9463 25.7706ZM79.4046 4.99187C86.5139 5.16941 85.8728 21.487 79.6386 21.6032C71.7698 21.8389 71.7121 5.16941 79.4046 4.99187Z" fill="#5E5E5E"/>
<path fill-rule="evenodd" clip-rule="evenodd" d="M1.80486 14.2076C1.80486 14.4917 1.8273 14.5949 1.87217 14.9629C1.86576 15.3342 1.16061 15.6634 0.497125 16.5511C-0.0637917 17.8875 1.19907 18.2749 2.09333 18.8624C2.30808 18.0715 2.73438 17.8197 3.27286 17.3162C3.75685 17.1225 6.59349 16.5188 7.92366 17.9908C9.70257 19.7888 6.70567 21.3028 4.23443 23.7851C2.14141 22.2389 1.29523 20.6313 0.000313129 23.7109C-0.00930258 24.4242 0.202243 25.0795 0.676618 25.4023L1.73755 24.6534L3.01324 25.78L2.29526 26.7065C3.34017 28.2624 4.97484 26.6968 5.67038 25.8252L7.00696 26.8743L9.52949 24.5017C12.1257 23.0459 14.9047 24.1144 15.4816 26.771L15.4399 37.2911L17.4785 35.2478C17.6195 34.996 17.9945 34.8023 17.6355 34.0889C18.2221 34.4989 18.3439 34.2406 18.6869 33.963L19.8888 32.7622C20.0619 32.6266 20.3504 32.065 20.0491 31.6615C20.6356 32.0133 20.9818 31.6195 21.1581 31.3935L22.2767 30.1637L22.2959 17.5098C24.1678 17.342 25.8281 17.5098 27.2737 16.8287C28.9276 15.8377 29.2673 15.9023 30.6776 14.3077C31.0559 13.8009 31.6617 13.2715 31.0527 12.2643C31.9726 12.7614 32.8316 12.1546 33.1232 11.7349L34.7034 10.1371C34.7611 10.1371 35.4535 9.21062 34.8188 8.29387C35.572 8.87491 36.4631 8.06791 36.6714 7.67086L39.085 5.26599C39.194 5.27245 39.7421 4.62039 39.3029 3.91022C39.9183 4.14587 40.4568 3.87472 40.5209 3.61647L43.3928 0.708035L10.7827 0.691895C7.90123 0.837155 6.42682 3.12904 8.50381 5.3822L13.9463 10.7633C11.2347 10.773 6.84029 10.3501 4.17033 10.9312C2.6863 12.1578 1.82409 12.3708 1.80166 13.8977L4.41393 11.6123L4.28251 13.1843L2.6222 13.5039L1.79525 14.2076H1.80486Z" fill="#5E5E5E"/>
</svg>
