<svg width="445" height="47" viewBox="0 0 445 47" fill="none" xmlns="http://www.w3.org/2000/svg">
<path d="M304.7 0.791992C305.129 0.770213 305.553 0.898388 305.898 1.15527L305.897 1.15625C306.118 1.321 306.422 1.63253 306.774 2.02051C307.143 2.4289 307.615 2.97821 308.188 3.66504C308.72 4.3004 309.435 5.03312 310.338 5.86426C315.15 10.2851 319.093 14.7687 318.693 21.9629C318.465 26.0633 316.938 29.7108 314.14 32.8838L313.864 33.1895C312.093 35.1192 310.761 36.5701 309.87 37.541C308.982 38.5086 308.548 38.9813 308.535 38.9951L308.522 39.0117L308.506 39.0273C307.633 39.9405 306.759 40.6743 305.88 41.2129L305.879 41.2119C305.459 41.4699 304.968 41.5891 304.477 41.5488C303.985 41.5085 303.518 41.3119 303.147 40.9863V40.9854C300.967 39.0927 298.941 37.2361 297.066 35.416L296.271 34.6387C292.348 30.7669 290.527 26.1506 290.854 20.8389C291.19 15.3234 294.082 10.2464 297.923 6.59473C301.029 3.63912 302.906 1.86405 303.543 1.27637L303.547 1.27246C303.864 0.983995 304.272 0.81379 304.7 0.791992ZM301.304 9.50781H301.302C298.838 10.4111 297.544 12.3544 297.187 14.6133C296.825 16.902 297.436 19.4937 298.811 21.5234V21.5244C300.759 24.4033 302.465 26.2855 305.3 29.415H305.299C306.34 30.5621 307.177 31.8331 307.814 33.2236C309.716 31.9151 311.146 30.2648 312.114 28.2646C312.326 27.8227 312.495 27.2078 312.559 26.5869C312.624 25.9506 312.569 25.416 312.431 25.0918L312.429 25.0889C311.398 22.6409 309.624 20.1038 307.773 17.7695C306.85 16.607 305.918 15.5054 305.06 14.499C304.207 13.4984 303.418 12.581 302.802 11.8057V11.8047C302.616 11.5786 302.454 11.3329 302.319 11.0713L302.318 11.0693L301.572 9.61523L301.523 9.55078C301.503 9.53306 301.48 9.5194 301.455 9.50977C301.406 9.49048 301.352 9.49006 301.304 9.50781Z" fill="#C6272C" stroke="white" stroke-width="1.5789"/>
<path d="M5.15018 6.39355C8.1079 3.07008 12.5596 1.42232 16.8455 1.5918C21.1409 1.76172 25.3502 3.76376 27.741 7.83496H27.74C28.7803 9.60603 29.4689 11.2633 29.7732 12.8008H29.7742C29.7781 12.8188 29.7874 12.8361 29.8025 12.8496C30.0029 13.0125 30.2788 13.1358 30.6678 13.1895H30.6668C30.8887 13.2198 31.1022 13.2946 31.2947 13.4092C31.4873 13.5239 31.6545 13.6765 31.7869 13.8574C31.9193 14.0383 32.0141 14.2437 32.0652 14.4619C32.1163 14.6801 32.123 14.9062 32.0847 15.127L32.0828 15.1406L32.0408 15.3613L32.0398 15.3604C31.9702 15.737 31.7721 16.0782 31.4783 16.3242C31.1829 16.5715 30.8098 16.7071 30.4246 16.708H19.3865C18.9636 16.708 18.5576 16.5403 18.2586 16.2412C17.9596 15.9422 17.7918 15.5362 17.7918 15.1133V14.5928C17.7918 14.3942 17.8307 14.197 17.907 14.0137C17.9833 13.8305 18.0953 13.6642 18.2361 13.5244L18.3465 13.4248C18.4616 13.3311 18.5903 13.2545 18.7283 13.1982C18.9117 13.1234 19.1083 13.0857 19.3064 13.0869H19.3074C19.6468 13.0892 19.8847 13.0381 20.0506 12.9697C20.0725 10.8802 19.6022 8.99069 18.6453 7.28418C18.0219 6.17621 17.086 5.51807 16.1277 5.33398C15.1826 5.15245 14.1363 5.4152 13.2215 6.30566C11.8637 7.63235 11.0718 9.38312 10.8787 11.6182C10.3949 17.2091 10.8284 22.641 12.1775 27.917L12.365 28.668C13.2466 32.2937 13.5885 35.2888 13.114 38.7012C13.422 38.7073 13.7785 38.6221 14.1844 38.4248C14.6872 38.1803 15.214 37.7907 15.7283 37.3096C16.7606 36.3439 17.6409 35.1063 18.0799 34.2598L18.0808 34.2588C19.3699 31.788 20.0506 29.1431 20.1228 26.3154L18.8582 26.0908V26.0898C18.6113 26.0464 18.3832 25.9283 18.2058 25.751C18.0273 25.5723 17.9086 25.3427 17.866 25.0938V25.0928C17.7305 24.3645 17.7337 23.6161 18.116 23.0332C18.2385 22.8448 18.4053 22.6897 18.6013 22.5811L18.7537 22.5078C18.9102 22.4447 19.0776 22.4111 19.2469 22.4082H19.2576L30.1404 22.377C30.6043 22.3751 31.0542 22.5357 31.4119 22.8311C31.7695 23.1264 32.0125 23.5374 32.0984 23.9932L32.1023 24.0146L32.1238 24.1465H32.1219C32.1984 24.5796 32.1087 25.0254 31.868 25.3936C31.6232 25.7678 31.2432 26.0329 30.8084 26.1348L30.8035 26.1357L29.9588 26.3271C29.6508 29.4735 28.4927 32.2514 26.4832 34.6396L26.0594 35.123C21.9194 39.6763 16.7561 42.1817 10.4168 41.1445C9.99602 41.0756 9.6125 40.8601 9.33572 40.5352C9.05966 40.2111 8.90808 39.7992 8.90799 39.373L8.8992 38.9678C8.82209 37.0804 8.24349 35.2737 7.14529 33.5381L6.90213 33.167C5.37295 30.912 3.99334 28.7701 2.76443 26.7432L2.76346 26.7422C1.43831 24.5476 0.870977 21.8102 0.797638 19.1436C0.724167 16.4713 1.14438 13.8001 1.86014 11.6914L1.86111 11.6904C2.46229 9.92851 3.57219 8.16336 5.15018 6.39355Z" fill="#C6272C" stroke="white" stroke-width="1.5789"/>
<path d="M61.5426 1.5415C62.0407 1.54158 62.5185 1.73911 62.8707 2.09131C63.2231 2.44366 63.4215 2.92209 63.4215 3.42041V3.62549C63.4214 4.0651 63.246 4.48651 62.9352 4.79736C62.6243 5.10818 62.2029 5.28271 61.7633 5.28271H59.8727C60.4003 7.92606 60.9982 10.3203 61.6686 12.4663C62.4364 14.9023 63.2132 17.9376 63.5436 19.8091C63.5624 19.8748 63.6742 20.2672 63.901 21.0552C64.1429 21.8958 64.502 23.1406 64.9791 24.7896C65.547 26.7507 66.0132 28.8579 66.5182 30.8628C67.0289 32.8906 67.5877 34.8504 68.3561 36.6265L68.359 36.6323C68.3659 36.6486 68.3775 36.6627 68.3922 36.6724C68.4068 36.6819 68.4236 36.687 68.441 36.687H70.0319C70.2767 36.6871 70.5189 36.7389 70.7428 36.8384C70.9668 36.9379 71.1675 37.0838 71.3317 37.2661C71.4959 37.4484 71.6206 37.6632 71.6959 37.897C71.7712 38.1306 71.7962 38.3776 71.7692 38.6216L71.7682 38.6206L71.7535 38.769L71.7516 38.7681C71.7198 39.1967 71.5327 39.5994 71.2203 39.896C70.9383 40.1639 70.5751 40.3273 70.191 40.3638L70.025 40.3716L57.5573 40.3501H57.5553C57.0856 40.3483 56.6349 40.1663 56.2955 39.8423C55.9597 39.5216 55.7581 39.0862 55.7291 38.6235V38.6245L55.7184 38.4829L55.7174 38.4751V38.4673C55.6931 38.0243 55.8436 37.5897 56.1364 37.2563C56.4293 36.9229 56.8412 36.717 57.2838 36.6841H57.2848L59.2106 36.5435C59.1623 36.1582 59.0436 35.6134 58.8317 34.8882V34.8872C57.6107 30.7442 56.9402 28.4178 56.8492 27.9897V27.9907C56.7883 27.7079 56.7337 27.4331 56.6852 27.1665C56.5482 27.5329 56.3939 27.9451 56.2242 28.4038L55.3102 30.8901C54.7405 32.4503 54.0477 33.8378 53.2272 35.0464V35.0474C52.1311 36.6577 50.979 38.3319 49.5299 39.4751C48.0288 40.6592 46.2101 41.276 43.8492 40.8149V40.814C42.0707 40.4689 40.8918 39.4401 40.1998 38.0571C39.5268 36.7118 39.3261 35.0628 39.3785 33.4224C39.4833 30.1436 40.6114 26.5793 41.5905 24.7017C42.0584 23.8041 42.4365 22.9294 42.8483 22.0132C43.2563 21.1052 43.692 20.1691 44.2565 19.2046C46.9642 14.5538 48.9167 11.1502 50.1158 8.98975C50.7478 7.85099 50.9882 6.67027 50.8522 5.42725V5.42627C50.8474 5.3887 50.8296 5.35393 50.8014 5.32861C50.7725 5.30276 50.7347 5.28859 50.6959 5.28857H48.4518C48.2127 5.28817 47.9767 5.23587 47.7594 5.13623C47.542 5.03655 47.3483 4.8914 47.192 4.71045C47.0358 4.52953 46.9202 4.31688 46.8531 4.0874C46.7862 3.85799 46.769 3.61686 46.8033 3.38037L46.8043 3.37451L46.8405 3.13623L46.8727 2.97217C46.9636 2.59431 47.1704 2.25203 47.4664 1.99561C47.8047 1.70267 48.2373 1.54136 48.6852 1.5415H61.5426ZM52.8004 12.439C50.6368 15.7857 48.784 19.3371 47.2418 23.0933H47.2408C46.3252 25.3179 45.9617 27.4721 46.1285 29.5649L46.1696 29.9829L46.192 30.146C46.3255 30.9314 46.7346 31.2757 47.1823 31.4077C47.7278 31.5685 48.494 31.456 49.2291 31.0044L49.2311 31.0034C49.7474 30.688 50.2464 30.1748 50.7115 29.4165L50.7125 29.4155C52.8177 25.9993 54.0455 22.5737 54.4205 19.1343L54.4215 19.1245C54.4338 19.0229 54.4271 18.9177 54.4 18.8149L54.3981 18.8062L52.8004 12.439Z" fill="#C6272C" stroke="white" stroke-width="1.5789"/>
<path d="M106.181 2.13232C107.815 1.27696 109.749 1.33787 112.012 2.35303H112.013C112.448 2.54912 112.8 2.89412 113.003 3.32568C113.207 3.75598 113.249 4.24432 113.124 4.70361L113.126 4.70459C112.684 6.3489 112.494 8.25465 112.573 10.4321L112.569 10.5933C112.554 10.7532 112.509 10.9094 112.435 11.0532C112.336 11.2452 112.19 11.4083 112.01 11.5269C111.831 11.6454 111.625 11.7162 111.412 11.7329C111.199 11.7496 110.984 11.7116 110.79 11.6235L110.786 11.6216C110.245 11.3728 109.875 11.1776 109.416 10.9751C108.993 10.7885 108.634 10.6627 108.308 10.6138C107.996 10.5669 107.719 10.5912 107.445 10.7046C107.163 10.8209 106.83 11.054 106.447 11.5112V11.5122C105.635 12.4788 105.132 13.3123 104.887 14.0161V14.0171C104.233 15.8906 103.479 18.6676 102.692 21.644C101.909 24.6043 101.096 27.7513 100.331 30.3188C99.5299 33.015 98.9958 35.0427 98.7202 36.4165C99.0477 36.5897 99.3958 36.7742 99.7642 36.9692H99.7632C100.004 37.0954 100.218 37.2714 100.386 37.4858C100.556 37.7018 100.678 37.9539 100.739 38.2241C100.8 38.4947 100.799 38.7772 100.729 39.0493C100.659 39.3218 100.525 39.5732 100.334 39.7808L100.332 39.7817C99.9121 40.235 99.3315 40.3854 98.7544 40.3813V40.3823C96.0103 40.3718 93.3277 40.3769 90.7066 40.3979L90.7056 40.397C90.3054 40.4002 89.9162 40.2681 89.6021 40.02C89.2877 39.7717 89.0674 39.4232 88.9781 39.0327L81.5152 6.4126V6.41162C81.4991 6.34623 81.4613 6.28865 81.4097 6.24756C81.3703 6.21622 81.3242 6.19613 81.2759 6.18799L81.2271 6.18311H78.9273C78.471 6.18311 78.0338 6.00125 77.7124 5.67822C77.3912 5.35513 77.2115 4.9174 77.2115 4.4624V4.03076C77.2115 3.5927 77.3852 3.17262 77.6949 2.86279C78.0048 2.55288 78.4255 2.37842 78.8638 2.37842H92.2163C92.6207 2.37801 93.0098 2.53105 93.3062 2.80615C93.6031 3.08183 93.785 3.45966 93.814 3.86377H93.813L93.8658 4.521L93.8667 4.52881C93.8928 4.90246 93.7692 5.2711 93.524 5.5542C93.2787 5.83723 92.9316 6.01108 92.5581 6.03857L90.5474 6.18896L96.0894 30.395C97.0607 27.4287 97.784 24.6948 98.2554 22.1899C98.5486 20.6203 99.0053 18.7204 99.6226 16.4946L99.9009 15.4282C100.194 14.2511 100.533 12.7399 100.917 10.8911C101.116 9.93172 101.682 8.46135 102.566 6.52881L102.736 6.16748C103.601 4.37892 104.693 2.91167 106.181 2.13232Z" fill="#C6272C" stroke="white" stroke-width="1.5789"/>
<path d="M167.555 1.5415C168.048 1.54155 168.52 1.73708 168.869 2.08545C169.217 2.43385 169.413 2.90624 169.413 3.39893V3.71436C169.413 4.14426 169.242 4.55684 168.938 4.86084C168.634 5.16484 168.222 5.33545 167.792 5.33545H165.666C165.967 6.55893 166.339 7.70584 166.707 8.87354C167.108 10.1465 167.503 11.4419 167.757 12.8179C168.082 14.5756 168.669 16.5397 169.259 18.5132C169.842 20.4615 170.433 22.4299 170.727 24.1196L170.808 24.4888C171.095 25.6961 172.068 29.3269 173.753 35.4468C174.008 36.3751 174.25 36.4801 174.355 36.519C174.46 36.5577 174.613 36.5821 174.893 36.5884C175.099 36.593 175.57 36.5848 175.922 36.5981H175.921C176.319 36.6098 176.7 36.7677 176.99 37.0425C177.283 37.32 177.462 37.6979 177.49 38.1011H177.489L177.537 38.7056V38.7095C177.553 38.9276 177.524 39.1468 177.451 39.353C177.378 39.5592 177.263 39.7478 177.114 39.9077C176.965 40.0677 176.784 40.1958 176.584 40.2827C176.384 40.3694 176.168 40.4129 175.95 40.4126V40.4136H163.366C162.892 40.4136 162.437 40.2257 162.1 39.8911C161.764 39.5566 161.573 39.1027 161.571 38.6284V38.4819C161.57 38.2347 161.617 37.9895 161.71 37.7603L161.788 37.5903C161.874 37.425 161.985 37.2726 162.117 37.1392C162.292 36.9612 162.501 36.8198 162.732 36.7231C162.963 36.6265 163.21 36.5766 163.461 36.5767H164.981C164.401 33.4619 163.621 30.3277 162.636 27.1743C162.467 27.9585 162.197 28.7667 161.831 29.5962L161.83 29.5952C160.285 33.1123 159.095 35.6917 156.495 38.5815L156.496 38.5825C154.792 40.4832 152.583 41.253 149.971 40.9009C148.099 40.6476 146.802 39.3619 146.039 37.8745C145.279 36.3929 144.988 34.6111 145.167 33.1147C145.4 31.1455 145.694 29.6361 146.07 28.6401C146.868 26.5 147.743 23.9463 148.866 21.7866C150.931 17.8144 153.129 13.9615 155.46 10.228C156.435 8.6647 156.825 7.03314 156.656 5.30908H154.545C154.108 5.30897 153.689 5.13547 153.381 4.82666C153.072 4.51773 152.898 4.09852 152.898 3.66162V3.23096C152.898 2.78289 153.075 2.35247 153.392 2.03564C153.709 1.71882 154.139 1.5415 154.588 1.5415H167.555ZM158.646 12.6675L158.645 12.6685C157.647 14.2173 155.26 18.1947 153.578 22.1782C152.735 24.1747 152.088 26.1272 151.865 27.7544C151.635 29.4283 151.886 30.5016 152.488 31.0522L152.49 31.0542C152.877 31.4106 153.484 31.5472 154.173 31.4214C154.865 31.2952 155.495 30.9259 155.841 30.478C157.052 28.9081 158.043 27.3247 158.721 25.4038C159.468 23.2824 160.032 21.3641 160.417 19.647V19.645C160.474 19.3925 160.469 19.126 160.399 18.8696V18.8687L158.696 12.5942C158.679 12.6179 158.662 12.6421 158.646 12.6675Z" fill="#C6272C" stroke="white" stroke-width="1.5789"/>
<path d="M383.673 2.36182C387.939 0.910171 391.984 1.3883 395.733 3.79736L395.734 3.79834C397.187 4.73428 398.566 6.12906 399.512 7.74463C400.457 9.35823 401.002 11.2502 400.679 13.1538C400.622 13.497 400.445 13.8082 400.179 14.0317C399.947 14.2272 399.661 14.3451 399.362 14.3716L399.233 14.3774H393.438C393.02 14.3775 392.618 14.215 392.318 13.9243C392.018 13.6337 391.841 13.2375 391.828 12.8198C391.783 11.499 391.648 9.46735 391.104 7.78857C390.545 6.06437 389.699 5.08998 388.433 5.09912C387.719 5.10487 387.07 5.48954 386.55 6.14795C386.027 6.81087 385.695 7.68326 385.625 8.46924V8.47021C385.308 11.97 385.291 14.9312 385.56 17.3638L385.581 17.5161C385.837 19.0757 387.285 19.9719 389.418 20.3364H389.419C394.084 21.1377 398.457 22.253 400.704 27.105L400.915 27.5864L400.916 27.5874C401.523 29.0636 401.829 30.3707 401.723 31.4585C401.548 33.2631 401.066 35.3254 400.168 37.103C399.271 38.8766 397.915 40.4519 395.956 41.105L395.955 41.104C391.761 42.5098 388.032 41.5148 384.362 40.1724L383.628 39.8999C382.577 39.5036 381.913 39.4406 381.507 39.5132C381.159 39.5755 380.953 39.7441 380.795 40.0396C380.614 40.3797 380.502 40.8854 380.448 41.5688C380.394 42.2445 380.402 42.9969 380.402 43.8081C380.402 44.0164 380.359 44.2226 380.276 44.4136C380.192 44.6056 380.069 44.7779 379.915 44.9194C379.76 45.061 379.579 45.1685 379.38 45.2358C379.184 45.3026 378.976 45.3276 378.769 45.3101V45.311C377.268 45.1884 376.108 45.3694 375.239 45.7876V45.7886C375.014 45.8964 374.769 45.9543 374.52 45.9595C374.271 45.9647 374.024 45.9168 373.795 45.8188C373.567 45.7209 373.362 45.5752 373.194 45.3921C373.026 45.209 372.899 44.9922 372.821 44.7563L372.82 44.7534C372.19 42.8293 372.219 40.913 372.914 39.0347L372.915 39.0337C373.837 36.5503 375.37 35.235 377.318 34.8306C379.179 34.4443 381.29 34.92 383.357 35.6597C384.228 35.9717 385.734 36.4524 387.888 37.105V37.106C388.712 37.3559 389.271 37.2825 389.668 37.0933C390.078 36.8976 390.43 36.5233 390.727 35.9634C391.339 34.8124 391.577 33.1632 391.732 31.7593L391.784 31.187C391.875 29.8741 391.767 28.7212 391.475 27.7183C390.881 25.6724 389.867 24.752 388.605 24.2378C387.578 23.8192 386.389 23.6623 385.001 23.5034L383.546 23.3345C382.563 23.2129 381.302 22.7575 379.801 22.0356C377.088 20.7306 375.79 18.1538 375.433 15.4868C375.078 12.8307 375.632 9.97069 376.74 7.86768L376.741 7.8667C378.107 5.28433 380.451 3.46132 383.672 2.36182H383.673Z" fill="#C6272C" stroke="white" stroke-width="1.5789"/>
<path d="M421.406 2.36377C426.446 0.870999 431.247 1.41441 435.756 4.00244H435.757C437.508 5.01009 438.983 6.67454 440.208 8.92139L440.449 9.37939L440.451 9.38232C440.5 9.47892 440.582 9.55347 440.68 9.59424L440.857 9.65186C441.058 9.70534 441.337 9.74672 441.709 9.76123H441.71C442.156 9.77886 442.578 9.9679 442.887 10.2896C443.196 10.6113 443.369 11.0406 443.368 11.4868V11.8071L443.36 11.9829C443.342 12.1577 443.298 12.3294 443.23 12.4917C443.138 12.708 443.004 12.9035 442.835 13.0669C442.666 13.2304 442.466 13.3582 442.246 13.4429C442.028 13.5271 441.796 13.5663 441.562 13.5591C441.561 13.559 441.559 13.5601 441.558 13.5601V13.5591C437.643 13.4507 434.347 13.438 431.666 13.5181H431.665C431.211 13.5314 430.772 13.4128 430.401 13.1226C430.04 12.8406 429.809 12.4471 429.663 12.02V12.019C429.544 11.6669 429.545 11.2799 429.678 10.9263L429.734 10.7954C429.877 10.4982 430.112 10.25 430.412 10.0952H430.413C430.775 9.90957 431.022 9.75774 431.18 9.64404C430.498 7.7193 429.426 6.48271 427.999 5.81885V5.81787C425.751 4.77979 423.039 5.54937 421.866 7.43506V7.43604C420.281 9.97821 419.53 13.167 419.668 17.0503C419.884 16.8958 420.113 16.728 420.367 16.5474C420.898 16.1702 421.512 15.763 422.198 15.5015C424.747 14.527 427.424 14.2848 429.844 14.9565C432.279 15.6325 434.404 17.222 435.828 19.811L435.96 20.0288C436.085 20.2128 436.187 20.3009 436.28 20.3589C436.427 20.4511 436.63 20.5194 437.059 20.6167H437.061C437.458 20.7079 437.812 20.9311 438.066 21.2495C438.319 21.5678 438.458 21.9627 438.458 22.3696V22.6235C438.458 23.0616 438.284 23.4817 437.974 23.7915C437.664 24.1014 437.243 24.2759 436.805 24.2759H426.545C426.176 24.2746 425.819 24.1362 425.546 23.8862C425.274 23.6366 425.103 23.2934 425.072 22.9243L425.06 22.7065C425.051 22.2028 425.172 21.7192 425.469 21.3013C425.715 20.9553 426.049 20.7018 426.433 20.52C426.159 19.9121 425.821 19.5313 425.47 19.2983C425.05 19.0195 424.544 18.9036 423.966 18.938C422.776 19.0088 421.399 19.714 420.351 20.645C420.233 20.7515 420.146 20.8876 420.098 21.0386C420.05 21.1904 420.043 21.3521 420.079 21.5063C421.539 27.7239 422.997 31.9591 422.296 37.0903C422.439 37.1441 422.636 37.1904 422.897 37.2114C423.271 37.2415 423.713 37.2199 424.186 37.1587C425.132 37.0362 426.112 36.7685 426.741 36.5503C427.808 36.1772 428.761 35.3584 429.546 34.2915C430.206 33.3959 430.719 32.3598 431.068 31.3599C430.697 31.3382 430.279 31.2869 429.91 31.1362C429.584 31.003 429.26 30.7843 429.024 30.4282C428.789 30.0745 428.687 29.6523 428.685 29.189V29.186C428.685 28.7394 428.862 28.3114 429.178 27.9956C429.494 27.6798 429.922 27.5025 430.368 27.5024H441.321C441.735 27.5024 442.133 27.6665 442.426 27.9595C442.719 28.2526 442.884 28.6504 442.884 29.0649V29.5015C442.884 29.9017 442.741 30.2886 442.481 30.5923C442.221 30.8958 441.861 31.0973 441.467 31.1606L441.466 31.1597C440.733 31.2789 440.566 31.4735 440.548 31.5044L440.547 31.5063C438.643 34.8086 436.03 37.4309 432.719 39.3628C429.74 41.1021 427.205 41.0168 423.68 40.8804H423.679C422.149 40.819 420.692 40.6362 419.309 40.3306L419.307 40.3296C418.894 40.237 418.527 40.0015 418.271 39.6646C418.015 39.3275 417.885 38.9105 417.907 38.4878L417.918 38.1021C417.935 36.3116 417.421 34.6517 416.357 33.104L416.12 32.7739C413.634 29.4381 411.968 27.0842 410.367 23.4409L410.366 23.436C410.14 22.9148 410.01 22.3575 409.981 21.7905V21.7896C409.881 19.8375 409.881 17.9432 409.981 16.1069C410.079 14.3079 410.931 12.1373 411.466 10.9038C413.263 6.75432 416.436 3.95161 420.917 2.51416L421.406 2.36377Z" fill="#C6272C" stroke="white" stroke-width="1.5789"/>
<path d="M262.586 2.34131C263.05 2.34232 263.497 2.51763 263.837 2.8335C264.176 3.14927 264.384 3.58198 264.419 4.04443L264.42 4.05127L264.44 4.36377L264.443 4.53467C264.438 4.70629 264.407 4.87688 264.35 5.03955C264.273 5.25606 264.154 5.45513 263.998 5.62354C263.842 5.79212 263.651 5.92622 263.44 6.01807C263.23 6.10952 263.004 6.15607 262.774 6.15576V6.15674H260.795V17.1304H269.596C269.644 16.9093 269.682 16.7254 269.71 16.5776C269.733 16.4568 269.748 16.3667 269.757 16.3042C269.761 16.277 269.762 16.2601 269.763 16.2515C269.606 13.6238 269.607 10.7278 269.766 7.56494L269.844 6.18799H268.105C267.724 6.18799 267.357 6.05487 267.066 5.81494L266.946 5.70557C266.64 5.39731 266.469 4.98022 266.469 4.54639V3.97803C266.469 3.54966 266.639 3.13843 266.941 2.83545C267.244 2.53252 267.656 2.36191 268.084 2.36182H280.978C281.435 2.36182 281.873 2.54317 282.195 2.86572C282.518 3.18835 282.7 3.62623 282.7 4.08252V4.54053C282.7 4.75346 282.658 4.96501 282.576 5.16162C282.495 5.35806 282.375 5.53654 282.225 5.68701C282.074 5.83744 281.896 5.95713 281.699 6.03857C281.503 6.12 281.292 6.16157 281.079 6.16162H278.637V36.5083C278.637 36.5376 278.649 36.5664 278.671 36.5884C278.693 36.6105 278.724 36.6245 278.758 36.6245H280.932C281.406 36.6246 281.861 36.8126 282.196 37.1479C282.532 37.4836 282.721 37.939 282.721 38.4136V38.7241C282.721 39.1652 282.545 39.588 282.233 39.8999C281.921 40.2118 281.499 40.3872 281.058 40.3872H268.079C267.631 40.3872 267.201 40.2089 266.885 39.8921C266.568 39.5753 266.39 39.1458 266.39 38.6978V38.3501C266.389 37.9229 266.551 37.5122 266.842 37.1997C267.133 36.8869 267.531 36.6959 267.956 36.6636L267.958 36.6626L269.679 36.5356V21.3511H260.801V36.4097C260.801 36.4352 260.81 36.4604 260.828 36.481C260.846 36.5017 260.872 36.5163 260.901 36.52H260.9L262.953 36.7827L262.955 36.7837C263.187 36.8141 263.411 36.8904 263.613 37.0093C263.815 37.1282 263.991 37.2873 264.13 37.4761C264.269 37.6648 264.368 37.8796 264.422 38.1079C264.475 38.3333 264.481 38.5671 264.441 38.7954L264.41 38.9858L264.408 38.9976C264.337 39.3886 264.131 39.7427 263.826 39.9976C263.521 40.2524 263.136 40.3916 262.738 40.3921H249.369V40.3911C249.128 40.3916 248.89 40.3402 248.671 40.2388C248.451 40.1368 248.256 39.9877 248.1 39.8022C247.945 39.6168 247.832 39.3994 247.769 39.1655C247.707 38.9316 247.696 38.6862 247.739 38.4478L247.786 38.1812L247.825 38.0093C247.933 37.6134 248.162 37.2595 248.483 36.9995C248.85 36.7027 249.311 36.5472 249.782 36.561H249.786C250.77 36.5957 251.465 36.5774 251.899 36.519C251.938 36.5138 251.973 36.5048 252.005 36.4995C252.024 36.1053 252.037 35.768 252.037 35.4868V35.4858C252.055 26.5576 252.053 16.8098 252.032 6.24268V6.24072C252.032 6.23377 252.029 6.22708 252.024 6.22217C252.019 6.21726 252.013 6.21436 252.006 6.21436H249.274C248.871 6.21436 248.484 6.05416 248.199 5.76904C247.914 5.48393 247.753 5.09718 247.753 4.69385V3.90381C247.753 3.48926 247.918 3.09138 248.211 2.79834L248.326 2.69482C248.604 2.46706 248.954 2.34133 249.316 2.34131H262.586Z" fill="#C6272C" stroke="white" stroke-width="1.5789"/>
<path d="M137.108 4.45654C137.108 4.90186 136.93 5.32766 136.615 5.64111C136.3 5.95445 135.873 6.13037 135.43 6.13037H132.867C132.881 7.61231 132.886 12.697 132.883 21.3765L132.877 31.7437C132.873 34.2615 132.868 35.8884 132.861 36.6235H135.425C135.645 36.6235 135.864 36.6671 136.068 36.7515C136.272 36.8358 136.458 36.9595 136.614 37.1157H136.613C136.769 37.272 136.894 37.4581 136.978 37.6626C137.062 37.8655 137.104 38.0829 137.103 38.3022V38.5386C137.101 39.0219 136.909 39.485 136.569 39.8286C136.229 40.1722 135.767 40.3692 135.284 40.3765C132.944 40.4116 130.669 40.4078 128.461 40.3657C126.806 40.3972 125.114 40.4069 123.386 40.395L121.639 40.3765C121.154 40.3692 120.692 40.1712 120.351 39.8257C120.011 39.48 119.82 39.014 119.82 38.5288V38.2974C119.82 37.8521 119.998 37.4263 120.313 37.1128C120.629 36.7994 121.055 36.6235 121.499 36.6235H124.061C124.047 35.1417 124.042 30.0566 124.046 21.3765C124.046 12.6967 124.053 7.61212 124.067 6.13037H121.504C121.284 6.13035 121.066 6.08707 120.863 6.00342C120.66 5.91968 120.474 5.7963 120.318 5.64111C120.162 5.486 120.039 5.30145 119.954 5.09814C119.869 4.89478 119.825 4.67688 119.825 4.45654V4.2251C119.825 3.73991 120.016 3.27388 120.356 2.92822C120.697 2.58267 121.159 2.38479 121.644 2.37744C123.984 2.3423 126.259 2.34755 128.468 2.39307C130.676 2.35107 132.949 2.34817 135.289 2.3833C135.772 2.39051 136.234 2.58658 136.574 2.93018C136.914 3.27385 137.106 3.73758 137.108 4.22119L137.109 4.2251H137.108V4.45654Z" fill="#C6272C" stroke="white" stroke-width="1.5789"/>
<path d="M196.548 16.8843C197.312 16.8379 198.009 16.6641 198.646 16.3667C200.389 15.5542 201.683 14.5216 202.569 13.2876C203.452 12.0568 203.959 10.5848 204.071 8.84326L204.082 8.49365C204.082 7.71659 203.901 7.21588 203.639 6.89893C203.348 6.54702 202.839 6.28231 201.953 6.229C200.696 6.15292 198.897 6.10969 196.548 6.1001V16.8843ZM199.074 38.8452C199.074 39.0495 199.034 39.252 198.956 39.4409C198.878 39.6299 198.763 39.8021 198.618 39.9468C198.474 40.0914 198.301 40.2054 198.113 40.2837C197.924 40.362 197.721 40.4028 197.517 40.4028H185.296C184.845 40.4028 184.412 40.2248 184.092 39.9067C183.772 39.5883 183.591 39.155 183.591 38.7026V38.4077C183.591 37.9361 183.78 37.4851 184.113 37.1528C184.447 36.8207 184.899 36.6343 185.369 36.6343H187.58C187.598 36.6342 187.615 36.6312 187.631 36.6245C187.647 36.6177 187.662 36.6072 187.675 36.5942C187.688 36.5812 187.699 36.5659 187.706 36.5483C187.713 36.5309 187.717 36.5118 187.717 36.4927V6.16162H185.275C184.852 6.16157 184.447 5.9936 184.148 5.69482C183.849 5.39579 183.68 4.98987 183.68 4.56689V3.97705C183.68 3.55649 183.843 3.15216 184.135 2.84912C184.427 2.54617 184.824 2.36908 185.244 2.35303V2.35205C186.084 2.31977 190.697 2.33477 199.062 2.396L208.676 2.47217L208.988 2.48096C210.423 2.54697 211.635 2.98268 212.529 3.86572L212.715 4.06104L212.716 4.06201C213.736 5.20542 214.013 6.76642 213.948 8.22217C213.884 9.69093 213.468 11.1798 212.952 12.3276C211.774 14.9531 209.9 16.931 207.35 18.2378C205.629 19.1199 203.907 19.8144 202.185 20.3208C203.052 20.4572 204.023 20.6513 204.824 21.0327H204.823C206.99 22.0625 208.673 23.1453 209.822 24.2983L209.823 24.2993C212.031 26.5232 214.107 30.4233 214.459 34.0024C214.594 35.3467 214.704 36.1218 214.778 36.4126C215.095 36.587 215.503 36.7803 216.008 36.9897H216.009C216.254 37.0919 216.476 37.2458 216.656 37.4409C216.837 37.6361 216.974 37.8704 217.054 38.1274C217.134 38.385 217.153 38.66 217.104 38.9292C217.054 39.1987 216.939 39.4513 216.765 39.6646L216.762 39.6685C216.303 40.2249 215.617 40.4042 214.924 40.396V40.397C211.741 40.3655 208.461 40.3715 205.084 40.4136H205.079C204.785 40.4155 204.511 40.3995 204.271 40.3579C204.045 40.3188 203.773 40.2446 203.543 40.0757L203.539 40.0728C203.292 39.8882 203.091 39.6458 202.956 39.3677C202.822 39.0895 202.756 38.7812 202.769 38.4702C202.782 38.1588 202.873 37.8538 203.04 37.5874C203.187 37.354 203.385 37.1592 203.619 37.0171L203.722 36.9595C203.919 36.8573 204.334 36.6689 204.942 36.4028C204.947 33.2674 204.385 30.3107 203.258 27.5259V27.5249C202.693 26.1269 201.673 24.7305 200.393 23.7163C199.237 22.8006 197.911 22.2282 196.549 22.1948L196.585 36.4116V36.4126C196.585 36.437 196.59 36.4611 196.599 36.4829C196.606 36.4992 196.617 36.5127 196.628 36.5259C196.647 36.5356 196.689 36.5562 196.766 36.5806C196.901 36.6233 197.099 36.6644 197.37 36.6978L197.371 36.6987C197.841 36.7571 198.274 36.9841 198.587 37.3384C198.901 37.6927 199.074 38.1495 199.074 38.6226V38.8452Z" fill="#C6272C" stroke="white" stroke-width="1.5789"/>
<path d="M339.956 2.38379C340.167 2.38382 340.375 2.42521 340.57 2.50586C340.765 2.58655 340.942 2.70459 341.091 2.85352C341.24 3.00247 341.358 3.17942 341.438 3.37402C341.519 3.56854 341.561 3.77745 341.561 3.98828V4.39062C341.56 4.82148 341.397 5.2371 341.104 5.55371C340.848 5.8309 340.507 6.01408 340.137 6.07715L339.977 6.09668L339.116 6.16016C338.996 16.725 339.039 23.1169 339.237 25.3984L339.299 26.0254C339.636 29.1332 340.433 31.8133 341.675 34.082V34.083C342.205 35.0534 342.869 35.7331 343.657 36.165C344.447 36.598 345.413 36.8096 346.586 36.7617L346.779 36.7461C347.747 36.6263 348.702 35.9204 349.538 34.8516C350.414 33.7319 351.038 32.362 351.302 31.3623C352.068 28.4279 352.6 25.258 352.895 21.8516L353.06 19.8008C353.364 15.7304 353.503 11.8428 353.477 8.1377L353.45 6.30078C353.45 6.29007 353.446 6.27971 353.439 6.27148C353.432 6.26336 353.422 6.25692 353.412 6.25488L352.271 6.05566L352.267 6.05469C352.007 6.00759 351.766 5.88781 351.571 5.70996C351.376 5.53203 351.235 5.30307 351.164 5.0498L351.162 5.04297C351.005 4.46768 351.012 3.88974 351.197 3.33008L351.233 3.22949C351.326 3.00008 351.483 2.80135 351.683 2.65527L351.771 2.5957C351.982 2.46688 352.224 2.39927 352.471 2.39941H364.865C365.226 2.39941 365.573 2.52568 365.848 2.75293L365.962 2.85547L366.064 2.96973C366.289 3.24614 366.413 3.59342 366.413 3.95215V4.49707L366.406 4.64258C366.375 4.98039 366.232 5.29982 366 5.5498C365.768 5.7994 365.461 5.96436 365.128 6.02148L364.983 6.03906L363.231 6.1709C362.964 11.609 362.78 15.5572 362.676 18.0166C362.57 20.4896 361.845 24.4849 360.533 29.9561L360.531 29.9639C360.503 30.0758 360.445 30.2143 360.4 30.3184C360.345 30.4458 360.271 30.6103 360.178 30.8086C360.086 31.0075 359.973 31.2452 359.84 31.5215L359.38 32.4668C357.813 35.659 355.695 37.9948 353.006 39.4043C350.487 40.7244 347.531 41.1981 344.176 40.877L343.5 40.8027C337.646 40.0717 333.524 35.6778 331.891 30.3896L331.472 29.0205C330.553 25.9469 330.024 23.6429 329.784 20.2227V20.2217C329.427 15.0576 329.284 10.3829 329.355 6.19922H327.83C327.435 6.19922 327.055 6.04201 326.776 5.7627C326.497 5.48351 326.341 5.10482 326.341 4.70996V3.83594C326.341 3.64512 326.378 3.45637 326.451 3.28027L326.512 3.15137C326.579 3.02552 326.664 2.90985 326.765 2.80859L326.872 2.71289C326.982 2.6226 327.105 2.54885 327.237 2.49414L327.371 2.44629C327.507 2.40483 327.65 2.38379 327.793 2.38379H339.956Z" fill="#C6272C" stroke="white" stroke-width="1.5789"/>
</svg>
