<svg width="735" height="817" viewBox="0 0 735 817" fill="none" xmlns="http://www.w3.org/2000/svg">
<mask id="mask0_115_18" style="mask-type:luminance" maskUnits="userSpaceOnUse" x="0" y="0" width="735" height="815">
<path d="M735 0H0V814.459H735V0Z" fill="white"/>
</mask>
<g mask="url(#mask0_115_18)">
<path d="M391.801 3.50781V718.692H731.876V269.381L391.801 3.50781Z" fill="#685539"/>
<path d="M7.63212 640.983C6.60138 568.797 3.96081 426.6 3.12695 354.425C85.424 284.648 248.397 146.227 330.903 76.7504L338.257 70.5312L345.959 76.7621C432.112 146.898 599.405 281.486 686.022 350.962C686.509 388.44 686.833 431.719 686.706 469.22C686.59 540.804 685.351 617.438 683.614 689.069C682.466 721.033 681.911 767.371 680.475 798.988L680.104 810.939L668.894 810.581C599.231 808.23 529.593 805.323 460.036 800.713V797.285C494.826 794.887 529.639 793.163 564.464 791.517C599.267 789.943 634.079 788.53 668.894 787.417L657.313 798.999C654.892 728.329 653.085 650.005 652.019 579.15C650.919 506.732 650.699 431.778 651.649 359.301L657.902 372.584L494.652 233.481L330.903 94.9796H345.959C263.314 161.827 96.2064 295.533 13.2838 362.012L15.5306 357.251C14.7662 427.979 12.1603 570.279 11.0718 640.995H7.64371L7.63212 640.983Z" fill="#212121"/>
<path d="M165.038 340.414C141.4 340.414 119.616 348.475 102.405 361.968V522.578C119.697 536.07 141.47 544.13 165.038 544.13C193.18 544.13 218.601 532.735 237.051 514.285C245.505 505.831 252.477 495.917 257.596 484.903H266.202C260.618 498.084 252.639 509.943 242.633 519.868C222.793 539.706 195.346 552.04 165.038 552.04C134.73 552.04 107.293 539.788 87.4423 519.868C67.6036 500.028 55.2695 472.581 55.2695 442.272C55.2695 411.964 67.5225 384.528 87.4423 364.677C107.282 344.838 134.73 332.504 165.038 332.504C195.346 332.504 222.783 344.757 242.633 364.677C252.558 374.602 260.618 386.462 266.202 399.641H257.596C252.558 388.639 245.505 378.713 237.051 370.191C218.601 351.741 193.18 340.345 165.038 340.345V340.426V340.414Z" fill="#212121"/>
<path d="M330.191 543.826V340.736H395.961C423.849 340.736 449.235 352.133 467.65 370.558C486.075 388.984 497.472 414.359 497.472 442.246C497.472 470.134 486.075 495.52 467.65 513.935C449.224 532.361 423.849 543.758 395.961 543.758H330.191V543.826ZM286.32 551.968H395.973C456.277 551.968 505.626 502.621 505.626 442.315C505.626 382.012 456.277 332.664 395.973 332.664H286.32V552.039V551.968Z" fill="#212121"/>
<path d="M572.403 332.598H563.357V551.972H572.403V332.598Z" fill="#212121"/>
<path d="M190.031 678.834H180.326V641.068H137.487V678.834H127.781V596.039H137.487V632.358H180.326V596.039H190.031V678.834Z" fill="#212121"/>
<path d="M261.42 680.228C249.677 680.228 240.273 676.359 233.219 668.622C226.155 660.886 222.623 650.821 222.623 638.43C222.623 625.112 226.225 614.492 233.416 606.558C240.608 598.625 250.407 594.664 262.81 594.664C274.24 594.664 283.448 598.509 290.443 606.21C297.427 613.912 300.924 623.977 300.924 636.404C300.924 649.919 297.346 660.598 290.188 668.449C283.031 676.301 273.442 680.228 261.432 680.228H261.42ZM262.115 603.431C253.417 603.431 246.353 606.569 240.921 612.847C235.49 619.123 232.78 627.358 232.78 637.562C232.78 647.765 235.419 655.975 240.724 662.184C246.016 668.403 252.92 671.507 261.42 671.507C270.5 671.507 277.67 668.541 282.904 662.612C288.138 656.682 290.756 648.39 290.756 637.724C290.756 627.057 288.219 618.347 283.135 612.372C278.051 606.408 271.044 603.42 262.115 603.42V603.431Z" fill="#212121"/>
<path d="M417.934 678.834H408.287V623.29C408.287 618.901 408.553 613.527 409.098 607.18H408.866C407.939 610.91 407.116 613.584 406.386 615.205L378.094 678.834H373.357L345.122 615.669C344.311 613.816 343.488 610.991 342.643 607.18H342.412C342.725 610.492 342.875 615.901 342.875 623.406V678.834H333.518V596.039H346.338L371.747 653.783C373.716 658.208 374.978 661.52 375.557 663.709H375.905C377.56 659.17 378.892 655.776 379.889 653.552L405.82 596.039H417.945V678.834H417.934Z" fill="#212121"/>
<path d="M499.908 678.834H456.027V596.039H498.055V604.817H465.72V632.358H495.635V641.079H465.72V670.067H499.896V678.846L499.908 678.834Z" fill="#212121"/>
<path d="M126.821 741.352C127.446 741.85 128.13 742.291 128.859 742.684C129.589 743.078 130.353 743.402 131.13 743.691C131.905 743.969 132.693 744.178 133.481 744.317C134.267 744.456 135.02 744.525 135.727 744.525C140.649 744.525 143.116 742.673 143.116 738.99C143.116 738.144 142.942 737.415 142.595 736.801C142.247 736.187 141.75 735.619 141.101 735.109C140.452 734.6 139.677 734.137 138.773 733.697C137.87 733.268 136.839 732.817 135.692 732.342C134.164 731.717 132.843 731.08 131.744 730.431C130.643 729.783 129.739 729.076 129.021 728.312C128.315 727.547 127.782 726.702 127.435 725.787C127.087 724.872 126.913 723.829 126.913 722.66C126.913 721.189 127.226 719.892 127.863 718.746C128.501 717.599 129.357 716.626 130.435 715.827C131.511 715.028 132.762 714.414 134.175 713.997C135.589 713.58 137.07 713.371 138.633 713.371C141.506 713.371 144.008 713.916 146.151 714.993V719.37C143.672 717.772 140.997 716.974 138.124 716.974C137.082 716.974 136.143 717.101 135.287 717.367C134.43 717.622 133.712 717.993 133.099 718.468C132.495 718.942 132.021 719.51 131.685 720.17C131.349 720.83 131.188 721.56 131.188 722.359C131.188 723.158 131.314 723.899 131.57 724.513C131.824 725.126 132.229 725.682 132.785 726.18C133.341 726.679 134.048 727.154 134.928 727.606C135.807 728.056 136.862 728.543 138.113 729.065C139.711 729.713 141.089 730.35 142.259 730.987C143.429 731.624 144.389 732.319 145.142 733.059C145.895 733.802 146.463 734.635 146.822 735.549C147.193 736.464 147.378 737.53 147.378 738.735C147.378 740.217 147.065 741.549 146.451 742.719C145.838 743.889 144.98 744.861 143.892 745.66C142.803 746.459 141.518 747.062 140.059 747.478C138.588 747.883 136.99 748.093 135.264 748.093C131.916 748.093 129.103 747.398 126.809 745.985V741.352H126.821Z" fill="#212121"/>
<path d="M169.882 746.918C168.458 747.624 166.905 747.984 165.215 747.984C159.864 747.984 157.189 744.903 157.189 738.718V717.768H151.363V714.142H157.189V705.792L161.336 704.438V714.154H169.882V717.779H161.336V738.082C161.336 740.328 161.706 741.949 162.435 742.945C163.165 743.941 164.415 744.428 166.165 744.428C167.461 744.428 168.701 744.034 169.894 743.258V746.918H169.882Z" fill="#212121"/>
<path d="M198.418 747.307V741.678H198.291C196.044 745.952 192.558 748.082 187.833 748.082C179.957 748.082 176.008 743.276 176.008 733.64V714.149H180.154V732.865C180.154 736.837 180.861 739.767 182.273 741.666C183.687 743.566 185.852 744.515 188.771 744.515C190.196 744.515 191.493 744.237 192.674 743.681C193.844 743.137 194.863 742.361 195.719 741.354C196.576 740.346 197.237 739.142 197.712 737.741C198.186 736.339 198.429 734.787 198.429 733.084V714.137H202.576V747.294H198.429L198.418 747.307Z" fill="#212121"/>
<path d="M236.498 747.32V741.495H236.37C235.27 743.591 233.695 745.212 231.657 746.37C229.617 747.529 227.301 748.108 224.708 748.108C222.634 748.108 220.747 747.725 219.055 746.962C217.365 746.196 215.906 745.085 214.701 743.637C213.496 742.19 212.559 740.441 211.898 738.391C211.238 736.341 210.914 734.025 210.914 731.43C210.914 728.837 211.273 726.312 212.003 724.099C212.721 721.887 213.751 719.988 215.083 718.402C216.415 716.814 218.013 715.587 219.878 714.707C221.743 713.827 223.827 713.398 226.108 713.398C230.88 713.398 234.297 715.309 236.37 719.131H236.498V698.25H240.644V747.343H236.498V747.32ZM236.498 727.307C236.498 725.86 236.254 724.516 235.756 723.254C235.258 722.004 234.575 720.915 233.683 719.976C232.791 719.051 231.737 718.308 230.499 717.776C229.259 717.244 227.893 716.966 226.399 716.966C224.753 716.966 223.248 717.289 221.858 717.938C220.48 718.587 219.299 719.525 218.315 720.741C217.33 721.956 216.565 723.451 216.01 725.199C215.454 726.949 215.188 728.929 215.188 731.153C215.188 733.249 215.431 735.125 215.928 736.78C216.427 738.448 217.134 739.85 218.048 740.997C218.963 742.143 220.064 743.012 221.337 743.626C222.611 744.228 224.025 744.529 225.576 744.529C227.256 744.529 228.772 744.228 230.128 743.626C231.471 743.023 232.617 742.19 233.556 741.124C234.494 740.071 235.224 738.831 235.721 737.407C236.231 735.982 236.486 734.464 236.486 732.843V727.307H236.498Z" fill="#212121"/>
<path d="M253.374 705.757C252.575 705.757 251.88 705.481 251.301 704.912C250.722 704.356 250.432 703.639 250.432 702.782C250.432 701.925 250.722 701.241 251.301 700.697C251.88 700.141 252.575 699.875 253.374 699.875C253.779 699.875 254.174 699.944 254.544 700.083C254.914 700.222 255.227 700.419 255.505 700.685C255.772 700.941 255.992 701.254 256.153 701.612C256.316 701.971 256.397 702.365 256.397 702.794C256.397 703.199 256.316 703.592 256.165 703.963C256.015 704.333 255.795 704.646 255.516 704.924C255.239 705.203 254.914 705.399 254.555 705.55C254.196 705.7 253.802 705.782 253.374 705.782V705.757ZM251.324 747.312V714.154H255.47V747.312H251.324Z" fill="#212121"/>
<path d="M279.724 748.111C277.269 748.111 275.057 747.706 273.099 746.883C271.143 746.061 269.474 744.903 268.096 743.398C266.717 741.903 265.652 740.097 264.923 738.001C264.193 735.904 263.822 733.588 263.822 731.041C263.822 728.284 264.204 725.806 264.993 723.629C265.768 721.451 266.881 719.598 268.316 718.082C269.752 716.564 271.479 715.393 273.516 714.596C275.542 713.796 277.813 713.402 280.314 713.402C282.816 713.402 284.866 713.796 286.788 714.583C288.711 715.371 290.344 716.507 291.676 718C293.02 719.494 294.039 721.3 294.757 723.443C295.475 725.575 295.822 728.006 295.822 730.727C295.822 733.45 295.451 735.673 294.71 737.804C293.97 739.935 292.904 741.765 291.526 743.294C290.148 744.823 288.457 746.015 286.476 746.86C284.495 747.706 282.249 748.123 279.735 748.123L279.724 748.111ZM280.048 716.993C278.23 716.993 276.597 717.304 275.127 717.931C273.656 718.555 272.405 719.471 271.351 720.664C270.308 721.856 269.497 723.328 268.941 725.065C268.387 726.802 268.096 728.77 268.096 730.97C268.096 733.044 268.374 734.909 268.941 736.577C269.51 738.245 270.296 739.669 271.327 740.85C272.347 742.043 273.598 742.946 275.068 743.583C276.539 744.221 278.172 744.544 279.991 744.544C281.809 744.544 283.488 744.232 284.912 743.617C286.337 743.004 287.541 742.112 288.537 740.931C289.533 739.75 290.286 738.314 290.784 736.611C291.293 734.909 291.549 732.963 291.549 730.786C291.549 726.315 290.553 722.899 288.572 720.536C286.592 718.174 283.742 716.993 280.06 716.993H280.048Z" fill="#212121"/>
<path d="M345.599 747.32V741.495H345.471C344.37 743.591 342.797 745.212 340.757 746.37C338.719 747.529 336.403 748.108 333.808 748.108C331.736 748.108 329.848 747.725 328.157 746.962C326.466 746.196 325.007 745.085 323.803 743.637C322.598 742.19 321.66 740.441 321 738.391C320.34 736.341 320.016 734.025 320.016 731.43C320.016 728.837 320.375 726.312 321.104 724.099C321.822 721.887 322.853 719.988 324.185 718.402C325.517 716.814 327.115 715.587 328.979 714.707C330.844 713.827 332.929 713.398 335.21 713.398C339.981 713.398 343.398 715.309 345.471 719.131H345.599V698.25H349.745V747.343H345.599V747.32ZM345.599 727.307C345.599 725.86 345.355 724.516 344.857 723.254C344.36 721.991 343.676 720.915 342.784 719.976C341.892 719.051 340.839 718.308 339.599 717.776C338.36 717.244 336.994 716.966 335.5 716.966C333.855 716.966 332.35 717.289 330.96 717.938C329.581 718.587 328.4 719.525 327.416 720.741C326.431 721.956 325.667 723.451 325.112 725.199C324.555 726.949 324.289 728.929 324.289 731.153C324.289 733.249 324.533 735.125 325.03 736.78C325.528 738.448 326.235 739.85 327.15 740.997C328.065 742.143 329.165 743.012 330.439 743.626C331.713 744.228 333.125 744.529 334.677 744.529C336.357 744.529 337.874 744.228 339.229 743.626C340.573 743.023 341.719 742.19 342.657 741.124C343.595 740.071 344.325 738.831 344.823 737.407C345.332 735.982 345.587 734.464 345.587 732.843V727.307H345.599Z" fill="#212121"/>
<path d="M362.395 731.473C362.418 733.5 362.684 735.33 363.205 736.951C363.727 738.573 364.468 739.94 365.44 741.063C366.413 742.186 367.595 743.044 368.984 743.633C370.375 744.225 371.948 744.525 373.698 744.525C377.427 744.525 380.959 743.216 384.282 740.611V744.687C381.111 746.958 377.265 748.093 372.76 748.093C370.536 748.093 368.521 747.711 366.702 746.923C364.885 746.146 363.344 745.023 362.07 743.541C360.797 742.058 359.812 740.24 359.129 738.086C358.433 735.931 358.098 733.466 358.098 730.697C358.098 728.22 358.481 725.914 359.233 723.794C359.985 721.676 361.039 719.857 362.37 718.305C363.715 716.765 365.301 715.548 367.132 714.68C368.961 713.811 370.976 713.371 373.154 713.371C375.331 713.371 377.184 713.742 378.817 714.484C380.462 715.225 381.84 716.291 382.952 717.668C384.064 719.047 384.909 720.737 385.499 722.718C386.078 724.698 386.38 726.922 386.38 729.388V731.462H362.418L362.395 731.473ZM382.082 727.848C382.013 724.398 381.191 721.722 379.615 719.823C378.041 717.923 375.852 716.974 373.039 716.974C371.637 716.974 370.34 717.216 369.135 717.715C367.942 718.212 366.888 718.931 365.974 719.869C365.07 720.807 364.317 721.954 363.727 723.309C363.136 724.652 362.718 726.169 362.475 727.86H382.071L382.082 727.848Z" fill="#212121"/>
<path d="M392.611 741.352C393.237 741.85 393.92 742.291 394.649 742.684C395.379 743.078 396.144 743.402 396.92 743.691C397.696 743.969 398.483 744.178 399.27 744.317C400.058 744.456 400.811 744.525 401.517 744.525C406.44 744.525 408.906 742.673 408.906 738.99C408.906 738.144 408.732 737.415 408.384 736.801C408.038 736.187 407.539 735.619 406.89 735.109C406.242 734.6 405.466 734.137 404.564 733.697C403.66 733.268 402.628 732.817 401.482 732.342C399.954 731.717 398.634 731.08 397.533 730.431C396.433 729.783 395.53 729.076 394.812 728.312C394.105 727.547 393.572 726.702 393.224 725.787C392.877 724.872 392.704 723.829 392.704 722.66C392.704 721.189 393.016 719.892 393.654 718.746C394.29 717.599 395.148 716.626 396.224 715.827C397.302 715.028 398.552 714.414 399.966 713.997C401.378 713.58 402.861 713.371 404.424 713.371C407.296 713.371 409.798 713.916 411.94 714.993V719.37C409.462 717.772 406.787 716.974 403.915 716.974C402.872 716.974 401.934 717.101 401.077 717.367C400.22 717.622 399.502 717.993 398.888 718.468C398.286 718.942 397.812 719.51 397.476 720.17C397.139 720.83 396.977 721.56 396.977 722.359C396.977 723.158 397.105 723.899 397.359 724.513C397.615 725.126 398.02 725.682 398.575 726.18C399.131 726.679 399.838 727.154 400.717 727.606C401.598 728.056 402.653 728.543 403.903 729.065C405.501 729.713 406.88 730.35 408.048 730.987C409.219 731.624 410.18 732.319 410.933 733.059C411.686 733.802 412.254 734.635 412.612 735.549C412.971 736.464 413.168 737.53 413.168 738.735C413.168 740.217 412.855 741.549 412.241 742.719C411.627 743.889 410.77 744.861 409.682 745.66C408.593 746.459 407.308 747.062 405.848 747.478C404.378 747.883 402.779 748.093 401.055 748.093C397.707 748.093 394.892 747.398 392.6 745.985V741.352H392.611Z" fill="#212121"/>
<path d="M423.47 705.757C422.671 705.757 421.976 705.481 421.397 704.912C420.818 704.356 420.529 703.639 420.529 702.782C420.529 701.925 420.818 701.241 421.397 700.697C421.976 700.141 422.671 699.875 423.47 699.875C423.876 699.875 424.27 699.944 424.64 700.083C425.01 700.222 425.323 700.419 425.602 700.685C425.868 700.941 426.088 701.254 426.25 701.612C426.412 701.971 426.493 702.365 426.493 702.794C426.493 703.199 426.412 703.592 426.262 703.963C426.111 704.333 425.891 704.646 425.614 704.924C425.335 705.203 425.01 705.399 424.652 705.55C424.293 705.7 423.899 705.782 423.47 705.782V705.757ZM421.432 747.312V714.154H425.579V747.312H421.432Z" fill="#212121"/>
<path d="M463.665 744.776C463.665 750.926 462.263 755.489 459.473 758.454C456.681 761.419 452.362 762.9 446.537 762.9C442.912 762.9 439.472 762.09 436.241 760.48V756.265C439.842 758.268 443.281 759.276 446.537 759.276C455.188 759.276 459.519 754.701 459.519 745.551V741.568H459.391C456.844 745.934 452.952 748.111 447.73 748.111C445.679 748.111 443.803 747.73 442.112 746.977C440.422 746.224 438.962 745.136 437.758 743.71C436.554 742.285 435.603 740.548 434.943 738.511C434.271 736.472 433.936 734.167 433.936 731.597C433.936 728.875 434.295 726.397 435.001 724.161C435.719 721.926 436.726 720.015 438.047 718.417C439.367 716.819 440.954 715.58 442.819 714.711C444.683 713.843 446.779 713.402 449.119 713.402C453.797 713.402 457.226 715.301 459.38 719.1H459.507V714.178H463.653V744.776H463.665ZM459.519 727.184C459.519 725.806 459.276 724.497 458.778 723.269C458.28 722.042 457.596 720.965 456.704 720.026C455.812 719.1 454.77 718.359 453.543 717.814C452.327 717.27 450.983 716.993 449.513 716.993C447.787 716.993 446.224 717.329 444.834 718C443.444 718.672 442.251 719.621 441.267 720.849C440.282 722.076 439.529 723.571 438.997 725.331C438.463 727.091 438.209 729.072 438.209 731.272C438.209 733.299 438.453 735.14 438.95 736.774C439.449 738.418 440.143 739.808 441.058 740.954C441.962 742.101 443.063 742.981 444.347 743.607C445.633 744.232 447.057 744.544 448.632 744.544C450.208 744.544 451.759 744.244 453.103 743.653C454.447 743.063 455.581 742.24 456.53 741.186C457.48 740.143 458.21 738.904 458.732 737.492C459.252 736.078 459.507 734.549 459.507 732.906V727.173L459.519 727.184Z" fill="#212121"/>
<path d="M496.717 747.336V728.226C496.717 720.734 493.995 716.993 488.552 716.993C487.105 716.993 485.773 717.282 484.534 717.849C483.295 718.418 482.24 719.215 481.348 720.224C480.458 721.243 479.75 722.447 479.241 723.837C478.731 725.227 478.477 726.733 478.477 728.354V747.336H474.33V714.178H478.477V719.945H478.605C481.072 715.58 484.765 713.402 489.711 713.402C493.336 713.402 496.103 714.583 498.004 716.934C499.902 719.286 500.852 722.69 500.852 727.138V747.347H496.706L496.717 747.336Z" fill="#212121"/>
</g>
</svg>
