<svg xmlns="http://www.w3.org/2000/svg" width="161" height="69" fill="none" viewBox="0 0 161 69"><g fill="#5e5e5e" clip-path="url(#a)"><path d="M54.16 12.27c-4.771-1.087-17.527-2.66-23.727 9.535a1.43 1.43 0 0 0 .79 1.986c12.924 4.589 21.097-5.32 23.802-9.385a1.413 1.413 0 0 0-.864-2.155zM38.287.132c-2.16 1.498-7.365 5.994-4.734 12.85a.77.77 0 0 0 1.09.394C41.122 9.892 40.108 3.092 39.47.563a.76.76 0 0 0-1.164-.431z"/><path d="m50.31 28.174-4.358-3.09c-2.367 1.105-5.091 1.835-8.154 1.835-2.348 0-4.772-.43-7.214-1.292a3.35 3.35 0 0 1-2.01-1.93 3.32 3.32 0 0 1 .132-2.772c1.108-2.155 2.386-3.934 3.795-5.377l-3.213-2.266a5.25 5.25 0 0 0-3.006-.956 5.2 5.2 0 0 0-3.006.956L2.198 28.174A5.2 5.2 0 0 0 0 32.408v30.16c0 2.865 2.33 5.188 5.204 5.188h42.082a5.196 5.196 0 0 0 5.203-5.189v-30.16a5.2 5.2 0 0 0-2.198-4.233zm26.847-.412c-.207.43-.583 1.049-1.428 1.78-1.127.992-2.95 2.041-6.331 2.041-.77 0-3.513-.018-5.655-1.61-2.499-1.855-2.611-4.721-2.611-5.733 0-1.405.338-2.847 1.108-4.027.282-.412.526-.693.883-1.03.47-.45.695-.6.977-.769.902-.6 2.743-1.442 5.486-1.442.751 0 3.4.056 5.56 1.499a6.7 6.7 0 0 1 2.067 2.191c.094.188.188.394.282.581l-3.758.468a4.5 4.5 0 0 0-1.39-1.46c-.45-.3-1.39-.75-2.743-.75-.357 0-1.22.019-2.141.412-1.785.73-2.743 2.454-2.743 4.365 0 .955.3 2.004.864 2.79.113.17.413.525.864.881.526.431 1.578 1.105 3.269 1.105 2.01 0 3.081-.842 3.626-1.48.225-.243.394-.505.695-1.086l3.626-.037c-.188.693-.32.955-.489 1.292zm20.139-1.873c-.169.917-.714 2.903-2.799 4.29-.958.617-2.705 1.404-5.43 1.404-4.094 0-6.255-1.648-7.25-3.11-.47-.655-1.222-2.097-1.222-4.195 0-3.166 1.54-4.815 2.555-5.602 1.503-1.142 3.513-1.61 5.354-1.685 1.71-.057 3.776.206 5.317.974.207.112.601.318 1.09.655.394.3.77.637 1.09 1.03.581.675 1.465 2.192 1.465 4.496 0 .281 0 .993-.15 1.742zm-4.584-4.946c-.958-1.049-2.442-1.536-3.85-1.499a5.9 5.9 0 0 0-1.992.45c-2.555 1.124-2.743 3.56-2.743 4.477 0 .281.019 1.162.376 1.986.094.243.207.506.526.936.094.113.357.488.695.768.545.469 1.597 1.05 3.288 1.05.319 0 1.127-.02 1.99-.338 2.706-.974 2.95-3.634 2.95-4.495 0-.581-.075-2.08-1.22-3.335zm9.129 10.191V17.422h3.457v11.183h7.646v2.529zm14.955 0V17.422h3.456v13.712zm20.196 0-8.492-9.61v9.61h-3.269V17.422h3.457l8.435 9.572v-9.572h3.269v13.712zm20.119 0-1.165-2.585h-7.045l-1.164 2.585h-3.758l6.651-13.712h3.72L161 31.134zm-4.678-10.378-2.442 5.358h4.828l-2.404-5.358zM70.712 54.438h-3.344L61.15 40.726h3.795l4.114 10.116 4.133-10.116h3.7zm9.712 0V40.726h12.813v2.473h-9.375v3.09h9.055v2.454h-9.055v3.26h9.769v2.454H80.424zm28.424 0-3.664-5.526h-3.945v5.526h-3.438V40.726h9.469c1.183 0 1.709.075 2.273.243 1.766.525 2.743 2.042 2.743 3.84a4.14 4.14 0 0 1-.376 1.799c-.62 1.405-1.803 1.817-3.212 2.08l4.189 5.731h-4.077zm-.301-10.602c-.432-.656-1.183-.694-1.897-.694h-5.411v3.353h5.524s.563.02.864-.056c.413-.093 1.202-.45 1.202-1.573 0-.131-.019-.637-.282-1.03m20.854 8.822a6.06 6.06 0 0 1-2.573 1.461c-.864.243-1.578.337-3.344.337h-7.102V40.744h7.534c1.709 0 3.156.15 4.659 1.086.207.132.657.413 1.108.88 1.221 1.256 1.729 3.11 1.729 4.834 0 2.81-1.184 4.346-2.029 5.133zm-2.667-8.73a3.2 3.2 0 0 0-.94-.524c-.507-.169-.939-.244-2.01-.244h-3.982v8.861h3.813c.188 0 1.278.037 2.123-.281 1.202-.43 2.236-1.611 2.236-4.309 0-.337.018-2.416-1.259-3.503zm9.055 10.51V40.726h12.812v2.473h-9.374v3.09h9.055v2.454h-9.055v3.26h9.768v2.454h-13.206zm-69.342 13.43-1.86-2.192H61.94v2.192h-.79v-5.489h3.74c.469 0 .638.019.863.094.733.187 1.165.768 1.165 1.517 0 .3-.056 1.068-.883 1.405-.131.056-.282.094-.601.15l2.029 2.323zm-.47-4.384c-.225-.412-.6-.45-1.032-.45H61.92v1.986h2.724c.45 0 .958 0 1.277-.412a.9.9 0 0 0 .207-.6c0-.093 0-.318-.131-.542zm4.49 4.384v-5.489h5.073v.675h-4.284v1.63h4.19v.655h-4.19v1.854h4.49v.675zm13.528-.748c-.489.674-1.41.786-1.616.824-.131 0-.45.056-.789.056-.15 0-.827 0-1.409-.169-.131-.037-.32-.075-.601-.187a3.2 3.2 0 0 1-.582-.337c-.301-.225-.433-.431-.508-.543l.733-.3s.075.094.113.131c.112.112.376.319.751.468.639.263 1.372.263 1.56.263.131 0 .958.018 1.502-.375.32-.244.376-.6.376-.73 0-.32-.188-.544-.47-.675-.413-.187-1.352-.225-1.784-.281-1.052-.094-1.56-.131-1.973-.506a1.17 1.17 0 0 1-.394-.918c0-.768.526-1.124.77-1.236.32-.187.92-.356 1.822-.356 1.09 0 1.747.262 2.142.524.094.057.169.113.244.188.188.15.32.337.357.393l-.714.281s-.188-.187-.338-.28c-.3-.207-.827-.45-1.69-.45-.564 0-.996.093-1.203.187-.47.187-.601.506-.601.73a.7.7 0 0 0 .094.338c.188.318.582.337.901.374.602.075 1.221.113 1.823.188.845.093 1.24.318 1.503.637.281.356.281.693.281.861 0 .469-.169.768-.281.918zm3.643.748v-5.489h.79v5.489zm9.28-.656c-.751.637-1.71.656-2.63.656H92.09v-5.489h3.193c.245 0 .846.056 1.428.431.77.506 1.128 1.349 1.128 2.267 0 .786-.301 1.61-.92 2.135m-1.24-4.102c-.263-.075-.582-.075-.845-.075H92.88v4.177h2.029c.225 0 .92-.019 1.465-.506.62-.543.658-1.367.658-1.63 0-.898-.451-1.704-1.372-1.947zm5.579 4.758v-5.489h5.073v.675h-4.284v1.63h4.19v.655h-4.19v1.854h4.49v.675zm13.546 0-4.303-4.533v4.533h-.732v-5.489h.808l4.283 4.533V62.38h.733v5.489h-.789m10.314-.919c-.902 1.05-2.48 1.05-2.799 1.05-1.09 0-1.729-.3-2.123-.543-.132-.094-.244-.188-.376-.281a3 3 0 0 1-.413-.506c-.188-.3-.432-.768-.432-1.593 0-.262 0-.992.488-1.63a2.95 2.95 0 0 1 1.033-.862c.714-.355 1.597-.374 1.804-.374.263 0 1.277.02 2.066.506.113.075.339.225.564.45.244.262.376.506.451.637l-.827.187s-.094-.169-.15-.243a2.2 2.2 0 0 0-.488-.45c-.263-.169-.808-.394-1.597-.394-.226 0-1.071 0-1.71.45a1.7 1.7 0 0 0-.319.281c-.207.225-.507.656-.507 1.443 0 .224.018.843.432 1.386.488.637 1.296.787 1.54.824.263.037.545.037.639.037.244 0 1.315 0 1.972-.711.132-.132.207-.263.301-.413l.827.17a6 6 0 0 1-.395.599zm3.626.918v-5.489h5.073v.675h-4.284v1.63h4.19v.655h-4.19v1.854h4.49v.675z"/></g><defs><clipPath id="a"><path fill="#fff" d="M0 0h161v68.115H0z"/></clipPath></defs></svg>