<svg xmlns="http://www.w3.org/2000/svg" width="70" height="70" fill="none" viewBox="0 0 70 70"><g clip-path="url(#a)"><path stroke="#fff" stroke-width=".651" d="M33.493 6.995a.24.24 0 0 0-.266-.215h-.01a.24.24 0 0 0-.216.266l.227 2.19a.243.243 0 0 0 .265.216l.01-.001a.243.243 0 0 0 .216-.266zm3.629.09a.243.243 0 0 0-.21-.271l-.008-.001a.24.24 0 0 0-.271.21l-.341 2.702a.24.24 0 0 0 .21.27l.008.002a.24.24 0 0 0 .27-.21zm-7.184.639a.24.24 0 0 0-.308-.15l-.01.002a.24.24 0 0 0-.15.308l.603 1.76a.24.24 0 0 0 .307.15l.01-.003a.24.24 0 0 0 .15-.307zm10.699.268a.243.243 0 0 0-.144-.312l-.008-.003a.243.243 0 0 0-.312.144l-.729 1.982a.243.243 0 0 0 .144.312l.008.003a.243.243 0 0 0 .312-.144zM26.632 9.226a.235.235 0 0 0-.325-.073l-.019.012a.235.235 0 0 0-.073.325l.215.339a.235.235 0 0 0 .325.072l.02-.012a.235.235 0 0 0 .072-.325zm17.224.44a.244.244 0 0 0-.07-.337l-.007-.004a.244.244 0 0 0-.337.07l-1.241 1.897a.243.243 0 0 0 .07.337l.007.004a.24.24 0 0 0 .337-.07zm-16.673.445a.24.24 0 0 0-.332-.076l-.01.006a.24.24 0 0 0-.077.332l.57.912a.24.24 0 0 0 .331.076l.01-.007a.24.24 0 0 0 .077-.33zm9.48.619a.24.24 0 0 0-.208-.268l-.012-.002a.24.24 0 0 0-.27.209l-.212 1.681a.24.24 0 0 0 .21.27h.01a.24.24 0 0 0 .27-.208zm1.597 2.393.401.148a.033.033 0 0 0 .043-.02l.757-2.059a.27.27 0 0 0-.004-.193.24.24 0 0 0-.134-.13l-.011-.003a.24.24 0 0 0-.186.01.26.26 0 0 0-.128.145l-.758 2.06a.03.03 0 0 0 0 .025.03.03 0 0 0 .02.017Zm-4.658-.478.437-.044a.027.027 0 0 0 .024-.03l-.15-1.476a.25.25 0 0 0-.085-.165.23.23 0 0 0-.17-.055l-.03.002a.23.23 0 0 0-.156.089.25.25 0 0 0-.05.18l.15 1.475a.03.03 0 0 0 .01.018l.01.005zm-2.272.545.379-.13.016-.008.011-.015a.05.05 0 0 0 .002-.037l-.647-1.902a.27.27 0 0 0-.124-.15.23.23 0 0 0-.182-.018l-.022.008a.23.23 0 0 0-.134.125.27.27 0 0 0-.006.194l.647 1.903a.05.05 0 0 0 .024.027.05.05 0 0 0 .037.003Zm-7.572-1.747a.24.24 0 0 0-.34-.002l-.008.009a.24.24 0 0 0-.001.34l.768.773a.24.24 0 0 0 .34 0l.008-.008a.24.24 0 0 0 0-.34zm22.855.224a.235.235 0 0 0-.333-.007l-2.365 2.268a.235.235 0 0 0-.007.332l.016.017a.235.235 0 0 0 .333.007l2.365-2.268a.236.236 0 0 0 .007-.333zm-6.223 2.46.357.233a.034.034 0 0 0 .047-.01l.576-.88a.28.28 0 0 0 .043-.191.2.2 0 0 0-.032-.089.2.2 0 0 0-.065-.065l-.022-.015a.2.2 0 0 0-.086-.033.2.2 0 0 0-.094.006.3.3 0 0 0-.157.116l-.577.88a.03.03 0 0 0-.005.026.03.03 0 0 0 .015.021Zm-13.01 1.61.303-.302a.03.03 0 0 0 .01-.022.03.03 0 0 0-.01-.023l-1.947-1.96a.25.25 0 0 0-.169-.075.22.22 0 0 0-.165.064l-.024.022a.22.22 0 0 0-.064.165.25.25 0 0 0 .074.17l1.947 1.96a.03.03 0 0 0 .044 0Zm21.57 5.177 2.533-.78a.11.11 0 0 0 .077-.09q.16-1.126.44-2.154.172-.63.475-1.173c.105-.188.261-.354.455-.117.185.227.296.54.371.81.173.622.245 1.342.284 2.037l.003.01.006.006.009.003h.01l1.783-.55a.05.05 0 0 0 .035-.05c-.083-1.168-.324-2.292-.78-3.357-.305-.712-.755-1.472-1.394-1.882-1.085-.695-2.003.4-2.46 1.233a11.5 11.5 0 0 0-.819 1.885c-.438 1.308-.766 2.72-1.053 4.147l.001.01.005.007.009.005zm-22.948-3.519a.245.245 0 0 0-.077-.336l-4.469-2.814a.244.244 0 0 0-.336.076l-.003.004a.243.243 0 0 0 .077.337l4.469 2.814a.244.244 0 0 0 .336-.077zm16.238-1.812.298.31a.03.03 0 0 0 .045 0l1.039-1a.3.3 0 0 0 .057-.078.3.3 0 0 0 .026-.09q.005-.046-.01-.087a.2.2 0 0 0-.042-.072l-.045-.046a.2.2 0 0 0-.157-.059.27.27 0 0 0-.17.077l-1.04 1a.03.03 0 0 0 0 .044Zm6.614-.993a.24.24 0 0 0-.24-.114.2.2 0 0 0-.087.031l-2.045 1.224a.24.24 0 0 0-.082.327l.009.015a.24.24 0 0 0 .327.082l2.045-1.224a.24.24 0 0 0 .082-.327zm-5.134 2.839q.021.093.142.085.063-.005.74-.125c.144-.026.41-.157.402-.345q-.008-.18-.199-.245-.02-.007-.039-.005a.4.4 0 0 0-.16.057l-.858.51a.06.06 0 0 0-.029.068Zm-21.714 1.074a.24.24 0 0 0-.149-.308l-2.018-.702a.243.243 0 0 0-.307.148l-.004.01a.24.24 0 0 0 .149.308l2.018.702a.24.24 0 0 0 .307-.148zm15.2 1.96.146.703a.04.04 0 0 0 .032.034c.758.191 2.185-.134 2.023-1.208-.112-.748-.772-.786-1.343-.936a.5.5 0 0 1-.23-.107c-.173-.176.041-.33.203-.358q.37-.065.78.037.008.003.016 0 .008 0 .014-.005a.04.04 0 0 0 .016-.024l.112-.653a.027.027 0 0 0-.02-.032 2.6 2.6 0 0 0-.949-.024c-.639.1-1.227.49-1.054 1.228.112.479.467.66.905.757q.435.097.533.138c.122.052.215.15.162.287-.133.341-1.045.214-1.322.14a.02.02 0 0 0-.018.005.02.02 0 0 0-.006.018Zm-24.651 4.506a9.5 9.5 0 0 0-2.036 4.067c-.118.514-.166 1.048-.21 1.547q0 .008.002.015a.03.03 0 0 0 .04.016l2.24-.875a.1.1 0 0 0 .06-.084c.083-1.432.555-2.78 1.237-4.03a.05.05 0 0 1 .06-.024c.561.18 1.02.34 1.538.46 2.25.523 4.735.115 6.722-1.08.837-.503 1.833-1.358 1.96-2.39.152-1.229-.816-2.076-1.905-2.391a5.3 5.3 0 0 0-1.417-.196c-2.523-.024-4.79 1.152-6.531 2.918q-.453.457-.926 1.035a.07.07 0 0 1-.081.018c-.871-.406-1.607-1.089-1.807-2.053-.082-.396-.053-.87.037-1.263.404-1.764 2.253-2.314 3.83-2.418q.66-.045 1.197.001a.085.085 0 0 0 .084-.048l.001-.002a.05.05 0 0 0 0-.041.05.05 0 0 0-.031-.026c-1.443-.355-2.985-.364-4.3.431-.93.563-1.599 1.462-1.737 2.546-.183 1.44.494 2.787 1.658 3.612a13 13 0 0 1 .316.234l.003.007a.02.02 0 0 1-.004.014Zm23.967-5.412.008-.004.003-.008.122-1.307v-.006l-.004-.005-.006-.003h-.006l-.757.156-.008.005-.002.01.047 1.272.001.005a.01.01 0 0 0 .009.007h.005zm-2.342-.827-1.156.24-.014.005a.04.04 0 0 0-.016.025v.015l.13.628a.03.03 0 0 0 .037.024l.716-.148a.02.02 0 0 1 .018.004l.007.006.003.009.498 2.401q0 .006.004.01l.007.007.009.003h.01a32 32 0 0 0 .803-.167.025.025 0 0 0 .02-.03l-.503-2.401v-.01a.03.03 0 0 1 .01-.015l.009-.003.715-.15a.03.03 0 0 0 .024-.037l-.13-.628a.04.04 0 0 0-.032-.03h-.015q-.135.03-1.154.242Zm-2.74 3.823a.03.03 0 0 0 .037.023l1.814-.376a.03.03 0 0 0 .023-.036l-.131-.634a.03.03 0 0 0-.036-.023l-.962.199a.03.03 0 0 1-.036-.023l-.11-.537a.03.03 0 0 1 .023-.036l.884-.183a.03.03 0 0 0 .019-.013.03.03 0 0 0 .004-.023l-.129-.624a.03.03 0 0 0-.036-.023l-.884.183a.03.03 0 0 1-.036-.023l-.09-.437a.03.03 0 0 1 .004-.023.03.03 0 0 1 .02-.013l.958-.198a.03.03 0 0 0 .023-.036l-.128-.623a.03.03 0 0 0-.036-.024l-1.811.376a.03.03 0 0 0-.024.036zM48.439 38.32l.245.344a.04.04 0 0 0 .034.02.05.05 0 0 0 .036-.016q.69-.797 1.424-1.731a.04.04 0 0 1 .058-.005.04.04 0 0 1 .011.019l.03.106q.439 1.297 1.125 2.654c.543 1.078 1.223 2.116 2.085 2.966.68.67 1.627 1.281 2.587 1.3a4.1 4.1 0 0 0 1.826-.4c1.401-.678 2.115-1.998 2.282-3.514a.05.05 0 0 0-.032-.05l-.278-.091a.03.03 0 0 0-.021.001.03.03 0 0 0-.014.016c-.227.715-.635 1.472-1.21 1.928q-.406.322-.964.568-1.19.52-2.29-.03a3 3 0 0 1-.684-.482c-.625-.574-1.085-1.303-1.45-2.076q-.41-.868-.68-1.708a24 24 0 0 1-.832-3.43.16.16 0 0 1 .02-.111q.726-1.24 1.293-2.611c.594-1.437 1.08-3.114 1.48-4.74q.077-.317.37-1.561.213-.904.311-1.575c.201-1.376.316-2.691.225-4.055a5 5 0 0 0-.069-.555.02.02 0 0 0-.011-.007h-.007l-1.807.507a.03.03 0 0 0-.015.01.03.03 0 0 0-.005.018q.08.759.033 1.676a50 50 0 0 1-.582 5.519 43 43 0 0 1-.448 2.397 20 20 0 0 1-.7 2.335l-.322.88-.008.002-.008-.002-.005-.006a.5.5 0 0 1-.034-.131 38 38 0 0 1-.268-4.14 122 122 0 0 1 .055-4.515 49 49 0 0 1 .206-3.438.02.02 0 0 0-.01-.01h-.008l-2.544.714a.1.1 0 0 0-.072.08 29 29 0 0 0-.28 2.685 34.8 34.8 0 0 0 1.406 11.993.18.18 0 0 1-.013.137q-.474.885-1.033 1.656a1.8 1.8 0 0 1-.434.433.02.02 0 0 0-.004.026ZM30.92 22.694a.03.03 0 0 0 .016-.01l.004-.01v-.01l-.133-.637a.02.02 0 0 0-.01-.016l-.01-.004h-.01l-1.164.241a.03.03 0 0 1-.02-.003.03.03 0 0 1-.01-.017l-.5-2.412-.004-.01a.03.03 0 0 0-.017-.01h-.01l-.8.166a.03.03 0 0 0-.017.011l-.004.01v.01l.643 3.1q0 .005.004.009l.007.007.01.003h.01zm7.631-.594q-1.02.215-1.157.24l-.014.007-.01.01a.04.04 0 0 0-.006.03l.13.628a.03.03 0 0 0 .014.02q.01.007.023.005l.717-.149h.01q.004 0 .008.004l.007.006.003.009.5 2.405a.026.026 0 0 0 .03.02 38 38 0 0 0 .804-.168.026.026 0 0 0 .02-.03l-.504-2.404v-.01a.03.03 0 0 1 .01-.015l.009-.003.716-.15a.03.03 0 0 0 .024-.038l-.131-.628a.04.04 0 0 0-.017-.025l-.015-.006h-.015q-.135.03-1.156.243Zm-1.635.376a.04.04 0 0 0-.015-.022.04.04 0 0 0-.027-.005l-.787.163a.04.04 0 0 0-.023.015q-.008.013-.005.027l.638 3.08q.004.015.016.023a.04.04 0 0 0 .026.005l.787-.163a.036.036 0 0 0 .028-.042zm-1.165 1.588a1.39 1.39 0 0 0-1.638-1.085l-.324.066a1.39 1.39 0 0 0-1.084 1.639l.103.506a1.39 1.39 0 0 0 1.638 1.084l.324-.066a1.39 1.39 0 0 0 1.084-1.638zm-6.456-.032.658 3.124.001.004.003.002.008.002 1.199-.253a1.52 1.52 0 0 0 .944-.628c.218-.321.297-.71.218-1.083l-.07-.337a1.4 1.4 0 0 0-.225-.514 1.4 1.4 0 0 0-.412-.388 1.5 1.5 0 0 0-.537-.205 1.5 1.5 0 0 0-.58.01l-1.2.253-.006.005zm14.265 4.994c.558.482 1.295.446 1.817-.068a1.71 1.71 0 0 0 .45-1.615c-.2-.764-.813-1.301-1.636-1.186a1.4 1.4 0 0 0-.812.391c-.322.322-.434.776-.456 1.25q-.009.21.078.417.217.517.559.811Zm20.32 1.267a1.725 1.725 0 1 0-3.45 0 1.725 1.725 0 0 0 3.45 0Zm-48.66-.329-2.193.709a.086.086 0 0 0-.06.087c.057.93.316 1.834.857 2.61q.184.266.318.447.351.477.908.919.735.584 1.609.99a.04.04 0 0 1 .02.03.04.04 0 0 1-.013.032q-1.395 1.12-2.412 2.59a17 17 0 0 0-1.701 3.143 7 7 0 0 0-.505 1.915c-.282 2.338.745 4.67 2.271 6.373a12.35 12.35 0 0 0 3.98 2.948 11.1 11.1 0 0 0 6.308.967q1.965-.28 3.748-1.158a14.5 14.5 0 0 0 1.941-1.138q.682-.48 1.35-1.128l.012-.007a.03.03 0 0 1 .026.01.02.02 0 0 1 .004.014l.185 9.416a.04.04 0 0 0 .014.029.04.04 0 0 0 .031.007q.512-.118.92-.381c.608-.391.946-1.056 1.117-1.745a9 9 0 0 0 .25-1.699c.094-1.672-.002-3.379-.118-5.031a144 144 0 0 0-.419-4.858q-.077-.75-.075-1.382c.007-2.495.157-4.888.373-7.392.087-.998.366-1.972.903-2.826.358-.568.923-1.115 1.57-1.31.763-.23 1.372.112 1.667.823q.267.645.416 1.372a.07.07 0 0 1-.026.072 15 15 0 0 0-1.667 1.575c-.51.559-1.026 1.229-1.308 1.957a7.1 7.1 0 0 0-.483 2.422c-.027 1.17.351 2.645 1.837 2.593 1.407-.049 2.53-1.214 3.137-2.437.64-1.29.883-2.833.89-4.32a18 18 0 0 0-.104-2.045 4 4 0 0 0-.048-.295.07.07 0 0 1 .029-.072l1.073-.764a.07.07 0 0 0 .029-.064l-.067-.589a.035.035 0 0 0-.047-.028q-.6.24-1.16.592a.04.04 0 0 1-.05-.008.04.04 0 0 1-.009-.017c-.304-1.321-.982-2.774-2.257-3.406a1.5 1.5 0 0 0-.404-.15c-1.66-.22-3.082 1.14-3.82 2.468a.032.032 0 0 1-.047.01.03.03 0 0 1-.01-.016l-.408-1.325a.05.05 0 0 0-.045-.036l-2.252-.155-.005.001-.005.003a.01.01 0 0 0-.004.01q.026 1.156.317 15.366c.003.157.012.211-.073.32a9.7 9.7 0 0 1-2.54 2.325c-2.506 1.573-5.723 2.099-8.522 1.01a7.2 7.2 0 0 1-3.19-2.426 5 5 0 0 1-.399-.618c-.836-1.524-1.243-3.228-1.088-4.968q.09-1.023.466-2.13.097-.286.271-.591c.665-1.158 1.357-2.159 2.23-3.081a.1.1 0 0 1 .102-.03q2.587.666 5.266.409c1.448-.14 4.218-.768 4.051-2.78a1.2 1.2 0 0 0-.27-.67c-.43-.527-1.137-.733-1.796-.79-1.126-.096-2.256.062-3.388.283q-1.407.276-2.714.88a22 22 0 0 0-1.483.757.11.11 0 0 1-.097.005c-1.26-.56-2.63-1.57-2.971-2.994a7 7 0 0 1-.187-1.166 22 22 0 0 0-.035-.455.02.02 0 0 0-.013-.009zm27.473.507c-.08 1.871-.003 3.758.322 5.634q.195 1.112.52 2.105c.518 1.567 1.31 3.058 2.604 4.08q.465.367 1.006.592.147.06.233.078a.05.05 0 0 0 .053-.02l.36-.502a.043.043 0 0 0-.014-.062c-1.218-.674-1.903-2.015-2.29-3.296a14 14 0 0 1-.438-1.928 19.3 19.3 0 0 1-.16-4.49q.05-.623.188-1.19a1.6 1.6 0 0 1 .215-.472.2.2 0 0 0 .023-.132.1.1 0 0 0-.017-.04.6.6 0 0 0-.292-.205c-.4-.136-.834-.16-1.304-.178q-.465-.018-.991.008a.02.02 0 0 0-.018.018ZM9.57 38.012a1.726 1.726 0 1 0-3.452 0 1.726 1.726 0 0 0 3.452 0Zm45.223 8.476-1.51-.31a.03.03 0 0 1-.017-.012.03.03 0 0 1-.005-.02 1.84 1.84 0 0 0-.444-1.575c-.583-.673-1.454-.955-2.297-.612a2.2 2.2 0 0 0-.84.58q-.696.787-2.063 2.356a.036.036 0 0 0 .003.05l3.865 3.377.006.004a.02.02 0 0 0 .022-.006l.869-.995a.037.037 0 0 0-.004-.052l-.762-.666a.06.06 0 0 1-.017-.062l.011-.02.992-1.135a.08.08 0 0 1 .083-.027l1.126.263a.08.08 0 0 0 .076-.025l.925-1.058a.033.033 0 0 0-.003-.047.04.04 0 0 0-.016-.008Zm-9.251 1.396-.01-.005h-.013l-1.823.772-.01.007-.003.012-.058 5.609q0 .005.003.01a.02.02 0 0 0 .016.011l.01-.001 1.324-.56a.02.02 0 0 0 .01-.008l.003-.011v-.795a.02.02 0 0 1 .013-.02l2.62-1.108a.02.02 0 0 1 .023.005l.574.556.01.006.013-.001 1.305-.552.008-.006.005-.01a.02.02 0 0 0-.007-.02z"/><path stroke="#fff" stroke-width=".651" d="M41.173 51.567c.432-.327.44-1.007.23-1.45-.266-.556-.864-.8-1.44-.831l-3.322-.181-.005.003-.004.005-.002.006-.283 5.14q0 .006.002.01a.02.02 0 0 0 .012.013l.008.002 3.467.19q.363.018.54-.015c.96-.175 1.528-.999 1.363-1.96a1.3 1.3 0 0 0-.565-.858.05.05 0 0 1-.02-.037q0-.01.005-.02zm19.254.309-.002-.014a.03.03 0 0 1 .016-.02q.008-.003.014-.002l.22.028a.08.08 0 0 0 .075-.037l.144-.247a.05.05 0 0 0-.003-.05l-.013-.011q-.66-.387-1.057-.627a1.3 1.3 0 0 0-.295-.137c-.623-.186-1.009.686-1.061 1.166a.043.043 0 0 0 .037.047l.338.044a.04.04 0 0 0 .043-.023l.005-.017q.02-.288.16-.535.159-.276.443-.101a.074.074 0 0 1 .025.101c-.226.366-.585.99-.093 1.322.277.187.604.214.831-.059.197-.236.295-.526.173-.828ZM58.595 54.1a2 2 0 0 0-.358-.16 37 37 0 0 1-1.022-.34.07.07 0 0 0-.086.025l-.311.433-.004.009.001.01a.02.02 0 0 0 .013.011q1.274.327 2.022.532.059.015.108.088c.184.272.154.494-.091.708l-.008.01-.002.012a.03.03 0 0 0 .012.022l.304.218a.05.05 0 0 0 .062-.004c.359-.341.452-.772.177-1.203q-.44-.69-1.327-2.06l-.011-.01a.03.03 0 0 0-.032-.001l-.012.01-.311.434-.004.01q0 .007.004.012.369.533.705.997a4 4 0 0 0 .183.229q0 .003-.002.005l-.005.003zm-1.125 1.927a.027.027 0 0 1 .034-.03l.212.07a.08.08 0 0 0 .08-.023l.188-.216.008-.015a.04.04 0 0 0-.002-.034l-.01-.014q-.575-.506-.921-.816a1.3 1.3 0 0 0-.264-.19c-.577-.3-1.12.484-1.263.946a.043.043 0 0 0 .027.053l.325.106a.04.04 0 0 0 .033-.003.04.04 0 0 0 .021-.026 1.2 1.2 0 0 1 .26-.496q.206-.24.453-.016a.08.08 0 0 1 .02.08.1.1 0 0 1-.015.025c-.29.317-.761.862-.34 1.281.237.236.553.324.827.099.239-.194.39-.461.327-.781Zm-2.88 1.703a.02.02 0 0 1-.026.02.02.02 0 0 1-.01-.008 3 3 0 0 0-.24-.303q-.1-.11-.853-.904a.04.04 0 0 0-.028-.012q-.016 0-.027.01l-.339.32a.05.05 0 0 0-.001.068l1.893 2a.03.03 0 0 0 .03.007l.008-.005.362-.343.006-.009a.03.03 0 0 0 0-.02l-.005-.01-.371-.392a.15.15 0 0 1-.04-.13l.034-.199q0-.005.004-.01a.03.03 0 0 1 .017-.011h.01l.912.187a.1.1 0 0 0 .086-.024l.392-.371a.03.03 0 0 0 .008-.014v-.015a.03.03 0 0 0-.023-.02l-1.323-.229a.05.05 0 0 1-.044-.051v-1.109l-.004-.012a.02.02 0 0 0-.023-.01l-.012.005-.385.365a.16.16 0 0 0-.05.12zm-1.738 2.337.245.29a.07.07 0 0 0 .08.019c.393-.168 1.113-.665.896-1.196-.126-.31-.412-.454-.743-.362q-.2.055-.44.131c-.095.03-.233.057-.293-.022a.1.1 0 0 1-.02-.066q0-.038.023-.07c.146-.2.373-.276.61-.37a.02.02 0 0 0 .01-.023l-.108-.333a.06.06 0 0 0-.029-.034.06.06 0 0 0-.044-.004 1.8 1.8 0 0 0-.745.475c-.174.186-.298.458-.163.7.324.575.843.203 1.286.139q.126-.019.183.081c.146.256-.577.557-.738.61a.02.02 0 0 0-.015.025q0 .005.005.01Zm-1.332.856q-.007.004-.015-.002a4 4 0 0 0-.277-.248l-.96-.698a.03.03 0 0 0-.038 0l-.415.295a.033.033 0 0 0-.01.043l.01.011 1.74 1.16q.014.01.032.01a.1.1 0 0 0 .032-.011l.398-.284a.06.06 0 0 0 .022-.06l-.526-2.023a.03.03 0 0 0-.036-.024l-.014.005-.417.296a.03.03 0 0 0-.011.036l.345 1.136q.024.083.144.343.003.009-.004.015Zm-27.883-.02q-.003-.008.006-.02.232-.36.487-.858a.03.03 0 0 0 .002-.02.03.03 0 0 0-.014-.017l-.44-.24a.02.02 0 0 0-.016-.002.02.02 0 0 0-.011.01l-1.339 2.454-.001.005v.006q0 .002.003.005l.004.003.335.183a.05.05 0 0 0 .057-.008l.124-.117a.04.04 0 0 1 .054 0q.007.008.01.018.119.457.59.562c.503.112.877-.398 1.048-.791.153-.353.198-.777-.107-1.032q-.36-.301-.763-.127l-.01.002q-.005 0-.009-.002l-.007-.006zm26.196.13a.905.905 0 0 0-1.27-.165l-.114.088a.907.907 0 0 0-.164 1.27l.173.224a.903.903 0 0 0 1.269.165l.114-.088a.905.905 0 0 0 .165-1.27zm-3.266 1.854a.3.3 0 0 1-.073-.097 5 5 0 0 0-.179-.444l-.443-.979a.026.026 0 0 0-.034-.013l-.443.202a.043.043 0 0 0-.022.057l1.13 2.486a.054.054 0 0 0 .072.027l.429-.195.009-.006.006-.01.001-.01-.002-.011-.222-.487a.16.16 0 0 1 .005-.138l.09-.165.01-.01a.03.03 0 0 1 .037-.003l.81.467a.08.08 0 0 0 .072.004l.494-.225a.03.03 0 0 0 .017-.026.03.03 0 0 0-.004-.015.03.03 0 0 0-.011-.011l-1.152-.628a.08.08 0 0 1-.037-.095l.338-1.033a.03.03 0 0 0-.008-.029.03.03 0 0 0-.03-.003 7 7 0 0 1-.414.197c-.061.027-.115.07-.134.129l-.232.715a1.1 1.1 0 0 0-.064.347l-.005.004a.01.01 0 0 1-.011-.002Zm-20.994.369q.058-.198.074-.384.085-.977.1-1.07a.07.07 0 0 0-.044-.078l-.49-.204-.01-.002a.02.02 0 0 0-.015.01l-.002.009q-.032 1.311-.062 2.084-.002.06-.062.125c-.222.24-.445.261-.709.071a.03.03 0 0 0-.023-.004.03.03 0 0 0-.018.015l-.144.345a.05.05 0 0 0 .018.06c.412.272.852.265 1.21-.099q.57-.582 1.703-1.753l.008-.014v-.016a.03.03 0 0 0-.02-.024l-.491-.205a.02.02 0 0 0-.022.005q-.435.48-.81.91a4 4 0 0 0-.181.23l-.006-.001-.004-.004zm19.187-1.484a.05.05 0 0 0-.042-.035q-.01 0-.019.002l-.435.137a.05.05 0 0 0-.029.024.05.05 0 0 0-.003.037l.817 2.609a.05.05 0 0 0 .061.032l.436-.136a.05.05 0 0 0 .029-.024.05.05 0 0 0 .003-.038zm-15.494.627a.04.04 0 0 0-.002-.03.04.04 0 0 0-.023-.018l-.466-.148a.04.04 0 0 0-.047.025l-.781 2.462a.04.04 0 0 0 .002.029.04.04 0 0 0 .022.018l.466.148a.04.04 0 0 0 .048-.025zm11.84.561a.247.247 0 0 0-.298-.182l-.104.024a.25.25 0 0 0-.183.298l.01.044a.25.25 0 0 0 .299.184l.103-.025a.25.25 0 0 0 .184-.298zm2.467 1.813a.026.026 0 0 1 .044-.006l.137.176a.08.08 0 0 0 .08.027l.275-.074a.05.05 0 0 0 .034-.037l-.001-.018q-.194-.74-.308-1.191a1.3 1.3 0 0 0-.112-.305c-.311-.572-1.2-.226-1.577.078a.04.04 0 0 0-.007.06l.21.269.013.01a.04.04 0 0 0 .034.004l.014-.008q.218-.191.492-.267.307-.083.386.24a.075.075 0 0 1-.055.09c-.417.101-1.113.29-.998.873.064.328.277.577.631.544.306-.027.58-.165.707-.465Zm-3.589-.059.01-.003.007-.006.005-.01.001-.01-.046-.405-.003-.01a.03.03 0 0 0-.016-.012l-.01-.001-.845.096a.03.03 0 0 1-.02-.005l-.006-.008-.003-.01-.072-.628.001-.01.005-.009a.03.03 0 0 1 .018-.01l.912-.103.01-.003.007-.007.005-.009.001-.01-.047-.409-.003-.01-.006-.007-.01-.005-.01-.001-1.462.166-.01.003a.03.03 0 0 0-.013.026l.294 2.59.003.01a.03.03 0 0 0 .015.012h.01l.499-.056.01-.003a.03.03 0 0 0 .013-.026l-.113-.992.001-.01a.03.03 0 0 1 .013-.015l.01-.003zm-8.692.811c.074-.312.156-.753.263-1.252.117-.545-.139-.878-.691-.921a.68.68 0 0 0-.523.17.03.03 0 0 1-.015.007q-.009 0-.016-.002a.03.03 0 0 1-.018-.026l-.007-.183a.08.08 0 0 0-.06-.07l-.33-.068h-.011l-.012.004-.008.009-.005.011-.396 1.929a.033.033 0 0 0 .026.039l.485.1a.03.03 0 0 0 .023-.005.03.03 0 0 0 .013-.02q.093-.498.212-1.03c.042-.188.153-.426.364-.453.316-.04.468.157.41.458q-.09.48-.241 1.18a.03.03 0 0 0 .004.022.03.03 0 0 0 .018.013l.495.101q.007 0 .012-.002a.02.02 0 0 0 .008-.01Zm9.91-1.977a.03.03 0 0 0-.015-.022q-.012-.008-.026-.005l-.476.096a.03.03 0 0 0-.022.015l-.005.012v.013l.388 1.925a.04.04 0 0 0 .014.021q.012.008.026.005l.477-.096.012-.005.01-.01a.03.03 0 0 0 .005-.025zm-7.111 2.354c.047-.317.09-.763.154-1.27.07-.553-.214-.862-.768-.857a.68.68 0 0 0-.506.215.03.03 0 0 1-.05-.017l-.023-.181a.08.08 0 0 0-.066-.066l-.334-.039a.03.03 0 0 0-.023.007.03.03 0 0 0-.012.02l-.227 1.956q0 .013.007.024a.03.03 0 0 0 .022.012l.492.057h.012l.01-.006.008-.01.004-.011q.049-.504.122-1.044c.025-.191.115-.438.323-.483.31-.067.48.116.448.42q-.05.486-.138 1.197a.03.03 0 0 0 .026.032l.5.058q.008 0 .013-.003l.006-.01Zm2.09-.156a.03.03 0 0 1 .024-.01.03.03 0 0 1 .021.015l.09.204a.08.08 0 0 0 .07.044l.287-.004a.045.045 0 0 0 .044-.046q-.01-.765-.011-1.23 0-.189-.036-.324c-.164-.63-1.11-.507-1.549-.304a.043.043 0 0 0-.021.056l.138.312a.05.05 0 0 0 .025.023l.018.003.016-.005q.257-.133.542-.14.318-.007.316.327a.08.08 0 0 1-.046.068.1.1 0 0 1-.029.005c-.43-.002-1.15.013-1.18.607-.015.334.131.627.482.68.304.047.603-.02.8-.281ZM14.71 24.47l.54.122a8.4 8.4 0 0 0 1.727.203q.413.007.642-.029.869-.134 1.055-.17c.853-.169 1.702-.47 2.413-.972.643-.452 1.052-1.098.983-1.907-.021-.237-.126-.437-.325-.537q-.329-.165-.732-.151a5.6 5.6 0 0 0-1.395.228q-1.152.34-2.222.895-.764.397-1.356.84-.775.58-1.354 1.417a.04.04 0 0 0-.005.037.04.04 0 0 0 .012.015.04.04 0 0 0 .017.009Zm19.376-.765c-.533.111-.533.624-.443 1.051.09.428.294.897.828.785.533-.112.532-.623.443-1.051s-.295-.897-.828-.785Zm-3.786.859.346 1.69a.04.04 0 0 0 .033.033h.016l.231-.047a.65.65 0 0 0 .426-.307.77.77 0 0 0 .09-.548l-.068-.335a.77.77 0 0 0-.299-.468.65.65 0 0 0-.512-.114l-.231.047a.04.04 0 0 0-.027.018l-.006.015zm-9.861 10.608-.01.01-.003.014a.03.03 0 0 0 .015.023.2.2 0 0 0 .042.015c1.606.337 3.314.266 4.862-.283q.368-.13.644-.335c.154-.114.334-.363.093-.499a1.1 1.1 0 0 0-.274-.11c-.464-.12-.969-.135-1.434-.12q-.42.015-.888.103a8.9 8.9 0 0 0-3.047 1.182Zm18.249 1.39-.005-.01a.02.02 0 0 0-.02-.007l-.01.005a11.3 11.3 0 0 0-1.496 1.701c-.48.676-.802 1.366-.878 2.187q-.065.706.052 1.314c.083.433.37 1.256.986.765q.187-.149.31-.32c.556-.768.876-1.621 1.023-2.588q.224-1.481.038-3.047ZM49.48 46.738l1.11.975a.044.044 0 0 0 .061-.004l1.085-1.235a.8.8 0 0 0 .204-.552.7.7 0 0 0-.234-.507l-.09-.08a.7.7 0 0 0-.534-.166.8.8 0 0 0-.521.273l-1.086 1.234a.043.043 0 0 0 .004.062Zm-4.481 2.696a.02.02 0 0 0-.01.008.02.02 0 0 0-.004.013v2.121q0 .007.002.01l.008.01a.02.02 0 0 0 .02.001l1.629-.688.009-.006a.02.02 0 0 0 .004-.021l-.006-.01-1.469-1.5a.02.02 0 0 0-.025-.005z"/><path stroke="#fff" stroke-width=".651" d="m37.94 50.44-.035.647q0 .01.006.017.007.007.016.008l1.886.102a.346.346 0 0 0 .363-.324v-.009a.343.343 0 0 0-.325-.361l-1.886-.103a.02.02 0 0 0-.017.006.02.02 0 0 0-.008.016Zm-.104 1.892-.044.754a.03.03 0 0 0 .007.019l.008.005.01.003 2.165.125a.43.43 0 0 0 .295-.094c.08-.066.13-.16.135-.259l.003-.053a.36.36 0 0 0-.104-.273.43.43 0 0 0-.283-.127l-2.165-.125a.026.026 0 0 0-.027.024Zm21.981-.769c-.14.221-.347.58-.035.755.207.116.354-.129.384-.298.042-.234-.128-.37-.313-.466a.03.03 0 0 0-.035.01Zm-2.89 4.042c-.178.19-.447.504-.174.733.181.152.371-.06.431-.221.085-.222-.057-.387-.22-.515a.03.03 0 0 0-.037.003Zm-33.65 5.985c-.12.222-.247.554.054.717.3.162.51-.125.63-.349s.247-.555-.054-.717c-.3-.163-.51.125-.63.348Zm25.561-.371c-.312.183-.197.49-.054.735.143.243.357.494.668.31.312-.182.197-.49.053-.734-.143-.244-.356-.494-.667-.311Zm-5.495 2.906a1.2 1.2 0 0 0-.405.151c-.275.164-.165.606.2.486q.405-.134.26-.603a.05.05 0 0 0-.02-.028.05.05 0 0 0-.035-.006Zm-7.213.935c-.261-.004-.674.007-.66.364.009.237.294.233.454.17.22-.086.247-.302.232-.51a.03.03 0 0 0-.026-.024Z"/><path fill="#5e5e5e" d="m35.874 0 1.16.065a34.6 34.6 0 0 1 11.692 2.731 35.1 35.1 0 0 1 12.761 9.33 34.8 34.8 0 0 1 6.66 11.612 34.6 34.6 0 0 1 1.74 8.449q.05.62.113 2.019v1.564q-.065 1.471-.11 2.043a34.6 34.6 0 0 1-2.668 10.866 34.9 34.9 0 0 1-7.46 11.05q-5.06 5.075-11.772 7.779a34.4 34.4 0 0 1-9.67 2.334c-.787.074-1.646.114-2.47.158h-1.704l-1.24-.067a34.6 34.6 0 0 1-12.568-3.145 35.1 35.1 0 0 1-12.362-9.55A34.9 34.9 0 0 1 .112 37.813 60 60 0 0 1 0 35.823v-1.612c.01-.15.006-.317.015-.448.047-.679.068-1.281.127-1.929q.337-3.725 1.407-7.16a34.8 34.8 0 0 1 6.872-12.443 35.1 35.1 0 0 1 12.757-9.393A34.8 34.8 0 0 1 31.79.145c.704-.064 1.534-.1 2.302-.145zm-2.381 6.995a.24.24 0 0 0-.266-.215h-.01a.24.24 0 0 0-.216.266l.227 2.19a.24.24 0 0 0 .265.216l.01-.001a.24.24 0 0 0 .216-.266zm3.629.09a.243.243 0 0 0-.21-.271l-.008-.001a.24.24 0 0 0-.271.21l-.341 2.702a.24.24 0 0 0 .21.27l.008.002a.24.24 0 0 0 .27-.21zm-7.184.639a.24.24 0 0 0-.308-.15l-.01.003a.243.243 0 0 0-.15.307l.603 1.76a.24.24 0 0 0 .307.15l.01-.003a.24.24 0 0 0 .15-.307zm10.699.268a.24.24 0 0 0-.063-.262.2.2 0 0 0-.081-.05l-.008-.003a.243.243 0 0 0-.312.144l-.729 1.982a.243.243 0 0 0 .144.312l.008.003a.243.243 0 0 0 .312-.144zM26.632 9.226a.236.236 0 0 0-.325-.073l-.019.012a.235.235 0 0 0-.073.325l.215.339a.236.236 0 0 0 .325.072l.02-.012a.235.235 0 0 0 .072-.325zm17.224.44a.243.243 0 0 0-.07-.337l-.007-.004a.243.243 0 0 0-.337.07l-1.241 1.897a.243.243 0 0 0 .07.337l.007.004a.24.24 0 0 0 .337-.07zm-16.673.445a.24.24 0 0 0-.332-.077l-.01.007a.24.24 0 0 0-.077.332l.57.912a.24.24 0 0 0 .331.076l.01-.007a.24.24 0 0 0 .077-.33zm9.48.62a.24.24 0 0 0-.208-.27h-.012a.24.24 0 0 0-.27.208l-.212 1.681a.24.24 0 0 0 .21.27h.01a.24.24 0 0 0 .27-.208zm1.597 2.392.401.148a.03.03 0 0 0 .026-.001l.01-.008.007-.011.757-2.059a.27.27 0 0 0-.004-.194.24.24 0 0 0-.134-.128l-.011-.004a.24.24 0 0 0-.186.01.26.26 0 0 0-.128.145l-.758 2.06a.03.03 0 0 0 0 .025l.008.01zm-4.658-.478.437-.044a.027.027 0 0 0 .024-.03l-.15-1.476a.25.25 0 0 0-.085-.165.23.23 0 0 0-.17-.055l-.03.002a.23.23 0 0 0-.156.089.25.25 0 0 0-.05.18l.15 1.475a.03.03 0 0 0 .01.018.03.03 0 0 0 .02.006m-2.271.545.378-.13a.047.047 0 0 0 .03-.06l-.648-1.902a.27.27 0 0 0-.124-.15.23.23 0 0 0-.182-.018l-.023.008a.23.23 0 0 0-.133.125.27.27 0 0 0-.006.194l.647 1.903a.05.05 0 0 0 .042.032q.01 0 .019-.002m-7.573-1.747a.24.24 0 0 0-.34-.002l-.008.009a.24.24 0 0 0-.001.34l.768.773a.24.24 0 0 0 .34 0l.008-.008a.24.24 0 0 0 0-.34zm22.855.224a.235.235 0 0 0-.333-.007l-2.365 2.268a.235.235 0 0 0-.007.333l.016.016a.235.235 0 0 0 .333.007l2.365-2.268a.235.235 0 0 0 .007-.333zm-6.223 2.46.357.233a.034.034 0 0 0 .047-.01l.576-.88a.3.3 0 0 0 .043-.192.2.2 0 0 0-.032-.088.2.2 0 0 0-.064-.065l-.023-.015a.2.2 0 0 0-.086-.033.2.2 0 0 0-.094.006.3.3 0 0 0-.088.042.3.3 0 0 0-.07.073l-.576.881a.034.034 0 0 0 .01.047m-13.01 1.61.303-.302.007-.01.002-.012-.002-.012-.007-.01-1.947-1.96a.25.25 0 0 0-.169-.076.22.22 0 0 0-.165.064l-.024.022a.22.22 0 0 0-.064.165.24.24 0 0 0 .074.17l1.947 1.96a.03.03 0 0 0 .044 0m21.57 5.176 2.533-.779a.11.11 0 0 0 .077-.09q.16-1.126.44-2.154.172-.63.475-1.173c.105-.188.261-.354.455-.117.185.227.296.54.371.81.173.622.245 1.342.284 2.037l.003.01.006.006.009.004.01-.001 1.782-.549a.05.05 0 0 0 .036-.052c-.083-1.167-.324-2.291-.78-3.356-.305-.712-.755-1.472-1.394-1.882-1.085-.695-2.003.4-2.46 1.233a11.5 11.5 0 0 0-.82 1.886c-.437 1.307-.765 2.718-1.052 4.146l.001.01.005.008a.02.02 0 0 0 .019.003m-22.948-3.518a.245.245 0 0 0-.077-.337l-4.469-2.814a.244.244 0 0 0-.336.077l-.003.004a.243.243 0 0 0 .077.336l4.469 2.815a.243.243 0 0 0 .336-.077zm16.238-1.813.298.31q.01.01.022.01a.03.03 0 0 0 .023-.01l1.039-1a.3.3 0 0 0 .057-.077.3.3 0 0 0 .026-.09q.005-.046-.009-.087a.2.2 0 0 0-.043-.073l-.044-.045a.2.2 0 0 0-.158-.06.27.27 0 0 0-.17.078l-1.04 1a.03.03 0 0 0 0 .044m6.614-.993a.24.24 0 0 0-.327-.082l-2.045 1.224a.24.24 0 0 0-.082.327l.009.015a.24.24 0 0 0 .327.082l2.045-1.224a.24.24 0 0 0 .082-.327zm-5.135 2.84q.023.093.143.085.063-.006.74-.125c.144-.026.41-.157.402-.345q-.008-.18-.199-.245a.1.1 0 0 0-.039-.005.4.4 0 0 0-.16.057l-.858.51a.06.06 0 0 0-.029.067M22.006 18.5a.24.24 0 0 0-.149-.308l-2.018-.702a.243.243 0 0 0-.307.149l-.004.01a.24.24 0 0 0 .149.307l2.018.703a.24.24 0 0 0 .308-.15zm15.2 1.96.146.703a.04.04 0 0 0 .032.033c.758.192 2.185-.133 2.023-1.207-.112-.748-.772-.786-1.343-.936a.5.5 0 0 1-.23-.107c-.173-.176.041-.33.203-.358q.37-.065.78.037a.04.04 0 0 0 .03-.005.04.04 0 0 0 .016-.024l.112-.653a.027.027 0 0 0-.021-.032 2.6 2.6 0 0 0-.948-.024c-.639.1-1.227.49-1.054 1.228.112.478.467.66.905.757q.435.097.533.138c.122.052.215.15.162.287-.133.341-1.045.214-1.322.14a.02.02 0 0 0-.018.005.02.02 0 0 0-.006.018m-24.651 4.506a9.5 9.5 0 0 0-2.036 4.067c-.118.514-.166 1.048-.21 1.547q0 .008.002.015a.03.03 0 0 0 .01.012.03.03 0 0 0 .03.004l2.24-.875a.1.1 0 0 0 .06-.084c.083-1.431.555-2.78 1.237-4.03a.05.05 0 0 1 .06-.024c.561.181 1.02.34 1.538.46 2.25.523 4.735.115 6.722-1.08.837-.503 1.833-1.358 1.96-2.39.152-1.229-.816-2.076-1.905-2.391a5.3 5.3 0 0 0-1.417-.196c-2.523-.024-4.79 1.152-6.531 2.918q-.453.457-.926 1.035a.07.07 0 0 1-.082.018c-.87-.406-1.606-1.089-1.806-2.053-.082-.396-.053-.87.037-1.263.404-1.764 2.253-2.314 3.83-2.418q.66-.045 1.197.001a.085.085 0 0 0 .084-.048l.001-.002a.05.05 0 0 0-.012-.058l-.02-.009c-1.442-.355-2.984-.364-4.299.431-.93.563-1.6 1.462-1.737 2.546-.184 1.44.494 2.787 1.658 3.612a13 13 0 0 1 .316.234l.003.007a.02.02 0 0 1-.004.014m23.967-5.412.008-.004.003-.008.122-1.307v-.006l-.004-.005-.005-.003h-.007l-.757.156a.014.014 0 0 0-.01.014l.047 1.273.001.005.004.005.005.002h.005zm-2.342-.827-1.156.24-.014.005a.04.04 0 0 0-.016.025v.015l.13.628a.03.03 0 0 0 .013.02q.011.007.024.005l.716-.148h.01a.02.02 0 0 1 .018.018l.498 2.402q0 .004.004.009a.03.03 0 0 0 .016.01h.01a35 35 0 0 0 .803-.167.03.03 0 0 0 .016-.011.03.03 0 0 0 .004-.019l-.503-2.4v-.01q0-.005.004-.009l.006-.007.009-.003.715-.15a.03.03 0 0 0 .024-.037l-.13-.627a.04.04 0 0 0-.018-.025l-.014-.006h-.015q-.135.03-1.154.242m-2.74 3.823a.03.03 0 0 0 .037.023l1.814-.376a.03.03 0 0 0 .023-.036l-.131-.634a.03.03 0 0 0-.036-.023l-.962.199a.03.03 0 0 1-.036-.023l-.11-.537a.03.03 0 0 1 .022-.036l.885-.183a.03.03 0 0 0 .023-.036l-.129-.624a.03.03 0 0 0-.036-.023l-.884.183a.03.03 0 0 1-.036-.023l-.09-.437a.03.03 0 0 1 .023-.036l.959-.198a.03.03 0 0 0 .023-.036l-.128-.623a.03.03 0 0 0-.036-.023l-1.811.375a.03.03 0 0 0-.024.036zm17 15.77.245.345a.04.04 0 0 0 .034.018.05.05 0 0 0 .036-.015q.69-.796 1.424-1.731a.04.04 0 0 1 .039-.015.04.04 0 0 1 .02.01.04.04 0 0 1 .01.019l.03.106q.439 1.297 1.125 2.655c.543 1.077 1.223 2.115 2.085 2.965.68.67 1.627 1.281 2.587 1.3a4.1 4.1 0 0 0 1.825-.4c1.402-.678 2.116-1.997 2.283-3.514a.05.05 0 0 0-.032-.05l-.278-.091a.03.03 0 0 0-.021.001.03.03 0 0 0-.014.017c-.227.715-.635 1.471-1.21 1.927q-.406.323-.964.568-1.19.52-2.29-.03a3 3 0 0 1-.684-.482c-.625-.574-1.085-1.303-1.45-2.076q-.41-.868-.68-1.708a24 24 0 0 1-.832-3.43.16.16 0 0 1 .02-.111q.726-1.24 1.293-2.611c.594-1.437 1.08-3.114 1.48-4.74q.077-.317.37-1.561.213-.904.311-1.575c.201-1.376.316-2.69.225-4.055a5 5 0 0 0-.069-.555l-.005-.005a.02.02 0 0 0-.013-.002l-1.807.507a.03.03 0 0 0-.02.029q.08.758.033 1.675a50 50 0 0 1-.582 5.519 43 43 0 0 1-.448 2.397 20 20 0 0 1-.7 2.335 106 106 0 0 1-.323.88.014.014 0 0 1-.015 0l-.005-.006a.5.5 0 0 1-.034-.131 38 38 0 0 1-.268-4.14 122 122 0 0 1 .055-4.515 49 49 0 0 1 .206-3.438.02.02 0 0 0-.01-.01h-.008l-2.544.714a.1.1 0 0 0-.072.08 29 29 0 0 0-.28 2.685 34.8 34.8 0 0 0 1.406 11.993.18.18 0 0 1-.013.137q-.473.885-1.034 1.656a1.8 1.8 0 0 1-.433.433.02.02 0 0 0-.004.026M30.92 22.694l.01-.004.007-.007.004-.01v-.01l-.133-.636a.03.03 0 0 0-.01-.016l-.01-.004h-.01l-1.164.241h-.01l-.01-.003a.03.03 0 0 1-.01-.017l-.5-2.412a.03.03 0 0 0-.02-.02h-.01l-.802.166a.03.03 0 0 0-.016.011l-.004.01v.01l.643 3.1a.03.03 0 0 0 .01.015l.01.004h.01zm7.632-.593-1.157.24-.014.006a.04.04 0 0 0-.016.04l.13.628a.03.03 0 0 0 .038.025l.716-.149a.03.03 0 0 1 .018.003.02.02 0 0 1 .01.016l.5 2.405a.025.025 0 0 0 .03.02 38 38 0 0 0 .804-.168.025.025 0 0 0 .02-.03l-.504-2.404a.02.02 0 0 1 .004-.018.02.02 0 0 1 .015-.01l.716-.151a.03.03 0 0 0 .024-.037l-.131-.628a.04.04 0 0 0-.017-.025l-.014-.006h-.016q-.135.03-1.156.243m-1.635.375a.04.04 0 0 0-.015-.022.04.04 0 0 0-.027-.005l-.787.163a.036.036 0 0 0-.028.042l.638 3.08q.004.015.016.023a.04.04 0 0 0 .026.005l.787-.163a.036.036 0 0 0 .028-.042zm-1.165 1.588a1.39 1.39 0 0 0-1.638-1.085l-.324.066a1.39 1.39 0 0 0-1.084 1.639l.103.506a1.39 1.39 0 0 0 1.638 1.084l.324-.066a1.39 1.39 0 0 0 1.084-1.638zm-6.456-.032.658 3.124.001.003.003.003.004.002h.004l1.199-.253a1.52 1.52 0 0 0 .944-.628c.218-.321.297-.71.218-1.083l-.07-.337a1.4 1.4 0 0 0-.225-.514 1.4 1.4 0 0 0-.412-.389 1.5 1.5 0 0 0-.537-.204 1.5 1.5 0 0 0-.58.01l-1.2.253a.01.01 0 0 0-.007.013m14.264 4.994c.56.482 1.296.446 1.818-.068a1.71 1.71 0 0 0 .45-1.615c-.2-.764-.813-1.301-1.636-1.186a1.4 1.4 0 0 0-.812.39c-.322.323-.435.777-.456 1.25q-.009.21.078.418.217.517.559.811m20.322 1.268a1.725 1.725 0 1 0-3.45 0 1.725 1.725 0 0 0 3.45 0m-48.661-.33-2.193.709a.086.086 0 0 0-.06.087c.057.93.316 1.834.857 2.61q.184.265.318.447a5 5 0 0 0 .908.919 8 8 0 0 0 1.609.99.04.04 0 0 1 .02.03.04.04 0 0 1-.013.032q-1.395 1.12-2.412 2.59a17 17 0 0 0-1.701 3.143 7 7 0 0 0-.505 1.914c-.282 2.339.745 4.671 2.271 6.374a12.35 12.35 0 0 0 3.98 2.948 11.1 11.1 0 0 0 6.308.967q1.965-.28 3.748-1.158a14.5 14.5 0 0 0 1.941-1.138q.682-.48 1.35-1.128a.03.03 0 0 1 .026-.006.02.02 0 0 1 .012.01l.004.013.185 9.416q0 .008.004.016a.04.04 0 0 0 .025.02h.016q.512-.119.92-.381c.608-.391.946-1.056 1.117-1.746a9 9 0 0 0 .25-1.698c.094-1.672-.002-3.379-.118-5.032a144 144 0 0 0-.419-4.857q-.077-.75-.075-1.383c.007-2.493.157-4.887.373-7.39.087-.999.366-1.973.903-2.827.358-.568.923-1.116 1.57-1.31.763-.23 1.373.112 1.667.823q.267.645.416 1.372a.07.07 0 0 1-.026.072 15 15 0 0 0-1.667 1.575c-.51.559-1.026 1.229-1.308 1.957a7.1 7.1 0 0 0-.483 2.422c-.027 1.17.351 2.645 1.837 2.593 1.407-.049 2.53-1.214 3.137-2.437.64-1.29.883-2.833.89-4.32a18 18 0 0 0-.104-2.045 4 4 0 0 0-.048-.295.07.07 0 0 1 .029-.072l1.073-.764a.07.07 0 0 0 .029-.064l-.067-.589-.005-.015-.012-.011a.04.04 0 0 0-.03-.002q-.6.24-1.16.592a.04.04 0 0 1-.05-.008.04.04 0 0 1-.009-.017c-.304-1.322-.982-2.774-2.257-3.406a1.5 1.5 0 0 0-.404-.151c-1.66-.22-3.082 1.14-3.82 2.47a.032.032 0 0 1-.047.008.03.03 0 0 1-.01-.015l-.408-1.325a.05.05 0 0 0-.045-.036l-2.252-.155a.01.01 0 0 0-.01.004l-.003.004v.005l.316 15.367c.003.156.012.21-.073.32a9.7 9.7 0 0 1-2.54 2.325c-2.506 1.573-5.723 2.099-8.522 1.01a7.2 7.2 0 0 1-3.19-2.426 5 5 0 0 1-.399-.618c-.836-1.524-1.243-3.228-1.088-4.968q.09-1.023.466-2.13.097-.286.271-.591c.665-1.158 1.357-2.159 2.23-3.081a.1.1 0 0 1 .102-.03q2.587.666 5.266.409c1.448-.14 4.218-.768 4.051-2.78a1.2 1.2 0 0 0-.27-.67c-.43-.527-1.137-.734-1.796-.79-1.126-.096-2.256.062-3.388.283q-1.407.276-2.714.88a22 22 0 0 0-1.483.757.11.11 0 0 1-.097.005c-1.26-.56-2.63-1.57-2.971-2.994a7 7 0 0 1-.187-1.166 22 22 0 0 0-.035-.455l-.005-.006-.008-.003zm27.473.507c-.08 1.871-.003 3.758.323 5.634q.192 1.113.52 2.104c.517 1.568 1.309 3.059 2.603 4.08q.465.368 1.007.593.146.06.233.078a.05.05 0 0 0 .052-.02l.36-.502a.04.04 0 0 0 .007-.034.04.04 0 0 0-.021-.028c-1.218-.674-1.903-2.015-2.29-3.296a14 14 0 0 1-.438-1.928 19.3 19.3 0 0 1-.16-4.49q.05-.623.189-1.19a1.6 1.6 0 0 1 .214-.472.2.2 0 0 0 .023-.132.1.1 0 0 0-.017-.04.6.6 0 0 0-.292-.205c-.4-.136-.834-.16-1.304-.178q-.465-.018-.99.008a.02.02 0 0 0-.018.018M9.57 38.011a1.726 1.726 0 1 0-3.45 0 1.726 1.726 0 0 0 3.45 0m45.223 8.477-1.51-.31a.03.03 0 0 1-.022-.032 1.84 1.84 0 0 0-.444-1.575c-.583-.673-1.454-.955-2.297-.612a2.2 2.2 0 0 0-.84.58q-.696.787-2.063 2.356l-.008.012-.001.014a.04.04 0 0 0 .012.025l3.865 3.376.006.004a.02.02 0 0 0 .022-.006l.869-.995a.037.037 0 0 0-.004-.052l-.762-.666a.06.06 0 0 1-.02-.04.06.06 0 0 1 .014-.042l.992-1.135a.08.08 0 0 1 .083-.027l1.126.263a.08.08 0 0 0 .076-.024l.925-1.059a.03.03 0 0 0 .006-.033.03.03 0 0 0-.025-.022m-9.25 1.396a.02.02 0 0 0-.023-.004l-1.824.77a.02.02 0 0 0-.013.02l-.058 5.609a.02.02 0 0 0 .01.018.02.02 0 0 0 .02.002l1.323-.56a.02.02 0 0 0 .013-.02v-.794a.02.02 0 0 1 .013-.02l2.62-1.108a.02.02 0 0 1 .023.005l.574.556.01.006.013-.001 1.305-.552.008-.006.005-.01a.02.02 0 0 0-.007-.02zm-4.37 3.683c.432-.327.44-1.007.23-1.45-.266-.556-.863-.8-1.44-.831l-3.322-.181-.005.003-.004.005-.002.006-.283 5.14q0 .006.002.01l.004.007a.02.02 0 0 0 .016.008l3.467.19q.363.018.54-.015c.96-.175 1.528-.999 1.363-1.96a1.3 1.3 0 0 0-.564-.858l-.015-.016a.046.046 0 0 1 .013-.058m19.254.309a.03.03 0 0 1 .004-.026l.01-.008.014-.002.22.028a.08.08 0 0 0 .075-.037l.144-.247a.04.04 0 0 0 .005-.034l-.008-.016-.013-.011q-.66-.387-1.057-.627a1.3 1.3 0 0 0-.295-.137c-.623-.186-1.009.686-1.061 1.166a.04.04 0 0 0 .009.032.04.04 0 0 0 .028.016l.337.043a.04.04 0 0 0 .033-.01l.011-.013.005-.017q.02-.288.16-.535.159-.276.443-.101a.074.074 0 0 1 .024.101c-.225.366-.584.99-.092 1.322.277.187.604.214.831-.059.197-.236.295-.526.173-.828m-1.832 2.223a2 2 0 0 0-.358-.16 37 37 0 0 1-1.022-.338.07.07 0 0 0-.086.024l-.311.433-.004.009.001.009a.02.02 0 0 0 .013.012q1.274.327 2.022.531.059.016.108.09c.184.27.154.493-.091.707a.03.03 0 0 0-.01.022q0 .007.004.012l.008.01.304.218a.05.05 0 0 0 .062-.005c.359-.34.452-.771.177-1.203q-.44-.688-1.327-2.059l-.011-.01a.03.03 0 0 0-.032-.002.03.03 0 0 0-.012.011l-.311.434-.004.01q0 .007.004.012.369.532.705.997a4 4 0 0 0 .183.229q0 .003-.002.005l-.005.003zm-1.125 1.928v-.014a.026.026 0 0 1 .034-.017l.212.07a.08.08 0 0 0 .08-.022l.188-.216a.05.05 0 0 0 .01-.033.05.05 0 0 0-.014-.03q-.575-.506-.921-.816a1.3 1.3 0 0 0-.264-.19c-.577-.3-1.12.484-1.263.946a.043.043 0 0 0 .027.053l.325.106a.04.04 0 0 0 .033-.003.04.04 0 0 0 .021-.026 1.2 1.2 0 0 1 .26-.496q.206-.24.453-.016a.074.074 0 0 1 .005.105c-.29.317-.761.861-.34 1.281.237.236.553.323.827.099.238-.194.39-.461.327-.782m-2.88 1.703q0 .007-.004.013a.02.02 0 0 1-.022.007.02.02 0 0 1-.01-.008 3 3 0 0 0-.241-.303q-.099-.108-.852-.904a.04.04 0 0 0-.028-.012q-.016 0-.027.01l-.339.32a.05.05 0 0 0-.001.069l1.893 2 .009.006.01.002a.03.03 0 0 0 .02-.007l.36-.343a.027.027 0 0 0 .002-.039l-.371-.392a.15.15 0 0 1-.04-.13l.034-.198a.03.03 0 0 1 .011-.018.03.03 0 0 1 .02-.004l.912.187a.1.1 0 0 0 .086-.024l.392-.37a.03.03 0 0 0-.016-.05l-1.322-.229a.05.05 0 0 1-.044-.051v-1.108l-.004-.013a.023.023 0 0 0-.035-.004l-.385.364a.16.16 0 0 0-.05.12zm-1.738 2.337.245.29a.07.07 0 0 0 .08.019c.393-.168 1.113-.666.896-1.197-.126-.31-.412-.453-.743-.362q-.2.056-.44.132c-.095.03-.233.057-.293-.022a.1.1 0 0 1-.02-.066q0-.039.023-.07c.146-.201.373-.276.61-.37a.02.02 0 0 0 .01-.023l-.108-.334a.06.06 0 0 0-.05-.04q-.012 0-.023.003a1.8 1.8 0 0 0-.745.475c-.174.186-.299.457-.163.7.324.575.842.203 1.286.139q.126-.019.183.081c.146.256-.577.556-.738.609a.02.02 0 0 0-.015.015v.01q0 .007.005.01m-1.332.856q-.007.004-.015-.002a4 4 0 0 0-.277-.248l-.96-.698a.03.03 0 0 0-.019-.007.03.03 0 0 0-.019.006l-.415.296a.03.03 0 0 0-.014.027.03.03 0 0 0 .014.027l1.739 1.16a.06.06 0 0 0 .065-.001l.398-.284a.06.06 0 0 0 .022-.06l-.526-2.023-.007-.014-.013-.009a.03.03 0 0 0-.03.004l-.417.296a.03.03 0 0 0-.011.016.03.03 0 0 0 0 .02l.345 1.135q.024.084.144.344a.013.013 0 0 1-.004.015m-27.883-.02q-.003-.008.006-.02.232-.36.487-.858a.03.03 0 0 0 .002-.021.03.03 0 0 0-.014-.016l-.44-.24a.02.02 0 0 0-.015-.002.02.02 0 0 0-.012.01l-1.339 2.454-.001.005a.01.01 0 0 0 .003.01l.004.004.335.183a.05.05 0 0 0 .057-.008l.124-.117a.038.038 0 0 1 .064.018q.119.456.59.562c.503.112.877-.398 1.048-.791.153-.353.198-.777-.107-1.032q-.36-.301-.763-.127l-.01.002q-.005 0-.009-.002l-.007-.006zm26.196.13a.904.904 0 0 0-1.27-.165l-.114.089a.905.905 0 0 0-.164 1.269l.173.224a.905.905 0 0 0 1.269.165l.114-.088a.904.904 0 0 0 .165-1.27zm-3.266 1.854a.3.3 0 0 1-.073-.097 5 5 0 0 0-.179-.444l-.443-.979a.026.026 0 0 0-.034-.013l-.443.202a.043.043 0 0 0-.022.057l1.13 2.486a.055.055 0 0 0 .072.027l.429-.195a.03.03 0 0 0 .015-.015l.001-.011-.002-.011-.222-.487a.16.16 0 0 1 .005-.138l.09-.165.01-.01a.03.03 0 0 1 .024-.008l.013.005.81.467a.08.08 0 0 0 .072.004l.494-.225a.03.03 0 0 0 .002-.053l-1.152-.627a.08.08 0 0 1-.037-.095l.338-1.033a.03.03 0 0 0 0-.016l-.008-.013-.014-.006q-.008 0-.015.003a7 7 0 0 1-.415.197c-.061.027-.115.07-.134.129l-.232.715a1.1 1.1 0 0 0-.064.347.01.01 0 0 1-.016.002m-20.994.369q.058-.198.074-.384.085-.978.1-1.07a.07.07 0 0 0-.043-.078l-.492-.205-.009-.001-.008.003a.02.02 0 0 0-.01.015q-.03 1.312-.06 2.085-.003.06-.063.125c-.222.24-.445.261-.709.07a.027.027 0 0 0-.041.012l-.144.345a.05.05 0 0 0 .018.06c.412.272.852.265 1.21-.1q.57-.58 1.703-1.752a.03.03 0 0 0 .008-.03.03.03 0 0 0-.02-.024l-.491-.206h-.012l-.01.006q-.435.479-.81.91a4 4 0 0 0-.181.229h-.006l-.004-.005zm19.188-1.484a.05.05 0 0 0-.024-.03.05.05 0 0 0-.038-.002l-.435.136-.017.01a.05.05 0 0 0-.017.032l.002.02.817 2.608.01.017a.05.05 0 0 0 .052.015l.435-.136a.05.05 0 0 0 .034-.043q0-.01-.002-.019zm-15.495.626.002-.014a.04.04 0 0 0-.014-.026l-.013-.007-.466-.148a.04.04 0 0 0-.047.025l-.781 2.462a.04.04 0 0 0 .002.029.04.04 0 0 0 .022.018l.466.148a.04.04 0 0 0 .048-.025zm11.84.563a.25.25 0 0 0-.202-.187.3.3 0 0 0-.096.004l-.104.024a.247.247 0 0 0-.183.298l.01.044a.246.246 0 0 0 .299.184l.103-.025a.25.25 0 0 0 .184-.298zm2.466 1.812a.026.026 0 0 1 .045-.006l.137.176q.015.018.036.025t.043.002l.276-.074a.05.05 0 0 0 .034-.037l-.001-.018q-.194-.74-.308-1.191a1.3 1.3 0 0 0-.112-.305c-.311-.572-1.2-.226-1.577.078a.04.04 0 0 0-.007.06l.21.269.013.011q.007.005.016.005a.04.04 0 0 0 .032-.01q.218-.191.492-.267.307-.084.386.241a.075.075 0 0 1-.055.09c-.417.1-1.113.289-.998.873.064.327.277.576.631.544.306-.028.58-.166.707-.466m-3.588-.059.01-.003.007-.006a.03.03 0 0 0 .006-.02l-.047-.405a.026.026 0 0 0-.028-.023l-.845.096h-.01a.03.03 0 0 1-.016-.013l-.003-.01-.072-.628.001-.01.005-.009.008-.006.01-.004.912-.103.01-.003.007-.007a.03.03 0 0 0 .006-.02l-.047-.408-.003-.01a.03.03 0 0 0-.015-.012l-.01-.001-1.463.166a.03.03 0 0 0-.018.01.03.03 0 0 0-.006.019l.295 2.59.003.01.006.007a.03.03 0 0 0 .02.006l.498-.057.01-.003a.03.03 0 0 0 .012-.016l.001-.01-.113-.992.001-.01a.03.03 0 0 1 .013-.015l.01-.003zm-8.693.811c.076-.312.157-.753.264-1.252.117-.546-.139-.878-.691-.921a.68.68 0 0 0-.523.17.03.03 0 0 1-.015.007.03.03 0 0 1-.029-.013.03.03 0 0 1-.005-.015l-.007-.183a.08.08 0 0 0-.06-.07l-.33-.068a.03.03 0 0 0-.036.024l-.396 1.929a.033.033 0 0 0 .026.038l.485.1a.03.03 0 0 0 .023-.005l.009-.008.004-.011q.093-.498.212-1.03c.042-.189.153-.427.364-.453.316-.04.468.157.41.458q-.09.48-.241 1.18a.03.03 0 0 0 .023.034l.494.102q.007 0 .012-.002a.02.02 0 0 0 .008-.01m9.911-1.977a.04.04 0 0 0-.015-.022q-.012-.008-.026-.005l-.476.096-.013.005-.01.01a.03.03 0 0 0-.004.025l.388 1.925a.03.03 0 0 0 .014.022q.012.007.026.005l.477-.097.012-.005a.03.03 0 0 0 .015-.022v-.013zm-7.11 2.354c.047-.317.09-.763.153-1.27.07-.553-.214-.862-.768-.857a.68.68 0 0 0-.506.215.03.03 0 0 1-.03.007.03.03 0 0 1-.02-.024l-.023-.181a.08.08 0 0 0-.066-.066l-.334-.039a.03.03 0 0 0-.023.007.03.03 0 0 0-.012.021l-.227 1.955q0 .013.007.024a.03.03 0 0 0 .022.012l.492.057h.012a.03.03 0 0 0 .018-.016l.004-.011q.049-.504.122-1.044c.025-.191.115-.438.323-.483.31-.067.48.116.449.42q-.05.487-.14 1.197a.03.03 0 0 0 .027.032l.5.058q.008 0 .013-.003l.006-.01m2.09-.156a.03.03 0 0 1 .023-.01q.008 0 .013.005l.008.01.09.204a.08.08 0 0 0 .07.044l.287-.004.017-.004.015-.01a.04.04 0 0 0 .012-.032q-.01-.765-.011-1.23 0-.19-.036-.324c-.164-.63-1.11-.507-1.549-.304a.043.043 0 0 0-.021.056l.139.312q.003.008.01.014l.014.01a.04.04 0 0 0 .034-.003 1.2 1.2 0 0 1 .542-.14q.318-.007.316.326a.07.07 0 0 1-.046.069.1.1 0 0 1-.029.005c-.43-.002-1.15.013-1.18.607-.015.333.131.627.482.68.304.047.604-.02.8-.281"/><path fill="#fff" d="M33.227 6.78h-.01a.24.24 0 0 0-.216.266l.227 2.19a.24.24 0 0 0 .265.216l.01-.001a.24.24 0 0 0 .216-.266l-.226-2.19a.24.24 0 0 0-.266-.216m3.685.035-.008-.001a.24.24 0 0 0-.27.21l-.342 2.702a.24.24 0 0 0 .21.27l.008.002a.24.24 0 0 0 .27-.21l.342-2.702a.24.24 0 0 0-.21-.271m-7.282.759-.01.004a.24.24 0 0 0-.15.307l.603 1.76a.24.24 0 0 0 .307.15l.01-.003a.24.24 0 0 0 .15-.307l-.602-1.76a.24.24 0 0 0-.308-.15m10.863.106-.008-.003a.243.243 0 0 0-.312.144l-.729 1.982a.243.243 0 0 0 .144.312l.008.003a.243.243 0 0 0 .312-.144l.729-1.982a.243.243 0 0 0-.144-.312M26.308 9.153l-.02.012a.235.235 0 0 0-.072.325l.214.339c.07.11.215.142.325.072l.02-.012a.235.235 0 0 0 .072-.325l-.215-.338a.235.235 0 0 0-.325-.073m17.479.177-.007-.005a.243.243 0 0 0-.337.07l-1.241 1.897a.243.243 0 0 0 .07.337l.007.004a.243.243 0 0 0 .337-.07l1.24-1.897a.243.243 0 0 0-.07-.337m-16.934.706-.01.006a.24.24 0 0 0-.077.332l.57.912a.24.24 0 0 0 .331.076l.01-.007a.24.24 0 0 0 .077-.33l-.57-.913a.24.24 0 0 0-.33-.076m9.603.427-.012-.002a.24.24 0 0 0-.27.209l-.212 1.681a.24.24 0 0 0 .209.27h.012a.24.24 0 0 0 .269-.208l.212-1.681a.24.24 0 0 0-.208-.27m1.805 2.662a.03.03 0 0 1-.02-.017.03.03 0 0 1 0-.025l.758-2.06a.26.26 0 0 1 .128-.144.24.24 0 0 1 .186-.011l.01.004a.23.23 0 0 1 .135.129.26.26 0 0 1 .004.193l-.757 2.06-.007.01-.01.008a.03.03 0 0 1-.026 0zm-4.658-.478a.03.03 0 0 1-.02-.006l-.007-.008-.003-.01-.15-1.476a.25.25 0 0 1 .05-.18.23.23 0 0 1 .156-.088l.03-.002a.23.23 0 0 1 .17.055.25.25 0 0 1 .085.165l.15 1.476a.027.027 0 0 1-.024.03zm-2.272.545-.018.002-.018-.005a.05.05 0 0 1-.024-.027l-.647-1.903a.27.27 0 0 1 .006-.194.23.23 0 0 1 .134-.125l.022-.008a.23.23 0 0 1 .182.018.27.27 0 0 1 .124.15L31.738 13a.047.047 0 0 1-.03.06zm-7.911-1.748-.009.008a.24.24 0 0 0-.001.34l.768.773a.24.24 0 0 0 .34 0l.008-.008a.24.24 0 0 0 0-.339l-.767-.773a.24.24 0 0 0-.34-.001m22.862.218-2.365 2.268a.235.235 0 0 0-.007.332l.016.017c.09.094.24.097.333.007l2.365-2.268a.235.235 0 0 0 .007-.333l-.016-.016a.235.235 0 0 0-.332-.007m-5.891 2.466a.034.034 0 0 1-.01-.047l.576-.88a.28.28 0 0 1 .158-.116.2.2 0 0 1 .094-.006q.046.008.086.033l.023.015a.2.2 0 0 1 .064.065.2.2 0 0 1 .032.088.28.28 0 0 1-.043.19l-.576.882a.034.034 0 0 1-.047.01zm-13.01 1.611a.03.03 0 0 1-.045 0l-1.947-1.96a.26.26 0 0 1-.074-.17.23.23 0 0 1 .064-.166l.024-.022a.22.22 0 0 1 .165-.064.26.26 0 0 1 .17.075l1.946 1.96.007.01a.03.03 0 0 1-.007.035zm21.57 5.177a.02.02 0 0 1-.019-.005l-.005-.008v-.01c.286-1.427.614-2.838 1.052-4.146q.337-1.007.82-1.885c.456-.833 1.374-1.928 2.459-1.233.64.41 1.09 1.17 1.394 1.881.456 1.066.697 2.19.78 3.357a.05.05 0 0 1-.035.052l-1.784.549h-.01a.02.02 0 0 1-.014-.01l-.003-.009c-.04-.695-.11-1.415-.284-2.037-.075-.27-.186-.583-.371-.81-.194-.237-.35-.071-.455.117q-.303.543-.475 1.173a18 18 0 0 0-.44 2.154.11.11 0 0 1-.077.09zm-23.025-3.856-4.469-2.814a.244.244 0 0 0-.336.077l-.003.004a.244.244 0 0 0 .077.336l4.469 2.814a.244.244 0 0 0 .336-.076l.003-.004a.244.244 0 0 0-.077-.337m16.315-1.475a.03.03 0 0 1 0-.045l1.04-1a.27.27 0 0 1 .17-.077.2.2 0 0 1 .158.059l.045.046q.03.03.043.072a.2.2 0 0 1 .01.087.3.3 0 0 1-.027.09.3.3 0 0 1-.057.078l-1.04 1a.03.03 0 0 1-.044 0zm6.287-1.076-2.045 1.224a.24.24 0 0 0-.082.327l.009.015c.067.113.214.15.327.082l2.045-1.224a.24.24 0 0 0 .082-.327l-.01-.015a.24.24 0 0 0-.326-.082m-4.807 2.922a.06.06 0 0 1 .028-.068l.858-.51a.4.4 0 0 1 .16-.056.1.1 0 0 1 .04.004q.19.065.198.245c.008.188-.258.32-.402.345q-.677.12-.74.125-.12.009-.143-.085m-21.862.767-2.018-.703a.24.24 0 0 0-.307.149l-.004.01a.24.24 0 0 0 .149.307l2.018.703a.24.24 0 0 0 .308-.15l.003-.009a.24.24 0 0 0-.149-.308m15.349 2.268v-.01a.02.02 0 0 1 .014-.012h.01c.277.073 1.189.2 1.322-.141.053-.137-.04-.235-.162-.287a4 4 0 0 0-.533-.138c-.438-.097-.793-.279-.905-.757-.173-.738.415-1.128 1.054-1.228q.471-.074.948.024a.027.027 0 0 1 .021.032l-.112.653a.04.04 0 0 1-.016.024l-.014.006h-.015a1.9 1.9 0 0 0-.781-.038c-.162.029-.376.182-.203.358a.5.5 0 0 0 .23.107c.571.15 1.23.188 1.343.936.162 1.074-1.265 1.4-2.023 1.207a.04.04 0 0 1-.032-.033zm-24.651 4.506.003-.007a.02.02 0 0 0-.002-.014l-.004-.005q-.186-.14-.312-.23c-1.164-.824-1.841-2.172-1.658-3.611.138-1.084.806-1.983 1.737-2.546 1.315-.795 2.857-.786 4.3-.431a.05.05 0 0 1 .031.026.05.05 0 0 1 0 .04v.003a.08.08 0 0 1-.085.048 8 8 0 0 0-1.197-.001c-1.577.104-3.426.654-3.83 2.418-.09.393-.119.867-.037 1.263.2.964.936 1.647 1.807 2.053a.07.07 0 0 0 .08-.018q.475-.578.927-1.035c1.742-1.766 4.008-2.942 6.53-2.918q.766.007 1.418.196c1.089.315 2.057 1.162 1.906 2.392-.128 1.032-1.124 1.886-1.961 2.39-1.987 1.194-4.472 1.602-6.722 1.079-.518-.12-.977-.28-1.539-.46a.05.05 0 0 0-.06.024c-.68 1.25-1.153 2.598-1.236 4.03a.1.1 0 0 1-.06.084l-2.24.875a.03.03 0 0 1-.03-.004.03.03 0 0 1-.012-.027c.044-.499.092-1.033.21-1.547a9.5 9.5 0 0 1 2.036-4.067m2.155-.5.54.123a8.4 8.4 0 0 0 1.727.203q.413.007.642-.029.87-.134 1.055-.17c.853-.169 1.702-.47 2.413-.972.643-.453 1.053-1.098.983-1.907-.02-.237-.126-.437-.325-.537q-.329-.165-.732-.151a5.6 5.6 0 0 0-1.394.228q-1.154.34-2.223.895-.764.398-1.356.84-.774.58-1.354 1.417a.04.04 0 0 0-.004.037.04.04 0 0 0 .028.024m21.812-4.913-.587.122h-.006l-.005-.002-.004-.005-.001-.005-.047-1.273a.014.014 0 0 1 .01-.014l.757-.156a.013.013 0 0 1 .016.014l-.122 1.308-.003.007zm-2.342-.827q1.019-.212 1.154-.242h.015a.04.04 0 0 1 .025.016l.006.014.131.628a.03.03 0 0 1-.024.037l-.715.15a.02.02 0 0 0-.015.01l-.004.009v.009l.503 2.4a.025.025 0 0 1-.02.03 34 34 0 0 1-.813.168.02.02 0 0 1-.017-.01l-.003-.01-.498-2.401a.02.02 0 0 0-.01-.015.02.02 0 0 0-.018-.004l-.716.148a.03.03 0 0 1-.037-.024l-.13-.628V19q0-.008.006-.014a.04.04 0 0 1 .024-.017q.136-.027 1.156-.239m-2.74 3.823-.64-3.091a.03.03 0 0 1 .024-.036l1.81-.376a.03.03 0 0 1 .037.024l.128.623a.03.03 0 0 1-.023.036l-.959.198a.03.03 0 0 0-.019.013.03.03 0 0 0-.004.023l.09.437a.03.03 0 0 0 .036.023l.884-.183a.03.03 0 0 1 .036.023l.13.625a.03.03 0 0 1-.005.022.03.03 0 0 1-.02.013l-.883.184a.03.03 0 0 0-.024.035l.11.537a.03.03 0 0 0 .037.023l.962-.199a.03.03 0 0 1 .036.023l.131.634a.03.03 0 0 1-.023.036l-1.814.376a.03.03 0 0 1-.036-.023m17.002 15.741a1.8 1.8 0 0 0 .434-.433q.56-.772 1.033-1.656a.18.18 0 0 0 .014-.137 34.8 34.8 0 0 1-1.408-11.993q.081-1.368.282-2.684a.1.1 0 0 1 .07-.08l2.545-.714h.008a.02.02 0 0 1 .01.009q.002.003.002.007a49 49 0 0 0-.208 3.43 123 123 0 0 0-.055 4.515q.027 2.186.268 4.14.009.07.034.132l.005.006a.013.013 0 0 0 .02-.007q.162-.44.317-.873.468-1.307.7-2.335.2-.885.449-2.397.436-2.666.582-5.52.046-.916-.033-1.675 0-.01.005-.017a.03.03 0 0 1 .015-.011l1.807-.507h.007l.006.002.005.005.003.006q.045.236.066.55c.091 1.363-.024 2.678-.225 4.054q-.098.671-.31 1.575-.294 1.245-.371 1.561c-.4 1.626-.886 3.303-1.48 4.74a21 21 0 0 1-1.293 2.61.16.16 0 0 0-.02.111q.294 1.758.832 3.43.27.841.68 1.709c.365.773.825 1.502 1.45 2.076q.336.307.683.482 1.102.55 2.291.03.558-.246.965-.568c.574-.456.982-1.213 1.209-1.928a.03.03 0 0 1 .014-.016.03.03 0 0 1 .021-.001l.278.09a.05.05 0 0 1 .032.05c-.167 1.517-.88 2.837-2.282 3.514a4.1 4.1 0 0 1-1.826.4c-.96-.018-1.907-.63-2.587-1.3-.862-.85-1.542-1.887-2.085-2.965a20 20 0 0 1-1.124-2.654l-.03-.106a.04.04 0 0 0-.053-.027.04.04 0 0 0-.017.013q-.733.935-1.424 1.73a.05.05 0 0 1-.036.016.04.04 0 0 1-.034-.019l-.245-.344a.02.02 0 0 1 .004-.026m-17.523-15.6-2.016.418h-.01l-.01-.003a.02.02 0 0 1-.01-.017l-.643-3.1v-.01q0-.005.004-.009a.03.03 0 0 1 .016-.01l.801-.167a.03.03 0 0 1 .02.004.03.03 0 0 1 .01.016l.5 2.412a.03.03 0 0 0 .012.017.03.03 0 0 0 .02.003l1.163-.24h.01q.006 0 .01.003a.03.03 0 0 1 .01.016l.133.637a.03.03 0 0 1-.004.02.03.03 0 0 1-.016.01"/><path fill="#5e5e5e" d="M14.71 24.47a.04.04 0 0 1-.018-.009.04.04 0 0 1-.013-.034q0-.009.007-.018a6 6 0 0 1 1.354-1.417 10 10 0 0 1 1.356-.84q1.07-.555 2.223-.895.698-.206 1.394-.228.404-.015.732.151c.199.1.304.3.325.537.07.81-.34 1.455-.983 1.907-.71.501-1.56.803-2.413.971q-.186.037-1.055.172a4 4 0 0 1-.642.028 8.4 8.4 0 0 1-1.726-.203z"/><path fill="#fff" d="m39.208 25.253-.403.082a.026.026 0 0 1-.03-.02l-.498-2.405a.02.02 0 0 0-.01-.015l-.01-.004h-.009l-.716.149a.03.03 0 0 1-.038-.025l-.13-.628v-.015l.006-.015a.04.04 0 0 1 .025-.016l1.156-.24q1.02-.212 1.156-.242a.04.04 0 0 1 .03.005l.01.01.007.015.131.628a.03.03 0 0 1-.024.037l-.716.15a.02.02 0 0 0-.016.01l-.003.01v.009l.504 2.404a.026.026 0 0 1-.02.03zm-2.334-2.804-.787.163a.036.036 0 0 0-.028.042l.638 3.08c.004.02.023.032.042.028l.787-.163a.036.036 0 0 0 .028-.042l-.638-3.08a.036.036 0 0 0-.042-.028m-1.02 2.121a1.39 1.39 0 0 1-1.084 1.638l-.324.066a1.39 1.39 0 0 1-1.638-1.084l-.103-.506a1.39 1.39 0 0 1 1.084-1.639l.324-.066a1.39 1.39 0 0 1 1.638 1.085zm-1.768-.865c-.533.112-.533.624-.443 1.051.09.428.294.897.828.785.533-.112.532-.623.443-1.05-.09-.429-.295-.898-.828-.786"/><path fill="#5e5e5e" d="M34.914 24.49c.09.428.09.94-.443 1.051-.534.112-.739-.357-.828-.785-.09-.428-.09-.94.443-1.051.533-.112.738.357.828.785"/><path fill="#fff" d="M29.295 24.032v-.008l.007-.005 1.2-.252c.19-.04.388-.044.58-.011s.374.103.537.205.303.234.412.389c.11.154.185.329.224.513l.071.337c.079.373 0 .762-.218 1.083a1.52 1.52 0 0 1-.944.628l-1.199.253h-.004l-.007-.005-.001-.003zm1.004.532.347 1.69.007.016a.04.04 0 0 0 .042.017l.231-.047a.65.65 0 0 0 .426-.307.77.77 0 0 0 .09-.548l-.068-.335a.77.77 0 0 0-.299-.468.65.65 0 0 0-.512-.114l-.231.047a.04.04 0 0 0-.027.018.04.04 0 0 0-.006.031"/><path fill="#5e5e5e" d="M30.3 24.564a.04.04 0 0 1 .005-.031.04.04 0 0 1 .027-.018l.23-.047a.65.65 0 0 1 .513.114c.152.109.26.277.299.468l.068.335c.04.19.007.387-.09.548a.65.65 0 0 1-.426.306l-.23.048a.04.04 0 0 1-.032-.006l-.011-.012-.006-.014z"/><path fill="#fff" d="M43.56 29.026q-.342-.294-.559-.81a1 1 0 0 1-.078-.418c.021-.474.134-.928.456-1.25q.321-.321.812-.39c.823-.116 1.437.42 1.636 1.185a1.71 1.71 0 0 1-.45 1.615c-.522.514-1.259.55-1.817.068m18.596 2.993a1.725 1.725 0 1 0 0-3.45 1.725 1.725 0 0 0 0 3.45M15.244 29.98q.01.113.032.447.034.533.187 1.166c.341 1.424 1.71 2.433 2.97 2.994a.11.11 0 0 0 .098-.005q.743-.414 1.483-.757 1.307-.605 2.714-.88c1.132-.222 2.262-.379 3.388-.283.66.056 1.365.262 1.796.79q.24.294.27.67c.167 2.012-2.603 2.64-4.051 2.78a15.1 15.1 0 0 1-5.266-.409.1.1 0 0 0-.101.03c-.873.922-1.566 1.923-2.23 3.08q-.176.305-.272.591-.375 1.11-.466 2.13c-.155 1.74.252 3.445 1.088 4.969q.177.322.4.618a7.2 7.2 0 0 0 3.19 2.425c2.798 1.09 6.015.564 8.522-1.01a9.7 9.7 0 0 0 2.54-2.324c.084-.11.075-.164.072-.32l-.316-15.372a.01.01 0 0 1 .008-.007l.005-.001 2.252.155a.05.05 0 0 1 .045.036l.408 1.325a.03.03 0 0 0 .027.022.03.03 0 0 0 .03-.016c.738-1.329 2.16-2.688 3.82-2.47q.135.019.404.152c1.275.632 1.953 2.084 2.257 3.406a.04.04 0 0 0 .023.028.04.04 0 0 0 .037-.003 7 7 0 0 1 1.159-.593l.015-.002q.008 0 .015.005a.03.03 0 0 1 .017.026l.067.589a.07.07 0 0 1-.029.064l-1.073.764a.07.07 0 0 0-.03.072q.039.197.049.295.11.975.104 2.044c-.008 1.488-.25 3.03-.89 4.32-.606 1.224-1.73 2.389-3.137 2.438-1.486.052-1.864-1.423-1.837-2.593a7.1 7.1 0 0 1 .483-2.422c.282-.728.798-1.398 1.308-1.958a15.4 15.4 0 0 1 1.667-1.574.07.07 0 0 0 .026-.072 7.5 7.5 0 0 0-.416-1.372c-.295-.71-.904-1.054-1.666-.824-.648.195-1.213.742-1.571 1.311-.537.854-.816 1.828-.903 2.826-.216 2.504-.366 4.897-.373 7.391q-.003.633.075 1.383.242 2.331.42 4.857c.114 1.653.211 3.36.116 5.032a9 9 0 0 1-.249 1.698c-.171.69-.509 1.354-1.117 1.746a2.9 2.9 0 0 1-.92.38.04.04 0 0 1-.031-.007l-.01-.012-.004-.016-.185-9.416a.03.03 0 0 0-.016-.023.03.03 0 0 0-.027.005q-.666.65-1.349 1.129-.869.61-1.94 1.138-1.783.877-3.749 1.158a11.1 11.1 0 0 1-6.308-.967 12.35 12.35 0 0 1-3.98-2.948c-1.526-1.703-2.553-4.035-2.27-6.374q.12-1.003.504-1.914a17 17 0 0 1 1.701-3.144 12.3 12.3 0 0 1 2.412-2.59.04.04 0 0 0 .013-.033l-.006-.016a.04.04 0 0 0-.014-.011 8 8 0 0 1-1.61-.991 5 5 0 0 1-.907-.92q-.134-.181-.318-.446c-.541-.776-.8-1.68-.856-2.61a.086.086 0 0 1 .06-.088l2.192-.708a.02.02 0 0 1 .016.002l.005.006zm5.195 5.192-.01.01a.027.027 0 0 0 .012.037.2.2 0 0 0 .042.015c1.606.337 3.314.266 4.862-.284q.368-.13.644-.334c.154-.114.333-.364.093-.499a1.1 1.1 0 0 0-.274-.11c-.464-.12-.969-.136-1.434-.12q-.42.015-.888.103a8.9 8.9 0 0 0-3.047 1.182m18.249 1.39-.005-.01-.009-.007h-.01l-.01.005a11.3 11.3 0 0 0-1.497 1.701c-.48.676-.802 1.366-.878 2.187q-.065.706.052 1.314c.083.433.37 1.256.986.765q.187-.149.31-.32c.556-.768.876-1.621 1.023-2.589q.224-1.48.038-3.046m4.005-6.091q0-.007.005-.012a.02.02 0 0 1 .013-.006q.527-.026.991-.008c.47.017.903.042 1.304.178a.6.6 0 0 1 .292.204q.015.018.017.04a.2.2 0 0 1-.023.133 1.6 1.6 0 0 0-.215.472 7.6 7.6 0 0 0-.187 1.19 19.3 19.3 0 0 0 .16 4.49q.146.963.438 1.928c.386 1.28 1.071 2.622 2.289 3.296a.04.04 0 0 1 .02.046l-.006.016-.36.501a.05.05 0 0 1-.052.02 1.3 1.3 0 0 1-.233-.077 4.3 4.3 0 0 1-1.007-.593c-1.294-1.021-2.086-2.512-2.603-4.08a15 15 0 0 1-.52-2.104c-.326-1.876-.403-3.763-.323-5.634"/><path fill="#5e5e5e" d="M20.439 35.172a8.9 8.9 0 0 1 3.047-1.182q.468-.089.888-.102c.465-.016.97 0 1.434.119q.144.037.274.11c.24.136.06.385-.093.499a2.5 2.5 0 0 1-.644.335c-1.548.549-3.256.62-4.862.283a.2.2 0 0 1-.042-.015l-.01-.01a.027.027 0 0 1 .008-.037"/><path fill="#fff" d="M7.844 39.737a1.726 1.726 0 1 0 0-3.451 1.726 1.726 0 0 0 0 3.451"/><path fill="#5e5e5e" d="M38.688 36.562a11.3 11.3 0 0 1-.038 3.047c-.147.967-.467 1.82-1.022 2.588a1.7 1.7 0 0 1-.31.32c-.618.491-.904-.332-.987-.765a4.7 4.7 0 0 1-.052-1.314c.076-.821.398-1.511.878-2.187a11.3 11.3 0 0 1 1.497-1.701.02.02 0 0 1 .02-.005.02.02 0 0 1 .014.017"/><path fill="#fff" d="M54.793 46.488a.04.04 0 0 1 .025.022.03.03 0 0 1-.007.033l-.924 1.058a.08.08 0 0 1-.076.025l-1.126-.263a.09.09 0 0 0-.083.027l-.992 1.135a.06.06 0 0 0-.008.064l.014.018.762.666a.037.037 0 0 1 .004.052l-.87.995-.005.005-.008.002-.008-.001-.006-.004-3.865-3.376a.036.036 0 0 1-.003-.051 445 445 0 0 1 2.063-2.357q.33-.372.84-.58c.843-.342 1.714-.06 2.297.613q.59.681.444 1.574a.03.03 0 0 0 .005.021q.006.01.018.012zm-5.314.25 1.11.975a.044.044 0 0 0 .062-.004l1.085-1.235a.8.8 0 0 0 .204-.552.7.7 0 0 0-.234-.507l-.09-.08a.7.7 0 0 0-.534-.166.8.8 0 0 0-.521.272l-1.086 1.235a.043.043 0 0 0 .004.062"/><path fill="#5e5e5e" d="M49.48 46.738a.043.043 0 0 1-.005-.062l1.086-1.235a.8.8 0 0 1 .52-.272.7.7 0 0 1 .534.166l.091.08a.7.7 0 0 1 .234.507.8.8 0 0 1-.204.552l-1.085 1.235a.043.043 0 0 1-.061.004z"/><path fill="#fff" d="m45.542 47.884 4.013 3.892a.02.02 0 0 1 .007.02.02.02 0 0 1-.013.015l-1.305.552a.02.02 0 0 1-.023-.005l-.574-.556-.01-.006-.013.001-2.62 1.108a.02.02 0 0 0-.013.02v.795l-.004.011a.02.02 0 0 1-.01.008l-1.322.56-.01.001-.01-.003a.02.02 0 0 1-.01-.018l.058-5.61a.02.02 0 0 1 .013-.018l1.823-.771.012-.002q.007.001.011.006M45 49.434a.02.02 0 0 0-.014.02v2.122q0 .007.002.01a.02.02 0 0 0 .029.011l1.628-.688.009-.007.004-.01a.02.02 0 0 0-.006-.02l-1.469-1.5-.011-.007-.014.001zm-3.827 2.133a.05.05 0 0 0-.018.037.05.05 0 0 0 .02.037c.296.2.503.5.564.859.165.96-.403 1.784-1.362 1.96a2.6 2.6 0 0 1-.54.014l-3.477-.192-.007-.006a.02.02 0 0 1-.006-.016l.283-5.141a.02.02 0 0 1 .011-.014l.006-.001 3.317.182c.575.031 1.173.275 1.438.831.21.443.203 1.123-.23 1.45M37.94 50.44l-.035.647q0 .01.006.017t.016.008l1.886.102a.346.346 0 0 0 .363-.324v-.009a.343.343 0 0 0-.325-.361l-1.886-.103q-.006 0-.01.002a.02.02 0 0 0-.013.012zm-.104 1.891-.044.755.002.01a.03.03 0 0 0 .013.014l.01.003 2.165.124a.43.43 0 0 0 .295-.093c.08-.066.13-.16.135-.26l.003-.052a.36.36 0 0 0-.104-.273.43.43 0 0 0-.283-.127l-2.165-.125a.026.026 0 0 0-.027.024"/><path fill="#5e5e5e" d="m44.999 49.434.158-.067a.02.02 0 0 1 .025.005l1.469 1.5a.02.02 0 0 1 .006.02l-.004.01-.01.007-1.627.688-.01.002a.02.02 0 0 1-.019-.012l-.002-.01v-2.122q0-.008.004-.013a.02.02 0 0 1 .01-.008M37.94 50.44a.02.02 0 0 1 .008-.017l.008-.004.009-.002 1.886.102a.347.347 0 0 1 .326.362v.009a.343.343 0 0 1-.364.324l-1.886-.102a.02.02 0 0 1-.016-.008.02.02 0 0 1-.006-.017z"/><path fill="#fff" d="M60.427 51.876c.122.302.024.592-.173.828-.227.273-.554.246-.83.06-.493-.333-.134-.957.092-1.323a.075.075 0 0 0-.025-.101q-.285-.175-.442.101a1.2 1.2 0 0 0-.161.535.043.043 0 0 1-.048.04l-.338-.043a.043.043 0 0 1-.037-.047c.052-.481.438-1.353 1.06-1.167q.135.04.296.137.398.24 1.057.627a.045.045 0 0 1 .016.061l-.144.247a.08.08 0 0 1-.075.037l-.22-.028a.03.03 0 0 0-.024.01.03.03 0 0 0-.004.026m-.61-.313c-.14.22-.347.58-.035.755.207.116.354-.13.384-.298.042-.235-.128-.37-.313-.466a.03.03 0 0 0-.035.01"/><path fill="#5e5e5e" d="M59.817 51.563a.03.03 0 0 1 .035-.01c.186.097.356.233.314.467-.03.17-.177.414-.384.298-.312-.175-.104-.534.035-.755m-21.981.769a.026.026 0 0 1 .027-.025l2.165.125c.109.006.21.052.283.127s.11.173.104.273l-.003.053a.36.36 0 0 1-.135.26.43.43 0 0 1-.295.093l-2.165-.125q-.005 0-.01-.003a.03.03 0 0 1-.013-.014l-.002-.01z"/><path fill="#fff" d="M58.595 54.1h.005l.005-.003.002-.005q0-.003-.002-.005a4 4 0 0 1-.181-.224q-.336-.465-.705-.997a.02.02 0 0 1 0-.022l.311-.434.012-.01a.033.033 0 0 1 .043.011q.888 1.37 1.327 2.06c.275.43.182.862-.177 1.203a.05.05 0 0 1-.062.004l-.304-.218-.008-.01-.004-.012a.03.03 0 0 1 .01-.022c.245-.214.275-.436.09-.708q-.048-.073-.107-.088a148 148 0 0 0-2.03-.536.02.02 0 0 1-.006-.017q0-.005.004-.009l.31-.433a.07.07 0 0 1 .087-.024q.086.035 1.022.339.177.057.358.16m-1.125 1.926c.062.32-.088.587-.327.782-.274.224-.59.137-.827-.099-.421-.42.05-.964.34-1.281a.07.07 0 0 0 .02-.054.07.07 0 0 0-.025-.051q-.247-.225-.454.016a1.2 1.2 0 0 0-.259.495.04.04 0 0 1-.02.027.04.04 0 0 1-.035.003l-.324-.106a.043.043 0 0 1-.027-.053c.143-.462.686-1.246 1.263-.946q.123.064.264.19.346.31.92.816a.04.04 0 0 1 .016.03q0 .009-.003.018l-.008.015-.188.216a.08.08 0 0 1-.08.022l-.212-.07h-.014l-.012.006a.03.03 0 0 0-.008.024m-.543-.421c-.178.19-.447.504-.174.733.181.152.371-.06.431-.221.085-.222-.057-.387-.22-.515a.03.03 0 0 0-.037.003"/><path fill="#5e5e5e" d="M56.927 55.605a.03.03 0 0 1 .036-.003c.164.128.306.293.221.515-.06.16-.25.373-.431.22-.273-.229-.004-.542.174-.732"/><path fill="#fff" d="m54.59 57.73-.041-1.109a.16.16 0 0 1 .05-.12l.384-.365a.02.02 0 0 1 .012-.006l.013.002a.02.02 0 0 1 .014.021v1.109a.05.05 0 0 0 .044.051l1.323.228a.03.03 0 0 1 .022.02.03.03 0 0 1 0 .016.03.03 0 0 1-.007.014l-.392.37a.1.1 0 0 1-.086.025l-.912-.187h-.01l-.01.004-.007.008-.004.01-.034.197a.15.15 0 0 0 .04.13l.371.393a.03.03 0 0 1 .005.03l-.006.009-.362.343-.009.005-.01.002-.01-.002-.009-.007-1.893-2a.05.05 0 0 1 .001-.068l.339-.32a.04.04 0 0 1 .027-.01q.016 0 .028.012.753.795.852.904.129.141.24.303a.02.02 0 0 0 .01.008.02.02 0 0 0 .013 0 .02.02 0 0 0 .013-.02m-1.737 2.337a.02.02 0 0 1-.005-.021.02.02 0 0 1 .015-.015c.16-.053.884-.353.738-.609q-.058-.1-.183-.082c-.444.065-.962.437-1.286-.139-.136-.242-.01-.513.163-.699a1.8 1.8 0 0 1 .745-.475.06.06 0 0 1 .062.017l.011.02.108.334a.02.02 0 0 1 0 .013.02.02 0 0 1-.01.01c-.237.093-.464.169-.61.37a.12.12 0 0 0-.024.07q0 .037.021.066c.06.079.198.052.293.022q.24-.076.44-.132c.33-.091.617.053.743.362.217.531-.503 1.029-.897 1.197a.07.07 0 0 1-.08-.019zm-1.035 1.273-.198.143a.06.06 0 0 1-.065.001l-1.739-1.16a.03.03 0 0 1-.014-.026q0-.009.003-.016l.01-.012.416-.296a.03.03 0 0 1 .037 0l.96.699q.072.05.278.248.008.006.015.002.007-.006.004-.015a4 4 0 0 1-.144-.343l-.346-1.136a.03.03 0 0 1 .012-.035l.416-.297a.03.03 0 0 1 .03-.004.03.03 0 0 1 .021.023l.526 2.023a.06.06 0 0 1-.022.06zm-28.18-.437.003.008.007.006a.02.02 0 0 0 .019 0q.402-.174.763.127c.306.255.26.68.107 1.032-.172.393-.545.903-1.047.791q-.473-.105-.591-.562a.038.038 0 0 0-.064-.018l-.124.117a.05.05 0 0 1-.057.008l-.335-.183a.01.01 0 0 1-.007-.008v-.006l.001-.005 1.339-2.455a.02.02 0 0 1 .011-.01.02.02 0 0 1 .015.002l.441.24q.01.006.014.017a.03.03 0 0 1-.002.021q-.255.497-.487.858-.008.012-.006.02m-.36.686c-.12.224-.247.555.054.718.3.162.51-.125.63-.349s.247-.555-.054-.717c-.3-.163-.51.125-.63.348m26.729-.331a.906.906 0 0 1-.165 1.269l-.114.088a.907.907 0 0 1-1.27-.165l-.172-.224a.905.905 0 0 1 .165-1.27l.114-.088a.905.905 0 0 1 1.269.165zm-1.168-.039c-.312.183-.197.49-.053.735.142.243.356.494.667.31.312-.182.197-.49.053-.734-.143-.244-.356-.494-.667-.311"/><path fill="#5e5e5e" d="M49.505 61.53c.144.244.259.552-.053.735-.311.183-.525-.068-.668-.311-.143-.244-.258-.552.054-.735.311-.183.524.067.667.311m-25.598-.29c.3.163.174.495.054.718-.12.224-.33.511-.63.349s-.175-.495-.054-.718c.12-.223.33-.51.63-.348"/><path fill="#fff" d="M46.585 62.88q0-.153.062-.342l.232-.715c.019-.06.073-.102.134-.129a7 7 0 0 0 .415-.197.03.03 0 0 1 .029.003.03.03 0 0 1 .008.029l-.338 1.033a.08.08 0 0 0 .037.095l1.152.628.011.01q.005.008.004.017a.03.03 0 0 1-.017.025l-.494.225a.08.08 0 0 1-.072-.004l-.81-.467a.03.03 0 0 0-.038.003l-.008.01-.09.165a.16.16 0 0 0-.006.138l.222.487a.03.03 0 0 1 0 .022l-.005.009-.01.006-.428.195a.054.054 0 0 1-.071-.027l-1.13-2.486a.043.043 0 0 1 .021-.057l.443-.202a.026.026 0 0 1 .034.013l.443.98q.105.23.179.443a.3.3 0 0 0 .078.1.01.01 0 0 0 .013-.01m-21.012.376v.005l.004.004h.005l.005-.002q.12-.163.177-.227.375-.43.81-.91l.01-.005h.012l.491.206a.034.034 0 0 1 .02.04l-.008.014a404 404 0 0 1-1.704 1.753c-.357.364-.797.37-1.209.098a.05.05 0 0 1-.018-.06l.144-.344.007-.01a.03.03 0 0 1 .023-.006q.006 0 .012.005c.263.19.486.17.708-.07q.06-.066.062-.126a150 150 0 0 0 .064-2.093l.007-.007.008-.003.01.001.49.205a.07.07 0 0 1 .043.079q-.015.09-.1 1.069-.015.186-.073.384M44.7 61.74l-.436.136a.05.05 0 0 0-.032.061l.817 2.609a.05.05 0 0 0 .062.032l.435-.136a.05.05 0 0 0 .032-.062l-.817-2.608a.05.05 0 0 0-.062-.032m-15.458.61-.466-.147a.04.04 0 0 0-.047.025l-.781 2.462a.04.04 0 0 0 .024.047l.466.148a.04.04 0 0 0 .048-.025l.78-2.462a.04.04 0 0 0-.024-.047m11.567.426-.104.025a.25.25 0 0 0-.183.298l.01.044a.25.25 0 0 0 .299.183l.103-.024a.25.25 0 0 0 .184-.298l-.01-.044a.25.25 0 0 0-.299-.184m2.765 1.996c-.128.3-.402.438-.708.466-.354.032-.567-.217-.63-.545-.116-.584.58-.772.997-.873a.08.08 0 0 0 .046-.033.08.08 0 0 0 .01-.056q-.08-.325-.387-.24-.274.074-.492.266a.04.04 0 0 1-.032.01.04.04 0 0 1-.03-.016l-.21-.27a.04.04 0 0 1 .008-.059c.377-.304 1.266-.65 1.577-.078q.066.121.112.305.114.451.308 1.19a.05.05 0 0 1-.005.035.05.05 0 0 1-.028.021l-.276.074a.08.08 0 0 1-.079-.027l-.136-.176-.011-.008a.03.03 0 0 0-.026.003zm-.23-.648a1.2 1.2 0 0 0-.405.15c-.275.165-.165.607.2.487q.405-.134.26-.603a.05.05 0 0 0-.055-.034m-3.359.589-.846.097-.01.003a.03.03 0 0 0-.012.015v.01l.112.992v.01a.03.03 0 0 1-.013.016l-.01.003-.498.057h-.01l-.01-.006a.03.03 0 0 1-.01-.017l-.293-2.59v-.01a.03.03 0 0 1 .013-.016l.01-.003 1.463-.166h.01a.03.03 0 0 1 .015.014l.003.01.047.408v.01l-.006.01a.03.03 0 0 1-.017.009l-.912.104-.01.003a.03.03 0 0 0-.013.015v.01l.07.628.004.01.007.007a.03.03 0 0 0 .019.006l.845-.096h.01a.03.03 0 0 1 .019.023l.046.406v.01a.03.03 0 0 1-.023.018m-8.692.811a.02.02 0 0 1-.008.01l-.012.003-.494-.101a.03.03 0 0 1-.019-.013.03.03 0 0 1-.004-.022q.15-.7.242-1.18c.057-.301-.095-.498-.41-.458-.212.027-.323.265-.365.453a29 29 0 0 0-.217 1.041.03.03 0 0 1-.02.013h-.011l-.485-.1a.033.033 0 0 1-.026-.039l.396-1.928a.03.03 0 0 1 .037-.024l.33.067a.08.08 0 0 1 .06.071l.006.183a.03.03 0 0 0 .049.021.68.68 0 0 1 .523-.17c.552.043.808.376.691.921-.107.5-.189.94-.264 1.252m9.871-2.005-.477.097a.034.034 0 0 0-.027.04l.388 1.925c.004.018.022.03.04.026l.477-.096a.034.034 0 0 0 .027-.04l-.388-1.924a.034.034 0 0 0-.04-.027m-7.071 2.381a.02.02 0 0 1-.006.011.02.02 0 0 1-.013.003l-.5-.058a.03.03 0 0 1-.026-.032q.088-.711.138-1.196c.032-.305-.137-.488-.448-.421-.208.045-.298.292-.323.483a29 29 0 0 0-.126 1.055.03.03 0 0 1-.03.016l-.492-.057a.03.03 0 0 1-.022-.012.03.03 0 0 1-.007-.024l.227-1.955a.03.03 0 0 1 .023-.027h.012l.334.038a.08.08 0 0 1 .066.066l.022.181q0 .008.007.015a.03.03 0 0 0 .044.002.68.68 0 0 1 .506-.215c.554-.005.838.304.768.857-.063.507-.106.953-.154 1.27m2.09-.156c-.196.261-.495.328-.799.281-.35-.053-.497-.347-.481-.68.03-.594.75-.61 1.18-.606a.08.08 0 0 0 .052-.022.07.07 0 0 0 .022-.052q.002-.335-.316-.327-.284.007-.542.14a.043.043 0 0 1-.059-.021l-.138-.312a.043.043 0 0 1 .021-.056c.439-.203 1.385-.325 1.549.304q.034.135.036.323.001.465.011 1.231a.05.05 0 0 1-.027.042l-.017.004-.287.004a.08.08 0 0 1-.07-.044l-.09-.204-.008-.01a.03.03 0 0 0-.026-.003zm-.051-.686c-.261-.003-.674.007-.66.364.009.237.294.234.454.17.22-.086.247-.302.232-.51a.03.03 0 0 0-.026-.024"/><path fill="#5e5e5e" d="M43.343 64.125a.05.05 0 0 1 .034.006.05.05 0 0 1 .022.028q.145.469-.26.603c-.366.12-.476-.322-.201-.486q.19-.114.405-.151m-7.213.935a.03.03 0 0 1 .026.025c.015.207-.011.423-.232.51-.16.062-.445.066-.454-.171-.014-.357.399-.368.66-.364"/></g><defs><clipPath id="a"><path fill="#fff" d="M0 0h70v70H0z"/></clipPath></defs></svg>