<svg xmlns="http://www.w3.org/2000/svg" viewBox="0 0 60.11758 56.69893">
  <defs>
    <style>
      .cls-1 {
        fill: #b4221b;
      }

      .cls-2 {
        fill: #fff;
      }
    </style>
  </defs>
  <g id="Layer_2" data-name="Layer 2">
    <g id="Neck">
      <g>
        <path class="cls-1" d="M23.872,42.0209a.19824.19824,0,0,0-.17967-.07047.21121.21121,0,0,0-.12834.224L23.43565,49.914a.659.659,0,0,1-.56467.72012l-3.388.90663c-.56467.1511-.59034-.07911-.59034-.43475v-16.833a.65728.65728,0,0,1,.59034-.75069l2.541-.68a.51377.51377,0,0,1,.616.23821l4.13232,5.50884a.15521.15521,0,0,0,.17967.07045.21605.21605,0,0,0,.154-.23087l.12834-6.41192A.659.659,0,0,1,27.799,31.297l3.43933-.92037c.56467-.15111.59034.0554.59034.43474v16.833a.65728.65728,0,0,1-.59034.75069l-1.617.43271a.44933.44933,0,0,1-.462-.13716Z"/>
        <path class="cls-1" d="M44.94516,27.51929a.27344.27344,0,0,1,.17966.28385,1.08879,1.08879,0,0,1-.05133.27452l-.79568,2.4178a.4502.4502,0,0,1-.308.34322,1.122,1.122,0,0,1-.33367-.00556,8.38423,8.38423,0,0,0-2.464.30376c-2.28433.61129-3.05434,2.45321-3.05434,4.77664,0,4.36236,3.64468,5.44968,6.80168,5.71914.25666.02616.28233.13782.28233.37491V44.331a.36073.36073,0,0,1-.25666.40061,2.47951,2.47951,0,0,1-.385.0556c-5.929.496-11.49867-1.42754-11.49867-8.08962a9.322,9.322,0,0,1,7.03267-8.99445A10.82361,10.82361,0,0,1,44.94516,27.51929Z"/>
        <path class="cls-1" d="M55.42057,31.92409c0-.18969-.077-.24019-.231-.199l-3.388.90663a.27472.27472,0,0,0-.231.2989l-.28233,9.58262a.6484.6484,0,0,1-.539.71325l-3.311.886c-.56467.15111-.59034-.07911-.59034-.43474v-16.833a.6573.6573,0,0,1,.59034-.7507l3.311-.886c.43632-.11677.616.00113.64166.421l.154,3.6573c0,.18966.10266.257.25667.21582l3.388-.90663a.32776.32776,0,0,0,.25667-.32948l.12833-3.73285a.77269.77269,0,0,1,.66733-.795l3.28535-.87917c.41065-.10989.59033-.03941.59033.43475v16.833c0,.35564-.02567.59959-.59033.75069l-3.28535.87917c-.43632.11676-.56465-.06227-.56465-.41791Z"/>
        <path class="cls-1" d="M4.389,55.06626a.68605.68605,0,0,1-.462.69264l-3.33667.8929C.02567,56.8029,0,56.57269,0,56.21705v-16.833a.65727.65727,0,0,1,.59033-.75069l10.241-2.7405a.334.334,0,0,1,.462.32682v2.70278a.6569.6569,0,0,1-.48767.53353L5.21034,40.95334c-.25667.06868-.33367.20784-.33367.35008v.09484L5.082,43.45335c0,.09484.10267.16221.25667.121l3.79867-1.01653a.20141.20141,0,0,1,.25667.21582v.09482l-.231,2.29041a.40737.40737,0,0,1-.33366.35008l-3.51633.941a.3.3,0,0,0-.25668.28206Z"/>
        <path class="cls-1" d="M17.19858,51.58307a.659.659,0,0,1-.56467.72011l-3.64467.97532c-.56466.1511-.59033-.07911-.59033-.43475v-16.833a.65728.65728,0,0,1,.59033-.75069l3.56767-.95471c.43633-.11676.64167.01795.64167.44472Z"/>
      </g>
      <path class="cls-2" d="M35.41434,13.94774C36.7,15.23241,36.81658,16.671,35.928,18.6094a4.90745,4.90745,0,0,0-1.93219-4.23687C31.11708,11.55591,20.748,5.35817,23.23046,0c-9.12631,9.89892,8.23013,11.47124,8.89962,19.60338-2.14261-6.44742-15.55161-8.908-12.57826-16.2113-8.58457,8.10687-.6379,13.66177,2.684,16.20247,5.12445,4.35673-4.49043,8.21415-4.51627,8.65113,1.21375-.30275,2.381-.631,3.4749-.98768a16.70005,16.70005,0,0,0,3.69668-1.68975c4.63242-2.91715,2.09707-6.55.39383-7.85353-2.67408-2.04651-6.02922-4.04438-5.5889-6.65265-.03686,2.1512,3.98764,4.24483,6.5429,6.20422,2.20643,1.69188,4.4331,5.789,1.29534,8.29805,11.78637-3.01526,8.75978-10.27658,16.8897-11.23972C41.61935,12.18732,37.69562,12.68353,35.41434,13.94774Z"/>
    </g>
  </g>
</svg>
