<svg xmlns="http://www.w3.org/2000/svg" width="161" height="35" fill="none" viewBox="0 0 161 35"><g fill="#5e5e5e" clip-path="url(#a)"><path d="M13.098.271h.029C20.9.245 27.01 7.117 25.453 14.878c-.533 2.658-1.843 5.296-3.356 7.595-2.515 3.821-5.684 7.317-9.071 10.315a.1.1 0 0 1-.05.02.07.07 0 0 1-.05-.021c-3.365-3.022-6.507-6.541-8.993-10.383-1.497-2.308-2.787-4.957-3.299-7.618C-.866 7.013 5.296.186 13.068.27zm4.232 14.79c-.925 1.874-3.129 2.428-5.04 2.204-2.095-.244-3.543-1.83-3.812-3.883-.383-2.922 1.195-5.526 4.295-5.689 1.88-.1 3.707.684 4.55 2.388a.14.14 0 0 0 .13.08h5.19a.06.06 0 0 0 .051-.024.06.06 0 0 0 .012-.056 13 13 0 0 0-.326-1.048 8 8 0 0 0-1.997-3.106c-2.493-2.417-6.025-3.244-9.42-2.636-2.715.484-5.133 2.046-6.497 4.415-2.097 3.64-1.57 8.654 1.574 11.555q2.419 2.233 5.789 2.572c3.789.383 7.311-.904 9.44-4.137 1.091-1.658 1.604-3.768 1.596-5.757a.04.04 0 0 0-.013-.03.05.05 0 0 0-.032-.013H12.746a.04.04 0 0 0-.04.04v2.988q0 .026.02.046.02.018.046.018h4.513a.05.05 0 0 1 .05.049zm25.629-3.831v-.957c0-.053.02-.104.058-.143l6.339-6.49a.1.1 0 0 1 .073-.03h.942a.08.08 0 0 1 .08.078V7.51q0 .042.029.073t.072.03h3.413a.06.06 0 0 1 .057.058v3.572a.07.07 0 0 1-.07.07H50.61a.07.07 0 0 0-.047.021.07.07 0 0 0-.02.048q.003 1.337 0 4.04c-.002.793.137 1.302.804 1.667q.352.193 1.311.176l1.345-.018a.1.1 0 0 1 .06.025.1.1 0 0 1 .024.06l.002 4.053a.08.08 0 0 1-.024.057.08.08 0 0 1-.057.025 159 159 0 0 1-3.528-.014q-1.703-.03-3.016-.896c-1.087-.718-1.671-1.972-1.829-3.28q-.038-.316-.031-1.635l.002-4.225a.103.103 0 0 0-.103-.103h-2.46a.08.08 0 0 1-.078-.052.1.1 0 0 1-.006-.033m-.895 5.543a.05.05 0 0 1 .05.043l-.001.024c-.915 2.726-3.189 4.527-6.007 4.956-2 .305-4.187.013-5.899-1.09-2.57-1.654-3.662-4.34-3.27-7.32.32-2.42 1.88-4.424 4.1-5.448q1.785-.824 4.085-.735c4.57.175 7.908 3.772 7.198 8.425a.07.07 0 0 1-.07.06H31.834a.088.088 0 0 0-.085.11q.602 2.329 3.026 2.254a3.4 3.4 0 0 0 1.346-.32c.372-.173.645-.455 1.026-.797a.36.36 0 0 1 .198-.088 15 15 0 0 1 1.544-.08zm-7.403-3.728q2.215 0 2.775.008a.07.07 0 0 0 .067-.093c-.442-1.291-1.444-2.024-2.841-2.025-1.396-.001-2.4.732-2.842 2.022a.07.07 0 0 0 .034.085q.014.008.032.007.561-.007 2.775-.004m43.659 8.361a.06.06 0 0 1-.018.045.07.07 0 0 1-.046.019h-4.828a.063.063 0 0 1-.062-.063q.003-6.563-.006-8.387c-.004-.719-.36-1.609-1.213-1.724-1.888-.251-2.399 1.136-2.399 2.701q.004 5.843-.003 7.377a.097.097 0 0 1-.098.097h-4.664a.06.06 0 0 1-.038-.016.05.05 0 0 1-.016-.037q.005-7.256-.004-8.471 0-.218-.195-.772a1.34 1.34 0 0 0-1.274-.917c-1.455-.031-2.108 1.046-2.114 2.362q-.01 3.05-.002 7.777 0 .031-.022.053a.08.08 0 0 1-.054.022h-4.817a.06.06 0 0 1-.061-.061V7.68a.074.074 0 0 1 .074-.074h3.299a.15.15 0 0 1 .14.09l.595 1.301a.052.052 0 0 0 .083.016q.334-.324.634-.56 2.098-1.66 4.775-1.086 1.735.372 2.754 1.79a.075.075 0 0 0 .09.025.1.1 0 0 0 .028-.02q1.484-1.638 3.577-1.897c2.8-.346 5.1 1.171 5.742 3.968q.15.65.146 1.878-.008 5.165-.002 8.293m18.142.016a.04.04 0 0 1-.013.03.05.05 0 0 1-.03.013l-3.72.001a.08.08 0 0 1-.077-.049l-.404-.884a.04.04 0 0 0-.028-.024.04.04 0 0 0-.036.008 6.6 6.6 0 0 1-3.522 1.356c-4.72.39-8.461-2.88-8.208-7.753.219-4.218 3.45-6.984 7.623-6.902 1.483.03 2.97.48 4.143 1.408a.07.07 0 0 0 .094-.001.1.1 0 0 0 .02-.027l.422-.895a.16.16 0 0 1 .14-.09h3.544a.05.05 0 0 1 .049.048zm-11.11-6.987a3.15 3.15 0 0 0 .865 2.258 3.2 3.2 0 0 0 1.017.717 3.26 3.26 0 0 0 2.453.081 3.2 3.2 0 0 0 1.062-.648 3.103 3.103 0 0 0 .148-4.453 3.2 3.2 0 0 0-1.017-.717 3.26 3.26 0 0 0-3.515.567 3.2 3.2 0 0 0-.728.999c-.174.376-.27.783-.284 1.196m18.431-5.454c1.197-1.365 3.243-1.886 5.016-1.733 2.306.198 3.989 1.556 4.65 3.766.21.706.268 1.505.266 2.289q-.004 1.952-.002 8.1a.1.1 0 0 1-.006.035.1.1 0 0 1-.019.029.1.1 0 0 1-.063.026h-4.801l-.021-.004-.018-.012-.012-.019-.004-.022q.006-7.234-.01-7.93c-.023-.994-.391-2.076-1.54-2.177q-1.986-.174-2.572 1.658c-.118.368-.149 1.078-.149 1.534q.002 5.667-.004 6.867-.001.034-.026.06a.08.08 0 0 1-.06.024h-4.8a.053.053 0 0 1-.053-.053V7.676q0-.028.02-.048a.07.07 0 0 1 .046-.02h3.287a.21.21 0 0 1 .193.125l.562 1.228q.007.016.022.028a.1.1 0 0 0 .033.014q.018.002.036-.004a.1.1 0 0 0 .029-.02m27.526 4.3-.002.017a.03.03 0 0 1-.008.015l-.014.01-.017.004h-4.715a.12.12 0 0 1-.068-.022.1.1 0 0 1-.04-.058c-.115-.378-.472-.855-.779-1.087q-1.435-1.086-3.138-.438c-2.168.825-2.303 4.124-.511 5.37a2.945 2.945 0 0 0 4.464-1.391.1.1 0 0 1 .042-.055.12.12 0 0 1 .067-.02h4.707q.02 0 .037.008a.08.08 0 0 1 .048.056.1.1 0 0 1 .002.037c-.625 3.538-3.372 5.893-6.937 6.152q-2.355.17-4.298-.664c-3.107-1.335-4.748-4.45-4.28-7.808.499-3.568 3.365-5.843 6.861-6.162q1.478-.136 2.745.11c3.095.6 5.346 2.788 5.834 5.926m17.413 8.147a.044.044 0 0 1-.044.043h-3.722a.1.1 0 0 1-.046-.013.1.1 0 0 1-.031-.036l-.404-.884-.011-.015a.04.04 0 0 0-.053-.001 6.6 6.6 0 0 1-3.522 1.355c-4.724.39-8.465-2.883-8.211-7.758.22-4.22 3.453-6.986 7.629-6.903 1.482.03 2.972.48 4.144 1.409a.07.07 0 0 0 .063.014.1.1 0 0 0 .031-.015.1.1 0 0 0 .02-.027l.422-.895a.16.16 0 0 1 .057-.065.16.16 0 0 1 .084-.024h3.545a.05.05 0 0 1 .035.014q.014.014.014.034zm-11.144-6.941a3.13 3.13 0 0 0 .9 2.244c.293.297.642.536 1.028.7a3.26 3.26 0 0 0 2.455.044 3.2 3.2 0 0 0 1.052-.665c.303-.287.545-.63.713-1.01a3.1 3.1 0 0 0 .042-2.41 3.2 3.2 0 0 0-.677-1.035 3.256 3.256 0 0 0-4.535-.08 3.2 3.2 0 0 0-.713 1.01 3.1 3.1 0 0 0-.265 1.202M161 7.58v4.365a56 56 0 0 1-1.795-.008 3 3 0 0 0-1.419.299c-.828.407-1.011 1.305-1.023 2.137q-.011.833-.004 7.053a.07.07 0 0 1-.019.046.07.07 0 0 1-.046.019h-4.846a.04.04 0 0 1-.031-.013.05.05 0 0 1-.012-.031V7.674q0-.027.019-.046a.06.06 0 0 1 .046-.02h3.169q.043 0 .08.023a.15.15 0 0 1 .055.06l.695 1.367.017.021a.06.06 0 0 0 .053.008.1.1 0 0 0 .024-.016 4.53 4.53 0 0 1 2.725-1.442q.887-.135 2.312-.048M138.833 24.96q.009 0 .018.003t.014.01q.006.007.01.015l.003.018v2.76q0 .016.008.028a.05.05 0 0 0 .022.018.05.05 0 0 0 .028.003.05.05 0 0 0 .025-.013q.913-.84 2.189-.577c.939.195 1.241.926 1.292 1.81q.015.279.005 3.652a.095.095 0 0 1-.06.09.1.1 0 0 1-.037.007h-.818a.1.1 0 0 1-.102-.1q-.006-.988.007-2.79.006-1.13-.158-1.402-.378-.621-1.258-.476-.75.124-1.11.827a.3.3 0 0 0-.033.136v3.714a.1.1 0 0 1-.027.065.1.1 0 0 1-.066.027h-.829a.1.1 0 0 1-.098-.097v-7.68q0-.02.014-.034a.05.05 0 0 1 .034-.015zm-87.552 4.113v.078c-.07 1.003.188 2.283 1.178 2.704q.888.375 1.737.024.816-.337.946-1.446a.04.04 0 0 1 .042-.038h1.03q.005 0 .009.002l.007.005.004.008v.01q-.296 2-2.147 2.392-.272.058-.884.052c-1.418-.011-2.49-.88-2.844-2.235q-.17-.645-.167-1.559.002-.912.173-1.556c.361-1.353 1.437-2.218 2.854-2.223q.612-.004.885.055 1.847.4 2.136 2.402a.02.02 0 0 1-.005.017.02.02 0 0 1-.015.007l-1.03-.005a.04.04 0 0 1-.042-.038q-.127-1.107-.94-1.449-.847-.356-1.737.017c-.991.416-1.255 1.694-1.19 2.698zm18.782-3.784-.208.003a.495.495 0 0 0-.487.504l.002.093c.005.273.23.49.504.486l.208-.004a.495.495 0 0 0 .486-.503l-.001-.093a.495.495 0 0 0-.504-.486m57.696 1.966h.83a.14.14 0 0 0 .138-.139v-1.105q0-.012.004-.022l.012-.018.018-.012.022-.004h.917q.02 0 .035.014.014.015.014.036v1.17q0 .032.024.057a.08.08 0 0 0 .057.023h.876a.1.1 0 0 1 .072.03q.03.031.03.073v.55a.1.1 0 0 1-.033.078.1.1 0 0 1-.078.032h-.858a.1.1 0 0 0-.065.027.1.1 0 0 0-.027.065q.003 2.99 0 3.208c-.014.644.41.79.973.655a.1.1 0 0 1 .086.02q.018.013.029.034a.1.1 0 0 1 .01.044v.574a.16.16 0 0 1-.122.154c-.699.162-1.521.12-1.873-.615q-.128-.264-.126-.913.005-1.939.005-3.167a.1.1 0 0 0-.006-.033.1.1 0 0 0-.018-.027.08.08 0 0 0-.059-.025h-.875a.1.1 0 0 1-.073-.03.1.1 0 0 1-.03-.073v-.57a.1.1 0 0 1 .026-.064.1.1 0 0 1 .065-.027m-67.094 2.171a.07.07 0 0 0 .049-.016.07.07 0 0 0 .026-.044q.028-.176-.02-.542c-.095-.712-.749-.916-1.4-.849q-.822.085-1.042.82a.05.05 0 0 1-.017.024.05.05 0 0 1-.028.01h-.938a.03.03 0 0 1-.022-.01.03.03 0 0 1-.007-.023q.08-.645.558-1.043c1.02-.848 3.271-.9 3.837.575q.107.276.1 1.031a103 103 0 0 0 .005 2.394q.007.363.199.915a.09.09 0 0 1-.011.08.09.09 0 0 1-.072.037h-.894a.16.16 0 0 1-.158-.157v-.26a.09.09 0 0 0-.051-.08.09.09 0 0 0-.095.013q-.953.795-2.2.491c-.983-.24-1.57-1.147-1.223-2.14.464-1.326 2.3-1.257 3.404-1.226m-.014.685a5.8 5.8 0 0 0-1.637.113c-1.217.26-1.015 1.747.164 1.79q.76.027 1.337-.504a.6.6 0 0 0 .219-.436 10 10 0 0 0-.001-.882.09.09 0 0 0-.082-.08m3.609-2.352c.063-.073.16-.211.25-.274a1.67 1.67 0 0 1 1.382-.272.12.12 0 0 1 .066.04q.025.033.025.073v.722a.1.1 0 0 1-.03.068.1.1 0 0 1-.073.02c-.727-.108-1.698.13-1.694.973q.004 1.739-.002 3.574a.1.1 0 0 1-.102.102h-.82a.1.1 0 0 1-.098-.099v-5.328q0-.046.033-.077a.1.1 0 0 1 .078-.032h.794q.037 0 .066.027a.1.1 0 0 1 .027.065v.383a.06.06 0 0 0 .037.053.055.055 0 0 0 .062-.017m8.633.058a.044.044 0 0 0 .075.031q.766-.77 1.889-.676c1.465.123 1.663 1.148 1.625 2.476q-.009.297-.007 3.032a.103.103 0 0 1-.103.103h-.82a.1.1 0 0 1-.099-.098q-.003-2.318.005-3.237c.007-.838-.129-1.423-1.042-1.459-.595-.024-1.484.388-1.481 1.093q.003.988 0 3.6a.1.1 0 0 1-.098.098h-.825a.1.1 0 0 1-.098-.098v-5.328a.104.104 0 0 1 .104-.104h.753a.12.12 0 0 1 .122.12zm17.513 2.644a2.38 2.38 0 0 1-2.38 2.38h-.436a2.38 2.38 0 0 1-2.38-2.38v-.885a2.38 2.38 0 0 1 2.38-2.38h.436a2.38 2.38 0 0 1 2.38 2.38zm-2.613-2.522c-.216.001-.43.056-.63.162-.199.105-.38.26-.532.453a2.2 2.2 0 0 0-.353.676 2.56 2.56 0 0 0 .008 1.59c.084.253.207.481.36.673.155.192.337.345.537.448s.415.156.632.155c.216-.001.43-.056.63-.162.198-.105.38-.26.531-.453.152-.194.272-.424.354-.676a2.56 2.56 0 0 0-.009-1.59 2.2 2.2 0 0 0-.36-.673 1.7 1.7 0 0 0-.537-.448 1.36 1.36 0 0 0-.631-.155m10.673-.216a.056.056 0 0 0 .07.054.06.06 0 0 0 .029-.018c.062-.075.159-.212.249-.275a1.68 1.68 0 0 1 1.382-.274q.04.01.066.042.025.032.025.072v.722a.1.1 0 0 1-.008.037.09.09 0 0 1-.095.051c-.727-.109-1.697.13-1.693.973q.005 1.739 0 3.572a.1.1 0 0 1-.102.102l-.819.001a.1.1 0 0 1-.07-.029.1.1 0 0 1-.028-.07l-.004-5.327q.001-.044.032-.077a.1.1 0 0 1 .078-.031h.794q.04 0 .067.027a.1.1 0 0 1 .027.065zm5.991 3.425q.09.712.985.88c.526.098 1.329.002 1.546-.53q.154-.378-.204-.722-.218-.21-.794-.336c-.698-.156-1.634-.305-2.078-.851-.722-.886-.11-1.878.836-2.242 1.224-.472 2.927-.128 3.248 1.364a.17.17 0 0 1-.034.145.18.18 0 0 1-.135.064h-.692a.21.21 0 0 1-.203-.159q-.185-.744-1.135-.792c-.457-.023-1.038.163-1.136.645-.085.413.228.665.6.781.746.232 2.547.394 2.756 1.52q.15.801-.411 1.346c-.539.521-1.276.631-2.037.602-1.043-.038-2.017-.605-2.164-1.707a.1.1 0 0 1 .003-.038.1.1 0 0 1 .019-.033.1.1 0 0 1 .03-.023.1.1 0 0 1 .036-.008h.858q.04 0 .071.027a.1.1 0 0 1 .035.067m4.805 1.639a.08.08 0 0 1-.058-.025.1.1 0 0 1-.024-.059v-5.358q0-.04.028-.069a.1.1 0 0 1 .069-.028h.802q.04 0 .068.027a.1.1 0 0 1 .027.066v.357q0 .018.01.034.01.015.026.022a.06.06 0 0 0 .065-.01q.74-.654 1.812-.58a1.88 1.88 0 0 1 1.428.77l.02.017a.06.06 0 0 0 .074-.015q.746-.855 1.992-.77 1.112.077 1.543.944.209.42.18 1.485-.007.28-.003 3.089 0 .04-.029.07a.1.1 0 0 1-.07.03h-.82a.1.1 0 0 1-.102-.103q0-2.777.003-3.36c.002-.56-.079-1.103-.707-1.27-.719-.188-1.404.014-1.737.688q-.097.198-.088.663.009.431.004 3.284a.1.1 0 0 1-.031.072.1.1 0 0 1-.073.03h-.816a.1.1 0 0 1-.1-.1l-.003-3.451c0-.463-.134-.942-.604-1.13-.677-.272-1.608-.097-1.926.631a.2.2 0 0 0-.017.086v3.865a.1.1 0 0 1-.097.098zm12.735-3.363a.1.1 0 0 0 .049-.016.07.07 0 0 0 .026-.044q.028-.175-.02-.543c-.095-.71-.749-.914-1.398-.847q-.823.085-1.043.82a.05.05 0 0 1-.017.024.05.05 0 0 1-.027.01h-.938l-.012-.003-.01-.007-.006-.011-.001-.012a1.55 1.55 0 0 1 .558-1.042c1.018-.848 3.269-.9 3.835.572q.107.277.101 1.032a96 96 0 0 0 .006 2.392q.006.364.198.916a.09.09 0 0 1-.011.08.09.09 0 0 1-.071.037h-.895a.16.16 0 0 1-.112-.046.16.16 0 0 1-.046-.111v-.26a.089.089 0 0 0-.146-.067q-.951.795-2.199.492c-.983-.24-1.569-1.147-1.223-2.138.463-1.327 2.3-1.258 3.402-1.228m-.015.68a5.8 5.8 0 0 0-1.634.122c-1.214.267-1.003 1.75.175 1.787q.76.023 1.331-.51.21-.197.216-.437a10 10 0 0 0-.007-.881.08.08 0 0 0-.025-.056.1.1 0 0 0-.056-.024m3.529-2.381q0 .018.01.032t.026.02a.06.06 0 0 0 .034.002.05.05 0 0 0 .028-.018c.063-.074.159-.213.249-.276a1.68 1.68 0 0 1 1.381-.274q.04.01.066.042.025.032.025.072l.002.722a.1.1 0 0 1-.009.037.1.1 0 0 1-.023.03.1.1 0 0 1-.033.019.1.1 0 0 1-.039.002c-.726-.108-1.698.131-1.693.975q.007 1.738.003 3.572 0 .043-.029.072a.1.1 0 0 1-.073.03l-.819.002a.1.1 0 0 1-.07-.03.1.1 0 0 1-.029-.069l-.005-5.327q0-.046.032-.077a.1.1 0 0 1 .078-.032l.793-.001a.1.1 0 0 1 .067.026.1.1 0 0 1 .02.03.1.1 0 0 1 .008.036zm7.374 4.59a.03.03 0 0 0-.032.003.03.03 0 0 0-.011.012l-.004.015v2.408a.1.1 0 0 1-.027.066.1.1 0 0 1-.066.027h-.826a.1.1 0 0 1-.074-.03.1.1 0 0 1-.031-.075v-7.385a.106.106 0 0 1 .106-.106h.757a.1.1 0 0 1 .099.097v.37q0 .02.011.037a.06.06 0 0 0 .067.028.06.06 0 0 0 .034-.018 2.04 2.04 0 0 1 1.407-.59q1.841-.059 2.294 1.667c.396 1.508.091 3.903-1.934 4.027a2.8 2.8 0 0 1-1.257-.216c-.205-.085-.366-.276-.513-.337m-.045-2.288q0 1.186.003 1.207a.4.4 0 0 0 .024.083q.102.237.303.394c.726.57 1.801.472 2.258-.383q.285-.534.285-1.302t-.285-1.303c-.457-.853-1.532-.952-2.258-.381a1 1 0 0 0-.303.394.4.4 0 0 0-.024.083q-.003.021-.003 1.208m13.299-2.864c1.463-.007 2.39.919 2.627 2.305q.02.116.022.54.002.422-.018.538c-.224 1.389-1.145 2.323-2.606 2.329-1.462.006-2.39-.92-2.627-2.307a5 5 0 0 1-.022-.539q-.001-.42.017-.539c.225-1.388 1.146-2.321 2.607-2.327m.002.78c-.216 0-.431.055-.631.16s-.381.259-.534.452a2.2 2.2 0 0 0-.355.675 2.6 2.6 0 0 0-.123.795c.002.55.178 1.078.489 1.466.31.388.731.605 1.169.604.217 0 .431-.055.631-.16s.381-.259.534-.452c.152-.194.273-.423.355-.675s.124-.522.123-.795c-.002-.55-.178-1.078-.488-1.466-.311-.388-.732-.606-1.17-.604m4.731-.124a.04.04 0 0 0 .027.04l.026.003a.04.04 0 0 0 .022-.012q.766-.769 1.89-.677c1.466.123 1.664 1.149 1.626 2.477q-.008.298-.006 3.035a.1.1 0 0 1-.03.073.1.1 0 0 1-.073.03l-.821.001a.1.1 0 0 1-.069-.029.1.1 0 0 1-.029-.07q-.004-2.319.004-3.24c.006-.838-.129-1.422-1.043-1.458-.596-.025-1.485.388-1.482 1.094q.003.989.002 3.601 0 .04-.029.07a.1.1 0 0 1-.07.029h-.826a.1.1 0 0 1-.07-.03.1.1 0 0 1-.029-.069l-.001-5.33q0-.044.031-.074a.1.1 0 0 1 .074-.03h.753q.05 0 .086.034a.12.12 0 0 1 .036.086zm5.721 2.575c.108.9.63 1.605 1.577 1.668q.93.062 1.559-.658c.02-.024.05-.04.081-.043a.13.13 0 0 1 .09.024l.456.337q.018.013.029.032a.1.1 0 0 1 .012.086.1.1 0 0 1-.019.04q-.798 1.018-2.19.991c-1.26-.024-2.334-.764-2.555-2.007q-.077-.44-.046-1.15c.067-1.527 1.238-2.658 2.785-2.542 1.712.129 2.161 1.532 2.123 3.017a.1.1 0 0 1-.031.07.1.1 0 0 1-.072.03h-3.706a.1.1 0 0 0-.039.008.1.1 0 0 0-.05.058.1.1 0 0 0-.004.04m.143-.888 2.696-.023.017-.004.014-.01a.03.03 0 0 0 .01-.015l.003-.017v-.075a1.4 1.4 0 0 0-.417-.99 1.4 1.4 0 0 0-.989-.403 1.4 1.4 0 0 0-.981.42 1.4 1.4 0 0 0-.4.997v.075q0 .009.004.018a.05.05 0 0 0 .043.027M70.404 27.25h-.88a.073.073 0 0 0-.074.072v5.386c0 .04.033.073.073.073h.881c.04 0 .073-.033.073-.073v-5.386a.073.073 0 0 0-.073-.073M81.26 34.89h-.985l-.086-.03a.1.1 0 0 1-.042-.033.1.1 0 0 1-.017-.052v-.587a.07.07 0 0 1 .02-.048.07.07 0 0 1 .049-.02c.432.003.648.004 1.06-.24a.3.3 0 0 0 .086-.076q.239-.31.442-.905a.7.7 0 0 0-.018-.491q-.471-1.168-1.966-5.125a.02.02 0 0 1 .003-.018.02.02 0 0 1 .016-.009h1.062q.015 0 .03.01a.05.05 0 0 1 .018.024l1.364 3.868a.052.052 0 0 0 .08.026.05.05 0 0 0 .02-.027l1.266-3.863a.06.06 0 0 1 .02-.028.06.06 0 0 1 .033-.01h1.041l.011.005.003.006-.001.006a1044 1044 0 0 1-2.375 6.463q-.32.844-1.135 1.153m13.869-2.53a.05.05 0 0 0-.031-.04.05.05 0 0 0-.05.007c-.259.204-.515.384-.813.453-1.508.347-2.682-.207-2.707-1.889a584 584 0 0 1-.002-3.564.07.07 0 0 1 .072-.072h.874a.07.07 0 0 1 .066.045l.005.027a395 395 0 0 0 .002 3.569c.005 1.149.995 1.33 1.87.992q.447-.173.645-.618a.4.4 0 0 0 .032-.148v-3.812a.05.05 0 0 1 .016-.039.05.05 0 0 1 .038-.016h.91q.021 0 .037.015a.05.05 0 0 1 .015.036v5.383a.097.097 0 0 1-.096.096h-.795a.1.1 0 0 1-.094-.071.1.1 0 0 1-.002-.042 1 1 0 0 0 .008-.312"/></g><defs><clipPath id="a"><path fill="#fff" d="M0 0h161v34.889H0z"/></clipPath></defs></svg>