<svg width="1095" height="463" viewBox="0 0 1095 463" fill="none" xmlns="http://www.w3.org/2000/svg">
<path d="M542.386 141.516H607.232C607.684 145.11 607.983 148.855 607.983 152.15C607.983 169.822 602.256 184.499 590.793 196.031C579.334 207.413 564.706 213.105 547.063 213.105C529.27 213.105 514.19 207.114 501.825 195.431C489.76 183.75 483.58 169.222 483.58 151.999C483.58 134.926 489.61 120.399 501.671 108.717C513.737 96.8849 528.818 90.8945 546.461 90.8945C560.034 90.8945 571.945 94.0398 582.349 100.18C592.753 106.321 599.992 114.857 603.913 126.09L576.015 134.177C570.284 122.945 560.332 117.404 546.461 117.404C536.808 117.404 528.818 120.699 522.334 127.288C515.846 133.878 512.682 142.115 512.682 152.15C512.682 162.034 516.001 170.271 522.484 177.161C529.116 183.75 537.41 187.045 547.212 187.045C562.442 187.045 573.906 179.257 578.279 166.077H542.386V141.516Z" fill="#212121"/>
<path d="M701.781 133.427C711.13 141.964 715.802 153.196 715.802 166.675C715.802 180.304 711.13 191.536 701.781 200.073C692.432 208.609 680.968 212.953 667.549 212.953C653.827 212.953 642.214 208.609 632.715 200.073C623.366 191.536 618.689 180.304 618.689 166.675C618.689 153.196 623.366 142.114 632.715 133.427C642.214 124.89 653.827 120.547 667.549 120.547C680.968 120.547 692.432 124.89 701.781 133.427ZM682.476 183C686.7 178.656 688.809 173.264 688.809 166.525C688.809 159.936 686.7 154.543 682.326 150.351C678.107 146.007 673.127 143.91 667.549 143.91C661.817 143.91 656.692 146.007 652.319 150.351C647.945 154.543 645.836 159.936 645.836 166.525C645.836 179.855 655.638 189.29 667.698 189.29C673.281 189.29 678.256 187.193 682.476 183Z" fill="#212121"/>
<path d="M758.626 210.394H730.43V84.5898H758.626V210.394Z" fill="#212121"/>
<path d="M864.961 133.286C873.404 141.973 877.633 153.205 877.633 166.684C877.633 180.313 873.404 191.545 864.961 200.232C856.667 208.768 846.561 213.112 834.501 213.112C823.495 213.112 814.29 209.967 807.056 203.526V210.566H778.859V84.7617H807.056V129.842C814.29 123.401 823.345 120.257 834.501 120.257C846.561 120.107 856.667 124.449 864.961 133.286ZM850.034 166.684C850.034 153.355 841.282 143.92 828.769 143.92C823.042 143.92 817.912 146.016 813.539 150.36C809.319 154.703 807.21 160.094 807.21 166.534C807.21 173.124 809.319 178.515 813.539 183.009C817.912 187.202 823.042 189.299 828.769 189.299C841.282 189.299 850.034 180.013 850.034 166.684Z" fill="#212121"/>
<path d="M985.136 122.79V210.403H956.94V203.364C949.701 209.804 940.65 212.949 929.495 212.949C917.584 212.949 907.329 208.606 898.886 200.069C890.591 191.383 886.367 180.15 886.367 166.522C886.367 153.042 890.591 141.96 898.886 133.124C907.329 124.437 917.584 120.094 929.495 120.094C940.501 120.094 949.701 123.239 956.94 129.679V122.79H985.136ZM950.457 182.996C954.825 178.653 956.94 173.261 956.94 166.522C956.94 160.082 954.825 154.69 950.457 150.347C946.233 146.004 941.103 143.907 935.376 143.907C922.862 143.907 914.111 153.342 914.111 166.672C914.111 180.15 922.862 189.436 935.376 189.436C941.103 189.286 946.233 187.189 950.457 182.996Z" fill="#212121"/>
<path d="M1085.42 130.266C1091.75 136.855 1094.92 145.691 1094.92 156.624V210.391H1067.02V162.466C1067.02 152.131 1060.84 145.242 1051.95 145.242C1040.48 145.242 1033.69 153.03 1033.69 169.654V210.391H1005.5V122.777H1033.69V131.164C1040.78 123.826 1049.68 120.231 1060.84 120.231C1071.09 120.081 1079.39 123.526 1085.42 130.266Z" fill="#212121"/>
<path d="M586.142 267.157H547.995V358.963H519.191V267.157H481.039V241.996H586.142V267.157Z" fill="#212121"/>
<path d="M656.699 270.744L655.495 298.75H650.365C630.16 298.75 619.905 309.683 619.905 331.549V358.956H591.709V271.343H619.905V288.117C627.145 276.135 637.25 270.144 650.365 270.144C652.779 269.995 654.893 270.294 656.699 270.744Z" fill="#212121"/>
<path d="M756.687 271.352V358.966H728.491V351.926C721.251 358.367 712.206 361.512 701.046 361.512C689.134 361.512 678.88 357.168 670.432 348.631C662.142 339.945 657.918 328.713 657.918 315.084C657.918 301.605 662.142 290.523 670.432 281.687C678.88 272.999 689.134 268.656 701.046 268.656C712.052 268.656 721.251 271.801 728.491 278.242V271.202H756.687V271.352ZM722.008 331.559C726.381 327.215 728.491 321.823 728.491 315.084C728.491 308.644 726.381 303.252 722.008 298.909C717.783 294.566 712.654 292.469 706.927 292.469C694.408 292.469 685.662 301.905 685.662 315.234C685.662 328.713 694.408 337.998 706.927 337.998C712.654 337.849 717.783 335.751 722.008 331.559Z" fill="#212121"/>
<path d="M865.573 233.172V358.976H837.372V351.937C830.132 358.377 821.087 361.522 809.931 361.522C798.01 361.522 787.756 357.178 779.312 348.642C771.018 339.955 766.799 328.723 766.799 315.094C766.799 301.615 771.018 290.532 779.312 281.696C787.756 273.009 798.01 268.667 809.931 268.667C820.937 268.667 830.132 271.812 837.372 278.251V233.172H865.573ZM830.888 331.569C835.262 327.225 837.372 321.834 837.372 315.094C837.372 308.654 835.262 303.262 830.888 298.92C826.669 294.576 821.539 292.48 815.808 292.48C803.289 292.48 794.547 301.915 794.547 315.244C794.547 328.723 803.289 338.008 815.808 338.008C821.539 337.858 826.669 335.761 830.888 331.569Z" fill="#212121"/>
<path d="M967.967 322.273H903.27C905.539 332.756 912.923 339.196 922.277 339.196C931.019 339.196 937.352 335.901 941.124 329.013L966.156 334.104C958.613 352.226 942.935 361.512 922.426 361.512C909.455 361.512 898.299 357.168 889.403 348.631C880.502 339.945 875.83 328.713 875.83 315.084C875.83 301.605 880.353 290.523 889.403 281.687C898.299 272.999 909.455 268.656 922.575 268.656C935.392 268.656 946.104 272.85 954.697 281.387C963.29 289.923 967.813 301.156 968.116 315.084V322.273H967.967ZM903.877 305.2H940.223C937.656 296.064 930.869 291.42 922.426 291.42C914.281 291.42 906.44 296.662 903.877 305.2Z" fill="#212121"/>
<path d="M401.417 112.886L352.71 84.8805C350.298 83.5318 347.432 83.5318 345.17 84.8805L198.899 168.749C196.487 170.097 195.129 172.643 195.129 175.339V231.202C195.129 233.898 196.637 236.444 198.899 237.792L247.606 265.798C248.812 266.547 250.169 266.847 251.376 266.847C252.733 266.847 253.939 266.547 255.145 265.798L292.543 244.381V282.872L202.669 334.391L112.644 282.722V179.682L254.995 98.0592C257.407 96.712 258.764 94.1659 258.764 91.4701V35.607C258.764 32.9112 257.257 30.3652 254.995 29.0172L206.287 1.01092C203.875 -0.336975 201.01 -0.336975 198.748 1.01092L3.76992 112.737C1.35715 114.084 0 116.63 0 119.326V342.928C0 345.624 1.50796 348.17 3.76992 349.518L198.748 461.243C199.954 461.993 201.311 462.292 202.518 462.292C203.724 462.292 205.082 461.993 206.287 461.243L401.266 349.518C403.679 348.17 405.036 345.624 405.036 342.928V119.476C405.187 116.78 403.679 114.234 401.417 112.886ZM348.789 100.157L382.266 119.326L251.376 194.509L217.899 175.339L348.789 100.157ZM243.685 246.179L210.209 227.009V188.519L235.391 202.896L243.836 207.689V246.179H243.685ZM341.249 216.375V302.041L332.654 297.1L307.773 282.872V235.695L341.249 216.375ZM206.439 349.518L300.083 295.751L333.559 314.921L246.249 364.944L202.518 389.955L158.788 364.944L71.4772 314.921L104.953 295.751L198.597 349.518C201.161 350.866 204.026 350.866 206.439 349.518ZM243.685 87.1265L101.334 168.749C98.9216 170.097 97.5643 172.643 97.5643 175.339V282.722L64.088 301.892V151.825L197.692 75.295L243.836 48.7864V87.1265H243.685ZM202.669 16.4368L236.145 35.607L56.3974 138.647L22.9209 119.476L202.669 16.4368ZM15.2303 132.506L48.7067 151.676V315.071C48.7067 317.767 50.2148 320.313 52.4767 321.661L194.827 403.284V441.774L15.0795 338.735V132.506H15.2303ZM210.209 441.774V403.284L352.56 321.661C354.972 320.313 356.329 317.767 356.329 315.071V203.346C356.329 200.65 354.822 198.104 352.56 196.756C350.146 195.408 347.282 195.408 345.02 196.756L258.915 246.179V207.689L389.956 132.506V338.585L210.209 441.774Z" fill="#212121"/>
</svg>
