<svg xmlns="http://www.w3.org/2000/svg" width="162" height="38" fill="none" viewBox="0 0 162 38"><path fill="#5e5e5e" fill-rule="evenodd" d="M138.503 12.623c2.971-1.407 6.353-1.291 9.5-2.466 1.398-.53 1.923-2.053 1.167-4.11-1.747-2.76-3.846-2.23-7.401-1.936 3.148 1.349 2.449 5.868-1.632 6.34-3.554.116-4.253-2.173-4.195-4.404.292-4.344 4.487-5.694 8.391-6.046 2.68 0 9.792-.177 11.366 3.522.756 1.879.99 4.345.99 6.634v9.567c.234 1.234 2.391 1.175 2.391-.058v-4.109h2.856c.177 4.93.35 8.335-4.836 9.39-3.206.236-5.536-.351-7.635-2.876-3.439 2.467-5.42 3.522-9.558 2.64-5.536-1.232-6.645-9.567-1.398-12.091m10.661 1.117.058 3.17c-.234 4.812-6.119 5.222-6.76 1.7-.699-3.111 4.779-4.344 6.702-4.87M68.388 4.814c-3.788.178-4.779.823-4.837 2.583l.058 14.849c.116 7.16-5.77 9.038-10.548 9.038-4.664-.116-7.811-1.879-9.443-5.636-.756-3.228-.291-6.514 3.612-7.16 3.905-.762 6.818 5.575 2.45 7.512.176 1.7 4.663 2.288 4.778-1.175V6.812c.058-2.934-3.205-2.23-5.07-2.346V.415h19v4.403zm67.025 15.792v4.109l-13.93.058v-4.051c2.507-.058 3.263-1.175 3.263-2.876 0-5.93.292-10.86-1.458-11.621-2.972-1.527-6.062-.352-6.76 3.406v7.805c0 2.698.756 3.054 2.798 3.228v4.051l-12.997.058v-4.051c2.214-.058 2.913-1.233 3.032-3.286V8.572c-.058-2.115-.991-3.054-3.148-3.228-3.846.293-4.602 1.878-4.487 4.99l.058 7.102c.115 2.698 1.048 3.228 2.855 3.286v3.99H90.418v-3.99c2.157.058 3.788-.058 3.788-2.289V7.458c-.057-2.289-1.631-1.879-3.554-1.937l.058-4.46h10.897v2.698c2.565-3.344 9.094-4.578 13.639-.468 1.105 1.762.875.823 2.214-.058 4.254-3.287 9.616-3.406 12.821 0 1.808 1.82 1.282 4.109 1.34 6.456v7.924c.234 2.877 2.33 2.993 3.789 2.993zM77.946 25.77C60.462 25.535 61.86.589 78.764.473c17.66-.058 18.475 26.001-.818 25.298m1.459-20.78c7.109.178 6.468 16.496.234 16.612-7.87.236-7.927-16.434-.234-16.611m-77.6 9.216c0 .284.022.387.067.755-.006.371-.711.7-1.375 1.588-.56 1.337.702 1.724 1.596 2.311.215-.79.641-1.042 1.18-1.546.484-.194 3.32-.797 4.65.675 1.78 1.798-1.217 3.312-3.689 5.794C2.141 22.24 1.295 20.631 0 23.711c-.01.713.202 1.369.677 1.691l1.06-.749 1.276 1.127-.718.926c1.045 1.556 2.68-.01 3.375-.88l1.337 1.048 2.522-2.372c2.597-1.456 5.376-.388 5.953 2.269l-.042 10.52 2.039-2.043c.14-.252.515-.446.157-1.16.586.41.708.153 1.05-.125l1.203-1.2c.173-.136.461-.698.16-1.101.587.351.933-.043 1.11-.268l1.118-1.23.019-12.654c1.872-.168 3.532 0 4.978-.681 1.654-.991 1.993-.927 3.404-2.521.378-.507.984-1.037.375-2.044.92.497 1.779-.11 2.07-.53l1.58-1.597c.058 0 .75-.926.116-1.843.753.58 1.644-.226 1.852-.623l2.414-2.405c.109.006.657-.646.218-1.356.615.236 1.154-.035 1.218-.294L43.393.708 10.783.692C7.9.837 6.427 3.129 8.503 5.382l5.443 5.381c-2.711.01-7.106-.413-9.776.168-1.484 1.227-2.346 1.44-2.368 2.967l2.612-2.286-.131 1.572-1.66.32-.828.704z" clip-rule="evenodd"/></svg>