<svg width="3071" height="1224" viewBox="0 0 3071 1224" fill="none" xmlns="http://www.w3.org/2000/svg">
<g clip-path="url(#clip0_115_140)">
<mask id="mask0_115_140" style="mask-type:luminance" maskUnits="userSpaceOnUse" x="0" y="0" width="3071" height="1224">
<path d="M3071 0H0V1223.28H3071V0Z" fill="white"/>
</mask>
<g mask="url(#mask0_115_140)">
<path d="M584.411 3.27433C609.952 9.51871 604.987 36.0829 597.258 55.4301C589.683 74.3679 576.273 107.16 557.028 153.804C556.813 154.335 556.429 154.777 555.933 155.056C555.442 155.336 554.868 155.436 554.316 155.34C552.335 155.033 550.134 154.572 547.713 153.958C545.292 153.378 543.142 152.781 541.264 152.167C540.721 152.005 540.255 151.656 539.938 151.181C539.621 150.705 539.472 150.132 539.524 149.556C543.89 99.2942 547.063 64.012 549.044 43.7092C551.04 22.9287 558.82 -2.91885 584.411 3.27433Z" fill="#212121"/>
<path d="M1533.91 538.034C1533.97 537.502 1534.22 537.011 1534.62 536.663C1535.03 536.32 1535.54 536.151 1536.06 536.192L1538.16 536.397C1538.76 536.432 1539.33 536.699 1539.74 537.134C1540.16 537.569 1540.4 538.147 1540.41 538.751C1541.26 562.602 1545.73 580.087 1553.82 591.214C1574.12 619.227 1602.22 628.117 1638.12 617.88C1661.66 611.175 1674.61 595.513 1677.07 571.099C1679.5 547.452 1669.51 527.982 1647.13 512.699C1623.99 496.882 1581.92 476.204 1553.05 449.077C1526.39 423.997 1522.34 383.92 1544.25 355.77C1576.34 314.567 1646.82 321.937 1689.51 342.462C1690.24 342.805 1690.85 343.373 1691.26 344.087C1691.66 344.801 1691.84 345.628 1691.76 346.454L1686.03 413.607C1686.01 413.863 1685.94 414.112 1685.82 414.341C1685.71 414.569 1685.55 414.773 1685.35 414.939C1685.16 415.105 1684.93 415.232 1684.69 415.311C1684.44 415.389 1684.18 415.419 1683.93 415.398L1682.24 415.245C1681.37 415.162 1680.55 414.777 1679.95 414.159C1679.34 413.54 1678.97 412.727 1678.91 411.867C1677.89 395.932 1676.73 386.138 1675.43 382.487C1662.47 346.489 1637.23 331.185 1599.73 336.576C1562.93 341.848 1549.06 383.46 1565.75 413.76C1571.17 423.588 1586.47 437.458 1598.04 443.651C1618.96 454.775 1641.63 468.407 1666.06 484.547C1694.25 503.143 1707.29 528.596 1705.17 560.913C1702.25 604.88 1663.91 627.042 1622.41 630.932C1593.61 633.624 1565.03 627.058 1536.67 611.227C1534.11 609.809 1532.02 607.669 1530.64 605.074C1529.26 602.479 1528.65 599.531 1528.89 596.588L1533.91 538.034Z" fill="#212121"/>
<path d="M2312.97 492.701C2303.2 390.335 2377.11 312.792 2481.21 326.714C2546.63 335.483 2588.15 372.113 2605.79 436.604C2606.99 440.869 2608.24 449.81 2609.53 463.424C2619.31 565.841 2545.35 643.333 2441.29 629.411C2375.84 620.679 2334.3 584.062 2316.66 519.571C2315.5 515.308 2314.27 506.35 2312.97 492.701ZM2349.32 480.776C2350.65 551.612 2380.49 623.525 2463.91 621.989C2547.34 620.505 2574.52 547.518 2573.24 476.63C2571.96 405.792 2542.07 333.879 2458.64 335.415C2375.21 336.899 2348.04 409.887 2349.32 480.776Z" fill="#212121"/>
<path d="M106.257 476.869C106.564 477.039 110.965 477.415 119.462 477.995C122.567 478.234 126.799 479.342 132.155 481.322C152.288 488.726 170.987 505.258 188.252 530.919C218.348 575.653 236.109 618.954 286.064 621.769C286.829 621.805 287.551 622.138 288.083 622.685C288.615 623.238 288.918 623.97 288.93 624.738V626.12C288.93 626.483 288.785 626.836 288.525 627.097C288.266 627.353 287.914 627.502 287.548 627.502H229.455C227.27 627.502 225.107 626.954 223.159 625.915C209.988 618.749 199.684 609.741 192.245 598.89C164.06 557.805 147.749 534.399 143.313 528.667C124.324 503.996 106.461 487.003 78.8735 481.782C78.4574 481.699 78.028 481.709 77.6159 481.812C77.2039 481.915 76.82 482.108 76.492 482.377C76.1639 482.647 75.8998 482.985 75.7186 483.369C75.5374 483.753 75.4437 484.172 75.4442 484.597C75.2395 523.804 75.8025 554.617 77.1333 577.035C77.8841 590.445 79.5732 600.835 82.2004 608.206C83.3736 611.548 85.4951 614.475 88.3097 616.646C91.1243 618.816 94.5126 620.131 98.0673 620.438L114.651 621.871C114.993 621.897 115.325 621.989 115.63 622.148C115.934 622.307 116.205 622.527 116.424 622.793C116.644 623.064 116.808 623.371 116.908 623.704C117.008 624.037 117.041 624.39 117.005 624.738L116.903 626.273C116.877 626.606 116.726 626.918 116.478 627.148C116.232 627.374 115.908 627.502 115.572 627.502H7.26814C6.61658 627.502 5.99168 627.241 5.53093 626.78C5.07019 626.319 4.81135 625.695 4.81135 625.045V623.202C4.81135 622.834 4.95695 622.486 5.2161 622.225C5.47529 621.964 5.82677 621.82 6.19329 621.82C26.9055 621.308 38.3876 616.052 40.6397 606.056C44.1884 590.327 46.0651 572.991 46.2698 554.054C46.85 499.082 46.867 449.195 46.321 404.393C46.0481 379.723 44.4784 362.525 41.6122 352.8C37.8587 340.072 26.2401 334.118 6.75631 334.937C6.4899 334.944 6.22482 334.897 5.97668 334.8C5.7286 334.703 5.50242 334.557 5.31161 334.371C5.1208 334.185 4.96918 333.963 4.86568 333.717C4.76217 333.471 4.7089 333.208 4.70898 332.941V331.047C4.70898 330.64 4.87076 330.249 5.15872 329.962C5.44668 329.673 5.83726 329.512 6.24447 329.512H116.033C116.208 329.512 116.381 329.548 116.542 329.617C116.704 329.686 116.85 329.788 116.974 329.917C117.097 330.045 117.196 330.197 117.262 330.365C117.329 330.532 117.363 330.712 117.363 330.894V332.992C117.365 333.246 117.313 333.497 117.21 333.729C117.108 333.96 116.958 334.168 116.769 334.337C116.58 334.506 116.358 334.634 116.116 334.711C115.874 334.788 115.619 334.813 115.367 334.784C92.6081 332.634 80.3578 342.017 78.6176 362.934C75.6833 398.217 74.7108 434.778 75.7002 472.62C75.7165 472.905 75.7933 473.183 75.9254 473.435C76.0574 473.685 76.2407 473.903 76.4623 474.07C76.6839 474.238 76.9373 474.351 77.2044 474.401C77.4711 474.451 77.7444 474.437 78.0034 474.361C87.4897 471.767 96.7027 467.365 105.642 461.155C139.219 437.918 177.606 395.589 183.134 352.032C185.284 335.5 174.74 336.268 163.684 333.965C163.143 333.847 162.663 333.534 162.338 333.085C162.013 332.636 161.864 332.083 161.922 331.532C161.978 330.981 162.237 330.469 162.647 330.097C163.057 329.724 163.591 329.516 164.145 329.512H265.027C265.462 329.512 265.878 329.69 266.186 330.006C266.493 330.323 266.665 330.753 266.665 331.201V332.839C266.665 333.314 266.476 333.769 266.141 334.105C265.805 334.441 265.349 334.63 264.874 334.63C211.592 334.63 196.851 367.285 171.771 408.385C160.75 426.47 138.809 448.394 105.95 474.156C105.737 474.333 105.571 474.561 105.468 474.817C105.364 475.073 105.326 475.35 105.356 475.621C105.387 475.892 105.486 476.148 105.643 476.366C105.801 476.585 106.012 476.757 106.257 476.869Z" fill="#212121"/>
<path d="M395.287 331.674V331.571C395.362 330.989 395.643 330.454 396.076 330.067C396.51 329.681 397.067 329.47 397.642 329.473L590.707 329.831C591.234 329.831 591.741 330.041 592.114 330.416C592.493 330.79 592.703 331.298 592.703 331.827V388.385C592.703 388.792 592.539 389.183 592.252 389.471C591.966 389.758 591.572 389.92 591.167 389.92H589.632C589.166 389.922 588.721 389.749 588.378 389.436C588.035 389.123 587.825 388.693 587.789 388.231C586.013 369.26 576.851 356.958 560.304 351.328C531.708 341.637 500.742 337.952 467.404 340.272C467.015 340.298 466.651 340.471 466.384 340.757C466.118 341.042 465.97 341.418 465.971 341.808V471.097C465.969 471.487 466.112 471.863 466.368 472.148C466.625 472.433 466.977 472.606 467.353 472.632C491.819 474.714 513.758 472.752 533.177 466.746C551.961 460.911 550.784 447.86 552.831 428.512C552.867 428.147 553.036 427.809 553.302 427.563C553.563 427.317 553.906 427.181 554.264 427.182H556.056C556.46 427.182 556.854 427.343 557.141 427.632C557.427 427.919 557.591 428.31 557.591 428.717V526.426C557.612 527.009 557.422 527.582 557.069 528.048C556.711 528.509 556.199 528.831 555.631 528.959C555.057 529.087 554.464 529.01 553.942 528.744C553.42 528.478 553.01 528.038 552.78 527.5C552.063 525.965 551.72 522.177 551.756 516.138C551.807 497.405 540.598 488.397 521.149 485.889C503.574 483.637 486.172 482.579 468.94 482.716C468.134 482.716 467.361 483.038 466.786 483.612C466.212 484.187 465.882 484.968 465.869 485.787C465.391 508.853 465.681 540.143 466.739 579.656C467.012 589.826 469.059 599.347 472.881 608.217C474.054 610.919 475.975 613.227 478.415 614.87C480.855 616.513 483.713 617.419 486.649 617.481C522.377 618.197 598.64 615.894 603.554 567.935C603.574 567.7 603.651 567.47 603.769 567.26C603.886 567.055 604.05 566.876 604.24 566.733C604.434 566.594 604.654 566.497 604.89 566.446C605.125 566.4 605.366 566.4 605.601 566.451L607.085 566.809C607.346 566.871 607.582 567.014 607.751 567.219C607.92 567.423 608.012 567.674 608.007 567.935V624.544C608.007 624.928 607.93 625.307 607.781 625.66C607.638 626.013 607.423 626.335 607.152 626.607C606.881 626.878 606.558 627.093 606.205 627.241C605.852 627.385 605.473 627.462 605.089 627.462H397.59C396.912 627.462 396.261 627.19 395.781 626.714C395.301 626.233 395.031 625.583 395.031 624.902V623.623C395.03 623.249 395.173 622.886 395.429 622.609C395.686 622.333 396.038 622.164 396.413 622.138C411.052 620.859 426.867 620.194 431.218 605.248C434.391 594.331 436.166 576.416 436.541 551.505C437.121 509.502 437.155 458.745 436.643 399.236C436.473 377.875 434.715 361.752 431.371 350.867C427.174 337.253 412.075 335.615 397.642 334.335C396.981 334.283 396.366 333.976 395.927 333.48C395.488 332.983 395.258 332.336 395.287 331.674Z" fill="#212121"/>
<path d="M834.54 477.591C834.248 477.539 833.946 477.551 833.66 477.627C833.373 477.703 833.107 477.841 832.876 478.031C832.646 478.221 832.462 478.459 832.334 478.727C832.206 478.996 832.139 479.289 832.134 479.587C832.068 495.829 832.083 521.507 832.186 556.619C832.257 575.828 833.926 591.951 837.201 604.987C840.835 619.267 857.624 620.905 872.006 622.082C872.625 622.133 873.199 622.42 873.618 622.886C874.033 623.352 874.263 623.961 874.258 624.59V626.023C874.258 626.402 874.11 626.765 873.839 627.037C873.572 627.303 873.209 627.456 872.825 627.456H764.521C763.897 627.456 763.298 627.211 762.858 626.781C762.418 626.351 762.167 625.762 762.167 625.153V623.771C762.167 623.295 762.346 622.835 762.668 622.481C762.991 622.133 763.436 621.913 763.907 621.877L782.282 619.779C785.593 619.41 788.726 618.126 791.341 616.073C793.957 614.021 795.943 611.277 797.074 608.16C800.488 598.845 802.243 585.501 802.346 568.135C802.622 512.688 802.704 458.09 802.602 404.347C802.535 382.236 801.358 365.704 799.07 354.751C794.719 334.021 778.494 338.167 763.242 333.714C762.73 333.554 762.29 333.215 762.008 332.759C761.721 332.303 761.609 331.76 761.686 331.228C761.767 330.697 762.039 330.211 762.443 329.859C762.853 329.508 763.369 329.314 763.907 329.312C802.601 329.552 837.135 329.773 867.502 329.978C909.165 330.234 958.659 341.955 965.774 389.914C972.581 435.62 939.159 471.858 896.165 477.488C895.765 477.547 895.397 477.725 895.1 478C894.803 478.274 894.598 478.631 894.511 479.024C894.419 479.418 894.455 479.829 894.604 480.204C894.752 480.578 895.013 480.898 895.346 481.122C924.981 499.958 941.564 530.72 960.656 565.832C976.318 594.75 995.819 619.83 1032.36 621.468C1033.17 621.509 1033.92 621.857 1034.48 622.451C1035.03 623.039 1035.34 623.822 1035.33 624.641V626.228C1035.33 626.581 1035.19 626.919 1034.94 627.17C1034.69 627.415 1034.35 627.559 1034 627.559H978.672C972.837 627.559 967.197 625.43 962.805 621.57C952.64 612.526 945.505 603.825 941.411 595.467C933.155 578.612 918.859 554.075 898.519 521.865C883.164 497.57 861.841 482.811 834.54 477.591ZM831.776 340.88L832.441 467.815C832.441 468.195 832.595 468.559 832.861 468.828C833.132 469.097 833.496 469.248 833.875 469.248L869.908 469.043C886.926 468.953 903.213 462.752 915.195 451.8C927.172 440.849 933.861 426.045 933.784 410.643L933.682 397.028C933.646 389.397 931.952 381.848 928.692 374.813C925.431 367.778 920.671 361.395 914.683 356.029C908.689 350.663 901.59 346.418 893.785 343.537C885.984 340.657 877.626 339.198 869.191 339.242L833.158 339.447C832.789 339.46 832.436 339.617 832.18 339.884C831.919 340.152 831.776 340.509 831.776 340.88Z" fill="#212121"/>
<path d="M1109.56 622.6C1111.74 621.709 1116.38 621.064 1123.48 620.655C1144.57 619.426 1159.92 582.216 1166.42 563.636C1202.59 459.767 1222.07 403.363 1224.87 394.423C1229.55 379.375 1232.81 366.921 1234.65 357.059C1238.34 337.251 1224.06 334.743 1208.8 334.692C1208.44 334.692 1208.09 334.621 1207.76 334.482C1207.43 334.343 1207.13 334.139 1206.88 333.883C1206.63 333.626 1206.43 333.322 1206.3 332.986C1206.16 332.651 1206.09 332.291 1206.09 331.928V331.672C1206.12 330.984 1206.41 330.333 1206.92 329.855C1207.43 329.378 1208.1 329.112 1208.8 329.113L1272.17 329.932C1273.03 329.95 1273.86 330.224 1274.56 330.718C1275.25 331.212 1275.78 331.902 1276.06 332.696C1324.54 464.579 1353.45 542.631 1362.76 566.861C1369.83 585.185 1376.02 598.83 1381.34 607.808C1383.08 610.725 1385.42 613.243 1388.2 615.198C1390.97 617.159 1394.13 618.51 1397.46 619.17L1412.97 622.241C1413.65 622.364 1414.26 622.743 1414.68 623.301C1415.09 623.859 1415.29 624.56 1415.23 625.261V625.363C1415.07 625.993 1414.72 626.551 1414.22 626.95C1413.72 627.349 1413.1 627.569 1412.46 627.564L1312.71 627.462C1312.28 627.462 1311.88 627.293 1311.58 626.996C1311.28 626.699 1311.12 626.295 1311.12 625.875V624.135C1311.11 623.736 1311.25 623.347 1311.52 623.035C1311.78 622.727 1312.14 622.518 1312.55 622.446C1324.22 620.706 1340.91 624.391 1340.6 605.811C1340.56 603.298 1340.15 600.816 1339.37 598.441L1319.1 535.844C1318.93 535.281 1318.58 534.789 1318.09 534.441C1317.62 534.093 1317.04 533.899 1316.44 533.899H1190.38C1189.69 533.894 1189.02 534.104 1188.46 534.487C1187.89 534.871 1187.47 535.419 1187.25 536.049C1178.82 558.979 1172.79 580.645 1169.14 601.051C1168.11 606.712 1170.06 612.547 1174.97 618.556C1175.34 619.012 1175.8 619.385 1176.32 619.656C1176.84 619.928 1177.41 620.097 1177.99 620.143L1200.05 622.037C1200.53 622.072 1200.97 622.298 1201.29 622.656C1201.61 623.019 1201.79 623.49 1201.79 623.981V625.824C1201.79 626.285 1201.61 626.725 1201.28 627.052C1200.95 627.38 1200.51 627.564 1200.05 627.564H1110.58C1109.98 627.554 1109.39 627.344 1108.93 626.96C1108.46 626.576 1108.15 626.044 1108.02 625.461C1107.9 624.877 1107.99 624.268 1108.27 623.746C1108.55 623.224 1109.01 622.82 1109.56 622.6ZM1191.81 521.922C1191.72 522.183 1191.69 522.459 1191.73 522.736C1191.77 523.007 1191.88 523.268 1192.04 523.493C1192.19 523.718 1192.41 523.903 1192.65 524.031C1192.9 524.154 1193.17 524.225 1193.45 524.225L1311.63 523.406C1311.91 523.406 1312.18 523.335 1312.42 523.212C1312.66 523.084 1312.88 522.9 1313.04 522.674C1313.2 522.449 1313.3 522.188 1313.34 521.917C1313.38 521.64 1313.36 521.364 1313.27 521.103L1253.03 356.65C1252.9 356.314 1252.67 356.026 1252.38 355.824C1252.08 355.623 1251.73 355.517 1251.37 355.523C1251.01 355.529 1250.66 355.645 1250.37 355.856C1250.08 356.066 1249.86 356.362 1249.75 356.701L1191.81 521.922Z" fill="#212121"/>
<path d="M2013.14 473.085C2065.9 473.085 2094 473.085 2097.44 473.085C2097.74 473.085 2098.03 473.028 2098.3 472.917C2098.58 472.807 2098.82 472.645 2099.03 472.44C2099.24 472.236 2099.41 471.993 2099.52 471.726C2099.64 471.459 2099.69 471.173 2099.69 470.884C2100.1 432.394 2099.54 400.831 2098 376.195C2095.96 343.591 2090.43 336.681 2059.46 334.634C2058.9 334.595 2058.38 334.346 2058 333.937C2057.63 333.529 2057.42 332.991 2057.42 332.433V330.232C2057.42 330.042 2057.49 329.86 2057.63 329.725C2057.76 329.591 2057.94 329.515 2058.13 329.515H2167.92C2168.54 329.482 2169.15 329.684 2169.63 330.082C2170.11 330.481 2170.41 331.044 2170.49 331.661C2170.57 332.277 2170.41 332.9 2170.04 333.404C2169.69 333.908 2169.14 334.256 2168.53 334.378C2163.01 335.811 2155.07 334.992 2149.24 336.937C2138.35 340.52 2132.36 349.374 2131.27 363.501C2128.25 403.219 2128.87 430.295 2128.87 478.561C2128.87 526.829 2128.25 553.905 2131.27 593.675C2132.33 607.765 2138.3 616.605 2149.19 620.188C2155.02 622.132 2162.96 621.314 2168.48 622.747C2169.09 622.864 2169.63 623.212 2170 623.719C2170.36 624.221 2170.52 624.845 2170.44 625.459C2170.36 626.079 2170.05 626.642 2169.58 627.041C2169.1 627.44 2168.49 627.64 2167.87 627.609H2058.08C2057.89 627.609 2057.71 627.532 2057.57 627.399C2057.44 627.261 2057.36 627.082 2057.36 626.893V624.692C2057.36 624.134 2057.57 623.596 2057.95 623.187C2058.33 622.777 2058.85 622.527 2059.41 622.491C2090.38 620.443 2095.91 613.534 2097.95 580.93C2099.52 556.29 2100.1 524.731 2099.69 486.239C2099.68 485.664 2099.44 485.117 2099.02 484.715C2098.59 484.314 2098.03 484.088 2097.44 484.089C2094 484.055 2065.9 484.038 2013.14 484.038C1960.39 484.038 1932.29 484.055 1928.84 484.089C1928.26 484.102 1927.71 484.332 1927.3 484.732C1926.89 485.133 1926.66 485.673 1926.64 486.239C1926.23 524.731 1926.8 556.29 1928.33 580.93C1930.38 613.534 1935.91 620.443 1966.87 622.491C1967.43 622.527 1967.95 622.777 1968.33 623.187C1968.71 623.596 1968.92 624.134 1968.92 624.692V626.893C1968.92 627.082 1968.84 627.261 1968.71 627.399C1968.58 627.532 1968.39 627.609 1968.2 627.609H1858.41C1857.8 627.64 1857.19 627.44 1856.7 627.041C1856.23 626.642 1855.92 626.079 1855.85 625.459C1855.77 624.845 1855.93 624.221 1856.29 623.719C1856.65 623.212 1857.19 622.864 1857.8 622.747C1863.33 621.314 1871.26 622.132 1877.1 620.188C1887.98 616.605 1893.95 607.75 1895.01 593.623C1898.03 553.905 1897.47 526.829 1897.47 478.561C1897.47 430.295 1898.03 403.219 1895.06 363.501C1893.97 349.374 1887.98 340.52 1877.1 336.937C1871.26 334.992 1863.33 335.811 1857.8 334.378C1857.19 334.256 1856.65 333.908 1856.29 333.404C1855.93 332.9 1855.77 332.277 1855.85 331.661C1855.92 331.044 1856.23 330.481 1856.7 330.082C1857.19 329.684 1857.8 329.482 1858.41 329.515H1968.2C1968.39 329.515 1968.58 329.591 1968.71 329.725C1968.84 329.86 1968.92 330.042 1968.92 330.232V332.433C1968.92 332.991 1968.71 333.529 1968.33 333.937C1967.95 334.346 1967.43 334.595 1966.87 334.634C1935.91 336.681 1930.38 343.591 1928.33 376.195C1926.8 400.831 1926.23 432.394 1926.64 470.884C1926.66 471.45 1926.89 471.99 1927.3 472.39C1927.71 472.79 1928.26 473.021 1928.84 473.033C1932.29 473.068 1960.39 473.085 2013.14 473.085Z" fill="#212121"/>
<path d="M2757.25 329.473C2814.74 329.609 2851.97 329.797 2868.93 330.036C2920.57 330.752 2973.19 345.698 2977.34 405.685C2979.79 440.643 2969.3 465.723 2941.4 485.684C2910.08 508.102 2863.91 504.724 2828.65 491.058C2828.33 490.934 2827.99 490.888 2827.65 490.926C2827.31 490.964 2826.98 491.084 2826.7 491.275C2826.42 491.467 2826.19 491.724 2826.03 492.025C2825.87 492.327 2825.78 492.663 2825.78 493.003C2825.82 521.768 2826.34 549.883 2827.37 577.353C2827.88 591.341 2830.1 602.602 2834.02 611.134C2835.16 613.565 2836.92 615.654 2839.12 617.189C2841.32 618.725 2843.89 619.656 2846.56 619.886L2865.91 621.524C2866.41 621.565 2866.88 621.79 2867.22 622.159C2867.56 622.533 2867.75 623.019 2867.75 623.52V625.67C2867.75 626.161 2867.56 626.627 2867.21 626.975C2866.87 627.318 2866.4 627.513 2865.91 627.513H2756.68C2756.22 627.513 2755.78 627.328 2755.46 627.006C2755.13 626.678 2754.94 626.233 2754.94 625.772V623.93C2754.94 623.372 2755.16 622.84 2755.56 622.446C2755.95 622.051 2756.48 621.831 2757.04 621.831C2776.15 621.693 2787.38 616.677 2790.72 606.783C2794.06 596.854 2796.01 578.853 2796.56 552.785C2796.76 544.017 2796.81 493.686 2796.71 401.795C2796.67 383.949 2794.97 367.229 2791.59 351.635C2790.33 345.937 2786.1 341.62 2778.9 338.686C2774.05 336.706 2766.53 335.239 2756.33 334.284C2756.06 334.271 2755.81 334.157 2755.63 333.967C2755.46 333.776 2755.35 333.523 2755.35 333.26V331.366C2755.35 330.864 2755.55 330.383 2755.91 330.027C2756.26 329.672 2756.75 329.473 2757.25 329.473ZM2826.04 343.753V476.266C2826.04 477.29 2826.33 478.289 2826.89 479.143C2827.44 479.998 2828.23 480.67 2829.16 481.078C2902.15 513.374 2959.06 471.25 2942.94 391.916C2932.45 340.477 2870.72 336.536 2829.26 340.17C2828.38 340.259 2827.55 340.676 2826.96 341.338C2826.36 342.001 2826.03 342.862 2826.04 343.753Z" fill="#212121"/>
<path d="M2386.27 877.236C2386.27 876.837 2386.14 876.453 2385.88 876.141C2385.63 875.834 2385.29 875.619 2384.9 875.537C2384.51 875.45 2384.1 875.501 2383.75 875.68C2383.39 875.864 2383.11 876.156 2382.94 876.519C2369.29 905.284 2359.7 924.683 2354.18 934.715C2347.68 946.436 2331.81 954.062 2323.93 938.912C2315.74 923.147 2316.61 902.725 2318.09 883.992C2318.12 883.516 2317.98 883.05 2317.72 882.656C2317.45 882.262 2317.06 881.96 2316.61 881.807C2316.16 881.653 2315.68 881.648 2315.22 881.791C2314.77 881.935 2314.38 882.226 2314.1 882.61C2294.48 912.092 2276.36 942.873 2259.74 974.945C2257.39 979.485 2254.64 982.162 2251.5 982.981C2250.01 983.38 2248.46 983.365 2246.96 982.945C2245.47 982.53 2244.09 981.717 2242.93 980.575C2241.78 979.439 2240.89 978.011 2240.34 976.414C2239.79 974.817 2239.6 973.102 2239.78 971.413C2242.27 947.941 2247.85 922.963 2256.52 896.481C2256.65 896.169 2256.67 895.816 2256.55 895.493C2256.44 895.171 2256.22 894.899 2255.92 894.73C2255.62 894.567 2255.26 894.521 2254.93 894.597C2254.6 894.674 2254.31 894.869 2254.11 895.15L2169.05 995.879C2168.18 996.908 2167.54 998.116 2167.17 999.421C2166.79 1000.73 2166.7 1002.1 2166.9 1003.45C2172.87 1044.68 2162.19 1079.79 2134.86 1108.79C2128.82 1115.19 2111.36 1126.65 2101.54 1120.41C2071.9 1101.47 2131.58 1020.91 2146.73 1000.64C2147.19 1000.02 2147.51 999.303 2147.65 998.54C2147.79 997.778 2147.76 996.99 2147.55 996.237C2145.54 988.493 2143.29 982.622 2140.79 978.63C2120.93 947.357 2102.61 922.687 2094.63 891.465C2094.54 891.122 2094.37 890.805 2094.12 890.554C2093.88 890.298 2093.57 890.119 2093.22 890.032C2092.88 889.94 2092.52 889.945 2092.18 890.047C2091.84 890.144 2091.54 890.334 2091.3 890.595C2069.7 913.085 2045.71 923.373 2019.34 921.458C2018.52 921.397 2017.71 921.581 2017.01 921.98C2016.31 922.385 2015.74 922.984 2015.39 923.71C1997.89 959.539 1951.16 963.275 1945.48 917.415C1945.44 917.139 1945.31 916.877 1945.13 916.663C1944.94 916.453 1944.69 916.304 1944.42 916.233C1944.15 916.161 1943.86 916.171 1943.59 916.263C1943.32 916.355 1943.09 916.524 1942.92 916.75C1922.6 945.207 1901.66 973.154 1871.11 987.792C1869.44 988.606 1867.67 989.159 1865.84 989.43C1790.85 1000.95 1815.98 869.866 1856.11 844.376C1870.14 835.522 1882.88 844.069 1884.88 859.936C1885.56 865.157 1884.33 872.425 1881.19 881.74C1880.91 882.59 1880.45 883.363 1879.84 884.013C1879.22 884.668 1878.47 885.175 1877.64 885.512C1876.81 885.845 1875.91 885.999 1875.02 885.958C1874.12 885.917 1873.24 885.681 1872.44 885.272L1871.11 884.606C1869.34 883.711 1867.96 882.201 1867.21 880.363C1866.46 878.521 1866.39 876.468 1867.01 874.574C1868.59 869.799 1869.25 864.885 1869.01 859.834C1868.98 859.266 1868.79 858.713 1868.48 858.242C1868.16 857.771 1867.71 857.392 1867.2 857.162C1866.68 856.926 1866.11 856.845 1865.56 856.916C1865 856.993 1864.48 857.223 1864.05 857.582C1840.81 876.468 1830.67 918.95 1834.21 947.664C1836.82 969.008 1850.43 982.776 1871.31 970.39C1882.4 963.807 1893.23 954.185 1903.81 941.522C1923.3 918.254 1941.11 893.43 1957.25 867.05C1960.12 862.342 1965.59 858.436 1973.68 855.33C1975.48 854.598 1977.01 853.333 1978.08 851.695C1988.16 835.675 2003.47 830.403 2015.39 848.676C2023.48 861.164 2023.17 886.807 2022 902.981C2021.94 903.723 2022.17 904.46 2022.65 905.039C2023.12 905.622 2023.81 906.001 2024.56 906.103C2034.55 907.332 2046.05 903.99 2059.05 896.071C2076.01 885.768 2088.16 873.484 2095.5 859.219C2102.15 846.219 2107.3 837.825 2110.95 834.037C2125.86 818.549 2145.01 812.678 2168.38 816.43C2170.8 816.824 2173 818.048 2174.62 819.89C2176.22 821.733 2177.13 824.077 2177.18 826.513L2177.29 828.919C2177.31 829.702 2177.15 830.48 2176.82 831.186C2176.48 831.893 2175.98 832.512 2175.36 832.993C2174.74 833.469 2174.02 833.797 2173.25 833.945C2172.49 834.088 2171.69 834.053 2170.94 833.833C2149.2 827.691 2132.13 832.435 2119.71 848.061C2086.39 890.134 2139.77 935.329 2158.09 978.988C2158.26 979.367 2158.51 979.695 2158.84 979.946C2159.16 980.196 2159.54 980.36 2159.95 980.422C2160.35 980.483 2160.77 980.442 2161.15 980.299C2161.53 980.155 2161.87 979.915 2162.14 979.603C2191.07 944.87 2223.37 906.871 2259.03 865.617C2261.07 863.232 2263.48 861.236 2266.24 859.629C2267.4 858.969 2268.31 857.924 2268.8 856.66L2281.55 825.08C2281.93 824.133 2282.51 823.279 2283.24 822.567C2283.97 821.856 2284.85 821.298 2285.8 820.939C2286.76 820.581 2287.78 820.417 2288.8 820.474C2289.82 820.525 2290.82 820.786 2291.73 821.241L2292.19 821.446C2294.03 822.27 2295.47 823.795 2296.19 825.684C2296.91 827.573 2296.85 829.676 2296.03 831.529C2282.69 861.83 2271.57 894.997 2262.66 931.03C2262.61 931.199 2262.61 931.378 2262.67 931.547C2262.72 931.71 2262.82 931.859 2262.96 931.971C2263.1 932.084 2263.28 932.156 2263.45 932.181C2263.64 932.202 2263.82 932.176 2263.99 932.105C2264.95 931.628 2265.67 930.999 2266.14 930.211C2284.71 897.796 2301.58 871.744 2316.76 852.054C2317.67 850.882 2318.86 849.95 2320.22 849.351C2321.57 848.752 2323.06 848.502 2324.54 848.625C2326.02 848.742 2327.45 849.234 2328.69 850.047C2329.94 850.861 2330.95 851.977 2331.66 853.282C2333.16 856.082 2333.74 859.803 2333.4 864.44C2331.72 888.875 2332.2 909.313 2334.83 925.758C2334.94 926.5 2335.3 927.181 2335.83 927.708C2336.36 928.23 2337.05 928.573 2337.79 928.675C2338.53 928.778 2339.28 928.639 2339.94 928.281C2340.6 927.923 2341.12 927.36 2341.43 926.679C2356.14 894.608 2368.82 869.953 2379.46 852.719C2381.29 849.776 2384.13 847.626 2387.38 846.746C2390.63 845.866 2394.02 846.321 2396.81 848.01C2398.11 848.763 2399.34 850.401 2400.5 852.924C2401.07 854.275 2401.37 855.724 2401.37 857.172C2401.32 867.511 2400.8 892.847 2409.51 906.308C2411.14 908.831 2413.6 910.715 2416.46 911.647C2419.32 912.578 2422.41 912.501 2425.22 911.426C2442.83 904.742 2458.85 892.422 2473.28 874.472C2474.7 872.752 2475.74 870.766 2476.35 868.637C2483.31 844.172 2504.2 797.799 2530.5 790.941C2533.48 790.163 2536.64 790.475 2539.38 791.821C2542.13 793.167 2544.28 795.455 2545.45 798.26C2554.66 820.576 2509.36 864.543 2493.91 876.622C2490.77 879.053 2488.49 882.385 2487.36 886.142C2481.79 904.568 2479.37 921.356 2480.09 936.506C2481.16 958.771 2498.46 974.28 2519.65 959.488C2550.53 937.888 2579.6 906.277 2606.87 864.645C2607.95 862.951 2608.75 861.067 2609.22 859.066L2640.29 722.099C2640.37 721.756 2640.37 721.393 2640.29 721.05C2640.2 720.702 2640.04 720.38 2639.82 720.108C2639.59 719.837 2639.3 719.622 2638.97 719.479C2638.65 719.335 2638.29 719.269 2637.94 719.284L2491.86 723.328C2489.52 723.384 2487.25 722.519 2485.55 720.917C2483.86 719.315 2482.87 717.109 2482.8 714.78L2482.75 712.579C2482.73 711.934 2482.84 711.294 2483.07 710.691C2483.29 710.087 2483.64 709.529 2484.08 709.063C2484.52 708.592 2485.05 708.213 2485.64 707.947C2486.23 707.681 2486.86 707.533 2487.51 707.512L2643.57 703.213C2644.38 703.182 2645.14 702.885 2645.76 702.378C2646.39 701.872 2646.82 701.176 2647 700.398L2667.88 608.472C2668.12 607.387 2668.61 606.364 2669.29 605.483C2669.96 604.598 2670.82 603.876 2671.81 603.359C2672.79 602.842 2673.87 602.545 2674.98 602.494C2676.09 602.438 2677.19 602.627 2678.22 603.047L2680.47 603.968C2681.63 604.439 2682.58 605.299 2683.17 606.404C2683.75 607.515 2683.92 608.79 2683.64 610.008L2662.86 701.524C2662.82 701.749 2662.82 701.984 2662.87 702.204C2662.92 702.424 2663.03 702.634 2663.18 702.803C2663.32 702.977 2663.5 703.115 2663.7 703.202C2663.91 703.295 2664.13 703.33 2664.35 703.315C2735.19 700.654 2805.46 699.768 2875.17 700.653C2897.69 700.961 2921.19 702.394 2945.65 704.953C2948.15 705.224 2950.46 706.391 2952.16 708.234C2953.87 710.081 2954.84 712.477 2954.92 714.985L2954.97 716.316C2954.98 717.073 2954.83 717.825 2954.53 718.522C2954.22 719.213 2953.77 719.832 2953.2 720.328C2952.62 720.83 2951.95 721.193 2951.22 721.403C2950.49 721.613 2949.73 721.659 2948.98 721.536C2932.46 718.808 2915.86 717.36 2899.18 717.186C2826.87 716.571 2747.28 717.119 2660.41 718.824C2659.61 718.844 2658.85 719.12 2658.23 719.612C2657.61 720.098 2657.17 720.779 2656.98 721.536C2622.48 865.807 2592.55 1007.58 2567.2 1146.87C2564.54 1161.51 2562.6 1175.02 2561.37 1187.41C2561.26 1188.56 2561.43 1189.73 2561.87 1190.8C2562.3 1191.86 2562.99 1192.81 2563.87 1193.55L2565.21 1194.68C2566.13 1195.47 2566.83 1196.49 2567.22 1197.65C2567.6 1198.8 2567.67 1200.04 2567.41 1201.23C2565.63 1209.21 2562.44 1215.29 2557.84 1219.45C2556.92 1220.28 2555.83 1220.89 2554.65 1221.24C2553.47 1221.6 2552.24 1221.69 2551.05 1221.5C2549.86 1221.31 2548.73 1220.86 2547.77 1220.16C2546.81 1219.47 2546.03 1218.56 2545.5 1217.5C2543.66 1213.82 2543.03 1209.35 2543.61 1204.09C2546.95 1173.32 2553.62 1131.74 2563.62 1079.36C2573.61 1026.98 2585.69 968.429 2599.86 903.698C2599.89 903.549 2599.88 903.391 2599.82 903.253C2599.75 903.114 2599.64 903.002 2599.5 902.935C2599.36 902.869 2599.2 902.853 2599.05 902.889C2598.9 902.925 2598.77 903.012 2598.68 903.135C2579.38 928.317 2535.52 981.343 2501.84 980.575C2464.22 979.705 2460.64 934.561 2466.47 906.462C2466.5 906.257 2466.47 906.042 2466.38 905.853C2466.28 905.668 2466.14 905.51 2465.95 905.412C2465.77 905.31 2465.56 905.269 2465.35 905.295C2465.14 905.315 2464.94 905.402 2464.78 905.54C2425.83 941.318 2388.06 934.203 2386.27 877.236ZM2529.25 809.464C2528.56 808.957 2526.56 810.298 2523.7 813.185C2520.83 816.077 2517.34 820.274 2513.98 824.865C2512.32 827.138 2510.74 829.441 2509.33 831.637C2507.93 833.827 2506.72 835.88 2505.79 837.661C2504.85 839.447 2504.21 840.932 2503.88 842.032C2503.57 843.132 2503.58 843.829 2503.91 844.074C2504.6 844.581 2506.6 843.245 2509.47 840.353C2512.33 837.467 2515.82 833.264 2519.18 828.673C2520.84 826.401 2522.43 824.103 2523.83 821.907C2525.24 819.711 2526.44 817.664 2527.38 815.877C2528.31 814.096 2528.96 812.612 2529.28 811.511C2529.6 810.411 2529.59 809.715 2529.25 809.464ZM2007.46 894.894L2003.31 857.94C2003.21 856.998 2002.84 856.102 2002.24 855.37C2001.64 854.639 2000.83 854.096 1999.92 853.809C1999.02 853.523 1998.04 853.502 1997.12 853.753C1996.19 854.009 1995.36 854.521 1994.72 855.227C1982.84 868.535 1990.26 887.831 2003.67 897.146C2004.05 897.418 2004.5 897.576 2004.97 897.597C2005.44 897.617 2005.9 897.499 2006.3 897.259C2006.7 897.018 2007.03 896.67 2007.24 896.251C2007.44 895.831 2007.52 895.36 2007.46 894.894ZM1973.73 877.85C1973.39 877.395 1972.94 877.031 1972.43 876.796C1971.91 876.56 1971.35 876.458 1970.78 876.499C1970.21 876.54 1969.67 876.724 1969.19 877.031C1968.71 877.338 1968.32 877.763 1968.05 878.26C1957.27 898.359 1956.74 915.368 1966.46 929.289C1968.48 932.171 1971.47 934.218 1974.9 935.053C1978.33 935.892 1981.95 935.462 1985.09 933.845C1990.86 930.876 1996.11 925.625 2000.86 918.08C2001.28 917.384 2001.42 916.555 2001.24 915.762C2001.05 914.968 2000.57 914.277 1999.89 913.832C1990.62 907.946 1978.18 896.993 1975.78 886.347C1974.59 880.921 1973.9 878.091 1973.73 877.85ZM2152.77 1023.88C2152.79 1023.53 2152.68 1023.19 2152.48 1022.9C2152.28 1022.62 2151.99 1022.41 2151.66 1022.3C2151.33 1022.2 2150.97 1022.21 2150.65 1022.33C2150.32 1022.44 2150.04 1022.66 2149.85 1022.95C2134.4 1045.07 2114.18 1074.75 2108.6 1101.93C2108.45 1102.57 2108.51 1103.24 2108.76 1103.84C2109.02 1104.44 2109.45 1104.96 2110.01 1105.3C2110.57 1105.65 2111.23 1105.82 2111.9 1105.78C2112.56 1105.75 2113.2 1105.51 2113.72 1105.1C2139.62 1085.14 2152.63 1058.07 2152.77 1023.88Z" fill="#212121"/>
<path d="M2685.58 826.554C2692.1 823.145 2695.47 816.752 2693.13 812.268C2690.79 807.785 2683.61 806.909 2677.09 810.313C2670.58 813.717 2667.2 820.115 2669.54 824.598C2671.89 829.082 2679.07 829.957 2685.58 826.554Z" fill="#212121"/>
<path d="M3071 866.22C3071 867.106 3071 867.976 3071 868.831C3039 906.809 3006.51 945.125 2973.55 983.788C2969.01 989.112 2965.24 994.742 2962.24 1000.68C2961.67 1001.81 2961.46 1003.09 2961.63 1004.36C2967.53 1048.07 2955.52 1084.07 2925.59 1112.36C2911.88 1125.36 2885 1128.18 2888.18 1100.38C2891.91 1067.58 2920.83 1028.42 2941.36 1000.53C2941.88 999.809 2942.23 998.98 2942.39 998.104C2942.53 997.224 2942.48 996.318 2942.23 995.458C2939.87 987.709 2938.13 982.934 2937.01 981.127C2920.83 955.075 2900.15 926.821 2890.84 897.545C2890.72 897.156 2890.49 896.807 2890.18 896.546C2889.87 896.285 2889.49 896.116 2889.08 896.065C2888.68 896.009 2888.26 896.076 2887.88 896.244C2887.51 896.413 2887.18 896.69 2886.95 897.033C2866.63 927.845 2819.49 1000.06 2777.26 989.47C2747.78 982.099 2746.19 941.204 2750.44 915.971C2750.51 915.633 2750.47 915.285 2750.32 914.978C2750.16 914.67 2749.91 914.43 2749.59 914.292C2749.28 914.154 2748.93 914.128 2748.6 914.215C2748.27 914.307 2747.98 914.512 2747.78 914.793C2734.32 931.53 2696.04 969.815 2672.59 963.469C2640.71 954.819 2656.68 885.824 2664.3 862.33C2664.6 861.414 2665.08 860.57 2665.72 859.853C2666.37 859.137 2667.16 858.558 2668.04 858.164C2668.92 857.77 2669.88 857.56 2670.85 857.555C2671.82 857.55 2672.78 857.744 2673.67 858.133L2673.98 858.236C2675.81 859.024 2677.3 860.457 2678.17 862.264C2679.04 864.071 2679.22 866.128 2678.68 868.063C2671.59 893.378 2668.59 915.254 2669.68 933.68C2669.98 938.931 2670.89 942.463 2672.39 944.275C2674.05 946.312 2676.38 947.694 2678.97 948.18C2681.55 948.666 2684.22 948.226 2686.52 946.936C2718.97 928.92 2743.53 897.8 2766.41 864.992C2777.11 849.637 2802.65 825.325 2813.91 853.22C2816.54 859.669 2815.96 869.035 2812.17 881.319C2811.9 882.184 2811.45 882.988 2810.87 883.679C2810.28 884.375 2809.56 884.943 2808.75 885.353C2807.94 885.762 2807.05 886.008 2806.15 886.069C2805.24 886.131 2804.33 886.013 2803.47 885.721L2803.21 885.619C2801.35 884.948 2799.78 883.648 2798.78 881.944C2797.78 880.239 2797.41 878.243 2797.74 876.303L2800.3 861.665C2800.43 860.943 2800.35 860.196 2800.06 859.52C2799.78 858.845 2799.3 858.261 2798.69 857.852C2798.09 857.437 2797.37 857.212 2796.64 857.197C2795.91 857.186 2795.18 857.386 2794.56 857.775C2771.07 872.209 2750.24 951.236 2775.27 970.685C2807.92 996.124 2873.69 890.174 2886.8 868.831C2887.65 867.469 2888.33 866.005 2888.84 864.48C2900.41 831.057 2923.39 811.761 2960.35 815.702C2962.91 815.974 2965.33 816.967 2967.35 818.558C2969.37 820.155 2970.9 822.285 2971.76 824.711L2971.81 824.864C2972.15 825.832 2972.27 826.865 2972.14 827.889C2972.01 828.908 2971.65 829.885 2971.08 830.74C2970.51 831.595 2969.74 832.306 2968.85 832.813C2967.95 833.32 2966.95 833.611 2965.93 833.668C2958.3 834.077 2949.9 828.549 2939 832.081C2914.09 840.199 2902.51 857.944 2904.25 885.312C2904.69 892.273 2909.45 903.922 2918.53 920.27C2924.2 930.507 2934.16 946.696 2948.42 968.843C2949.68 970.788 2950.67 973.122 2951.39 975.855C2951.86 977.698 2952.31 978.788 2952.72 979.131C2953.05 979.423 2953.44 979.648 2953.86 979.791C2954.29 979.934 2954.73 979.991 2955.18 979.955C2955.62 979.924 2956.05 979.801 2956.45 979.597C2956.85 979.392 2957.19 979.11 2957.48 978.772C2991.57 938.097 3024.57 899.336 3056.47 862.484C3061.02 857.263 3067.58 860.948 3071 866.22ZM2947.76 1023.61C2947.76 1023.25 2947.64 1022.9 2947.43 1022.61C2947.22 1022.32 2946.93 1022.1 2946.59 1022C2946.25 1021.9 2945.89 1021.91 2945.56 1022.03C2945.24 1022.16 2944.97 1022.39 2944.79 1022.69C2929.23 1044.9 2908.86 1074.74 2903.17 1102.07C2903.04 1102.72 2903.11 1103.39 2903.37 1104C2903.64 1104.61 2904.08 1105.12 2904.64 1105.47C2905.21 1105.82 2905.87 1105.98 2906.53 1105.94C2907.19 1105.9 2907.83 1105.66 2908.34 1105.25C2934.41 1085.21 2947.55 1058 2947.76 1023.61Z" fill="#212121"/>
</g>
</g>
<defs>
<clipPath id="clip0_115_140">
<rect width="3071" height="1223.28" fill="white"/>
</clipPath>
</defs>
</svg>
