<svg width="861" height="861" viewBox="0 0 861 861" fill="none" xmlns="http://www.w3.org/2000/svg">
<path d="M150.64 409.43C150.614 409.427 150.588 409.433 150.565 409.447C150.543 409.46 150.525 409.48 150.514 409.505C150.503 409.53 150.5 409.558 150.505 409.586C150.509 409.613 150.522 409.639 150.54 409.66C162.134 421.507 171.587 434.93 178.9 449.93C184.367 461.143 189.114 471.97 193.14 482.41C204.24 511.2 213.07 534.14 226.84 558.35C232.387 568.11 237.87 575.31 243.29 579.95C253.05 588.31 264.954 592.72 279 593.18C284.71 593.36 291.75 593.26 297.73 592.25C320.09 588.47 341.11 579.92 360.7 568.59C360.771 568.549 360.851 568.529 360.932 568.533C361.013 568.536 361.092 568.562 361.159 568.608C361.226 568.654 361.279 568.718 361.311 568.793C361.343 568.868 361.353 568.95 361.34 569.03L359.61 580.44C359.538 580.921 359.364 581.382 359.1 581.79C358.754 582.31 357.797 583.117 356.23 584.21C331.84 601.17 303.09 614.82 273.76 618.53C270.074 618.997 265.317 619.197 259.49 619.13C217.7 618.65 192.48 589.31 178.99 553.01C169.817 528.323 159.984 505.24 149.49 483.76C139.31 462.92 126.89 441.33 112.08 423.67C108.92 419.91 105.667 416.557 102.32 413.61C102.263 413.56 102.196 413.523 102.123 413.503C102.051 413.482 101.974 413.477 101.899 413.49C101.825 413.502 101.754 413.531 101.692 413.574C101.629 413.618 101.578 413.674 101.54 413.74C91.9602 430.96 82.8235 448.283 74.1302 465.71C58.8202 496.37 53.7102 506 37.5202 537.19C37.3997 537.422 37.2172 537.616 36.9929 537.75C36.7687 537.884 36.5115 537.954 36.2502 537.95C34.2435 537.91 32.1802 537.563 30.0602 536.91C18.0869 533.237 13.3869 524.917 15.9602 511.95C16.7602 507.93 19.0602 503.97 21.0702 500.08C26.6502 489.3 31.4702 480.3 36.4202 470.16C58.6469 424.54 83.1368 380.62 109.89 338.4C121.944 319.387 134.597 301.127 147.85 283.62C157.8 270.48 179.46 268.11 195.15 269.18C195.203 269.183 195.254 269.201 195.298 269.232C195.341 269.263 195.375 269.305 195.394 269.355C195.414 269.404 195.42 269.458 195.41 269.51C195.401 269.563 195.376 269.611 195.34 269.65C188.127 277.73 181.32 286.24 174.92 295.18C153.38 325.26 133.92 357.26 115.48 389.28C115.457 389.32 115.444 389.366 115.441 389.412C115.439 389.458 115.447 389.505 115.465 389.548C115.484 389.59 115.512 389.628 115.547 389.658C115.583 389.688 115.625 389.709 115.67 389.72C116.504 389.92 117.444 390.023 118.49 390.03C155.43 390.31 191.91 380.55 220.95 358.88C233.497 349.52 244.574 337.71 254.18 323.45C271.11 298.33 284.32 261.62 255.68 238.24C241.7 226.82 222.42 220.69 204.39 219.85C185.21 218.96 166.95 222.07 149.14 229.03C93.1002 250.94 54.5402 301.73 49.9602 361.95C49.9535 362.031 49.9296 362.109 49.8904 362.18C49.8511 362.25 49.7973 362.311 49.7326 362.359C49.668 362.406 49.5941 362.439 49.516 362.455C49.4379 362.471 49.3574 362.469 49.2802 362.45L38.7802 359.94C38.6057 359.9 38.4493 359.803 38.3354 359.664C38.2214 359.525 38.1563 359.351 38.1502 359.17C36.7902 317.01 55.0302 276.66 86.6502 248.82C105.17 232.51 126.98 220.9 150.29 212.64C159.524 209.367 168.837 206.987 178.23 205.5C225.97 197.91 282.01 204.8 298.3 258.43C315.46 314.89 279.23 368.64 229.55 392.79C204.63 404.91 178.327 410.457 150.64 409.43Z" fill="#027120"/>
<path d="M454.509 474.62C446.922 482.513 438.849 489.48 430.289 495.52C418.949 503.52 405.289 510.48 391.269 509.98C382.176 509.66 376.162 505.647 373.229 497.94C371.839 494.3 371.619 489.94 371.309 485.54C371.301 485.439 371.266 485.343 371.208 485.26C371.15 485.178 371.07 485.113 370.978 485.072C370.886 485.031 370.784 485.016 370.684 485.028C370.584 485.04 370.489 485.078 370.409 485.14C365.269 489.193 360.226 492.99 355.279 496.53C344.549 504.21 327.249 513.5 313.759 509.04C300.419 504.64 303.119 486.17 304.409 475.87C304.417 475.801 304.402 475.731 304.368 475.671C304.334 475.611 304.281 475.563 304.218 475.534C304.155 475.505 304.084 475.497 304.016 475.511C303.948 475.524 303.886 475.559 303.839 475.61C288.619 491.85 264.519 512.39 240.699 510.01C226.809 508.63 222.139 495.61 223.199 483.22C224.032 473.473 226.436 464.283 230.409 455.65C244.649 424.65 268.899 396.77 299.469 381.51C305.762 378.363 312.589 376.223 319.949 375.09C330.516 373.463 340.019 375.277 348.459 380.53C348.621 380.629 348.809 380.677 348.998 380.666C349.188 380.655 349.37 380.587 349.519 380.47C358.086 373.683 367.499 372.617 377.759 377.27C379.852 378.217 381.669 379.41 383.209 380.85C383.335 380.965 383.411 381.125 383.42 381.295C383.43 381.465 383.372 381.632 383.259 381.76C378.626 386.993 374.576 392.697 371.109 398.87C360.196 418.33 350.832 437.717 343.019 457.03C340.339 463.643 338.336 469.22 337.009 473.76C336.099 476.87 334.929 482.58 338.289 484.4C340.729 485.71 347.129 481.8 349.819 480.31C358.659 475.39 366.949 469.42 374.689 462.4C375.836 461.353 376.756 460.033 377.449 458.44C389.356 431.053 407.499 408.617 431.879 391.13C439.379 385.757 448.116 381.34 458.089 377.88C471.069 373.38 485.259 372.3 497.459 378.9C497.5 378.922 497.544 378.936 497.59 378.94C497.636 378.944 497.683 378.939 497.727 378.925C497.772 378.912 497.814 378.889 497.85 378.859C497.886 378.829 497.917 378.792 497.939 378.75C528.606 319.03 547.466 282.38 554.519 268.8C557.599 262.867 562.232 258.217 568.419 254.85C571.392 253.237 575.676 251.993 581.269 251.12C590.302 249.707 596.319 248.723 599.319 248.17C599.383 248.158 599.448 248.164 599.508 248.188C599.568 248.212 599.62 248.253 599.658 248.305C599.696 248.358 599.718 248.42 599.722 248.485C599.725 248.549 599.711 248.614 599.679 248.67C580.986 280.55 562.889 313.293 545.389 346.9C539.262 358.667 532.202 373.453 524.209 391.26C515.656 410.333 505.876 431.997 494.869 456.25C491.899 462.79 489.509 469.53 486.939 477.18C486.232 479.28 486.189 481.197 486.809 482.93C487.026 483.528 487.438 484.035 487.979 484.369C488.52 484.703 489.158 484.844 489.789 484.77C491.309 484.59 493.029 484.06 494.949 483.18C502.436 479.76 510.352 474.353 518.699 466.96C527.192 459.44 533.129 454.04 536.509 450.76C537.482 449.82 538.509 448.007 539.589 445.32C549.316 421.233 559.846 397.73 571.179 374.81C571.217 374.739 571.225 374.655 571.2 374.576C571.176 374.498 571.122 374.431 571.049 374.39C565.062 370.97 559.766 366.717 555.159 361.63C555.114 361.579 555.08 361.518 555.061 361.452C555.041 361.386 555.037 361.317 555.047 361.25C555.058 361.183 555.083 361.119 555.122 361.064C555.16 361.008 555.21 360.963 555.269 360.93L560.819 357.73C561.005 357.624 561.214 357.568 561.427 357.568C561.639 357.568 561.847 357.624 562.029 357.73L574.819 365.11C574.94 365.18 575.073 365.224 575.212 365.241C575.35 365.257 575.49 365.245 575.624 365.206C575.758 365.167 575.882 365.101 575.989 365.012C576.097 364.923 576.185 364.814 576.249 364.69C582.209 353.077 589.536 339.673 598.229 324.48C606.596 309.847 615.732 296.827 625.639 285.42C639.719 269.2 657.669 259.08 679.589 265.13C690.379 268.11 699.119 276.63 699.459 288.24C699.939 304.27 689.779 320.6 679.519 332.8C671.279 342.6 661.972 351.61 651.599 359.83C636.929 371.46 619.569 380.57 600.779 381.38C600.523 381.39 600.274 381.468 600.059 381.607C599.844 381.746 599.671 381.941 599.559 382.17C586.439 409.117 574.369 436.92 563.349 465.58C562.322 468.26 561.416 471.543 560.629 475.43C558.039 488.22 572.669 480.88 576.789 478.29C582.662 474.597 587.776 471.047 592.129 467.64C597.899 463.13 599.199 453.75 601.429 448.19C609.019 429.23 622.289 412.24 637.629 398.88C651.579 386.74 669.349 377.03 687.999 374.47C695.879 373.38 708.899 373.78 715.099 378.81C719.859 382.663 721.772 388.14 720.839 395.24C718.852 410.32 711.862 422.957 699.869 433.15C685.289 445.54 666.839 452.85 647.579 453.33C642.892 453.443 638.432 453.477 634.199 453.43C634.006 453.431 633.819 453.492 633.663 453.605C633.507 453.718 633.39 453.877 633.329 454.06C629.139 466.63 624.189 487.29 643.519 489.27C650.639 489.997 657.496 489.267 664.089 487.08C684.889 480.18 702.379 466.17 716.659 449.64C729.072 435.253 738.459 422.813 744.819 412.32C748.949 405.5 753.179 395.68 758.649 387.38C761.282 383.387 763.399 380.64 764.999 379.14C772.006 372.607 780.746 371.007 791.219 374.34C791.26 374.355 791.299 374.378 791.331 374.407C791.364 374.436 791.39 374.471 791.409 374.511C791.428 374.55 791.438 374.592 791.44 374.635C791.442 374.678 791.434 374.72 791.419 374.76L786.269 388.36C786.255 388.401 786.254 388.444 786.265 388.486C786.276 388.527 786.299 388.565 786.331 388.593C786.362 388.622 786.402 388.641 786.444 388.647C786.487 388.654 786.53 388.648 786.569 388.63C795.582 384.57 804.892 382.137 814.499 381.33C821.459 380.74 832.479 381.12 838.159 385.84C844.339 390.98 844.989 397.96 844.119 406.09C842.389 422.42 829.529 432.63 813.609 433.3C813.531 433.304 813.454 433.289 813.383 433.256C813.312 433.223 813.25 433.174 813.203 433.112C813.156 433.049 813.124 432.977 813.111 432.9C813.099 432.823 813.105 432.744 813.129 432.67C817.589 418.6 819.839 393.91 795.739 399.12C778.219 402.91 769.699 427.63 763.979 442.51C755.706 464.063 747.369 486.673 738.969 510.34C738.915 510.488 738.822 510.618 738.7 510.716C738.579 510.815 738.433 510.878 738.279 510.9C729.249 512 721.519 508.34 719.199 498.99C717.229 491.07 719.119 483.02 721.539 474.44C722.719 470.253 724.232 465.667 726.079 460.68C726.105 460.61 726.105 460.534 726.078 460.465C726.052 460.397 726.001 460.34 725.935 460.305C725.869 460.27 725.792 460.259 725.717 460.275C725.643 460.291 725.576 460.331 725.529 460.39C722.989 463.837 720.139 467.03 716.979 469.97C701.809 484.1 686.189 496.41 666.369 503.57C651.489 508.95 636.119 511.44 620.949 508.55C607.319 505.96 597.999 498.39 595.499 484.05C595.484 483.959 595.446 483.874 595.388 483.803C595.33 483.731 595.254 483.676 595.168 483.643C595.082 483.61 594.989 483.599 594.898 483.613C594.807 483.626 594.722 483.663 594.649 483.72C581.489 494.08 546.049 521.46 530.199 504.59C523.869 497.85 526.429 485.66 528.179 477.82C528.189 477.764 528.182 477.705 528.158 477.653C528.134 477.601 528.094 477.557 528.045 477.529C527.996 477.501 527.94 477.49 527.885 477.498C527.83 477.505 527.779 477.53 527.739 477.57C514.559 490.15 500.019 501.41 483.609 507.33C472.949 511.18 457.529 512.93 454.509 497.95C452.949 490.21 454.969 481.95 455.029 474.84C455.028 474.779 455.009 474.719 454.975 474.668C454.941 474.616 454.893 474.576 454.837 474.553C454.782 474.529 454.72 474.523 454.662 474.535C454.604 474.547 454.55 474.577 454.509 474.62ZM605.949 370.33C621.819 368.64 636.729 360.4 648.259 349.25C658.099 339.743 666.519 329.337 673.519 318.03C678.009 310.78 682.169 300.24 675.639 293.37C658.249 275.07 635.139 315.9 628.829 326.84C620.722 340.88 613.002 355.24 605.669 369.92C605.645 369.965 605.634 370.016 605.637 370.067C605.639 370.118 605.656 370.168 605.685 370.21C605.714 370.252 605.754 370.286 605.8 370.307C605.847 370.328 605.898 370.336 605.949 370.33ZM638.149 440.89C638.125 440.939 638.114 440.993 638.117 441.048C638.12 441.102 638.137 441.155 638.166 441.201C638.195 441.247 638.236 441.285 638.283 441.311C638.331 441.337 638.385 441.35 638.439 441.35C661.229 441.34 683.669 423.55 688.549 401.34C689.809 395.63 690.039 389 682.139 389.11C673.679 389.23 666.449 396.18 660.999 402.55C651.349 413.82 644.759 427.63 638.149 440.89ZM260.339 487.47C267.099 491.22 277.919 483.15 282.609 478.6C304.579 457.29 322.279 430.65 335.279 403.27C337.419 398.77 338.499 393.26 332.829 390.94C330.069 389.813 327.702 389.323 325.729 389.47C314.619 390.3 304.109 398.68 296.219 406.98C279.886 424.16 267.839 443.94 260.079 466.32C258.509 470.87 254.989 484.51 260.339 487.47ZM407.809 485.4C414.259 496.25 436.829 474.92 442.349 469.33C449.016 462.57 455.262 455.253 461.089 447.38C471.029 433.96 479.179 421.4 485.779 406.98C488.189 401.71 489.559 396.2 484.919 392.36C480.799 388.96 474.539 389.19 469.209 390.49C459.779 392.8 451.959 398.22 444.869 405.33C426.322 423.91 413.702 445.977 407.009 471.53C405.879 475.86 405.379 481.31 407.809 485.4Z" fill="#027120"/>
<path d="M529.96 589.72H534.69C534.865 589.72 535.033 589.789 535.157 589.913C535.28 590.037 535.35 590.205 535.35 590.38V597.35C535.35 597.525 535.28 597.693 535.157 597.816C535.033 597.94 534.865 598.01 534.69 598.01H511.76C511.585 598.01 511.417 597.94 511.293 597.816C511.169 597.693 511.1 597.525 511.1 597.35V590.42C511.1 590.245 511.169 590.077 511.293 589.953C511.417 589.829 511.585 589.76 511.76 589.76H516.27C516.445 589.76 516.613 589.69 516.737 589.566C516.86 589.443 516.93 589.275 516.93 589.1V543.17C516.93 542.995 516.86 542.827 516.737 542.703C516.613 542.579 516.445 542.51 516.27 542.51H511.08C510.905 542.51 510.737 542.44 510.613 542.316C510.489 542.193 510.42 542.025 510.42 541.85V534.76C510.42 534.585 510.489 534.417 510.613 534.293C510.737 534.169 510.905 534.1 511.08 534.1H528.64C528.815 534.1 528.983 534.169 529.107 534.293C529.23 534.417 529.3 534.585 529.3 534.76V589.06C529.3 589.146 529.317 589.232 529.35 589.312C529.383 589.392 529.432 589.465 529.493 589.526C529.554 589.588 529.627 589.636 529.707 589.669C529.787 589.703 529.873 589.72 529.96 589.72Z" fill="#027120"/>
<path d="M568.99 553.99C569.049 553.99 569.107 554.002 569.162 554.025C569.217 554.047 569.266 554.08 569.308 554.122C569.35 554.164 569.383 554.214 569.406 554.268C569.428 554.323 569.44 554.381 569.44 554.44V561.77C569.44 561.903 569.388 562.03 569.296 562.124C569.204 562.218 569.08 562.27 568.95 562.27H557.39C557.312 562.27 557.236 562.286 557.164 562.315C557.092 562.345 557.027 562.388 556.973 562.443C556.918 562.498 556.874 562.563 556.845 562.635C556.815 562.706 556.8 562.783 556.8 562.86C556.82 574.06 556.84 580.497 556.86 582.17C556.873 583.484 557 584.764 557.24 586.01C558.1 590.56 566.49 588.7 569.68 588.13C569.799 588.108 569.921 588.109 570.039 588.135C570.158 588.16 570.27 588.209 570.37 588.279C570.469 588.349 570.554 588.438 570.62 588.541C570.685 588.645 570.729 588.76 570.75 588.88L571.91 595.43C571.955 595.674 571.911 595.927 571.786 596.141C571.661 596.356 571.464 596.519 571.23 596.6C565.123 598.714 559.256 599.237 553.63 598.17C545.73 596.68 544.2 591.03 544.2 583.81C544.2 573.01 544.176 566.024 544.13 562.85C544.127 562.704 544.067 562.564 543.962 562.461C543.857 562.358 543.717 562.3 543.57 562.3H538.59C538.514 562.3 538.438 562.285 538.368 562.256C538.297 562.227 538.233 562.184 538.18 562.131C538.126 562.077 538.083 562.013 538.054 561.942C538.025 561.872 538.01 561.797 538.01 561.72V556.06C538.01 555.894 538.064 555.733 538.163 555.598C538.261 555.464 538.4 555.363 538.56 555.31L544.01 553.52C544.252 553.44 544.471 553.304 544.65 553.123C544.829 552.942 544.963 552.722 545.04 552.48L548.06 543.21C548.155 542.914 548.342 542.656 548.594 542.472C548.845 542.289 549.148 542.19 549.46 542.19H556.38C556.504 542.19 556.624 542.24 556.712 542.328C556.8 542.416 556.85 542.536 556.85 542.66V553.36C556.85 553.527 556.917 553.688 557.037 553.806C557.157 553.924 557.32 553.99 557.49 553.99H568.99Z" fill="#027120"/>
<path d="M631.05 579.39C630.96 587.35 635.49 589.85 643.05 589.5C646.99 589.314 650.75 588.51 654.33 587.09C654.464 587.038 654.607 587.013 654.75 587.016C654.894 587.019 655.036 587.05 655.167 587.108C655.298 587.166 655.416 587.248 655.514 587.352C655.613 587.455 655.689 587.577 655.74 587.71L657.85 593.28C657.972 593.605 657.965 593.964 657.831 594.282C657.697 594.6 657.446 594.854 657.13 594.99C649.59 598.31 642.09 599.404 634.63 598.27C625.576 596.897 620.34 591.46 618.92 581.96C616.58 566.34 623.2 552.02 641.24 552.75C656.74 553.37 659.79 565.23 659.02 578.09C659.01 578.25 658.94 578.4 658.825 578.51C658.709 578.62 658.558 578.681 658.4 578.68H631.77C631.581 578.68 631.399 578.755 631.264 578.888C631.129 579.021 631.052 579.201 631.05 579.39ZM631.83 570.91L647.25 570.81C647.312 570.81 647.374 570.798 647.432 570.774C647.49 570.749 647.542 570.714 647.586 570.669C647.63 570.625 647.664 570.572 647.687 570.513C647.71 570.455 647.721 570.393 647.72 570.33V570.01C647.703 567.712 646.83 565.513 645.292 563.899C643.754 562.284 641.678 561.385 639.52 561.4H639.44C638.371 561.408 637.313 561.639 636.328 562.082C635.344 562.525 634.451 563.17 633.7 563.981C632.95 564.792 632.357 565.752 631.955 566.807C631.554 567.862 631.351 568.992 631.36 570.13V570.45C631.362 570.573 631.413 570.69 631.501 570.776C631.589 570.862 631.707 570.91 631.83 570.91Z" fill="#027120"/>
<path d="M743.72 593.07C743.714 593.002 743.69 592.937 743.65 592.881C743.61 592.826 743.555 592.784 743.492 592.758C743.429 592.732 743.359 592.724 743.292 592.735C743.225 592.746 743.162 592.775 743.11 592.82C735.6 599.86 719.37 602.07 715.84 589.3C713.36 580.36 720.15 573.81 728.48 572.81C733.22 572.236 737.22 571.986 740.48 572.06C740.913 572.07 741.343 571.977 741.732 571.787C742.121 571.597 742.459 571.316 742.717 570.968C742.975 570.62 743.145 570.214 743.214 569.787C743.282 569.359 743.247 568.921 743.11 568.51L742 565.15C741.745 564.383 741.287 563.699 740.674 563.171C740.062 562.643 739.317 562.29 738.52 562.15C733.28 561.21 727.2 562.3 722.26 563.79C722.088 563.842 721.902 563.825 721.741 563.741C721.58 563.657 721.458 563.513 721.4 563.34L719.36 557.15C719.282 556.912 719.299 556.654 719.407 556.428C719.515 556.203 719.706 556.028 719.94 555.94C727.18 553.226 734.717 552.26 742.55 553.04C751.27 553.91 754.63 559.91 754.76 568.06C754.78 569.726 754.807 576.533 754.84 588.48C754.84 588.615 754.893 588.745 754.987 588.84C755.08 588.936 755.208 588.99 755.34 588.99H760.86C761.12 588.99 761.369 589.093 761.553 589.277C761.737 589.46 761.84 589.71 761.84 589.97L761.85 595.39C761.85 595.558 761.799 595.722 761.705 595.861C761.61 596 761.476 596.108 761.32 596.17C757.13 597.78 747.73 599.77 744.65 596.23C744.163 595.663 743.853 594.61 743.72 593.07ZM742.15 577.7C735.39 578.24 727 577.89 728.45 585.98C729.72 593.08 739.16 589.94 742.54 586.57C742.645 586.468 742.728 586.346 742.785 586.21C742.841 586.075 742.87 585.928 742.87 585.78L742.82 578.3C742.819 578.216 742.801 578.133 742.766 578.057C742.731 577.981 742.681 577.912 742.618 577.856C742.555 577.8 742.481 577.757 742.401 577.73C742.32 577.703 742.235 577.693 742.15 577.7Z" fill="#027120"/>
<path d="M611.259 587.35C611.306 587.333 611.355 587.325 611.405 587.327C611.455 587.329 611.503 587.342 611.548 587.363C611.593 587.385 611.633 587.415 611.666 587.452C611.698 587.489 611.723 587.533 611.739 587.58L614.069 594.66C614.121 594.817 614.113 594.988 614.046 595.139C613.98 595.29 613.86 595.412 613.709 595.48C605.679 599.06 593.979 600.14 586.039 596.43C576.309 591.87 574.709 579.1 576.619 569.72C578.706 559.533 584.816 553.983 594.949 553.07C600.729 552.55 606.176 553.137 611.289 554.83C611.533 554.908 611.745 555.062 611.896 555.268C612.047 555.475 612.129 555.724 612.129 555.98V567.25C612.129 567.603 611.988 567.941 611.737 568.19C611.485 568.44 611.145 568.58 610.789 568.58H604.699C604.421 568.58 604.154 568.47 603.957 568.275C603.76 568.08 603.649 567.816 603.649 567.54V563.22C603.65 563.036 603.582 562.857 603.459 562.719C603.335 562.581 603.165 562.492 602.979 562.47C590.189 560.95 587.759 568.94 588.899 579.83C590.199 592.25 602.879 590.31 611.259 587.35Z" fill="#027120"/>
<path d="M404.699 579.21C404.51 579.21 404.329 579.284 404.194 579.417C404.059 579.55 403.982 579.73 403.979 579.92C403.889 587.88 408.419 590.38 415.979 590.03C419.919 589.843 423.679 589.04 427.259 587.62C427.394 587.568 427.537 587.542 427.68 587.545C427.824 587.548 427.965 587.58 428.096 587.637C428.227 587.695 428.346 587.778 428.444 587.881C428.542 587.985 428.619 588.106 428.669 588.24L430.779 593.81C430.901 594.134 430.895 594.493 430.76 594.811C430.626 595.13 430.375 595.383 430.059 595.52C422.519 598.84 415.019 599.933 407.559 598.8C398.506 597.426 393.269 591.99 391.849 582.49C389.509 566.87 396.129 552.55 414.169 553.28C429.669 553.9 432.719 565.76 431.949 578.62C431.939 578.78 431.869 578.93 431.754 579.039C431.639 579.149 431.487 579.21 431.329 579.21H404.699ZM404.659 571.63L420.339 571.49C420.43 571.49 420.516 571.454 420.58 571.39C420.644 571.326 420.679 571.24 420.679 571.15V570.97C420.67 569.803 420.467 568.649 420.082 567.574C419.698 566.499 419.139 565.524 418.437 564.705C417.736 563.886 416.907 563.239 415.996 562.8C415.085 562.362 414.111 562.141 413.129 562.15L411.709 562.17C409.729 562.188 407.839 563.139 406.453 564.816C405.067 566.492 404.3 568.756 404.319 571.11V571.29C404.319 571.334 404.328 571.379 404.345 571.42C404.362 571.461 404.387 571.498 404.419 571.53C404.451 571.562 404.488 571.587 404.529 571.604C404.571 571.621 404.615 571.63 404.659 571.63Z" fill="#027120"/>
<path d="M489.721 593.79C489.717 593.72 489.693 593.653 489.652 593.596C489.611 593.539 489.555 593.495 489.49 593.469C489.425 593.443 489.354 593.435 489.285 593.448C489.216 593.461 489.152 593.492 489.101 593.54C481.581 600.59 465.321 602.79 461.791 590C459.321 581.04 466.121 574.49 474.471 573.49C479.218 572.923 483.224 572.676 486.491 572.75C486.923 572.758 487.351 572.663 487.74 572.473C488.128 572.282 488.465 572.001 488.722 571.654C488.98 571.306 489.15 570.902 489.219 570.475C489.289 570.048 489.255 569.611 489.121 569.2L488.011 565.83C487.757 565.062 487.299 564.377 486.686 563.847C486.074 563.317 485.329 562.962 484.531 562.82C479.281 561.88 473.191 562.96 468.241 564.45C468.069 564.503 467.883 564.485 467.722 564.401C467.561 564.317 467.439 564.173 467.381 564L465.341 557.8C465.263 557.562 465.28 557.304 465.388 557.078C465.496 556.853 465.687 556.678 465.921 556.59C473.174 553.876 480.724 552.913 488.571 553.7C497.311 554.58 500.671 560.59 500.791 568.75C500.811 570.423 500.834 577.243 500.861 589.21C500.861 589.345 500.914 589.475 501.007 589.57C501.101 589.666 501.228 589.72 501.361 589.72H506.891C507.02 589.72 507.147 589.745 507.266 589.794C507.385 589.844 507.493 589.916 507.584 590.007C507.675 590.098 507.747 590.206 507.796 590.325C507.846 590.444 507.871 590.571 507.871 590.7V596.13C507.871 596.298 507.82 596.462 507.726 596.601C507.631 596.74 507.497 596.848 507.341 596.91C503.141 598.52 493.731 600.51 490.641 596.96C490.154 596.393 489.848 595.336 489.721 593.79ZM488.251 578.45C481.461 578.95 473.041 578.55 474.441 586.68C475.671 593.82 485.171 590.72 488.591 587.36C488.696 587.258 488.779 587.136 488.835 587.001C488.892 586.865 488.921 586.718 488.921 586.57V579.06C488.921 578.975 488.904 578.892 488.87 578.814C488.835 578.737 488.785 578.667 488.722 578.61C488.659 578.552 488.585 578.509 488.504 578.481C488.423 578.453 488.336 578.443 488.251 578.45Z" fill="#027120"/>
<path d="M693 561.8V553.87C693 553.769 693.04 553.673 693.112 553.602C693.183 553.53 693.28 553.49 693.38 553.49H712.09C712.191 553.49 712.288 553.53 712.359 553.602C712.43 553.673 712.47 553.769 712.47 553.87V561.62C712.47 561.721 712.43 561.818 712.359 561.889C712.288 561.96 712.191 562 712.09 562H708.94C708.864 562.002 708.789 562.026 708.727 562.071C708.664 562.116 708.617 562.178 708.59 562.25L695.26 597.46C695.234 597.532 695.187 597.595 695.124 597.64C695.062 597.684 694.987 597.709 694.91 597.71H680.22C680.144 597.709 680.069 597.684 680.007 597.64C679.944 597.595 679.897 597.532 679.87 597.46L666.84 563.14C666.814 563.068 666.767 563.006 666.704 562.961C666.642 562.916 666.567 562.892 666.49 562.89H662.7C662.6 562.89 662.503 562.85 662.432 562.779C662.36 562.708 662.32 562.611 662.32 562.51V554.02C662.32 553.919 662.36 553.823 662.432 553.752C662.503 553.68 662.6 553.64 662.7 553.64H676.16C676.24 553.64 676.318 553.666 676.382 553.712C676.447 553.759 676.495 553.825 676.52 553.9L687.48 587.18C687.506 587.256 687.554 587.321 687.619 587.367C687.683 587.414 687.761 587.439 687.84 587.439C687.92 587.439 687.997 587.414 688.062 587.367C688.126 587.321 688.175 587.256 688.2 587.18L696.17 562.68C696.189 562.623 696.194 562.562 696.185 562.503C696.176 562.443 696.153 562.387 696.118 562.338C696.083 562.289 696.037 562.25 695.983 562.222C695.93 562.195 695.87 562.18 695.81 562.18H693.38C693.28 562.18 693.183 562.14 693.112 562.069C693.04 561.998 693 561.901 693 561.8Z" fill="#027120"/>
<path d="M772.881 598.38C776.703 598.38 779.801 595.282 779.801 591.46C779.801 587.638 776.703 584.54 772.881 584.54C769.059 584.54 765.961 587.638 765.961 591.46C765.961 595.282 769.059 598.38 772.881 598.38Z" fill="#027120"/>
<path d="M794.42 598.32C798.236 598.32 801.33 595.226 801.33 591.41C801.33 587.594 798.236 584.5 794.42 584.5C790.603 584.5 787.51 587.594 787.51 591.41C787.51 595.226 790.603 598.32 794.42 598.32Z" fill="#027120"/>
<path d="M815.991 598.26C819.818 598.26 822.921 595.158 822.921 591.33C822.921 587.503 819.818 584.4 815.991 584.4C812.163 584.4 809.061 587.503 809.061 591.33C809.061 595.158 812.163 598.26 815.991 598.26Z" fill="#027120"/>
</svg>
